<?xml version="1.0" encoding="UTF-8" standalone="no"?> <!-- Created with Vectornator Pro for iOS (http://vectornator.io/) --><!DOCTYPE svg PUBLIC "-//W3C//DTD SVG 1.1//EN" "http://www.w3.org/Graphics/SVG/1.1/DTD/svg11.dtd">
<svg height="100%" style="fill-rule:evenodd;clip-rule:evenodd;stroke-linecap:round;stroke-linejoin:round;" xmlns:xlink="http://www.w3.org/1999/xlink" xmlns="http://www.w3.org/2000/svg" xml:space="preserve" width="100%" xmlns:vectornator="http://vectornator.io" version="1.1" viewBox="0 0 3840 2160">
<metadata>
<vectornator:setting key="RulersVisible" value="1"/>
<vectornator:setting key="GridSpacing" value="36"/>
<vectornator:setting key="Units" value="Pixels"/>
<vectornator:setting key="DynamicGuides" value="0"/>
<vectornator:setting key="SnapToPoints" value="0"/>
<vectornator:setting key="SnapToGrid" value="0"/>
<vectornator:setting key="ShowGrid" value="1"/>
<vectornator:setting key="SnapToEdges" value="0"/>
</metadata>
<defs/>
<g id="Shadow" vectornator:layerName="Shadow">
<path d="M1938.59+1190.02L2111.6+1183.82C2111.6+1183.82+2037.54+1563.72+2020.13+1577.06C1892.56+1674.81+1785.4+1668.56+1681.02+1661.17C1576.65+1653.78+1428.91+1620.17+1443.31+1554.18C1449.98+1523.62+1938.59+1190.02+1938.59+1190.02Z" fill-opacity="0.338552" fill="#8e8e8e" opacity="1"/>
</g>
<g id="Stone face" vectornator:layerName="Stone face">
<path d="M1939.98+1188.3C1939.98+1188.3+1941+1158.09+1937.76+1122.45C1936.63+1110.04+1941.05+1100.56+1941+1086.97C1940.95+1075.29+1937.99+1067.01+1937.33+1055.68C1936.26+1037.25+1937.85+1016.53+1942.58+1003.08C1963.07+944.828+2021.92+955.302+2021.92+955.302C2021.92+955.302+2082.52+953.134+2094.32+981.944C2100.15+996.186+2106.86+1040.76+2108.1+1069.77C2110.55+1127.27+2111.05+1183.99+2111.05+1183.99" stroke="#000000" stroke-width="1" fill="#e4e4e4" opacity="1" stroke-linejoin="round"/>
</g>
<g id="Stone HL" vectornator:layerName="Stone HL">
<path d="M1958.15+973.045L1975.39+953.868C1975.39+953.868+1999.45+939.904+2028.9+939.863C2045.28+939.84+2066.42+940.925+2079.22+944.732C2089.43+947.77+2082.87+947.295+2093.21+953.701C2102.28+959.315+2104.19+957.103+2111.3+981.334C2118.42+1005.57+2121.67+1050.63+2121.67+1050.63L2123.71+1166.48L2110.45+1178.46C2110.45+1178.46+2109.07+1152.69+2108.38+1118.92C2108.11+1106.12+2110.91+1091.35+2109.58+1077.6C2106.39+1044.57+2104.85+1029.19+2100.62+1011.04C2098.44+1001.69+2098.08+988.545+2091.11+978.284C2080.41+962.522+2050.64+950.618+2021.28+953.423C2008.98+954.598+1993.76+954.604+1983.17+958.732C1970.64+963.613+1963.39+972.611+1958.14+972.535" opacity="1" fill="#ffffff"/>
</g>
<g id="Stone line" vectornator:layerName="Stone line">
<path d="M2035.94+938.875C2020.2+938.41+2004.94+939.65+1991.25+945.375C1987.51+946.42+1983.83+947.748+1980.16+949.5C1971.2+953.775+1964.38+962.583+1957.66+969.438C1954.75+972.395+1951.43+976.021+1949.75+979.969C1946.84+983.786+1944.8+988.245+1944.38+993.031C1935.86+1015.23+1933.9+1049.7+1937.75+1067.62C1940.56+1080.71+1938.63+1098.08+1937.84+1111.41C1936.33+1136.93+1941.66+1162.92+1939.22+1188.19L1940.09+1188.12C1942.74+1163.17+1936.98+1134.69+1939.28+1111.31C1940.57+1098.2+1941.67+1080.5+1939.03+1067.56C1935.28+1049.16+1937.9+1002.32+1948.72+986.719C1952.32+981.529+1956.11+977.181+1960+973.438C1959.85+973.744+1959.68+973.999+1959.53+974.312L1964.03+969.969C1964.03+969.967+1964.06+969.971+1964.06+969.969C1964.22+969.753+1964.4+969.588+1964.56+969.375C1987.71+950.662+2015.81+952.965+2049.25+956.625C2066.31+958.492+2088.81+967.645+2094.25+986.188C2098.11+999.337+2099.27+1013.79+2103.16+1027.12C2105.9+1036.52+2103.2+1047.56+2105.31+1057.16C2107.22+1065.83+2109.98+1081.87+2108.03+1090.69C2106.08+1099.49+2106.35+1111.38+2106.84+1121.09L2105.91+1120.78C2105.76+1130.83+2107.4+1141.5+2108.72+1152.22C2108.87+1155.4+2109.05+1158.48+2108.97+1161.19C2108.92+1162.77+2109.12+1167.18+2109+1166.94C2108.71+1166.34+2109.07+1168.25+2108.97+1168.91C2108.72+1170.46+2109.64+1175.13+2109.06+1173.66C2108.74+1172.82+2109.23+1175.45+2109.16+1176.34C2109.12+1176.86+2108.22+1180.03+2109.12+1181.5C2107.7+1182.13+2106.46+1182.77+2106.16+1183.62C2106.02+1184+2098.09+1184.16+2097.31+1183.69C2091.32+1180.1+2074.12+1184.54+2066.81+1184.81C2047.88+1185.53+2029.06+1185.13+2010.31+1184.91C2015.8+1185.56+2021.49+1186.72+2026.06+1186.44C2045.25+1185.27+2065.26+1187.72+2084.25+1184.84C2090.82+1183.85+2100.07+1186.36+2106.09+1184.09C2107.78+1183.46+2109.36+1182.15+2110.88+1180.69C2110.55+1180.82+2110.29+1180.96+2109.97+1181.09C2110.4+1180.69+2110.78+1174.11+2110.75+1173.97C2110.52+1172.87+2110.35+1171.19+2110.19+1169.47C2110.09+1163.19+2109.86+1156.94+2109.59+1150.81C2109.59+1148.13+2109.51+1145.37+2109.56+1142.94L2109.34+1142.94C2109.33+1142.06+2109.24+1140.96+2109.25+1140.12C2109.25+1139.86+2109.3+1139.53+2109.31+1139.25C2109.49+1139.7+2109.71+1140.6+2109.81+1140.59L2109.91+1140.5C2109.58+1140.53+2109.7+1133.85+2109.66+1133.16C2109.65+1133.04+2109.63+1132.93+2109.62+1132.81C2109.67+1130.99+2109.6+1129.19+2109.19+1127.56L2109.78+1127.53C2109.08+1116.39+2108.83+1101.7+2110.62+1090.5C2112.11+1081.22+2110.08+1065.91+2107.84+1056.97C2105.57+1047.88+2106.5+1037.15+2105.62+1027.84C2104.25+1013.14+2100.77+998.943+2096.09+985.094C2089.77+966.359+2067.59+956.513+2049.72+954.875C2021.11+952.252+1991.94+949.905+1968.72+964.188C1978.26+953.303+1988.78+947.019+2000.25+943.594C2001.14+943.409+2002+943.101+2002.91+942.969C2002.21+943.071+2001.56+943.262+2000.88+943.375C2019.02+938.141+2039.55+940.003+2062.66+942.531C2079.72+944.399+2102.21+953.551+2107.66+972.094C2111.52+985.243+2112.71+999.697+2116.59+1013.03C2119.33+1022.43+2116.61+1033.47+2118.72+1043.06C2120.63+1051.73+2123.39+1067.78+2121.44+1076.59C2119.06+1087.35+2119.87+1103.65+2120.53+1113.62L2120.97+1113.59C2121.73+1127.09+2122.51+1139.1+2122.59+1154.75C2121.95+1160.06+2122.67+1166.62+2122.97+1166.75L2123.03+1166.69C2123.41+1166.89+2123.88+1162.27+2123.91+1160.97C2123.95+1158.53+2124.19+1155.4+2124.31+1152.25C2124.47+1151.5+2124.52+1150.75+2124.44+1149.97C2124.41+1149.71+2124.4+1149.54+2124.38+1149.28C2124.56+1149.07+2124.69+1148.77+2124.91+1148.62L2124.41+1148.44C2124.42+1148.67+2124.37+1148.92+2124.38+1149.16C2122.97+1134.53+2123.32+1125.57+2122.53+1113.5L2123.22+1113.44C2122.52+1102.29+2122.23+1087.61+2124.03+1076.41C2125.52+1067.13+2123.49+1051.81+2121.25+1042.88C2118.98+1033.79+2119.9+1023.06+2119.03+1013.75C2117.66+999.051+2114.17+984.849+2109.5+971C2103.18+952.265+2081+942.419+2063.12+940.781C2054.05+939.95+2044.92+939.14+2035.94+938.875ZM2110.88+1180.69C2112.98+1179.81+2115.16+1178.85+2115.97+1177.25C2116.39+1176.42+2117.45+1174.63+2118.44+1173C2116.23+1174.75+2113.7+1177.96+2110.88+1180.69ZM2118.44+1173C2118.85+1172.67+2119.3+1172.19+2119.69+1172C2121.22+1171.26+2124.26+1167.87+2123.81+1166.28C2122.3+1167+2120.22+1170.08+2118.44+1173ZM2010.31+1184.91C2006.85+1184.49+2003.5+1184.28+2000.59+1184.84C2003.83+1184.86+2007.07+1184.87+2010.31+1184.91ZM2000.59+1184.84C1980.63+1184.71+1960.76+1185+1941.03+1187.34L1940.94+1188.38C1949.59+1188.14+1993.76+1186.75+1999.16+1185.12C1999.61+1184.99+2000.11+1184.94+2000.59+1184.84ZM2005.66+943.75C2002.73+944.687+1998.67+949.544+1997.38+950.75L1997.75+951.125C2000.14+948.868+2003.31+946.364+2005.69+943.844L2005.66+943.75ZM2009.34+945.625C2008.65+946.112+2007.97+946.607+2007.28+947.094L2007.59+947.531C2008.22+946.949+2008.84+946.364+2009.47+945.781L2009.34+945.625ZM1998.03+946.781C1994.46+947.119+1989.35+952.064+1986.81+954.688L1986.97+954.875C1989.63+952.95+1995.04+947.064+1998.03+946.781ZM1992.16+947.75C1991.4+948.042+1988.83+949.817+1987.81+950.562C1984.21+953.193+1980.38+955.724+1976.78+958.281L1977+958.562C1977.53+958.187+1992.5+947.631+1992.19+948.031C1992.46+947.713+1992.41+947.653+1992.16+947.75ZM1968.5+961.312C1967.26+962.641+1966.03+963.958+1964.84+965.438C1964.19+966.26+1963.58+967.248+1962.97+968.188C1961.26+969.513+1959.59+970.953+1957.97+972.5C1961.18+968.596+1964.71+964.829+1968.5+961.312ZM2109.62+1160.44C2109.88+1163.16+2109.97+1165.86+2110.06+1168.56C2109.87+1166.17+2109.72+1163.42+2109.62+1160.44Z" stroke="#000000" stroke-width="1" fill="#000000" opacity="1" stroke-linejoin="round"/>
</g>
</svg>
