<?xml version="1.0" encoding="UTF-8" standalone="no"?> <!-- Created with Vectornator Pro for iOS (http://vectornator.io/) --><!DOCTYPE svg PUBLIC "-//W3C//DTD SVG 1.1//EN" "http://www.w3.org/Graphics/SVG/1.1/DTD/svg11.dtd">
<svg height="100%" style="fill-rule:evenodd;clip-rule:evenodd;stroke-linecap:round;stroke-linejoin:round;" xmlns:xlink="http://www.w3.org/1999/xlink" xmlns="http://www.w3.org/2000/svg" xml:space="preserve" width="100%" xmlns:vectornator="http://vectornator.io" version="1.1" viewBox="0 0 3840 2160">
<metadata>
<vectornator:setting key="RulersVisible" value="1"/>
<vectornator:setting key="SnapToEdges" value="0"/>
<vectornator:setting key="Units" value="Pixels"/>
<vectornator:setting key="DynamicGuides" value="0"/>
<vectornator:setting key="SnapToPoints" value="0"/>
<vectornator:setting key="CMYKEnabledKey" value="0"/>
<vectornator:setting key="SnapToGrid" value="0"/>
<vectornator:setting key="ShowGrid" value="1"/>
<vectornator:setting key="GridSpacing" value="36"/>
</metadata>
<defs/>
<g id="Shadow" vectornator:layerName="Shadow">
<path d="M1797.7+472.392L2031.02+463.987C2031.02+463.987+2455.07+531.303+2584.44+812.774C2697.37+1058.49+2678.3+1452.27+2428.98+1669.25C2179.66+1886.23+1633.03+1906.33+1407.85+1686.2C1182.67+1466.07+1130.96+1099.7+1270.91+818.233C1366.55+625.881+1583.81+533.83+1707.37+495.585C1711.31+494.364+1710.76+526.93+1707.36+532.233C1705.95+534.438+1707.79+541.118+1716.11+539.758C1719.15+539.261+1719.26+543.332+1723.14+543.885C1728.15+544.599+1737.01+541.911+1740.88+541.713C1744.27+541.541+1752.45+541.203+1755.28+538.67C1758.8+535.521+1756.54+530.045+1755.66+529.763C1741.87+525.367+1737.6+486.712+1742.26+485.449C1776.5+476.158+1797.7+472.392+1797.7+472.392Z" stroke="#000000" stroke-width="1" fill="#a5a5a5" opacity="1" stroke-linejoin="round"/>
</g>
<g id="Stone face" vectornator:layerName="Stone face">
<path d="M1848.75+500.582C1848.75+500.582+1849.77+470.371+1846.53+434.727C1845.4+422.321+1849.82+412.84+1849.77+399.249C1849.72+387.566+1846.77+379.293+1846.1+367.962C1845.03+349.53+1846.62+328.809+1851.35+315.358C1871.84+257.107+1930.69+267.581+1930.69+267.581C1930.69+267.581+1991.29+265.413+2003.09+294.223C2008.92+308.465+2015.64+353.042+2016.87+382.051C2019.33+439.545+2019.82+496.268+2019.82+496.268" stroke="#000000" stroke-width="1" fill="#e4e4e4" opacity="1" stroke-linejoin="round"/>
</g>
<g id="Stone HL" vectornator:layerName="Stone HL">
<path d="M1866.92+285.324L1884.17+266.146C1884.17+266.146+1908.22+252.183+1937.67+252.142C1954.05+252.119+1975.19+253.204+1987.99+257.01C1998.21+260.049+1991.64+259.574+2001.98+265.98C2011.05+271.594+2012.96+269.381+2020.07+293.613C2027.19+317.844+2030.44+362.906+2030.44+362.906L2032.48+478.762L2019.23+490.741C2019.23+490.741+2017.84+464.971+2017.15+431.201C2016.88+418.399+2019.69+403.632+2018.36+389.876C2015.16+356.846+2013.62+341.472+2009.39+323.323C2007.21+313.974+2006.85+300.824+1999.88+290.563C1989.18+274.801+1959.41+262.897+1930.05+265.702C1917.75+266.877+1902.53+266.883+1891.94+271.01C1879.41+275.892+1872.16+284.89+1866.91+284.814" opacity="1" fill="#ffffff"/>
</g>
<g id="Stone line" vectornator:layerName="Stone line">
<path d="M1944.72+251.156C1928.9+250.689+1913.56+251.916+1899.81+257.719C1896.14+258.755+1892.54+260.064+1888.94+261.781C1879.98+266.056+1873.13+274.865+1866.41+281.719C1863.49+284.686+1860.14+288.319+1858.47+292.281C1855.58+296.09+1853.58+300.543+1853.16+305.312C1844.64+327.516+1842.68+361.979+1846.53+379.906C1849.34+392.992+1847.38+410.329+1846.59+423.656C1845.08+449.177+1850.41+475.197+1847.97+500.469L1848.88+500.406C1851.52+475.45+1845.76+446.936+1848.06+423.562C1849.35+410.448+1850.45+392.776+1847.81+379.844C1844.06+361.444+1846.68+314.605+1857.5+299C1861.08+293.831+1864.84+289.484+1868.72+285.75C1868.58+286.043+1868.42+286.295+1868.28+286.594L1872.81+282.25C1872.97+282.034+1873.15+281.869+1873.31+281.656C1896.46+262.941+1924.59+265.247+1958.03+268.906C1975.1+270.774+1997.59+279.926+2003.03+298.469C2006.89+311.618+2008.05+326.072+2011.94+339.406C2014.68+348.805+2011.98+359.846+2014.09+369.438C2016+378.11+2018.73+394.153+2016.78+402.969C2014.83+411.778+2015.13+423.654+2015.62+433.375L2014.69+433.062C2014.54+443.154+2016.18+453.865+2017.5+464.625C2017.65+467.757+2017.8+470.796+2017.72+473.469C2017.67+475.054+2017.87+479.458+2017.75+479.219C2017.46+478.624+2017.82+480.533+2017.72+481.188C2017.47+482.746+2018.42+487.407+2017.84+485.938C2017.52+485.104+2017.98+487.733+2017.91+488.625C2017.87+489.134+2017.03+492.269+2017.91+493.75C2016.48+494.378+2015.24+495.047+2014.94+495.906C2014.8+496.282+2006.87+496.437+2006.09+495.969C2000.1+492.377+1982.9+496.818+1975.59+497.094C1956.67+497.808+1937.83+497.409+1919.09+497.188C1924.58+497.846+1930.28+498.997+1934.84+498.719C1954.03+497.548+1974.01+500.004+1993+497.125C1999.57+496.13+2008.85+498.639+2014.88+496.375C2016.56+495.743+2018.14+494.436+2019.66+492.969C2019.33+493.106+2019.07+493.242+2018.75+493.375C2019.18+492.969+2019.53+486.394+2019.5+486.25C2019.26+485.086+2019.07+483.35+2018.91+481.5C2018.81+475.587+2018.64+469.715+2018.38+463.906C2018.37+460.943+2018.28+457.907+2018.34+455.219L2018.12+455.219C2018.12+454.339+2018.02+453.239+2018.03+452.406C2018.03+452.133+2018.08+451.784+2018.09+451.5C2018.27+451.958+2018.49+452.88+2018.59+452.875L2018.69+452.781C2018.36+452.811+2018.48+446.134+2018.44+445.438C2018.43+445.325+2018.41+445.207+2018.41+445.094C2018.46+443.266+2018.35+441.48+2017.94+439.844L2018.56+439.812C2017.86+428.667+2017.61+413.985+2019.41+402.781C2020.89+393.504+2018.83+378.187+2016.59+369.25C2014.32+360.165+2015.28+349.432+2014.41+340.125C2013.03+325.426+2009.55+311.224+2004.88+297.375C1998.55+278.64+1976.37+268.794+1958.5+267.156C1929.91+264.535+1900.74+262.19+1877.53+276.438C1887.05+265.593+1897.51+259.301+1908.94+255.875C1909.86+255.683+1910.76+255.387+1911.69+255.25C1910.97+255.355+1910.3+255.57+1909.59+255.688C1927.74+250.439+1948.32+252.283+1971.44+254.812C1988.5+256.68+2011+265.832+2016.44+284.375C2020.3+297.524+2021.46+311.978+2025.34+325.312C2028.08+334.712+2025.39+345.752+2027.5+355.344C2029.41+364.016+2032.17+380.059+2030.22+388.875C2027.84+399.635+2028.62+415.904+2029.28+425.875L2029.75+425.844C2030.51+439.378+2031.29+451.397+2031.38+467.094C2030.74+472.395+2031.45+478.904+2031.75+479.031L2031.81+478.969C2032.2+479.174+2032.66+474.555+2032.69+473.25C2032.73+470.655+2033+467.253+2033.09+463.906C2033.17+463.358+2033.28+462.819+2033.22+462.25C2033.19+461.992+2033.18+461.817+2033.16+461.562C2033.34+461.354+2033.48+461.053+2033.69+460.906L2033.19+460.719C2033.2+460.952+2033.15+461.201+2033.16+461.438C2031.75+446.8+2032.11+437.84+2031.31+425.75L2031.97+425.719C2031.27+414.574+2031.02+399.891+2032.81+388.688C2034.3+379.411+2032.27+364.093+2030.03+355.156C2027.76+346.072+2028.68+335.338+2027.81+326.031C2026.44+311.332+2022.95+297.13+2018.28+283.281C2011.96+264.547+1989.78+254.701+1971.91+253.062C1962.83+252.231+1953.7+251.422+1944.72+251.156ZM2019.66+492.969C2021.76+492.093+2023.94+491.133+2024.75+489.531C2025.17+488.696+2026.25+486.893+2027.25+485.25C2025.03+486.987+2022.51+490.216+2019.66+492.969ZM2027.25+485.25C2027.64+484.943+2028.07+484.462+2028.44+484.281C2029.97+483.537+2033.04+480.154+2032.59+478.562C2031.09+479.279+2029.03+482.336+2027.25+485.25ZM1919.09+497.188C1915.64+496.772+1912.28+496.558+1909.38+497.125C1912.61+497.146+1915.85+497.149+1919.09+497.188ZM1909.38+497.125C1889.4+496.994+1869.52+497.278+1849.78+499.625L1849.69+500.656C1858.34+500.422+1902.54+499.034+1907.94+497.406C1908.39+497.27+1908.9+497.218+1909.38+497.125ZM1914.44+256.031C1911.51+256.969+1907.45+261.826+1906.16+263.031L1906.53+263.406C1908.93+261.149+1912.09+258.614+1914.47+256.094L1914.44+256.031ZM1918.12+257.906C1917.43+258.393+1916.72+258.888+1916.03+259.375L1916.38+259.812C1917+259.23+1917.63+258.645+1918.25+258.062L1918.12+257.906ZM1906.81+259.062C1903.24+259.4+1898.1+264.345+1895.56+266.969L1895.75+267.156C1898.41+265.232+1903.82+259.345+1906.81+259.062ZM1900.94+260.031C1900.18+260.323+1897.61+262.067+1896.59+262.812C1892.99+265.443+1889.13+268.005+1885.53+270.562L1885.78+270.844C1886.31+270.468+1901.29+259.912+1900.97+260.312C1901.24+259.994+1901.19+259.934+1900.94+260.031ZM1877.38+273.469C1876.1+274.831+1874.81+276.196+1873.59+277.719C1872.94+278.534+1872.36+279.508+1871.75+280.438C1870.08+281.736+1868.44+283.145+1866.84+284.656C1870.06+280.75+1873.57+276.982+1877.38+273.469Z" stroke="#000000" stroke-width="1" fill="#000000" opacity="1" stroke-linejoin="round"/>
</g>
<g id="Roots1" vectornator:layerName="Roots1">
<path d="M2649.9+1138.69L2649.82+1159.85L2646.57+1180.73C2646.57+1180.73+2632.67+1172.79+2618.16+1170.84C2603.64+1168.88+2595.02+1175.38+2595.02+1175.38C2595.02+1175.38+2580.88+1175.25+2586.36+1155.91C2587.82+1150.77+2586.91+1139.96+2591.57+1134.96C2595.02+1131.27+2600.01+1122.95+2609.45+1124.23C2613.55+1124.79+2619.67+1129.63+2627.33+1133.44C2637.29+1138.39+2649.9+1138.69+2649.9+1138.69Z" opacity="1" fill="#a5a5a5"/>
</g>
<g id="Tree1" vectornator:layerName="Tree1">
<path d="M2649.75+1180.49C2649.99+1177.45+2650.56+1171.04+2650.86+1163.08C2650.9+1162.02+2650.94+1160.93+2650.97+1159.82C2651.07+1156.16+2651.13+1152.38+2651.16+1148.7C2651.17+1147.41+2651.18+1143.92+2651.18+1143.86L2650.19+1143.86C2650.19+1143.91+2650.18+1147.41+2650.17+1148.7C2650.14+1152.37+2650.06+1156.12+2649.96+1159.77C2649.93+1160.89+2649.89+1161.98+2649.85+1163.04C2649.56+1170.93+2649.07+1177.01+2649.02+1180.07L2649.75+1180.49Z" opacity="1" fill="#000000"/>
</g>
<g id="Roots0" vectornator:layerName="Roots0">
<path d="M1704.23+497.234L1723.8+490.018L1744.34+485.515C1744.34+485.515+1742.34+499.774+1746.1+512.48C1749.86+525.185+1759.17+530.093+1759.17+530.093C1759.17+530.093+1764.47+541.865+1744.51+543.98C1739.2+544.542+1729.57+549.018+1723.16+546.871C1718.44+545.286+1708.83+544.013+1706.4+535.747C1705.34+532.155+1707.46+525.409+1708.04+517.75C1708.79+507.788+1704.23+497.234+1704.23+497.234Z" opacity="1" fill="#a5a5a5"/>
</g>
<g id="Tree0" vectornator:layerName="Tree0">
<path d="M1742.31+485.094C1739.37+485.343+1733.7+486.761+1726.06+489.031C1725.05+489.333+1724+489.642+1722.94+489.969C1719.44+491.04+1715.84+492.196+1712.34+493.344C1711.12+493.746+1707.81+494.856+1707.75+494.875L1708.06+495.812C1708.12+495.794+1711.44+494.682+1712.66+494.281C1716.14+493.135+1719.73+492.007+1723.22+490.938C1724.28+490.612+1725.33+490.301+1726.34+490C1733.91+487.751+1739.55+486.335+1742.41+486.094L1742.31+485.094Z" opacity="1" fill="#000000"/>
</g>
<g id="Roots2" vectornator:layerName="Roots2">
<path d="M1348.63+1617.87L1335.8+1601.42L1325.25+1583.24C1325.25+1583.24+1339.44+1580.8+1350.4+1573.35C1361.36+1565.9+1363.19+1555.53+1363.19+1555.53C1363.19+1555.53+1372.79+1546.89+1380.89+1565.26C1383.04+1570.15+1390.24+1577.96+1390.14+1584.71C1390.07+1589.7+1391.79+1599.24+1384.66+1604.07C1381.56+1606.17+1374.49+1606.2+1367.01+1607.99C1357.3+1610.31+1348.63+1617.87+1348.63+1617.87Z" opacity="1" fill="#a5a5a5"/>
</g>
<g id="Tree2" vectornator:layerName="Tree2">
<path d="M1323.69+1586.61C1324.87+1589.32+1329.29+1594.59+1333.9+1601.09C1334.51+1601.96+1335.14+1602.84+1335.79+1603.75C1337.93+1606.72+1340.18+1609.76+1342.39+1612.69C1343.16+1613.72+1345.28+1616.5+1345.32+1616.55L1346.1+1615.96C1346.07+1615.91+1343.95+1613.12+1343.18+1612.1C1340.97+1609.16+1338.75+1606.13+1336.62+1603.17C1335.97+1602.27+1335.34+1601.38+1334.72+1600.51C1330.16+1594.07+1325.63+1589+1324.48+1586.38L1323.69+1586.61Z" opacity="1" fill="#000000"/>
</g>
</svg>
