<?xml version="1.0" encoding="UTF-8" standalone="no"?> <!-- Created with Vectornator Pro for iOS (http://vectornator.io/) --><!DOCTYPE svg PUBLIC "-//W3C//DTD SVG 1.1//EN" "http://www.w3.org/Graphics/SVG/1.1/DTD/svg11.dtd">
<svg height="100%" style="fill-rule:evenodd;clip-rule:evenodd;stroke-linecap:round;stroke-linejoin:round;" xmlns:xlink="http://www.w3.org/1999/xlink" xmlns="http://www.w3.org/2000/svg" xml:space="preserve" width="100%" xmlns:vectornator="http://vectornator.io" version="1.1" viewBox="0 0 3840 2160">
<metadata>
<vectornator:setting key="RulersVisible" value="1"/>
<vectornator:setting key="GridSpacing" value="36"/>
<vectornator:setting key="Units" value="Pixels"/>
<vectornator:setting key="DynamicGuides" value="0"/>
<vectornator:setting key="SnapToPoints" value="0"/>
<vectornator:setting key="CMYKEnabledKey" value="0"/>
<vectornator:setting key="SnapToGrid" value="0"/>
<vectornator:setting key="ShowGrid" value="1"/>
<vectornator:setting key="SnapToEdges" value="0"/>
</metadata>
<defs/>
<g id="Shadow" vectornator:layerName="Shadow">
<path d="M1797.7+472.392L2031.02+463.987C2031.02+463.987+2455.07+531.303+2584.44+812.774C2697.37+1058.49+2678.3+1452.27+2428.98+1669.25C2179.66+1886.23+1633.03+1906.33+1407.85+1686.2C1182.67+1466.07+1130.96+1099.7+1270.91+818.233C1366.55+625.881+1583.81+533.83+1707.37+495.585C1711.31+494.364+1710.76+526.93+1707.36+532.233C1705.95+534.438+1707.79+541.118+1716.11+539.758C1719.15+539.261+1719.26+543.332+1723.14+543.885C1728.15+544.599+1737.01+541.911+1740.88+541.713C1744.27+541.541+1752.45+541.203+1755.28+538.67C1758.8+535.521+1756.54+530.045+1755.66+529.763C1741.87+525.367+1737.6+486.712+1742.26+485.449C1776.5+476.158+1797.7+472.392+1797.7+472.392Z" stroke="#000000" stroke-width="1" fill="#a5a5a5" opacity="1" stroke-linejoin="round"/>
</g>
<g id="Stone face" vectornator:layerName="Stone face">
<path d="M1848.75+500.582C1848.75+500.582+1849.77+470.371+1846.53+434.727C1845.4+422.321+1849.82+412.84+1849.77+399.249C1849.72+387.566+1846.77+379.293+1846.1+367.962C1845.03+349.53+1846.62+328.809+1851.35+315.358C1871.84+257.107+1930.69+267.581+1930.69+267.581C1930.69+267.581+1991.29+265.413+2003.09+294.223C2008.92+308.465+2015.64+353.042+2016.87+382.051C2019.33+439.545+2019.82+496.268+2019.82+496.268" stroke="#000000" stroke-width="1" fill="#e4e4e4" opacity="1" stroke-linejoin="round"/>
</g>
<g id="Stone HL" vectornator:layerName="Stone HL">
<path d="M1866.92+285.324L1884.17+266.146C1884.17+266.146+1908.22+252.183+1937.67+252.142C1954.05+252.119+1975.19+253.204+1987.99+257.01C1998.21+260.049+1991.64+259.574+2001.98+265.98C2011.05+271.594+2012.96+269.381+2020.07+293.613C2027.19+317.844+2030.44+362.906+2030.44+362.906L2032.48+478.762L2019.23+490.741C2019.23+490.741+2017.84+464.971+2017.15+431.201C2016.88+418.399+2019.69+403.632+2018.36+389.876C2015.16+356.846+2013.62+341.472+2009.39+323.323C2007.21+313.974+2006.85+300.824+1999.88+290.563C1989.18+274.801+1959.41+262.897+1930.05+265.702C1917.75+266.877+1902.53+266.883+1891.94+271.01C1879.41+275.892+1872.16+284.89+1866.91+284.814" opacity="1" fill="#ffffff"/>
</g>
<g id="Stone line" vectornator:layerName="Stone line">
<path d="M1944.72+251.156C1928.9+250.689+1913.56+251.916+1899.81+257.719C1896.14+258.755+1892.54+260.064+1888.94+261.781C1879.98+266.056+1873.13+274.865+1866.41+281.719C1863.49+284.686+1860.14+288.319+1858.47+292.281C1855.58+296.09+1853.58+300.543+1853.16+305.312C1844.64+327.516+1842.68+361.979+1846.53+379.906C1849.34+392.992+1847.38+410.329+1846.59+423.656C1845.08+449.177+1850.41+475.197+1847.97+500.469L1848.88+500.406C1851.52+475.45+1845.76+446.936+1848.06+423.562C1849.35+410.448+1850.45+392.776+1847.81+379.844C1844.06+361.444+1846.68+314.605+1857.5+299C1861.08+293.831+1864.84+289.484+1868.72+285.75C1868.58+286.043+1868.42+286.295+1868.28+286.594L1872.81+282.25C1872.97+282.034+1873.15+281.869+1873.31+281.656C1896.46+262.941+1924.59+265.247+1958.03+268.906C1975.1+270.774+1997.59+279.926+2003.03+298.469C2006.89+311.618+2008.05+326.072+2011.94+339.406C2014.68+348.805+2011.98+359.846+2014.09+369.438C2016+378.11+2018.73+394.153+2016.78+402.969C2014.83+411.778+2015.13+423.654+2015.62+433.375L2014.69+433.062C2014.54+443.154+2016.18+453.865+2017.5+464.625C2017.65+467.757+2017.8+470.796+2017.72+473.469C2017.67+475.054+2017.87+479.458+2017.75+479.219C2017.46+478.624+2017.82+480.533+2017.72+481.188C2017.47+482.746+2018.42+487.407+2017.84+485.938C2017.52+485.104+2017.98+487.733+2017.91+488.625C2017.87+489.134+2017.03+492.269+2017.91+493.75C2016.48+494.378+2015.24+495.047+2014.94+495.906C2014.8+496.282+2006.87+496.437+2006.09+495.969C2000.1+492.377+1982.9+496.818+1975.59+497.094C1956.67+497.808+1937.83+497.409+1919.09+497.188C1924.58+497.846+1930.28+498.997+1934.84+498.719C1954.03+497.548+1974.01+500.004+1993+497.125C1999.57+496.13+2008.85+498.639+2014.88+496.375C2016.56+495.743+2018.14+494.436+2019.66+492.969C2019.33+493.106+2019.07+493.242+2018.75+493.375C2019.18+492.969+2019.53+486.394+2019.5+486.25C2019.26+485.086+2019.07+483.35+2018.91+481.5C2018.81+475.587+2018.64+469.715+2018.38+463.906C2018.37+460.943+2018.28+457.907+2018.34+455.219L2018.12+455.219C2018.12+454.339+2018.02+453.239+2018.03+452.406C2018.03+452.133+2018.08+451.784+2018.09+451.5C2018.27+451.958+2018.49+452.88+2018.59+452.875L2018.69+452.781C2018.36+452.811+2018.48+446.134+2018.44+445.438C2018.43+445.325+2018.41+445.207+2018.41+445.094C2018.46+443.266+2018.35+441.48+2017.94+439.844L2018.56+439.812C2017.86+428.667+2017.61+413.985+2019.41+402.781C2020.89+393.504+2018.83+378.187+2016.59+369.25C2014.32+360.165+2015.28+349.432+2014.41+340.125C2013.03+325.426+2009.55+311.224+2004.88+297.375C1998.55+278.64+1976.37+268.794+1958.5+267.156C1929.91+264.535+1900.74+262.19+1877.53+276.438C1887.05+265.593+1897.51+259.301+1908.94+255.875C1909.86+255.683+1910.76+255.387+1911.69+255.25C1910.97+255.355+1910.3+255.57+1909.59+255.688C1927.74+250.439+1948.32+252.283+1971.44+254.812C1988.5+256.68+2011+265.832+2016.44+284.375C2020.3+297.524+2021.46+311.978+2025.34+325.312C2028.08+334.712+2025.39+345.752+2027.5+355.344C2029.41+364.016+2032.17+380.059+2030.22+388.875C2027.84+399.635+2028.62+415.904+2029.28+425.875L2029.75+425.844C2030.51+439.378+2031.29+451.397+2031.38+467.094C2030.74+472.395+2031.45+478.904+2031.75+479.031L2031.81+478.969C2032.2+479.174+2032.66+474.555+2032.69+473.25C2032.73+470.655+2033+467.253+2033.09+463.906C2033.17+463.358+2033.28+462.819+2033.22+462.25C2033.19+461.992+2033.18+461.817+2033.16+461.562C2033.34+461.354+2033.48+461.053+2033.69+460.906L2033.19+460.719C2033.2+460.952+2033.15+461.201+2033.16+461.438C2031.75+446.8+2032.11+437.84+2031.31+425.75L2031.97+425.719C2031.27+414.574+2031.02+399.891+2032.81+388.688C2034.3+379.411+2032.27+364.093+2030.03+355.156C2027.76+346.072+2028.68+335.338+2027.81+326.031C2026.44+311.332+2022.95+297.13+2018.28+283.281C2011.96+264.547+1989.78+254.701+1971.91+253.062C1962.83+252.231+1953.7+251.422+1944.72+251.156ZM2019.66+492.969C2021.76+492.093+2023.94+491.133+2024.75+489.531C2025.17+488.696+2026.25+486.893+2027.25+485.25C2025.03+486.987+2022.51+490.216+2019.66+492.969ZM2027.25+485.25C2027.64+484.943+2028.07+484.462+2028.44+484.281C2029.97+483.537+2033.04+480.154+2032.59+478.562C2031.09+479.279+2029.03+482.336+2027.25+485.25ZM1919.09+497.188C1915.64+496.772+1912.28+496.558+1909.38+497.125C1912.61+497.146+1915.85+497.149+1919.09+497.188ZM1909.38+497.125C1889.4+496.994+1869.52+497.278+1849.78+499.625L1849.69+500.656C1858.34+500.422+1902.54+499.034+1907.94+497.406C1908.39+497.27+1908.9+497.218+1909.38+497.125ZM1914.44+256.031C1911.51+256.969+1907.45+261.826+1906.16+263.031L1906.53+263.406C1908.93+261.149+1912.09+258.614+1914.47+256.094L1914.44+256.031ZM1918.12+257.906C1917.43+258.393+1916.72+258.888+1916.03+259.375L1916.38+259.812C1917+259.23+1917.63+258.645+1918.25+258.062L1918.12+257.906ZM1906.81+259.062C1903.24+259.4+1898.1+264.345+1895.56+266.969L1895.75+267.156C1898.41+265.232+1903.82+259.345+1906.81+259.062ZM1900.94+260.031C1900.18+260.323+1897.61+262.067+1896.59+262.812C1892.99+265.443+1889.13+268.005+1885.53+270.562L1885.78+270.844C1886.31+270.468+1901.29+259.912+1900.97+260.312C1901.24+259.994+1901.19+259.934+1900.94+260.031ZM1877.38+273.469C1876.1+274.831+1874.81+276.196+1873.59+277.719C1872.94+278.534+1872.36+279.508+1871.75+280.438C1870.08+281.736+1868.44+283.145+1866.84+284.656C1870.06+280.75+1873.57+276.982+1877.38+273.469Z" stroke="#000000" stroke-width="1" fill="#000000" opacity="1" stroke-linejoin="round"/>
</g>
<g id="Roots1" vectornator:layerName="Roots1">
<path d="M2649.9+1138.69L2649.82+1159.85L2646.57+1180.73C2646.57+1180.73+2632.67+1172.79+2618.16+1170.84C2603.64+1168.88+2595.02+1175.38+2595.02+1175.38C2595.02+1175.38+2580.88+1175.25+2586.36+1155.91C2587.82+1150.77+2586.91+1139.96+2591.57+1134.96C2595.02+1131.27+2600.01+1122.95+2609.45+1124.23C2613.55+1124.79+2619.67+1129.63+2627.33+1133.44C2637.29+1138.39+2649.9+1138.69+2649.9+1138.69Z" opacity="1" fill="#a5a5a5"/>
</g>
<g id="Tree1" vectornator:layerName="Tree1">
<path d="M2649.75+1180.49C2649.99+1177.45+2650.56+1171.04+2650.86+1163.08C2650.9+1162.02+2650.94+1160.93+2650.97+1159.82C2651.07+1156.16+2651.13+1152.38+2651.16+1148.7C2651.17+1147.41+2651.18+1143.92+2651.18+1143.86L2650.19+1143.85C2650.19+1143.91+2650.18+1147.41+2650.17+1148.7C2650.14+1152.37+2650.06+1156.12+2649.96+1159.77C2649.93+1160.89+2649.89+1161.98+2649.85+1163.04C2649.56+1170.93+2649.06+1177.01+2649.02+1180.07L2649.75+1180.49Z" opacity="1" fill="#000000"/>
</g>
<g id="Roots0" vectornator:layerName="Roots0">
<path d="M1483.24+791.436C1483.28+791.678+1483.43+791.835+1483.51+792.05C1484.36+775.98+1509.34+789.139+1510.65+772.977C1511.11+767.401+1508.83+765.782+1505.85+765.356C1508.86+767.117+1509.85+773.125+1508.58+775.396C1503.72+784.083+1488.58+777.727+1484.95+784.857C1483.42+787.848+1482.98+789.929+1483.24+791.436ZM1505.85+765.356C1505.4+765.09+1505.01+764.665+1504.46+764.636C1503.93+764.608+1503.62+765.017+1503.18+765.19C1504.11+765.165+1504.99+765.232+1505.85+765.356ZM1503.18+765.19C1497.87+765.334+1492.24+766.826+1495.24+758.011C1501.83+738.715+1515.22+747.852+1530.28+746.199C1532.57+745.947+1534.33+745.236+1536.07+744.485C1525.56+746.667+1509.16+739.103+1501.36+746.728C1499.44+748.603+1497.91+750.591+1496.61+752.898C1495.03+755.726+1490.77+766.979+1497.43+767.718C1499.81+767.982+1501.22+765.97+1503.18+765.19ZM1483.53+792.113C1483.35+795.777+1487.13+796.117+1490.82+796.581C1487.36+795.303+1484.43+794.462+1483.53+792.113ZM1498.56+831.497C1500.53+830.393+1502.12+829.159+1503.46+827.895C1502.1+829.175+1500.48+830.422+1498.56+831.497ZM1491.07+796.653C1493.02+797.387+1495.12+798.332+1497+799.777C1506.17+806.83+1510.82+816.105+1506.7+823.854C1511.62+815.284+1507.13+804.538+1495.96+797.862C1494.7+797.111+1492.9+796.887+1491.07+796.653ZM1519.71+814.608C1524.79+828.719+1537.94+840.694+1550.69+850.608C1531.53+835.18+1509.21+812.677+1521.84+787.238C1528.91+773.004+1542.76+763.005+1546.77+747.064C1548.54+740.032+1548.55+734.248+1548.08+729.056C1548.31+728.378+1548.6+727.757+1548.83+727.065L1547.92+727.175C1546.11+711.766+1540.58+701.551+1564.15+680.854C1575.17+671.18+1584.5+677.707+1594.56+680.881C1592.13+686.243+1590.46+691.802+1589.43+697.596C1588.23+704.303+1587.9+711.262+1588.41+718.135C1588.25+719.838+1588.02+721.537+1587.84+723.237C1583+721.841+1577.45+723.699+1569.31+734.603C1556.13+752.262+1564.71+767.796+1569.9+783.968C1561.84+802.575+1555.14+821.741+1563.56+840.44C1565.92+845.677+1570.22+849.587+1575.38+852.33C1571.56+850.144+1568.35+847.12+1566.42+842.82C1557.24+822.446+1563.44+805.202+1571.24+787.998C1572.94+794.254+1573.8+800.64+1572.39+807.33L1572.7+807.383C1575.86+799.902+1574.52+792.866+1572.18+785.889C1576.18+777.198+1580.3+768.469+1583.22+759.321C1586.54+748.906+1588.4+737.657+1589.66+726.244C1592.5+737.379+1599.73+746.343+1610.36+750.829C1614.29+758.561+1619.54+765.237+1626.04+769.429C1627+770.051+1627.99+770.365+1628.95+770.833C1628.91+770.968+1628.83+771.087+1628.79+771.222C1620.62+776.391+1610.64+771.596+1599.9+775.315C1588.98+779.092+1579.7+791.29+1575.35+801.029C1571.87+808.822+1571.44+816.916+1573.19+824.627C1571.4+814.8+1574.22+803.775+1579.26+795.91C1584.94+787.053+1593.76+777.183+1605.14+775.122C1615.05+773.328+1622.03+775.195+1628.38+772.227C1628.18+772.874+1627.75+773.449+1627.58+774.092C1627.16+775.73+1626.97+777.444+1626.77+779.122C1622.19+785.697+1616.94+792.052+1612.43+800.543C1610.06+805.012+1610.81+811.136+1608.43+815.302C1610.9+811.07+1610.14+805.332+1612.91+800.894C1617.39+793.719+1622.15+787.933+1626.49+782.152C1626.39+784.312+1626.43+786.467+1626.71+788.617C1626.85+789.744+1627.22+790.925+1627.58+792.088C1624.89+793.781+1621.46+794.298+1618.54+796.405C1617.08+797.462+1616.1+798.756+1615.43+800.138C1615.89+799.217+1616.48+798.384+1617.44+797.737C1620.8+795.46+1624.69+794.555+1627.72+792.531C1631.83+804.844+1647.08+817.792+1659.99+809.292C1662.78+807.455+1675.38+793.686+1666.07+792.385L1665.93+792.63C1674.37+794.658+1662.87+807.039+1659.8+808.931C1647.26+816.669+1632.5+803.452+1628.97+791.641C1630.24+790.506+1631.34+789.138+1631.94+786.986C1633.18+782.471+1632.68+778.197+1631.83+773.964C1632.11+773.496+1632.34+772.992+1632.61+772.516C1636.65+773.787+1640.92+773.99+1645.27+774.149C1650.41+780.508+1653.23+789.752+1654.12+797.152C1653.22+789.634+1650.87+780.95+1646.38+774.192C1647.88+774.24+1649.26+774.424+1650.83+774.489L1650.83+774.01C1649.07+773.784+1647.54+773.644+1645.87+773.506C1645.3+772.705+1644.86+771.799+1644.23+771.068C1642.14+768.655+1638.88+767.183+1636.33+765.182C1636.35+765.137+1636.35+765.082+1636.36+765.037C1636.71+764.514+1637.08+764.163+1637.43+763.579C1638.17+762.35+1638.66+761.107+1639.24+759.858C1641+759.003+1642.86+758.548+1644.77+758.488C1644.91+758.81+1644.89+759.043+1645.05+759.373C1647.24+763.929+1652.34+764.855+1657.66+765.692C1652.96+763.574+1648.61+761.356+1645.65+758.522C1656.63+758.709+1669.23+768.111+1677.55+757.524C1679.85+754.603+1680.9+752.711+1682.25+749.582C1686.41+739.974+1686.93+723.794+1674.39+719.577C1675.12+718.712+1676.04+717.951+1676.56+716.995C1678.86+712.72+1678.11+707.553+1676.84+702.218C1682.02+710.557+1693.99+716.663+1696.11+726.643C1697.33+732.407+1693.32+743.684+1692.56+753.229C1693.13+742.483+1700.21+730.188+1695.64+719.626C1692.06+711.357+1678.36+706.729+1675.82+697.825C1675.71+697.408+1675.69+697.005+1675.58+696.587C1675.39+695.423+1675.27+694.222+1675.51+692.897L1674.74+692.764C1673.46+687.648+1672.64+682.583+1674.07+677.971C1675.34+677.601+1676.62+677.186+1677.9+676.515C1685.73+672.41+1687.3+671.334+1687.9+670.152C1684.76+672.206+1680.54+673.327+1677.08+675.296C1676.28+675.754+1675.39+675.737+1674.56+676.052C1677.45+669.808+1681.67+665.076+1686.25+660.778C1687.72+661.467+1689.17+662.167+1689.63+662.054C1690.59+661.819+1691.53+661.507+1692.49+661.206C1692.29+661.341+1691.99+661.388+1691.8+661.533C1690.77+662.316+1690.66+663.708+1690.59+665.09C1691.12+664.308+1691.23+663.846+1692.18+662.735C1693.38+661.318+1696.09+660.34+1699.06+659.418C1701.13+658.88+1703.18+658.407+1704.74+658.763C1707.47+659.383+1710.45+656.471+1711.46+654.94C1711.76+654.761+1712.22+654.651+1712.47+654.458C1715.54+652.114+1716.63+649.173+1717.1+646.055C1717.78+642.929+1719.27+638.905+1720.39+635.747C1721.04+645.405+1729.31+655.239+1731.97+661.854C1731.95+664.257+1731.81+666.636+1731.37+668.954C1725.55+677.986+1722.87+689.181+1716.22+698.154C1710.46+705.919+1703.14+708.427+1702.86+718.759C1702.69+725.149+1710.5+729.503+1713.14+734.298C1714.46+736.7+1714.06+739.311+1713.5+741.893C1714.55+738.941+1715.98+736+1714.73+733.589C1712.71+729.669+1704.68+723.818+1705.05+718.781C1705.68+710.06+1713.93+706.62+1719.36+700.046C1720.13+699.109+1720.77+697.909+1721.48+696.858C1719.25+702.847+1717.49+708.882+1717.77+715.315C1717.84+716.817+1718.4+718.218+1718.71+719.662C1718.22+716.65+1718.01+713.432+1718.47+709.905C1719.16+704.479+1721.14+699.315+1723.32+694.159C1723.35+694.103+1723.38+694.051+1723.41+693.996C1723.38+695.86+1723.57+697.815+1724.3+699.799C1730.52+716.764+1748.85+695.971+1756.21+698.385C1760.52+699.797+1762.6+703.123+1764.49+706.64C1762.31+709.669+1760.55+712.998+1760.02+716.923C1758.5+728.214+1764.83+735.04+1769.28+741.671C1755.48+746.807+1739.54+745.1+1729.12+737.018C1740.15+746.693+1756.86+750.266+1769.81+742.42C1772.25+746.201+1774.16+749.979+1773.02+754.458C1770.82+763.115+1766.16+769.422+1760.92+775.132C1759.64+775.397+1758.38+775.795+1757.14+775.819C1756.98+775.822+1756.92+775.783+1756.76+775.784C1754.5+770.678+1751.85+765.106+1747.8+763.733C1747.62+763.673+1747.38+763.738+1747.2+763.689C1747.57+759.097+1747.88+754.324+1743.44+751.734C1742.93+751.44+1742.56+751.375+1742.08+751.14C1745+754.164+1745.39+758.888+1745.79+763.593C1737.89+762.45+1726.24+768.454+1715.41+770.565C1726.25+769.337+1734.18+763.056+1745.75+763.674C1745.76+763.675+1745.79+763.655+1745.81+763.656C1746.39+770.332+1747.38+776.652+1756.79+777.014C1757.12+777.501+1757.46+777.913+1757.8+778.386C1747.83+788.098+1735.82+796.087+1727.58+808.942C1721.73+818.073+1724.18+831.882+1731.97+840.167C1725.02+832.51+1723.61+820.429+1727.42+811.185C1733.41+796.645+1748.7+792.212+1758.99+782.389C1759.18+782.207+1759.38+781.881+1759.57+781.682C1759.6+781.741+1759.62+781.879+1759.65+781.935C1761.13+784.882+1764.49+787.66+1768.38+790.479C1765.35+787.607+1762.56+784.513+1759.92+781.175C1761.36+779.583+1762.86+777.724+1764.23+775.468C1767.41+774.602+1770.85+774.142+1773.58+772.163C1777.54+769.302+1780.72+765.216+1784.44+762.063C1781.06+764.925+1777.92+767.863+1774.28+770.461C1771.57+772.401+1768.38+773.617+1765.11+774.335C1765.02+774.354+1764.93+774.389+1764.84+774.408C1768.59+767.992+1771.98+760.196+1774.5+755.223C1776.36+751.554+1774.2+746.723+1771.47+741.485C1772.15+741.008+1772.9+740.778+1773.55+740.232L1773.47+740.187C1772.76+740.537+1771.97+740.687+1771.25+740.997C1767.44+733.75+1762.42+725.591+1763.29+717.612C1763.62+714.593+1764.69+711.966+1766.03+709.449C1767.37+711.874+1768.83+714.198+1771.21+715.73C1778.05+720.139+1788.45+715.827+1796.14+716.838C1804.4+717.923+1806.62+725.501+1811.72+730.519C1812.47+731.254+1813.53+731.619+1814.43+732.186C1811.02+735.875+1807.98+739.792+1806.67+744.946C1803.55+757.305+1815.28+767.688+1827.68+762.919C1815.81+767.488+1805.18+756.574+1807.42+745.225C1808.44+740.043+1811.54+736.173+1815.06+732.564C1822.2+736.599+1832.95+736.275+1839.82+733.374C1842.22+732.362+1844.16+730.906+1846.04+729.344C1846.08+729.376+1846.11+729.419+1846.15+729.452C1852.5+735.095+1853.85+743.605+1856.28+751.421C1854.23+744.284+1853.57+736.553+1848.65+730.694C1848.05+729.977+1847.36+729.403+1846.73+728.745C1847.83+727.795+1848.95+726.877+1850.03+725.852C1848.96+726.875+1847.73+727.686+1846.51+728.529C1841.49+723.417+1835.57+719.904+1829.63+716.505C1831.39+713.218+1832.28+708.65+1830.35+705.389C1826.03+698.101+1818.04+699.087+1810.07+700.817C1809.3+699.743+1808.57+698.578+1807.89+697.358C1808.43+698.559+1808.92+699.795+1809.53+700.962C1800.28+703.007+1791.14+705.847+1787.83+697.876C1784.28+689.33+1795.2+686.359+1798.15+680.778C1798.97+679.218+1800.13+677.708+1801.14+676.186C1802.04+680.103+1803.21+683.883+1804.39+687.663C1803.5+683.333+1803.07+678.542+1802.75+673.686C1806.41+668.354+1810.08+662.994+1810.77+656.666C1810.96+654.905+1810.87+653.047+1810.64+651.204C1814.22+659.154+1817.99+666.924+1824.16+673.075C1835.66+684.551+1853.04+680.397+1864.52+690.378C1866.79+692.352+1868.76+694.348+1870.46+696.314C1869.03+693.362+1867.32+690.524+1864.21+688.471C1853.67+681.516+1839.99+681.134+1828.96+674.926C1815.26+667.22+1808.57+638.698+1801.29+625.933C1795.73+616.174+1782.58+610.314+1772.77+603.962C1772.68+603.824+1772.69+603.278+1772.6+603.185C1772.36+602.956+1772.1+602.902+1771.86+602.699C1771.15+600.624+1769.99+598.815+1768.94+596.9C1776.32+602.452+1785.84+608.445+1791.62+606.106C1795.86+604.394+1805.53+602.247+1809.1+601.344C1809.17+601.448+1809.13+601.556+1809.2+601.66C1819.36+615.948+1841.98+630.852+1859.54+636.303C1865.94+638.288+1873.34+636.271+1879.24+639.729C1879.94+641.962+1880.9+644.173+1882.47+646.268C1883.57+647.741+1884.91+648.965+1886.45+650.129C1887.41+653.928+1887.86+657.986+1889.57+661.643C1893.07+669.148+1898.44+676.244+1904.82+682.352C1899.4+684.771+1892.2+685.753+1887.32+682.655C1885.75+681.659+1884.4+680.296+1883.28+678.605C1884.41+680.305+1885.72+681.752+1887.27+682.737C1892.27+685.901+1899.49+684.845+1904.91+682.397C1907.54+684.905+1910.32+687.202+1913.26+689.259C1910.37+687.188+1907.68+684.862+1905.11+682.342C1907.85+681.075+1910.12+679.489+1911.24+677.788C1910.09+679.449+1907.72+680.994+1905+682.234C1898.76+676.086+1893.46+668.964+1889.97+661.533C1888.43+658.252+1888.05+654.394+1887.29+650.724C1892.66+654.488+1899.83+656.994+1906.23+660.057C1906.02+664.698+1907.82+669.451+1913.74+674.427C1915.78+676.135+1918.26+677.265+1920.63+678.525C1920.23+683.007+1917.3+686.389+1913.32+689.24C1913.3+689.253+1913.27+689.246+1913.26+689.259C1901.49+697.66+1881.37+701.797+1888.7+715.868C1887.86+715.503+1886.94+715.272+1886.13+714.852C1887.02+715.527+1888.01+716.172+1889.05+716.735C1889.46+717.447+1889.41+717.985+1889.97+718.749C1892.4+722.047+1895.33+725.179+1898.46+727.908C1902.94+731.806+1907.77+735.361+1912.92+738.463C1919.36+742.35+1925.96+746.635+1933.11+749.24L1933.35+748.832C1926.64+745.435+1919.82+741.67+1913.47+737.693C1908.45+734.543+1903.91+730.881+1899.6+726.91C1896.61+724.161+1893.72+721.24+1891.28+718.05C1891.16+717.896+1891.18+717.777+1891.07+717.625C1896.15+719.808+1902.85+720.907+1913.26+719.96L1913.24+719.897C1905.59+720.408+1897.7+719.365+1890.55+716.668C1880.06+700.788+1905.67+697.515+1915.78+691.043C1916.38+691.424+1916.94+691.92+1917.55+692.278C1916.96+691.921+1916.44+691.404+1915.85+691.025C1916.05+690.897+1916.43+690.811+1916.61+690.68C1920.15+688.188+1921.58+683.609+1922.08+679.435C1922.87+679.808+1923.51+680.43+1924.32+680.75C1937.51+685.955+1949.28+682.76+1961.47+679.351C1960.69+681.501+1960.12+683.624+1960.16+685.548C1960.55+704.187+1987.12+686.095+1991.48+700.024L1991.62+699.988C1986.93+685.222+1964.17+703.816+1961.4+684.18C1961.17+682.603+1961.74+680.891+1962.23+679.213C1965.51+678.295+1968.64+677.49+1972.05+676.676C1985.67+673.419+2010.83+673.51+2023.83+680.152C2041.19+689.021+2030+697.588+2033.09+710.19C2037.03+726.294+2056.53+736.711+2072.01+739.768C2088.97+743.117+2111.03+735.056+2105.17+714.866C2103.96+710.688+2097.72+699.869+2094.38+709.013L2094.49+709.121C2098.12+701.627+2103.23+710.854+2104.02+714.904C2107.56+733.061+2089.23+742.759+2072.34+738.51C2057.78+734.846+2038.4+725.858+2034.61+710.186C2031.69+698.088+2042.3+685.979+2024.16+678.894C2008.97+672.958+1990.56+671.447+1974.52+674.355C1970.69+675.049+1966.66+675.923+1962.73+676.879C1967.91+665.146+1985.56+651.551+1989.21+639.305C2003.81+635.56+2018.66+628.145+2033.13+623.837C2018.58+627.793+2004.73+634.407+1989.81+637.287C1990.6+632.518+1989.03+627.971+1983.26+623.892C1972.72+616.44+1962.22+622.252+1950.75+629.178C1950.63+628.614+1950.34+628.098+1950.29+627.515C1950.33+628.135+1950.09+628.881+1950.18+629.468C1944.99+632.607+1939.62+635.906+1933.91+638.297C1930.84+636.365+1927.78+634.235+1924.9+632.096C1925.37+631.532+1925.94+630.867+1926.38+630.32C1932.41+622.905+1932.9+611.619+1923.31+605.812C1913.3+599.754+1899.58+600.39+1890.24+593.185C1888.79+592.068+1887.78+590.662+1886.63+589.359C1886.52+588.89+1886.38+588.17+1886.27+587.741C1885.09+583.191+1887.15+578.7+1888.92+574.243C1891.82+577.476+1894.76+580.985+1896.85+582.317C1910.77+591.209+1943.87+580.312+1951.99+598.753C1954.96+605.506+1949.93+617.851+1950.33+627.162C1949.7+617.231+1957.3+604.816+1951.87+596.52C1940.73+579.514+1912.82+590.982+1898.27+580.831C1895.21+578.701+1892.5+575.217+1889.67+571.772C1891.18+567.458+1892.05+563.165+1888.83+558.743C1882.43+549.938+1865.81+548.355+1855.9+546.558C1841.26+543.903+1827.33+542.875+1813.36+542.418C1827.76+539.359+1842.33+535.938+1856.88+538.598C1864.32+539.959+1868.1+545.16+1874.46+548.441C1888.27+555.565+1907.44+561.519+1923.02+557.396C1931+555.286+1938.33+550.971+1942.41+544.147C1946.84+536.745+1944.45+530.511+1955.09+527.848C1970.1+524.089+2006.9+531.744+1997.34+553.222C1987.51+575.303+1958.82+567.348+1944.55+582.991C1960.97+569.308+1995.93+575.83+1999.78+549.192C2002.72+528.814+1970.01+523.333+1954.76+527.044C1942.82+529.949+1945.95+538.231+1939.93+545.988C1934.84+552.56+1926.17+555.43+1917.78+556.694C1903.51+558.845+1888.36+552.626+1875.64+546.674C1868.23+543.204+1863.14+536.933+1854.25+536.018C1824.86+532.993+1791.61+544.252+1764.58+534.621C1763.18+533.001+1759.61+531.837+1758.6+532.953C1758.49+533.074+1758.62+533.185+1758.56+533.306C1758.54+533.261+1757.82+532.901+1758.02+532.973C1758.14+533.016+1758.45+533.329+1758.6+533.433C1758.58+533.503+1758.6+533.57+1758.6+533.641L1757.34+532.884C1757.38+533.091+1757.87+533.357+1758+533.597C1757.81+533.555+1757.22+533.142+1757.15+533.21C1756.4+533.935+1757.3+534.748+1758.6+535.494L1755.89+540.285C1756.71+541.051+1757.07+541.767+1757.76+542.523C1751.75+541.063+1739.46+541.012+1736.85+542.862C1736.62+543.023+1736.51+543.896+1736.3+544.59C1728.93+543.688+1721.92+544.696+1718.43+547.4L1717.45+546.154C1715.99+546.614+1714.84+547.217+1713.59+547.755C1713.87+547.076+1713.93+546.923+1713.99+546.479C1714.23+544.766+1716.22+541.166+1714.39+541.287L1712.23+538.372C1710.04+541.492+1705.13+551.441+1705.66+547.72C1705.89+546.07+1704.07+550.691+1703.01+552.012C1702.65+552.46+1699.57+556.612+1701.15+554.648C1701.98+553.618+1699.4+556.63+1698.53+557.63C1698.1+558.126+1697.4+559.522+1696.46+561.008C1695.16+563.06+1693.91+566.453+1693.94+569.388C1694.02+576.272+1700.25+582.929+1704.9+589.826C1705.33+591.21+1705.69+592.565+1706.12+593.956C1706.36+595.335+1706.57+596.656+1706.76+598.042C1705.21+602.537+1703.46+606.959+1701.31+611.204C1697.42+614.397+1693.02+617.12+1687.46+618.48C1683.05+619.558+1679.62+619.481+1676.61+618.895C1669.04+614.366+1662.11+606.388+1654.68+600.553C1653.09+598.991+1651.75+597.303+1649.75+595.989C1635.23+586.453+1616.96+593.619+1604.51+602.201C1592.64+610.382+1581.81+621.8+1577.67+635.407C1575.78+641.619+1574.44+648.384+1575.01+654.883C1575.35+658.612+1579.46+663.899+1578+667.808C1576.98+670.542+1573.79+672.96+1570.19+675.088C1568.7+675.612+1567.18+676.464+1565.64+677.495C1562.09+679.171+1558.32+680.802+1556+681.769L1556.21+682.193C1558.84+681.122+1561.39+679.964+1563.89+678.657C1563.53+678.946+1563.18+679.044+1562.81+679.365C1537.94+701.051+1545.58+712.592+1546.55+731.121C1545.96+732.934+1545.36+734.726+1544.68+736.506C1545.35+735.348+1546.07+734.237+1546.61+732.957C1546.72+737.192+1546.54+741.699+1545.41+746.886C1541.96+762.7+1527.57+772.602+1521.08+786.897C1516.53+796.921+1516.65+806.131+1519.71+814.608ZM1544.68+736.506C1543.01+739.407+1540.99+741.949+1538.07+743.666C1540.64+742.678+1542.88+741.077+1544.19+737.945C1544.38+737.475+1544.5+736.982+1544.68+736.506ZM1538.07+743.666C1537.49+743.886+1537.02+744.251+1536.4+744.394C1536.95+744.147+1537.57+743.956+1538.07+743.666ZM2033.13+623.837C2033.94+623.617+2034.75+623.443+2035.56+623.243C2034.75+623.462+2033.95+623.594+2033.13+623.837ZM2035.56+623.243C2037.77+622.647+2039.93+622.258+2042.11+621.871C2039.91+622.242+2037.72+622.709+2035.56+623.243ZM2042.11+621.871C2044.02+621.549+2045.94+621.221+2047.89+621.052C2045.98+621.191+2044.04+621.529+2042.11+621.871ZM2047.89+621.052C2050.81+620.839+2053.71+620.992+2056.57+621.366C2054.01+620.909+2051.23+620.726+2048.16+620.979C2048.06+620.987+2047.98+621.044+2047.89+621.052ZM1886.13+714.852C1880.14+710.332+1876.74+703.593+1870.48+696.378C1872.54+700.627+1873.94+705.161+1877.3+708.534C1879.89+711.135+1882.91+713.188+1886.13+714.852ZM1911.24+677.788C1912.56+675.782+1912.42+673.727+1909.75+672.148C1912.43+673.727+1912.62+675.789+1911.24+677.788ZM1804.39+687.663C1804.73+689.302+1805.21+690.816+1805.72+692.317C1805.16+690.819+1804.88+689.196+1804.39+687.663ZM1805.72+692.317C1805.88+692.752+1806.03+693.195+1806.2+693.627C1806.03+693.197+1805.87+692.762+1805.72+692.317ZM1806.2+693.627C1806.5+694.386+1806.65+695.238+1807.01+695.949C1807.27+696.472+1807.61+696.862+1807.89+697.358C1807.33+696.117+1806.7+694.901+1806.2+693.627ZM1731.97+840.167C1733.17+841.442+1734.44+842.594+1735.88+843.567C1734.41+842.567+1733.13+841.443+1731.97+840.167ZM1715.41+770.565C1714.64+770.652+1714.03+770.993+1713.23+771.022C1713.95+770.922+1714.68+770.707+1715.41+770.565ZM1742.08+751.14C1740.82+749.829+1739.24+748.729+1736.74+748.268C1734.93+747.934+1733.36+749.033+1731.81+750.369C1734.54+749.373+1737.61+748.922+1742.08+751.14ZM1731.81+750.369C1726.88+752.162+1723.12+755.83+1715.47+750.905C1713.76+749.811+1712.97+748.523+1712.7+747.195C1712.68+750.307+1714.14+753.158+1720.52+755.161C1725.7+756.789+1728.79+752.957+1731.81+750.369ZM1712.7+747.195C1712.7+746.822+1712.67+746.472+1712.71+746.091C1712.72+746.455+1712.62+746.841+1712.7+747.195ZM1712.71+746.091C1712.7+745.343+1712.88+744.571+1713.08+743.793C1712.91+744.563+1712.79+745.343+1712.71+746.091ZM1729.12+737.018C1727.75+735.816+1726.46+734.556+1725.3+733.184C1726.5+734.554+1727.67+735.891+1729.12+737.018ZM1725.3+733.184C1724.71+732.519+1724.09+731.902+1723.57+731.181C1724.09+731.896+1724.72+732.506+1725.3+733.184ZM1723.57+731.181C1722.53+729.745+1721.82+728.153+1721.03+726.584C1721.77+728.214+1722.55+729.765+1723.57+731.181ZM1721.03+726.584C1720.29+724.953+1719.48+723.332+1719.06+721.488C1719.56+723.257+1720.21+724.937+1721.03+726.584ZM1719.06+721.488C1718.9+720.895+1718.83+720.267+1718.71+719.662C1718.81+720.288+1718.92+720.884+1719.06+721.488ZM1690.59+665.09C1688.84+667.672+1688.39+669.146+1687.94+670.07C1688.42+669.755+1689.09+669.607+1689.5+669.235C1690.55+668.28+1690.51+666.675+1690.59+665.09ZM1692.56+753.229C1692.02+760.074+1693.09+766.084+1699.18+768.46C1699.41+768.548+1699.6+768.548+1699.82+768.63C1697.99+767.387+1696.32+765.676+1694.87+763.316C1692.96+760.192+1692.37+756.811+1692.56+753.229ZM1699.82+768.63C1703.61+771.197+1708.09+771.661+1712.87+771.05C1709.04+771.144+1704.72+770.455+1699.82+768.63ZM1657.66+765.692C1664.23+768.657+1670.99+771.813+1673.72+778.35C1678.69+790.255+1657.03+790.576+1658.37+797.712C1657.44+792.735+1675.4+789.088+1675.3+781.286C1675.29+779.962+1674.96+779.085+1674.77+777.995C1677.08+780.279+1679.94+781.196+1683.01+781.52C1679.5+780.721+1676.69+777.965+1674.34+775.229C1671.78+767.699+1664.53+766.773+1657.66+765.692ZM1683.01+781.52C1683.36+781.601+1683.7+781.818+1684.06+781.853C1684.32+781.877+1684.66+781.812+1684.93+781.823C1684.27+781.802+1683.66+781.589+1683.01+781.52ZM1615.43+800.138C1615.2+800.605+1615.1+801.127+1614.96+801.64C1615.11+801.142+1615.2+800.609+1615.43+800.138ZM1614.96+801.64C1613.98+804.805+1614.25+808.39+1614.9+811.823C1616.57+820.728+1634.46+821.694+1633.36+831.177C1632.52+838.426+1626.9+843.687+1619.95+847.468C1627.22+843.594+1633.2+838.314+1633.92+831.094C1634.93+820.953+1616.45+820.469+1615.09+810.81C1614.71+808.152+1614.17+804.596+1614.96+801.64ZM1573.19+824.627C1573.7+827.406+1574.5+830.087+1575.84+832.561C1574.66+829.992+1573.81+827.333+1573.19+824.627ZM1575.84+832.561C1577.62+836.456+1579.86+840.187+1582.8+843.577C1586.34+847.651+1591.08+849.547+1596.52+847.876C1596.85+847.775+1603.17+845.23+1602.36+844.498C1602.21+844.358+1602.04+844.431+1601.88+844.355C1602.5+844.303+1600.05+845.556+1599.08+846.08C1596.54+847.454+1594.12+848.014+1591.22+847.672C1585.74+847.026+1580.43+839.3+1577.51+835.333C1576.87+834.455+1576.35+833.504+1575.84+832.561ZM1601.88+844.355C1600.28+843.589+1598.54+845.689+1597.57+846.354C1599.02+845.757+1600.35+844.774+1601.88+844.355ZM1575.38+852.33C1576.51+852.976+1577.65+853.514+1578.88+853.986C1577.67+853.51+1576.52+852.936+1575.38+852.33ZM1578.88+853.986C1580+854.423+1581.13+854.791+1582.29+855.117C1581.12+854.829+1580+854.412+1578.88+853.986ZM1582.29+855.117C1583.16+855.329+1583.99+855.577+1584.88+855.717C1584.02+855.54+1583.14+855.354+1582.29+855.117ZM1584.88+855.717C1596.18+858.027+1608.76+855.446+1616.07+846.672C1616.69+845.926+1617.07+844.637+1617.55+843.522C1614.31+848.095+1609.41+851.405+1603.76+853.529C1597.76+855.785+1591.09+856.691+1584.88+855.717ZM1603.76+853.529C1602.05+853.982+1600.15+854.526+1598.65+854.852L1598.67+854.916C1600.13+854.599+1602.04+853.987+1603.76+853.529ZM1617.55+843.522C1617.8+843.168+1618.17+842.901+1618.4+842.534C1620.52+839.12+1620.38+835.724+1618.72+833.861C1619.63+836.45+1618.91+840.319+1617.55+843.522ZM1618.72+833.861C1617.82+831.31+1615.51+830.242+1610.9+833.518L1611.05+833.753C1614.71+831.682+1617.27+832.24+1618.72+833.861ZM1564.19+764.024C1561.83+755.142+1562.05+745.748+1569.98+735.108C1577.75+724.689+1583.03+723.015+1587.71+724.44C1586.78+733.195+1585.57+741.936+1583.19+750.468C1580.37+760.561+1575.48+771.211+1570.74+782.022C1568.43+776.106+1565.84+770.205+1564.19+764.024ZM1571.37+674.697C1574.06+673.184+1576.63+671.52+1578.14+669.417C1582.82+662.915+1575.08+650.243+1577.09+642.092C1580.63+627.698+1590.34+614.75+1602.54+605.623C1606.65+602.542+1611.27+599.08+1616.16+597.172C1613.32+598.616+1610.62+600.334+1608.42+602.372C1593.56+616.152+1604.93+624.343+1606.96+639.244C1607.54+643.569+1601.19+645.007+1602.13+650.451C1603.03+655.738+1612.83+653.319+1614.78+659.917C1607.22+663.597+1600.63+668.949+1595.86+677.641C1595.6+678.118+1595.48+678.635+1595.24+679.116C1587.12+676.71+1579.6+672.445+1571.37+674.697ZM1590.5+721.757C1590.37+721.174+1590.34+720.566+1590.23+719.976C1591.1+710.503+1591.69+701.071+1592.3+691.937C1593.02+689.606+1593.74+687.293+1594.7+685.032C1595.29+683.657+1596.14+682.754+1596.79+681.509C1599.27+682.133+1601.77+682.342+1604.4+682.115C1602.89+685.451+1602.25+688.749+1605.24+691.916C1606.64+693.406+1608.25+694.599+1609.91+695.658C1609.88+695.7+1609.82+695.715+1609.79+695.757C1602.76+705.942+1601.49+720.596+1604.48+734.502C1599.69+731.826+1595.72+727.505+1591.52+724.775C1591.21+723.761+1590.74+722.796+1590.5+721.757ZM1592.17+726.591C1596.1+729.459+1600.02+733.431+1604.77+735.867C1605.64+739.557+1606.86+743.187+1608.31+746.646C1600.26+741.536+1595.02+734.567+1592.17+726.591ZM1589.42+710.03C1589.46+705.756+1589.98+701.417+1590.95+697.113C1590.38+701.412+1589.83+705.709+1589.42+710.03ZM1609.01+745.632C1607.94+742.814+1607.2+739.865+1606.54+736.893C1610.84+738.487+1615.99+738.328+1622.69+734.142C1627.5+731.141+1630.53+728.263+1632.88+725.391C1634.07+729.937+1635.2+734.472+1636.1+739.075C1632.23+742.39+1629.48+746.717+1628.58+752.594C1623.57+753.383+1617.8+751.797+1613.36+749.736C1612.1+749.155+1611.17+748.349+1610.02+747.691C1609.72+746.986+1609.28+746.351+1609.01+745.632ZM1606.21+735.61C1603.62+722.578+1604.89+708.67+1609.65+697.856C1609.91+697.269+1610.47+696.76+1610.86+696.153C1616.67+699.542+1623.58+700.857+1630.57+701.912C1630.62+702.044+1630.64+702.158+1630.69+702.291C1629.22+709.281+1630.62+716.585+1632.51+723.981C1630.09+726.967+1626.96+730.045+1621.84+733.276C1615.39+737.345+1610.39+737.342+1606.21+735.61ZM1611.69+751.151C1614.78+752.328+1617.93+753.437+1621.49+753.841C1623.42+754.06+1626.04+753.391+1628.58+752.802C1628.5+753.321+1628.28+753.724+1628.24+754.268C1627.84+759.045+1628.98+763.667+1630.1+768.253C1629.86+768.805+1629.6+769.328+1629.38+769.892C1628.51+769.46+1627.67+769.173+1626.8+768.605C1620.17+764.32+1615.27+758.129+1611.69+751.151ZM1628.92+791.244C1628.67+790.348+1628.32+789.416+1628.21+788.55C1627.83+785.592+1628.02+782.606+1628.39+779.643C1629.49+778.102+1630.37+776.377+1631.36+774.779C1632.15+779.041+1632.61+783.338+1631.16+787.748C1630.65+789.31+1629.84+790.391+1628.92+791.244ZM1597.83+679.716C1602.37+671.867+1608.24+666.535+1615.08+662.927C1614.55+668.693+1608.57+674.57+1605.23+680.377C1602.66+680.557+1600.23+680.261+1597.83+679.716ZM1629.06+775.544C1629.13+775.238+1629.12+774.917+1629.2+774.613C1629.47+773.559+1630.13+772.625+1630.5+771.58C1630.63+771.634+1630.73+771.772+1630.87+771.823C1630.88+771.887+1630.91+771.949+1630.93+772.013C1630.28+773.172+1629.76+774.431+1629.06+775.544ZM1605.67+690.287C1604.19+687.281+1604.63+684.601+1605.75+682.021C1605.95+681.989+1606.13+682.041+1606.33+682.002C1618.1+679.693+1626.7+673.517+1634.14+667.349C1631.49+670.71+1628.98+674.311+1627.47+678.235C1626.23+681.441+1625.98+684.155+1626.07+686.721C1623.86+686.824+1621.82+687.596+1619.75+688.373C1622.01+687.582+1624.2+687.733+1626.26+688.249C1626.75+692.499+1628.45+696.689+1630.28+701.234C1623.36+699.995+1616.33+698.542+1611.28+695.627C1612.04+694.532+1612.66+693.378+1613.51+692.547C1615.7+690.41+1617.77+689.066+1619.75+688.373C1618.61+688.801+1617.27+689.154+1616.42+689.556C1613.77+690.806+1612.01+692.773+1610.37+695.051C1608.36+693.739+1606.62+692.229+1605.67+690.287ZM1631.34+770.8C1631.5+770.676+1631.62+770.471+1631.78+770.338C1631.69+770.52+1631.61+770.71+1631.52+770.89C1631.46+770.868+1631.4+770.824+1631.34+770.8ZM1633.16+771.474C1633.99+769.913+1635+768.489+1635.68+766.802C1638.25+768.548+1641.35+769.832+1643.47+771.893C1643.91+772.321+1644.25+772.886+1644.66+773.355C1640.73+773.034+1636.83+772.626+1633.16+771.474ZM1606.83+680.147C1610.24+674.366+1616.67+669.026+1616.5+662.128C1626.46+657.263+1638.09+655.157+1649.94+652.879C1635.49+660.294+1625.7+677.663+1606.83+680.147ZM1603.79+650.203C1603.15+645.204+1609.71+644.342+1609.88+639.066C1610.09+632.551+1604.43+626.824+1604.13+622.223C1603.1+606.121+1620.11+601.396+1628.98+597.937C1646.24+591.215+1653.32+616.638+1666.54+620.402C1678.32+623.755+1683.98+626.758+1693.17+624.616C1691.52+627.013+1689.89+629.412+1688.07+631.709C1670.77+653.537+1638.82+648.73+1615.61+659.553C1613.16+653.575+1604.1+652.61+1603.79+650.203ZM1638.41+757.68C1638.78+755.644+1639.02+753.583+1639.16+751.294C1639.4+747.061+1638.62+742.758+1637.58+738.465C1638.42+737.839+1639.4+737.314+1640.32+736.759C1641.13+743.75+1641.09+750.778+1638.41+757.68ZM1640.19+757.812C1641.14+755.377+1641.95+752.907+1642.37+750.418C1643.2+745.51+1642.96+740.535+1642.26+735.542C1649.66+731.589+1658.81+729.204+1666.45+725.519C1658.57+730.489+1648.96+734.16+1644.35+743.559C1649.4+733.784+1664.98+729.035+1673.07+721.172C1681.02+723.147+1683.9+731.411+1683.89+738.419C1683.89+741.633+1683.05+744.916+1681.87+747.901C1680.53+751.279+1678.81+754.054+1676.34+756.894C1667.73+766.807+1655.37+757.07+1644.4+757.078C1642.54+752.139+1642.36+747.934+1643.79+744.537C1643.72+744.687+1643.62+744.791+1643.55+744.944C1642.7+747.059+1642.47+748.762+1642.37+750.418C1642.22+753.07+1642.85+755.285+1644.18+757.07C1642.82+757.087+1641.5+757.425+1640.19+757.812ZM1643.79+744.537C1643.94+744.176+1644.18+743.903+1644.35+743.559C1644.18+743.895+1643.94+744.188+1643.79+744.537ZM1637.47+737.878C1636.34+733.363+1634.92+728.818+1633.63+724.295C1634.76+722.74+1635.99+721.169+1636.59+719.64C1638.32+725.065+1639.55+730.572+1640.25+736.09C1639.31+736.671+1638.34+737.225+1637.47+737.878ZM1633.21+722.967C1631.49+716.765+1630.6+710.608+1631.54+704.532C1631.56+704.603+1631.57+704.65+1631.6+704.722C1633.1+709.094+1634.7+713.578+1636.18+718.104C1635.58+719.698+1634.41+721.323+1633.21+722.967ZM1629.53+696.081C1628.77+693.759+1628.28+691.417+1628.25+689.013C1630.34+689.859+1632.33+690.994+1634.32+692.371C1634.35+692.732+1634.33+693.097+1634.37+693.456C1632.9+695.714+1631.99+698.007+1631.31+700.336C1630.71+698.928+1629.99+697.496+1629.53+696.081ZM1642.13+734.892C1641.2+728.63+1639.37+722.436+1637.3+716.356C1638.19+711.848+1637.68+707.378+1636.7+702.919C1640.13+703.476+1643.5+704.114+1646.56+705.111C1644.1+704.001+1640.57+703.196+1636.63+702.458C1636.07+699.948+1635.54+697.429+1635.19+694.883C1635.48+694.41+1635.72+693.951+1636.05+693.479C1642.64+698.163+1649.02+702.793+1656.73+694.714C1656.81+694.631+1656.86+694.536+1656.94+694.452C1655.26+701.368+1653.25+712.028+1657.5+717.447C1660.83+721.694+1667.2+719.988+1671.98+720.714C1672.18+720.744+1672.29+720.883+1672.49+720.92C1670.84+722.613+1668.82+723.972+1666.74+725.302L1666.42+724.977C1658.72+728.422+1649.56+730.842+1642.13+734.892ZM1632.04+702.197C1632.04+702.179+1632.01+702.153+1632.02+702.134C1633.46+702.348+1634.89+702.594+1636.31+702.82C1637.25+706.864+1637.66+710.972+1636.9+715.091C1636.31+713.377+1635.81+711.601+1635.2+709.922C1634.25+707.279+1633.17+704.753+1632.04+702.197ZM1632.15+701.618C1632.71+699.577+1633.65+697.548+1634.81+695.535C1635.21+697.841+1635.7+700.102+1636.24+702.359C1634.94+702.12+1633.51+701.858+1632.15+701.618ZM1628.58+687.068C1628.74+685.321+1628.87+683.591+1629.67+681.757C1631.83+676.779+1635.03+672.345+1638.54+668.144C1646.61+658.494+1657.24+655.969+1668.31+654.608C1667.57+656.078+1667.07+657.579+1666.52+659.079C1654.94+663.841+1643.32+669.152+1637.32+679.053C1634.86+683.12+1634.37+686.919+1634.43+690.626C1633+689.376+1631.59+688.127+1630.05+687.353C1629.62+687.137+1629.06+687.18+1628.58+687.068ZM1673.66+827.961C1677.08+839.968+1694.26+831.757+1700.02+826.479C1700.85+825.722+1703.3+817.671+1705.71+819.366C1721.64+830.574+1700.92+868.057+1730.8+864.803C1734.25+864.426+1737.02+863.426+1740.24+862.23L1740.12+861.851C1736.05+862.893+1732.37+863.71+1728.15+864.013C1720.28+864.579+1714.09+858.965+1713.62+851.623C1712.9+840.363+1718.49+825.494+1705.8+818.516C1701.66+816.236+1702.1+823.964+1700.48+825.392C1695.49+829.801+1684.93+836.367+1677.96+832.147C1671.87+828.465+1674.07+820.231+1676.7+815.248C1678.13+812.549+1680.16+809.982+1682.64+807.792C1676.41+813.118+1671.56+820.634+1673.66+827.961ZM1682.64+807.792C1685.12+805.601+1688+803.771+1690.96+802.572C1697.64+799.865+1707.98+799.604+1707.9+790.333C1707.77+775.754+1694.02+782.168+1684.99+781.805C1694.15+782.085+1704.35+778.552+1706.82+789.666C1708.62+797.792+1697.48+799.827+1691.91+801.901C1688.76+803.074+1685.61+805.253+1682.64+807.792ZM1635.01+691.085C1634.95+687.297+1635.52+683.491+1637.97+679.494C1644.02+669.64+1654.96+664.525+1666.1+660.084C1665.83+660.91+1665.33+661.722+1665.14+662.546C1663.98+667.33+1663.35+672.913+1662.32+678.288C1655.61+678.715+1648.32+679.581+1640.45+686.442C1638.48+688.166+1637.22+689.967+1635.87+691.744C1635.6+691.494+1635.28+691.33+1635.01+691.085ZM1636.67+692.42C1636.77+692.286+1636.79+692.147+1636.9+692.012C1646.22+680.228+1654.32+679.476+1662.13+679.301C1661.23+683.641+1659.9+687.761+1657.54+691.267C1657.53+691.288+1657.5+691.328+1657.49+691.349C1656.15+693.316+1654.57+695.122+1652.45+696.569C1645.95+701.003+1641.32+696.71+1636.67+692.42ZM1656.73+712.231C1655.38+706.03+1656.93+697.958+1657.98+693.138C1661.31+689.073+1663.22+684.218+1664.7+679.15C1667.09+679.102+1669.47+678.953+1671.84+678.509C1668.87+690.105+1681.52+705.848+1675.66+716.69C1675.14+717.659+1674.38+718.443+1673.71+719.281C1673.68+719.271+1673.66+719.245+1673.63+719.236C1669.69+718.132+1662.45+720.658+1659.5+717.795C1658.12+716.45+1657.22+714.481+1656.73+712.231ZM1655+653.012C1655.2+652.952+1655.39+652.838+1655.59+652.784C1655.76+652.736+1655.96+652.743+1656.14+652.702C1655.76+652.808+1655.38+652.896+1655+653.012ZM1665+678.037C1666.86+671.352+1668.49+664.583+1670.88+658.165C1672.6+657.494+1674.2+656.726+1675.89+656.046C1678.73+657.247+1681.13+658.434+1683.31+659.519C1678.78+664.442+1674.73+669.813+1672.43+676.699C1670.04+677.317+1667.58+677.873+1665+678.037ZM1663.45+649.817C1666.67+648.972+1669.81+647.855+1672.93+646.684C1672.24+647.7+1671.61+648.761+1670.95+649.836C1670.11+649.942+1669.27+650.063+1668.44+650.176C1667.76+650.078+1666.57+649.719+1666.02+649.667C1665.1+649.578+1664.33+649.823+1663.45+649.817ZM1671.39+656.997C1671.67+656.283+1671.99+655.581+1672.32+654.888C1673.06+655.155+1673.81+655.371+1674.53+655.66C1673.47+656.103+1672.46+656.557+1671.39+656.997ZM1675.48+649.219C1677.21+646.855+1679.14+644.755+1681.16+642.794C1689.32+637.98+1696.36+630.401+1701.89+621.349C1702.63+621.017+1703.12+620.977+1703.91+620.594C1705.27+619.93+1705.93+619.033+1707.04+618.298C1705.7+628.436+1701.57+637.792+1693.02+645.126C1687.51+647.319+1681.57+648.432+1675.48+649.219ZM1681.63+653.518C1682.07+653.317+1682.55+653.151+1682.98+652.945C1685.72+652.599+1688.36+652.04+1691.02+651.443C1689.55+652.851+1688.24+654.39+1686.8+655.821C1685.34+654.939+1683.49+654.225+1681.63+653.518ZM1689.23+658.248C1693.02+654.969+1696.65+651.519+1700.41+648.265C1704.22+646.492+1707.87+644.259+1711.08+640.824C1712.96+638.819+1714.66+636.434+1716.36+634.029C1716.39+636.229+1716.17+638.352+1716.31+640.567C1715.89+641.729+1715.75+642.957+1715.2+643.961C1714.4+645.409+1713.79+649.959+1713.12+648.443C1712.21+646.384+1709.44+651.315+1708.23+653.211C1706.43+656.024+1700.14+654.339+1696.53+656.946C1694.82+658.188+1691.54+661.884+1690.86+659.935C1690.64+659.311+1689.74+658.821+1689.23+658.248ZM1686.96+622.189C1687.59+622.053+1688.08+622.082+1688.76+621.905C1691.73+621.121+1694.37+620.161+1696.75+619.109C1696.65+619.27+1696.56+619.438+1696.47+619.598C1693.09+621.466+1689.96+622.243+1686.96+622.189ZM1696.94+643.236C1704+635.923+1707.6+626.893+1708.65+617.173C1709.24+616.708+1710.02+616.254+1710.53+615.767C1710.61+618.574+1710.73+621.401+1710.07+623.997C1708.52+630.073+1705.69+635.017+1702.29+639.443C1700.57+640.886+1698.8+642.221+1696.94+643.236ZM1747.23+770.001C1746.96+768.285+1747.02+766.32+1747.18+764.313C1751.72+765.808+1753.88+771.966+1756.01+775.713C1749.92+775.529+1747.74+773.253+1747.23+770.001ZM1712.07+653.193C1712.32+652.925+1712.88+652.555+1713.42+652.141C1713.02+652.571+1712.73+653.03+1712.22+653.428C1712.21+653.343+1711.95+653.334+1712.07+653.193ZM1727.01+699.404C1720.59+688.532+1739+674.393+1736.38+661.545C1734.75+653.515+1725.3+645.202+1722.84+636.591C1722.3+633.413+1722.75+630.475+1723.66+627.646C1725.89+623.973+1730.04+623.59+1740.06+623.383C1750.6+626.153+1761.75+630.772+1766.84+625.291C1767.46+624.621+1767.71+623.932+1768.23+623.262C1768.85+623.588+1769.63+623.992+1770.32+624.343C1769.57+631.401+1768.23+638.622+1768.13+643.212C1767.79+658.455+1789.71+659.698+1788.31+676.108C1787.25+688.636+1773.39+695.229+1765.42+705.218C1763.34+701.366+1760.9+697.939+1756.06+697.671C1748.17+697.234+1733.28+710.034+1727.01+699.404ZM1770.65+836.91C1773.22+831.413+1775+826.148+1780.68+823.05C1783.43+821.549+1788.85+820.581+1791.88+818.212C1788.57+820.747+1782.25+821.702+1779.56+823.423C1774.51+826.66+1773.07+831.733+1770.65+836.91ZM1757.36+776.994C1758.11+776.985+1758.81+776.697+1759.55+776.537C1759+777.103+1758.46+777.671+1757.9+778.223C1757.72+777.824+1757.55+777.416+1757.36+776.994ZM1717.53+636.803C1717.49+635.288+1717.56+633.792+1717.72+632.353C1717.76+632.299+1717.78+632.244+1717.82+632.19C1717.92+633.199+1718.02+634.523+1717.98+635.237C1717.95+635.74+1717.61+636.274+1717.53+636.803ZM1768.77+790.785C1773.02+794.788+1777.59+798.564+1782.45+802.581C1787.02+806.358+1794.45+807.506+1793.99+814.753C1793.91+816.11+1793.22+817.191+1792.13+818.076C1793.19+817.188+1793.94+816.115+1794.06+814.735C1794.81+805.939+1779.47+798.457+1768.77+790.785ZM1717.77+608.506C1717.32+605.148+1716.69+602.002+1715.73+598.826C1718.16+593.316+1720.25+587.393+1722.53+580.696C1722.82+579.839+1723.28+577.836+1723.73+576.452C1721.23+586.753+1719.93+597.875+1717.77+608.506ZM1710.29+582.932C1707.37+574.768+1705.49+567.194+1708.54+560.328C1708.66+563.003+1710.16+565.368+1712.21+567.572C1711.36+572.594+1710.88+577.757+1710.29+582.932ZM1714.61+587.868C1715.64+582.217+1716.18+576.738+1715.95+571.84C1715.94+571.556+1716.06+571.331+1716.07+571.053C1716.49+571.363+1716.94+571.694+1717.38+572C1716.13+577.236+1715.54+582.814+1715.01+586.384C1714.93+586.898+1714.7+587.359+1714.61+587.868ZM1724.69+618.708C1727.15+612.668+1729.03+606.439+1729.47+600.647C1729.93+594.678+1729.25+587.765+1730.78+581.952C1730.91+581.441+1731.19+581.002+1731.33+580.494C1736.84+584.757+1741.24+589.747+1740.52+596.949C1739.79+604.305+1729.53+611.256+1724.69+618.708ZM1728.6+618.401C1731.75+614.287+1735.47+610.495+1738.89+607.009C1741.02+604.844+1743.3+602.34+1744.74+599.716C1745.28+598.725+1745.55+595.458+1745.52+595.726C1745.22+597.97+1745.37+591.121+1744.69+588.945C1748.41+591.809+1751.8+594.853+1754.13+598.599C1757.74+604.402+1757.31+613.5+1762.15+618.945C1762.96+618.281+1757+620.166+1758.27+619.795C1761.14+618.957+1752.26+619.072+1749.26+618.885C1742.39+618.46+1734.65+617.596+1728.6+618.401ZM1713.94+556.933C1713.95+556.863+1713.93+556.796+1713.95+556.725C1714.1+556.76+1714.25+556.777+1714.41+556.805C1714.39+556.876+1714.36+556.958+1714.34+557.032L1713.94+556.933ZM1714.11+554.482L1713.96+553.768C1714.71+553.048+1715.58+552.342+1716.49+551.637C1716.53+552.347+1716.28+552.984+1716.66+553.789L1714.11+554.482ZM1718.82+558.35C1718.83+558.148+1718.75+557.952+1718.78+557.745L1719.62+556.965C1719.93+556.949+1720.39+556.604+1720.77+556.447C1720.84+556.747+1720.89+557.167+1720.9+557.306C1720.93+557.79+1719.96+558.125+1718.82+558.35ZM1766.92+707.9C1773.58+697.06+1787.34+689.706+1791.24+677.096C1796.75+659.291+1770.93+657.763+1771.58+643.095C1771.68+640.743+1772.43+633.171+1773.05+626.072C1778.19+629.208+1783.71+632.069+1788.48+635.332C1784.42+631.742+1778.86+628.651+1773.1+625.783C1773.47+621.492+1773.56+618.344+1773.67+614.432C1775.9+617.573+1779.17+618.616+1783.43+619.329C1783.82+619.394+1784.25+620.542+1783.9+620.367C1782.52+619.677+1789.31+622.733+1787.75+622.89C1786.14+623.054+1790.95+625.52+1789.46+624.623C1787.6+623.496+1792.85+627.452+1794.22+629.097C1797.53+633.072+1804.46+638.585+1805.3+644.417C1806.75+654.405+1805.94+661.567+1802.45+669.03C1801.63+656.928+1800.27+644.894+1791.72+637.54C1790.77+636.728+1789.55+636.068+1788.48+635.332C1790+636.684+1791.5+638.021+1792.01+639.384C1795.91+649.897+1797.85+661.525+1800.32+672.905C1799.2+674.83+1798.17+676.768+1796.67+678.846C1793.14+683.728+1782.72+690.141+1786.37+698.069C1790.9+707.936+1800.58+704.331+1809.91+701.685C1811.3+704.276+1812.84+706.734+1814.65+709.116C1817.77+713.229+1822.29+715.983+1827.04+718.446C1823.61+723.145+1819.23+727.107+1815.24+731.28C1814.39+730.756+1813.43+730.467+1812.66+729.785C1806.86+724.651+1805.52+716.941+1796.31+715.761C1789.34+714.869+1778.7+719.218+1772.46+715.32C1769.97+713.766+1768.45+710.855+1766.92+707.9ZM1727.3+560.781C1727.85+561.292+1728.17+561.653+1728.67+562.125C1728.61+562.249+1728.56+562.389+1728.5+562.514C1727.99+561.782+1727.74+561.445+1727.3+560.781ZM1735.25+569.606C1735.37+569.3+1735.48+568.987+1735.61+568.683C1738.79+571.699+1743.1+575.367+1747.92+579.343C1748.22+579.941+1748.45+580.585+1748.78+581.167C1748.56+580.99+1748.6+581.067+1748.41+580.924C1748.13+580.57+1748.01+580.162+1747.7+579.814C1745.51+577.35+1742.99+575.585+1740.36+574.052C1739.43+573.255+1739.5+573.266+1738.47+572.438C1738.86+572.461+1739.63+572.893+1739.36+572.744C1737.75+571.858+1736.54+570.691+1735.25+569.606ZM1738.08+572.819C1738.19+572.641+1738.16+572.536+1738.29+572.348C1738.07+572.208+1738.37+572.77+1738.42+572.999C1738.31+572.941+1738.19+572.876+1738.08+572.819ZM1739.06+560.943C1739.16+560.748+1739.29+560.567+1739.39+560.372C1741.2+561.527+1742.68+562.647+1743.81+563.771C1743.83+564.715+1743.85+565.641+1743.95+566.547C1742.52+564.372+1740.85+562.552+1739.06+560.943ZM1758.73+606.275C1758.07+603.857+1757.45+601.421+1756.8+598.972C1756.89+599.202+1757.24+599.82+1757.19+599.758C1757.11+599.669+1757.22+599.98+1757.29+600.075C1757.56+600.425+1761.16+606.611+1760.91+606.713C1759.33+607.355+1763.04+612.91+1762.52+611.357C1762.02+609.886+1762.92+617.517+1762.96+615.977C1762.96+615.971+1762.89+616.324+1762.83+616.493C1762.53+615.978+1761.98+615.626+1761.73+615.076C1760.45+612.253+1759.56+609.286+1758.73+606.275ZM1768.49+622.918C1769.21+621.965+1769.96+620.986+1770.49+620.038C1770.41+621.489+1770.5+622.72+1770.35+624.198C1769.73+623.771+1769.07+623.37+1768.49+622.918ZM1767.87+619.583C1768.15+619.029+1768.43+618.404+1768.63+618.071C1769.27+617.012+1769.4+615.147+1769.31+613.285C1769.4+613.935+1769.76+614.556+1769.77+615.219C1769.81+617.23+1769.07+618.539+1767.87+619.583ZM1753.95+550.978C1754.96+551.212+1756+551.32+1756.96+551.74C1758.22+552.293+1758.97+553.671+1759.55+555.36C1759.2+554.889+1758.84+554.338+1758.58+554.114C1757.44+553.128+1753.58+550.675+1754.8+551.573C1755.07+551.777+1754.37+551.298+1753.95+550.978ZM1815.87+731.658C1820.03+727.547+1824.58+723.62+1828.02+719.005C1834.18+722.113+1840.67+724.838+1845.68+729.1C1843.69+730.381+1841.62+731.545+1839.35+732.335C1831.86+734.934+1822.87+735.609+1815.87+731.658ZM1810.53+701.584C1817.58+699.625+1824.39+698.191+1828.37+704.417C1830.62+707.955+1830.49+712.224+1828.57+715.902C1821.92+712.082+1815.44+708.078+1810.53+701.584ZM1773.7+575.547C1773.84+576.251+1773.43+574.159+1773.33+573.45C1773.17+572.37+1773.66+569.328+1772.95+570.186C1772.17+571.144+1773.21+567.783+1773.12+566.568C1772.94+564.135+1773.69+559.727+1773.33+556.62C1772.77+551.8+1769.56+546.217+1765.71+541.663C1769.99+543.565+1774.34+544.83+1778.74+545.394C1785.68+548.485+1792.64+551.56+1799.56+554.695C1802.58+556.061+1805.39+557.608+1808.16+559.359C1819.42+566.475+1815.87+573.248+1811.68+580.448C1807.4+581.528+1803.08+582.546+1798.73+583.219C1795.06+583.787+1787.95+584.852+1781.59+584.662C1776.94+580.882+1773.59+574.994+1773.7+575.547ZM1780.4+591.718C1780.54+591.727+1780.7+591.727+1780.84+591.735C1781.06+591.849+1781.16+591.955+1781.38+592.068C1781.62+592.187+1781.86+592.18+1782.1+592.284C1781.86+592.217+1781.58+592.222+1781.33+592.15C1780.93+592.033+1780.78+591.841+1780.4+591.718ZM1782.93+597.898C1787.21+598.798+1791.47+599.264+1795.71+599.224C1792.68+600.189+1790.02+600.997+1789.13+600.74C1787.11+600.154+1785.02+599.005+1782.93+597.898ZM1790.22+593.576C1794.86+593.351+1799.53+592.067+1804.07+591.59C1805.04+591.487+1806.01+591.094+1806.98+590.932C1806.81+591.753+1806.85+592.603+1806.83+593.446C1801.13+594.018+1795.54+594.097+1790.22+593.576ZM1816.59+658.995C1839+660.96+1844.27+637.578+1867+639.423C1876.52+640.197+1875.4+666.614+1883.26+678.541C1875.34+666.536+1877.05+639.995+1867.06+638.926C1844.35+636.492+1838.66+658.198+1816.72+658.479L1816.59+658.995ZM1783.05+545.935C1790.57+546.304+1798.21+545.307+1805.95+543.819C1822.38+544.133+1838.62+544.794+1855.56+548.232C1864.92+550.134+1881.43+551.59+1887.94+559.604C1890.76+563.081+1890.09+566.895+1888.84+570.761C1885.49+566.729+1881.95+562.94+1877.74+561.627C1869.74+559.128+1860.77+566.012+1853.35+567.997C1839.71+571.644+1826.07+576.848+1812.1+580.402C1816.72+573.042+1821.04+566.157+1808.86+558.345C1806.05+556.549+1803.14+554.982+1800.08+553.591C1794.42+551.011+1788.74+548.478+1783.05+545.935ZM1857.54+754.51C1858.1+755.987+1858.54+757.552+1859.29+758.91L1859.36+758.892C1858.55+757.522+1858.1+755.991+1857.54+754.51ZM1807.12+593.436C1807.11+592.55+1807.15+591.699+1807.32+590.84C1824.85+587.797+1842.22+575.987+1858.08+574.469C1875.09+572.842+1876.72+584.774+1886.86+593.554C1888.54+600.22+1890.24+608.043+1893.54+612.204C1897.94+617.757+1906.94+618.92+1912.56+623.164C1916.62+626.227+1920.19+628.957+1923.85+631.764C1921.59+634.973+1918.68+638.238+1915.89+641.559C1915.77+641.548+1915.66+641.599+1915.53+641.587C1888.08+638.811+1894.75+601.358+1875.26+591.357C1857.15+582.064+1831.08+590.985+1807.12+593.436ZM1809.77+601.37C1809.72+601.307+1809.75+601.243+1809.71+601.18C1810.08+601.084+1811.76+600.636+1811.85+600.596C1815.68+598.95+1819.03+598.655+1821.1+598.558C1829.19+598.178+1834.05+594.832+1837.35+593.582C1839.25+592.86+1845.15+591.687+1843.52+592.861C1842.79+593.387+1845.38+592.85+1846.3+592.927C1847.55+593.032+1852.15+592.292+1852.92+592.912C1853.33+593.249+1858.18+593.311+1859.7+593.673C1864.93+594.916+1870.91+597.97+1874.33+602.465C1882.37+613.054+1875.61+626.897+1879.15+639.204C1872.92+636.343+1866.15+638.059+1859.68+636.058C1841.83+630.534+1820.32+615.783+1809.77+601.37ZM1858.13+591.009C1862.96+591.293+1867.76+591.957+1872.64+593.651C1893.69+600.96+1885.56+639.707+1913.8+644.394C1910.04+649.101+1906.86+653.938+1906.25+658.954C1899.05+655.536+1891.3+652.448+1886.41+647.941C1885.51+644.994+1884.16+642.279+1881.23+640.285C1875.93+626.201+1885.55+610.159+1873.37+598.262C1868.92+593.922+1863.54+591.883+1858.13+591.009ZM1856+570.64C1863+567.316+1870.22+564.369+1875.97+564.308C1879.52+564.27+1883.9+568.711+1888.15+573.421C1886.24+578.276+1883.77+583.232+1885.34+587.789C1885.35+587.839+1885.38+587.927+1885.4+587.978C1878.93+579.914+1875.59+570.224+1862.02+569.893C1860.09+569.846+1858.01+570.42+1856+570.64ZM1882.33+642.389C1883.52+643.731+1884.51+645.167+1885.15+646.705C1884.75+646.261+1884.21+645.882+1883.87+645.406C1883.16+644.419+1882.84+643.403+1882.33+642.389ZM1908.75+665.965C1908.11+664.308+1908.01+662.653+1908.04+660.939C1914.67+664.361+1920.12+668.718+1920.77+676.427C1920.8+676.701+1920.72+676.929+1920.72+677.196C1920.56+677.112+1920.39+677.075+1920.22+676.989C1913.79+673.648+1910.25+669.888+1908.75+665.965ZM1907.96+659.791C1908.41+654.793+1911.26+649.63+1914.83+644.663C1922.24+645.612+1930.39+644.037+1938.03+641.434C1940.88+643.029+1943.9+644.527+1947.3+645.915L1947.51+645.445C1944.3+644.141+1941.48+642.661+1938.75+641.17C1943.8+639.393+1948.61+637.243+1952.74+634.816C1953.49+635.684+1954.22+636.564+1955.38+637.188C1964.87+642.277+1974.74+642.28+1984.8+640.301C1981.2+651.494+1967.84+665.294+1962.46+676.952C1949.07+680.212+1935.43+683.464+1922.45+677.824C1922.45+677.778+1922.47+677.726+1922.48+677.68C1922.85+668.717+1916.1+663.841+1907.96+659.791ZM1891.43+606.873C1889.92+602.995+1888.93+598.703+1887.96+594.492C1888.82+595.168+1889.3+595.985+1890.3+596.603C1900.01+602.63+1913.19+600.773+1922.47+607.071C1932.75+614.049+1929.6+623.463+1923.99+631.52C1920.31+628.753+1916.71+626.01+1912.65+623.001C1907.12+618.895+1898.18+617.708+1894.08+612.058C1893.08+610.684+1892.21+608.884+1891.43+606.873ZM1917.04+641.52C1919.58+638.278+1922.19+635.293+1924.63+632.378C1927.37+634.464+1930.31+636.588+1933.24+638.479C1928.11+640.556+1922.73+641.809+1917.04+641.52ZM1953.3+634.525C1953.38+634.479+1953.48+634.435+1953.55+634.389C1963.75+628.231+1966.29+616.126+1981.13+626.6C1985.44+629.643+1986.35+633.604+1985.47+638.057C1982.77+638.424+1980.06+638.745+1977.26+638.782C1971.21+638.861+1959.72+640.475+1954.75+636.33C1954.09+635.782+1953.8+635.122+1953.3+634.525ZM1953.06+597.295C1953.72+597.297+1956.4+597.487+1959.22+597.47C1957.19+597.354+1955.09+597.033+1953.11+597.005L1953.06+597.295ZM2056.66+621.411C2064.19+622.785+2069.72+626.739+2074.45+630.783C2070.28+626.805+2065.73+622.842+2059.31+621.514C2058.44+621.334+2057.53+621.528+2056.66+621.411ZM2074.64+630.936C2080.42+636.479+2085.32+642.062+2092.48+640.914C2085.98+641.936+2081.02+636.422+2074.64+630.936Z" stroke="#000000" stroke-width="1" fill="#000000" opacity="1" stroke-linejoin="round"/>
</g>
<g id="Tree0" vectornator:layerName="Tree0">
<path d="M1393.38+431.47C1394.61+435.196+1396.59+438.69+1399.31+441.738C1403.4+446.325+1416.16+452.516+1419.38+444.032C1414.96+452.606+1402.16+445.253+1398.38+439.723C1389.87+427.254+1390.89+410.313+1402.8+400.673C1422.46+384.757+1454.24+394.336+1477.17+390.92C1487.29+389.414+1498.19+375.427+1506.87+370.259L1506.33+369.446C1497.87+374.298+1486.59+388.536+1476.79+389.927C1453.67+393.206+1422+383.685+1402.17+399.608C1392.67+407.238+1389.69+420.29+1393.38+431.47ZM1403.28+431.039C1403.82+432.587+1404.62+434.071+1405.67+435.401C1409.69+440.451+1422.06+445.815+1418.93+435.225L1418.66+435.298C1421.49+445.316+1409.63+439.989+1405.97+435.184C1398.31+425.148+1407.25+406.414+1418.63+401.992C1447.54+390.758+1467.69+417.345+1494.88+414.327C1516.6+411.918+1516.81+394.54+1533.01+387.18C1536.51+385.587+1546.21+386.592+1549.9+386.769L1549.98+386.127C1542.49+385.793+1533.3+384.679+1527.11+389.473C1515.01+398.849+1513.87+411.459+1494.71+413.55C1467.13+416.559+1447.94+390.167+1418.44+401.152C1407.65+405.165+1399.48+420.205+1403.28+431.039ZM1462.36+329.634C1468.27+351.688+1485.75+367.283+1511.31+369.118L1511.17+368.196C1483.42+366.212+1460.48+344.451+1461.64+317.192C1462.11+305.928+1469.17+297.55+1464.39+286.014L1464.25+286.051C1467.48+298.632+1459.25+307.673+1460.55+319.754C1460.92+323.147+1461.51+326.483+1462.36+329.634ZM1469.48+318.078C1470.12+319.45+1471.1+320.64+1471.87+321.961C1465.28+309.768+1464.58+295.445+1473.47+283.678C1478.37+277.183+1486.08+269.634+1495.46+270.612C1507.65+271.884+1499+283.005+1487.95+276.779C1495.22+282.701+1508.11+276.008+1499.54+271.561C1485.93+264.507+1470.06+284.198+1466.71+294.31C1464.24+301.776+1465.81+310.256+1469.48+318.078ZM1471.87+321.961C1472.84+323.757+1473.89+325.505+1475.11+327.189C1473.91+325.539+1472.9+323.744+1471.87+321.961ZM1475.11+327.189C1476.09+328.521+1477.05+329.69+1478.1+330.908C1477.04+329.704+1476.04+328.473+1475.11+327.189ZM1478.1+330.908C1479.31+332.27+1480.59+333.565+1481.95+334.805C1480.63+333.569+1479.35+332.338+1478.1+330.908ZM1481.95+334.805C1482.96+335.754+1483.89+336.959+1484.92+337.774C1488.36+340.482+1492.55+342.806+1496.67+344.808C1493.06+343.05+1489.29+340.911+1485.02+337.611C1483.91+336.757+1482.97+335.737+1481.95+334.805ZM1496.67+344.808C1497.44+345.182+1498.25+345.648+1499+345.96C1498.24+345.618+1497.44+345.183+1496.67+344.808ZM1499+345.96C1499.2+346.051+1499.41+346.187+1499.6+346.275C1525.98+357.992+1539.92+330.229+1565.96+335.755C1591.46+341.17+1605.97+363.038+1629.25+372.5C1642.05+377.704+1651.55+377.881+1664.41+378.856C1673.61+379.552+1684.69+387.18+1694.38+389.03L1694.29+388.506C1684.68+386.476+1673.89+379.011+1664.64+378.177C1651.64+377.005+1642.39+376.503+1629.51+371.948C1605.81+363.568+1591.71+340.531+1566.16+335.013C1536.56+328.619+1526.33+357.497+1499+345.96ZM1552.35+385.551C1548.41+373.053+1570.38+366.78+1579.72+369.028C1601.03+374.158+1614.27+395.945+1628.33+410.185C1641.24+423.252+1660.23+415.563+1674.84+426.226C1702.49+446.41+1703.65+474.085+1706.31+504.13C1707.63+518.963+1707.96+534.41+1703.2+547.771L1707.23+549.009C1712.99+538.352+1709.77+523.667+1709.46+511.583C1708.65+479.648+1705.73+445.504+1676.56+424.314C1660.76+412.833+1643.05+419.683+1627.94+406.858C1612.45+393.714+1602.49+372.207+1580.37+367.407C1569.82+365.119+1548.06+371.961+1552.35+385.551ZM1672.01+356.591C1676.23+367.943+1683.71+378.551+1692.4+386.205L1692.66+385.652C1675.62+370.302+1663.45+344.01+1671.96+322.535C1681.31+298.977+1703.55+285.73+1694.46+257.335C1685.12+228.17+1639.62+219.082+1652.04+182.757C1656.46+169.832+1674.31+150.983+1692.15+146.897C1690.24+147.772+1688.12+148.585+1686.84+149.441C1673.61+158.322+1670.46+177.336+1670.71+191.684C1671.23+222.795+1705.48+237.753+1710.84+265.923C1714.08+282.948+1703.23+295.492+1697.44+310.375C1691.48+325.663+1695.26+339.01+1702.15+352.984L1702.7+352.422C1695.95+338.832+1692.5+325.22+1698.17+310.382C1703.94+295.287+1715.34+283.267+1712.14+265.911C1706.88+237.321+1672.63+223.434+1671.24+189.684C1670.7+176.62+1675.04+157.794+1687.05+149.866C1688.75+148.74+1691.6+147.244+1694.56+146.24C1697.43+145.807+1700.23+145.788+1703+146.274C1703.28+146.426+1703.65+146.378+1703.9+146.579C1703.71+146.398+1703.43+146.433+1703.23+146.283C1706.31+146.853+1709.34+148.015+1712.17+149.96C1715.45+152.22+1721.32+156.908+1721.42+161.314C1721.47+163.876+1714.08+163.423+1712.62+162.475C1714.39+163.69+1721.91+164.608+1721.75+161.223C1721.54+156.79+1715.67+152.007+1712.31+149.716C1709.21+147.605+1705.9+146.469+1702.53+145.923C1700.2+144.629+1697.38+144.789+1694.42+145.797C1675.58+148.44+1656.24+168.681+1651.49+182.632C1638.96+219.42+1684.36+228.005+1693.77+257.454C1702.77+285.597+1680.85+299.026+1671.31+322.302C1666.88+333.106+1667.8+345.24+1672.01+356.591ZM1745.15+516.355C1749.59+527.916+1756.84+537.81+1769.12+540.733C1770.41+541.039+1773.45+541.52+1777.45+541.762L1776.99+539.62C1774.61+536.346+1769.49+535.989+1762.7+531.216C1757.37+527.466+1753.77+519.616+1751.02+513.999C1741.67+494.915+1740.35+469.295+1743.04+448.79C1744.1+440.735+1747.49+432.406+1747.79+424.416C1749.37+382.087+1743.35+338.584+1782.17+307.416C1803.91+289.969+1835.25+278.961+1863.83+282.697C1874.74+284.122+1893.52+292.025+1892.89+304.522C1892.53+311.726+1887.2+324.543+1878.06+325.048C1870.72+325.453+1861.57+314.789+1863.88+308.235L1863.31+308.046C1860.02+314.59+1872.14+326.426+1878.55+327.317C1889.44+328.831+1894.76+311.679+1894.95+304.372C1895.35+289.518+1877.37+282.596+1864.1+280.562C1835.41+276.165+1798.9+288.783+1778.63+308.175C1758.02+327.896+1746.86+353.829+1744.25+381.352C1743.03+394.2+1745.81+407.412+1744.45+420.038C1742.17+441.227+1735.16+459.873+1737.86+481.936C1739.04+491.585+1740.7+504.793+1745.15+516.355ZM1704.12+355.331L1704.98+355.989C1721.73+334.134+1739.74+315.347+1762.6+299.079C1776.17+289.427+1794.2+287.45+1808.67+279.111C1819.33+272.961+1823.27+259.083+1834.42+253.069C1855.11+241.902+1885.04+265.539+1895.88+236.049C1901.08+221.933+1894.24+205.658+1882+196.627C1877.17+193.064+1867.7+188.024+1861.46+191.231C1849.08+197.599+1857.57+213.869+1867.65+203.009L1867.29+202.558C1865.09+203.657+1861.23+205.988+1858.56+205.074C1852.91+203.146+1859.3+193.296+1862.86+192.431C1867.22+191.372+1871.99+194.289+1875.65+196.09C1890.33+203.315+1900.99+223.88+1891.82+238.392C1877.87+260.484+1853.76+239.556+1833.75+250.71C1821.77+257.39+1817.06+271.573+1805.55+278.449C1791.81+286.658+1774.62+288.318+1761.52+297.725C1738.33+314.373+1721.45+333.515+1704.12+355.331ZM1695.94+145.793C1698.1+145.229+1700.15+145.342+1701.95+145.942C1699.97+145.667+1697.97+145.615+1695.94+145.793Z" stroke="#000000" stroke-width="1" fill="#000000" opacity="1" stroke-linejoin="round"/>
</g>
<g id="Roots2" vectornator:layerName="Roots2">
<path d="M1348.63+1617.87L1335.8+1601.42L1325.25+1583.24C1325.25+1583.24+1339.44+1580.8+1350.4+1573.35C1361.36+1565.9+1363.19+1555.53+1363.19+1555.53C1363.19+1555.53+1372.79+1546.89+1380.89+1565.26C1383.04+1570.15+1390.24+1577.96+1390.14+1584.71C1390.07+1589.7+1391.79+1599.24+1384.66+1604.07C1381.56+1606.17+1374.49+1606.2+1367.01+1607.99C1357.3+1610.31+1348.63+1617.87+1348.63+1617.87Z" opacity="1" fill="#a5a5a5"/>
</g>
<g id="Tree2" vectornator:layerName="Tree2">
<path d="M1323.69+1586.61C1324.87+1589.32+1329.29+1594.59+1333.9+1601.09C1334.51+1601.96+1335.14+1602.84+1335.79+1603.75C1337.93+1606.72+1340.18+1609.76+1342.39+1612.69C1343.16+1613.72+1345.28+1616.5+1345.32+1616.55L1346.1+1615.96C1346.07+1615.91+1343.95+1613.12+1343.18+1612.1C1340.97+1609.16+1338.75+1606.13+1336.62+1603.17C1335.97+1602.27+1335.34+1601.38+1334.72+1600.51C1330.16+1594.07+1325.63+1589+1324.48+1586.38L1323.69+1586.61Z" opacity="1" fill="#000000"/>
</g>
</svg>
