<?xml version="1.0" encoding="UTF-8" standalone="no"?> <!-- Created with Vectornator Pro for iOS (http://vectornator.io/) --><!DOCTYPE svg PUBLIC "-//W3C//DTD SVG 1.1//EN" "http://www.w3.org/Graphics/SVG/1.1/DTD/svg11.dtd">
<svg height="100%" style="fill-rule:evenodd;clip-rule:evenodd;stroke-linecap:round;stroke-linejoin:round;" xmlns:xlink="http://www.w3.org/1999/xlink" xmlns="http://www.w3.org/2000/svg" xml:space="preserve" width="100%" xmlns:vectornator="http://vectornator.io" version="1.1" viewBox="0 0 3840 2160">
<metadata>
<vectornator:setting key="RulersVisible" value="1"/>
<vectornator:setting key="GridSpacing" value="36"/>
<vectornator:setting key="Units" value="Pixels"/>
<vectornator:setting key="DynamicGuides" value="0"/>
<vectornator:setting key="SnapToPoints" value="0"/>
<vectornator:setting key="CMYKEnabledKey" value="0"/>
<vectornator:setting key="SnapToGrid" value="0"/>
<vectornator:setting key="ShowGrid" value="1"/>
<vectornator:setting key="SnapToEdges" value="0"/>
</metadata>
<defs/>
<g id="Stone face" vectornator:layerName="Stone face">
<path d="M2477.3+1626.79C2477.3+1626.79+2196.88+1800.58+2033.49+1821.23C1852.33+1844.13+1510.82+1784.62+1477.64+1752.03C1450.42+1725.29+1274.63+1555.1+1274.41+1513.65C1274.22+1478.02+1217.98+1355.96+1215.09+1321.4C1210.39+1265.19+1175.75+1111.97+1196.42+1070.94C1285.9+893.287+1619.2+887.178+1879.7+990.748C1970.88+1027+2172.67+1112.94+2316.91+1113.78C2461.16+1114.63+2645.46+985.763+2650.86+1074.24C2661.58+1249.58+2489.38+1623.5+2489.38+1623.5" stroke="#000000" stroke-width="1" fill="#e4e4e4" opacity="1" stroke-linejoin="round"/>
</g>
<g id="Stone HL" vectornator:layerName="Stone HL">
<path d="M1178.84+1140.15L1196.42+1025.9C1196.42+1025.9+1339.77+958.067+1467.75+957.793C1595.73+957.518+1644.89+1061.05+1799.51+1083.02C1954.12+1104.99+2073.59+976.193+2280.66+970.975C2487.73+965.757+2648.67+1010.52+2648.67+1010.52L2634.39+1293.94L2608.02+1401.6L2513.55+1601.53C2513.55+1601.53+2421.97+1702.31+2421.27+1668.54C2421.01+1655.74+2233.66+1784.46+2232.33+1770.7C2229.13+1737.67+2111.32+1811.92+2107.09+1793.77C2107.09+1793.77+1936.1+1869.94+1929.13+1859.68C1918.43+1843.92+1750.87+1815.13+1721.51+1817.94C1709.21+1819.11+1344.33+1600.7+1333.73+1604.82C1326.59+1607.61+1265.62+1518.04+1230.47+1419.17C1195.32+1320.31+1195.38+1209.39+1193.12+1209.35" fill-opacity="0.574074" fill="#ffffff" opacity="1"/>
</g>
<g id="Shadow" vectornator:layerName="Shadow">
<path d="M2030.09+438.219L1796.78+446.625C1795.58+446.668+1794.37+446.79+1793.19+447C1792.36+447.146+1790.9+447.438+1788.84+447.844C1785.52+448.501+1781.65+449.291+1777.28+450.25C1764.91+452.966+1750.9+456.385+1735.5+460.562C1732.76+461.306+1730.41+462.511+1728.25+463.875C1721.61+465.191+1715.25+467.232+1708.66+469.062C1708.23+469.181+1706.64+469.54+1705.12+469.938C1703.33+470.099+1701.54+470.414+1699.75+470.969C1618.33+496.17+1537.83+531.063+1464.88+577.344C1368.58+638.433+1293.81+714.315+1247.84+806.75C1101.35+1101.38+1159.06+1479.02+1389.84+1704.62C1502.9+1815.14+1696.58+1872.45+1909.97+1867.41C2119.69+1862.45+2320.71+1797.64+2445.91+1688.69C2568.49+1582+2643.86+1428.91+2668.09+1255.34C2690.15+1097.33+2667.61+932.031+2607.84+802C2581.16+743.938+2541.71+692.152+2491.25+646.312C2447.31+606.401+2395.75+571.647+2338.16+541.594C2271.84+506.992+2201.02+480.308+2130.22+460.5C2105.44+453.568+2082.43+447.987+2061.72+443.625C2054.43+442.089+2047.91+440.811+2042.28+439.781C2040.29+439.416+2035.45+438.592+2035.06+438.531C2033.42+438.27+2031.76+438.159+2030.09+438.219ZM2029.28+489.844C2030.67+490.084+2031.9+490.298+2033+490.5C2038.18+491.448+2044.26+492.623+2051.09+494.062C2070.74+498.201+2092.69+503.538+2116.34+510.156C2183.92+529.063+2251.47+554.488+2314.31+587.281C2368.2+615.402+2416.15+647.729+2456.59+684.469C2502.14+725.844+2537.39+772.106+2561.03+823.531C2616.6+944.43+2637.75+1099.78+2617.03+1248.22C2594.43+1410.09+2524.68+1551.8+2412.06+1649.81C2296.84+1750.09+2107.31+1811.18+1908.75+1815.88C1708.05+1820.62+1527.63+1767.25+1425.88+1667.78C1211.33+1458.05+1157.32+1104.61+1294+829.719C1335.37+746.517+1403.57+677.27+1492.47+620.875C1551.16+583.644+1615.52+554.113+1681.25+531.344C1681.24+531.427+1681.26+531.51+1681.25+531.594C1681.32+531.558+1681.37+531.504+1681.44+531.469C1684.87+529.657+1688.1+528.904+1691.34+528.656C1692.25+528.587+1693.19+528.633+1694.12+528.656C1695.23+528.27+1695.97+528.067+1697.59+527.438C1697.87+527.332+1698.18+527.2+1698.53+527.062C1699+526.88+1702.53+525.517+1703.84+525.031C1710.92+522.411+1717.65+520.053+1728.44+516.375C1729.45+516.03+1729.82+515.899+1732.19+515.094C1743.99+511.074+1749.52+509.169+1756.06+506.781C1759.57+505.5+1763.2+504.994+1766.78+505.25C1767.13+505.275+1767.4+505.366+1767.69+505.438C1767.93+505.407+1768.17+505.421+1768.41+505.406C1768.4+505.376+1768.39+505.35+1768.38+505.312C1775.45+503.558+1782.16+501.983+1788.34+500.625C1792.36+499.744+1795.87+498.994+1798.84+498.406C1799.36+498.304+1799.85+498.229+1800.56+498.094L2029.28+489.844Z" stroke="#000000" stroke-width="1" fill="#636363" opacity="1" stroke-linejoin="round"/>
</g>
<g id="Stone line" vectornator:layerName="Stone line">
<path d="M1952.64+1085.67C1970.86+1086.25+1977.93+1076.31+1990.23+1073.8C1991.83+1073.47+1989.18+1077.04+1989.49+1078.64C1990.21+1082.39+1998.08+1083.73+2000.79+1084.63C2012.44+1088.49+2019.12+1080.72+2025.89+1076.15C2027.68+1074.95+2027+1079.54+2027.07+1079.59C2029.85+1081.43+2035.33+1086.11+2043.33+1085.73C2053.64+1085.24+2060.44+1075.17+2064.14+1076.14L2064.13+1076.19C2061.96+1076.02+2054.42+1084.88+2045.45+1086.77C2037.85+1088.37+2028.63+1084.83+2025.86+1079.39C2025.54+1078.75+2027.59+1076.2+2026.53+1077.03C2021.69+1080.82+2017.02+1086.15+2008.77+1087.48C2004.5+1088.17+1993.53+1085.06+1990.5+1082.2C1988.64+1080.43+1991.43+1073.25+1989.25+1074.6C1977.28+1082.08+1968.89+1088.04+1952.42+1087.04" stroke="#000000" stroke-width="1" fill="#000000" opacity="1" stroke-linejoin="round"/>
</g>
<g id="Roots1" vectornator:layerName="Roots1">
<path d="M1931.65+1281.23C1963.4+1277.63+1991.2+1278.78+2022.3+1266.63C2037.19+1260.82+2054.78+1254.43+2067.85+1245.04C2067.88+1245.02+2071.45+1242.18+2070+1241.43C2068.96+1240.9+2072.22+1242.98+2073.1+1244.36C2077.48+1251.16+2085.52+1258.08+2091.88+1262.91C2107.36+1274.67+2126.72+1280.91+2146.32+1278.1C2146.53+1278.07+2162.21+1273.32+2162.41+1273.25C2168.81+1270.77+2190.07+1260.84+2185.58+1250.02C2185.4+1249.57+2184.78+1249.34+2184.3+1249.34C2179.99+1249.35+2195.7+1262.98+2196.39+1263.33C2207.25+1268.81+2217.43+1270.17+2229.48+1271.04C2279.69+1274.67+2296.78+1271.72+2337.71+1246.6L2337.86+1246.81C2299.28+1274.69+2278.51+1279.45+2228.93+1275.41C2216.04+1274.35+2162.49+1258.34+2183.62+1246.89C2191.68+1242.52+2184.9+1262.1+2183.72+1263.64C2176.31+1273.37+2157.77+1279.98+2146.32+1281.61C2125.93+1284.51+2105.64+1277.72+2089.7+1265.31C2084.12+1260.96+2078.34+1255.64+2073.77+1250.2C2072.48+1248.67+2069.29+1238.58+2071.11+1240.38C2077.52+1246.65+2040.74+1262.07+2035.01+1264.77C2004.57+1279.17+1964.9+1290.8+1931.65+1280.14" stroke="#000000" stroke-width="1" fill="#000000" opacity="1" stroke-linejoin="round"/>
</g>
<g id="Tree1" vectornator:layerName="Tree1">
<path d="M1473.34+1211.3C1476.51+1211.03+1478.65+1212.91+1481.85+1212.36C1495.22+1210.08+1507.99+1198.45+1518.36+1190.42C1523.99+1186.05+1531.43+1181.06+1534.96+1174.59C1535.08+1174.39+1536.95+1168.45+1536.23+1168.49C1534.7+1168.59+1536.74+1171.54+1536.77+1173.08C1536.85+1177.06+1536.83+1181.03+1537.27+1185C1538.75+1198.27+1548.19+1206.11+1561.61+1203.98C1571.46+1202.42+1581.39+1196.86+1589.39+1191.11C1590.02+1190.65+1597.74+1184.76+1595.8+1182.85C1594.97+1182.04+1594.03+1184.49+1593.92+1184.75C1592.46+1188.09+1594.78+1191.3+1597.18+1193.78C1602.79+1199.59+1609.8+1203.52+1617.59+1205.52C1640.32+1211.34+1668.78+1205.58+1689.59+1195.58L1690.42+1197.45C1668.55+1210.28+1640.62+1217.87+1615.69+1209.93C1606.81+1207.11+1597.5+1201.29+1592.46+1193.15C1590.55+1190.07+1588.59+1181.6+1594.65+1181.04C1602.94+1180.29+1591.87+1192.4+1590.9+1193.26C1583.02+1200.22+1572.12+1206.41+1561.61+1207.9C1548.29+1209.8+1537.25+1202.87+1534.41+1189.54C1534.07+1187.92+1532.15+1166.81+1536.39+1167.12C1545.12+1167.74+1526.31+1187.34+1525.24+1188.36C1512.48+1200.62+1491.83+1220.48+1474.1+1212.81" stroke="#000000" stroke-width="1" fill="#000000" opacity="1" stroke-linejoin="round"/>
</g>
<g id="Roots0" vectornator:layerName="Roots0">
<path d="M1680.64+1078.34C1702.71+1052.69+1683.61+1088.18+1705.79+1079.59C1720.87+1073.74+1722.74+1079.39+1738.11+1074.73C1741.42+1073.72+1744.39+1068.92+1746.91+1069.04L1747.13+1069.26C1744.89+1069.37+1741.65+1074.89+1738.44+1076.05C1733.96+1077.68+1724.12+1078.93+1719.27+1077.16C1716.97+1076.33+1714.12+1072.25+1712.57+1074.14C1709.93+1077.37+1711.27+1079.59+1705.79+1081.19C1694.44+1084.51+1686.41+1067.43+1687.51+1067.43C1692.21+1067.43+1684.01+1076.36+1680.96+1079.94" stroke="#000000" stroke-width="1" fill="#000000" opacity="1" stroke-linejoin="round"/>
</g>
<g id="Tree0" vectornator:layerName="Tree0">
<path d="M1687.46+1426.98C1716.36+1454.17+1745.24+1367.53+1773.4+1379.58C1778.01+1381.55+1776.41+1381.74+1776.23+1384.6C1776.03+1387.56+1771.83+1381.08+1769.33+1381.12C1764.24+1381.21+1759+1385.02+1754.7+1388.17C1745.05+1395.25+1741.09+1411.94+1748.7+1422.98C1771.76+1456.41+1805.16+1403.42+1820.25+1389.43C1827.61+1382.6+1832.59+1381.03+1841.06+1385.01C1843.45+1386.13+1845.78+1386.18+1848.11+1387.48C1849.25+1388.11+1852.87+1387.22+1851.83+1388.06C1847.33+1391.68+1787.46+1401.51+1822.6+1426.73C1826.37+1429.44+1831.15+1432.36+1835.63+1432.73C1845.21+1433.53+1855.42+1425+1864.79+1427.69L1864.79+1427.92C1856.92+1430.75+1850.29+1436.6+1841.57+1437.21C1835.79+1437.62+1830.85+1436.21+1825.58+1433.52C1796.6+1418.74+1816.4+1391.28+1838.33+1386.35C1840.55+1385.85+1852.49+1385.35+1852.85+1389.27C1853.42+1395.37+1840.54+1388.49+1838.94+1387.74C1832.38+1384.67+1828.38+1387.94+1822.93+1392.97C1803.39+1410.99+1779.17+1457.19+1748.96+1429.4C1724.64+1407.03+1765.01+1363.55+1777.82+1381.6C1781.93+1387.4+1764.96+1378.63+1756.3+1389.34C1741.12+1408.11+1708.57+1454.24+1684.62+1431.21" stroke="#000000" stroke-width="1" fill="#000000" opacity="1" stroke-linejoin="round"/>
</g>
<g id="Roots2" vectornator:layerName="Roots2">
<path d="M2026.29+1485.86C2021.27+1485.46+2035.43+1490.83+2048.39+1486.44C2058.55+1482.99+2096.82+1466.02+2097.89+1453.63C2097.98+1452.69+2101.29+1453.85+2100.59+1454.49C2099.83+1455.18+2096.83+1454.08+2097.52+1454.84C2103.37+1461.2+2091.54+1486.75+2112.43+1489.64C2133.06+1492.5+2156.14+1483.9+2173.33+1473.1C2181.42+1468.02+2187.4+1461.29+2186.29+1458.78C2185.75+1457.56+2187.28+1461.28+2187.45+1462.61C2187.77+1465.1+2187.97+1467.59+2188.18+1470.1C2188.82+1477.53+2189.74+1485.6+2195.64+1491.02C2203.79+1498.52+2242.2+1498.85+2252.93+1495.19L2253.44+1496.14C2242.53+1506.29+2200.83+1504.64+2190.7+1494.22C2184.27+1487.6+2181.1+1458.83+2184.44+1457.46C2188.5+1455.79+2190.97+1461.87+2189.33+1464.85C2185.7+1471.41+2176.14+1476.87+2170.1+1480.64C2153.18+1491.23+2130.16+1499.53+2109.97+1495C2094.79+1491.6+2087.84+1464.09+2095.88+1451.97C2096.76+1450.66+2102.03+1451.37+2101.25+1454.87C2096.76+1475.23+2061.68+1489.83+2043.75+1492.81C2038.1+1493.75+2028.75+1494.55+2024.49+1489.79C2022.58+1487.65+2022.5+1481.71+2026.16+1484.67" stroke="#000000" stroke-width="1" fill="#000000" opacity="1" stroke-linejoin="round"/>
</g>
<g id="Tree2" vectornator:layerName="Tree2">
<path d="M1385.75+1559.19C1394.69+1576.34+1453.97+1557.42+1461.54+1544.34C1462.48+1542.71+1458.49+1546.95+1458.05+1548.78C1455.75+1558.42+1454.96+1567.19+1465.13+1572.14C1473.5+1576.22+1482.45+1572.41+1489.48+1567.84C1492.84+1565.66+1496.56+1563.77+1498.5+1560.08C1498.64+1559.8+1498.39+1558.85+1498.29+1559.15C1494.89+1570.43+1552.46+1578.48+1563.97+1574.35L1564.04+1574.44C1551.01+1583.26+1525.38+1578.69+1510.83+1573.62C1506.92+1572.26+1499.23+1569.53+1498.08+1565.08C1497.53+1562.95+1501.62+1557.05+1500.98+1559.15C1496.95+1572.53+1475.93+1581.56+1463.01+1574.96C1448.64+1567.61+1453.58+1537.53+1462.52+1543.76C1466.05+1546.21+1459.57+1550.12+1458.27+1551.3C1447.9+1560.67+1384.59+1584.17+1384.86+1557.42" stroke="#000000" stroke-width="1" fill="#000000" opacity="1" stroke-linejoin="round"/>
</g>
</svg>
