<?xml version="1.0" encoding="UTF-8" standalone="no"?> <!-- Created with Vectornator Pro for iOS (http://vectornator.io/) --><!DOCTYPE svg PUBLIC "-//W3C//DTD SVG 1.1//EN" "http://www.w3.org/Graphics/SVG/1.1/DTD/svg11.dtd">
<svg height="100%" style="fill-rule:evenodd;clip-rule:evenodd;stroke-linecap:round;stroke-linejoin:round;" xmlns:xlink="http://www.w3.org/1999/xlink" xmlns="http://www.w3.org/2000/svg" xml:space="preserve" width="100%" xmlns:vectornator="http://vectornator.io" version="1.1" viewBox="0 0 3840 2160">
<metadata>
<vectornator:setting key="RulersVisible" value="1"/>
<vectornator:setting key="SnapToEdges" value="0"/>
<vectornator:setting key="Units" value="Pixels"/>
<vectornator:setting key="DynamicGuides" value="0"/>
<vectornator:setting key="SnapToPoints" value="0"/>
<vectornator:setting key="CMYKEnabledKey" value="0"/>
<vectornator:setting key="SnapToGrid" value="0"/>
<vectornator:setting key="ShowGrid" value="1"/>
<vectornator:setting key="GridSpacing" value="36"/>
</metadata>
<defs/>
<g id="Stone face" vectornator:layerName="Stone face">
<path d="M2477.3+1626.79C2477.3+1626.79+2196.88+1800.58+2033.49+1821.23C1852.33+1844.13+1510.82+1784.62+1477.64+1752.03C1450.42+1725.29+1274.63+1555.1+1274.41+1513.65C1274.22+1478.02+1217.98+1355.96+1215.09+1321.4C1210.39+1265.19+1175.75+1111.97+1196.42+1070.94C1285.9+893.287+1586.07+1021.4+1788.8+1032.74C1886.76+1038.22+2196.03+898.627+2340.28+899.475C2484.53+900.323+2645.46+985.763+2650.86+1074.24C2661.58+1249.58+2489.38+1623.5+2489.38+1623.5" stroke="#000000" stroke-width="1" fill="#e4e4e4" opacity="1" stroke-linejoin="round"/>
</g>
<g id="Stone HL" vectornator:layerName="Stone HL">
<path d="M1178.84+1140.15L1196.42+1025.9C1196.42+1025.9+1360.27+1037.27+1488.25+1036.99C1616.22+1036.72+1655.45+910.112+1810.06+932.082C1964.68+954.052+2072.25+1118.77+2279.32+1113.55C2486.39+1108.33+2648.67+1010.52+2648.67+1010.52L2634.39+1293.94L2608.02+1401.6L2513.55+1601.53C2513.55+1601.53+2421.97+1702.31+2421.27+1668.54C2421.01+1655.74+2233.66+1784.46+2232.33+1770.7C2229.13+1737.67+2111.32+1811.92+2107.09+1793.77C2107.09+1793.77+1936.1+1869.94+1929.13+1859.68C1918.43+1843.92+1750.87+1815.13+1721.51+1817.94C1709.21+1819.11+1344.33+1600.7+1333.73+1604.82C1326.59+1607.61+1265.62+1518.04+1230.47+1419.17C1195.32+1320.31+1195.38+1209.39+1193.12+1209.35" fill-opacity="0.574074" fill="#ffffff" opacity="1"/>
</g>
<g id="Shadow" vectornator:layerName="Shadow">
<path d="M2030.09+438.219L1796.78+446.625C1795.58+446.668+1794.37+446.79+1793.19+447C1792.36+447.146+1790.9+447.438+1788.84+447.844C1785.52+448.501+1781.65+449.291+1777.28+450.25C1764.91+452.966+1750.9+456.385+1735.5+460.562C1732.76+461.306+1730.41+462.511+1728.25+463.875C1721.61+465.191+1715.25+467.232+1708.66+469.062C1708.23+469.181+1706.64+469.54+1705.12+469.938C1703.33+470.099+1701.54+470.414+1699.75+470.969C1618.33+496.17+1537.83+531.063+1464.88+577.344C1368.58+638.433+1293.81+714.315+1247.84+806.75C1101.35+1101.38+1159.06+1479.02+1389.84+1704.62C1502.9+1815.14+1696.58+1872.45+1909.97+1867.41C2119.69+1862.45+2320.71+1797.64+2445.91+1688.69C2568.49+1582+2643.86+1428.91+2668.09+1255.34C2690.15+1097.33+2667.61+932.031+2607.84+802C2581.16+743.938+2541.71+692.152+2491.25+646.312C2447.31+606.401+2395.75+571.647+2338.16+541.594C2271.84+506.992+2201.02+480.308+2130.22+460.5C2105.44+453.568+2082.43+447.987+2061.72+443.625C2054.43+442.089+2047.91+440.811+2042.28+439.781C2040.29+439.416+2035.45+438.592+2035.06+438.531C2033.42+438.27+2031.76+438.159+2030.09+438.219ZM2029.28+489.844C2030.67+490.084+2031.9+490.298+2033+490.5C2038.18+491.448+2044.26+492.623+2051.09+494.062C2070.74+498.201+2092.69+503.538+2116.34+510.156C2183.92+529.063+2251.47+554.488+2314.31+587.281C2368.2+615.402+2416.15+647.729+2456.59+684.469C2502.14+725.844+2537.39+772.106+2561.03+823.531C2616.6+944.43+2637.75+1099.78+2617.03+1248.22C2594.43+1410.09+2524.68+1551.8+2412.06+1649.81C2296.84+1750.09+2107.31+1811.18+1908.75+1815.88C1708.05+1820.62+1527.63+1767.25+1425.88+1667.78C1211.33+1458.05+1157.32+1104.61+1294+829.719C1335.37+746.517+1403.57+677.27+1492.47+620.875C1551.16+583.644+1615.52+554.113+1681.25+531.344C1681.24+531.427+1681.26+531.51+1681.25+531.594C1681.32+531.558+1681.37+531.504+1681.44+531.469C1684.87+529.657+1688.1+528.904+1691.34+528.656C1692.25+528.587+1693.19+528.633+1694.12+528.656C1695.23+528.27+1695.97+528.067+1697.59+527.438C1697.87+527.332+1698.18+527.2+1698.53+527.062C1699+526.88+1702.53+525.517+1703.84+525.031C1710.92+522.411+1717.65+520.053+1728.44+516.375C1729.45+516.03+1729.82+515.899+1732.19+515.094C1743.99+511.074+1749.52+509.169+1756.06+506.781C1759.57+505.5+1763.2+504.994+1766.78+505.25C1767.13+505.275+1767.4+505.366+1767.69+505.438C1767.93+505.407+1768.17+505.421+1768.41+505.406C1768.4+505.376+1768.39+505.35+1768.38+505.312C1775.45+503.558+1782.16+501.983+1788.34+500.625C1792.36+499.744+1795.87+498.994+1798.84+498.406C1799.36+498.304+1799.85+498.229+1800.56+498.094L2029.28+489.844Z" stroke="#000000" stroke-width="1" fill="#636363" opacity="1" stroke-linejoin="round"/>
</g>
<g id="Stone line" vectornator:layerName="Stone line">
<path d="M1955.8+1081.62C1964.49+1083.52+1975.71+1074.61+1981.36+1068.93C1982.95+1067.33+1985.86+1062.59+1987.4+1061.73C1988.34+1061.21+1989.39+1061.73+1990.08+1061.02C1993.22+1057.77+1988.72+1064.89+1991.68+1072.22C1994.3+1078.7+2000.34+1082.88+2007.24+1083.51C2015.62+1084.28+2023.46+1080.46+2028.88+1074.18C2030.35+1072.48+2031.18+1070.71+2031.75+1068.55C2031.81+1068.33+2032.15+1061.36+2031.58+1061.44C2030.49+1061.59+2034.01+1062.54+2034.03+1063.63C2034.13+1069.22+2034.11+1073.6+2038.12+1078.21C2048.27+1089.86+2074.37+1082.46+2078.01+1068.14L2078.37+1067.9C2081.89+1069.23+2075.74+1075.92+2074.83+1076.87C2068.67+1083.26+2059.6+1087.54+2050.62+1087.04C2042.4+1086.58+2035.24+1081.34+2032.6+1073.5C2032.37+1072.83+2031.08+1062.26+2031.55+1061.95C2032.06+1061.61+2033.86+1061.13+2033.25+1061.21C2031.85+1061.4+2034.06+1063.95+2034.08+1065.36C2034.13+1068.09+2033.02+1071.26+2031.69+1073.58C2027.94+1080.15+2020.43+1084.85+2013.04+1085.81C2003.26+1087.09+1993.11+1082.28+1989.52+1072.72C1988.3+1069.46+1987.44+1064+1990.08+1061.28C1990.41+1060.93+1989.76+1062.42+1990.14+1062.72C1990.47+1063+1989.24+1062.6+1988.83+1062.75C1987.84+1063.12+1986.02+1066.5+1985.45+1067.3C1981.01+1073.5+1974.95+1078.07+1968.07+1081.36C1966.07+1082.31+1955.3+1086.16+1956.36+1081.23" stroke="#000000" stroke-width="1" fill="#000000" opacity="1" stroke-linejoin="round"/>
</g>
<g id="Roots1" vectornator:layerName="Roots1">
<path d="M2012.42+1232.66C2032.36+1227.99+2049.73+1226.08+2066.97+1215.7C2081.12+1207.18+2086.16+1189.13+2085.03+1189.01C2084.72+1188.98+2083.38+1190.79+2086.15+1189.77C2086.49+1189.65+2086.87+1189.78+2087.24+1189.78C2097.43+1189.7+2078.73+1220.85+2108.59+1227.48C2125.59+1231.25+2147.95+1228.8+2162.23+1218.01C2165.7+1215.39+2165.37+1209.47+2168.16+1207.79C2172.45+1205.19+2171.89+1213.96+2172.46+1215.04C2176.07+1221.71+2189.51+1225.99+2196.42+1226.85C2224.67+1230.39+2253.36+1222.24+2274.96+1204.06C2280.51+1199.39+2295.51+1188.98+2297.84+1181.68C2297.98+1181.24+2298.91+1177.08+2297.43+1178.49L2297.75+1177.85C2307.52+1179.55+2279.72+1203.98+2276.84+1206.5C2253.79+1226.6+2217.56+1239.63+2187.2+1229.16C2177.1+1225.68+2167.47+1219.87+2171.13+1209.27C2172.08+1206.51+2169.22+1214.88+2167.54+1217.27C2164.68+1221.35+2159.34+1223.55+2154.99+1225.29C2138.93+1231.73+2124.19+1234.87+2107.09+1230.79C2096.12+1228.17+2087.57+1221.03+2086.53+1209.44C2086.26+1206.45+2088.58+1192.63+2088.32+1192.61C2086.51+1192.51+2078.57+1189.75+2083.98+1187.82C2095.07+1183.88+2078.78+1211.13+2075.04+1214.2C2057.07+1228.95+2034.37+1231.34+2012.42+1236.44" stroke="#000000" stroke-width="1" fill="#000000" opacity="1" stroke-linejoin="round"/>
</g>
<g id="Tree1" vectornator:layerName="Tree1">
<path d="M1498.28+1225.53C1511.25+1239.22+1532.12+1229.48+1545.31+1219.61C1549.7+1216.33+1556.53+1211.95+1559.06+1206.25C1560.31+1203.44+1561.32+1194.27+1561.52+1197.35C1561.71+1200.48+1566.08+1194.3+1565.56+1199.84C1564.37+1212.4+1567.49+1223.4+1582.71+1224.53C1590.6+1225.11+1601.79+1219.25+1606.82+1213.21C1608.76+1210.89+1610.24+1208.66+1611.3+1205.83C1611.69+1204.8+1611.97+1201.65+1612.34+1202.69C1614.56+1208.84+1614.98+1218.84+1621.21+1224.55C1631.23+1233.73+1690.63+1233.68+1695.94+1218.97L1696.3+1218.97C1702.63+1236.51+1634.45+1236.25+1622.3+1229.58C1612.72+1224.32+1606.96+1196.94+1615.23+1203.65C1615.97+1204.25+1613.01+1211.38+1612.76+1211.82C1607.15+1221.39+1592.56+1229.38+1581.66+1228.38C1572.55+1227.55+1563.28+1221.88+1561.14+1212.32C1560.56+1209.71+1560.71+1203.45+1561.46+1200.97C1561.93+1199.44+1564.5+1195.75+1564.6+1197.35C1566.35+1225.02+1497.42+1252.98+1499.75+1224.06" stroke="#000000" stroke-width="1" fill="#000000" opacity="1" stroke-linejoin="round"/>
</g>
<g id="Roots0" vectornator:layerName="Roots0">
<path d="M1675.33+1095.99C1686.35+1091.76+1695.88+1085.12+1702.88+1075.75C1703.35+1075.11+1704.4+1073.03+1703.78+1073.54C1699+1077.4+1711.95+1090.92+1718.43+1091.96C1725.15+1093.05+1730.69+1089.35+1736.05+1085.79C1752.3+1074.96+1738.2+1073.03+1742.49+1086.21C1748.16+1103.59+1795.56+1092.11+1789.12+1082.18L1790.29+1081.79C1804.75+1093.43+1754.44+1105.88+1742.89+1093.25C1738.75+1088.72+1741.52+1069.33+1746.52+1074.01C1755.23+1082.16+1725.08+1100.24+1707.2+1091.61C1703.63+1089.89+1699.24+1072.75+1705.13+1072.56C1711.12+1072.36+1697.49+1087.29+1696.82+1087.77C1689.75+1092.86+1684.29+1096.6+1675.94+1099.67" stroke="#000000" stroke-width="1" fill="#000000" opacity="1" stroke-linejoin="round"/>
</g>
<g id="Tree0" vectornator:layerName="Tree0">
<path d="M1685.35+1434.41C1716.67+1425.23+1735+1412.84+1741.21+1384.83C1741.54+1383.32+1740.22+1387.81+1739.33+1389.07C1736.24+1393.47+1739.81+1399.81+1740.11+1405.18C1740.81+1417.96+1749.3+1433.55+1763.72+1432.46C1781.92+1431.08+1795.39+1418.71+1807.86+1406.94C1814.84+1400.34+1811.74+1395.02+1815.77+1389.28C1816.21+1388.67+1813.9+1387.17+1817.46+1388.37C1817.92+1388.53+1823.06+1414.16+1827.89+1419.87C1845.62+1440.85+1882.2+1442.11+1907.23+1437.24L1907.63+1438.45C1886+1448.66+1853.33+1444.99+1833.53+1432.39C1819.41+1423.41+1809.29+1402.31+1818.22+1391.26C1820+1389.05+1817.63+1396.98+1816.51+1399.59C1814.41+1404.48+1810.32+1408.27+1806.75+1411.98C1794.79+1424.42+1777.53+1439.26+1758.56+1436.51C1734.5+1433.03+1733.74+1387.4+1739.33+1387.18C1740.57+1387.14+1739.18+1383.87+1740.4+1383.62C1745.59+1382.57+1738.31+1403.31+1738.21+1403.57C1733.08+1416.62+1698.18+1445.91+1685.35+1432.76" stroke="#000000" stroke-width="1" fill="#000000" opacity="1" stroke-linejoin="round"/>
</g>
<g id="Roots2" vectornator:layerName="Roots2">
<path d="M2026.29+1485.86C2021.27+1485.46+2035.43+1490.83+2048.39+1486.44C2058.55+1482.99+2096.82+1466.02+2097.89+1453.63C2097.98+1452.69+2101.29+1453.85+2100.59+1454.49C2099.83+1455.18+2096.83+1454.08+2097.52+1454.84C2103.37+1461.2+2091.54+1486.75+2112.43+1489.64C2133.06+1492.5+2156.14+1483.9+2173.33+1473.1C2181.42+1468.02+2187.4+1461.29+2186.29+1458.78C2185.75+1457.56+2187.28+1461.28+2187.45+1462.61C2187.77+1465.1+2187.97+1467.59+2188.18+1470.1C2188.82+1477.53+2189.74+1485.6+2195.64+1491.02C2203.79+1498.52+2242.2+1498.85+2252.93+1495.19L2253.44+1496.14C2242.53+1506.29+2200.83+1504.64+2190.7+1494.22C2184.27+1487.6+2181.1+1458.83+2184.44+1457.46C2188.5+1455.79+2190.97+1461.87+2189.32+1464.85C2185.7+1471.41+2176.14+1476.87+2170.1+1480.64C2153.18+1491.23+2130.16+1499.53+2109.97+1495C2094.79+1491.6+2087.84+1464.09+2095.88+1451.97C2096.76+1450.66+2102.03+1451.37+2101.25+1454.87C2096.76+1475.23+2061.68+1489.83+2043.75+1492.81C2038.1+1493.75+2028.75+1494.55+2024.49+1489.79C2022.58+1487.65+2022.5+1481.71+2026.16+1484.67" stroke="#000000" stroke-width="1" fill="#000000" opacity="1" stroke-linejoin="round"/>
</g>
<g id="Tree2" vectornator:layerName="Tree2">
<path d="M1441.92+1574.11C1437.5+1571.43+1446.83+1576.94+1454.58+1574.34C1465.42+1570.71+1476.73+1565.14+1485.58+1557.89C1487.82+1556.06+1495.69+1550.7+1495.88+1547.24C1496.18+1541.5+1496.74+1572.9+1512.82+1574.29C1525.1+1575.36+1539.59+1570.34+1549.05+1562.58C1553.82+1558.68+1558.6+1548.65+1561.11+1550.06C1564.37+1551.89+1559.22+1567.42+1563.69+1573.21C1573.58+1586.05+1622.55+1587.68+1634.95+1578.29L1635.26+1578.84C1632.06+1582.78+1622.07+1583.98+1617.49+1585.04C1600.55+1588.98+1571.68+1591.51+1560.18+1574.69C1553.2+1564.49+1560.83+1555.9+1558.18+1551.6C1557.27+1550.1+1557.67+1548.07+1559.97+1548.2C1566.26+1548.56+1555.15+1562.27+1551.08+1565.54C1540.78+1573.85+1524.82+1579.65+1511.51+1577.56C1503.92+1576.38+1499.37+1570.3+1497.06+1563.54C1495.81+1559.85+1493.18+1549.35+1494.01+1545.91C1494.5+1543.92+1498.66+1545.74+1498.27+1548.01C1496.26+1559.83+1464.75+1574.77+1455.04+1577.52C1450.72+1578.74+1441.84+1579.64+1438.35+1575.51C1435.93+1572.65+1440.16+1572.45+1442+1573.79" stroke="#000000" stroke-width="1" fill="#000000" opacity="1" stroke-linejoin="round"/>
</g>
</svg>
