<?xml version="1.0" encoding="UTF-8" standalone="no"?> <!-- Created with Vectornator Pro for iOS (http://vectornator.io/) --><!DOCTYPE svg PUBLIC "-//W3C//DTD SVG 1.1//EN" "http://www.w3.org/Graphics/SVG/1.1/DTD/svg11.dtd">
<svg height="100%" style="fill-rule:evenodd;clip-rule:evenodd;stroke-linecap:round;stroke-linejoin:round;" xmlns:xlink="http://www.w3.org/1999/xlink" xmlns="http://www.w3.org/2000/svg" xml:space="preserve" width="100%" xmlns:vectornator="http://vectornator.io" version="1.1" viewBox="0 0 3840 2160">
<metadata>
<vectornator:setting key="RulersVisible" value="1"/>
<vectornator:setting key="SnapToEdges" value="0"/>
<vectornator:setting key="Units" value="Pixels"/>
<vectornator:setting key="DynamicGuides" value="0"/>
<vectornator:setting key="SnapToPoints" value="0"/>
<vectornator:setting key="CMYKEnabledKey" value="0"/>
<vectornator:setting key="SnapToGrid" value="0"/>
<vectornator:setting key="ShowGrid" value="1"/>
<vectornator:setting key="GridSpacing" value="36"/>
</metadata>
<defs/>
<g id="Layer 2" vectornator:layerName="Layer 2">
<path d="M1897.25+1007.03C1891.66+1017.13+1886.09+1027.24+1880.5+1037.34L1883.59+1037.53C1889.01+1027.79+1894.43+1018.05+1899.84+1008.31L1897.25+1007.03ZM1849+1008.03L1847.5+1008.31C1848.06+1017.49+1849.66+1026.71+1851.72+1035.69L1854.91+1035.03C1853.09+1025.92+1851.64+1016.96+1849+1008.03ZM1814.47+1018.28L1813+1019.03C1818.11+1028.5+1823.23+1037.97+1828.34+1047.44C1823.72+1037.72+1819.09+1028+1814.47+1018.28ZM1828.34+1047.44C1830.12+1051.17+1831.88+1054.9+1833.66+1058.62L1834.78+1059.38C1832.63+1055.4+1830.49+1051.42+1828.34+1047.44ZM1920.59+1020.81C1917.89+1025.47+1915.17+1030.13+1912.47+1034.78C1915.82+1030.58+1919.18+1026.39+1922.53+1022.19L1920.59+1020.81ZM1912.47+1034.78C1910.2+1037.62+1907.95+1040.45+1905.69+1043.28L1907.28+1043.72C1909.01+1040.74+1910.74+1037.76+1912.47+1034.78ZM1964.41+1043.84C1953.9+1047.44+1942.67+1048.83+1932.09+1052.44L1933.28+1055.5C1943.81+1052.07+1954.81+1050.06+1964.97+1045.53L1964.41+1043.84ZM1779.47+1053.34L1778.78+1054.31C1785.9+1059.1+1796.47+1072.44+1801.59+1078.84C1795.89+1068.73+1790.85+1057.47+1779.47+1053.34ZM1801.59+1078.84C1802.44+1080.34+1803.26+1081.87+1804.16+1083.28L1805.28+1083.34C1804.92+1082.93+1802.64+1080.15+1801.59+1078.84ZM1972.16+1086.66C1964.01+1086.37+1955.46+1087.29+1947.75+1088.44C1945.33+1088.8+1938.71+1088.69+1939.88+1092.31L1940+1092.34C1941.12+1090.23+1948.45+1091.21+1951.72+1091.19C1961.22+1091.13+1970.81+1091.38+1980.22+1089.84L1980.12+1087.38C1977.54+1086.98+1974.87+1086.75+1972.16+1086.66ZM1789.53+1107.72C1779.23+1108.24+1768.93+1108.76+1758.62+1109.28L1758.62+1110.03C1768.82+1110.53+1779.03+1111.03+1789.22+1111.53L1789.53+1107.72ZM1950.47+1121.75L1950.06+1124.69C1957.98+1125.51+1965.92+1126.33+1973.84+1127.16L1974+1125.88C1966.15+1124.5+1958.32+1123.13+1950.47+1121.75ZM1797.75+1136.47C1789.59+1141.14+1781.44+1145.83+1773.28+1150.5L1773.69+1151.28C1782.09+1146.94+1790.51+1142.59+1798.91+1138.25L1797.75+1136.47ZM1938.84+1149.62L1937.56+1151.25C1948.7+1161.53+1940.03+1153.68+1964.41+1173.78L1965.53+1172.47C1941.84+1151.47+1951.33+1158.3+1938.84+1149.62ZM1825.22+1161C1814.85+1169.02+1804.49+1177.01+1794.12+1185.03L1794.62+1185.75C1805.15+1178.04+1815.69+1170.34+1826.22+1162.62L1825.22+1161ZM1897.22+1172.06L1895.06+1172.19C1898.67+1183.52+1900.1+1187.88+1902.81+1196L1903.16+1195.88C1901.97+1187.78+1899.21+1180+1897.22+1172.06ZM1849.41+1178.41C1845.84+1189.73+1842.28+1201.05+1838.72+1212.38L1840.03+1212.78C1843.79+1201.38+1847.55+1189.97+1851.31+1178.56L1849.41+1178.41Z" stroke="#000000" stroke-width="1" fill="#000000" opacity="1" stroke-linejoin="round"/>
</g>
<g id="Layer 1" vectornator:layerName="Layer 1">
<path d="M1838.55+1108.15L1869.96+1133.64L1897.81+1118.15L1874.52+1077.16L1853.24+1087.16" opacity="1" fill="#a5a5a5"/>
</g>
</svg>
