<?xml version="1.0" encoding="UTF-8" standalone="no"?> <!-- Created with Vectornator Pro for iOS (http://vectornator.io/) --><!DOCTYPE svg PUBLIC "-//W3C//DTD SVG 1.1//EN" "http://www.w3.org/Graphics/SVG/1.1/DTD/svg11.dtd">
<svg height="100%" style="fill-rule:evenodd;clip-rule:evenodd;stroke-linecap:round;stroke-linejoin:round;" xmlns:xlink="http://www.w3.org/1999/xlink" xmlns="http://www.w3.org/2000/svg" xml:space="preserve" width="100%" xmlns:vectornator="http://vectornator.io" version="1.1" viewBox="0 0 3840 2160">
<metadata>
<vectornator:setting key="RulersVisible" value="1"/>
<vectornator:setting key="SnapToEdges" value="0"/>
<vectornator:setting key="Units" value="Pixels"/>
<vectornator:setting key="DynamicGuides" value="0"/>
<vectornator:setting key="SnapToPoints" value="0"/>
<vectornator:setting key="CMYKEnabledKey" value="0"/>
<vectornator:setting key="SnapToGrid" value="0"/>
<vectornator:setting key="ShowGrid" value="1"/>
<vectornator:setting key="GridSpacing" value="36"/>
</metadata>
<defs/>
<g id="Layer 2" vectornator:layerName="Layer 2">
<path d="M1914.75+982.875C1903.76+995.113+1895.41+1010.64+1885.47+1023.81L1888.03+1025.44C1895.76+1015.7+1915.73+996.902+1915.66+983.281L1914.75+982.875ZM1843.41+991.875L1843.12+991.969C1846.46+1006.96+1849.79+1021.94+1853.12+1036.94L1854.94+1036.94C1851.09+1021.92+1847.25+1006.89+1843.41+991.875ZM1807.69+1011.81L1807.28+1012.03C1804.03+1027.34+1806.98+1012.67+1827.25+1052.34L1830.81+1050.78C1807.71+1012.23+1811.84+1026.82+1807.69+1011.81ZM1931.28+1015.75C1923.66+1023.7+1916.03+1031.64+1908.41+1039.59L1911.25+1041.97C1918.25+1033.5+1925.25+1025.06+1932.25+1016.59L1931.28+1015.75ZM1984.25+1043.28C1971.2+1044.99+1958.39+1045.55+1945.5+1048.5C1943.13+1049.04+1925.46+1052.97+1933.19+1056.28L1933.41+1056.06C1933.02+1055.16+1931.4+1053.85+1932.25+1053.38C1935.37+1051.65+1975.88+1047.78+1984.69+1046L1984.25+1043.28ZM1776.53+1046.12L1776.09+1046.25C1775.92+1050.06+1779+1051.79+1781.09+1054.38C1788.72+1063.8+1796.24+1073.31+1803.81+1082.78L1806.53+1081.12C1798.46+1071.87+1790.47+1062.56+1782.31+1053.38C1780.25+1051.05+1776.72+1049.69+1776.53+1046.12ZM1947.06+1086.72L1947.25+1090.28C1958.86+1091.41+1970.46+1092.52+1982.06+1093.66L1982.25+1091.78C1970.51+1090.09+1958.8+1088.41+1947.06+1086.72ZM1744.06+1103.59L1743.94+1104.97C1764.35+1107.09+1784.77+1109.19+1805.19+1111.31L1805.19+1108.78C1784.82+1107.06+1764.43+1105.32+1744.06+1103.59ZM1948.75+1121.25L1948.62+1124.25C1963.12+1125.25+1977.63+1126.25+1992.12+1127.25L1992.22+1125.94C1977.73+1124.37+1963.24+1122.81+1948.75+1121.25ZM1810.12+1134.19C1793.95+1141.29+1778.74+1152.15+1761.25+1154.62L1761.38+1155.5C1778.63+1157.7+1793.78+1142.68+1809.47+1135.16L1810.12+1134.19ZM1930.22+1147.25L1930.22+1149.78C1938.75+1155.64+1965.37+1179.1+1980.81+1183.44L1981.22+1182.88C1978.32+1173.75+1933.18+1149.03+1930.22+1147.25ZM1820.88+1159.97C1809.56+1169.42+1798.22+1178.87+1786.91+1188.31L1787.25+1188.75C1799.02+1179.98+1810.79+1171.23+1822.56+1162.47L1820.88+1159.97ZM1891.06+1168.62C1891.1+1168.78+1892.7+1169.97+1894.5+1171.34C1894.63+1171.76+1893.81+1168.97+1894.12+1170.03L1894+1170.12C1891.84+1168.94+1891.04+1168.51+1891.06+1168.62ZM1894.5+1171.34C1893.47+1167.92+1897.09+1180.33+1897.59+1182.03C1899.39+1188.11+1906.03+1205.91+1906.81+1210.69L1908.22+1210.25C1909.27+1201.3+1903.63+1184.15+1899.88+1176.38C1899.23+1175.05+1896.71+1173.02+1894.5+1171.34ZM1850.09+1173.22L1849.5+1173.84C1849.26+1175+1849.02+1176.16+1848.78+1177.31C1849.22+1175.95+1849.65+1174.58+1850.09+1173.22ZM1848.78+1177.31C1845.49+1187.44+1842.14+1197.57+1838.94+1207.72C1837.82+1211.27+1835.36+1216.98+1838.72+1219.94L1840.12+1219.47C1838.39+1217.15+1841.67+1211.09+1842.19+1208.62C1844.39+1198.19+1846.59+1187.75+1848.78+1177.31Z" stroke="#000000" stroke-width="1" fill="#000000" opacity="1" stroke-linejoin="round"/>
</g>
<g id="Layer 1" vectornator:layerName="Layer 1">
<path d="M1838.55+1108.15L1869.96+1133.64L1897.81+1118.15L1874.52+1077.16L1853.24+1087.16" opacity="1" fill="#a5a5a5"/>
</g>
</svg>
