<?xml version="1.0" encoding="UTF-8" standalone="no"?> <!-- Created with Vectornator Pro for iOS (http://vectornator.io/) --><!DOCTYPE svg PUBLIC "-//W3C//DTD SVG 1.1//EN" "http://www.w3.org/Graphics/SVG/1.1/DTD/svg11.dtd">
<svg height="100%" style="fill-rule:evenodd;clip-rule:evenodd;stroke-linecap:round;stroke-linejoin:round;" xmlns:xlink="http://www.w3.org/1999/xlink" xmlns="http://www.w3.org/2000/svg" xml:space="preserve" width="100%" xmlns:vectornator="http://vectornator.io" version="1.1" viewBox="0 0 3840 2160">
<metadata>
<vectornator:setting key="RulersVisible" value="1"/>
<vectornator:setting key="SnapToEdges" value="0"/>
<vectornator:setting key="Units" value="Pixels"/>
<vectornator:setting key="DynamicGuides" value="0"/>
<vectornator:setting key="SnapToPoints" value="0"/>
<vectornator:setting key="CMYKEnabledKey" value="0"/>
<vectornator:setting key="SnapToGrid" value="0"/>
<vectornator:setting key="ShowGrid" value="1"/>
<vectornator:setting key="GridSpacing" value="36"/>
</metadata>
<defs/>
<g id="Shadow" vectornator:layerName="Shadow">
<path d="M2031.03+464L1797.69+472.406C1797.69+472.406+1776.53+476.137+1742.34+485.406L1742.31+485.094C1739.37+485.343+1733.7+486.761+1726.06+489.031C1725.05+489.333+1724+489.642+1722.94+489.969C1719.44+491.04+1715.84+492.196+1712.34+493.344C1711.12+493.746+1707.81+494.856+1707.75+494.875L1708.03+495.75C1707.83+495.594+1707.61+495.521+1707.38+495.594C1583.82+533.838+1366.55+625.867+1270.91+818.219C1130.95+1099.68+1182.66+1466.06+1407.84+1686.19C1633.03+1906.32+2179.65+1886.23+2428.97+1669.25C2678.29+1452.27+2697.37+1058.5+2584.44+812.781C2455.07+531.311+2031.03+464+2031.03+464ZM1736.94+487.125L1735.72+487.406C1736.19+487.289+1736.5+487.227+1736.94+487.125Z" stroke="#606060" stroke-width="27.38" fill="#a5a5a5" opacity="1" stroke-linejoin="round"/>
</g>
<g id="Roots0" vectornator:layerName="Roots0">
<path d="M2020.03+448.812L1789.03+457.062L1789.06+458.344C1784.99+458.012+1782.76+457.979+1781.53+458.219C1778.25+458.858+1774.43+459.628+1770.12+460.562C1758.96+462.985+1746.3+466.066+1732.62+469.688C1727.7+470.15+1721.47+471.656+1712.25+474.375C1710.5+474.891+1709.92+475.055+1708.97+475.344C1705.57+476.377+1701.95+477.534+1698.03+478.812C1697.04+479.136+1693.67+480.232+1693.25+480.375C1691.66+480.912+1690.18+481.617+1688.78+482.438C1609.93+507.039+1532.06+540.738+1461.41+585.219C1366.32+645.08+1309.56+725.092+1264.2+815.632C1119.46+1104.55+1189.25+1473.64+1417.21+1694.83C1437.85+1714.85+1460.22+1732.75+1484.36+1748.55C1590.34+1817.96+1730.17+1846.94+1904.44+1837.28C2111.26+1825.82+2311.64+1756.77+2435.72+1649.59C2556.92+1544.9+2630.01+1400.37+2652.44+1237.25C2672.8+1089.19+2649.63+933.472+2590.25+805.25C2563.92+748.399+2524.98+697.71+2475.19+652.812C2431.81+613.704+2380.92+579.617+2324.03+550.156C2258.51+516.224+2188.5+490.054+2118.53+470.625C2094.05+463.826+2071.31+458.371+2050.84+454.094C2043.64+452.589+2037.24+451.321+2031.69+450.312C2029.72+449.955+2024.94+449.153+2024.56+449.094C2023.06+448.857+2021.55+448.758+2020.03+448.812ZM2448.37+642.517C2493.61+683.31+2566.82+778.37+2590.31+829.092C2645.86+949.049+2628.45+1166.42+2606.07+1250.37C2583.7+1334.33+2481.33+1499.67+2369.27+1596.47C2253.89+1696.13+2129.15+1759.2+1932.1+1770.12C1730.2+1781.31+1512.62+1762.96+1412.36+1665.68C1199.49+1459.14+1135.91+1094.77+1271.49+824.133C1312.58+742.109+1357.81+673.037+1446.06+617.48C1513.27+575.171+1556.15+546+1631.8+522.502C1632.2+522.445+1734.48+484.648+1785+479.689C1825.76+475.687+1981.49+451.649+2111.97+482.675C2279.56+522.527+2425.8+622.162+2448.37+642.517Z" fill-opacity="0.418981" fill="#212121" opacity="1"/>
</g>
<g id="Stone face" vectornator:layerName="Stone face">
<path d="M2356.55+631.414L2342.97+1695.6C2342.9+1701.81+2331.45+1706.42+2312.69+1706.39L2312.96+1706.12C2294.21+1706.1+2274.97+1701.71+2275.05+1695.51L2288.62+631.319C2288.7+625.11+2303.97+620.099+2322.73+620.125L2322.73+620.125C2341.48+620.151+2356.63+625.205+2356.55+631.414Z" opacity="1" fill="#555555"/>
</g>
<g id="Stone HL" vectornator:layerName="Stone HL">
<path d="M2356.55+631.414L2342.97+1695.6C2342.9+1701.81+2331.45+1706.42+2312.69+1706.39L2312.96+1706.12C2294.21+1706.1+2274.97+1701.71+2275.05+1695.51L2288.62+631.319C2288.7+625.11+2303.97+620.099+2322.73+620.125L2322.73+620.125C2341.48+620.151+2356.63+625.205+2356.55+631.414Z" opacity="1" fill="#555555"/>
</g>
<g id="Stone line" vectornator:layerName="Stone line">
<path d="M1863.76+517.632L1850.18+1803.93C1850.14+1808.43+1844.64+1812.4+1836.21+1814.86C1830.56+1816.51+1826.52+1817.52+1819+1817.51L1816.08+1817.46C1811.85+1817.46+1807.8+1817.14+1804.07+1816.57C1791.26+1814.61+1782.19+1809.63+1782.25+1803.82L1795.83+517.518C1795.91+510.013+1811.18+503.956+1829.93+503.987L1829.93+503.987C1848.69+504.019+1863.83+510.128+1863.76+517.632Z" opacity="1" fill="#555555"/>
</g>
<g id="Roots1" vectornator:layerName="Roots1">
<path d="M1644.18+585.62L1630.61+1762.72C1630.53+1769.59+1617.54+1775.39+1598.78+1775.36L1598.31+1775.64C1579.56+1775.61+1562.6+1769.48+1562.68+1762.62L1576.25+585.515C1576.33+578.648+1591.6+573.104+1610.36+573.133L1610.36+573.133C1629.12+573.162+1644.26+578.753+1644.18+585.62Z" opacity="1" fill="#555555"/>
</g>
<g id="Tree0" vectornator:layerName="Tree0">
<path d="M2114.44+522.918L2100.87+1778.28C2100.79+1785.6+2090.41+1791.54+2071.65+1791.51C2071.65+1791.51+2075.9+1791.59+2071.18+1791.42C2066.45+1791.24+2032.86+1785.49+2032.94+1778.16L2046.51+522.806C2046.59+515.482+2061.86+509.57+2080.62+509.601L2080.62+509.601C2099.38+509.632+2114.52+515.594+2114.44+522.918Z" opacity="1" fill="#555555"/>
</g>
<g id="Roots2" vectornator:layerName="Roots2">
<path d="M2566.36+811.58L2552.79+1501.05C2552.71+1505.07+2545.41+1508.91+2526.65+1508.89C2526.65+1508.89+2516.8+1507.32+2526.7+1508.56C2536.61+1509.8+2484.78+1505.01+2484.86+1500.99L2498.43+811.518C2498.51+807.496+2513.78+804.249+2532.54+804.266L2532.54+804.266C2551.3+804.283+2566.44+807.557+2566.36+811.58Z" opacity="1" fill="#555555"/>
</g>
<g id="Tree2" vectornator:layerName="Tree2">
<path d="M1438.58+726.822L1425+1581.44C1424.92+1586.43+1415.92+1592.78+1397.16+1592.76L1396.96+1592.9C1378.2+1592.88+1356.99+1586.35+1357.07+1581.37L1370.65+726.746C1370.73+721.76+1386+717.735+1404.75+717.756L1404.75+717.756C1423.51+717.778+1438.65+721.836+1438.58+726.822Z" opacity="1" fill="#555555"/>
</g>
</svg>
