<?xml version="1.0" encoding="UTF-8" standalone="no"?> <!-- Created with Vectornator Pro for iOS (http://vectornator.io/) --><!DOCTYPE svg PUBLIC "-//W3C//DTD SVG 1.1//EN" "http://www.w3.org/Graphics/SVG/1.1/DTD/svg11.dtd">
<svg height="100%" style="fill-rule:evenodd;clip-rule:evenodd;stroke-linecap:round;stroke-linejoin:round;" xmlns:xlink="http://www.w3.org/1999/xlink" xmlns="http://www.w3.org/2000/svg" xml:space="preserve" width="100%" xmlns:vectornator="http://vectornator.io" version="1.1" viewBox="0 0 3840 2160">
<metadata>
<vectornator:setting key="CMYKEnabledKey" value="0"/>
<vectornator:setting key="Units" value="Points"/>
<vectornator:setting key="GridSpacing" value="36"/>
<vectornator:setting key="RulersVisible" value="1"/>
<vectornator:setting key="DynamicGuides" value="1"/>
</metadata>
<defs/>
<g id="Untitled" vectornator:layerName="Untitled">
<path d="M2422.56+915.531C2422.29+915.528+2422.08+915.562+2421.81+915.562C2422.92+915.561+2424.3+915.705+2425.5+915.75C2424.63+915.716+2423.38+915.54+2422.56+915.531ZM2433.66+916.344C2440.39+916.984+2448.1+917.969+2459.12+919.656C2448.16+917.977+2440.38+916.997+2433.66+916.344Z" opacity="1" fill="#6b6b6b"/>
<path d="M1259.96+888.251C1263.99+885.37+1268.03+882.488+1272.06+879.606" opacity="1" fill="#000000"/>
<path d="M1562.5+633.031C1550.49+633.56+1542.88+635.612+1539.66+639.156C1543.29+635.339+1552.3+633.347+1566.19+633.062C1565.06+633.086+1563.56+632.985+1562.5+633.031ZM1539.66+639.156C1539.07+639.796+1538.61+640.481+1538.31+641.219C1538.62+640.482+1539.05+639.792+1539.66+639.156ZM1538.31+641.219C1538.02+641.961+1537.84+642.752+1537.84+643.594C1537.84+642.755+1538.01+641.956+1538.31+641.219ZM1662.97+1172.97C1666.07+1172.87+1668.02+1172.93+1669.59+1173.09C1668.02+1172.94+1666.03+1172.87+1662.97+1172.97ZM1673.34+1174.72C1673.65+1175.34+1673.75+1176.07+1673.75+1177.09C1673.75+1176.08+1673.63+1175.33+1673.34+1174.72Z" opacity="1" fill="#000000"/>
<path d="M1766.84+524.75C1765.1+525.02+1763.4+525.39+1761.62+525.812C1763.38+525.394+1765.12+525.018+1766.84+524.75ZM1758.19+526.656C1756.5+527.137+1754.93+527.661+1753.31+528.219C1754.91+527.668+1756.51+527.132+1758.19+526.656ZM1749.84+529.406C1747.35+530.374+1745.05+531.383+1743.12+532.344C1745.04+531.387+1747.36+530.37+1749.84+529.406Z" opacity="1" fill="#000000"/>
<path d="M1325.59+854C1325.4+863.735+1325.17+872.991+1325.03+883.312L1323.62+991.625L1331.47+1013.28C1345.01+1050.61+1365.9+1088.5+1387.72+1117.09C1387.73+1117.06+1387.74+1117.03+1387.75+1117C1399.71+1070.01+1414.67+1024.2+1418.28+975.469C1418.76+968.955+1419.09+962.133+1419.19+955.219C1407.16+958.365+1397.95+961.32+1395.72+963.281C1388.84+969.336+1384.94+968.778+1384.94+961.781C1384.94+958.546+1387.84+949.135+1391.38+940.844C1397.77+925.825+1397.76+925.731+1393.47+915.375C1391.1+909.657+1388.66+902.209+1388.03+898.844C1387.03+893.516+1386.39+892.908+1402.84+888.812C1401.17+886.531+1399.38+884.315+1397.38+882.219C1385.41+869.712+1369.9+864.466+1353.97+859.688C1345.07+857.019+1335.46+855.309+1325.59+854ZM1345.97+1122.72C1340.22+1122.72+1338.91+1127.44+1342+1140.25C1343.03+1144.52+1344.56+1149.69+1346.56+1155.88C1351.1+1156.08+1355.67+1156.25+1360.25+1156.25C1362.22+1156.25+1370.01+1156.54+1375.66+1156.78C1363.81+1135.42+1353.11+1122.72+1345.97+1122.72ZM1860.44+1140.88C1860.08+1150.58+1859.66+1163.7+1859.47+1164.22C1855.06+1176.24+1841.12+1273.98+1841+1293.72C1840.86+1316.06+1841.12+1317.4+1847.31+1323.47C1863.28+1339.13+1902.88+1348.51+1933.84+1344C1952.98+1341.21+1961.69+1337.66+1976.19+1326.62C1981.69+1322.44+1989.19+1317.72+1992.84+1316.16C2000.26+1312.98+1996.15+1309.7+2030.91+1346.53C2037.54+1353.56+2043.72+1359.04+2050+1363.19C2075.91+1361.41+2104.35+1354.73+2126.19+1342.97C2143.34+1333.73+2158.97+1318.8+2178.06+1313.59C2185.76+1311.49+2195.91+1312.65+2205.81+1313.03C2207.14+1290.83+2204.99+1268.31+2198.19+1245.62C2194.3+1232.67+2188.92+1220.22+2182.53+1208.28C2171.44+1222.77+2152.56+1236.74+2140+1246.16C2135.19+1249.76+2117.61+1261.04+2110.62+1259.97C2106.98+1259.41+2106.55+1253.71+2103.72+1251.34C2099.54+1247.86+2094.74+1245.12+2089.88+1242.69C2077.74+1236.62+2061.5+1232.38+2048.38+1228.88C2018.54+1220.92+1973.94+1220.22+1942.91+1220.22C1924.55+1220.22+1899.39+1222.76+1884.12+1209.84C1866.06+1194.56+1889.85+1155.49+1872.03+1144.16C1868.81+1142.11+1864.81+1141.19+1860.44+1140.88ZM1692.16+1181.19C1659.37+1203.08+1626.46+1224.79+1591.97+1244.03C1585.93+1247.4+1579.64+1250.8+1573.22+1254.16C1573.1+1258.98+1572.91+1263.88+1572.91+1268.62C1572.91+1273.11+1572.22+1279.76+1571.81+1286.38C1578.96+1292.58+1586.28+1298.17+1593.75+1302.94C1624.92+1322.82+1699.05+1352.58+1730.06+1357.66C1750.54+1361.01+1766.94+1356.98+1783.41+1344.53C1799.99+1332+1805.79+1324.12+1805.5+1314.5C1805.3+1307.71+1803.15+1304.49+1793+1295.72C1786.26+1289.89+1780.1+1282.7+1779.31+1279.75C1778.52+1276.79+1779.57+1264.63+1781.62+1252.72C1788+1215.77+1785.19+1190.14+1774.91+1191.59C1772.27+1191.97+1768.91+1194.34+1767.44+1196.84C1765.97+1199.35+1761.23+1206.12+1756.94+1211.88C1744.72+1228.25+1739.28+1242.3+1739.28+1257.41C1739.28+1269.89+1738.82+1270.97+1733.12+1272.31C1728.65+1273.37+1724.35+1272.04+1717.28+1267.44C1697.76+1254.72+1685.88+1232.35+1685.91+1208.41C1685.92+1197.66+1687.92+1188.9+1692.16+1181.19ZM1874.88+1409.44C1871.02+1413.88+1870.35+1414.52+1864.5+1421.28C1848.09+1440.27+1841.3+1449.81+1843+1451.41C1843.53+1451.91+1847.01+1452.45+1852.03+1453C1859.63+1437.68+1868.16+1421.4+1874.88+1409.44ZM1676+1429.06C1681.05+1448.44+1684.3+1468.21+1688.75+1488.22C1689.98+1493.77+1691.37+1499.14+1692.97+1504.34C1713.18+1516.56+1732.55+1524.14+1760.44+1532.88C1773.58+1536.99+1785.25+1540.3+1796.56+1543C1815.47+1533.32+1830.72+1516.63+1837.44+1495.12C1838.82+1490.69+1837.88+1485.75+1839.16+1481.28C1839.87+1478.77+1842.04+1473.77+1844.78+1467.84C1839.1+1466.27+1835.02+1464.53+1832.75+1462.53C1828.31+1458.61+1824.25+1457.94+1805.5+1457.94C1778.65+1457.94+1753.43+1453.62+1717.09+1442.81C1702.77+1438.56+1689.13+1433.94+1676+1429.06ZM1702.06+1524.91C1707.35+1533.26+1714.49+1540.32+1725.06+1545.25C1736.19+1550.44+1740.66+1551.38+1752.72+1552.19C1760.11+1552.68+1767.45+1552.09+1774.59+1550.66C1764.03+1547.29+1753.09+1543.56+1744.28+1540.06C1730.17+1534.46+1712.57+1528.19+1702.06+1524.91Z" opacity="1" fill="#535353"/>
<path d="M2050.09+1609.69C2022.6+1625.85+1995.46+1642.78+1968.84+1660.59C1970.3+1665.9+1972.49+1671.81+1976.03+1680.25C1985.56+1702.99+1985.6+1703.15+1985.34+1733.84C1985.11+1762.67+1984.37+1767.16+1973.97+1804.53C1958.13+1861.47+1956.23+1884.34+1967.31+1884.34C1969.89+1884.34+1981.04+1881.69+1992.12+1878.44C2017.08+1871.12+2037.31+1860.76+2060.19+1843.53C2084.67+1825.1+2105.82+1804.69+2135.41+1767.72C2119.54+1732.06+2103.61+1696.8+2085.62+1662.12C2076.91+1645.31+2065.48+1624.51+2050.09+1609.69ZM1917.25+1714.47C1916.75+1714.58+1916.26+1714.83+1915.78+1715.28C1914.46+1716.52+1914.2+1722.46+1915.19+1729.19C1916.54+1738.41+1917.76+1740.76+1920.91+1740.16C1923.89+1739.59+1924.87+1737+1924.72+1729.91C1924.53+1720.92+1920.76+1713.71+1917.25+1714.47ZM1836.03+1759.12C1809.42+1780.9+1783.45+1803.46+1758.16+1826.72C1760.67+1829.26+1763.09+1831.8+1765.84+1834.41C1778.59+1846.45+1794.21+1859.15+1800.56+1862.59C1816.57+1871.27+1843.4+1879.91+1852.12+1879.22L1859.41+1878.66L1858.88+1863.81C1858.59+1855.66+1853.88+1832.07+1848.41+1811.38C1842.77+1790.06+1838.75+1773.22+1836.03+1759.12Z" opacity="1" fill="#535353"/>
<path d="M2336.91+1479.25C2321.33+1484.28+2305.8+1489.48+2290.44+1495.12C2282.06+1498.2+2273.73+1501.41+2265.41+1504.66C2161.72+1648.94+2161.83+1648.66+2155.75+1646.47C2152.39+1645.26+2152.34+1644.08+2155.47+1635.75C2159.8+1624.22+2179.08+1593.31+2204.47+1557.12C2211.75+1546.76+2220.72+1532.67+2228.78+1519.53C2167.67+1545.34+2107.99+1575.66+2050.09+1609.69C2065.48+1624.51+2076.91+1645.31+2085.62+1662.12C2103.61+1696.8+2119.54+1732.06+2135.41+1767.72C2167.79+1727.25+2210.33+1666.85+2279.66+1565.09C2301.75+1532.67+2320.36+1504.73+2336.91+1479.25Z" opacity="1" fill="#535353"/>
<path d="M1680.81+1520.12C1679.91+1520.13+1679.32+1520.37+1678.59+1520.5C1679.94+1520.26+1681.47+1520.15+1683.44+1520.34C1682.54+1520.25+1681.57+1520.12+1680.81+1520.12ZM1677.78+1520.62C1676.09+1521.09+1674.86+1521.97+1674.19+1523.34C1674.88+1521.98+1676.07+1521.08+1677.78+1520.62ZM1673.44+1526.03C1673.3+1527.49+1673.36+1529.18+1673.66+1531.22C1673.36+1529.19+1673.28+1527.48+1673.44+1526.03Z" opacity="1" fill="#535353"/>
<path d="M1535.44+1343.06C1529.76+1344.51+1524.13+1346.1+1518.56+1347.88C1535.48+1367.26+1556.8+1388.43+1586.97+1416.41C1637.71+1463.46+1665.73+1487.69+1692.03+1503.75C1692.19+1503.41+1692.4+1503.09+1692.56+1502.75C1691.16+1498.03+1689.86+1493.22+1688.75+1488.22C1684.3+1468.21+1681.05+1448.44+1676+1429.06C1631.33+1412.46+1593.57+1392.37+1563.56+1369C1552.21+1360.16+1543.63+1352.56+1535.44+1343.06ZM1490.5+1357.97C1474.9+1364.18+1460.9+1370.48+1447.66+1377.06C1479.64+1433.76+1518.85+1497.31+1569.25+1574.22C1580.28+1591.06+1589.25+1604.61+1597.31+1616.62C1609.52+1606.88+1621.2+1596.62+1632.12+1585.81C1623.83+1570.04+1614.06+1552.19+1604+1534.5C1593.94+1516.81+1583.61+1499.28+1574.19+1484.12C1557.18+1456.77+1526.9+1411.44+1490.5+1357.97ZM1683.44+1520.34C1681.47+1520.15+1679.94+1520.26+1678.59+1520.5C1678.33+1520.55+1678.02+1520.56+1677.78+1520.62C1676.07+1521.08+1674.88+1521.98+1674.19+1523.34C1673.81+1524.11+1673.54+1524.97+1673.44+1526.03C1673.28+1527.48+1673.36+1529.19+1673.66+1531.22C1673.82+1532.32+1673.88+1534.17+1674+1535.69C1677.34+1530.66+1680.47+1525.55+1683.44+1520.34Z" opacity="1" fill="#535353"/>
<path d="M2043.78+1150.75C2034.82+1152.51+2028.75+1166.81+2036.41+1172.78C2038.33+1174.28+2045.59+1176.94+2052.5+1178.66C2059.41+1180.37+2067.71+1184.09+2070.94+1186.94C2078.82+1193.89+2090.17+1216.63+2093.81+1232.75C2095.44+1239.96+2097.63+1245.88+2098.66+1245.88C2099.68+1245.87+2102.88+1243.04+2105.78+1239.59C2116.05+1227.36+2109.49+1201.5+2090.38+1178.81C2082.41+1169.36+2057.78+1153.17+2047.78+1150.81C2046.41+1150.49+2045.06+1150.5+2043.78+1150.75Z" opacity="1" fill="#6b6b6b"/>
<path d="M2168.81+992.625C2169.14+993.119+2169.63+993.706+2170.28+994.438C2169.63+993.711+2169.14+993.12+2168.81+992.625ZM1893.41+1415.25C1889.69+1415.32+1885.96+1415.62+1882.25+1416.06C1886.17+1415.6+1890.11+1415.34+1894.03+1415.28C1893.82+1415.28+1893.62+1415.25+1893.41+1415.25ZM1882.25+1416.06C1878.22+1416.54+1874.21+1417.2+1870.22+1418.06C1874.21+1417.2+1878.22+1416.53+1882.25+1416.06ZM1899.75+1415.5C1901.95+1415.58+1904.15+1415.56+1906.34+1415.78C1904.15+1415.56+1901.95+1415.58+1899.75+1415.5Z" opacity="1" fill="#535353"/>
<path d="M2168.38+991.562C2168.22+991.707+2168.52+992.177+2168.81+992.625C2169.14+993.12+2169.63+993.711+2170.28+994.438C2170.38+994.548+2170.4+994.604+2170.5+994.719C2170.76+995.003+2170.94+995.198+2171.22+995.5C2171.99+996.341+2172.76+997.218+2173.5+998.094C2174.46+999.234+2175.31+1000.33+2175.69+1001.22C2177.65+1005.8+2181.79+1028.83+2182.12+1031.75C2186.08+1066.03+2184.04+1100.34+2185.31+1134.69C2185.52+1140.29+2189.25+1168.69+2185.31+1174.88C2182.72+1178.96+2157.1+1163.39+2154.78+1162C2123.05+1142.96+2094.5+1116.28+2082.41+1080C2075.32+1058.73+2074.8+1035.5+2067.94+1014.06C2065.66+1006.95+2066.12+997.298+2059.91+993.156C2056.07+990.599+2051.79+997.84+2048.66+1001.22C2022.75+1029.12+2002.72+1082.13+1989.16+1117C1977.6+1146.72+1967.93+1175.4+1963.41+1207.03C1962.65+1212.32+1962.09+1216.49+1961.59+1220.38C1990.21+1220.77+2024.03+1222.38+2048.38+1228.88C2061.5+1232.38+2077.74+1236.62+2089.88+1242.69C2094.74+1245.12+2099.54+1247.86+2103.72+1251.34C2106.55+1253.71+2106.98+1259.41+2110.62+1259.97C2117.61+1261.04+2135.19+1249.76+2140+1246.16C2153.7+1235.88+2175.07+1220.2+2185.47+1204.31C2181.76+1201.73+2179.75+1198.86+2179.75+1195.62C2179.75+1190.87+2180.64+1190.22+2191.41+1190.56C2195.17+1172.87+2187.51+1154.77+2204+1142.41C2208.16+1139.28+2218.8+1133.99+2224.72+1137.22C2233.67+1142.1+2237.37+1153.49+2245.47+1159.69C2260.94+1171.52+2279.76+1177.93+2297.34+1185.62C2302.31+1187.8+2310.01+1191.1+2314+1196.34C2321.85+1195.63+2330.44+1194.68+2340.84+1193.38C2380.17+1188.44+2395.29+1184.06+2414.88+1171.81C2433.4+1160.23+2474.59+1125+2485.91+1111.06C2498.5+1095.55+2501.85+1089.16+2508.56+1068C2512.18+1056.6+2513.47+1046.77+2514.34+1020.44C2508.57+1024.93+2502.88+1029.48+2497.28+1034.03C2458.7+1065.38+2424.93+1102.32+2387.94+1135.34C2381.87+1140.76+2363.72+1158.42+2350.94+1154.66C2335.01+1149.97+2340.25+1139.5+2341.31+1128.91C2343.47+1107.35+2347.14+1085.62+2352.56+1064.59C2355.24+1054.21+2358.23+1043.85+2361.41+1033.53C2361.15+1032.94+2360.73+1031.99+2360.59+1031.75C2351.39+1016.1+2344.35+1001.59+2325.22+998C2288.11+991.043+2251.36+1009.25+2214.28+1009.25C2204.26+1009.25+2191.21+1008.49+2182.12+1002.81C2177.29+999.792+2174.78+992.944+2169.25+991.562C2168.78+991.445+2168.49+991.453+2168.38+991.562ZM2043.78+1150.75C2045.06+1150.5+2046.41+1150.49+2047.78+1150.81C2057.78+1153.17+2082.41+1169.36+2090.38+1178.81C2109.49+1201.5+2116.05+1227.36+2105.78+1239.59C2102.88+1243.04+2099.68+1245.87+2098.66+1245.88C2097.63+1245.88+2095.44+1239.96+2093.81+1232.75C2090.17+1216.63+2078.82+1193.89+2070.94+1186.94C2067.71+1184.09+2059.41+1180.37+2052.5+1178.66C2045.59+1176.94+2038.33+1174.28+2036.41+1172.78C2028.75+1166.81+2034.82+1152.51+2043.78+1150.75ZM2470.03+1155.06C2469.47+1154.9+2468.77+1154.94+2467.91+1155.09C2461.75+1156.19+2448.87+1175.43+2444.22+1190.47C2439.23+1206.59+2420.76+1250.25+2402.72+1288.56C2392.43+1310.42+2378.49+1335.5+2361+1363.94C2361.66+1371.68+2361.87+1379.49+2360.59+1387.12C2357.75+1404.19+2345.5+1429.05+2336.47+1443.41C2323.84+1463.5+2307.86+1480.86+2289.78+1495.38C2290+1495.29+2290.22+1495.21+2290.44+1495.12C2305.8+1489.48+2321.33+1484.28+2336.91+1479.25C2395.08+1389.69+2422.99+1336.31+2444.66+1276.66C2457.47+1241.38+2472.15+1180.67+2472.16+1163.03C2472.16+1157.73+2471.71+1155.56+2470.03+1155.06ZM2382.78+1216.22C2377.14+1216.22+2358.39+1242.6+2326.59+1295.25C2325.18+1297.59+2323.97+1299.4+2322.56+1301.72C2333.13+1306.75+2342.28+1313.98+2349+1324.25C2362.74+1305.2+2370.61+1289.64+2376.53+1272.09C2383.38+1251.81+2387.37+1216.22+2382.78+1216.22ZM2304.62+1226.69C2293.08+1239.78+2276.48+1252.56+2269.69+1259.97C2261.18+1269.25+2250.58+1278.76+2243.75+1289.38C2242.76+1290.92+2242.02+1292.64+2241.22+1294.31C2247.14+1293.52+2253.12+1292.89+2259.16+1292.5C2261.88+1289.45+2264.61+1286.57+2267.34+1283.28C2285.81+1261.06+2304.72+1232.74+2304.72+1227.31C2304.72+1227.08+2304.65+1226.9+2304.62+1226.69ZM1894.03+1415.28C1890.11+1415.34+1886.17+1415.6+1882.25+1416.06C1878.22+1416.53+1874.21+1417.2+1870.22+1418.06C1864.41+1428.76+1858.03+1440.89+1852.03+1453C1870.34+1455+1914.07+1457.07+1954.66+1457.59C1975.09+1457.86+1981.95+1457.22+1981.94+1455.09C1981.94+1454.09+1980.9+1451.88+1979.56+1449.47C1961.27+1434.99+1941.7+1422.86+1918.41+1417.69C1914.42+1416.8+1910.39+1416.18+1906.34+1415.78C1904.15+1415.56+1901.95+1415.58+1899.75+1415.5C1897.84+1415.43+1895.94+1415.26+1894.03+1415.28ZM1844.78+1467.84C1842.04+1473.77+1839.87+1478.77+1839.16+1481.28C1837.88+1485.75+1838.82+1490.69+1837.44+1495.12C1830.72+1516.63+1815.47+1533.32+1796.56+1543C1832.11+1551.5+1863.85+1553.72+1924.56+1553.72C1975.14+1553.72+1975.19+1553.71+1982.47+1559.47C1988.34+1564.11+1991.33+1564.95+1997.97+1563.78C2003.3+1562.84+2006.22+1563.21+2006.22+1564.84C2006.22+1566.23+1999.52+1575.83+1991.31+1586.19C1970.65+1612.27+1966.3+1621.92+1966.41+1641.5C1966.44+1648.67+1967.08+1654.15+1968.84+1660.59C2036.4+1615.38+2106.98+1575.37+2179.72+1541.44C2140.3+1545.75+2099.66+1538.62+2063.12+1517.38C2042.21+1505.21+2023.82+1488.11+2005.19+1471.34C2001.5+1471.95+1997.73+1472.48+1994.28+1473.09C1962.31+1478.81+1960.87+1478.88+1916.62+1476.25C1880.52+1474.11+1857.87+1471.47+1844.78+1467.84ZM1774.59+1550.66C1768.85+1551.81+1762.96+1552.25+1757.03+1552.19C1758.1+1606.15+1795.19+1653.11+1843.66+1678.47C1845.31+1674.83+1846.8+1671.29+1848.56+1667.72C1859.41+1645.78+1860.59+1641.85+1860.5+1627.62C1860.38+1609.49+1855.43+1594.81+1844.59+1580.47C1835.64+1568.62+1827.52+1564.68+1796.06+1557C1790.46+1555.63+1782.54+1553.19+1774.59+1550.66Z" opacity="1" fill="#181818"/>
<path d="M2056.44+993.25C2055.79+993.582+2055.14+994.04+2054.5+994.625C2055.14+994.038+2055.79+993.585+2056.44+993.25ZM2053.72+995.312C2051.88+997.198+2050.15+999.612+2048.66+1001.22C2050.14+999.625+2051.9+997.191+2053.72+995.312Z" opacity="1" fill="#6b6b6b"/>
<path d="M2297.59+733.75C2286.19+739.042+2275.45+747.342+2267.34+754.25C2246.87+771.692+2228.98+793.33+2209.84+813.312C2217.44+812.261+2225.4+811.48+2233.5+811C2257.79+809.56+2283.38+810.762+2304.72+814.969C2310.5+816.108+2316.19+817.552+2321.81+819.156C2323.77+814.58+2325.36+809.989+2325+805.25C2323.67+787.94+2319.03+796.575+2309.47+787.969C2302.05+781.294+2300.33+771.268+2299.09+762.031C2297.85+752.669+2297.57+743.211+2297.59+733.75ZM2413.91+853.031C2410.99+853.429+2407.63+856.417+2404.56+857.125C2401.34+857.868+2398+858.026+2394.78+858.75C2397.82+861.752+2400.59+864.83+2403+867.969C2406.18+872.117+2408.67+875.18+2411+877.625C2411.09+877.291+2411.22+877.349+2411.28+877.906C2412.58+879.239+2413.85+880.376+2415.16+881.344C2416.01+878.398+2417.05+874.139+2418.38+867.5C2419.29+862.944+2420.37+856.444+2416.66+853.656C2415.82+853.027+2414.88+852.899+2413.91+853.031ZM2073.06+859.75C2045.43+922.067+2012.24+981.965+1976.28+1039.81C1949.5+1082.9+1920.04+1122.49+1875.28+1147.16C1886.49+1161.2+1867.4+1195.7+1884.12+1209.84C1899.39+1222.76+1924.55+1220.22+1942.91+1220.22C1948.62+1220.22+1955.14+1220.29+1961.59+1220.38C1962.09+1216.49+1962.65+1212.32+1963.41+1207.03C1967.93+1175.4+1977.6+1146.72+1989.16+1117C2002.72+1082.13+2022.75+1029.12+2048.66+1001.22C2050.15+999.612+2051.88+997.198+2053.72+995.312C2053.98+995.04+2054.23+994.869+2054.5+994.625C2055.14+994.04+2055.79+993.582+2056.44+993.25C2057.11+992.904+2057.77+992.57+2058.44+992.625C2058.93+992.665+2059.43+992.837+2059.91+993.156C2066.12+997.298+2065.66+1006.95+2067.94+1014.06C2074.8+1035.5+2075.32+1058.73+2082.41+1080C2092.87+1111.4+2115.7+1135.59+2142.22+1153.88C2155.88+1142.27+2170.27+1131.12+2185.06+1120.59C2184.6+1090.96+2185.54+1061.34+2182.12+1031.75C2181.79+1028.83+2177.65+1005.8+2175.69+1001.22C2175.31+1000.33+2174.47+999.239+2173.5+998.094C2172.76+997.218+2171.99+996.341+2171.22+995.5C2170.94+995.198+2170.76+995.003+2170.5+994.719C2170.4+994.604+2170.38+994.548+2170.28+994.438C2169.63+993.706+2169.14+993.118+2168.81+992.625C2168.5+992.163+2168.22+991.71+2168.38+991.562C2168.49+991.453+2168.78+991.445+2169.25+991.562C2174.78+992.944+2177.29+999.792+2182.12+1002.81C2191.21+1008.49+2204.26+1009.25+2214.28+1009.25C2251.36+1009.25+2288.11+991.043+2325.22+998C2343.44+1001.42+2350.71+1014.81+2359.31+1029.59C2360.63+1028.97+2361.96+1028.36+2363.28+1027.75C2371.27+1002.54+2380.59+977.641+2391.16+953.625C2396.63+941.188+2402.64+929.066+2408.66+916.938C2406.07+917.472+2403.45+918.136+2400.56+919.031C2390.32+922.209+2370.26+923.097+2271.97+924.562C2207.9+925.518+2146.19+927.008+2134.84+927.875C2131.27+928.149+2127.98+928.339+2124.94+928.438C2103.63+929.127+2094.11+925.155+2078.62+911.281C2070.83+904.295+2064.47+897.382+2064.47+895.906C2064.47+889.947+2079.5+872.625+2090.44+866C2092.72+864.615+2095.42+863.089+2097.84+861.656C2089.62+861.007+2081.33+860.4+2073.06+859.75ZM1676.38+1531.84C1675.56+1533.11+1674.84+1534.43+1674+1535.69C1674.15+1537.7+1674.11+1541.52+1674.19+1544.22C1674.79+1540.06+1675.58+1535.95+1676.38+1531.84ZM1632.12+1585.81C1621.2+1596.62+1609.52+1606.88+1597.31+1616.62C1599.86+1620.41+1601.75+1623.1+1604.06+1626.5C1615.88+1618.81+1627.09+1611.03+1637+1604.22C1638.14+1603.44+1639.22+1602.59+1640.34+1601.78C1637.75+1596.67+1635.11+1591.5+1632.12+1585.81Z" opacity="1" fill="#a9a9a9"/>
<path d="M1772.53+284.375C1607.75+299.189+1496.77+329.528+1438.69+375.812C1405.62+402.163+1384.26+439.772+1367.06+503.562C1395.72+507.398+1424.89+506.152+1451.88+516.531C1457.57+518.722+1463.35+521.914+1469.12+525.625C1507.59+492.867+1546.39+460.521+1585.53+428.75C1652.42+374.449+1650.13+374.854+1715.78+325.844C1734.52+311.857+1753.46+298.034+1772.53+284.375ZM1981.75+365.625C1961.19+388.295+1940.71+411.038+1920+433.562C1879.87+477.216+1839.44+520.541+1798.78+563.656C1799.49+573.522+1799.24+582.936+1799.41+588.625C1799.94+606.814+1799.55+624.946+1799.03+643.094C1801.17+644.894+1803.4+646.538+1805.5+648.406C1835.54+675.126+1845.4+695.968+1838.81+718.938C1833.29+738.209+1818.71+745.646+1799.97+739.531C1801.21+744.303+1803.01+748.775+1805.81+752.625C1810.67+759.308+1818.5+761.248+1826.28+760.688C1827.84+760.575+1829.38+760.355+1830.91+760.062C1833.97+759.477+1836.93+758.56+1839.59+757.469C1871.69+744.338+1901.83+722.512+1931.25+704.406C1941.9+697.854+1951.92+690.019+1963.41+685.094C1964.9+684.452+1966.79+683.451+1968.56+682.906C1970.33+682.362+1971.99+682.273+1973.06+683.5C1981.2+692.797+1967.73+713.807+1965.03+718.875C1950.03+747.011+1931.62+773.341+1918.38+802.469C1913.19+813.866+1895.88+850.705+1915.19+858.75C1933.8+866.504+1984.41+857.85+2005.22+857.156C2036+856.13+2067.13+859.23+2097.84+861.656C2126.36+844.794+2162.78+825.423+2173.84+821.438C2183.86+817.828+2196.36+815.178+2209.84+813.312C2228.98+793.33+2246.87+771.692+2267.34+754.25C2275.45+747.342+2286.19+739.042+2297.59+733.75C2297.66+706.826+2300.39+679.838+2291.84+654.688C2283.04+659.434+2268.27+664.273+2245.09+670.188C2215.23+677.81+2208.19+681.131+2184.25+698.969C2132.78+737.315+2051.68+807.635+2029.88+832.812C2025.8+837.52+2013.85+839.571+2010.25+836.188C2007.04+833.172+2008.72+810+2012.66+802.812C2029.51+772.049+2061.63+738.923+2114.22+698.062C2175.01+650.826+2218.74+632.469+2270.59+632.469C2274.6+632.469+2277.81+632.707+2281.03+632.938C2278.73+629.417+2276.27+625.591+2273.28+622.25C2210.31+626.254+2163.82+647.794+2083.88+708.781C2038.83+743.147+2029.71+747.12+2016.19+738.219C2002.03+728.899+1997.09+700.281+2006.41+681.656C2011.98+670.521+2041.48+642.821+2064.41+626.438C2063.3+625.49+2062.03+624.572+2060.47+623.719C2048.64+617.267+2014.55+618.531+2001.69+618.531C1966.5+618.531+1926.96+620.917+1894.5+604.688C1876.46+595.669+1848.88+577.14+1856.47+552.844C1863.16+531.416+1882.86+548.925+1903.16+547.656C1946.56+544.944+1989.53+521.639+2029.34+506.156C2039.18+502.33+2059.04+496.353+2062.22+483.656C2064.01+476.497+2051.02+464.023+2048.38+461.188C2037.75+449.805+2029.47+440.988+2020.72+428.344C2006.87+408.335+1997.7+384.171+1981.75+365.625ZM2413.69+916.062C2412+916.278+2410.33+916.592+2408.66+916.938C2402.64+929.067+2396.63+941.188+2391.16+953.625C2375.46+989.292+2362.3+1026.86+2352.56+1064.59C2347.14+1085.62+2343.47+1107.35+2341.31+1128.91C2340.25+1139.5+2335.01+1149.97+2350.94+1154.66C2363.72+1158.42+2381.87+1140.76+2387.94+1135.34C2424.93+1102.32+2458.7+1065.38+2497.28+1034.03C2502.88+1029.48+2508.57+1024.93+2514.34+1020.44C2514.52+1015.18+2514.69+1010.3+2514.84+1003.47C2513.22+1004.83+2511.58+1006.27+2510+1007.56C2484.95+1028.05+2454.64+1044.66+2423.56+1054.22C2369.36+1070.9+2430.47+1023.51+2430.47+1000.62C2430.47+987.609+2422.59+978.532+2420.09+966.062C2417.45+952.82+2420.14+939.326+2416.66+926.281C2415.66+922.544+2414.71+919.39+2413.69+916.062Z" opacity="1" fill="#a9a9a9"/>
<path d="M2301.5+621.625C2305.42+621.713+2309.19+621.925+2312.88+622.188C2309.68+621.962+2306.49+621.716+2303.12+621.625C2302.61+621.611+2302.02+621.636+2301.5+621.625ZM2316+622.344C2320.66+622.747+2325.12+623.342+2329.47+624.062C2325.12+623.342+2320.66+622.744+2316+622.344ZM2332.28+624.625C2335.68+625.254+2339.03+625.936+2342.28+626.781C2339.03+625.937+2335.67+625.253+2332.28+624.625ZM2346.03+627.875C2348.81+628.683+2351.57+629.548+2354.28+630.531C2351.57+629.547+2348.81+628.684+2346.03+627.875ZM2358.66+632.219C2361.14+633.22+2363.61+634.339+2366.06+635.5C2363.61+634.337+2361.14+633.221+2358.66+632.219ZM2370.66+637.719C2373.03+638.946+2375.41+640.299+2377.78+641.688C2375.41+640.301+2373.02+638.945+2370.66+637.719ZM2382.12+644.219C2385.95+646.606+2389.78+649.17+2393.69+652C2389.78+649.174+2385.94+646.605+2382.12+644.219Z" opacity="1" fill="#6b6b6b"/>
<path d="M2340.31+338.219C2346+356.998+2360.53+371.693+2370.25+390.156C2393.6+434.529+2397.39+486.002+2352.56+517.188C2338.34+527.08+2321.58+535.755+2305.94+542.906C2275.64+556.758+2274.29+556.52+2241.59+565.438C2238.25+566.349+2236.11+566.908+2233.25+567.688C2238.79+567.469+2244.33+567.268+2249.81+567.406C2268.89+567.889+2287.58+570.549+2305.66+575.406C2344.83+585.931+2386.82+613.088+2414+644.906C2420.75+642.269+2430.09+638.839+2432.97+641C2435.97+643.251+2434.16+648.69+2432.97+652.25C2431.97+655.238+2429.74+658.626+2427.22+662.094C2433.17+670.892+2437.96+679.356+2439.59+684.125C2440.14+685.715+2440.32+686.884+2440.09+687.531C2439.72+688.576+2430.61+681.687+2419.59+672.531C2417.11+676.025+2414.82+679.504+2413.66+682.812C2412.63+685.724+2403.21+709.565+2421.72+703.719C2442.99+697.003+2478.3+646.309+2495.69+629.75C2497.45+628.068+2499.32+626.466+2501.12+624.812C2499.83+613.937+2498.43+603.345+2496.91+593.062C2486.27+521.082+2470.07+463.855+2448.78+424.375C2429.05+387.786+2394.97+360.199+2340.31+338.219ZM2151.03+583.469C2118.06+587.2+2085.11+588.206+2051.88+589.562C1994.31+591.912+1936.76+594.101+1879.19+595.688C1884.41+599.281+1889.78+602.328+1894.5+604.688C1926.96+620.917+1966.5+618.531+2001.69+618.531C2014.55+618.531+2048.64+617.267+2060.47+623.719C2062.03+624.572+2063.3+625.49+2064.41+626.438C2067.5+624.23+2070.47+622.196+2073.25+620.469C2098.92+604.498+2125.01+592.285+2151.03+583.469ZM2301.5+621.625C2295.58+621.498+2289.44+621.517+2282.88+621.75C2279.62+621.865+2276.45+622.049+2273.28+622.25C2276.27+625.59+2278.73+629.417+2281.03+632.938C2284.57+633.191+2287.66+633.568+2290.31+634.094C2298.28+635.672+2302.28+638.52+2302.28+642.812C2302.28+647.023+2299+650.828+2291.84+654.688C2292.63+656.998+2293.32+659.341+2293.91+661.688C2294.5+664.034+2294.99+666.383+2295.44+668.75C2304.82+668.983+2314.23+668.865+2323.62+668.344C2347.71+667.006+2370.87+659.664+2393.69+652C2389.78+649.17+2385.95+646.606+2382.12+644.219C2380.67+643.312+2379.23+642.533+2377.78+641.688C2375.41+640.299+2373.03+638.946+2370.66+637.719C2369.13+636.929+2367.59+636.225+2366.06+635.5C2363.61+634.339+2361.14+633.22+2358.66+632.219C2357.2+631.633+2355.75+631.064+2354.28+630.531C2351.57+629.548+2348.81+628.683+2346.03+627.875C2344.78+627.511+2343.55+627.111+2342.28+626.781C2339.03+625.936+2335.68+625.254+2332.28+624.625C2331.34+624.45+2330.43+624.221+2329.47+624.062C2325.12+623.342+2320.66+622.747+2316+622.344C2314.99+622.257+2313.9+622.26+2312.88+622.188C2309.19+621.925+2305.42+621.713+2301.5+621.625Z" opacity="1" fill="#6b6b6b"/>
<path d="M1928.88+275.719C1916.5+275.836+1904.26+276.157+1892.16+276.656C1865.02+277.775+1839.1+279.242+1814.19+281C1820.88+283.327+1827.33+285.221+1832.25+286.562C1885.66+301.128+1940.46+321.093+1979.22+362.625C1987.9+371.926+1994.54+382.919+2000.81+394.188C2015.56+348.167+2052.22+313.38+2093.31+284.594C2037.06+278.233+1981.81+275.218+1928.88+275.719ZM2044.66+499.875C2039.09+502.483+2033.38+504.587+2029.34+506.156C1989.53+521.639+1946.56+544.944+1903.16+547.656C1882.86+548.925+1863.17+531.416+1856.47+552.844C1850.86+570.784+1864.44+585.543+1879.19+595.688C1936.76+594.101+1994.31+591.912+2051.88+589.562C2085.11+588.206+2118.06+587.2+2151.03+583.469C2175.82+575.071+2200.49+570.093+2224.75+568.344C2222.68+567.297+2221.5+566.64+2219.09+565.438C2208.58+560.18+2197.8+555.471+2186.94+550.969C2178.93+547.648+2132.13+530.184+2122.62+526.844C2104.07+520.325+2084.81+515.926+2066.34+509.156C2059.1+506.501+2051.77+503.362+2044.66+499.875ZM2337.19+666.938C2332.7+667.581+2328.18+668.091+2323.62+668.344C2314.23+668.865+2304.82+668.983+2295.44+668.75C2301.12+698.832+2294.95+730.924+2299.09+762.031C2299.24+763.145+2299.45+764.277+2299.62+765.406C2309.92+756.713+2318.33+747.901+2326.84+735.875C2345.47+709.586+2346.06+686.999+2337.19+666.938ZM2511.28+926.5C2499.22+938.305+2484.88+948.539+2466.72+956.188C2449.69+963.358+2434.03+962.396+2419.09+957.375C2419.28+960.276+2419.52+963.178+2420.09+966.062C2422.59+978.532+2430.47+987.609+2430.47+1000.62C2430.47+1023.51+2369.36+1070.9+2423.56+1054.22C2454.64+1044.66+2484.95+1028.05+2510+1007.56C2511.58+1006.27+2513.22+1004.83+2514.84+1003.47C2514.96+998.515+2515.07+994.954+2515.19+988.969L2516.41+927.031L2511.28+926.5Z" opacity="1" fill="#a9a9a9"/>
<path d="M1556.12+621.469C1550.31+621.374+1544.35+621.391+1538.09+621.625C1489.56+623.438+1466.44+633.305+1428.69+668.219C1416.03+679.92+1404.84+689.469+1403.81+689.469C1397.06+689.469+1410.59+664.331+1429+642.688C1430.9+640.448+1433.04+638.28+1435.12+636.094C1414.41+649.699+1395.78+667.026+1378.78+684.375C1358.84+704.731+1342.04+723.921+1329.69+747.969C1329.3+754.271+1328.93+760.623+1328.59+767.156L1365.59+779.156C1365.59+779.282+1365.57+779.406+1365.56+779.531C1365.04+794.746+1364.68+803.3+1369.53+817.844C1373.26+829.038+1380.87+841.64+1388.03+850.906C1399.68+865.977+1414.95+873.201+1431.84+875.812C1432.18+875.426+1432.52+875.097+1432.84+874.688C1444.57+859.887+1463.45+843.451+1477.25+836.031C1507.41+819.819+1548.9+811.328+1593.69+811.938C1600.09+812.024+1606.55+812.287+1613.06+812.75C1643.82+814.936+1662.32+820.134+1694.38+835.562C1748.92+861.816+1771.41+876.968+1774.88+889.812C1778.23+902.266+1761.69+919.597+1740.81+925.5C1724.8+930.027+1685.1+932.991+1588.09+936.875C1586.59+940.363+1585.06+943.821+1583.62+947.344C1575.05+968.398+1564.4+992.025+1561.16+1014.75C1557.97+1037.08+1571.15+1056.5+1565.12+1078.19C1561.34+1091.8+1552.09+1110.43+1551.28+1126.97C1555.37+1135.33+1559.01+1143.91+1562.19+1152.69C1578.99+1164.02+1608.41+1151.69+1624.56+1145.56C1644.1+1138.15+1662.5+1129.25+1681.41+1120.47C1713.94+1105.37+1748.19+1090.97+1775.25+1068C1779.74+1044.57+1784.29+1017.48+1786.84+997.312C1787.39+992.986+1787.89+987.625+1788.34+981.5C1777.9+982.371+1769.17+979.948+1766.56+969.5C1764.59+961.631+1773.2+934.981+1775.19+928.031C1780.21+910.468+1785.21+893.102+1790.97+876L1791.09+852.594C1770.92+840.031+1743.16+842.562+1731.62+817.844C1727.02+807.98+1725.6+796.606+1725.16+785.156C1710.97+787.257+1696.66+788.27+1681.84+786.25C1620.09+777.829+1632.11+723.903+1627.09+679.406C1614.52+673.257+1602.35+669.361+1587.97+666.469C1553.7+659.575+1537.84+652.336+1537.84+643.594C1537.84+642.752+1538.02+641.962+1538.31+641.219C1538.61+640.481+1539.07+639.796+1539.66+639.156C1542.88+635.612+1550.5+633.56+1562.5+633.031C1563.56+632.985+1565.06+633.086+1566.19+633.062C1564.66+631.403+1563.11+629.689+1560.81+627.188C1559.14+625.365+1557.61+623.422+1556.12+621.469Z" opacity="1" fill="#acacac"/>
<path d="M1353.31+579.656C1352.14+579.691+1351.22+579.761+1350.12+579.812C1351.97+579.726+1353.97+579.679+1356+579.656C1355.1+579.664+1354.18+579.631+1353.31+579.656ZM1357.88+579.656C1359.49+579.668+1361.13+579.762+1362.75+579.875C1361.11+579.756+1359.51+579.671+1357.88+579.656ZM1365.16+580.062C1366.68+580.233+1368.1+580.558+1369.53+580.875C1368.1+580.555+1366.68+580.237+1365.16+580.062ZM1372.22+581.469C1372.38+581.52+1372.53+581.571+1372.69+581.625C1372.53+581.571+1372.38+581.52+1372.22+581.469Z" opacity="1" fill="#acacac"/>
<path d="M1367.06+503.562C1364.55+512.901+1362.11+522.772+1359.75+533.281C1356.19+549.133+1353.03+564.54+1350.12+579.812C1351.22+579.761+1352.14+579.691+1353.31+579.656C1354.18+579.631+1355.1+579.664+1356+579.656C1356.63+579.649+1357.23+579.652+1357.88+579.656C1359.51+579.671+1361.11+579.756+1362.75+579.875C1363.56+579.932+1364.36+579.973+1365.16+580.062C1366.68+580.237+1368.1+580.555+1369.53+580.875C1370.43+581.075+1371.37+581.198+1372.22+581.469C1372.38+581.52+1372.53+581.571+1372.69+581.625C1374.45+582.228+1376.09+582.982+1377.47+583.969C1396.85+597.813+1392.02+620.298+1403.91+638.125C1407.09+642.897+1411.51+646.574+1416.16+650.062C1422.3+645.138+1428.58+640.392+1435.12+636.094C1459.07+610.948+1493.99+589.624+1526.59+580.406C1506.06+555.108+1478.07+526.607+1451.88+516.531C1424.89+506.152+1395.72+507.398+1367.06+503.562ZM1812.09+771.969C1817.36+777.859+1821.79+783.655+1825.72+789.531C1826.08+784.251+1825.12+779.485+1821.88+775.875C1819.81+773.576+1816.22+772.476+1812.09+771.969ZM1753.72+779.906C1744.21+781.901+1734.71+783.741+1725.16+785.156C1725.6+796.606+1727.02+807.98+1731.62+817.844C1743.16+842.562+1770.92+840.03+1791.09+852.594L1791.12+845.531L1771.88+810.531C1763.52+795.344+1758.41+786.458+1753.72+779.906ZM1365.41+794.094C1359.92+795.802+1353.79+798.136+1347.28+800.75C1340.77+803.364+1333.88+806.259+1326.81+809.031C1326.32+823.355+1325.91+838.277+1325.59+854C1335.46+855.309+1345.07+857.019+1353.97+859.688C1362.96+862.385+1371.8+865.281+1379.97+869.5C1382.92+863.614+1385.83+857.703+1388.84+851.844C1388.58+851.516+1388.29+851.242+1388.03+850.906C1380.87+841.64+1373.26+829.038+1369.53+817.844C1366.46+808.622+1365.58+801.724+1365.41+794.094ZM1586.84+939.844C1553.67+951.725+1524.78+974.486+1493.75+990.969C1488.8+993.601+1472.3+1005.04+1463.34+1000.22C1452.47+994.365+1460.55+974.323+1463.34+967.188C1465.63+961.346+1470.64+952.847+1475.75+943.531C1475.65+943.547+1475.31+943.579+1475.22+943.594C1454.59+946.909+1434.43+951.232+1419.19+955.219C1419.09+962.133+1418.76+968.955+1418.28+975.469C1414.67+1024.2+1399.71+1070.01+1387.75+1117C1387.74+1117.03+1387.73+1117.06+1387.72+1117.09C1397.01+1129.26+1406.46+1139.9+1415.59+1147.84C1416.56+1148.68+1417.66+1149.51+1418.69+1150.34C1418.84+1148.3+1418.66+1146.11+1419.03+1144.16C1420.11+1138.38+1421.42+1132.62+1422.5+1126.84C1424.78+1114.71+1429.73+1101.23+1427.66+1088.81C1425.22+1074.16+1417.72+1068.74+1422.5+1052.5C1426.6+1038.57+1433+1035.07+1443.22+1024.84C1452.85+1015.22+1463.73+995.757+1479.53+1005.81C1491.55+1013.46+1503.37+1043.48+1510.66+1055.97C1524.54+1079.77+1539.43+1102.7+1551.28+1126.97C1552.09+1110.43+1561.34+1091.8+1565.12+1078.19C1571.15+1056.5+1557.97+1037.08+1561.16+1014.75C1564.4+992.025+1575.05+968.398+1583.62+947.344C1584.65+944.818+1585.76+942.338+1586.84+939.844ZM1775.25+1068C1773.86+1069.18+1772.37+1070.24+1770.94+1071.38C1771.47+1071.85+1772.13+1072.55+1772.59+1072.91C1772.7+1072.99+1773.79+1073.58+1774.06+1073.75C1774.47+1071.68+1774.84+1070.14+1775.25+1068ZM1767.25+1104.66C1742.99+1120.09+1720.31+1136.9+1691.97+1144.25C1681.6+1146.94+1660.44+1151.66+1652.31+1140.28C1651.2+1138.73+1650.59+1136.89+1650.34+1134.81C1641.88+1138.6+1633.34+1142.23+1624.56+1145.56C1608.41+1151.69+1578.99+1164.02+1562.19+1152.69C1565.39+1161.51+1568.19+1170.51+1570.12+1179.94C1576.91+1179.48+1583.92+1179.09+1590.03+1178.47C1608.72+1176.57+1635.19+1174.42+1648.88+1173.66C1654.92+1173.32+1659.5+1173.08+1662.97+1172.97C1666.03+1172.87+1668.02+1172.94+1669.59+1173.09C1670.66+1173.2+1671.69+1173.34+1672.25+1173.59C1672.83+1173.86+1673.13+1174.27+1673.34+1174.72C1673.63+1175.33+1673.75+1176.08+1673.75+1177.09C1673.75+1184.08+1665.85+1187.8+1639.78+1193.09C1605.59+1200.04+1588.9+1202.89+1573.25+1204.12C1574.33+1220.57+1573.63+1237.49+1573.22+1254.16C1579.64+1250.8+1585.93+1247.4+1591.97+1244.03C1626.46+1224.79+1659.37+1203.08+1692.16+1181.19C1698+1170.57+1708.24+1162+1724.69+1153.53C1745.08+1143.03+1759.08+1129.24+1764.75+1114.06C1765.38+1112.36+1766.4+1107.95+1767.25+1104.66ZM2219.59+1136.22C2213.9+1136.49+2207.12+1140.06+2204+1142.41C2187.51+1154.77+2195.17+1172.87+2191.41+1190.56C2193.12+1190.62+2194.44+1190.62+2196.72+1190.72C2206.06+1191.11+2226.98+1192.88+2243.22+1194.69C2273.03+1198+2288.92+1198.63+2314+1196.34C2310.01+1191.1+2302.31+1187.8+2297.34+1185.62C2279.76+1177.93+2260.94+1171.52+2245.47+1159.69C2237.37+1153.49+2233.67+1142.1+2224.72+1137.22C2223.24+1136.41+2221.49+1136.13+2219.59+1136.22ZM2185.47+1204.31C2184.6+1205.64+2183.54+1206.96+2182.53+1208.28C2188.92+1220.22+2194.3+1232.67+2198.19+1245.62C2204.99+1268.31+2207.14+1290.83+2205.81+1313.03C2217.25+1313.47+2228.38+1312.87+2235.09+1304.94C2238.93+1300.41+2240.54+1294.37+2243.75+1289.38C2250.58+1278.76+2261.18+1269.25+2269.69+1259.97C2276.48+1252.56+2293.08+1239.78+2304.62+1226.69C2304.25+1223.01+2299.56+1222.4+2252.56+1218.47C2216.59+1215.46+2194.93+1210.9+2185.47+1204.31Z" opacity="1" fill="#181818"/>
<path d="M1356+579.656C1353.97+579.679+1351.97+579.726+1350.12+579.812C1339.9+633.602+1333.5+685.561+1329.69+747.969C1342.04+723.921+1358.84+704.731+1378.78+684.375C1390.41+672.507+1402.86+660.725+1416.16+650.062C1411.51+646.574+1407.09+642.897+1403.91+638.125C1392.02+620.298+1396.85+597.813+1377.47+583.969C1376.1+582.988+1374.45+582.229+1372.69+581.625C1372.53+581.571+1372.38+581.52+1372.22+581.469C1371.38+581.2+1370.43+581.076+1369.53+580.875C1368.1+580.558+1366.68+580.233+1365.16+580.062C1364.36+579.972+1363.55+579.933+1362.75+579.875C1361.13+579.762+1359.49+579.668+1357.88+579.656C1357.24+579.65+1356.62+579.651+1356+579.656ZM1328.59+767.156C1327.91+780.602+1327.32+794.509+1326.81+809.031C1340.96+803.487+1354.43+797.511+1365.41+794.094C1365.31+789.69+1365.37+785.099+1365.56+779.531C1365.57+779.406+1365.59+779.282+1365.59+779.156L1328.59+767.156ZM1388.84+851.844C1385.83+857.703+1382.92+863.614+1379.97+869.5C1386.26+872.753+1392.17+876.774+1397.38+882.219C1399.38+884.315+1401.17+886.531+1402.84+888.812C1406.78+887.833+1410.8+886.868+1417.06+885.344C1422.68+883.978+1427.58+880.772+1431.84+875.812C1415.33+873.259+1400.39+866.238+1388.84+851.844ZM1588.09+936.875C1586.69+936.931+1585.84+936.974+1584.41+937.031C1535.07+938.987+1486.63+941.873+1475.75+943.531C1470.64+952.847+1465.63+961.346+1463.34+967.188C1460.55+974.323+1452.47+994.365+1463.34+1000.22C1472.3+1005.04+1488.8+993.601+1493.75+990.969C1524.78+974.486+1553.67+951.725+1586.84+939.844C1587.27+938.859+1587.67+937.862+1588.09+936.875ZM1770.94+1071.38C1744.59+1092.35+1712.26+1106.14+1681.41+1120.47C1671+1125.3+1660.72+1130.14+1650.34+1134.78C1650.34+1134.79+1650.34+1134.8+1650.34+1134.81C1650.59+1136.89+1651.2+1138.73+1652.31+1140.28C1660.44+1151.66+1681.6+1146.94+1691.97+1144.25C1720.31+1136.9+1742.99+1120.09+1767.25+1104.66C1769.23+1097+1771.5+1086.77+1774.06+1073.75C1773.79+1073.58+1772.7+1072.99+1772.59+1072.91C1772.13+1072.55+1771.47+1071.85+1770.94+1071.38Z" opacity="1" fill="#acacac"/>
<path d="M1772.91+524.094C1771+524.131+1768.91+524.429+1766.84+524.75C1765.12+525.018+1763.38+525.394+1761.62+525.812C1760.47+526.088+1759.33+526.331+1758.19+526.656C1756.51+527.132+1754.91+527.668+1753.31+528.219C1752.15+528.62+1750.93+528.983+1749.84+529.406C1747.36+530.37+1745.04+531.387+1743.12+532.344C1718.02+544.896+1694.54+562.382+1672.25+580.406C1720.42+591.5+1762.52+612.368+1799.03+643.094C1799.55+624.946+1799.94+606.814+1799.41+588.625C1798.93+572.62+1801.96+527.416+1776.88+524.281C1775.62+524.125+1774.3+524.066+1772.91+524.094ZM1613.81+629.562C1611.37+631.678+1608.91+633.719+1606.47+635.844C1650.74+642.808+1685.96+663.688+1754.44+719.844C1782.13+742.555+1799.49+757.882+1812.09+771.969C1816.22+772.476+1819.81+773.576+1821.88+775.875C1825.12+779.485+1826.08+784.251+1825.72+789.531C1832.12+799.097+1837.39+809.154+1842.91+821.75C1847.03+831.156+1852.63+847.559+1855.38+858.219C1865.12+896.123+1865.9+914.269+1863.16+1041.47C1862.34+1079.39+1861.58+1103.78+1860.88+1124.78C1868.47+1119.94+1876.4+1115.13+1882.25+1112.53C1885.18+1111.23+1888.63+1108.47+1891.5+1109.91C1903.03+1115.67+1887.35+1134.52+1886.22+1136.31C1884.73+1138.66+1883.11+1140.92+1881.59+1143.25C1922.76+1118.43+1950.81+1080.79+1976.28+1039.81C2012.24+981.965+2045.43+922.067+2073.06+859.75C2065.89+859.186+2058.75+858.566+2051.56+858.125C2036.09+857.175+2020.61+856.643+2005.22+857.156C1984.41+857.85+1933.8+866.504+1915.19+858.75C1895.88+850.705+1913.2+813.866+1918.38+802.469C1931.62+773.341+1950.02+747.011+1965.03+718.875C1967.73+713.807+1981.2+692.797+1973.06+683.5C1971.99+682.273+1970.33+682.362+1968.56+682.906C1966.79+683.451+1964.9+684.452+1963.41+685.094C1951.92+690.019+1941.9+697.855+1931.25+704.406C1901.83+722.512+1871.69+744.338+1839.59+757.469C1836.93+758.56+1833.97+759.476+1830.91+760.062C1829.38+760.355+1827.84+760.575+1826.28+760.688C1818.5+761.248+1810.67+759.309+1805.81+752.625C1803.01+748.775+1801.21+744.303+1799.97+739.531C1797.69+738.786+1795.37+737.934+1792.97+736.781C1787.14+733.977+1769.14+720.011+1752.97+705.75C1717.95+674.867+1703.63+665.392+1667.91+649.5C1647.57+640.455+1630.27+634.033+1613.81+629.562ZM1627.09+679.406C1632.11+723.903+1620.09+777.829+1681.84+786.25C1706.63+789.63+1730.11+784.862+1753.72+779.906C1748.73+772.938+1744.23+768.626+1737.06+762.719C1728.52+755.678+1708.89+739.304+1693.41+726.344C1664.77+702.368+1645.48+688.4+1627.09+679.406ZM1790.97+876C1785.21+893.102+1780.21+910.468+1775.19+928.031C1773.2+934.981+1764.59+961.631+1766.56+969.5C1769.17+979.948+1777.91+982.371+1788.34+981.5C1789.74+962.594+1790.65+936.039+1790.81+907.156L1790.97+876ZM2363.28+1027.75C2361.96+1028.36+2360.63+1028.97+2359.31+1029.59C2359.74+1030.33+2360.16+1031.01+2360.59+1031.75C2360.73+1031.99+2361.15+1032.94+2361.41+1033.53C2362+1031.6+2362.67+1029.68+2363.28+1027.75ZM2185.06+1120.59C2170.27+1131.12+2155.88+1142.27+2142.22+1153.88C2146.34+1156.71+2150.52+1159.44+2154.78+1162C2157.1+1163.39+2182.72+1178.96+2185.31+1174.88C2189.25+1168.69+2185.52+1140.29+2185.31+1134.69C2185.14+1129.99+2185.14+1125.29+2185.06+1120.59ZM1395.41+1198.25C1390.85+1199.04+1386.5+1200.02+1382.75+1201.06C1376.72+1202.74+1370.92+1204.91+1365.19+1207.25C1386.04+1260.09+1412.22+1314.24+1447.66+1377.06C1450.43+1375.68+1453.4+1374.36+1456.25+1373C1452.41+1349.82+1452.44+1325.95+1452.75+1302.25C1426.73+1263.59+1409.96+1233.39+1395.59+1198.69C1395.53+1198.53+1395.47+1198.41+1395.41+1198.25ZM2259.16+1292.5C2253.13+1292.89+2247.14+1293.52+2241.22+1294.31C2239.43+1298.04+2237.74+1301.81+2235.09+1304.94C2229.15+1311.96+2219.71+1313.2+2209.69+1313.09C2201.95+1326.92+2190.61+1339.92+2183.03+1348.75C2213.07+1335.7+2236.12+1318.29+2259.16+1292.5ZM2322.56+1301.72C2305.95+1328.96+2289.55+1354.57+2285.12+1359.81C2283.24+1362.05+2281.17+1364.19+2279.16+1366.38C2279.44+1366.35+2279.75+1366.25+2280.03+1366.25C2282.71+1366.25+2278.34+1368.82+2274.88+1371.03C2268.18+1377.88+2260.88+1384.44+2253.03+1390.69C2245.41+1402.3+2239.09+1414.84+2236.41+1420.44C2233.88+1425.71+2219.82+1446.9+2232.44+1452.16C2243.62+1456.82+2266.99+1435.3+2276.31+1426.53C2276.02+1426.21+2275.7+1426+2275.38+1426C2273.92+1426+2267.12+1430.64+2260.25+1436.28C2248.94+1445.58+2238.98+1450.08+2242.88+1444.16C2243.73+1442.86+2261.97+1423.12+2283.41+1400.28C2314.48+1367.17+2334.85+1343.86+2349+1324.25C2347.32+1321.68+2345.5+1319.29+2343.53+1317.09C2337.63+1310.49+2330.49+1305.49+2322.56+1301.72ZM2052.31+1362.94C2051.55+1363+2050.76+1363.14+2050+1363.19C2050.31+1363.39+2050.63+1363.52+2050.94+1363.72C2051.39+1363.45+2051.86+1363.2+2052.31+1362.94ZM2361+1363.94C2352.99+1376.96+2343.94+1390.99+2334.34+1405.53C2334.7+1407.34+2335.46+1408.91+2336.84+1409.88C2340.31+1412.3+2347.82+1410.08+2354.41+1407.38C2357.2+1400.21+2359.59+1393.15+2360.59+1387.12C2361.87+1379.49+2361.66+1371.68+2361+1363.94ZM2207.62+1420.22C2172.97+1438.71+2132.61+1452.43+2089.5+1460.12C2085.61+1464.96+2081.63+1469.72+2077.84+1474.62C2072.62+1481.4+2068.18+1488.72+2063.31+1495.75C2060.25+1500.17+2056.79+1504.33+2054.06+1508.97C2053.78+1509.45+2053.26+1510.1+2052.84+1510.66C2056.24+1512.96+2059.6+1515.33+2063.12+1517.38C2064.31+1518.06+2065.53+1518.59+2066.72+1519.25C2076.75+1516.28+2086.64+1508.72+2092.38+1505C2132.36+1479.07+2169.26+1448.45+2207.62+1420.22ZM1640.34+1601.78C1639.22+1602.59+1638.14+1603.44+1637+1604.22C1627.09+1611.03+1615.88+1618.81+1604.06+1626.5C1626.18+1659.03+1638.8+1675.4+1652.34+1689.69C1660.5+1698.29+1684.15+1729.47+1704.91+1758.94C1731.23+1796.32+1743.42+1811.83+1758.16+1826.72C1783.45+1803.46+1809.42+1780.9+1836.03+1759.12C1830.91+1732.61+1830.57+1716.36+1834.06+1702.12C1835.06+1698.07+1839.1+1688.48+1843.66+1678.47C1811.91+1661.86+1785.12+1635.95+1770.06+1604.91C1753.02+1611.47+1735.89+1617.8+1718.41+1622.62C1709.05+1625.21+1690.91+1630.04+1679.25+1626.09C1679.71+1627.47+1679.97+1628.47+1680.5+1630C1688.36+1652.9+1689.94+1664+1686.16+1669.62C1680.53+1677.97+1666.59+1659.71+1650.75+1623.25C1648.36+1617.75+1644.58+1610.11+1640.34+1601.78Z" opacity="1" fill="#535353"/>
<path d="M2184.78+1312.53C2182.4+1312.7+2180.14+1313.03+2178.06+1313.59C2180.18+1313.02+2182.5+1312.7+2184.94+1312.53C2184.89+1312.53+2184.83+1312.53+2184.78+1312.53Z" opacity="1" fill="#acacac"/>
<path d="M1471.16+1003.03C1459.71+1002.73+1451.04+1017.02+1443.22+1024.84C1433+1035.07+1426.6+1038.57+1422.5+1052.5C1417.72+1068.74+1425.21+1074.16+1427.66+1088.81C1429.73+1101.23+1424.78+1114.71+1422.5+1126.84C1421.42+1132.62+1420.11+1138.38+1419.03+1144.16C1418.66+1146.11+1418.84+1148.3+1418.69+1150.34C1435.58+1164.1+1460.11+1177.14+1474.56+1179.72C1490.48+1182.56+1533.39+1182.4+1570.12+1179.94C1560.66+1133.92+1534.14+1096.22+1510.66+1055.97C1503.37+1043.48+1491.55+1013.46+1479.53+1005.81C1476.57+1003.93+1473.8+1003.1+1471.16+1003.03ZM1889.28+1109.53C1886.96+1109.77+1884.45+1111.55+1882.25+1112.53C1876.4+1115.13+1868.47+1119.94+1860.88+1124.78C1860.74+1128.84+1860.56+1137.43+1860.44+1140.88C1864.81+1141.19+1868.81+1142.11+1872.03+1144.16C1873.35+1145+1874.38+1146.03+1875.28+1147.16C1877.48+1145.95+1879.47+1144.53+1881.59+1143.25C1883.11+1140.92+1884.73+1138.66+1886.22+1136.31C1887.35+1134.52+1903.03+1115.67+1891.5+1109.91C1890.78+1109.55+1890.05+1109.45+1889.28+1109.53ZM1346.56+1155.88C1347.69+1159.34+1348.45+1162.1+1349.91+1166.28C1354.64+1179.93+1359.78+1193.55+1365.19+1207.25C1370.92+1204.91+1376.72+1202.74+1382.75+1201.06C1386.5+1200.02+1390.85+1199.04+1395.41+1198.25C1392.08+1190.23+1388.75+1182.74+1385.44+1175.81C1382.13+1168.89+1378.84+1162.53+1375.66+1156.78C1370.01+1156.54+1362.22+1156.25+1360.25+1156.25C1355.67+1156.25+1351.1+1156.08+1346.56+1155.88ZM1573.25+1204.12C1564.68+1204.8+1556.31+1205.14+1545.81+1205.06C1510.24+1204.78+1509.38+1205.46+1520.94+1224.75C1535.38+1248.88+1552.89+1269.95+1571.81+1286.38C1572.22+1279.76+1572.91+1273.11+1572.91+1268.62C1572.91+1247.51+1574.64+1225.34+1573.25+1204.12ZM1447.91+1204.81C1441.04+1204.81+1457.52+1255.74+1473.56+1284.12C1486.73+1307.43+1499.97+1326.57+1518.56+1347.88C1524.13+1346.1+1529.76+1344.51+1535.44+1343.06C1522.12+1327.62+1509.82+1307.09+1488.31+1267.62C1464.91+1224.68+1452.13+1204.81+1447.91+1204.81ZM1452.75+1302.25C1452.44+1325.95+1452.41+1349.82+1456.25+1373C1467+1367.88+1478.17+1362.88+1490.5+1357.97C1479.9+1342.4+1471.28+1329.51+1459.22+1312C1456.84+1308.54+1454.98+1305.57+1452.75+1302.25ZM2192.22+1312.41C2191.58+1312.39+2191+1312.44+2190.38+1312.44C2188.52+1312.42+2186.68+1312.41+2184.94+1312.53C2182.5+1312.7+2180.18+1313.02+2178.06+1313.59C2158.97+1318.8+2143.34+1333.73+2126.19+1342.97C2110.28+1351.53+2090.9+1357.34+2071.53+1360.56C2065.08+1361.64+2058.63+1362.44+2052.31+1362.94C2051.86+1363.2+2051.39+1363.45+2050.94+1363.72C2062.18+1370.9+2073.85+1373.76+2089.22+1373.03C2092.29+1372.89+2095.51+1372.61+2098.91+1372.19C2105.7+1371.33+2113.2+1369.91+2121.59+1368C2145.46+1362.57+2165.42+1356.4+2183.03+1348.75C2190.61+1339.92+2201.95+1326.92+2209.69+1313.09C2203.93+1313.04+2198.02+1312.56+2192.41+1312.41C2192.35+1312.4+2192.28+1312.41+2192.22+1312.41ZM2280.03+1366.25C2279.75+1366.25+2279.44+1366.35+2279.16+1366.38C2277.73+1367.93+2276.37+1369.51+2274.88+1371.03C2278.34+1368.82+2282.71+1366.25+2280.03+1366.25ZM1908.62+1379.5C1906.73+1379.18+1905.06+1380.03+1902.06+1381.81C1896.16+1385.31+1891.69+1390.08+1874.88+1409.44C1873.47+1411.95+1871.76+1415.22+1870.22+1418.06C1874.21+1417.2+1878.22+1416.54+1882.25+1416.06C1885.96+1415.62+1889.69+1415.32+1893.41+1415.25C1893.62+1415.25+1893.82+1415.28+1894.03+1415.28C1895.94+1415.25+1897.84+1415.43+1899.75+1415.5C1901.95+1415.58+1904.15+1415.56+1906.34+1415.78C1906.37+1415.78+1906.41+1415.78+1906.44+1415.78C1910.45+1416.18+1914.45+1416.81+1918.41+1417.69C1941.7+1422.86+1961.27+1434.99+1979.56+1449.47C1978.81+1448.12+1978.07+1446.76+1977.12+1445.41C1970.61+1436.1+1926.89+1391.92+1916.62+1384.28C1912.65+1381.33+1910.52+1379.82+1908.62+1379.5ZM2253.03+1390.69C2239.44+1401.52+2224.16+1411.4+2207.62+1420.22C2169.26+1448.45+2132.36+1479.07+2092.38+1505C2086.64+1508.72+2076.75+1516.28+2066.72+1519.25C2097.87+1536.47+2131.82+1543.75+2165.38+1542.5C2170.17+1542.32+2174.95+1541.96+2179.72+1541.44C2187.85+1537.65+2195.98+1533.91+2204.16+1530.25C2212.33+1526.59+2220.55+1523.01+2228.78+1519.53C2232.42+1513.6+2236.4+1507.24+2239.03+1502.59C2247.48+1487.64+2259.72+1467.76+2266.22+1458.41C2274.44+1446.57+2278.03+1439.04+2278.03+1433.69C2278.03+1430.42+2277.31+1427.64+2276.31+1426.53C2266.99+1435.3+2243.62+1456.82+2232.44+1452.16C2219.82+1446.9+2233.88+1425.71+2236.41+1420.44C2239.09+1414.84+2245.42+1402.3+2253.03+1390.69ZM2334.34+1405.53C2317.67+1430.81+2298.79+1458.23+2276.88+1488.72C2271.88+1495.67+2269.97+1498.3+2265.41+1504.66C2273.52+1501.49+2281.63+1498.38+2289.78+1495.38C2307.86+1480.86+2323.84+1463.5+2336.47+1443.41C2342.31+1434.12+2349.29+1420.49+2354.41+1407.38C2347.82+1410.08+2340.31+1412.3+2336.84+1409.88C2335.46+1408.91+2334.7+1407.34+2334.34+1405.53ZM2089.5+1460.12C2074.95+1462.72+2060.12+1464.71+2045.06+1465.88C2036.98+1466.5+2020.66+1468.82+2005.19+1471.34C2020.68+1485.28+2036.09+1499.28+2052.84+1510.66C2053.26+1510.1+2053.78+1509.45+2054.06+1508.97C2056.79+1504.33+2060.25+1500.17+2063.31+1495.75C2068.18+1488.72+2072.62+1481.4+2077.84+1474.62C2081.63+1469.72+2085.61+1464.96+2089.5+1460.12ZM1692.56+1502.75C1692.4+1503.09+1692.19+1503.41+1692.03+1503.75C1692.34+1503.94+1692.66+1504.16+1692.97+1504.34C1692.81+1503.83+1692.72+1503.27+1692.56+1502.75ZM1683.44+1520.34C1681.21+1524.25+1678.8+1528.05+1676.38+1531.84C1675.58+1535.95+1674.79+1540.06+1674.19+1544.22C1674.49+1554.62+1674.4+1568.64+1673.5+1589.06C1673.03+1599.82+1673.48+1606.25+1676+1615.56C1676.84+1618.67+1677.92+1622.08+1679.25+1626.09C1690.91+1630.04+1709.05+1625.21+1718.41+1622.62C1735.89+1617.8+1753.02+1611.47+1770.06+1604.91C1762.13+1588.56+1757.4+1570.8+1757.03+1552.19C1755.59+1552.17+1754.16+1552.28+1752.72+1552.19C1740.66+1551.38+1736.19+1550.44+1725.06+1545.25C1714.49+1540.32+1707.35+1533.26+1702.06+1524.91C1701.08+1524.6+1699.33+1523.96+1698.5+1523.72C1692.04+1521.82+1687.21+1520.72+1683.44+1520.34Z" opacity="1" fill="#535353"/>
<path d="M2134.62+290C2164.19+319.315+2196.92+344.587+2228.38+371.625C2218.27+348.355+2203.18+324.571+2185.5+308.219C2180.61+303.695+2175.14+299.55+2169.62+295.406C2157.93+293.483+2146.27+291.639+2134.62+290ZM2209.34+302.375C2209.79+303.09+2210.24+303.713+2210.69+304.438C2228.82+333.731+2234.59+351.92+2229.56+372.656C2234.82+377.193+2240.15+381.664+2245.31+386.344C2256.55+396.537+2292.71+427.884+2293.91+446.5C2295.59+472.637+2259.98+463.604+2245.97+461.531C2200.46+454.796+2157.31+438.317+2112.78+427.594C2101.14+424.791+2055.86+414.427+2067.25+440.625C2068.01+442.372+2069.02+444.259+2070.31+446.344C2091.4+480.447+2128.97+504.531+2160.88+527.062C2177.72+538.957+2194.74+550.513+2211.81+562C2214.24+563.148+2216.69+564.237+2219.09+565.438C2221.5+566.64+2222.68+567.297+2224.75+568.344C2227.18+568.168+2229.63+567.926+2232.06+567.781C2233.45+564.741+2234.76+561.668+2236.34+558.688C2236.96+557.531+2237.68+556.441+2238.34+555.312C2243.56+557.555+2248.76+559.825+2253.97+562.062C2274.43+556.5+2280.42+554.571+2305.94+542.906C2316.8+537.938+2328.16+532.179+2338.88+525.844C2335.87+525.344+2332.56+524.854+2329.94+524.375C2306.17+514.754+2300.2+512.074+2294.97+507.625C2292.31+505.364+2290.97+504.054+2290.66+502.156C2290.34+500.258+2291.09+497.778+2292.59+493.062C2296.49+480.874+2324.09+425.181+2330.78+416C2331.75+414.669+2332.78+413.52+2333.81+412.375C2326.05+434.372+2320.93+456.818+2323.59+480.531C2324.05+484.562+2324.77+488.541+2325.69+492.469C2325.7+492.499+2325.71+492.532+2325.72+492.562C2326.22+494.706+2326.96+496.767+2327.59+498.875C2328.15+500.703+2328.6+502.575+2329.25+504.375C2329.32+504.572+2329.33+504.772+2329.41+504.969C2330.68+508.466+2332.16+511.882+2333.78+515.25C2335.48+518.763+2337.36+522.192+2339.38+525.562C2343.91+522.867+2348.37+520.103+2352.56+517.188C2397.39+486.002+2393.6+434.53+2370.25+390.156C2365.26+380.685+2359.05+372.205+2353.38+363.656C2350.98+369.445+2348.65+375.246+2346.19+381.031C2338.78+367.215+2331.31+352.538+2328.09+345.094C2326.07+340.398+2323.87+335.835+2321.69+331.25C2290.56+320.307+2253.33+310.851+2209.34+302.375ZM2501.12+624.812C2499.32+626.466+2497.45+628.068+2495.69+629.75C2489.38+635.761+2480.41+646.51+2470.91+657.781C2475.61+659.909+2480.33+662.024+2485.03+664.156C2471.81+669.77+2458.53+677.681+2455.38+688.781C2472.48+686.685+2489.59+684.594+2506.56+681.812C2506.3+678.387+2506.07+674.845+2505.78+671.469C2502.84+670.775+2499.91+670.032+2496.94+669.469C2496.07+665.782+2495.55+660.852+2495.25+654.125C2495.21+653.257+2495.25+651.408+2495.22+650.375C2498.13+646.754+2500.6+642.808+2502.56+638.469C2502.07+633.959+2501.65+629.235+2501.12+624.812ZM2421.81+915.562C2419.71+915.566+2417.85+915.736+2415.97+915.906C2421.11+921.553+2426.22+927.016+2431.28+932.188C2436.8+929.212+2442.12+925.937+2447.34+922.438C2444.4+920.614+2441.45+918.784+2438.5+916.969C2437.13+916.82+2434.94+916.466+2433.66+916.344C2430.71+916.057+2427.93+915.844+2425.5+915.75C2424.3+915.705+2422.92+915.561+2421.81+915.562Z" opacity="1" fill="#6b6b6b"/>
<path d="M1814.19+281C1799.89+282.009+1786.09+283.156+1772.53+284.375C1763.55+290.807+1754.73+297.402+1745.81+303.906C1744.17+313.221+1745.45+320.936+1753.47+322.625C1768.88+325.87+1808.89+293.914+1818.22+286.969C1819.71+285.858+1821.17+284.709+1822.66+283.594C1819.76+282.706+1817.32+282.091+1814.19+281ZM1906.5+312.406C1889.56+336.864+1873.14+361.664+1857.88+387.375C1857+388.855+1837.62+423.747+1840.69+428.344C1847.37+438.368+1862.63+426.988+1867.12+424.375C1881.61+415.965+1909.41+395.106+1921.31+386.062C1936.67+374.392+1951.97+362.698+1967.28+351.031C1949.23+334.848+1928.49+322.431+1906.5+312.406ZM1635.62+387.938C1632.34+390.61+1626.69+395.205+1622.97+398.25C1623.68+399.08+1624.27+399.883+1625+400.719C1630.57+398.941+1636.2+397.353+1641.88+395.906C1639.79+393.49+1637.7+390.655+1635.62+387.938ZM1782.53+433.812C1780.71+433.66+1778.79+433.717+1776.84+433.844C1776.18+433.887+1775.51+433.961+1774.84+434.031C1773.72+434.148+1772.6+434.318+1771.47+434.5C1769.99+434.74+1768.53+435.08+1767.06+435.406C1763.95+436.1+1760.9+436.898+1758.06+437.781C1757.12+438.078+1756.11+438.359+1755.22+438.656C1752.03+439.721+1748.98+440.797+1746.88+441.562C1714.82+453.219+1685.68+472.656+1653.72+484.531C1649.15+486.228+1644.54+487.782+1639.84+489.125C1626.11+493.048+1608.3+497.005+1594.91+489.125C1581.44+481.202+1573.05+465.053+1568.47+450.812C1567.77+448.636+1567.27+446.417+1566.69+444.219C1533.94+471.025+1501.4+498.143+1469.12+525.625C1489.89+538.98+1510.52+560.609+1526.59+580.406C1528.32+579.919+1530.07+579.293+1531.78+578.875C1552.22+573.873+1578.01+571.275+1602.31+571.531C1610.41+571.617+1618.36+572.014+1625.88+572.75C1641.95+574.324+1657.35+576.974+1672.25+580.406C1694.54+562.381+1718.02+544.896+1743.12+532.344C1745.05+531.383+1747.35+530.374+1749.84+529.406C1750.95+528.976+1752.13+528.626+1753.31+528.219C1754.93+527.661+1756.5+527.137+1758.19+526.656C1759.35+526.327+1760.46+526.091+1761.62+525.812C1763.4+525.39+1765.1+525.02+1766.84+524.75C1768.92+524.426+1770.99+524.132+1772.91+524.094C1774.3+524.066+1775.62+524.125+1776.88+524.281C1780.1+524.684+1782.73+525.955+1785.09+527.594C1787.9+514.338+1790.69+501.086+1793.12+487.812C1794.46+480.554+1803.72+446.264+1793.12+437.594C1790.31+435.291+1786.62+434.155+1782.53+433.812ZM1799+555.594C1798.84+555.935+1798.63+556.252+1798.47+556.594C1798.78+556.782+1799.1+557.002+1799.41+557.188C1799.25+556.674+1799.15+556.11+1799+555.594ZM1556.12+621.469C1557.61+623.422+1559.14+625.365+1560.81+627.188C1563.11+629.689+1564.66+631.403+1566.19+633.062C1570.86+632.967+1575.7+632.937+1581.53+633.25C1590.31+633.721+1598.52+634.593+1606.47+635.844C1608.91+633.718+1611.37+631.678+1613.81+629.562C1594.51+624.321+1576.38+621.8+1556.12+621.469Z" opacity="1" fill="#acacac"/>
<path d="M1777.78+433.75C1777.47+433.764+1777.15+433.823+1776.84+433.844C1778.79+433.717+1780.71+433.66+1782.53+433.812C1781+433.684+1779.4+433.677+1777.78+433.75Z" opacity="1" fill="#acacac"/>
<path d="M1822.66+283.594C1821.17+284.709+1819.71+285.858+1818.22+286.969C1808.89+293.914+1768.88+325.87+1753.47+322.625C1745.45+320.936+1744.17+313.221+1745.81+303.906C1735.79+311.215+1725.69+318.443+1715.78+325.844C1675.2+356.139+1656.67+370.813+1635.62+387.938C1637.7+390.655+1639.79+393.49+1641.88+395.906C1636.2+397.353+1630.57+398.941+1625+400.719C1624.27+399.883+1623.68+399.08+1622.97+398.25C1611.96+407.256+1604.62+413.254+1585.53+428.75C1579.23+433.867+1572.97+439.073+1566.69+444.219C1567.27+446.417+1567.77+448.636+1568.47+450.812C1573.05+465.053+1581.44+481.202+1594.91+489.125C1608.3+497.005+1626.11+493.048+1639.84+489.125C1644.54+487.782+1649.15+486.228+1653.72+484.531C1685.68+472.656+1714.82+453.219+1746.88+441.562C1749.02+440.784+1751.97+439.74+1755.22+438.656C1756.19+438.333+1757.03+438.104+1758.06+437.781C1760.94+436.882+1763.89+436.11+1767.06+435.406C1768.56+435.073+1769.96+434.743+1771.47+434.5C1772.61+434.316+1773.72+434.149+1774.84+434.031C1775.52+433.961+1776.18+433.887+1776.84+433.844C1777.15+433.823+1777.47+433.764+1777.78+433.75C1779.4+433.677+1781+433.684+1782.53+433.812C1786.62+434.155+1790.31+435.291+1793.12+437.594C1803.72+446.264+1794.46+480.554+1793.12+487.812C1790.69+501.086+1787.9+514.338+1785.09+527.594C1794.57+534.175+1797.76+549.332+1798.78+563.656C1839.44+520.541+1879.87+477.216+1920+433.562C1940.71+411.038+1961.19+388.295+1981.75+365.625C1980.9+364.633+1980.11+363.583+1979.22+362.625C1975.4+358.535+1971.39+354.718+1967.28+351.031C1951.97+362.698+1936.67+374.392+1921.31+386.062C1909.41+395.106+1881.61+415.965+1867.12+424.375C1862.63+426.988+1847.37+438.367+1840.69+428.344C1837.62+423.747+1857+388.855+1857.88+387.375C1873.14+361.664+1889.56+336.864+1906.5+312.406C1882.62+301.521+1857.31+293.398+1832.25+286.562C1829.64+285.85+1825.94+284.601+1822.66+283.594ZM1799+555.594C1799.15+556.11+1799.25+556.674+1799.41+557.188C1799.1+557.002+1798.78+556.782+1798.47+556.594C1798.63+556.252+1798.84+555.935+1799+555.594Z" opacity="1" fill="#6b6b6b"/>
<path d="M2093.31+284.594C2052.22+313.38+2015.56+348.167+2000.81+394.188C2007.26+405.776+2013.32+417.657+2020.72+428.344C2029.47+440.988+2037.75+449.805+2048.38+461.188C2051.02+464.023+2064.01+476.497+2062.22+483.656C2060.35+491.146+2052.66+496.124+2044.66+499.875C2051.77+503.362+2059.1+506.501+2066.34+509.156C2084.81+515.926+2104.07+520.325+2122.62+526.844C2132.13+530.184+2178.93+547.648+2186.94+550.969C2195.32+554.443+2203.61+558.123+2211.81+562C2194.74+550.513+2177.72+538.957+2160.88+527.062C2128.97+504.531+2091.4+480.447+2070.31+446.344C2069.02+444.259+2068.01+442.372+2067.25+440.625C2055.86+414.427+2101.14+424.791+2112.78+427.594C2157.31+438.317+2200.46+454.796+2245.97+461.531C2259.98+463.604+2295.59+472.637+2293.91+446.5C2292.71+427.884+2256.55+396.537+2245.31+386.344C2240.15+381.664+2234.82+377.193+2229.56+372.656C2234.59+351.92+2228.82+333.731+2210.69+304.438C2210.24+303.713+2209.79+303.09+2209.34+302.375C2206.67+301.859+2204.29+301.289+2201.56+300.781C2190.89+298.794+2180.27+297.157+2169.62+295.406C2175.14+299.55+2180.61+303.695+2185.5+308.219C2203.18+324.571+2218.27+348.355+2228.38+371.625C2196.92+344.587+2164.19+319.315+2134.62+290C2120.82+288.056+2107.02+286.144+2093.31+284.594ZM2321.69+331.25C2323.87+335.835+2326.07+340.398+2328.09+345.094C2331.31+352.538+2338.78+367.215+2346.19+381.031C2348.65+375.246+2350.98+369.445+2353.38+363.656C2347.99+355.541+2343.08+347.364+2340.31+338.219C2340.31+338.209+2340.32+338.197+2340.31+338.188C2334.38+335.802+2328.11+333.508+2321.69+331.25ZM2333.81+412.375C2332.78+413.52+2331.75+414.669+2330.78+416C2324.09+425.181+2296.49+480.874+2292.59+493.062C2291.09+497.778+2290.34+500.258+2290.66+502.156C2290.97+504.054+2292.31+505.364+2294.97+507.625C2300.2+512.074+2306.17+514.754+2329.94+524.375C2332.56+524.854+2335.87+525.344+2338.88+525.844C2339.04+525.747+2339.21+525.66+2339.38+525.562C2337.36+522.192+2335.48+518.763+2333.78+515.25C2332.16+511.882+2330.68+508.466+2329.41+504.969C2329.33+504.772+2329.32+504.572+2329.25+504.375C2328.6+502.575+2328.15+500.703+2327.59+498.875C2326.96+496.767+2326.22+494.706+2325.72+492.562C2325.71+492.532+2325.7+492.499+2325.69+492.469C2324.77+488.541+2324.05+484.562+2323.59+480.531C2320.93+456.818+2326.05+434.372+2333.81+412.375ZM2238.34+555.312C2237.68+556.441+2236.96+557.531+2236.34+558.688C2234.76+561.668+2233.45+564.741+2232.06+567.781C2232.46+567.758+2232.86+567.703+2233.25+567.688C2236.11+566.908+2238.25+566.349+2241.59+565.438C2246.76+564.03+2250.13+563.106+2253.97+562.062C2248.76+559.825+2243.56+557.555+2238.34+555.312ZM2502.56+638.469C2500.6+642.808+2498.13+646.754+2495.22+650.375C2495.25+651.408+2495.21+653.257+2495.25+654.125C2495.55+660.852+2496.07+665.782+2496.94+669.469C2499.91+670.032+2502.84+670.775+2505.78+671.469C2504.82+660.169+2503.73+649.242+2502.56+638.469ZM2430.84+640.406C2426.47+640.167+2419.59+642.722+2414+644.906C2415.23+646.348+2416.61+647.728+2417.78+649.188C2421.09+653.327+2424.27+657.735+2427.22+662.094C2429.74+658.626+2431.97+655.238+2432.97+652.25C2434.16+648.69+2435.97+643.251+2432.97+641C2432.47+640.629+2431.75+640.456+2430.84+640.406ZM2393.69+652C2375.18+658.215+2356.45+664.176+2337.19+666.938C2346.06+686.999+2345.46+709.586+2326.84+735.875C2318.33+747.901+2309.92+756.713+2299.62+765.406C2300.88+773.644+2302.95+782.099+2309.47+787.969C2319.03+796.575+2323.67+787.941+2325+805.25C2325.36+809.989+2323.77+814.581+2321.81+819.156C2351.17+827.542+2377.7+841.885+2394.78+858.75C2398+858.026+2401.34+857.868+2404.56+857.125C2408.65+856.182+2413.3+851.138+2416.66+853.656C2420.37+856.444+2419.29+862.944+2418.38+867.5C2417.05+874.139+2416.01+878.398+2415.16+881.344C2420.18+885.07+2425.97+886.577+2437.91+888.938C2447.07+890.748+2458.24+894.237+2462.75+896.688C2472.51+901.994+2501.83+910.656+2510.03+910.656C2515.79+910.656+2515.84+910.456+2515.84+886.625C2515.84+859.293+2512.18+770.297+2508.47+707.719C2507.94+698.821+2507.23+690.389+2506.56+681.812C2489.59+684.594+2472.48+686.685+2455.38+688.781C2458.53+677.681+2471.81+669.77+2485.03+664.156C2480.33+662.024+2475.61+659.909+2470.91+657.781C2454.22+677.558+2435.27+699.441+2421.72+703.719C2403.21+709.565+2412.63+685.724+2413.66+682.812C2414.82+679.504+2417.11+676.025+2419.59+672.531C2417.59+670.869+2416.17+669.869+2414.03+668.031C2406.93+661.922+2400.26+656.751+2393.69+652ZM2411.12+876.25C2411.1+876.267+2411.02+877.54+2411+877.625C2411.1+877.727+2411.18+877.807+2411.28+877.906C2411.24+877.492+2411.18+876.201+2411.12+876.25ZM2415.97+915.906C2415.23+915.973+2414.4+915.972+2413.69+916.062C2414.71+919.39+2415.66+922.544+2416.66+926.281C2419.38+936.485+2418.41+946.958+2419.09+957.375C2434.03+962.396+2449.69+963.358+2466.72+956.188C2484.88+948.539+2499.22+938.305+2511.28+926.5L2502.16+925.531C2494.33+924.714+2474.98+922.082+2459.12+919.656C2450.2+918.29+2444.32+917.604+2438.5+916.969C2441.45+918.784+2444.4+920.614+2447.34+922.438C2442.12+925.937+2436.8+929.212+2431.28+932.188C2426.22+927.016+2421.11+921.553+2415.97+915.906Z" opacity="1" fill="#a9a9a9"/>
</g>
</svg>
