<?xml version="1.0" encoding="UTF-8" standalone="no"?> <!-- Created with Vectornator Pro for iOS (http://vectornator.io/) --><!DOCTYPE svg PUBLIC "-//W3C//DTD SVG 1.1//EN" "http://www.w3.org/Graphics/SVG/1.1/DTD/svg11.dtd">
<svg height="100%" style="fill-rule:evenodd;clip-rule:evenodd;stroke-linecap:round;stroke-linejoin:round;" xmlns:xlink="http://www.w3.org/1999/xlink" xmlns="http://www.w3.org/2000/svg" xml:space="preserve" width="100%" xmlns:vectornator="http://vectornator.io" version="1.1" viewBox="0 0 3840 2160">
<metadata>
<vectornator:setting key="RulersVisible" value="1"/>
<vectornator:setting key="SnapToEdges" value="0"/>
<vectornator:setting key="Units" value="Pixels"/>
<vectornator:setting key="DynamicGuides" value="0"/>
<vectornator:setting key="SnapToPoints" value="0"/>
<vectornator:setting key="CMYKEnabledKey" value="0"/>
<vectornator:setting key="SnapToGrid" value="0"/>
<vectornator:setting key="ShowGrid" value="1"/>
<vectornator:setting key="GridSpacing" value="36"/>
</metadata>
<defs/>
<g id="Outside" vectornator:layerName="Outside">
<path d="M2375.75+273C2364.87+273.894+2361.27+283.687+2364.38+295.062C2367.92+308.078+2377.16+321.661+2391.06+325.25C2404.55+328.731+2427.65+321.78+2421.66+303.781C2420.96+301.695+2419.73+299.64+2418.03+298.188C2417.37+297.622+2416.73+293.53+2416.19+292.281C2414.76+288.996+2413.1+285.777+2410.12+283.531C2402.28+277.599+2390.27+274.488+2380.88+273.188C2379.02+272.931+2377.3+272.872+2375.75+273ZM1862.38+451.625C1854.93+450.577+1850.37+461.237+1848.41+467.125C1848.22+467.693+1847.3+472.267+1846.91+475.719C1846.49+475.108+1846.11+474.449+1845.59+474.094C1844.71+473.485+1844.47+475.962+1844.62+477C1844.85+478.468+1845.98+479.686+1846.66+481.031C1849.69+487.031+1857.16+496.485+1864.94+492.938C1878.85+486.596+1879.91+460.938+1865.75+452.844C1864.57+452.168+1863.44+451.775+1862.38+451.625ZM2425.59+502.906C2414.71+503.8+2411.12+513.562+2414.22+524.938C2417.77+537.953+2426.97+551.568+2440.88+555.156C2442.81+555.656+2444.97+555.87+2447.19+555.938C2451.34+563.578+2467.47+568.391+2473.94+565.625C2484.74+561.007+2480.99+546.163+2472.25+541.406C2472.62+539.094+2472.46+536.526+2471.5+533.656C2470.8+531.57+2469.54+529.546+2467.84+528.094C2467.18+527.528+2466.54+523.405+2466+522.156C2464.57+518.871+2462.94+515.683+2459.97+513.438C2452.12+507.506+2440.11+504.363+2430.72+503.062C2428.87+502.806+2427.15+502.779+2425.59+502.906ZM1658.41+576.344C1655.68+576.124+1652.87+576.904+1650.88+578.719C1649.73+579.758+1645.52+582.998+1647.31+584.312C1648.75+585.367+1647.64+584.359+1646.88+588.031C1646.27+590.963+1646.99+594.912+1648.62+597.375C1653.97+605.435+1666.83+592.263+1667.06+585.5C1667.26+579.836+1662.95+576.71+1658.41+576.344ZM2673.78+588.406C2670.19+588.216+2666.56+589.39+2663.12+592.438C2661.53+593.85+2660.23+595.741+2659.69+597.812C2659.48+598.619+2655.99+600.759+2655.09+601.719C2652.74+604.244+2650.58+606.925+2649.91+610.438C2648.12+619.719+2650.85+631.679+2654.03+640.594C2659.06+654.662+2671.52+655.191+2681.81+647.094C2692.12+638.987+2700.31+625.574+2697.12+611.75C2694.81+601.691+2684.56+588.978+2673.78+588.406ZM2006.25+605.312C2002.18+605.639+1998.61+607.258+1997.31+611.312C1992.69+625.808+2010.61+645.379+2025.88+641.281C2036.08+638.544+2030.39+625.052+2027+618.531C2026.71+617.981+2023.99+613.998+2021.75+611.188C2022.46+611.343+2023.21+611.544+2023.81+611.438C2024.84+611.255+2023.2+609.243+2022.34+608.594C2021.13+607.676+2019.49+607.598+2018.06+607.094C2014.88+605.968+2010.32+604.986+2006.25+605.312ZM1693.16+607.5C1685.71+606.452+1681.15+617.112+1679.19+623C1679+623.564+1678.12+628.086+1677.72+631.531C1677.31+630.933+1676.88+630.287+1676.38+629.938C1675.49+629.329+1675.25+631.837+1675.41+632.875C1675.63+634.343+1676.76+635.561+1677.44+636.906C1680.47+642.906+1687.94+652.36+1695.72+648.812C1709.63+642.471+1710.69+616.813+1696.53+608.719C1695.35+608.043+1694.22+607.65+1693.16+607.5ZM2313.28+616.562C2309.5+616.343+2305.97+617.138+2303.38+619.688C2300.59+622.42+2299.96+626.318+2300.06+630.312C2282.59+647.572+2311.74+682.296+2333.81+676.312C2337.6+675.287+2340.31+673.986+2343.19+671.375C2359.42+656.67+2347.76+633.321+2330.88+622.812C2329.96+622.242+2328.68+621.679+2327.56+621.094C2327.18+620.762+2326.71+620.505+2326.09+620.344C2322.19+618.473+2317.66+616.817+2313.28+616.562ZM1863.22+624.125C1860.76+623.754+1858.1+624.366+1855.44+626.375C1854.2+627.306+1853.14+628.613+1852.56+630.094C1852.34+630.67+1849.74+632.012+1849.03+632.656C1847.17+634.353+1845.4+636.161+1844.59+638.688C1842.47+645.363+1843.21+654.303+1844.56+661.031C1846.69+671.648+1855.24+672.826+1863.12+667.562C1871.02+662.293+1877.97+653.007+1877.09+642.688C1876.45+635.178+1870.61+625.237+1863.22+624.125ZM2225.34+647.406C2222.16+647.325+2218.54+648.436+2216.16+649.312C2215.76+649.46+2212.82+650.964+2210.72+652.281C2210.87+651.792+2211.06+651.278+2211.03+650.844C2210.98+650.076+2209.45+651.041+2208.94+651.594C2208.22+652.375+2208.04+653.55+2207.59+654.531C2205.59+658.906+2203.64+667.3+2209.09+670.062C2218.84+675+2233.67+664.124+2231.88+652.594C2231.28+648.742+2228.53+647.488+2225.34+647.406ZM1984.78+664.062C1983.76+664.072+1982.7+664.206+1981.62+664.438C1970.96+666.738+1960.89+678.795+1955.84+690.719C1955.37+694.921+1957.44+699.493+1958.91+703.5C1962.48+713.245+1968.9+734.099+1982.66+733.844C1997.47+733.569+2006.11+711.789+2008+699.938C2009.96+687.645+2000.17+663.925+1984.78+664.062ZM1955.84+690.719C1955.91+690.095+1955.86+689.446+1956.06+688.844L1955.38+691.688C1955.51+691.362+1955.71+691.045+1955.84+690.719ZM1955.38+691.688C1953.66+695.986+1952.6+700.245+1952.47+703.969L1955.38+691.688ZM2104.25+670.531C2100.47+670.312+2096.91+671.106+2094.31+673.656C2091.52+676.396+2090.89+680.307+2091+684.312C2073.58+701.58+2102.72+736.262+2124.78+730.281C2128.57+729.255+2131.27+727.955+2134.16+725.344C2150.39+710.639+2138.69+687.29+2121.81+676.781C2120.9+676.213+2119.65+675.645+2118.53+675.062C2118.15+674.728+2117.68+674.475+2117.06+674.312C2113.15+672.441+2108.63+670.785+2104.25+670.531ZM2387.91+672.281C2384.72+672.2+2381.1+673.28+2378.72+674.156C2378.32+674.304+2375.36+675.836+2373.25+677.156C2373.41+676.656+2373.59+676.132+2373.56+675.688C2373.51+674.92+2372.01+675.916+2371.5+676.469C2370.78+677.25+2370.61+678.425+2370.16+679.406C2368.15+683.781+2366.2+692.176+2371.66+694.938C2381.4+699.875+2396.23+688.999+2394.44+677.469C2393.84+673.617+2391.09+672.363+2387.91+672.281ZM2424.12+682.219C2423+682.255+2421.92+682.393+2420.94+682.656C2408.09+686.104+2419.89+709.411+2428.66+712.844C2440.41+717.443+2448.55+703.649+2444.47+694.281C2443.59+692.269+2441.11+685.138+2438.62+686.938C2436.63+688.381+2438.43+687.345+2433.94+684.625C2431.25+682.996+2427.49+682.11+2424.12+682.219ZM2324.56+683.688C2323.84+683.77+2323.35+684.138+2323.25+684.906C2322.94+687.372+2323.41+685.352+2318.44+686.469C2314.47+687.361+2310.17+690.57+2308.28+694.094C2302.09+705.624+2326.73+714.671+2335.09+711.094C2346.31+706.3+2341.89+690.385+2332.44+686.281C2330.91+685.62+2326.72+683.439+2324.56+683.688ZM1708.09+718.188C1705.37+717.968+1702.56+718.748+1700.56+720.562C1699.42+721.602+1695.2+724.842+1697+726.156C1698.44+727.211+1697.33+726.203+1696.56+729.875C1695.95+732.807+1696.68+736.755+1698.31+739.219C1703.66+747.279+1716.52+734.106+1716.75+727.344C1716.94+721.68+1712.64+718.554+1708.09+718.188ZM1964.16+818.344C1960.09+818.671+1956.51+820.289+1955.22+824.344C1950.59+838.84+1968.51+858.41+1983.78+854.312C1993.98+851.575+1988.3+838.083+1984.91+831.562C1984.62+831.012+1981.9+827.03+1979.66+824.219C1980.37+824.374+1981.12+824.575+1981.72+824.469C1982.75+824.286+1981.11+822.274+1980.25+821.625C1979.04+820.708+1977.4+820.629+1975.97+820.125C1972.79+819+1968.23+818.017+1964.16+818.344ZM2366.59+821.438C2365.93+821.437+2365.24+821.54+2364.53+821.812C2354.37+825.708+2351.43+844.457+2360.53+851.156C2366.61+855.633+2371.62+846.436+2373.75+841.625C2373.93+841.219+2374.93+837.915+2375.5+835.406C2375.73+835.882+2375.95+836.397+2376.28+836.688C2376.84+837.182+2377.21+835.363+2377.19+834.594C2377.16+833.505+2376.48+832.554+2376.12+831.531C2374.74+827.54+2371.26+821.441+2366.59+821.438ZM2531.41+825.531C2530.53+825.451+2529.65+825.46+2528.75+825.562C2519.21+826.642+2508.86+832.716+2501.59+838.312C2490.13+847.145+2494.46+858.889+2506.16+866.062C2517.86+873.244+2533.81+876.893+2545.75+869.844C2557.33+863.006+2567.93+841.7+2551+832.531C2549.04+831.469+2546.71+830.83+2544.53+830.938C2543.68+830.979+2540.32+828.359+2539.06+827.812C2536.58+826.733+2534.04+825.773+2531.41+825.531ZM2191+830.406C2171.5+831.654+2164.43+853.632+2168.88+871.375C2169.13+872.405+2169.63+873.691+2170.03+874.875C2170.07+875.353+2170.22+875.85+2170.53+876.375C2173.33+883.854+2178.64+892.617+2186.75+892.938C2190.79+893.097+2194.08+890.925+2196.91+888.188C2222.2+889.07+2226.04+845.47+2205.53+833.812C2202.01+831.813+2199.07+830.746+2195.06+830.438C2193.65+830.329+2192.3+830.323+2191+830.406ZM2310.25+832.625C2307.3+832.818+2304.38+833.387+2301.66+834.156C2299.1+835.774+2297.46+838.986+2295.88+841.594C2292.02+847.945+2283.25+860.833+2289.53+868.406C2296.29+876.559+2312.28+871.649+2319.75+867.406C2328.01+862.713+2337.58+844.76+2327.84+836.812C2323.65+833.39+2316.95+832.188+2310.25+832.625ZM2301.66+834.156C2302.04+833.914+2302.38+833.596+2302.81+833.438L2300.88+834.344C2301.12+834.268+2301.4+834.228+2301.66+834.156ZM2300.88+834.344C2297.72+835.305+2294.88+836.603+2292.75+838.188L2300.88+834.344ZM2052.75+840.062C2044.8+839.511+2036.16+844.431+2030.88+851.375C2030.42+851.97+2029.95+852.824+2029.47+853.562C2029.2+853.809+2028.97+854.143+2028.81+854.594C2025.89+859.5+2023.38+866.338+2026.81+871C2028.53+873.332+2031.17+874.206+2033.97+874.562C2044.75+889.101+2070.85+871.735+2068.22+855.062C2067.77+852.203+2067.05+850.095+2065.44+847.719C2062.03+842.7+2057.52+840.394+2052.75+840.062ZM1852.25+865.75C1849.79+865.379+1847.13+865.991+1844.47+868C1843.23+868.931+1842.17+870.238+1841.59+871.719C1841.37+872.295+1838.77+873.637+1838.06+874.281C1836.2+875.978+1834.43+877.786+1833.62+880.312C1831.5+886.989+1832.25+895.928+1833.59+902.656C1835.72+913.273+1844.27+914.451+1852.16+909.188C1860.05+903.918+1867+894.632+1866.12+884.312C1865.49+876.803+1859.64+866.862+1852.25+865.75ZM2714.81+878.875C2711.31+879.194+2707.78+881.635+2704.94+885.531C2699.25+893.332+2695.74+904.563+2699.94+913.938C2704.01+923.032+2718.21+932.835+2725.59+921.438C2726.45+920.116+2727.04+918.504+2727.09+916.906C2727.12+916.284+2729.14+914.081+2729.59+913.219C2730.79+910.951+2731.85+908.601+2731.78+905.938C2731.6+898.9+2727.96+890.8+2724.5+884.969C2721.77+880.368+2718.31+878.556+2714.81+878.875ZM2228.78+893.156C2228.11+893.156+2227.4+893.259+2226.69+893.531C2216.52+897.427+2213.59+916.175+2222.69+922.875C2228.77+927.351+2233.78+918.155+2235.91+913.344C2236.09+912.938+2237.12+909.634+2237.69+907.125C2237.92+907.6+2238.14+908.115+2238.47+908.406C2239.03+908.9+2239.4+907.082+2239.38+906.312C2239.35+905.224+2238.67+904.273+2238.31+903.25C2236.93+899.258+2233.45+893.16+2228.78+893.156ZM1562.81+898.469C1562.32+898.519+1561.73+898.703+1561.41+898.875C1560.48+899.362+1559.95+900.418+1559.22+901.188C1555.96+904.621+1551.47+911.842+1555.75+916.344C1563.4+924.391+1580.79+919.287+1582.72+907.781C1584.01+900.094+1573.98+899.187+1568.94+899.188C1568.51+899.188+1565.25+899.644+1562.84+900.156C1563.15+899.738+1563.48+899.306+1563.59+898.875C1563.69+898.503+1563.3+898.419+1562.81+898.469ZM2082.78+899.625C2076.19+899.193+2070.48+912.932+2072.22+918.562C2074.89+927.185+2086.21+925.56+2089.62+919.094C2090.36+917.705+2093.27+913.117+2091.16+912.531C2089.46+912.061+2090.83+912.599+2090.34+908.875C2089.96+905.901+2088+902.473+2085.66+900.75C2084.7+900.045+2083.72+899.687+2082.78+899.625ZM2372.94+903.906C2370.16+903.571+2367.72+904.958+2365.53+906.812C2348.1+904.78+2341.69+936.561+2354.88+946.219C2357.14+947.875+2359.07+948.807+2361.81+949.25C2377.27+951.744+2385.12+934.786+2383.47+920.656C2383.38+919.887+2383.14+918.922+2382.97+918.031C2382.98+917.677+2382.89+917.312+2382.72+916.906C2381.42+911.274+2378.52+904.58+2372.94+903.906ZM2230.62+949.781C2229.75+949.701+2228.87+949.71+2227.97+949.812C2218.43+950.892+2208.08+956.966+2200.81+962.562C2189.35+971.395+2193.68+983.139+2205.38+990.312C2217.08+997.494+2233.03+1001.14+2244.97+994.094C2256.55+987.255+2267.14+965.949+2250.22+956.781C2248.26+955.719+2245.93+955.08+2243.75+955.188C2242.9+955.229+2239.54+952.609+2238.28+952.062C2235.79+950.983+2233.26+950.023+2230.62+949.781ZM1760.16+960.5C1740.66+961.748+1733.56+983.757+1738+1001.5C1738.26+1002.54+1738.78+1003.83+1739.19+1005.03C1739.23+1005.48+1739.36+1005.94+1739.66+1006.44C1742.45+1013.93+1747.78+1022.71+1755.91+1023.03C1759.94+1023.19+1763.2+1021.04+1766.03+1018.31C1791.36+1019.23+1795.17+975.569+1774.66+963.906C1771.14+961.907+1768.22+960.839+1764.22+960.531C1762.81+960.423+1761.46+960.417+1760.16+960.5ZM2117.72+964.938C2114.5+965.256+2111.61+966.455+2109.38+968.938C2099.75+979.627+2109.81+1001.7+2117.16+1011.72C2125.29+1022.8+2151.72+1033.98+2160.44+1019.09C2165.84+1009.86+2163.78+993.869+2158.47+981.562C2155.73+978.146+2151.01+976.241+2147.12+974.344C2140.04+970.885+2127.38+963.983+2117.72+964.938ZM2158.47+981.562C2158.87+982.067+2159.35+982.512+2159.66+983.094L2158.06+980.594C2158.2+980.906+2158.33+981.245+2158.47+981.562ZM2158.06+980.594C2156.08+976.203+2153.69+972.304+2151.06+969.469L2158.06+980.594ZM1361.06+977.031C1359.86+977.152+1358.66+977.435+1357.53+978.031C1355.35+979.178+1353.29+980.91+1351.31+982.812C1344.54+984.248+1339.18+988.429+1338.94+996.969C1338.88+999.129+1339.35+1001.46+1340.47+1003.38C1340.9+1004.12+1340.07+1008.13+1340.16+1009.47C1340.38+1012.99+1340.85+1016.48+1342.91+1019.56C1348.34+1027.7+1358.75+1034.67+1367.28+1039.06C1380.74+1045.99+1389.52+1037.67+1390.66+1024.47C1391.54+1014.18+1389.2+1002.44+1382.47+993.938C1383.7+986.528+1381.73+978.797+1373.47+977.375C1371.97+977.117+1370.34+977.253+1368.94+977.875C1368.39+978.117+1365.65+977.102+1364.72+977.031C1363.49+976.939+1362.27+976.91+1361.06+977.031ZM1843+984.25C1841.88+984.286+1840.79+984.424+1839.81+984.688C1826.96+988.135+1838.76+1011.44+1847.53+1014.88C1859.28+1019.47+1867.39+1005.68+1863.31+996.312C1862.44+994.3+1859.99+987.169+1857.5+988.969C1855.5+990.413+1857.3+989.376+1852.81+986.656C1850.12+985.027+1846.37+984.141+1843+984.25ZM2496.31+996.562C2493.53+996.227+2491.1+997.616+2488.91+999.469C2471.48+997.439+2465.07+1029.25+2478.25+1038.91C2480.51+1040.56+2482.44+1041.49+2485.19+1041.94C2500.64+1044.43+2508.47+1027.47+2506.81+1013.34C2506.72+1012.6+2506.48+1011.64+2506.31+1010.78C2506.34+1010.41+2506.28+1010.03+2506.09+1009.59C2504.8+1003.96+2501.9+997.237+2496.31+996.562ZM1682.81+999.594C1682.32+999.644+1681.73+999.828+1681.41+1000C1680.48+1000.49+1679.95+1001.54+1679.22+1002.31C1675.96+1005.75+1671.47+1012.97+1675.75+1017.47C1683.4+1025.52+1700.79+1020.41+1702.72+1008.91C1704.01+1001.22+1693.98+1000.31+1688.94+1000.31C1688.51+1000.31+1685.25+1000.77+1682.84+1001.28C1683.15+1000.86+1683.48+1000.43+1683.59+1000C1683.69+999.628+1683.3+999.544+1682.81+999.594ZM1990.75+1003.31L1999.03+1006.59C1996.17+1004.95+1993.31+1003.77+1990.75+1003.31ZM1999.03+1006.59C1999.25+1006.72+1999.47+1006.9+1999.69+1007.03C2000.15+1007.15+2000.63+1007.19+2001.06+1007.41L1999.03+1006.59ZM1999.69+1007.03C1996.81+1006.32+1993.54+1007.37+1990.69+1008.03C1983.7+1009.66+1968.8+1012.26+1968.16+1022.28C1967.47+1033.07+1982.12+1041.52+1990.25+1044.06C1999.25+1046.88+2018.09+1041.27+2016.53+1028.41C2015.56+1020.4+2007.71+1011.86+1999.69+1007.03ZM2608.56+1009.5C2605.06+1009.82+2601.53+1012.26+2598.69+1016.16C2593+1023.96+2589.49+1035.19+2593.69+1044.56C2594.28+1045.88+2595.13+1047.19+2596.09+1048.47C2593.69+1054.21+2598.14+1065.31+2602.56+1067.69C2610+1071.68+2616.68+1062.84+2615.34+1055.81C2616.79+1054.98+2618.17+1053.87+2619.34+1052.06C2620.2+1050.74+2620.79+1049.13+2620.84+1047.53C2620.87+1046.91+2622.89+1044.71+2623.34+1043.84C2624.54+1041.58+2625.6+1039.23+2625.53+1036.56C2625.35+1029.53+2621.71+1021.43+2618.25+1015.59C2615.52+1010.99+2612.06+1009.18+2608.56+1009.5ZM2317.56+1022.62C2309.62+1022.07+2300.98+1026.99+2295.69+1033.94C2295.23+1034.53+2294.76+1035.39+2294.28+1036.12C2294.01+1036.37+2293.78+1036.71+2293.62+1037.16C2290.71+1042.06+2288.2+1048.9+2291.62+1053.56C2293.34+1055.89+2295.98+1056.77+2298.78+1057.12C2309.56+1071.66+2335.66+1054.3+2333.03+1037.62C2332.58+1034.77+2331.86+1032.66+2330.25+1030.28C2326.84+1025.26+2322.33+1022.96+2317.56+1022.62ZM1518.47+1023.19C1517.26+1023.31+1516.07+1023.59+1514.94+1024.19C1508.95+1027.34+1503.5+1034.2+1499.94+1039.97C1494.32+1049.07+1499.57+1056.28+1508.69+1058.41C1517.81+1060.54+1528.98+1059.12+1535.28+1051.16C1541.4+1043.43+1543.85+1025.76+1530.91+1023.53C1529.41+1023.27+1527.77+1023.41+1526.38+1024.03C1525.83+1024.27+1523.09+1023.26+1522.16+1023.19C1520.93+1023.1+1519.68+1023.07+1518.47+1023.19ZM2459.16+1032.44C2458.38+1032.39+2457.64+1032.43+2456.94+1032.56C2447.73+1034.26+2453.65+1052.08+2459.38+1055.16C2467.05+1059.28+2473.98+1049.71+2472.06+1042.59C2471.65+1041.06+2470.64+1035.69+2468.75+1036.84C2467.23+1037.77+2468.56+1037.12+2465.72+1034.84C2464.02+1033.48+2461.49+1032.57+2459.16+1032.44ZM2214.66+1044.31C2204.39+1043.71+2196.54+1059.2+2194.22+1067.78C2191.65+1077.28+2197.17+1097.04+2209.38+1095.25C2216.96+1094.14+2224.99+1085.83+2229.5+1077.34C2230.17+1074.3+2229.11+1070.85+2228.44+1067.84C2226.81+1060.51+2224.19+1044.87+2214.66+1044.31ZM2229.5+1077.34C2229.4+1077.81+2229.35+1078.28+2229.16+1078.72L2229.84+1076.72C2229.74+1076.93+2229.61+1077.14+2229.5+1077.34ZM2229.84+1076.72C2231.41+1073.65+2232.52+1070.57+2232.94+1067.84L2229.84+1076.72ZM2826.94+1053.5C2826.18+1053.55+2825.43+1053.63+2824.69+1053.62C2818.03+1053.54+2806.53+1055.84+2806.84+1064.47C2807.4+1079.89+2830.58+1092.83+2843.38+1083.91C2851.93+1077.95+2842.14+1066.84+2836.81+1061.69C2836.36+1061.26+2832.55+1058.34+2829.53+1056.38C2830.24+1056.29+2830.99+1056.23+2831.5+1055.94C2832.39+1055.43+2830.17+1054.03+2829.16+1053.69C2828.44+1053.45+2827.69+1053.45+2826.94+1053.5ZM2510.69+1089.28C2504.1+1088.85+2498.38+1102.59+2500.12+1108.22C2502.79+1116.84+2514.11+1115.22+2517.53+1108.75C2518.27+1107.36+2521.15+1102.8+2519.03+1102.22C2517.33+1101.75+2518.73+1102.26+2518.25+1098.53C2517.87+1095.56+2515.87+1092.13+2513.53+1090.41C2512.57+1089.7+2511.63+1089.34+2510.69+1089.28ZM2255.47+1092.09C2247.87+1092.05+2244.45+1098.98+2245.5+1107.5C2246.71+1117.25+2251.77+1127.79+2261.03+1131.31C2270.02+1134.73+2286.64+1131.12+2284.22+1117.56C2283.94+1115.99+2283.28+1114.42+2282.25+1113.25C2281.85+1112.79+2281.79+1109.73+2281.53+1108.78C2280.86+1106.29+2280.06+1103.83+2278.22+1102C2273.36+1097.15+2265.33+1094.12+2258.97+1092.56C2257.71+1092.26+2256.55+1092.1+2255.47+1092.09ZM1618.91+1096.44C1617.48+1096.5+1616.27+1096.87+1616.47+1098C1616.78+1099.82+1616.66+1098.28+1613.66+1100.31C1611.26+1101.94+1609.12+1105.26+1608.62+1108.22C1607+1117.9+1624.95+1118.12+1629.66+1113.5C1635.96+1107.31+1629.77+1097.21+1622.75+1096.69C1622+1096.63+1620.33+1096.38+1618.91+1096.44ZM1751.81+1137.16C1750.38+1137.22+1749.18+1137.59+1749.38+1138.72C1749.69+1140.54+1749.57+1139+1746.56+1141.03C1744.16+1142.65+1742.03+1145.98+1741.53+1148.94C1739.91+1158.62+1757.86+1158.84+1762.56+1154.22C1768.86+1148.03+1762.67+1137.93+1755.66+1137.41C1754.9+1137.35+1753.24+1137.1+1751.81+1137.16ZM1559.62+1142.41C1554.56+1142.62+1549.37+1144.36+1545.06+1147.19C1544.45+1147.59+1543.74+1148.22+1543.06+1148.75C1542.73+1148.88+1542.42+1149.11+1542.12+1149.47C1537.82+1153.08+1533.29+1158.68+1535.06+1164.28C1535.95+1167.07+1538.17+1168.82+1540.69+1170.12C1546.29+1187.61+1576.4+1180.28+1579.16+1163.62C1579.63+1160.77+1579.62+1158.55+1578.84+1155.75C1576.11+1145.88+1568.06+1142.04+1559.62+1142.41ZM1122.12+1164.06C1114.56+1163.86+1107.62+1171.35+1108.09+1178.88C1108.23+1181.03+1108.09+1188.44+1111.09+1187.62C1113.5+1186.97+1111.44+1187.34+1114.78+1191.38C1117.45+1194.6+1122.38+1197.2+1126.5+1197.56C1139.98+1198.75+1136.81+1173.24+1129.62+1167.09C1127.22+1165.03+1124.65+1164.13+1122.12+1164.06ZM1900.03+1167.41C1893.52+1167.59+1886.79+1168.99+1880.91+1171.16C1877.55+1173.66+1875.81+1178.21+1874.03+1181.94C1869.71+1191+1859.51+1209.5+1869.91+1218.94C1881.1+1229.1+1903.12+1220.45+1913+1213.78C1923.94+1206.41+1934.25+1180.98+1918.84+1171.47C1913.87+1168.4+1907.11+1167.21+1900.03+1167.41ZM1880.91+1171.16C1881.4+1170.79+1881.83+1170.33+1882.41+1170.06L1879.84+1171.53C1880.19+1171.4+1880.56+1171.28+1880.91+1171.16ZM1879.84+1171.53C1875.5+1173.23+1871.66+1175.34+1868.91+1177.75L1879.84+1171.53ZM2091.66+1169.06C2083.81+1170.1+2075.22+1177.21+2071+1182.22C2064.78+1189.61+2061.64+1209.93+2073.38+1213.88C2080.65+1216.32+2091.3+1212.51+2098.84+1206.94C2100.73+1204.5+2101.21+1200.87+2101.84+1197.84C2103.39+1190.49+2107.43+1175.19+2099.06+1170.34C2096.81+1169.04+2094.27+1168.72+2091.66+1169.06ZM2098.84+1206.94C2098.57+1207.3+2098.35+1207.7+2098+1208L2099.47+1206.47C2099.27+1206.62+2099.05+1206.78+2098.84+1206.94ZM2099.47+1206.47C2102.13+1204.42+2104.38+1202.18+2105.88+1199.91L2099.47+1206.47ZM2388.88+1187.06C2381.27+1186.42+2372.33+1187.53+2369.22+1194.12C2367.55+1197.66+2368.28+1201.6+2369.72+1205.41C2359.28+1227.68+2397.92+1251.49+2416.41+1238.53C2419.57+1236.31+2421.67+1234.17+2423.47+1230.72C2433.61+1211.3+2414.96+1192.73+2395.78+1188.16C2394.76+1187.91+2393.4+1187.79+2392.19+1187.59C2391.72+1187.39+2391.19+1187.27+2390.56+1187.31C2389.97+1187.24+2389.49+1187.11+2388.88+1187.06ZM2150.78+1204.19C2149.2+1204.16+2147.64+1204.42+2146.06+1205.03C2132.49+1210.33+2132.09+1234.06+2134.47+1246.03C2137.11+1259.27+2156.59+1280.41+2171.16+1271.03C2180.21+1265.2+2185.33+1250.19+2185.81+1237.06C2184.76+1232.92+2181.23+1229.25+2178.5+1225.94C2172.65+1218.85+2161.84+1204.4+2150.78+1204.19ZM2185.81+1237.06C2185.98+1237.71+2186.22+1238.33+2186.25+1239L2185.88+1236C2185.87+1236.35+2185.83+1236.71+2185.81+1237.06ZM2185.88+1236C2185.96+1231.33+2185.45+1226.93+2184.28+1223.34L2185.88+1236ZM2459.03+1204.59C2451.43+1204.55+2448.01+1211.48+2449.06+1220C2450.27+1229.75+2455.33+1240.29+2464.59+1243.81C2473.58+1247.23+2490.2+1243.62+2487.78+1230.06C2487.5+1228.49+2486.85+1226.92+2485.81+1225.75C2485.41+1225.29+2485.35+1222.26+2485.09+1221.31C2484.42+1218.82+2483.59+1216.36+2481.75+1214.53C2476.9+1209.69+2468.9+1206.62+2462.53+1205.06C2461.28+1204.76+2460.12+1204.6+2459.03+1204.59ZM1613.41+1204.78C1603.32+1204.1+1593.61+1207.91+1593.28+1219.56C1593.22+1221.72+1593.73+1224.02+1594.84+1225.94C1595.28+1226.68+1594.45+1230.69+1594.53+1232.03C1594.75+1235.55+1595.19+1239.08+1597.25+1242.16C1602.69+1250.3+1613.1+1257.23+1621.62+1261.62C1635.08+1268.56+1643.86+1260.26+1645+1247.06C1646.14+1233.85+1642.07+1218.16+1630.03+1210.12C1625.65+1207.2+1619.46+1205.19+1613.41+1204.78ZM2625.06+1233.03C2624.31+1233.08+2623.53+1233.2+2622.78+1233.19C2616.12+1233.11+2604.66+1235.4+2604.97+1244.03C2605.53+1259.46+2628.7+1272.36+2641.5+1263.44C2650.05+1257.48+2640.24+1246.4+2634.91+1241.25C2634.46+1240.82+2630.61+1237.9+2627.59+1235.94C2628.31+1235.85+2629.07+1235.77+2629.59+1235.47C2630.49+1234.96+2628.29+1233.59+2627.28+1233.25C2626.56+1233.01+2625.82+1232.98+2625.06+1233.03ZM1320.5+1233.44C1312.93+1233.24+1305.96+1240.73+1306.44+1248.25C1306.57+1250.4+1306.46+1257.81+1309.47+1257C1311.88+1256.35+1309.81+1256.72+1313.16+1260.75C1315.83+1263.97+1320.76+1266.61+1324.88+1266.97C1338.35+1268.15+1335.19+1242.65+1328+1236.5C1325.59+1234.44+1323.02+1233.5+1320.5+1233.44ZM2207.16+1290C2206.34+1289.91+2205.5+1289.96+2204.66+1290.16C2201.92+1290.81+2200.05+1292.98+2198.56+1295.5C2181.48+1299.64+2185.43+1331.84+2200.91+1336.38C2203.56+1337.15+2205.68+1337.38+2208.41+1336.84C2223.78+1333.83+2225.84+1315.11+2219.84+1302.34C2219.53+1301.67+2218.99+1300.85+2218.56+1300.09C2218.47+1299.73+2218.28+1299.37+2217.97+1299.03C2215.44+1294.92+2211.62+1290.49+2207.16+1290ZM1531.91+1299.19C1526.84+1299.41+1521.62+1301.14+1517.31+1303.97C1516.69+1304.38+1515.97+1305.02+1515.28+1305.56C1514.96+1305.7+1514.66+1305.9+1514.38+1306.25C1510.07+1309.87+1505.54+1315.46+1507.31+1321.06C1508.2+1323.85+1510.42+1325.6+1512.94+1326.91C1518.54+1344.4+1548.65+1337.06+1551.41+1320.41C1551.88+1317.55+1551.87+1315.33+1551.09+1312.53C1548.36+1302.66+1540.34+1298.82+1531.91+1299.19ZM2425.12+1311.19L2435.25+1319.5C2431.96+1315.97+2428.49+1313.04+2425.12+1311.19ZM2435.25+1319.5C2435.5+1319.76+2435.72+1320.07+2435.97+1320.34C2436.54+1320.71+2437.16+1320.99+2437.66+1321.47L2435.25+1319.5ZM2435.97+1320.34C2432.29+1318+2427.31+1317.74+2423.09+1317.19C2412.79+1315.85+2391.22+1311.86+2386.25+1324.31C2380.9+1337.72+2397.64+1355.6+2407.81+1362.81C2419.07+1370.8+2447.3+1372.89+2450.41+1355.75C2452.33+1345.1+2445.03+1330.42+2435.97+1320.34ZM2022.78+1316.16C2018.24+1315.87+2013.44+1316.5+2009.16+1317.72C2006.62+1319.35+2005.01+1322.53+2003.44+1325.12C1999.58+1331.48+1990.79+1344.36+1997.06+1351.94C2003.82+1360.09+2019.85+1355.18+2027.31+1350.94C2035.57+1346.24+2045.14+1328.29+2035.41+1320.34C2032.26+1317.78+2027.69+1316.46+2022.78+1316.16ZM2009.16+1317.72C2009.55+1317.47+2009.9+1317.13+2010.34+1316.97L2008.38+1317.91C2008.63+1317.83+2008.9+1317.79+2009.16+1317.72ZM2008.38+1317.91C2005.25+1318.87+2002.43+1320.14+2000.31+1321.72L2008.38+1317.91ZM2620.38+1355.38L2630.53+1363.75C2627.23+1360.2+2623.75+1357.23+2620.38+1355.38ZM2630.53+1363.75C2630.77+1364+2630.98+1364.3+2631.22+1364.56C2631.78+1364.92+2632.39+1365.19+2632.88+1365.66L2630.53+1363.75ZM2631.22+1364.56C2627.54+1362.2+2622.57+1361.92+2618.34+1361.38C2608.04+1360.03+2586.47+1356.05+2581.5+1368.5C2576.15+1381.91+2592.86+1399.81+2603.03+1407.03C2614.29+1415.02+2642.55+1417.07+2645.66+1399.94C2647.58+1389.3+2640.27+1374.64+2631.22+1364.56ZM2142.88+1357.56C2141.79+1357.44+2140.65+1357.53+2139.5+1357.88C2129.62+1360.88+2127.09+1378.21+2127.59+1387.12C2128.15+1396.98+2139.57+1413.71+2150.53+1407.78C2157.33+1404.1+2162.28+1393.5+2163.88+1383.94C2163.57+1380.81+2161.49+1377.9+2159.91+1375.28C2156.54+1369.72+2150.49+1358.43+2142.88+1357.56ZM2163.88+1383.94C2163.92+1384.4+2164.04+1384.84+2164+1385.31L2164.03+1383.25C2164+1383.48+2163.91+1383.71+2163.88+1383.94ZM2164.03+1383.25C2164.55+1379.79+2164.63+1376.46+2164.16+1373.72L2164.03+1383.25ZM1658.47+1382.81L1656.44+1383C1656.67+1383.01+1656.92+1383.04+1657.16+1383.06C1657.59+1382.97+1658.02+1382.81+1658.47+1382.81ZM1657.16+1383.06C1654.23+1383.7+1651.69+1386.18+1649.38+1388.09C1643.74+1392.75+1631.39+1401.86+1634.94+1411.19C1638.76+1421.23+1655.4+1422.16+1663.78+1420.75C1673.05+1419.19+1687.73+1405.57+1681.03+1394.69C1676.88+1387.94+1666.36+1383.79+1657.16+1383.06ZM1656.44+1383C1653.13+1382.8+1650+1383.02+1647.47+1383.78L1656.44+1383ZM2257.44+1404.94C2256.41+1404.95+2255.36+1405.08+2254.28+1405.31C2243.61+1407.61+2233.51+1419.69+2228.47+1431.62C2228.01+1435.82+2230.1+1440.38+2231.56+1444.38C2235.13+1454.12+2241.52+1474.97+2255.28+1474.72C2270.09+1474.44+2278.74+1452.66+2280.62+1440.81C2282.58+1428.52+2272.83+1404.8+2257.44+1404.94ZM2228.47+1431.62C2228.54+1430.99+2228.51+1430.33+2228.72+1429.72L2228.03+1432.56C2228.16+1432.25+2228.34+1431.94+2228.47+1431.62ZM2228.03+1432.56C2226.31+1436.86+2225.26+1441.12+2225.12+1444.84L2228.03+1432.56ZM1856.16+1428.38C1855.34+1428.28+1854.53+1428.33+1853.69+1428.53C1850.96+1429.18+1849.08+1431.33+1847.59+1433.84C1830.49+1437.97+1834.43+1470.21+1849.91+1474.75C1852.56+1475.53+1854.68+1475.75+1857.41+1475.22C1872.78+1472.2+1874.87+1453.45+1868.88+1440.69C1868.55+1439.99+1868+1439.18+1867.56+1438.41C1867.47+1438.06+1867.29+1437.73+1867+1437.41C1864.47+1433.29+1860.62+1428.87+1856.16+1428.38ZM1646.88+1488C1640.86+1487.7+1634.56+1494.46+1631.25+1498.59C1630.88+1499.06+1628.51+1502.99+1626.97+1506.06C1626.78+1505.37+1626.59+1504.62+1626.22+1504.12C1625.57+1503.27+1624.51+1505.52+1624.31+1506.53C1624.04+1507.97+1624.7+1509.47+1624.91+1510.94C1625.8+1517.49+1629.81+1528.69+1638.47+1527.94C1653.94+1526.6+1663.57+1503.14+1652.69+1491C1650.87+1488.97+1648.88+1488.1+1646.88+1488ZM1402.19+1537.09C1396.17+1536.8+1389.87+1543.55+1386.56+1547.69C1386.19+1548.15+1383.82+1552.09+1382.28+1555.16C1382.09+1554.46+1381.91+1553.71+1381.53+1553.22C1380.88+1552.36+1379.82+1554.61+1379.62+1555.62C1379.35+1557.06+1380.02+1558.56+1380.22+1560.03C1381.12+1566.59+1385.12+1577.78+1393.78+1577.03C1409.26+1575.69+1418.88+1552.23+1408+1540.09C1406.18+1538.07+1404.19+1537.19+1402.19+1537.09ZM2099.28+1541.47C2098.19+1541.35+2097.08+1541.43+2095.94+1541.78C2086.06+1544.78+2083.53+1562.12+2084.03+1571.03C2084.59+1580.89+2096.01+1597.62+2106.97+1591.69C2113.77+1588.01+2118.72+1577.37+2120.31+1567.81C2119.99+1564.7+2117.92+1561.8+2116.34+1559.19C2112.98+1553.62+2106.9+1542.33+2099.28+1541.47ZM2120.31+1567.81C2120.36+1568.28+2120.48+1568.74+2120.44+1569.22L2120.47+1567.12C2120.43+1567.35+2120.35+1567.58+2120.31+1567.81ZM2120.47+1567.12C2120.99+1563.66+2121.06+1560.36+2120.59+1557.62L2120.47+1567.12ZM1820.28+1547.25C1816.34+1547.3+1812.45+1548.67+1809.94+1551.38C1808.5+1552.92+1803.09+1557.83+1805.91+1559.38C1808.16+1560.62+1806.37+1559.41+1805.97+1564.47C1805.64+1568.5+1807.42+1573.75+1810.22+1576.88C1819.37+1587.09+1835.31+1567.66+1834.38+1558.5C1833.59+1550.83+1826.85+1547.17+1820.28+1547.25ZM2304.53+1547.44C2303.23+1547.44+2301.95+1547.87+2300.78+1548.88C2292.41+1556.08+2295.53+1574.81+2306.22+1577.97C2313.36+1580.08+2315.19+1569.66+2315.69+1564.38C2315.73+1563.93+2315.65+1560.47+2315.41+1557.91C2315.77+1558.27+2316.13+1558.66+2316.53+1558.81C2317.22+1559.08+2317.01+1557.22+2316.75+1556.5C2316.38+1555.48+2315.44+1554.84+2314.78+1554C2312.59+1551.18+2308.45+1547.43+2304.53+1547.44ZM1558.5+1604.03C1554.91+1603.84+1551.25+1604.98+1547.81+1608.03C1546.22+1609.44+1544.95+1611.37+1544.41+1613.44C1544.19+1614.24+1540.71+1616.35+1539.81+1617.31C1537.46+1619.84+1535.27+1622.52+1534.59+1626.03C1532.8+1635.31+1535.53+1647.27+1538.72+1656.19C1543.74+1670.26+1556.21+1670.79+1566.5+1662.69C1576.8+1654.58+1585.03+1641.17+1581.84+1627.34C1579.53+1617.28+1569.27+1604.6+1558.5+1604.03ZM2345.31+1633.91C2337.71+1633.26+2328.77+1634.38+2325.66+1640.97C2323.98+1644.51+2324.72+1648.47+2326.16+1652.28C2315.74+1674.55+2354.36+1698.33+2372.84+1685.38C2376.01+1683.15+2378.11+1681.04+2379.91+1677.59C2390.04+1658.18+2371.4+1639.57+2352.22+1635C2351.18+1634.75+2349.8+1634.63+2348.56+1634.44C2348.11+1634.25+2347.6+1634.12+2347+1634.16C2346.4+1634.08+2345.93+1633.96+2345.31+1633.91ZM2090.94+1649.09C2079.94+1647.74+2066.21+1655.62+2057.38+1665.03C2055.5+1668.78+2055.96+1673.73+2056.03+1677.94C2056.19+1688.15+2055.37+1709.56+2068.66+1713.81C2082.97+1718.4+2098.53+1701.04+2104.31+1690.66C2110.71+1679.17+2108.68+1651.27+2090.94+1649.09ZM2057.38+1665.03C2057.65+1664.48+2057.83+1663.89+2058.22+1663.41L2056.69+1665.72C2056.9+1665.48+2057.16+1665.26+2057.38+1665.03ZM2056.69+1665.72C2053.56+1669.17+2051.07+1672.81+2049.69+1676.25L2056.69+1665.72ZM2214.47+1691.94C2213.16+1691.94+2211.86+1692.37+2210.69+1693.38C2202.32+1700.58+2205.47+1719.31+2216.16+1722.47C2223.3+1724.58+2225.12+1714.16+2225.62+1708.88C2225.67+1708.43+2225.59+1704.97+2225.34+1702.41C2225.71+1702.77+2226.07+1703.16+2226.47+1703.31C2227.15+1703.58+2226.95+1701.75+2226.69+1701.03C2226.32+1700.01+2225.37+1699.34+2224.72+1698.5C2222.53+1695.68+2218.38+1691.93+2214.47+1691.94ZM1630.31+1697.44C1626.37+1697.49+1622.48+1699.07+1619.97+1702.12C1618.53+1703.87+1613.12+1709.44+1615.94+1711.19C1618.19+1712.59+1616.41+1711.23+1616+1716.94C1615.68+1721.5+1617.45+1727.41+1620.25+1730.94C1629.41+1742.48+1645.34+1720.54+1644.41+1710.19C1643.62+1701.52+1636.88+1697.35+1630.31+1697.44ZM1864.94+1724.25C1849.62+1724.76+1838.79+1740.41+1837.34+1755.94C1837.25+1756.98+1837.3+1758.34+1837.28+1759.56C1837.15+1760.03+1837.15+1760.55+1837.28+1761.16C1837.47+1769.01+1839.61+1778.84+1847.28+1781.78C1851.1+1783.25+1854.97+1782.33+1858.59+1780.72C1882.59+1789.84+1900.88+1750.59+1885.09+1733.06C1882.39+1730.06+1879.93+1728.09+1876.19+1726.5C1872.24+1724.82+1868.47+1724.13+1864.94+1724.25ZM1882.25+1804.72C1866.93+1805.23+1856.11+1820.88+1854.66+1836.41C1854.56+1837.45+1854.61+1838.82+1854.59+1840.06C1854.47+1840.51+1854.47+1841.01+1854.59+1841.59C1854.78+1849.45+1856.91+1859.3+1864.59+1862.25C1868.41+1863.72+1872.31+1862.8+1875.94+1861.19C1899.92+1870.27+1918.19+1831.05+1902.41+1813.53C1899.7+1810.53+1897.27+1808.59+1893.53+1807C1889.58+1805.32+1885.78+1804.6+1882.25+1804.72Z" opacity="1" fill="#ff0066"/>
</g>
<g id="Inside" vectornator:layerName="Inside">
<path d="M1755.53+234.875C1745+235.28+1746.94+250.205+1748.5+257.562C1748.63+258.182+1750.18+262.806+1751.59+266.156C1750.95+265.842+1750.28+265.468+1749.69+265.438C1748.65+265.384+1749.72+267.773+1750.38+268.625C1751.3+269.83+1752.85+270.318+1754.09+271.156C1759.63+274.894+1770.55+279.235+1775.16+271.656C1783.39+258.111+1771.29+234.27+1755.53+234.875ZM2072.66+273.719C2071.28+273.802+2069.8+274.161+2068.22+274.875C2066.76+275.537+2065.39+276.597+2064.44+277.938C2064.07+278.459+2061.12+279.261+2060.25+279.75C2057.97+281.036+2055.76+282.457+2054.31+284.781C2050.5+290.922+2048.95+299.869+2048.56+306.781C2047.95+317.689+2056.12+320.648+2065.28+317.094C2074.45+313.535+2083.72+305.825+2085.5+295.469C2087.01+286.677+2082.31+273.137+2072.66+273.719ZM1477.75+349.312C1473.84+349.309+1470.13+350.688+1467.06+353.938C1459.45+362.001+1457.27+378.587+1459.16+392.219C1460.9+396.282+1464.92+399.29+1468.16+402.094C1476.03+408.923+1491.87+424.195+1503.06+416.25C1515.11+407.696+1511.2+383.142+1506.75+371.344C1503.06+361.554+1489.48+349.322+1477.75+349.312ZM1459.16+392.219C1458.89+391.609+1458.55+391.04+1458.41+390.375L1459.28+393.281C1459.23+392.937+1459.2+392.567+1459.16+392.219ZM1459.28+393.281C1460.04+398.169+1461.31+402.627+1463.09+406.094L1459.28+393.281ZM1737.12+381.875C1733.22+382.035+1730.27+382.721+1726.81+384.688C1707.36+395.764+1712.51+421.977+1726+436.469C1726.73+437.252+1727.8+438.125+1728.72+438.969C1728.99+439.389+1729.37+439.758+1729.91+440.062C1736+445.271+1744.78+450.229+1751.62+445.969C1755.03+443.85+1756.65+440.065+1757.59+436C1778.87+422.619+1759.91+380.94+1737.12+381.875ZM2083.22+401.156C2073.29+400.629+2061.84+404.423+2055.16+408C2043.32+414.331+2029.3+439.422+2042.94+451.062C2051.4+458.286+2067.38+459.063+2080.09+455.844C2083.75+453.647+2086.16+449.162+2088.47+445.531C2094.09+436.681+2106.86+418.756+2098.12+407.781C2094.6+403.35+2089.18+401.473+2083.22+401.156ZM2080.09+455.844C2079.54+456.176+2079.06+456.603+2078.44+456.812L2081.16+455.625C2080.81+455.719+2080.44+455.756+2080.09+455.844ZM2081.16+455.625C2085.68+454.385+2089.74+452.638+2092.81+450.469L2081.16+455.625ZM2363.47+432.281C2347.24+432.845+2328.67+449.852+2331.06+466.844C2331.63+470.913+2332.58+473.945+2334.81+477.375C2347.4+496.694+2371.69+488.916+2383.97+473.5C2384.62+472.684+2385.31+471.513+2386+470.5C2386.4+470.169+2386.73+469.717+2386.97+469.094C2391.25+462.251+2394.99+452.603+2390.22+445.844C2387.85+442.49+2384.1+441.15+2380.16+440.531C2375.91+434.566+2369.9+432.058+2363.47+432.281ZM1885.38+434.375C1881.11+434.381+1876.3+439.62+1873.75+442.812C1873.47+443.169+1871.59+446.168+1870.34+448.5C1870.24+448.001+1870.15+447.472+1869.91+447.125C1869.49+446.515+1868.59+448.208+1868.41+448.969C1868.14+450.045+1868.55+451.134+1868.62+452.219C1868.95+457.053+1871.3+465.225+1877.5+464.344C1888.58+462.769+1896.52+444.979+1889.34+436.375C1888.15+434.938+1886.8+434.373+1885.38+434.375ZM1622.47+486.562C1608.9+486.049+1587.99+498.526+1597+515.719C1598.04+517.711+1599.64+519.546+1601.53+520.656C1602.27+521.089+1603.6+525.181+1604.34+526.344C1606.31+529.406+1608.46+532.331+1611.72+533.969C1620.32+538.296+1632.41+538.77+1641.66+537.969C1656.24+536.703+1659.25+524.255+1653.5+511.656C1647.75+499.044+1636.45+487.091+1622.47+486.562ZM1728.34+508.75C1724.07+508.756+1719.27+514.026+1716.72+517.219C1716.43+517.578+1714.55+520.598+1713.31+522.938C1713.21+522.416+1713.12+521.861+1712.88+521.5C1712.45+520.89+1711.59+522.614+1711.41+523.375C1711.14+524.451+1711.55+525.541+1711.62+526.625C1711.95+531.459+1714.27+539.6+1720.47+538.719C1731.55+537.144+1739.52+519.385+1732.34+510.781C1731.15+509.344+1729.77+508.748+1728.34+508.75ZM1466.69+514.25C1456.16+514.655+1458.1+529.549+1459.66+536.906C1459.79+537.524+1461.34+542.151+1462.75+545.5C1462.11+545.19+1461.47+544.812+1460.88+544.781C1459.84+544.727+1460.91+547.148+1461.56+548C1462.49+549.205+1464.04+549.661+1465.28+550.5C1470.81+554.238+1481.74+558.609+1486.34+551.031C1494.58+537.485+1482.44+513.645+1466.69+514.25ZM1907+608.75C1899.21+608.159+1889.05+614.592+1882.31+621.938C1880.84+624.781+1880.96+628.407+1880.81+631.5C1880.45+639.074+1878.83+654.993+1888.09+657.656C1898.06+660.523+1909.99+647.049+1914.59+639.125C1919.69+630.359+1919.53+609.701+1907+608.75ZM1882.31+621.938C1882.54+621.493+1882.71+621.023+1883.03+620.625L1881.75+622.531C1881.93+622.331+1882.13+622.136+1882.31+621.938ZM1881.75+622.531C1879.41+625.177+1877.51+627.9+1876.38+630.469L1881.75+622.531ZM1496.81+617.406C1492.9+617.403+1489.22+618.782+1486.16+622.031C1478.53+630.106+1476.34+646.732+1478.25+660.375C1480.01+664.408+1484.03+667.397+1487.25+670.188C1495.13+677.017+1510.96+692.289+1522.16+684.344C1534.21+675.79+1530.26+651.236+1525.81+639.438C1522.12+629.648+1508.54+617.415+1496.81+617.406ZM1478.25+660.375C1477.98+659.747+1477.61+659.155+1477.47+658.469L1478.38+661.5C1478.32+661.136+1478.3+660.744+1478.25+660.375ZM1478.38+661.5C1479.14+666.341+1480.42+670.749+1482.19+674.188L1478.38+661.5ZM1706.31+625.188C1695.13+626.189+1682.58+635.715+1676.38+642.562C1667.22+652.663+1661.91+681.273+1678.41+687.562C1688.66+691.471+1703.95+686.633+1714.91+679.156C1717.64+675.807+1718.47+670.755+1719.5+666.531C1722.01+656.202+1728.42+634.798+1716.75+627.438C1713.61+625.456+1710.04+624.854+1706.31+625.188ZM1714.91+679.156C1714.48+679.674+1714.15+680.266+1713.62+680.688L1715.84+678.562C1715.55+678.773+1715.21+678.95+1714.91+679.156ZM1715.84+678.562C1719.68+675.832+1722.96+672.792+1725.16+669.688L1715.84+678.562ZM2392.41+656.562C2376.18+657.127+2357.61+674.134+2360+691.125C2360.57+695.195+2361.55+698.195+2363.78+701.625C2376.37+720.944+2400.66+713.197+2412.94+697.781C2413.6+696.946+2414.33+695.761+2415.03+694.719C2415.4+694.392+2415.71+693.962+2415.94+693.375C2420.21+686.533+2423.96+676.884+2419.19+670.125C2416.81+666.763+2413.05+665.429+2409.09+664.812C2404.84+658.837+2398.85+656.339+2392.41+656.562ZM1393.5+701.812C1389.57+702.231+1386.01+704.418+1383.91+709.281C1383.26+710.784+1382.92+712.519+1383.12+714.094C1383.2+714.707+1381.51+717.358+1381.19+718.312C1380.34+720.826+1379.65+723.352+1380.16+725.938C1381.49+732.77+1386.48+739.813+1390.94+744.656C1397.97+752.298+1406.17+748.273+1410.66+739.25C1415.15+730.217+1416.87+718.374+1411.09+710.25C1407.59+705.324+1400.05+701.115+1393.5+701.812ZM1448.44+741.344C1444.53+741.504+1441.61+742.19+1438.16+744.156C1418.71+755.234+1423.82+781.446+1437.31+795.938C1438.04+796.715+1439.09+797.599+1440+798.438C1440.27+798.868+1440.67+799.221+1441.22+799.531C1447.31+804.74+1456.09+809.729+1462.94+805.469C1466.33+803.355+1467.96+799.554+1468.91+795.5C1490.2+782.127+1471.23+740.409+1448.44+741.344ZM1766.72+742.562C1758.93+741.971+1748.76+748.404+1742.03+755.75C1740.56+758.593+1740.65+762.219+1740.5+765.312C1740.13+772.886+1738.55+788.806+1747.81+791.469C1757.78+794.336+1769.67+780.861+1774.28+772.938C1779.38+764.171+1779.25+743.513+1766.72+742.562ZM1742.03+755.75C1742.26+755.306+1742.43+754.836+1742.75+754.438L1741.47+756.344C1741.65+756.144+1741.85+755.949+1742.03+755.75ZM1741.47+756.344C1739.13+758.99+1737.23+761.712+1736.09+764.281L1741.47+756.344ZM1997.34+768.031C1985.19+767.146+1975.53+780.15+1973.62+792.625C1973.51+793.392+1973.51+794.38+1973.44+795.281C1973.32+795.643+1973.27+796.036+1973.34+796.5C1973.11+802.319+1974.15+809.54+1979.47+811.438C1982.12+812.383+1984.9+811.553+1987.56+810.219C2004.23+816.132+2019.13+786.27+2008.72+773.844C2006.93+771.714+2005.28+770.356+2002.69+769.312C2000.87+768.578+1999.08+768.158+1997.34+768.031ZM1672.88+770.312C1660.72+769.427+1651.06+782.432+1649.16+794.906C1649.04+795.691+1649.01+796.699+1648.94+797.625C1648.84+797.954+1648.79+798.308+1648.84+798.719C1648.6+804.549+1649.66+811.815+1655+813.719C1657.66+814.667+1660.46+813.842+1663.12+812.5C1679.76+818.318+1694.62+788.504+1684.22+776.094C1682.43+773.964+1680.81+772.638+1678.22+771.594C1676.4+770.859+1674.61+770.439+1672.88+770.312ZM2334.34+771.844C2326.38+771.519+2315.87+776.577+2313.12+781.812C2307.25+793.037+2319.88+803.861+2329.56+801.375C2331.64+800.841+2338.92+799.598+2337.44+796.719C2336.25+794.409+2337.09+796.426+2340.28+792.312C2342.83+789.028+2344.27+783.563+2343.69+779.344C2342.97+774.166+2339.12+772.039+2334.34+771.844ZM2137.88+777.469C2129.91+777.144+2119.4+782.171+2116.66+787.406C2110.78+798.631+2123.41+809.455+2133.09+806.969C2135.17+806.435+2142.48+805.223+2141+802.344C2139.81+800.034+2140.62+802.051+2143.81+797.938C2146.36+794.653+2147.83+789.189+2147.25+784.969C2146.53+779.791+2142.65+777.664+2137.88+777.469ZM1189.31+781.281C1185.04+781.302+1180.43+784.411+1178.69+788.562C1177.01+788.475+1175.22+788.655+1173.22+789.562C1171.76+790.225+1170.35+791.316+1169.41+792.656C1169.04+793.178+1166.12+793.949+1165.25+794.438C1162.97+795.724+1160.76+797.144+1159.31+799.469C1155.5+805.61+1153.92+814.557+1153.53+821.469C1152.92+832.377+1161.09+835.336+1170.25+831.781C1179.42+828.223+1188.69+820.512+1190.47+810.156C1190.72+808.69+1190.78+807.08+1190.69+805.438C1195.93+801.822+1198.46+789.879+1196.09+785.406C1194.55+782.494+1192.01+781.268+1189.31+781.281ZM2736.16+791.5C2734.62+791.393+2733.02+791.434+2731.38+791.594C2718.17+792.874+2703.73+799.851+2698.59+813.469C2693.61+826.681+2697.8+851.672+2716.19+848.781C2718.32+848.446+2720.47+847.541+2722.09+846.062C2722.73+845.487+2726.83+845.581+2728.12+845.25C2731.52+844.378+2734.86+843.266+2737.41+840.625C2744.14+833.647+2748.61+821.874+2750.97+812.469C2754.23+799.482+2746.88+792.246+2736.16+791.5ZM1295.84+795.781C1293.99+795.704+1292.13+796.114+1290.5+797.031C1289.1+797.819+1284.12+800.114+1285.56+801.781C1286.72+803.119+1285.85+801.913+1284.16+805.375C1282.8+808.139+1282.51+812.17+1283.5+814.938C1286.73+823.992+1302.85+813.682+1304.81+807.062C1306.78+800.41+1301.4+796.012+1295.84+795.781ZM2504.34+800.969C2502.81+800.862+2501.21+800.903+2499.56+801.062C2486.35+802.342+2471.91+809.32+2466.78+822.938C2461.8+836.149+2465.98+861.141+2484.38+858.25C2486.51+857.915+2488.66+856.978+2490.28+855.5C2490.91+854.924+2495.02+855.019+2496.31+854.688C2499.71+853.816+2503.04+852.735+2505.59+850.094C2512.33+843.116+2516.79+831.343+2519.16+821.938C2522.42+808.951+2515.07+801.715+2504.34+800.969ZM1462.28+826C1453.05+825.436+1442.66+829.513+1438.91+837.719C1437.67+840.421+1437.05+842.634+1437.06+845.562C1437.12+862.055+1454.73+866.31+1468.09+861.438C1468.81+861.175+1469.71+860.718+1470.53+860.344C1470.88+860.283+1471.22+860.12+1471.59+859.844C1476.82+857.246+1482.84+852.753+1482.59+846.844C1482.47+843.911+1480.72+841.717+1478.59+839.875C1478.21+831.036+1470.78+826.519+1462.28+826ZM1672.28+848.594C1661.42+848.61+1648.69+858.641+1640.88+869.625C1639.4+873.771+1640.27+878.857+1640.69+883.219C1641.72+893.854+1642.73+916.308+1656.06+919.031C1670.42+921.964+1684.12+901.834+1688.88+890.25C1694.14+877.434+1689.78+848.568+1672.28+848.594ZM1640.88+869.625C1641.1+868.997+1641.21+868.326+1641.56+867.75L1640.19+870.531C1640.4+870.223+1640.66+869.932+1640.88+869.625ZM1640.19+870.531C1637.48+874.495+1635.39+878.556+1634.34+882.281L1640.19+870.531ZM1837.88+859.25C1828.31+858.728+1810.17+868.847+1813.84+881.031C1816.12+888.592+1825.39+894.998+1834.28+897.75C1837.33+897.765+1840.52+895.928+1843.31+894.562C1850.13+891.235+1864.77+885.019+1863.78+875.062C1862.72+864.343+1846.52+859.722+1837.88+859.25ZM1834.28+897.75C1833.82+897.748+1833.36+897.82+1832.91+897.719L1835+898C1834.76+897.931+1834.52+897.824+1834.28+897.75ZM1835+898C1838.2+898.921+1841.34+899.373+1844.03+899.188L1835+898ZM1270.59+867.812C1260.88+866.808+1250.57+875.003+1245.62+884.781C1245.26+885.507+1244.9+886.492+1244.53+887.375C1244.35+887.644+1244.2+887.959+1244.12+888.344C1242.02+893.899+1240.65+901.3+1244.97+904.969C1247.11+906.79+1249.96+906.916+1252.84+906.531C1266.3+917.892+1289.57+894.149+1283.97+878.594C1283.01+875.927+1281.92+874.079+1279.88+872.188C1276.99+869.524+1273.83+868.147+1270.59+867.812ZM1302.22+870.938C1297.72+870.959+1292.75+874.365+1291.25+878.844C1290.73+880.383+1288.58+885.576+1290.81+885.625C1292.61+885.664+1291.09+885.479+1292.19+889C1293.06+891.812+1295.63+894.677+1298.28+895.781C1306.95+899.396+1312.03+880.858+1308.97+875.062C1307.43+872.15+1304.92+870.925+1302.22+870.938ZM1500.53+910.5C1496.6+910.918+1493.05+913.106+1490.94+917.969C1490.29+919.472+1489.95+921.206+1490.16+922.781C1490.24+923.395+1488.57+926.045+1488.25+927C1487.41+929.513+1486.71+932.07+1487.22+934.656C1488.55+941.489+1493.51+948.501+1497.97+953.344C1505+960.986+1513.2+956.992+1517.69+947.969C1522.18+938.935+1523.9+927.092+1518.12+918.969C1514.62+914.043+1507.08+909.803+1500.53+910.5ZM2286.16+930.656C2272.92+928.781+2256.86+941.954+2258.84+956.312C2260.36+967.276+2274.29+963.894+2281.09+961.594C2281.67+961.4+2285.85+959.348+2288.88+957.562C2288.65+958.261+2288.37+958.998+2288.41+959.625C2288.47+960.715+2290.64+959.388+2291.38+958.625C2292.42+957.546+2292.71+955.873+2293.38+954.5C2296.32+948.378+2299.27+936.564+2291.59+932.438C2289.88+931.516+2288.05+930.924+2286.16+930.656ZM1698+942.969L1695.78+943.5C1696.06+943.476+1696.35+943.487+1696.62+943.469C1697.08+943.301+1697.52+943.038+1698+942.969ZM1696.62+943.469C1693.7+944.548+1691.26+947.33+1689.03+949.562C1683.58+955.025+1671.57+965.921+1675.84+974.688C1680.45+984.126+1697.58+982.604+1706.06+979.969C1715.45+977.053+1729.55+961.353+1721.94+951.5C1717.21+945.38+1706.11+942.83+1696.62+943.469ZM1695.78+943.5C1692.43+943.796+1689.32+944.479+1686.81+945.594L1695.78+943.5ZM2124.09+963.688C2114.8+963.723+2103.46+968.197+2103.06+977.969C2102.73+986.067+2109.28+995.437+2116.59+1001.12C2119.39+1002.15+2122.88+1001.46+2125.88+1001.09C2133.22+1000.2+2148.71+999.179+2151+989.219C2153.47+978.496+2140.06+968.531+2132.25+965.125C2130.09+964.183+2127.19+963.676+2124.09+963.688ZM2116.59+1001.12C2116.15+1000.96+2115.68+1000.89+2115.28+1000.62L2117.19+1001.66C2116.98+1001.5+2116.8+1001.29+2116.59+1001.12ZM2117.19+1001.66C2119.82+1003.61+2122.51+1005.08+2125.03+1005.81L2117.19+1001.66ZM1532.47+977C1526.47+977.272+1519.71+979.535+1514.12+982.656C1511.83+984.901+1510.73+988.45+1509.59+991.406C1506.82+998.602+1500.23+1013.46+1507.91+1019.19C1516.17+1025.36+1531.46+1016.37+1538.25+1010.28C1545.76+1003.55+1552.27+983.566+1541.03+978.375C1538.61+977.257+1535.66+976.855+1532.47+977ZM1514.12+982.656C1514.47+982.321+1514.75+981.922+1515.16+981.656L1513.41+983.031C1513.64+982.898+1513.89+982.787+1514.12+982.656ZM1513.41+983.031C1510.37+984.799+1507.73+986.796+1505.84+988.906L1513.41+983.031ZM1132.03+986.5C1118.47+985.986+1097.59+998.432+1106.59+1015.62C1107.64+1017.62+1109.2+1019.45+1111.09+1020.56C1111.83+1021+1113.19+1025.09+1113.94+1026.25C1115.9+1029.31+1118.03+1032.24+1121.28+1033.88C1129.88+1038.2+1141.98+1038.68+1151.22+1037.88C1165.81+1036.61+1168.81+1024.16+1163.06+1011.56C1157.31+998.95+1146.01+987.029+1132.03+986.5ZM2490.78+1012.47C2477.55+1010.59+2461.48+1023.77+2463.47+1038.12C2464.98+1049.09+2478.92+1045.71+2485.72+1043.41C2486.29+1043.21+2490.48+1041.16+2493.5+1039.38C2493.27+1040.07+2493+1040.78+2493.03+1041.41C2493.09+1042.5+2495.26+1041.17+2496+1040.41C2497.04+1039.33+2497.34+1037.69+2498+1036.31C2500.95+1030.19+2503.89+1018.38+2496.22+1014.25C2494.5+1013.33+2492.67+1012.74+2490.78+1012.47ZM1321.66+1015.31C1311.94+1014.31+1301.63+1022.5+1296.69+1032.28C1296.33+1032.99+1295.98+1033.95+1295.62+1034.81C1295.41+1035.11+1295.24+1035.47+1295.16+1035.91C1293.06+1041.45+1291.74+1048.82+1296.03+1052.47C1298.17+1054.29+1300.99+1054.42+1303.88+1054.03C1317.32+1065.43+1340.63+1041.66+1335.03+1026.09C1334.07+1023.43+1332.99+1021.58+1330.94+1019.69C1328.05+1017.02+1324.89+1015.65+1321.66+1015.31ZM1856.25+1039.94C1842.93+1040.24+1819.89+1056.38+1827.44+1073.03C1832.12+1083.37+1846.28+1091.3+1859.12+1094.19C1863.33+1093.87+1867.33+1090.96+1870.91+1088.75C1879.64+1083.36+1898.63+1073.07+1895.25+1059.25C1891.61+1044.37+1868.29+1039.66+1856.25+1039.94ZM1859.12+1094.19C1858.48+1094.24+1857.84+1094.41+1857.19+1094.31L1860.22+1094.47C1859.86+1094.4+1859.49+1094.27+1859.12+1094.19ZM1860.22+1094.47C1864.8+1095.4+1869.15+1095.7+1872.81+1095.16L1860.22+1094.47ZM2112.28+1057.53C2107.3+1057.77+2102.2+1061.03+2098+1066.38C2089.59+1077.08+2084.13+1092.78+2089.69+1106.31C2095.08+1119.44+2114.81+1134.17+2125.78+1118.47C2127.05+1116.65+2127.95+1114.38+2128.09+1112.12C2128.15+1111.25+2131.1+1108.26+2131.78+1107.06C2133.58+1103.92+2135.2+1100.65+2135.22+1096.88C2135.26+1086.9+2130.45+1075.19+2125.78+1066.72C2122.1+1060.04+2117.26+1057.29+2112.28+1057.53ZM1271.53+1100.91C1267.76+1100.92+1263.03+1103.62+1260.22+1105.47C1259.84+1105.72+1257.14+1108.01+1255.25+1109.84C1255.32+1109.31+1255.42+1108.74+1255.31+1108.31C1255.12+1107.58+1253.76+1108.92+1253.34+1109.59C1252.75+1110.54+1252.78+1111.74+1252.5+1112.81C1251.25+1117.6+1250.79+1126.3+1256.78+1127.56C1267.49+1129.82+1280.53+1115.32+1276.69+1104.56C1275.73+1101.87+1273.8+1100.9+1271.53+1100.91ZM1320+1113.09C1310.43+1112.57+1292.27+1122.69+1295.94+1134.88C1298.22+1142.44+1307.49+1148.84+1316.38+1151.59C1319.43+1151.62+1322.6+1149.78+1325.41+1148.41C1332.22+1145.08+1346.86+1138.86+1345.88+1128.91C1344.81+1118.19+1328.65+1113.57+1320+1113.09ZM1316.38+1151.59C1315.93+1151.59+1315.47+1151.66+1315.03+1151.56L1317.06+1151.84C1316.83+1151.78+1316.61+1151.67+1316.38+1151.59ZM1317.06+1151.84C1320.27+1152.77+1323.43+1153.22+1326.12+1153.03L1317.06+1151.84ZM1427.47+1115.28C1423.7+1115.29+1418.97+1118+1416.16+1119.84C1415.78+1120.09+1413.08+1122.38+1411.19+1124.22C1411.26+1123.69+1411.36+1123.12+1411.25+1122.69C1411.06+1121.95+1409.7+1123.3+1409.28+1123.97C1408.69+1124.92+1408.72+1126.15+1408.44+1127.22C1407.19+1132+1406.69+1140.68+1412.69+1141.94C1423.4+1144.19+1436.47+1129.7+1432.62+1118.94C1431.66+1116.24+1429.73+1115.28+1427.47+1115.28ZM1675.69+1135.16C1671.17+1135.53+1667.11+1137.54+1664.88+1142C1661.18+1149.39+1662.93+1161+1666.91+1169.56C1668.91+1171.78+1672.26+1172.72+1675.03+1173.72C1681.81+1176.17+1695.74+1182.13+1701.94+1173.88C1708.61+1164.99+1701.1+1149.69+1695.72+1143.03C1692+1138.42+1683.21+1134.53+1675.69+1135.16ZM1666.91+1169.56C1666.6+1169.22+1666.23+1168.95+1666+1168.53L1667.19+1170.28C1667.08+1170.06+1667.01+1169.79+1666.91+1169.56ZM1667.19+1170.28C1668.66+1173.3+1670.41+1175.9+1672.31+1177.72L1667.19+1170.28ZM2231.16+1142.06C2226.63+1142.53+2222.39+1144.3+2219.34+1147.62C2217.34+1149.82+2216.09+1151.76+2215.16+1154.59C2209.91+1170.56+2224.75+1180.68+2238.62+1180.53C2239.37+1180.52+2240.32+1180.36+2241.19+1180.28C2241.54+1180.35+2241.93+1180.34+2242.38+1180.19C2248.02+1179.45+2254.98+1177.16+2256.66+1171.38C2257.49+1168.5+2256.59+1165.79+2255.22+1163.28C2259.09+1149.88+2244.04+1140.72+2231.16+1142.06ZM1424.78+1159.31C1406.32+1158.64+1387.75+1186.85+1396.72+1204.88C1398.54+1208.53+1400.41+1211.06+1403.59+1213.53C1421.52+1227.45+1441.92+1211.67+1448.62+1192.81C1448.98+1191.81+1449.27+1190.45+1449.59+1189.25C1449.86+1188.8+1450.03+1188.24+1450.06+1187.56C1451.93+1179.61+1452.42+1169.21+1445.81+1164.47C1442.52+1162.11+1438.57+1162.15+1434.66+1162.94C1431.47+1160.67+1428.14+1159.43+1424.78+1159.31ZM1951.47+1173.91C1950.45+1173.75+1949.47+1173.77+1948.66+1173.94C1939.89+1175.78+1939.36+1187.84+1944.94+1192.16C1946.14+1193.08+1949.99+1196.66+1950.94+1194.5C1951.7+1192.77+1950.96+1194.15+1954.62+1194.06C1957.55+1193.99+1961.2+1192.3+1963.28+1190.03C1969.25+1183.54+1958.61+1175.02+1951.47+1173.91ZM1131.34+1180.72C1125.14+1181.24+1118.98+1186.54+1117.81+1192.97C1117.41+1195.18+1115.46+1202.64+1118.56+1202.47C1121.05+1202.33+1118.96+1202.25+1121.19+1207.06C1122.97+1210.9+1127.08+1214.62+1130.97+1215.88C1143.68+1219.99+1146.94+1193.5+1141.53+1185.72C1138.81+1181.81+1135.07+1180.41+1131.34+1180.72ZM1547.28+1194.31C1545.43+1194.24+1543.57+1194.61+1541.94+1195.53C1540.54+1196.32+1535.53+1198.64+1536.97+1200.31C1538.13+1201.65+1537.29+1200.44+1535.59+1203.91C1534.24+1206.67+1533.95+1210.7+1534.94+1213.47C1538.17+1222.52+1554.26+1212.18+1556.22+1205.56C1558.19+1198.91+1552.83+1194.54+1547.28+1194.31ZM1164.56+1226.06C1158.63+1226.52+1152.75+1229.53+1150.25+1234.97C1146.9+1242.24+1156.55+1245.32+1161.53+1246.44C1161.95+1246.53+1165.3+1246.85+1167.81+1246.88C1167.39+1247.22+1166.95+1247.56+1166.72+1247.97C1166.33+1248.66+1168.14+1248.63+1168.88+1248.44C1169.92+1248.16+1170.76+1247.25+1171.69+1246.66C1175.83+1244.01+1182.2+1237.87+1179.19+1232.5C1176.5+1227.7+1170.5+1225.61+1164.56+1226.06ZM1218.94+1238.78C1206.84+1236.72+1201.55+1252.8+1207.16+1261.53C1208.36+1263.41+1212+1270.2+1214.06+1267.78C1215.72+1265.84+1214.2+1267.31+1219+1269.09C1222.83+1270.52+1228.24+1270.14+1231.81+1268.16C1243.51+1261.67+1227.97+1240.32+1218.94+1238.78ZM1788.62+1241.69C1782.42+1242.2+1776.29+1247.48+1775.12+1253.91C1774.72+1256.12+1772.74+1263.61+1775.84+1263.44C1778.33+1263.3+1776.24+1263.22+1778.47+1268.03C1780.25+1271.87+1784.4+1275.58+1788.28+1276.84C1800.99+1280.96+1804.25+1254.46+1798.84+1246.69C1796.12+1242.78+1792.35+1241.38+1788.62+1241.69ZM1547.16+1250.53C1537.92+1249.97+1527.5+1254.08+1523.75+1262.28C1522.51+1264.98+1521.93+1267.17+1521.94+1270.09C1522+1286.59+1539.61+1290.87+1552.97+1286C1553.69+1285.74+1554.56+1285.28+1555.38+1284.91C1555.74+1284.85+1556.12+1284.7+1556.5+1284.41C1561.72+1281.8+1567.68+1277.3+1567.44+1271.41C1567.32+1268.46+1565.58+1266.25+1563.44+1264.41C1563.04+1255.57+1555.66+1251.05+1547.16+1250.53ZM2119.44+1261.34C2114.91+1261.81+2110.67+1263.58+2107.62+1266.91C2105.62+1269.1+2104.37+1271.01+2103.44+1273.84C2098.19+1289.81+2113.03+1299.93+2126.91+1299.78C2127.65+1299.77+2128.6+1299.64+2129.47+1299.56C2129.82+1299.63+2130.21+1299.59+2130.66+1299.44C2136.3+1298.7+2143.26+1296.41+2144.94+1290.62C2145.77+1287.74+2144.87+1285.01+2143.5+1282.5C2147.32+1269.12+2132.3+1260.01+2119.44+1261.34ZM1195.09+1268.19C1193.39+1268.02+1191.66+1268.08+1189.72+1268.41C1167.82+1272.08+1164.44+1298.56+1172.66+1316.88C1173.1+1317.87+1173.83+1319.04+1174.44+1320.16C1174.56+1320.65+1174.81+1321.12+1175.22+1321.59C1179.35+1328.61+1186.09+1336.35+1193.91+1334.72C1197.8+1333.9+1200.55+1330.88+1202.72+1327.38C1227.05+1322.15+1222.21+1276.37+1200.34+1269.34C1198.47+1268.74+1196.8+1268.35+1195.09+1268.19ZM2037.03+1282.09C2028.26+1283.93+2027.73+1296.03+2033.31+1300.34C2034.51+1301.27+2038.36+1304.81+2039.31+1302.66C2040.08+1300.93+2039.3+1302.31+2042.97+1302.22C2045.9+1302.15+2049.57+1300.45+2051.66+1298.19C2058.48+1290.77+2043.58+1280.72+2037.03+1282.09ZM1859.16+1285.03C1840.69+1284.36+1822.15+1312.53+1831.12+1330.56C1832.94+1334.22+1834.79+1336.75+1837.97+1339.22C1855.89+1353.14+1876.32+1337.38+1883.03+1318.53C1883.4+1317.5+1883.7+1316.11+1884.03+1314.88C1884.26+1314.45+1884.4+1313.96+1884.44+1313.34C1886.32+1305.38+1886.84+1294.94+1880.22+1290.19C1876.93+1287.83+1872.94+1287.84+1869.03+1288.62C1865.85+1286.37+1862.51+1285.15+1859.16+1285.03ZM1020.53+1287.12C1008.87+1285.14+1003.61+1299.95+1008.25+1308.84C1006.63+1310.63+1005.35+1312.91+1004.53+1315.91C1003.94+1318.08+1003.84+1320.51+1004.44+1322.69C1004.67+1323.54+1002.87+1327.41+1002.62+1328.78C1001.97+1332.39+1001.53+1336.06+1002.75+1339.62C1005.98+1349.04+1014.3+1358.33+1021.44+1364.62C1032.7+1374.56+1043.22+1368.05+1047.59+1354.94C1051.97+1341.81+1051.91+1325.05+1042.28+1314.31C1040.95+1312.82+1039.28+1311.46+1037.47+1310.19C1038.3+1301.34+1027.51+1288.31+1020.53+1287.12ZM1590.62+1309C1583.3+1309.73+1581.01+1321.81+1580.28+1328.34C1580.21+1328.97+1580.25+1333.83+1580.53+1337.47C1580.03+1336.96+1579.52+1336.39+1578.97+1336.16C1578+1335.75+1578.24+1338.38+1578.59+1339.41C1579.09+1340.86+1580.4+1341.84+1581.31+1343.06C1585.37+1348.5+1594.35+1356.41+1601.09+1350.88C1613.15+1340.98+1609.17+1314.33+1594.06+1309.44C1592.8+1309.03+1591.67+1308.9+1590.62+1309ZM2374.94+1316.56C2365.61+1315.56+2356.89+1334.67+2359.12+1342.75C2362.55+1355.12+2378.69+1353.49+2383.81+1344.53C2384.91+1342.61+2389.23+1336.3+2386.25+1335.34C2383.86+1334.58+2385.81+1335.4+2385.28+1330.09C2384.86+1325.86+2382.18+1320.89+2378.94+1318.31C2377.61+1317.26+2376.27+1316.71+2374.94+1316.56ZM1928.53+1327.16C1924.18+1326.95+1919.82+1328.29+1916.78+1331.59C1911.36+1337.48+1919.27+1343.78+1923.5+1346.56C1923.86+1346.8+1926.82+1348.21+1929.12+1349.09C1928.63+1349.29+1928.12+1349.47+1927.78+1349.78C1927.2+1350.32+1928.85+1350.93+1929.59+1351C1930.64+1351.09+1931.7+1350.48+1932.75+1350.22C1937.42+1349.07+1945.26+1345.31+1944.22+1339.09C1943.05+1332.14+1935.79+1327.5+1928.53+1327.16ZM1735.31+1334.84C1725.73+1335.02+1714.65+1339.16+1709.56+1348.5C1704.63+1357.56+1705.04+1375.43+1718.5+1374.41C1720.06+1374.29+1721.68+1373.77+1723+1372.81C1723.51+1372.44+1726.45+1372.73+1727.41+1372.56C1729.93+1372.13+1732.43+1371.54+1734.53+1369.81C1740.08+1365.25+1744.49+1357.2+1747.16+1350.69C1751.37+1340.4+1744.89+1334.67+1735.31+1334.84ZM1286.72+1336.94C1280.78+1337.39+1274.88+1340.4+1272.38+1345.84C1269.03+1353.11+1278.71+1356.22+1283.69+1357.34C1284.11+1357.44+1287.46+1357.72+1289.97+1357.75C1289.55+1358.1+1289.1+1358.44+1288.88+1358.84C1288.49+1359.53+1290.29+1359.54+1291.03+1359.34C1292.08+1359.07+1292.88+1358.16+1293.81+1357.56C1297.96+1354.91+1304.32+1348.78+1301.31+1343.41C1298.62+1338.6+1292.65+1336.48+1286.72+1336.94ZM1409.94+1344.75C1408.23+1344.58+1406.51+1344.64+1404.56+1344.97C1382.67+1348.65+1379.29+1375.12+1387.5+1393.44C1387.95+1394.44+1388.69+1395.65+1389.31+1396.78C1389.44+1397.26+1389.66+1397.73+1390.06+1398.19C1394.19+1405.2+1400.97+1412.92+1408.78+1411.28C1412.67+1410.47+1415.39+1407.47+1417.56+1403.97C1441.91+1398.75+1437.08+1352.93+1415.22+1345.91C1413.34+1345.3+1411.64+1344.92+1409.94+1344.75ZM1558.22+1377.16C1539.28+1376.35+1516.56+1392.09+1505.78+1403.12C1491.1+1418.15+1482.6+1460.71+1509.06+1470.06C1525.66+1475.93+1550.49+1468.58+1568.09+1457.28C1572.19+1452.29+1573.37+1444.9+1574.97+1438.78C1578.99+1423.41+1589.25+1391.58+1570.53+1380.62C1566.75+1378.41+1562.59+1377.34+1558.22+1377.16ZM1568.09+1457.28C1567.33+1458.21+1566.49+1459.11+1565.5+1459.84L1569+1456.75C1568.71+1456.94+1568.38+1457.1+1568.09+1457.28ZM1569+1456.75C1575.2+1452.67+1580.48+1448.11+1584.03+1443.47L1569+1456.75ZM2088.25+1386.53C2085.82+1386.43+2083.35+1386.75+2080.91+1387.59C2071.42+1390.85+2059.39+1404.68+2068.97+1413.72C2070.08+1414.77+2071.54+1415.54+2073.06+1415.78C2073.66+1415.87+2075.38+1418.24+2076.12+1418.81C2078.08+1420.33+2080.15+1421.71+2082.72+1421.94C2089.51+1422.53+2097.95+1419.64+2104.19+1416.66C2114.03+1411.95+2113.68+1402.88+2107.25+1396.03C2102.42+1390.89+2095.53+1386.82+2088.25+1386.53ZM1435.12+1468.62C1427.8+1469.35+1425.54+1481.44+1424.81+1487.97C1424.74+1488.6+1424.77+1493.51+1425.06+1497.16C1424.55+1496.63+1424.03+1496.05+1423.47+1495.81C1422.5+1495.4+1422.74+1498.03+1423.09+1499.06C1423.59+1500.52+1424.93+1501.5+1425.84+1502.72C1429.9+1508.16+1438.88+1516.03+1445.62+1510.5C1457.68+1500.61+1453.7+1473.96+1438.59+1469.06C1437.33+1468.65+1436.17+1468.52+1435.12+1468.62ZM1971.97+1480.06C1967.61+1479.85+1963.26+1481.2+1960.22+1484.5C1954.8+1490.39+1962.71+1496.69+1966.94+1499.47C1967.29+1499.7+1970.26+1501.12+1972.56+1502C1972.08+1502.19+1971.55+1502.38+1971.22+1502.69C1970.64+1503.22+1972.32+1503.81+1973.06+1503.88C1974.11+1503.97+1975.17+1503.38+1976.22+1503.12C1980.89+1501.98+1988.7+1498.22+1987.66+1492C1986.49+1485.05+1979.23+1480.41+1971.97+1480.06ZM2201.31+1481.31C2196.33+1481.55+2191.23+1484.81+2187.03+1490.16C2180.47+1498.51+2175.8+1509.88+2176.66+1520.91C2171.43+1526.59+2168.69+1534.29+2174.81+1540.06C2175.92+1541.11+2177.35+1541.89+2178.88+1542.12C2179.47+1542.22+2181.23+1544.58+2181.97+1545.16C2183.93+1546.67+2185.96+1548.06+2188.53+1548.28C2191.01+1548.5+2193.73+1548.14+2196.47+1547.59C2202.95+1550.09+2209.79+1549.44+2214.81+1542.25C2216.08+1540.43+2216.98+1538.2+2217.12+1535.94C2217.18+1535.06+2220.13+1532.07+2220.81+1530.88C2222.61+1527.73+2224.24+1524.46+2224.25+1520.69C2224.29+1510.71+2219.48+1499+2214.81+1490.53C2211.13+1483.85+2206.29+1481.07+2201.31+1481.31ZM2501.97+1485.38C2492.64+1484.37+2483.92+1503.48+2486.16+1511.56C2489.58+1523.94+2505.75+1522.3+2510.88+1513.34C2511.98+1511.42+2516.26+1505.14+2513.28+1504.19C2510.89+1503.42+2512.84+1504.24+2512.31+1498.94C2511.89+1494.7+2509.22+1489.74+2505.97+1487.16C2504.64+1486.1+2503.3+1485.52+2501.97+1485.38ZM1544.97+1525.34C1535.38+1525.52+1524.34+1529.66+1519.25+1539C1514.31+1548.06+1514.69+1565.96+1528.16+1564.94C1529.72+1564.82+1531.37+1564.27+1532.69+1563.31C1533.2+1562.94+1536.14+1563.26+1537.09+1563.09C1539.61+1562.67+1542.12+1562.07+1544.22+1560.34C1549.77+1555.78+1554.18+1547.7+1556.84+1541.19C1561.05+1530.9+1554.54+1525.17+1544.97+1525.34ZM1972.69+1530.84C1970.75+1530.92+1968.78+1531.41+1966.81+1532.41C1957.07+1537.35+1949.78+1552.2+1947.28+1565.69C1947.65+1570.12+1950.54+1574.36+1952.72+1578.12C1958.03+1587.28+1968.19+1607.16+1981.28+1603.56C1995.38+1599.69+1999.41+1575.21+1998.91+1562.56C1998.42+1550.32+1986.24+1530.31+1972.69+1530.84ZM1947.28+1565.69C1947.23+1565.03+1947.05+1564.39+1947.12+1563.72L1947.03+1566.78C1947.09+1566.42+1947.21+1566.05+1947.28+1565.69ZM1947.03+1566.78C1946.22+1571.63+1946.06+1576.29+1946.66+1580.16L1947.03+1566.78ZM1208.69+1535.09C1201.05+1534.45+1193.94+1537.44+1191.38+1546.81C1190.78+1548.99+1190.71+1551.44+1191.31+1553.62C1191.55+1554.47+1189.75+1558.35+1189.5+1559.72C1188.84+1563.33+1188.4+1566.97+1189.62+1570.53C1192.85+1579.95+1201.17+1589.27+1208.31+1595.56C1219.58+1605.49+1230.1+1598.95+1234.47+1585.84C1238.84+1572.72+1238.78+1555.99+1229.16+1545.25C1224.49+1540.04+1216.32+1535.74+1208.69+1535.09ZM1758.72+1559.66C1753.68+1560.19+1748.13+1562.66+1746.12+1565.5C1740.75+1573.11+1748.69+1581.47+1755.88+1580.25C1757.42+1579.99+1762.76+1579.52+1762+1577.41C1761.39+1575.71+1761.76+1577.17+1764.47+1574.44C1766.63+1572.26+1768.26+1568.48+1768.28+1565.47C1768.32+1560.54+1763.76+1559.12+1758.72+1559.66ZM1815.38+1613.47C1801.16+1614.05+1788.1+1633.74+1794.94+1647.56C1799.81+1657.42+1811.85+1649.41+1817.53+1644.88C1818.01+1644.49+1821.34+1641.05+1823.62+1638.31C1823.63+1639.06+1823.58+1639.85+1823.81+1640.44C1824.21+1641.45+1825.83+1639.45+1826.28+1638.47C1826.92+1637.09+1826.65+1635.4+1826.84+1633.88C1827.69+1627.06+1826.77+1614.84+1818.25+1613.59C1817.3+1613.45+1816.32+1613.43+1815.38+1613.47ZM1486.84+1684.88C1472.63+1685.45+1459.54+1705.17+1466.38+1719C1471.25+1728.85+1483.29+1720.82+1488.97+1716.28C1489.45+1715.9+1492.78+1712.46+1495.06+1709.72C1495.06+1710.48+1495.01+1711.28+1495.25+1711.88C1495.65+1712.89+1497.27+1710.85+1497.72+1709.88C1498.36+1708.49+1498.09+1706.84+1498.28+1705.31C1499.13+1698.5+1498.21+1686.27+1489.69+1685.03C1488.74+1684.89+1487.79+1684.84+1486.84+1684.88ZM1720.28+1708.75C1715.24+1709.28+1709.69+1711.76+1707.69+1714.59C1702.31+1722.2+1710.25+1730.56+1717.44+1729.34C1718.98+1729.08+1724.32+1728.62+1723.56+1726.5C1722.95+1724.8+1723.32+1726.29+1726.03+1723.56C1728.2+1721.38+1729.82+1717.58+1729.84+1714.56C1729.88+1709.63+1725.32+1708.22+1720.28+1708.75Z" opacity="1" fill="#ac00ff"/>
</g>
</svg>
