<?xml version="1.0" encoding="UTF-8" standalone="no"?> <!-- Created with Vectornator Pro for iOS (http://vectornator.io/) --><!DOCTYPE svg PUBLIC "-//W3C//DTD SVG 1.1//EN" "http://www.w3.org/Graphics/SVG/1.1/DTD/svg11.dtd">
<svg height="100%" style="fill-rule:evenodd;clip-rule:evenodd;stroke-linecap:round;stroke-linejoin:round;" xmlns:xlink="http://www.w3.org/1999/xlink" xmlns="http://www.w3.org/2000/svg" xml:space="preserve" width="100%" xmlns:vectornator="http://vectornator.io" version="1.1" viewBox="0 0 3840 2160">
<metadata>
<vectornator:setting key="RulersVisible" value="1"/>
<vectornator:setting key="GridSpacing" value="36"/>
<vectornator:setting key="Units" value="Pixels"/>
<vectornator:setting key="DynamicGuides" value="0"/>
<vectornator:setting key="SnapToPoints" value="0"/>
<vectornator:setting key="CMYKEnabledKey" value="0"/>
<vectornator:setting key="SnapToGrid" value="0"/>
<vectornator:setting key="ShowGrid" value="1"/>
<vectornator:setting key="SnapToEdges" value="0"/>
</metadata>
<defs/>
<g id="Layer 1" vectornator:layerName="Layer 1">
<path stroke="#b12100" stroke-width="17.04" d="M2228.59+2162.52C2215.9+2167.28+2198.56+2169.99+2187.17+2177.59C2183.47+2180.05+2181.04+2184.01+2177.75+2187C2167.9+2195.95+2158.02+2205.05+2147.62+2213.36" fill="none" stroke-linecap="round" opacity="1" stroke-linejoin="round"/>
<path d="M882.031+387.25C840.389+387.382+798.03+398.042+756.312+422.562C709.833+449.881+673.504+490.197+650.25+538.812C629.728+581.716+623.053+630.688+618.188+677.406C612.816+728.978+609.295+779.464+624.531+829.938C658.72+943.197+767.073+1022.16+842.562+1107.09C900.756+1172.56+956.165+1240.81+994.5+1320.25C1040.21+1414.98+1047.2+1520.74+1055.12+1623.84C1055.56+1629.5+1055.97+1635.31+1056.38+1641.03C1029.17+1733.09+1035.84+1823.43+1167.44+1816.47C1073.44+1811.39+1052.09+1759.58+1061.06+1696.84C1064.06+1725.17+1068.55+1753.29+1077.19+1779.81L1080.81+1779.19C1074.13+1741.16+1069.82+1705.06+1066.41+1670.19C1081.22+1612.12+1115.55+1549.28+1139.47+1507.06C1245.34+1320.23+1394.24+1142.92+1538+983.938C1611.43+902.73+1760.12+770.092+1776.62+657.375C1789.93+566.549+1707.68+535.47+1629.88+538.719C1530.77+542.857+1319.41+602.832+1259.41+701.906C1258.97+702.051+1258.39+702.233+1257.97+702.375C1259.58+686.572+1252.38+665.522+1247.53+653.438C1224.5+596.085+1176.75+545.441+1132.47+503.906C1061.84+437.65+973.645+386.96+882.031+387.25ZM881.696+417.896C985.825+415.949+1079.15+483.548+1151.92+562.271C1180.68+593.384+1207.64+628.097+1228.85+664.864C1230.72+668.094+1247.39+712.858+1248.85+716.333C1245.96+715.775+1242.89+715.57+1241.38+716.552C1239.71+717.646+1239.13+719.181+1239.04+720.833C1236.36+721.49+1234.85+721.935+1230.98+722.802L1232.54+726.427C1236.87+725.023+1235.59+725.416+1239.6+724.114C1241.83+729.912+1249.46+735.881+1254.1+733.927C1256.23+733.03+1257.94+731.783+1259.45+730.364C1259.17+731.016+1258.8+731.647+1258.54+732.302C1251.63+749.497+1259.27+769.361+1260.32+787.864L1277.17+780.364C1278.1+765.747+1278.44+751.087+1279.98+736.521C1280.83+728.495+1290.71+715.848+1302.04+703.771C1337.53+692.113+1330.93+694.099+1302.42+703.333C1314.84+690.151+1328.94+677.749+1335.2+672.989C1413.97+613.044+1508.24+578.913+1605.95+566.802C1685.2+556.978+1790.02+563.518+1772.32+669.677C1754.19+778.426+1508.83+907.541+1437.59+986.734C1295.55+1144.61+1195.91+1351.96+1088.64+1535.08C1069.92+1567.03+1005.63+1163.16+857.085+1075.18C790.871+1035.95+671.536+939.88+641.009+841.208C625.8+792.047+628.835+741.755+634.478+691.427C639.569+646.018+646.476+598.232+666.728+556.677C692.798+503.182+736.665+460.119+791.884+437.177C822.521+424.448+852.54+418.441+881.696+417.896ZM1259.22+702.25C1258.69+703.124+1258.19+703.995+1257.69+704.875C1257.81+704.16+1257.86+703.396+1257.94+702.656C1258.46+702.485+1258.7+702.418+1259.22+702.25ZM1239.69+708.625C1239.72+708.697+1239.77+708.757+1239.94+708.844C1239.71+708.99+1239.5+709.108+1240.09+709C1242.89+710.564+1244.39+716.59+1240.5+712.688C1238.23+710.407+1237.04+711.169+1237.72+710.312C1238.17+709.735+1238.66+709.27+1239.16+708.781C1239.43+708.692+1239.41+708.713+1239.69+708.625Z" stroke="#b12100" stroke-width="17.04" fill="#b12100" opacity="1" stroke-linejoin="round"/>
<path d="M1673.97+1065.53C1548.54+1469.15+1370.05+1586.53+1370.05+1586.53L1585.53+1700.7C1585.53+1700.7+1757.59+1774.67+1783.32+1756.98C1796.05+1748.23+1643.42+1543.12+1643.42+1543.12C1643.42+1543.12+1648.66+1365.93+1747.94+1314.77C1766.12+1305.41+1888.81+1345.25+1921.61+1354.97C2035.04+1388.6+2117.08+1467.32+2194.97+1443.42C2336.48+1400+1924.82+1194.17+1936.08+1166.83C1947.34+1139.5+2363.82+1012.46+2363.82+1012.46L2188.54+965.829L2183.72+817.889L2103.32+904.724C2103.32+904.724+1799.4+661.91+1673.97+1065.53Z" stroke="#b12100" stroke-width="17.04" fill="#b12100" opacity="1" stroke-linejoin="round"/>
</g>
</svg>
