<?xml version="1.0" encoding="UTF-8" standalone="no"?> <!-- Created with Vectornator Pro for iOS (http://vectornator.io/) --><!DOCTYPE svg PUBLIC "-//W3C//DTD SVG 1.1//EN" "http://www.w3.org/Graphics/SVG/1.1/DTD/svg11.dtd">
<svg height="100%" style="fill-rule:evenodd;clip-rule:evenodd;stroke-linecap:round;stroke-linejoin:round;" xmlns:xlink="http://www.w3.org/1999/xlink" xmlns="http://www.w3.org/2000/svg" xml:space="preserve" width="100%" xmlns:vectornator="http://vectornator.io" version="1.1" viewBox="0 0 3840 2160">
<metadata>
<vectornator:setting key="RulersVisible" value="1"/>
<vectornator:setting key="CMYKEnabledKey" value="0"/>
<vectornator:setting key="Units" value="Points"/>
<vectornator:setting key="GridSpacing" value="36"/>
<vectornator:setting key="DynamicGuides" value="0"/>
<vectornator:setting key="ShowGrid" value="1"/>
</metadata>
<defs/>
<g id="Outline" vectornator:layerName="Outline">
<path d="M1929.52+1180.92C1407.75+1180.69+1061.75+1177.21+579.531+1173.16C1011.25+1170.24+1254.5+1165.5+1924.74+1165.5C1939.58+1165.5+1969.92+1165.64+1969.92+1165.64C1969.92+1165.64+1998.69+1165.52+2013.38+1165.52C2614.4+1165.89+2823.7+1169.95+3260.47+1173.16C2707.76+1176.82+2523.7+1181.19+1929.52+1180.92Z" opacity="1" fill="#ffffff"/>
</g>
<g id="Dark" vectornator:layerName="Dark">
<path d="M1912.29+1177.72L1975.89+1178.47L2012.8+1177.7C2012.8+1177.7+2050.45+1178.42+2062.84+1178.4C2082.89+1178.38+2100.34+1177.56+2100.34+1177.56C2100.34+1177.56+2154.07+1178.28+2169.69+1178.26C2188.18+1178.22+2180.56+1177.41+2180.56+1177.41C2180.56+1177.41+2263.14+1178.06+2282.05+1178.01C2303.57+1177.95+2286.98+1177.15+2286.98+1177.15C2286.98+1177.15+2383.27+1177.7+2401.64+1177.63C2414.34+1177.58+2381.29+1176.87+2381.29+1176.87C2381.29+1176.87+2472.49+1177.35+2488.63+1177.28C2503.5+1177.21+2466.74+1176.41+2466.74+1176.41C2466.74+1176.41+2568.9+1176.88+2586.4+1176.78C2600.66+1176.7+2538.45+1175.82+2538.45+1175.82C2538.45+1175.82+2660.24+1176.32+2675.48+1176.21C2687.66+1176.13+2620.71+1175.26+2620.71+1175.26C2620.71+1175.26+2743.41+1175.69+2758.44+1175.55C2772.91+1175.42+2698.18+1174.53+2698.18+1174.53C2698.18+1174.53+2831.66+1174.81+2845.64+1174.63C2861.54+1174.42+2916.47+1173.45+2925.34+1173.16C2920.92+1173.02+2915.56+1172.88+2909.3+1172.74C2900.62+1172.55+2855.3+1171.82+2841.97+1171.65C2831.58+1171.52+2722.13+1171.9+2722.13+1171.9C2722.13+1171.9+2785.42+1171.03+2772.9+1170.91C2759.76+1170.78+2634.77+1171.22+2634.77+1171.22C2634.77+1171.22+2695.34+1170.25+2675.89+1170.12C2655.54+1169.97+2524.05+1170.62+2524.05+1170.62C2524.05+1170.62+2577.48+1169.5+2559.46+1169.4C2539.2+1169.29+2434.64+1169.95+2434.64+1169.95C2434.64+1169.95+2460.6+1168.93+2441.89+1168.85C2423.9+1168.78+2343.43+1169.43+2343.43+1169.43C2343.43+1169.43+2359.57+1168.55+2345.67+1168.51C2332.42+1168.46+2274.38+1169.14+2274.38+1169.14C2274.38+1169.14+2281.25+1168.32+2268.97+1168.29C2255.08+1168.25+2204.9+1168.95+2204.9+1168.95C2204.9+1168.95+2202.61+1168.13+2190.32+1168.11C2177.55+1168.09+2132.95+1168.74+2132.95+1168.74C2132.95+1168.74+2129.71+1168.01+2118.61+1167.99C2105.94+1167.97+2073.78+1168.58+2073.78+1168.58C2073.78+1168.58+2059.33+1167.92+2048.74+1167.91C2034.26+1167.9+2004.36+1168.54+2004.36+1168.54C2004.36+1168.54+1979.79+1167.86+1967.09+1167.86C1951.48+1167.85+1927.92+1168.55+1927.92+1168.55C1927.92+1168.55+1893.28+1167.86+1877.51+1167.87C1866.41+1167.88+1853.04+1168.64+1853.04+1168.64C1853.04+1168.64+1805.88+1167.96+1789.37+1167.98C1757.18+1168.03+1780.11+1168.79+1780.11+1168.79C1780.11+1168.79+1708.12+1168.13+1695.64+1168.16C1677.86+1168.21+1683.68+1169+1683.68+1169C1683.68+1169+1607.53+1168.41+1590.26+1168.47C1570.75+1168.54+1594.02+1169.41+1594.02+1169.41C1594.02+1169.41+1500.83+1168.8+1485.38+1168.86C1465.79+1168.94+1492.98+1169.86+1492.98+1169.86C1492.98+1169.86+1391.62+1169.26+1374.25+1169.34L1401.95+1170.41C1401.95+1170.41+1280.27+1169.8+1267.42+1169.87C1251.13+1169.96+1302.25+1171.02+1302.25+1171.02C1302.25+1171.02+1178.63+1170.36+1160.45+1170.46C1142.25+1170.57+1193.4+1171.56+1193.4+1171.56L1055.81+1171.11L1117.08+1172.14C1117.08+1172.14+979.363+1171.9+971.636+1172.01C959.652+1172.19+921.122+1172.96+914.656+1173.16C923.221+1173.44+935.288+1173.71+950.589+1173.98C962.143+1174.18+975.541+1174.38+990.667+1174.58C1004.36+1174.76+1019.47+1174.94+1035.91+1175.11C1053.05+1175.29+1184.39+1174.58+1184.39+1174.58C1184.39+1174.58+1119.82+1175.88+1134.87+1176C1153.01+1176.13+1252.82+1175.41+1252.82+1175.41C1252.82+1175.41+1222.35+1176.6+1238.26+1176.69C1260.11+1176.82+1351.36+1176.17+1351.36+1176.17C1351.36+1176.17+1341.63+1177.23+1359.92+1177.31C1375.01+1177.38+1437.29+1176.85+1437.29+1176.85C1437.29+1176.85+1439.9+1177.64+1457.27+1177.7C1472.75+1177.75+1532.99+1177.13+1532.99+1177.13C1532.99+1177.13+1534.83+1177.95+1550.33+1177.99C1568.39+1178.04+1622.61+1177.4+1622.61+1177.4C1622.61+1177.4+1636.34+1178.19+1652.13+1178.22C1669.24+1178.26+1717.44+1177.53+1717.44+1177.53C1717.44+1177.53+1733.01+1178.35+1747.69+1178.37C1766+1178.39+1815.02+1177.71+1815.02+1177.71C1815.02+1177.71+1841.4+1178.46+1860.78+1178.46C1880.38+1178.47+1912.29+1177.72+1912.29+1177.72Z" opacity="1" fill="#000000"/>
</g>
<g id="White" vectornator:layerName="White">
<path d="M1920+1182.89C1653.84+1182.89+1438.06+1178.58+1438.06+1173.27C1438.06+1167.96+1653.84+1163.66+1920+1163.66C2186.16+1163.66+2401.94+1167.96+2401.94+1173.27C2401.94+1178.58+2186.16+1182.89+1920+1182.89Z" opacity="1" fill="#ffffff"/>
</g>
<g id="Pupil" vectornator:layerName="Pupil">
<path d="M1900.43+1181.8C1689.41+1181.8+1518.35+1178.49+1518.35+1174.42C1518.35+1170.34+1689.41+1167.04+1900.43+1167.04C2111.45+1167.04+2290.91+1170.45+2290.91+1174.53C2290.91+1178.6+2111.45+1181.8+1900.43+1181.8Z" opacity="1" fill="#000000"/>
</g>
</svg>
