<?xml version="1.0" encoding="UTF-8" standalone="no"?> <!-- Created with Vectornator Pro for iOS (http://vectornator.io/) --><!DOCTYPE svg PUBLIC "-//W3C//DTD SVG 1.1//EN" "http://www.w3.org/Graphics/SVG/1.1/DTD/svg11.dtd">
<svg height="100%" style="fill-rule:evenodd;clip-rule:evenodd;stroke-linecap:round;stroke-linejoin:round;" xmlns:xlink="http://www.w3.org/1999/xlink" xmlns="http://www.w3.org/2000/svg" xml:space="preserve" width="100%" xmlns:vectornator="http://vectornator.io" version="1.1" viewBox="0 0 3840 2160">
<metadata>
<vectornator:setting key="DynamicGuides" value="0"/>
<vectornator:setting key="CMYKEnabledKey" value="0"/>
<vectornator:setting key="Units" value="Points"/>
<vectornator:setting key="GridSpacing" value="36"/>
<vectornator:setting key="RulersVisible" value="1"/>
<vectornator:setting key="ShowGrid" value="1"/>
</metadata>
<defs/>
<g id="Outline" vectornator:layerName="Outline">
<path d="M1929.52+192.295C1407.75+221.738+1061.75+656.342+579.531+1163.09C1011.25+1528.79+1254.5+2122.04+1924.74+2122.04C1939.58+2122.04+1969.92+2104.02+1969.92+2104.02C1969.92+2104.02+1998.69+2119.88+2013.38+2118.77C2614.4+2073.39+2823.7+1565.37+3260.47+1163.09C2707.76+705.709+2523.7+158.764+1929.52+192.295Z" opacity="1" fill="#ffffff"/>
</g>
<g id="Dark" vectornator:layerName="Dark">
<path d="M1912.29+592.892L1975.89+499.839L2012.8+595.854C2012.8+595.854+2050.45+505.878+2062.84+507.439C2082.89+509.965+2100.34+612.818+2100.34+612.818C2100.34+612.818+2154.07+522.569+2169.69+526.054C2188.18+530.178+2180.56+632.143+2180.56+632.143C2180.56+632.143+2263.14+550.858+2282.05+557.124C2303.57+564.257+2286.98+664.063+2286.98+664.063C2286.98+664.063+2383.27+595.79+2401.64+604.221C2414.34+610.053+2381.29+699.584+2381.29+699.584C2381.29+699.584+2472.49+639.565+2488.63+648.699C2503.5+657.114+2466.74+757.279+2466.74+757.279C2466.74+757.279+2568.9+698.411+2586.4+710.852C2600.66+720.992+2538.45+830.443+2538.45+830.443C2538.45+830.443+2660.24+768.041+2675.48+781.531C2687.66+792.309+2620.71+901.313+2620.71+901.313C2620.71+901.313+2743.41+847.208+2758.44+864.103C2772.91+880.356+2698.18+991.758+2698.18+991.758C2698.18+991.758+2831.66+957.661+2845.64+980.146C2861.54+1005.71+2916.47+1127.88+2925.34+1163.09C2920.92+1180.65+2915.56+1198.21+2909.3+1215.71C2900.62+1239.99+2855.3+1330.88+2841.97+1351.9C2831.58+1368.27+2722.13+1321.14+2722.13+1321.14C2722.13+1321.14+2785.42+1430.67+2772.9+1445.44C2759.76+1460.93+2634.77+1405.71+2634.77+1405.71C2634.77+1405.71+2695.34+1527.05+2675.89+1544.29C2655.54+1562.31+2524.05+1481.34+2524.05+1481.34C2524.05+1481.34+2577.48+1621.86+2559.46+1633.88C2539.2+1647.4+2434.64+1565.09+2434.64+1565.09C2434.64+1565.09+2460.6+1693.04+2441.89+1702.52C2423.9+1711.63+2343.43+1629.81+2343.43+1629.81C2343.43+1629.81+2359.57+1740.36+2345.67+1745.89C2332.42+1751.15+2274.38+1666.27+2274.38+1666.27C2274.38+1666.27+2281.25+1769.38+2268.97+1773.28C2255.08+1777.71+2204.9+1690.5+2204.9+1690.5C2204.9+1690.5+2202.61+1792.33+2190.32+1795.3C2177.55+1798.4+2132.95+1716.03+2132.95+1716.03C2132.95+1716.03+2129.71+1808.34+2118.61+1810.3C2105.94+1812.53+2073.78+1736.98+2073.78+1736.98C2073.78+1736.98+2059.33+1819.2+2048.74+1820.41C2034.26+1822.05+2004.36+1742.13+2004.36+1742.13C2004.36+1742.13+1979.79+1826.19+1967.09+1826.72C1951.48+1827.36+1927.92+1740.85+1927.92+1740.85C1927.92+1740.85+1893.28+1826.59+1877.51+1824.83C1866.41+1823.59+1853.04+1728.84+1853.04+1728.84C1853.04+1728.84+1805.88+1814.29+1789.37+1811.24C1757.18+1805.3+1780.11+1709.74+1780.11+1709.74C1780.11+1709.74+1708.12+1792.93+1695.64+1789C1677.86+1783.39+1683.68+1684.15+1683.68+1684.15C1683.68+1684.15+1607.53+1757.43+1590.26+1750.21C1570.75+1742.07+1594.02+1632.79+1594.02+1632.79C1594.02+1632.79+1500.83+1709.56+1485.38+1701.78C1465.79+1691.91+1492.98+1576.42+1492.98+1576.42C1492.98+1576.42+1391.62+1651.39+1374.25+1641.24L1401.95+1507.06C1401.95+1507.06+1280.27+1583.44+1267.42+1575.02C1251.13+1564.34+1302.25+1431.76+1302.25+1431.76C1302.25+1431.76+1178.63+1514.37+1160.45+1501.17C1142.25+1487.94+1193.4+1364.26+1193.4+1364.26L1055.81+1420.66L1117.08+1290.85C1117.08+1290.85+979.363+1321.23+971.636+1306.94C959.652+1284.77+921.122+1188.74+914.656+1163.09C923.221+1129.12+935.288+1095.15+950.589+1061.53C962.143+1036.15+975.541+1010.96+990.667+986.137C1004.36+963.663+1019.47+941.48+1035.91+919.702C1053.05+896.986+1184.39+986.206+1184.39+986.206C1184.39+986.206+1119.82+823.254+1134.87+808.829C1153.01+791.448+1252.82+882.382+1252.82+882.382C1252.82+882.382+1222.35+733.693+1238.26+721.961C1260.11+705.846+1351.36+787.259+1351.36+787.259C1351.36+787.259+1341.63+654.055+1359.92+643.91C1375.01+635.533+1437.29+702.156+1437.29+702.156C1437.29+702.156+1439.9+603.347+1457.27+595.744C1472.75+588.968+1532.99+667.254+1532.99+667.254C1532.99+667.254+1534.83+564.934+1550.33+559.678C1568.39+553.557+1622.61+632.996+1622.61+632.996C1622.61+632.996+1636.34+534.055+1652.13+530.264C1669.24+526.156+1717.44+617.376+1717.44+617.376C1717.44+617.376+1733.01+513.777+1747.69+511.54C1766+508.75+1815.02+594.708+1815.02+594.708C1815.02+594.708+1841.4+501.014+1860.78+500.007C1880.38+498.988+1912.29+592.892+1912.29+592.892Z" opacity="1" fill="#000000"/>
</g>
<g id="White" vectornator:layerName="White">
<path d="M1920+687.656C1653.84+687.656+1438.06+900.524+1438.06+1163.09C1438.06+1425.66+1653.84+1638.5+1920+1638.5C2186.16+1638.5+2401.94+1425.66+2401.94+1163.09C2401.94+900.524+2186.16+687.656+1920+687.656Z" opacity="1" fill="#ffffff"/>
</g>
<g id="Pupil" vectornator:layerName="Pupil">
<path d="M1911.84+779.506C1700.82+779.506+1529.76+947.086+1529.76+1153.77C1529.76+1360.45+1700.82+1527.97+1911.84+1527.97C2122.86+1527.97+2302.32+1354.9+2302.32+1148.21C2302.32+941.531+2122.86+779.506+1911.84+779.506Z" opacity="1" fill="#000000"/>
</g>
</svg>
