<?xml version="1.0" encoding="UTF-8" standalone="no"?> <!-- Created with Vectornator Pro for iOS (http://vectornator.io/) --><!DOCTYPE svg PUBLIC "-//W3C//DTD SVG 1.1//EN" "http://www.w3.org/Graphics/SVG/1.1/DTD/svg11.dtd">
<svg height="100%" style="fill-rule:evenodd;clip-rule:evenodd;stroke-linecap:round;stroke-linejoin:round;" xmlns:xlink="http://www.w3.org/1999/xlink" xmlns="http://www.w3.org/2000/svg" xml:space="preserve" width="100%" xmlns:vectornator="http://vectornator.io" version="1.1" viewBox="0 0 3840 2160">
<metadata>
<vectornator:setting key="RulersVisible" value="1"/>
<vectornator:setting key="SnapToEdges" value="0"/>
<vectornator:setting key="Units" value="Pixels"/>
<vectornator:setting key="DynamicGuides" value="1"/>
<vectornator:setting key="SnapToPoints" value="0"/>
<vectornator:setting key="CMYKEnabledKey" value="0"/>
<vectornator:setting key="SnapToGrid" value="0"/>
<vectornator:setting key="ShowGrid" value="1"/>
<vectornator:setting key="GridSpacing" value="36"/>
</metadata>
<defs/>
<g id="Layer 2" vectornator:layerName="Layer 2">
<path d="M2153.78+847.067L2148.75+848.234L2148.1+848.983L2147.91+848.86L2146.22+848.904L2144.61+848.789L2144.38+849.511L2143.85+849.31L2141.29+849.287L2140.49+849.199L2139.68+849.153L2138.87+849.108L2138.06+849.056L2137.25+848.992L2136.45+848.938L2135.64+848.853L2134.03+848.708L2133.22+848.655L2131.61+848.512L2130+848.358L2127.99+848.886L2126.39+848.713L2124.81+849.305L2122.28+849.077L2120.17+848.834L2119.09+849.469L2117.49+849.304L2115.25+849.17L2114.44+849.103L2112.83+848.972L2112.02+848.923L2110.41+848.747L2109.39+849.346L2107.79+849.192L2105.49+849L2104.48+849.608L2102.88+849.466L2100.57+849.304L2098.96+849.192L2097.98+849.809L2096.38+849.669L2094.03+849.538L2093.08+850.131L2092.5+849.965L2089.92+849.85L2088.97+850.443L2088.4+850.329L2085.81+850.166L2085+850.083L2084.3+850.689L2082.46+850.556L2080.08+850.402L2079.15+850.983L2077.55+850.818L2075.16+850.665L2074.25+851.268L2072.65+851.108L2070.95+851.719L2069.34+851.512L2066.13+851.253L2065.07+851.84L2063.62+851.638L2061.22+851.467L2060.31+852.039L2057.75+851.777L2055.14+852.278L2053.64+852.088L2049.79+851.71L2047.74+852.231L2045.41+851.954L2042.9+852.454L2039.62+852.09L2036.75+851.795L2033.9+852.224L2031.49+851.95L2027.82+851.563L2025.77+852.08L2023.44+851.803L2020.06+852.202L2016.79+851.838L2014.34+852.335L2011.47+852.704L2008.62+852.466L2006.19+852.967L2004.69+852.777L2001.65+852.494L1999.67+853.013L1997.26+852.739L1995.13+852.538L1992.72+852.263L1990.31+851.972L1988.7+851.787L1986.83+852.284L1985.22+852.097L1982.19+851.81L1980.58+851.63L1978.17+851.351L1976.56+851.173L1974.69+851.682L1972.18+851.419L1969.24+851.127L1967.26+851.647L1964.85+851.373L1961.92+851.08L1959.51+850.805L1957.53+851.324L1955.12+851.035L1952.62+851.534L1950.21+851.26L1947.27+850.965L1945.29+851.485L1942.88+851.208L1940.38+851.715L1937.97+851.443L1935.04+851.15L1932.62+850.928L1931.01+850.749L1929.15+851.299L1926.64+851.042L1924.49+850.846L1922.08+850.586L1919.67+850.292L1918.07+850.071L1916.21+850.589L1913.69+850.305L1911.55+850.1L1909.94+849.913L1907.54+849.631L1906.47+850.238L1904.06+849.968L1901.82+849.772L1900.21+849.603L1897.8+849.329L1895.39+849.06L1893.78+848.878L1891.91+849.284L1889.4+849.01L1886.48+848.672L1884.07+848.379L1881.67+848.095L1879.26+847.821L1876.85+847.523L1874.44+847.276L1872.03+846.985L1869.16+847.44L1867.62+847.256L1864.7+846.972L1862.29+846.697L1860.3+847.217L1857.89+846.944L1854.97+846.652L1852.56+846.378L1850.95+846.195L1849.35+846.025L1848.4+846.614L1845.85+846.384L1843.63+846.195L1842.82+846.101L1840.41+845.828L1839.61+845.743L1837.2+845.461L1835.59+845.282L1833.99+845.091L1832.38+844.908L1831.45+845.491L1828.89+845.231L1826.67+845.036L1824.78+845.503L1823.17+845.317L1820.66+845.79L1818.15+845.514L1816.55+846.097L1815.09+845.887L1812.44+846.413L1810.83+846.219L1808.63+846.038L1807.67+846.637L1806.07+846.453L1803.71+846.28L1802.11+846.097L1801.15+846.685L1799.55+846.502L1797.19+846.307L1795.29+846.817L1793.68+846.513L1792.11+847.081L1790.5+846.878L1788.19+846.714L1787.19+847.282L1785.59+847.123L1783.28+846.929L1782.28+847.51L1780.67+847.304L1778.37+847.121L1778.38+847.77L1776.78+847.578L1774.26+847.441L1773.25+848.021L1771.65+847.849L1770.14+847.756L1769.36+848.302L1766.6+848.076L1764.44+847.761L1763.41+848.346L1761.8+848.144L1759.53+847.965L1758.49+848.532L1756.89+848.372L1755.42+848.266L1754.59+848.861L1752.78+848.711L1750.5+848.564L1750.49+849.212L1748.88+849.032L1746.39+848.897L1745.37+849.492L1744.78+849.362L1743.08+849.958L1741.24+849.691L1739.54+850.274L1738.39+850.716L1737.23+850.697L1735.52+851.271L1734.72+851.175L1734.16+851.741L1733.37+851.676L1730.59+851.61L1731.68+852.282L1731.6+851.801L1729.98+852.889L1729.18+852.812L1728.28+853.495L1727.48+853.407L1726.59+854.093L1725.78+853.988L1724.88+854.674L1724.7+854.937L1722.01+855.237L1721.11+855.893L1721.28+856.099L1720.37+856.775L1719.48+857.466L1718.58+858.144L1717.06+858.447L1716.16+859.129L1717.35+858.936L1716.46+859.62L1714.37+860.503L1714.08+861.55L1713.54+861.896L1712.28+862.914L1711.38+863.594L1710.49+864.28L1709.58+864.959L1708.68+865.63L1707.76+866.296L1706.87+866.98L1707.31+867.184L1706.45+867.893L1705+869.153L1704.14+869.887L1704.62+870.073L1703.75+870.772L1702.29+872.075L1700.14+872.929L1699.26+873.636L1698.81+874.057L1699.43+874.687L1698.54+875.375L1696.87+877.024L1695.98+877.72L1695.37+878.8L1694.49+879.495L1693.18+880.529L1692.61+881.646L1691.71+882.334L1690.5+883.488L1691.05+883.602L1690.32+884.735L1689.02+886.092L1687.69+887.18L1687.18+888.273L1686.18+888.872L1684.82+889.906L1685.36+890.016L1685.7+889.567L1685.59+890.341L1685.57+891.124L1685.47+891.898L1685.4+892.675L1685.32+893.452L1685.23+894.228L1684+896.59L1683.92+897.371L1684.03+898.02L1682.87+899.624L1682.68+901.173L1682.87+901.031L1682.76+901.804L1682.59+903.356L1682.49+904.13L1682.43+904.909L1682.34+905.685L1682.25+907.247L1682.93+907.108L1682.75+908.655L1682.73+910.444L1682.56+911.997L1683.21+912.851L1683.03+914.399L1682.88+916.747L1682.71+918.299L1683.29+919.137L1683.11+920.685L1682.71+923.8L1683.34+924.816L1683.11+926.219L1683.72+927.861L1683.65+929.396L1684.25+931.962L1684.76+933.002L1684.67+934.994L1685.24+937.566L1685.01+939.119L1685.63+940.6L1686+942.585L1685.92+944.729L1685.57+947.699L1686.18+948.701L1685.89+951.026L1685.76+953.221L1686.29+954.987L1686.14+956.534L1686.67+958.949L1686.54+960.495L1686.24+963.491L1686.88+964.46L1686.64+965.852L1686.47+968.232L1686.26+969.779L1686.07+971.329L1685.88+972.879L1686.49+973.694L1686.32+975.241L1686.2+977.63L1686.82+978.423L1687.41+979.27L1687.45+981.589L1688.05+983.232L1687.83+985.727L1688.41+987.371L1688.16+989.694L1688.76+992.226L1688.51+994.549L1688.22+997.505L1688.73+999.291L1688.46+1001.61L1689.04+1004.03L1689.51+1005.84L1690.09+1008.24L1690.64+1010.65L1690.47+1013.6L1691.02+1016.01L1690.76+1017.43L1691.23+1019.85L1690.98+1022.31L1691.51+1024.72L1691.23+1027.05L1691.03+1030.04L1690.85+1031.59L1691.54+1033.19L1691.38+1034.74L1691.08+1037.91L1690.98+1039.46L1690.83+1041.02L1690.6+1043.35L1690.45+1044.91L1690.26+1046.45L1690.1+1048.01L1689.94+1050.35L1689.79+1051.9L1689.58+1054.24L1689.31+1056.56L1689.07+1058.89L1687.79+1061.9L1687.55+1064.24L1687.32+1066.55L1687.14+1068.1L1686.86+1070.43L1686.58+1072.75L1686.24+1075.07L1686.13+1077.42L1685.87+1079.74L1685.56+1082.06L1686.05+1084.55L1685.78+1086.88L1685.49+1089.91L1685.07+1092.22L1684.58+1095.31L1684.29+1097.64L1684.81+1099.26L1684.49+1101.59L1684.4+1104.72L1684.1+1107.04L1684.77+1108.64L1684.52+1110.96L1684.03+1114.11L1684.7+1114.78L1684.35+1116.11L1684.87+1117.76L1684.58+1120.31L1685.19+1121.96L1684.92+1123.29L1684.87+1126.78L1684.66+1128.32L1685.5+1129.76L1685.29+1132.25L1685.18+1135.45L1684.97+1137.79L1684.69+1140.9L1684.39+1143.22L1684.21+1145.56L1683.83+1147.87L1683.5+1150.98L1683.22+1153.3L1682.87+1156.41L1682.59+1158.73L1683.07+1161.12L1682.72+1164.32L1682.44+1167.36L1682.94+1169.74L1682.64+1172.06L1683.1+1175.25L1683.57+1176.88L1684.01+1180.07L1683.79+1183.18L1684.27+1185.47L1684.69+1186.98L1685.16+1189.4L1685.69+1191.82L1685.51+1195.04L1685.09+1199.09L1685.64+1200.69L1685.34+1202.88L1685.13+1206.17L1684.91+1208.5L1685.57+1208.98L1685.26+1211.3L1685.9+1212.94L1685.56+1214.22L1685.29+1217.97L1685.08+1219.52L1684.87+1221.07L1684.58+1223.39L1684.4+1224.94L1684.99+1225.17L1684.74+1226.73L1684.65+1228.9L1685.12+1228.73L1685+1229.5L1685.57+1231.16L1685.42+1233.13L1685.23+1236.04L1685.89+1235.12L1685.68+1236.68L1685.54+1240L1686.14+1240.29L1685.95+1241.84L1686.58+1242.29L1686.35+1243.85L1686.22+1247.15L1686.83+1247.46L1686.69+1249L1686.59+1251.12L1687.18+1250.99L1687.06+1252.96L1686.97+1255.88L1686.7+1258.21L1687.39+1258.73L1687.2+1260.01L1687.79+1261.65L1687.51+1264.25L1688.14+1265.89L1688.39+1266.06L1689.01+1267.7L1689.61+1269.35L1690.27+1272.21L1690.93+1273.84L1690.91+1276.15L1691.55+1277.79L1691.92+1279.44L1692.54+1281.08L1693.21+1283.46L1693.15+1287.03L1693.73+1288.49L1694.09+1289.83L1694.7+1291.47L1694.64+1293.81L1695.28+1295.45L1695.66+1295.81L1696.28+1297.44L1696.53+1300.26L1697.17+1301.9L1697.77+1301.32L1698+1301.44L1699.29+1304.11L1700.03+1304.96L1700.64+1306.61L1701.52+1308.98L1701.92+1309.14L1701.98+1308.95L1703.28+1311.63L1703.78+1313.95L1704.64+1314.11L1704.56+1314.88L1705.6+1316.46L1705.88+1317.39L1706.59+1318.26L1706.61+1318.08L1707.9+1320.77L1708.37+1323.12L1708.82+1323.13L1709.11+1324.06L1709.81+1324.93L1710.42+1326.57L1711.12+1327.45L1711.03+1326.53L1711.73+1327.4L1713.28+1329.16L1713.92+1329.26L1715.39+1331.77L1716.89+1332.74L1716.92+1332.37L1718.27+1333.67L1719.78+1334.63L1720.66+1335.13L1721.03+1334.7L1722.53+1335.69L1725.1+1337.62L1725.29+1336.93L1726.35+1337.71L1729.1+1339.27L1729.47+1338.85L1728.78+1338.57L1732.23+1340.09L1733.39+1340.09L1733.49+1339.96L1735.9+1340.24L1737.51+1340.44L1739.11+1340.64L1741.74+1342.04L1743.33+1342.24L1744.04+1343.1L1745.65+1343.29L1746.72+1344.08L1748.33+1344.25L1748.46+1344.09L1750.07+1344.26L1752.48+1344.54L1754.08+1344.72L1756.49+1344.99L1758.1+1345.17L1760.51+1345.47L1762.11+1345.65L1763.72+1345.84L1765.32+1346.02L1766.94+1346.13L1769.35+1346.4L1770.96+1346.58L1771.76+1346.66L1773.37+1346.85L1774.97+1347.03L1777.98+1348.33L1779.58+1348.53L1779.7+1348.35L1780.5+1348.46L1783.94+1349.95L1785.12+1349.92L1784.42+1349.65L1787.9+1351.1L1789.06+1351.1L1790.58+1352.04L1792.18+1352.22L1793.7+1353.17L1795.3+1353.37L1796.81+1354.33L1798.41+1354.52L1798.51+1354.36L1800.91+1354.63L1802.53+1354.76L1804.94+1355.03L1806.55+1355.17L1808.96+1355.44L1811.37+1355.68L1812.98+1355.84L1815.39+1356.11L1817.8+1356.42L1819.4+1356.59L1820.63+1356.15L1823.25+1356.42L1826.71+1356.74L1829.12+1357.03L1830.57+1356.45L1832.98+1356.73L1835.48+1356.2L1838.85+1356.54L1842.17+1356.85L1844.58+1357.12L1846.97+1356.66L1849.38+1356.93L1852.71+1357.24L1855.13+1357.47L1856.55+1356.93L1858.96+1357.15L1862.46+1357.42L1865.68+1357.76L1867.23+1357.19L1870.45+1357.53L1872.95+1357.04L1876.16+1357.38L1879.59+1357L1881.88+1357.26L1885.19+1356.88L1887.6+1357.15L1890.9+1356.74L1892.49+1356.27L1895.79+1355.86L1900.04+1356.03L1903.35+1355.6L1905.83+1355.25L1909.87+1355.54L1913.18+1355.18L1914.62+1354.74L1918.78+1355.09L1922.95+1355.52L1925.42+1355.07L1927.9+1354.73L1932.83+1355.14L1936.14+1354.72L1940.15+1355.19L1944.34+1354.85L1947.78+1354.55L1951.9+1354.23L1955.05+1353.79L1958.18+1353.4L1962.46+1352.94L1966.43+1353.26L1970.54+1352.89L1973.75+1353.23L1976.96+1352.81L1979.42+1352.53L1983.48+1352.82L1986.79+1352.49L1989.26+1352.14L1993.31+1352.47L1995.69+1351.99L1998.05+1351.63L2002.33+1351.92L2005.6+1352.23L2007.92+1351.77L2011.26+1352.14L2013.64+1351.66L2016.01+1351.33L2019.36+1351.54L2021.7+1351.05L2024.11+1351.32L2026.62+1350.83L2029.03+1351.1L2030.5+1350.51L2032.91+1350.79L2035.89+1350.99L2038.29+1351.27L2039.66+1350.73L2042.06+1351L2045.54+1350.69L2047.95+1350.98L2051.25+1350.6L2052.83+1350.17L2055.05+1349.74L2058.51+1349.84L2061.02+1349.35L2063.43+1349.62L2065.93+1349.12L2068.34+1349.38L2070.84+1348.87L2073.25+1349.14L2075.76+1348.67L2078.17+1348.94L2079.65+1348.39L2082.06+1348.67L2085+1348.92L2086.17+1348.41L2088.8+1348.71L2092.31+1349.05L2092.7+1348.44L2095.11+1348.72L2098.83+1349.03L2099.22+1348.45L2100.52+1348.68L2103.33+1348.12L2104.94+1348.32L2108.65+1348.59L2109.05+1347.98L2110.36+1347.68L2114.18+1347.73L2115.66+1347.15L2118.08+1347.48L2119.78+1346.89L2121.08+1347.16L2123.9+1346.65L2125.5+1346.83L2128.39+1347.05L2130.79+1347.37L2131.23+1346.78L2132.53+1347.01L2135.34+1346.48L2136.94+1346.68L2138.35+1346.13L2141.06+1346.4L2143.91+1346.63L2144.07+1346.06L2145.67+1346.22L2147.37+1345.6L2148.98+1345.79L2152.94+1346.05L2153.39+1345.44L2154.7+1345.7L2157.85+1345.88L2158.01+1345.31L2159.62+1345.48L2161.95+1345.58L2161.64+1345.06L2163.73+1345.17L2166.87+1345.36L2167.04+1344.78L2168.65+1345L2172.58+1345.27L2173.06+1344.69L2173.16+1344.45L2176.07+1344.32L2177.78+1343.74L2178.16+1343.44L2179.86+1342.83L2181.56+1342.24L2183.26+1341.64L2184.91+1341.5L2186.61+1340.91L2187.41+1341L2187.46+1340.54L2189.92+1340.52L2190.82+1339.84L2190.98+1339.79L2193.33+1339.37L2195.03+1338.79L2195.9+1338.44L2197.61+1337.87L2197.82+1337.49L2199.53+1336.92L2201.92+1336.04L2203.63+1335.46L2204.43+1334.52L2204.63+1334.31L2207.33+1333.09L2209.65+1332.67L2209.71+1332.19L2206.78+1333.71L2207.68+1333.03L2207.77+1332.25L2209.89+1330.95L2209.99+1330.18L2209.56+1330.88L2211.78+1328.81L2212.68+1328.13L2213.58+1327.44L2212.35+1328.06L2213.25+1327.37L2213.35+1326.6L2214.24+1325.92L2216.47+1323.86L2217.42+1323.24L2216.23+1323.83L2217.18+1323.18L2221.16+1320.65L2222.05+1319.96L2221.2+1319.87L2222.12+1319.2L2223.09+1317.73L2224+1317.05L2223.29+1316.76L2224.11+1315.71L2224.34+1314.51L2225.38+1313.07L2225.47+1312.3L2225.2+1312.53L2225.3+1311.75L2227.14+1308.62L2226.94+1307.78L2226.51+1308.75L2228.35+1305.63L2229.77+1303.6L2230.68+1302.93L2232.39+1301.45L2231.19+1302L2232.08+1301.32L2233.51+1299.29L2235.16+1298.6L2237.71+1297.03L2234.87+1298.49L2235.77+1297.8L2235.86+1297.03L2234.96+1298.71L2236.8+1295.53L2236.82+1294.72L2235.9+1296.46L2237.74+1293.21L2237.83+1292.43L2236.99+1294.23L2237.12+1293.46L2237.2+1292.68L2237.35+1291.91L2237.45+1291.14L2237.55+1290.36L2237.65+1289.59L2237.74+1288.81L2237.78+1288.03L2237.88+1287.26L2237.91+1286.47L2237.92+1285.69L2238.08+1284.14L2238.14+1283.36L2238.2+1282.58L2238.32+1281.81L2238.49+1281.04L2238.58+1280.26L2238.7+1279.49L2238.79+1278.72L2238.43+1280.59L2238.54+1279.81L2238.26+1276.3L2238.36+1275.53L2238.37+1274.74L2238.52+1273.19L2238.6+1272.41L2238.67+1271.63L2238.74+1270.85L2238.87+1270.08L2238.95+1269.31L2239.12+1268.54L2238.74+1270.46L2238.96+1269.64L2238.74+1266.14L2238.86+1265.37L2238.89+1264.58L2239+1263.81L2238.99+1263.03L2239.08+1262.25L2238.51+1262.57L2238.58+1261.8L2238.56+1259.05L2238.67+1258.27L2238.83+1256.72L2238.97+1255.95L2238.44+1256.28L2238.6+1255.49L2238.62+1252.77L2238.75+1252L2238.23+1252.29L2238.32+1251.52L2238.28+1248.8L2238.39+1248.03L2238.48+1246.47L2237.85+1247.58L2238.16+1247.66L2237.99+1243.27L2238.1+1242.49L2237.71+1244.48L2237.68+1242.07L2236.99+1241.2L2236.94+1241.12L2236.5+1238.78L2235.89+1237.14L2235.99+1236.36L2235.38+1234.72L2235.5+1233.94L2234.89+1232.3L2234.52+1231.49L2234.35+1229.89L2234.45+1226.36L2233.77+1226.24L2233.96+1224.69L2234.02+1222.38L2233.48+1222.75L2233.58+1220.73L2233.74+1217.64L2233.18+1217.53L2233.41+1217.22L2232.79+1215.58L2232.92+1214.8L2232.32+1213.15L2232.18+1213.83L2231.98+1212.35L2231.7+1208.76L2231.33+1210.72L2231.26+1208.33L2231.26+1205.57L2231.35+1204.79L2231.39+1204.01L2231.47+1203.24L2231.11+1205.23L2231.19+1204.46L2230.96+1200.82L2231.05+1200.04L2231.14+1199.27L2231.24+1198.49L2231.33+1197.72L2231.43+1196.94L2231.53+1196.17L2231.61+1195.39L2231.7+1194.62L2231.77+1193.84L2231.87+1193.07L2231.97+1192.29L2232.06+1191.52L2232.16+1190.74L2232.25+1189.97L2232.22+1189.18L2232.31+1188.4L2232.4+1187.63L2232.51+1186.85L2232.13+1188.92L2232.24+1188.14L2231.98+1184.43L2232.08+1183.66L2232.17+1182.88L2231.79+1184.96L2231.83+1184.2L2231.56+1180.46L2231.62+1179.68L2231.79+1178.13L2231.9+1177.35L2231.53+1179.49L2231.71+1178.68L2231.45+1174.95L2231.18+1177.01L2231.14+1174.58L2231.25+1171.78L2231.79+1176.31L2231+1172.99L2230.57+1169.34L2230.68+1168.57L2230.62+1167.78L2230.69+1167L2230.74+1166.22L2230.39+1168.38L2230.44+1167.62L2230.29+1163.81L2230.37+1163.04L2230.1+1165.15L2230.2+1164.37L2229.96+1160.63L2229.62+1162.71L2229.67+1161.96L2229.42+1158.21L2229.49+1157.44L2229.58+1156.66L2229.67+1155.88L2229.31+1158L2229.4+1157.23L2229.17+1153.47L2229.27+1152.69L2229.36+1151.92L2229.46+1151.15L2229.53+1150.37L2229.23+1152.46L2229.33+1151.69L2229.1+1147.96L2229.2+1147.19L2229.34+1146.42L2229.43+1145.64L2229.55+1144.87L2229.14+1146.93L2229.2+1146.17L2228.94+1142.44L2229.02+1141.67L2229.11+1140.89L2229.22+1140.12L2229.4+1138.57L2229.56+1137.8L2229.66+1137.02L2229.77+1136.25L2229.94+1134.7L2229.32+1135.89L2229.67+1135.99L2229.41+1132.28L2229.51+1131.51L2229.6+1130.73L2230.18+1135.37L2230.3+1134.58L2229.01+1129.09L2228.67+1131.14L2228.77+1130.36L2228.53+1126.68L2228.63+1125.91L2228.73+1125.13L2228.82+1124.36L2228.89+1123.58L2228.98+1122.8L2229.07+1122.03L2229.16+1121.25L2229.26+1120.48L2229.35+1119.7L2228.99+1121.76L2229.09+1120.98L2228.95+1117.3L2229.07+1116.53L2229.18+1115.75L2229.36+1114.2L2229.48+1113.43L2229.52+1112.65L2229.63+1111.88L2229.7+1111.1L2229.8+1110.32L2229.89+1109.55L2230.04+1108.78L2230.14+1108.01L2230.26+1107.23L2230.37+1106.46L2230.49+1105.69L2230.61+1104.92L2230.8+1103.37L2230.9+1102.59L2231.02+1101.82L2231.22+1100.27L2231.33+1099.5L2231.49+1098.73L2233.05+1095.42L2233.16+1094.65L2232.82+1094.95L2232.93+1094.18L2233.13+1092.63L2233.23+1091.86L2234.74+1088.56L2234.85+1087.79L2234.47+1088.07L2234.57+1087.29L2234.62+1086.51L2234.71+1085.74L2234.76+1084.96L2234.85+1084.18L2234.95+1083.41L2235.03+1082.63L2235.24+1081.87L2235.4+1081.1L2235.51+1080.33L2235.63+1079.56L2235.73+1078.78L2235.81+1078.01L2235.86+1077.23L2235.89+1076.44L2235.98+1075.67L2236.08+1074.89L2236.16+1074.12L2236.26+1073.34L2236.34+1072.57L2236.45+1071.79L2236.55+1071.02L2236.65+1070.24L2236.27+1072.11L2236.42+1071.32L2236.2+1067.84L2236.29+1067.06L2236.39+1066.29L2235.93+1068.15L2236.03+1067.37L2235.66+1063.85L2235.11+1064.17L2235.21+1063.39L2235.24+1060.65L2234.84+1062.59L2234.85+1060.19L2234.84+1057.47L2234.34+1057.77L2234.44+1056.99L2234.46+1054.28L2234.66+1052.73L2233.96+1053.82L2234.27+1053.89L2234.12+1049.53L2234.21+1048.75L2234.29+1047.97L2233.78+1048.31L2233.87+1047.53L2233.89+1044.79L2233.52+1046.73L2233.64+1045.94L2232.81+1043.46L2232.91+1042.68L2232.96+1039.96L2233.06+1039.19L2232.57+1039.48L2232.68+1038.7L2232.71+1036.01L2232.92+1034.46L2232.99+1033.68L2233.07+1032.91L2233.17+1032.13L2233.36+1030.58L2232.74+1031.63L2233.09+1031.67L2232.86+1028.17L2233.04+1027.4L2233.24+1025.85L2233.4+1025.08L2233.48+1024.31L2233.11+1026.1L2233.17+1025.33L2232.97+1021.89L2233.03+1021.11L2232.65+1022.92L2232.72+1022.15L2232.49+1018.69L2232.67+1017.14L2232.05+1018.16L2232.37+1018.19L2232.25+1013.95L2232.34+1013.18L2232.46+1012.41L2232.07+1014.22L2232.04+1011.86L2232.05+1009.22L2232.14+1008.44L2232.38+1006.9L2231.76+1007.89L2232.12+1007.89L2232.01+1003.71L2232.1+1002.94L2232.31+1001.39L2232.39+1000.61L2232.5+999.837L2232.68+998.287L2232.86+996.735L2232.95+995.96L2233.14+994.41L2233.24+993.635L2233.46+992.09L2232.84+993.055L2233.03+991.506L2233.05+988.899L2232.51+989.09L2232.6+988.316L2232.61+985.707L2232.79+984.156L2232.17+985.126L2232.35+983.577L2232.36+980.964L2232.46+980.189L2232.65+978.639L2232.74+977.864L2232.85+977.09L2232.94+976.315L2232.55+978.066L2232.51+975.734L2232.54+973.126L2232.63+972.351L2232.76+971.579L2232.86+970.805L2233.05+969.255L2233.1+968.476L2233.2+967.701L2233.25+966.921L2233.34+966.146L2233.43+965.37L2233.51+964.593L2233.61+963.819L2233.69+963.042L2233.93+961.498L2234.07+960.728L2234.17+959.953L2233.77+961.688L2233.88+960.91L2233.65+957.537L2233.75+956.763L2233.84+955.987L2233.93+955.212L2234.01+954.436L2234.1+953.66L2234.2+952.885L2233.86+954.61L2233.95+953.835L2233.78+950.48L2233.96+948.929L2234.07+948.156L2234.16+947.381L2234.24+946.604L2234.34+945.83L2234.39+945.049L2234.47+944.273L2234.56+943.497L2234.66+942.723L2234.75+941.947L2234.87+941.175L2234.98+940.402L2234.58+942.117L2234.73+941.321L2234.54+937.994L2234.64+937.22L2234.75+936.447L2234.83+935.67L2234.94+934.897L2235.02+934.12L2235.07+933.34L2234.66+935.039L2234.73+934.273L2234.61+930.144L2234.68+929.367L2234.27+931.097L2234.37+930.319L2234.14+926.948L2234.29+926.18L2234.43+925.41L2234.54+924.636L2234.63+923.861L2234.74+923.088L2234.34+924.765L2234.45+923.985L2234.23+920.672L2233.8+922.356L2233.87+921.59L2233.66+918.249L2233.75+917.474L2233.84+916.699L2233.94+915.924L2234.03+915.149L2233.5+915.309L2233.61+914.53L2233.12+914.429L2233.22+913.654L2233.01+910.318L2232.63+912.005L2232.75+911.221L2232.05+910.352L2232.16+909.572L2231.96+906.269L2231.56+907.924L2231.65+907.153L2231.44+903.853L2231.03+905.511L2231.12+904.739L2230.42+903.87L2230.53+903.091L2230.37+899.802L2229.97+901.431L2230.09+900.646L2229.39+899.775L2229.56+900.424L2228.77+898.138L2228.56+894.88L2228.93+898.798L2229.02+898.027L2227.43+895.635L2227.6+896.298L2226.89+895.43L2226.11+893.128L2225.48+892.234L2225.59+891.453L2225.41+888.236L2224.98+889.811L2225.15+890.433L2224.45+889.559L2223.62+887.315L2223.68+888.735L2223.75+887.984L2222.95+887.891L2223.03+887.122L2221.46+884.729L2221.63+885.381L2220.85+883.087L2220.92+884.512L2221.54+884.817L2220.74+884.725L2219.49+882.789L2218.69+882.698L2218.79+881.923L2217.98+881.833L2218.08+881.057L2217.27+880.967L2217.37+880.19L2215.78+877.801L2215.88+877.025L2215.95+878.455L2216.58+878.765L2215.77+878.683L2214.53+876.73L2213.72+876.638L2214.35+876.953L2213.55+876.86L2212.84+875.995L2210.72+872.513L2210.8+873.947L2211.42+874.26L2209.31+870.779L2209.38+872.213L2210+872.536L2207.92+870.515L2208.46+871.62L2207.19+869.661L2206.4+869.565L2206.48+868.797L2204.89+866.382L2206.32+869.041L2205.62+868.164L2203.57+866.097L2204.11+867.196L2203.41+866.329L2202.6+866.238L2201.9+865.371L2201.09+865.28L2200.38+864.413L2198.33+862.354L2197.6+862.178L2198.08+862.858L2199.03+863.248L2195.88+861.489L2195.08+861.392L2196.72+862.159L2195.11+861.967L2192.69+860.584L2191.2+860.109L2192.81+860.839L2189.71+859.113L2188.92+859.008L2188.2+858.154L2187.41+858.051L2186.19+856.129L2185.89+857.107L2185.45+856.674L2184.25+856.432L2184.35+856.72L2183.55+856.615L2182.75+856.491L2181.15+856.304L2180.35+856.158L2178.75+855.961L2177.94+855.864L2177.14+855.755L2176.34+855.679L2175.54+855.573L2174.73+855.541L2171.15+852.819L2170.34+852.73L2173.21+854.627L2172.4+854.547L2171.6+854.456L2169.99+854.282L2169.19+854.159L2167.59+853.925L2166.79+853.831L2165.19+853.642L2164.38+853.543L2163.58+853.454L2162.78+853.353L2161.98+853.251L2161.17+853.151L2160.37+853.04L2159.57+852.945L2158.77+852.848L2157.97+852.749L2147.82+852.234L2146.44+852.804L2145.4+852.501L2143.35+852.401L2142.57+852.14L2141.77+852.015L2140.98+851.805L2140.19+851.588L2139.96+852.051L2139.12+851.8L2137.4+852.299L2136.58+852.111L2134.86+852.617L2134.88+852.746L2135.23+849.667L2134.85+848.642L2134.62+850.579L2132.63+849.37L2131.38+846.109L2133.2+844.87L2134.88+844.193L2135.66+844.188L2137.34+843.503L2138.11+843.435L2141.28+842.715L2142.1+842.681L2142.92+842.655L2143.72+842.712L2144.55+842.635L2144.1+842.717L2146.28+842.781L2148.3+842.167L2159.22+842.483L2160.03+842.567L2160.83+842.654L2161.63+842.742L2162.44+842.813L2163.24+842.897L2164.05+842.978L2164.85+843.06L2165.66+843.154L2166.46+843.238L2168.07+843.415L2168.87+843.505L2170.48+843.637L2171.29+843.696L2172.89+843.889L2173.7+843.981L2174.5+844.084L2178.97+846.164L2179.77+846.258L2176.01+845.086L2176.8+845.238L2177.61+845.315L2178.41+845.421L2179.21+845.496L2180.02+845.582L2181.62+845.751L2182.43+845.788L2184.04+845.967L2184.85+846.027L2185.65+846.105L2188.96+846.759L2189.37+846.7L2191.96+848.183L2194.87+849.528L2193.46+849.155L2194.27+849.235L2194.97+850.114L2195.79+850.193L2194.11+850.199L2197.32+851.113L2197.44+850.821L2196.43+851.171L2198.04+851.345L2201.28+852.295L2202.08+852.382L2200.36+852.356L2202.91+852.928L2205+853.792L2207.29+855.532L2206.65+855.206L2207.36+856.072L2208.16+856.164L2208.87+857.03L2209.68+857.122L2210.38+857.988L2212.54+859.27L2211.9+858.936L2212.62+859.792L2215.66+862.634L2215.48+861.953L2215.37+862.734L2216.18+862.821L2214.73+862.412L2216.87+863.7L2216.21+863.412L2218.24+865.469L2219.92+867.085L2217.62+865.155L2219.66+867.201L2221.34+868.818L2219.04+866.886L2219.75+867.754L2220.55+867.844L2222.59+869.892L2223.39+869.983L2221.96+869.58L2222.76+869.681L2224.8+871.724L2226.48+873.337L2226.39+874.111L2226.22+873.456L2226.13+874.228L2226.93+874.322L2226.83+875.095L2227.63+875.188L2227.54+875.963L2228.34+876.056L2226.91+875.669L2227.71+875.76L2229.75+877.799L2231.43+879.406L2230.46+878.662L2232.04+881.047L2231.88+880.388L2231.78+881.169L2232.59+881.258L2232.46+882.057L2234.13+883.661L2233.11+882.967L2233.83+883.825L2235.41+886.181L2236.4+889.489L2236.03+887.821L2235.95+888.59L2236.74+889.429L2235.77+888.677L2236.48+889.543L2238.06+891.938L2237.89+891.279L2237.79+892.058L2239.77+896.159L2239.36+894.451L2238.38+893.715L2239.97+896.097L2240.69+896.959L2240.62+897.724L2241.63+901.086L2241.29+899.347L2241.2+900.118L2066.9+844.984L2068.51+845.275L2070.11+845.435L2071.82+844.861L2073.43+845.068L2075.92+844.487L2076.74+844.701L2078.35+844.902L2080.83+844.299L2081.66+844.512L2083.03+844.745L2085.73+844.168L2086.53+844.267L2087.15+844.471L2088.19+844.54L2090.64+843.949L2091.27+844.2L2092.3+844.217L2094.75+843.627L2095.61+843.862L2097.22+844.088L2099.65+843.521L2101.25+843.776L2102.15+843.98L2103.76+844.204L2106.15+843.628L2107.07+843.802L2108.68+844.015L2111.06+843.43L2112.67+843.62L2113.47+843.755L2115.07+843.99L2115.87+844.106L2116.83+844.338L2118.44+844.539L2120.77+843.991L2121.87+844.114L2124.16+844.435L2125.98+843.843L2127.59+844.037L2130.59+843.565L2132.19+843.776L2133.79+844L2134.59+844.13L2136.19+844.351L2137+844.449L2137.79+844.578L2138.59+844.697L2139.39+844.829L2140.19+844.967L2140.99+845.104L2141.79+845.199L2142.44+845.542L2143.52+845.525L2145.09+844.88L2146.68+845.131L2146.6+845.358L2148.01+845.418L2149.17+844.8L2153.78+847.067" opacity="1" fill="#7990d6"/>
</g>
<g id="Layer 1" vectornator:layerName="Layer 1">
<path d="M2078.41+938.188C2078.1+938.225+2077.47+938.327+2077.12+938.375C2073.87+938.502+2070.61+938.842+2067.34+939.156C2068.36+939.237+2069.19+939.297+2070.31+939.406C2065.86+940.077+2061.04+940.688+2056.75+940.688C2055.98+940.688+2055.18+940.786+2054.41+940.844C2058.64+940.13+2062.85+939.589+2067.34+939.156C2063.2+938.825+2059.74+938.695+2058.53+939.094C2051.82+941.309+2042.73+939.541+2035.69+940.688C2024.56+942.499+2013.55+947.917+2003.25+951.781C1976.1+961.965+1975.85+992.908+1970.66+1014.44C1969.05+1021.12+1972.74+1028.71+1971.22+1034.81C1969.9+1040.11+1968.09+1046.29+1968.09+1051.81C1968.1+1054.64+1968.64+1055.51+1970.09+1055.81C1970.03+1055.89+1969.95+1055.93+1969.88+1056C1969.36+1055.97+1969.14+1055.87+1968.84+1056.06C1968.26+1056.44+1966.24+1054.95+1965.41+1054.59C1962.28+1053.27+1957.88+1055.47+1954.41+1054.97C1945.09+1053.62+1928.92+1053.87+1922.72+1057.66C1919.75+1059.47+1921.39+1069.13+1920.62+1072.66C1918.28+1083.42+1923.36+1094.17+1923.25+1105.12C1923.21+1109.28+1920.49+1113.1+1920.34+1116.31C1920.25+1118.31+1924.72+1117.94+1928.91+1117.41C1930.9+1117.4+1933+1117.2+1934.34+1117.31C1938.02+1117.62+1941.84+1118.47+1945.56+1117.94C1947.79+1117.62+1949.9+1117.08+1952.03+1116.62C1952.05+1116.62+1952.07+1116.63+1952.09+1116.62C1959.67+1116.56+1965.65+1116.4+1968.09+1116.12C1968.55+1116.44+1968.9+1116.8+1969.19+1117.22C1968.76+1118.91+1968.48+1121.37+1969.53+1121.25C1969.62+1121.24+1969.14+1122.86+1969.12+1124.06C1969.09+1128.28+1969.66+1133.05+1968.75+1137.12C1965.46+1151.91+1971.66+1167.27+1971.69+1181.84C1971.72+1203.98+1967.19+1268.83+1972.16+1285.84C1974.41+1293.58+1970.53+1304.47+1971.53+1309.03C1971.8+1310.26+1974.95+1309.85+1978+1309.22C1979.72+1309.08+1981.45+1308.71+1983.19+1308.12C1988.27+1307.3+1993.47+1306.86+1998.72+1306.5C1999.8+1306.81+2000.94+1307.2+2001.91+1307.28C2003.73+1307.43+2005.2+1306.7+2006.62+1305.88C2011.04+1305.58+2015.48+1305.34+2019.78+1304.78C2021.37+1304.57+2023.07+1304.57+2024.72+1304.47C2029.75+1304.65+2034.84+1304.66+2039.78+1304.25C2040.17+1304.22+2040.55+1304.23+2040.94+1304.22C2041.07+1304.22+2041.05+1304.22+2041.28+1304.22C2042.8+1304.21+2044.1+1304.05+2045.53+1304.06C2045.88+1304.06+2046.19+1303.99+2046.56+1304.03C2047.38+1304.12+2049.53+1304.78+2049.03+1304.12C2048.55+1303.49+2051.01+1305.64+2052.53+1303.09C2055.56+1298.04+2055.33+1284.58+2054.28+1278.19C2050.64+1255.89+2049.46+1229.73+2053.12+1207.22C2054.69+1197.62+2051.13+1187.98+2051.16+1178.69C2051.2+1165.98+2047.53+1151.25+2051.34+1138.84C2052.57+1134.84+2050.94+1129.16+2050.88+1125.12C2050.85+1123.72+2050.92+1121+2050.69+1119.31C2050.82+1119.22+2050.92+1119.07+2051.06+1119C2053.7+1119.34+2059.48+1118.92+2064.19+1118.31C2072.84+1117.2+2091.09+1120.71+2097.97+1117.91C2100.02+1117.07+2103.48+1118.44+2103.62+1118.38C2106.58+1117.12+2107.28+1091.49+2107.94+1087.41C2109.49+1077.69+2113.54+1062.75+2113.5+1062.72C2113.12+1062.47+2114.37+1058.35+2111.41+1057.19C2106.42+1055.24+2098.51+1056.07+2090.12+1057.31C2081.49+1057.09+2072.8+1057.74+2064.31+1059.16C2061.59+1059.61+2058.84+1059.97+2056.09+1060.34C2054.22+1060.01+2052.53+1059.48+2051.16+1058.66C2049.74+1057.8+2050.81+1051.73+2050.25+1050.12C2047.05+1040.93+2047.47+1019.19+2054+1009.12C2054.12+1009.05+2054.19+1008.95+2054.31+1008.88C2058.09+1006.47+2061.34+1004.39+2065.28+1002.84C2067.51+1002.41+2070.09+1002.13+2072.66+1001.84L2072.5+1001.91C2072.64+1001.83+2072.71+1001.87+2072.84+1001.81C2074.6+1001.62+2076.12+1001.41+2077.91+1001.28C2078.04+1001.28+2078.1+1001.29+2078.25+1001.28C2078.33+1001.27+2078.42+1001.26+2078.5+1001.25C2083.32+1000.91+2087.5+1000.72+2091.06+1000.66C2093.84+1000.85+2096.51+1000.97+2099.31+1000.66C2102.08+1000.69+2104.9+1000.8+2107.47+1001.28C2107.55+1001.92+2107.87+1002.41+2108.94+1002.22C2109.94+1002.04+2109.92+1001.01+2109.44+1000.34C2110.26+1000.39+2110.76+1000.15+2109.62+998.969C2109.48+998.815+2109.32+998.781+2109.16+998.75C2109.43+997.793+2109.69+996.477+2109.94+995.812C2111.07+992.805+2111.85+989.878+2112.47+986.875C2112.83+986.19+2113.16+985.485+2113.38+984.625C2114.21+981.275+2114.04+978.274+2113.62+975.25C2113.62+972.435+2113.56+969.635+2113.56+966.875C2113.57+961.152+2114.19+952.986+2112.69+946.562C2112.61+946.31+2112.56+946.047+2112.44+945.812C2111.98+944.091+2111.39+942.473+2110.53+941.125L2110.53+942.75C2111.2+943.148+2111.07+943.37+2110.53+943.5L2110.53+943.938C2110.38+943.853+2110.29+943.734+2110.12+943.656C2110.02+943.608+2109.86+943.579+2109.75+943.531C2109.97+943.513+2110.38+943.536+2110.53+943.5L2110.53+942.75C2110.25+942.581+2110+942.413+2109.47+942.188C2103.22+939.557+2094.61+938.454+2085.28+938.281C2082.43+938.072+2079.94+937.997+2078.41+938.188ZM2107.03+998.062C2106.52+997.83+2107.55+998.713+2108.09+999.344C2108.08+999.355+2108.07+999.364+2108.06+999.375C2108.04+999.365+2108.02+999.354+2108+999.344C2107.68+998.832+2107.37+998.218+2107.03+998.062ZM2075.44+999.031C2076.41+998.982+2077.45+999.112+2078.66+999.5C2075.89+999.734+2073.33+1000.04+2071.03+1000.34C2072.44+999.693+2073.89+999.109+2075.44+999.031ZM2050.41+1012.09C2048.85+1015.82+2048.01+1020.81+2047.66+1027.34C2047.54+1029.53+2047.4+1031.62+2047.38+1034.19C2047.36+1035.27+2047.08+1036.79+2046.88+1038.16C2046.71+1034.49+2047.31+1031.52+2047.66+1027.34C2047.96+1023.65+2047.63+1020.13+2048.25+1016.44C2048.53+1014.79+2049.3+1013.36+2050.41+1012.09ZM1972.03+1043.03C1971.99+1043.85+1971.89+1044.65+1971.84+1045.47C1971.85+1044.56+1971.95+1043.84+1972.03+1043.03ZM1925.62+1058.34C1924.49+1059.4+1923.62+1060.72+1923.09+1062C1923.34+1060.15+1923.72+1058.71+1924.41+1058.5C1924.69+1058.41+1925.29+1058.42+1925.62+1058.34ZM2111.31+1060.19C2111.4+1060.21+2112.58+1060.15+2112.47+1060.19C2112.22+1060.27+2111.99+1060.75+2111.75+1061.03C2111.73+1060.97+2111.77+1060.91+2111.75+1060.84C2111.65+1060.54+2111.58+1060.37+2111.31+1060.19ZM2049.84+1060.53C2050.19+1060.76+2050.65+1060.87+2051.03+1061.06C2050.61+1061.12+2050.19+1061.18+2049.78+1061.28C2049.27+1061.41+2049.82+1060.97+2049.84+1060.53ZM2105.06+1101.56C2104.82+1102.87+2104.59+1104.11+2104.28+1105.47C2104.29+1105.39+2104.3+1105.27+2104.31+1105.19C2104.52+1103.96+2104.76+1102.76+2105.06+1101.56ZM2102.78+1114.28C2102.76+1115.75+2103.03+1116.76+2103.91+1117C2105+1117.3+2102.84+1116+2101.12+1115.53C2101.17+1115.51+2101.24+1115.52+2101.28+1115.5C2101.93+1115.2+2102.4+1114.77+2102.78+1114.28ZM1923.34+1114.69C1923.38+1114.86+1923.41+1115.01+1923.44+1115.19C1923.51+1115.59+1923.91+1115.86+1924.22+1116.16C1923.3+1116.1+1921.97+1116.14+1921.31+1116.03C1920.68+1115.93+1923.03+1116.01+1923.12+1115.38C1923.15+1115.2+1923.29+1114.89+1923.34+1114.69ZM2076.94+1114.91C2079.01+1114.76+2081.06+1114.75+2083.09+1114.91C2087.41+1115.24+2091.46+1115.81+2095.81+1115.81C2096.03+1115.81+2096.32+1115.83+2096.56+1115.84C2093.92+1116.17+2091.32+1116.18+2088.31+1115.66C2085.8+1115.22+2078.25+1115.29+2070.5+1115.69C2072.64+1115.33+2074.8+1115.05+2076.94+1114.91ZM2049.16+1126.88C2049.44+1128.3+2049.6+1129.71+2049.81+1131.16C2049.4+1130.13+2049.02+1129.31+2049.16+1127.62C2049.17+1127.47+2049.16+1127.08+2049.16+1126.88ZM2050.16+1135.41C2050.12+1136.34+2049.97+1137.23+2049.72+1138.09C2049.31+1136.08+2049.75+1135.86+2050.16+1135.41ZM1972.66+1167.22C1973.23+1169.89+1973.76+1172.62+1974.03+1176.09C1974.35+1180.18+1974.74+1184.3+1975.12+1188.41C1973.91+1182.03+1973.15+1174.57+1972.66+1167.22ZM1973.31+1255.91C1973.67+1256.85+1974.08+1256.85+1973.72+1259.41C1973.08+1263.84+1974.01+1268.63+1974.34+1273.03C1974.39+1273.59+1974.3+1274.12+1974.28+1274.66C1973.72+1269.11+1972.99+1263.53+1973.12+1258.69C1973.15+1257.87+1973.28+1256.77+1973.31+1255.91ZM2050.03+1259.5C2050.34+1261.46+2050.61+1263.37+2050.91+1265.41C2050.36+1264.52+2049.88+1263.6+2049.78+1262.44C2049.7+1261.48+2049.89+1260.48+2050.03+1259.5ZM2052.59+1284.25C2052.57+1286.18+2052.45+1288.06+2052.25+1289.91C2052.23+1289.75+2052.2+1289.56+2052.19+1289.41C2052.04+1287.66+2052.3+1285.94+2052.59+1284.25ZM1972.47+1302C1972.4+1302.61+1972.38+1303.23+1972.31+1303.88C1972.09+1303.33+1972.16+1302.7+1972.47+1302ZM2049.75+1302.44C2049.76+1302.64+2049.72+1303.31+2049.75+1303.09C2049.78+1302.9+2049.63+1302.75+2049.5+1302.59C2049.58+1302.54+2049.67+1302.5+2049.75+1302.44ZM2013.81+1303.88C2012.41+1304.04+2011.16+1304.17+2009.94+1304.31C2010.29+1304.19+2010.62+1304+2011+1303.94C2011.91+1303.8+2012.86+1303.85+2013.81+1303.88ZM1993.66+1305.34C1994.43+1305.44+1995.23+1305.63+1996.03+1305.84C1992.88+1306.18+1990.97+1306.42+1986.75+1306.91C1988.18+1306.37+1989.7+1305.76+1991+1305.44C1991.84+1305.23+1992.74+1305.23+1993.66+1305.34ZM1973.53+1308.38C1973.54+1308.38+1973.55+1308.4+1973.56+1308.41C1973.56+1308.41+1973.34+1308.44+1973.34+1308.44C1973.45+1308.53+1973.46+1308.38+1973.53+1308.38Z" stroke="#000000" stroke-width="1" fill="#ffffff" opacity="1" stroke-linejoin="round"/>
</g>
</svg>
