<?xml version="1.0" encoding="UTF-8" standalone="no"?> <!-- Created with Vectornator Pro for iOS (http://vectornator.io/) --><!DOCTYPE svg PUBLIC "-//W3C//DTD SVG 1.1//EN" "http://www.w3.org/Graphics/SVG/1.1/DTD/svg11.dtd">
<svg height="100%" style="fill-rule:evenodd;clip-rule:evenodd;stroke-linecap:round;stroke-linejoin:round;" xmlns:xlink="http://www.w3.org/1999/xlink" xmlns="http://www.w3.org/2000/svg" xml:space="preserve" width="100%" xmlns:vectornator="http://vectornator.io" version="1.1" viewBox="0 0 3840 2160">
<metadata>
<vectornator:setting key="RulersVisible" value="1"/>
<vectornator:setting key="SnapToEdges" value="0"/>
<vectornator:setting key="Units" value="Pixels"/>
<vectornator:setting key="DynamicGuides" value="0"/>
<vectornator:setting key="SnapToPoints" value="0"/>
<vectornator:setting key="CMYKEnabledKey" value="0"/>
<vectornator:setting key="SnapToGrid" value="0"/>
<vectornator:setting key="ShowGrid" value="1"/>
<vectornator:setting key="GridSpacing" value="36"/>
</metadata>
<defs/>
<g id="Darkpatch" vectornator:layerName="Darkpatch">
<path d="M732.269+1078.27C732.269+926.855+931.263+760.918+1148.16+799.383C1365.06+837.847+1667.13+691.741+1893.87+691.741C2149.96+691.741+2278.29+699.83+2576.87+804.276C2875.44+908.721+3186.03+1040+3186.03+1132.1C3186.03+1263.13+2777.87+1275.03+2520.6+1366.95C2324.84+1436.89+2250.28+1574.9+1965.26+1574.9C1655.11+1574.9+1472.13+1512.32+1304.73+1369.4C1105.97+1199.69+732.269+1200.51+732.269+1078.27Z" opacity="1" fill="#271d1b"/>
</g>
<g id="Lightpatch" vectornator:layerName="Lightpatch">
<path d="M1033.18+1078.27C1033.18+977.194+1362.52+896.026+1527.35+921.704C1692.19+947.381+1768.49+799.383+1940.8+799.383C2135.42+799.383+2364.03+892.347+2364.03+892.347C2364.03+892.347+2503.87+950.898+2621.57+998.342C2728.81+1041.57+2848.42+1048.96+2848.42+1078.27C2848.42+1165.75+2645.24+1209.16+2449.72+1270.52C2300.96+1317.21+2191.65+1393.86+1975.05+1393.86C1739.35+1393.86+1556.71+1352.27+1429.5+1256.86C1278.45+1143.58+1033.18+1159.88+1033.18+1078.27Z" opacity="1" fill="#53312c"/>
</g>
<g id="Red" vectornator:layerName="Red">
<path d="M1979.61+1120.86C1979.42+1119.93+2045.36+1078.44+2056.24+1054.74C2067.12+1031.03+2070.75+1019.71+2070.71+944.247C2070.7+920.608+2060.06+885.343+2057.91+860.609C2053.16+806.034+2038.14+769.496+2037.68+766.317C2036.09+755.318+2025.7+737.697+2040.56+706.613C2041.93+703.759+2022.42+746.227+2021.14+743.063C2020.08+740.454+2017.74+708.802+2016.63+706.031C2012.84+696.641+2008.72+686.298+2004.4+674.875C2003.54+672.588+2004.33+667.298+2006.67+648.233C2007.94+637.889+2004.64+679.4+1997.69+656.587C1995.6+649.719+1992.83+642.729+1990.37+635.282C1979.98+603.791+1947.22+564.747+1911.7+536.873C1878.78+511.036+1842.55+495.147+1842.55+495.147C1842.55+495.147+1859.81+515.196+1871.17+540.911C1887.38+577.599+1895.01+629.267+1852.78+680.138C1827.44+710.659+1762.5+770.856+1769.99+801.723C1777.2+831.492+1777.03+701.465+1777.23+702.587C1786.97+757.862+1742.07+786.721+1737.82+793.845C1728.86+808.879+1695.76+833.699+1678.78+929.499C1673+962.098+1693.73+1012.24+1696.73+1027.86C1702.5+1057.87+1777.47+1104.15+1775.27+1107.89C1768.3+1119.73+1896.03+1133.46+1893.78+1130.07" opacity="1" fill="#ff0000"/>
</g>
<g id="Orange" vectornator:layerName="Orange">
<path d="M1852.07+1090.3C1851.89+1089.27+1860.71+1087.45+1884.71+1097.43C1917.92+1111.23+1948.62+1117.71+1977.5+1094.97C1996.49+1080.02+1988.2+1062.05+1999.66+1037.88C2011.21+1013.51+1990.69+1012.12+1988.25+980.51C1987.31+968.295+1990.01+923.164+2004.59+888.87C2005.93+885.722+1980.76+933.501+1981.29+903.849C1981.35+900.744+1980.68+909.199+1981.11+888.228C1981.34+877.06+1973.35+866.457+1969.12+853.855C1968.27+851.332+1969.05+845.495+1971.35+824.461C1972.59+813.048+1965.72+855.546+1958.9+830.376C1956.85+822.799+1948.64+791.424+1951.04+771.845C1953.43+752.266+1967.15+716.538+1960.61+690.174C1951.02+651.537+1908+620.635+1908+620.635C1908+620.635+1922.24+648.71+1916.59+679.1C1911.28+707.718+1896.75+710.222+1888.85+727.952C1873.52+762.391+1880.23+762.677+1877.11+771.215C1864.05+807.03+1868.62+791.929+1864.45+799.789C1859.54+809.044+1839.26+816.779+1830.19+828.821C1828.75+830.737+1819.63+850.355+1819.63+850.355L1802.59+862.521L1768.27+888.393C1746.75+915.742+1726.76+985.304+1735.8+1011.17C1745.6+1039.18+1752.4+1022.64+1787.05+1056.75C1813.78+1083.05+1823.98+1072.36+1821.78+1068.62" opacity="1" fill="#ff5a00"/>
</g>
<g id="Yellow" vectornator:layerName="Yellow">
<path d="M1854.7+1066.06C1854.56+1065.28+1864.32+1066.49+1883.4+1073.97C1909.8+1084.32+1925.29+1070.32+1948.25+1053.27C1963.35+1042.06+1963.82+1040.95+1972.93+1022.83C1982.11+1004.57+1975.63+988.128+1973.69+964.436C1972.94+955.28+1964.35+940.765+1975.94+915.058C1977+912.698+1960.37+967.432+1960.79+945.204C1960.84+942.877+1956.93+930.297+1957.27+914.576C1957.46+906.204+1951.11+898.256+1947.74+888.809C1947.07+886.918+1947.68+882.542+1949.51+866.774C1950.51+858.219+1945.04+890.077+1939.62+871.209C1937.99+865.529+1930.83+842.947+1928.92+836.788C1913.3+786.602+1926.64+697.729+1926.64+697.729C1926.64+697.729+1917.36+734.95+1912.37+750.737C1907.42+766.393+1910.78+785.468+1897.8+808.874C1883.92+833.915+1878.93+828.275+1876.46+834.676C1866.07+861.524+1853.52+865.687+1850.21+871.579C1846.31+878.517+1841.14+876.173+1833.93+885.2C1832.79+886.636+1828.09+890.011+1827.56+872.831L1826.29+894.521L1798.15+928.347C1781.04+948.848+1770.51+985.37+1777.71+1004.76C1785.49+1025.76+1775.47+1015.33+1803.02+1040.9C1824.26+1060.62+1838.09+1059.73+1836.34+1056.92" opacity="1" fill="#ffae00"/>
</g>
</svg>
