<?xml version="1.0" encoding="UTF-8" standalone="no"?> <!-- Created with Vectornator Pro for iOS (http://vectornator.io/) --><!DOCTYPE svg PUBLIC "-//W3C//DTD SVG 1.1//EN" "http://www.w3.org/Graphics/SVG/1.1/DTD/svg11.dtd">
<svg height="100%" style="fill-rule:evenodd;clip-rule:evenodd;stroke-linecap:round;stroke-linejoin:round;" xmlns:xlink="http://www.w3.org/1999/xlink" xmlns="http://www.w3.org/2000/svg" xml:space="preserve" width="100%" xmlns:vectornator="http://vectornator.io" version="1.1" viewBox="0 0 3840 2160">
<metadata>
<vectornator:setting key="RulersVisible" value="1"/>
<vectornator:setting key="SnapToEdges" value="0"/>
<vectornator:setting key="Units" value="Pixels"/>
<vectornator:setting key="DynamicGuides" value="0"/>
<vectornator:setting key="SnapToPoints" value="0"/>
<vectornator:setting key="SnapToGrid" value="0"/>
<vectornator:setting key="ShowGrid" value="1"/>
<vectornator:setting key="GridSpacing" value="36"/>
</metadata>
<defs/>
<g id="Darkpatch" vectornator:layerName="Darkpatch">
<path d="M664.129+1093.29C664.129+941.875+931.263+760.918+1148.16+799.383C1365.06+837.847+1667.13+691.741+1893.87+691.741C2149.96+691.741+2446.82+644.046+2745.39+748.492C3043.97+852.937+3186.03+1040+3186.03+1132.1C3186.03+1263.13+2777.87+1275.03+2520.6+1366.95C2324.84+1436.89+2250.28+1574.9+1965.26+1574.9C1655.11+1574.9+1472.13+1512.32+1304.73+1369.4C1105.97+1199.69+664.129+1215.53+664.129+1093.29Z" opacity="1" fill="#271d1b"/>
<path d="M2084.02+1752.16C2085.09+1748.94+2086.16+1745.73+2087.24+1742.51" stroke="#000000" stroke-width="1" fill="#000000" opacity="1" stroke-linejoin="round"/>
<path d="M3456.79+10.8307C3455.44+7.68154+3455.65+3.18656+3452.74+1.38315C3448.82-1.04022+3427.64-6.94446+3419-9.41408" stroke="#000000" stroke-width="1" fill="#000000" opacity="1" stroke-linejoin="round"/>
<path d="M2024.81+863.812C2012.42+867.941+2016.42+863.68+2018.06+880.008" stroke="#000000" stroke-width="1" fill="#000000" opacity="1" stroke-linejoin="round"/>
</g>
<g id="Lightpatch" vectornator:layerName="Lightpatch">
<path d="M1039.29+1055.68C1039.29+954.598+1362.52+896.026+1527.35+921.704C1692.19+947.381+1768.49+799.383+1940.8+799.383C2135.42+799.383+2257.82+763.244+2470.35+792.596C2682.88+821.949+2673.22+869.349+2790.92+916.793C2898.16+960.023+2848.42+1048.96+2848.42+1078.27C2848.42+1165.75+2645.24+1209.16+2449.72+1270.52C2300.96+1317.21+2251.65+1345.79+2035.04+1345.79C1799.34+1345.79+1662.35+1335.52+1535.14+1240.11C1384.09+1126.82+1039.29+1137.28+1039.29+1055.68Z" opacity="1" fill="#53312c"/>
</g>
<g id="Red" vectornator:layerName="Red">
<path d="M1979.61+1120.86C1979.42+1119.93+2034.57+1077.89+2045.45+1054.19C2056.33+1030.48+2081.61+1028.89+2081.57+953.432C2081.56+929.794+2042.7+899.263+2041.65+862.817C2040.59+826.37+2038.14+769.496+2037.68+766.317C2036.09+755.318+2025.7+737.697+2040.56+706.613C2041.93+703.759+2022.42+746.227+2021.14+743.063C2020.08+740.454+2017.74+708.802+2016.63+706.031C2012.84+696.641+2008.72+686.298+2004.4+674.875C2003.54+672.588+2027.87+621.236+2033+659.645C2034.5+670.895+2033.64+634.618+2020.46+638.587C2007.28+642.556+1991.5+650.491+1989.04+643.044C1978.64+611.553+1981.41+620.358+1982.76+601.959C1984.42+579.395+1979.6+584.869+1989.03+552.833C1998.47+520.796+2061.94+469.892+2038.17+484.899C1924.84+556.442+1894.41+600.933+1852.18+651.804C1826.84+682.325+1762.5+770.856+1769.99+801.723C1777.2+831.492+1743.62+713.416+1743.82+714.537C1753.56+769.813+1692.94+822.742+1688.69+829.866C1679.72+844.9+1695.76+833.699+1678.78+929.499C1673+962.098+1693.73+1012.24+1696.73+1027.86C1702.5+1057.87+1777.47+1104.15+1775.27+1107.89C1768.3+1119.73+1896.03+1133.46+1893.78+1130.07" opacity="1" fill="#ff0000"/>
</g>
<g id="Orange" vectornator:layerName="Orange">
<path d="M1852.07+1090.3C1851.89+1089.27+1860.71+1087.45+1884.71+1097.43C1917.92+1111.23+1948.62+1117.71+1977.5+1094.97C1996.49+1080.02+1988.2+1062.05+1999.66+1037.88C2011.21+1013.51+1990.69+1012.12+1988.25+980.51C1987.31+968.295+2002.36+932.596+2016.93+898.302C2018.27+895.154+1991.06+937.46+1991.59+907.807C1991.64+904.703+1984.18+901.531+1984.62+880.56C1984.85+869.392+1973.35+866.457+1969.12+853.855C1968.27+851.332+1962.47+811.153+1967.51+830.499C1972.54+849.845+1971.15+819.55+1964.34+794.38C1962.29+786.803+1966.38+772.77+1968.77+753.191C1971.17+733.613+1948.07+737.099+1941.53+710.735C1931.94+672.098+1957.37+627.091+1957.37+627.091C1957.37+627.091+1905.98+660.067+1900.34+690.458C1895.02+719.076+1909.54+718.735+1902.24+736.716C1894+756.993+1887.61+765.564+1884.5+774.103C1871.43+809.918+1861.46+796.784+1855.35+803.251C1844.57+814.658+1825.13+820.992+1816.06+833.034C1814.62+834.95+1793.88+846.975+1793.88+846.975L1763.46+881.827L1748.89+931.253C1727.36+958.602+1726.76+985.304+1735.8+1011.17C1745.6+1039.18+1752.4+1022.64+1787.05+1056.75C1813.78+1083.05+1823.98+1072.36+1821.78+1068.62" opacity="1" fill="#ff5a00"/>
</g>
<g id="Yellow" vectornator:layerName="Yellow">
<path d="M1854.7+1066.06C1854.56+1065.28+1864.32+1066.49+1883.4+1073.97C1909.8+1084.32+1925.29+1070.32+1948.25+1053.27C1963.35+1042.06+1964.73+1039.99+1973.84+1021.87C1983.03+1003.61+1985.92+992.332+1983.98+968.64C1983.23+959.483+1964.35+940.765+1975.94+915.058C1977+912.698+1960.37+967.432+1960.79+945.204C1960.84+942.877+1943.72+935.568+1944.06+919.847C1944.24+911.475+1933.48+915.987+1930.12+906.54C1929.45+904.649+1953+869.713+1954.83+853.945C1955.83+845.39+1971.31+873.264+1939.62+871.209C1907.94+869.153+1930.83+842.947+1928.92+836.788C1913.3+786.602+1926.32+729.112+1926.32+729.112C1926.32+729.112+1914.83+777.326+1909.84+793.113C1904.89+808.769+1912.68+814.697+1899.7+838.103C1885.82+863.145+1882.54+841.841+1880.06+848.242C1869.68+875.09+1865+850.588+1861.68+856.48C1857.78+863.418+1864.61+902.946+1841.41+893.867C1797.68+876.758+1807.19+875.49+1807.19+875.49L1814.79+910.976L1817.96+942.026C1817.96+942.026+1770.51+985.37+1777.71+1004.76C1785.49+1025.76+1775.47+1015.33+1803.02+1040.9C1824.26+1060.62+1838.09+1059.73+1836.34+1056.92" opacity="1" fill="#ffae00"/>
</g>
</svg>
