<?xml version="1.0" encoding="UTF-8" standalone="no"?> <!-- Created with Vectornator Pro for iOS (http://vectornator.io/) --><!DOCTYPE svg PUBLIC "-//W3C//DTD SVG 1.1//EN" "http://www.w3.org/Graphics/SVG/1.1/DTD/svg11.dtd">
<svg height="100%" style="fill-rule:evenodd;clip-rule:evenodd;stroke-linecap:round;stroke-linejoin:round;" xmlns:xlink="http://www.w3.org/1999/xlink" xmlns="http://www.w3.org/2000/svg" xml:space="preserve" width="100%" xmlns:vectornator="http://vectornator.io" version="1.1" viewBox="0 0 3840 2160">
<metadata>
<vectornator:setting key="RulersVisible" value="1"/>
<vectornator:setting key="SnapToEdges" value="0"/>
<vectornator:setting key="Units" value="Pixels"/>
<vectornator:setting key="DynamicGuides" value="0"/>
<vectornator:setting key="SnapToPoints" value="0"/>
<vectornator:setting key="SnapToGrid" value="0"/>
<vectornator:setting key="ShowGrid" value="1"/>
<vectornator:setting key="GridSpacing" value="36"/>
</metadata>
<defs/>
<g id="Darkpatch" vectornator:layerName="Darkpatch">
<path d="M664.129+1093.29C664.129+941.875+1014.15+917.175+1199.57+798.25C1381.76+681.398+1667.13+691.741+1893.87+691.741C2149.96+691.741+2517.01+586.911+2815.59+691.357C3114.16+795.802+3186.03+1040+3186.03+1132.1C3186.03+1263.13+2777.87+1275.03+2520.6+1366.95C2324.84+1436.89+2285.15+1520.63+2000.13+1520.63C1689.98+1520.63+1429.29+1564.43+1261.9+1421.5C1063.14+1251.8+664.129+1215.53+664.129+1093.29Z" opacity="1" fill="#271d1b"/>
<path d="M2084.02+1752.16C2085.09+1748.94+2086.16+1745.73+2087.24+1742.51" stroke="#000000" stroke-width="1" fill="#000000" opacity="1" stroke-linejoin="round"/>
<path d="M3456.79+10.8307C3455.44+7.68154+3455.65+3.18656+3452.74+1.38315C3448.82-1.04022+3427.64-6.94446+3419-9.41408" stroke="#000000" stroke-width="1" fill="#000000" opacity="1" stroke-linejoin="round"/>
<path d="M2024.81+863.812C2012.42+867.941+2016.42+863.68+2018.06+880.008" stroke="#000000" stroke-width="1" fill="#000000" opacity="1" stroke-linejoin="round"/>
</g>
<g id="Lightpatch" vectornator:layerName="Lightpatch">
<path d="M876.405+1079.87C876.405+978.787+1368.13+903.701+1512.62+827.056C1659.99+748.885+1768.49+799.383+1940.8+799.383C2135.42+799.383+2257.82+763.244+2470.35+792.596C2682.88+821.949+2673.22+869.349+2790.92+916.793C2898.16+960.023+2848.42+1048.96+2848.42+1078.27C2848.42+1165.75+2645.24+1209.16+2449.72+1270.52C2300.96+1317.21+2209.2+1403.78+1992.6+1403.78C1756.89+1403.78+1592.24+1383.03+1465.03+1287.62C1313.98+1174.33+876.405+1161.47+876.405+1079.87Z" opacity="1" fill="#53312c"/>
</g>
<g id="Red" vectornator:layerName="Red">
<path d="M1979.61+1120.86C1979.42+1119.93+2034.57+1077.89+2045.45+1054.19C2056.33+1030.48+2080.18+1006.62+2081.18+976.032C2081.95+952.406+2033.09+920.706+2032.03+884.26C2030.98+847.814+2015.94+817.231+2015.48+814.052C2013.9+803.053+2026.2+775.931+2041.06+744.847C2042.42+741.993+2019.27+774.59+2017.99+771.426C2016.93+768.817+2014.96+739.708+2013.84+736.937C2010.06+727.547+1988.84+735.762+2000.82+700.62C2001.61+698.306+1987.94+685.038+1988.43+679.549C1988.93+674.061+1984.3+671.926+1986.1+661.444C1987.42+653.755+1991.5+650.491+1989.04+643.044C1978.64+611.553+1995.62+623.464+2004.35+609.247C2040.33+550.694+2026.69+512.733+1999.49+538.032C1973.19+562.497+2003.81+531.357+2018.59+542.579C2044.01+561.894+1908.5+631.107+1866.26+681.978C1840.92+712.499+1762.5+770.856+1769.99+801.723C1777.2+831.492+1687.74+638.006+1688.23+639.034C1755.36+779.957+1675.8+831.62+1671.55+838.744C1662.59+853.778+1706.46+827.58+1689.48+923.381C1683.7+955.98+1693.73+1012.24+1696.73+1027.86C1702.5+1057.87+1777.47+1104.15+1775.27+1107.89C1768.3+1119.73+1896.03+1133.46+1893.78+1130.07" opacity="1" fill="#ff0000"/>
</g>
<g id="Orange" vectornator:layerName="Orange">
<path d="M1852.07+1090.3C1851.89+1089.27+1860.71+1087.45+1884.71+1097.43C1917.92+1111.23+1948.62+1117.71+1977.5+1094.97C1996.49+1080.02+1988.2+1062.05+1999.66+1037.88C2011.21+1013.51+2015.44+1011.43+2013+979.827C2012.05+967.612+2002.36+932.596+2016.93+898.302C2018.27+895.154+1972.48+945.077+1973.01+915.425C1973.06+912.32+1987.21+883.156+1992.74+873.875C1998.27+864.593+1976.72+868.299+1972.49+855.697C1971.64+853.174+1959.14+804.15+1964.18+823.496C1969.21+842.842+1955.93+809.712+1949.11+784.543C1947.06+776.965+1947.24+762.571+1949.63+742.993C1952.03+723.414+1958.77+722.094+1952.23+695.73C1942.64+657.092+1919.51+674.955+1919.51+674.955C1919.51+674.955+1933.98+664.82+1928.34+695.21C1923.03+723.828+1909.54+718.735+1902.24+736.716C1894+756.993+1887.61+765.564+1884.5+774.103C1871.43+809.918+1852.39+773.92+1846.28+780.388C1835.51+791.794+1841.32+819.244+1832.26+831.286C1830.81+833.202+1785.51+827.131+1785.51+827.131C1785.51+827.131+1757.98+875.433+1765.78+884.782C1773.57+894.13+1738.25+933.603+1738.25+933.603C1716.72+960.951+1726.76+985.304+1735.8+1011.17C1745.6+1039.18+1752.4+1022.64+1787.05+1056.75C1813.78+1083.05+1823.98+1072.36+1821.78+1068.62" opacity="1" fill="#ff5a00"/>
</g>
<g id="Yellow" vectornator:layerName="Yellow">
<path d="M1854.7+1066.06C1854.56+1065.28+1864.32+1066.49+1883.4+1073.97C1909.8+1084.32+1925.29+1070.32+1948.25+1053.27C1963.35+1042.06+1964.73+1039.99+1973.84+1021.87C1983.03+1003.61+1992.32+998.247+1990.38+974.555C1989.63+965.398+1970.65+960.344+1982.24+934.636C1983.3+932.276+1960.37+967.432+1960.79+945.204C1960.84+942.877+1955.01+932.978+1955.35+917.257C1955.53+908.885+1943.24+907.966+1939.87+898.52C1939.2+896.628+1949.25+895.99+1951.82+880.325C1959.7+832.26+1958.88+852.084+1939.62+871.209C1917.1+893.58+1930.83+842.947+1928.92+836.788C1913.3+786.602+1926.32+729.112+1926.32+729.112C1926.32+729.112+1898.7+780.085+1893.71+795.872C1888.76+811.528+1911.65+832.129+1906.74+843.665C1901.83+855.202+1889.94+849.756+1887.46+856.157C1877.08+883.005+1861.72+847.549+1858.41+853.441C1854.51+860.379+1864.61+902.946+1841.41+893.867C1797.68+876.758+1807.19+875.49+1807.19+875.49L1814.79+910.976L1817.96+942.026C1817.96+942.026+1770.51+985.37+1777.71+1004.76C1785.49+1025.76+1775.47+1015.33+1803.02+1040.9C1824.26+1060.62+1838.09+1059.73+1836.34+1056.92" opacity="1" fill="#ffae00"/>
</g>
</svg>
