<?xml version="1.0" encoding="UTF-8" standalone="no"?> <!-- Created with Vectornator Pro for iOS (http://vectornator.io/) --><!DOCTYPE svg PUBLIC "-//W3C//DTD SVG 1.1//EN" "http://www.w3.org/Graphics/SVG/1.1/DTD/svg11.dtd">
<svg height="100%" style="fill-rule:evenodd;clip-rule:evenodd;stroke-linecap:round;stroke-linejoin:round;" xmlns:xlink="http://www.w3.org/1999/xlink" xmlns="http://www.w3.org/2000/svg" xml:space="preserve" width="100%" xmlns:vectornator="http://vectornator.io" version="1.1" viewBox="0 0 3840 2160">
<metadata>
<vectornator:setting key="RulersVisible" value="1"/>
<vectornator:setting key="CMYKEnabledKey" value="0"/>
<vectornator:setting key="Units" value="Pixels"/>
<vectornator:setting key="GridSpacing" value="36"/>
<vectornator:setting key="DynamicGuides" value="0"/>
<vectornator:setting key="ShowGrid" value="1"/>
</metadata>
<defs/>
<g id="Inside" vectornator:layerName="g3982">
<path d="M1775-314.562C1708.31-313.713+1642-267.3+1619.66-198.406C1603.49-148.537+1625.85-102.074+1678.56-144.094L1677.75-145.375C1626.03-103.467+1605.02-149.771+1620.94-197.719C1654.73-299.521+1789.02-351.713+1870.75-272.656C1897.11-247.156+1912.97-215.063+1922.41-180.062C1965.78-19.0976+1853.56+125.62+1795.78+267.562L1764.75+248.438L1764.22+248.188L1763.66+248L1763.06+247.938L1762.47+248L1761.97+248.125L1761.44+248.312L1760.94+248.625L1760.53+249L1760.22+249.469L1731.62+295.188C1727.03+288.631+1721.98+282.31+1716.81+276.031L1716.88+275.594C1680.33+235.924+1638.33+167.089+1668.69+113.719C1677.07+98.9745+1689.36+86.2829+1705.19+79.5625C1751.55+59.871+1804.97+125.691+1756.25+155.625C1744.35+162.934+1734.23+156.345+1729.16+144.312C1722.27+127.973+1725.66+97.669+1742.78+88.6875L1742.28+87.7812C1714.72+100.103+1718.92+173.268+1753.34+161.531C1779.35+152.664+1787.12+116.912+1772.16+95.75C1759.4+77.7165+1732.44+67.0439+1711+72.6562C1696.78+76.3786+1684.08+86.1187+1674.66+97.0938C1639.18+138.398+1655.79+196.714+1685.62+240.531C1646.71+197.991+1609.55+156.272+1620.59+97.7188C1642.36-17.6756+1755.68+37.7964+1822.12+13.8438C1893.46-11.8705+1887.94-152.171+1879.53-211.188L1878.94-211.156C1884.63-155.176+1887.49-16.3012+1821.34+8.96875C1755.27+34.2094+1638.91-23.4715+1616.38+97.625C1605.04+158.541+1643.71+201.082+1683.47+244.938C1674.36+238.264+1665.19+232.142+1658.84+227.438C1635.35+210.026+1610.57+189.483+1592.41+165.031C1590.2+160.368+1588.19+155.623+1585.56+151.094C1581.46+144.012+1577.13+137.073+1572.81+130.125C1571.83+127.49+1570.92+124.838+1570.12+122.125C1561.4+92.4757+1577.33+66.9295+1585.97+39.4688C1591.7+21.2523+1594.55+1.6426+1594.69-17.4375C1594.79-31.2717+1595.03-55.6037+1583.16-65.7188C1554.21-90.3686+1557.25-10.2564+1578.28-40.0312L1577.84-40.5312C1556.77-15.5532+1563.59-84.3514+1580.84-60.9375C1589.25-49.5335+1589.22-31.2437+1589.19-17.7812C1589.15+0.797541+1586.47+19.9657+1581.03+37.75C1573.09+63.7205+1559.17+87.8214+1563.28+115.062C1545.51+87.7449+1526.26+61.3915+1505.84+35.9375C1490.83+17.2168+1467.3-11.421+1440.72-12.2812C1394.92-13.7638+1464.85+81.5963+1474.28+24.6562C1475.41+17.8212+1473.9+13.3531+1472.09+6.90625L1471.41+7.09375C1472.71+13.2071+1473.56+17.7827+1472.31+24.0312C1466.19+54.6688+1436.35+28.6144+1430.69+11.4375C1428.17+3.80739+1429.7-8.19849+1439.91-7.96875C1465.51-7.39208+1488.41+20.3669+1503.09+38.1875C1525.03+64.8058+1545.55+92.6068+1564.56+121.375C1564.78+122.219+1564.94+123.055+1565.19+123.906C1578.56+169.242+1619.69+203.715+1656.38+230.875C1668.28+239.691+1683.56+248.395+1696.03+259C1707.73+272.156+1718.95+285.665+1728.66+299.938L1624.66+466.25L1624.47+466.656L1624.25+467.156L1624.12+467.719L1624.12+468.281L1624.25+468.812L1624.47+469.375L1624.72+469.812L1625.09+470.25L1625.56+470.656L1626.06+470.906L1812.16+554.781L1812.28+554.844L1812.81+555.031L1813.38+555.094L1813.97+555.031L1814.56+554.906L1815.06+554.719L1815.53+554.406L1815.97+554.031L1816.31+553.594L1939.31+359.75L1939.56+359.25L1939.75+358.75L1939.81+358.188L1939.81+357.594L1939.69+357.031L1939.44+356.531L1939.09+356.094L1938.72+355.625L1938.25+355.312L1897.03+329.906C1898.74+326.052+1900.72+322.27+1903.09+318.531C1923.67+286.063+1961.31+283.106+1988.66+259.25C2005.82+244.272+2008.86+223.318+2018.5+204.5C2063+193.179+2091.88+243.068+2128.72+261.688C2185.9+290.589+2256.28+291.424+2316.41+270.812C2359.62+255.999+2407.42+220.017+2404.5+169.438C2403.22+147.276+2380.19+130.013+2360.34+125.062C2354.79+123.676+2333.75+118.999+2330.03+126.688C2331.98+122.21+2337.16+118.035+2344.72+116.688C2382.55+109.945+2424.88+151.744+2420.09+189.531C2418.04+205.695+2410.29+222.236+2400.12+234.969C2348.7+299.362+2254.63+302.572+2184.72+333.844C2130.61+358.051+2099.52+393.816+2086.38+440.438L2001.09+395.781L2000.78+395.594L2000.19+395.469L1999.59+395.406L1999.03+395.469L1998.5+395.594L1997.97+395.781L1997.47+396.094L1997.06+396.469L1996.69+396.906L1880.09+584.75L1879.97+585.031L1879.78+585.594L1879.66+586.094L1879.66+586.656L1879.72+587.25L1879.91+587.75L1880.16+588.25L1880.56+588.688L1881+589.094L1881.47+589.406L2021.28+657.781L2011.97+730.688L2011.97+730.875L2011.97+731.469L2012.09+732.031L2012.28+732.531L2012.62+732.969L2013+733.438L2013.47+733.812L2013.97+734.062L2014.5+734.25L2015.09+734.312L2015.66+734.312L2016.25+734.188L2016.75+734L2017.22+733.688L2017.69+733.312L2018.06+732.844L2178.94+492.875L2179.06+492.625L2179.28+492.125L2179.41+491.531L2179.47+490.969L2179.41+490.406L2179.22+489.875L2178.94+489.375L2178.62+488.938L2178.16+488.562L2177.72+488.25L2155.59+476.656C2162.19+465.914+2169.42+455.618+2178.16+445.906C2190.15+432.58+2201.77+420.777+2216.22+410C2230.15+399.613+2246.41+393.246+2264+393.062C2350.88+392.158+2344.15+533.422+2455+491.906C2473.69+484.905+2489.43+476.012+2502.94+465.656C2592.41+409.223+2693.01+436.079+2789.31+457C2858.81+472.098+2936.61+479.571+3006.53+463.375C3096+442.653+3140.13+354.314+3202.97+296.156C3232.43+268.885+3278.62+239.666+3320.81+252.312C3342.38+258.778+3353.74+281.877+3360.75+301.438C3376.72+345.964+3365.28+398.454+3315.56+414.969C3290.52+423.286+3239.99+415.878+3267.88+381.031L3266.94+380.344C3236.79+416.654+3289.86+426.304+3316.78+417.406C3367.87+400.522+3379.94+345.889+3363.75+300.125C3356.44+279.474+3343.91+255.775+3321.31+249.031C3277.7+236.016+3230.62+264.823+3199.78+292.938C3137.04+350.139+3094.24+437.633+3005.56+458.219C2936.29+474.298+2859.32+466.376+2790.38+452.156C2697.81+433.067+2600.77+407.212+2514.72+455.781C2533.14+438.803+2546.79+418.694+2557.81+396.812C2578.32+368.612+2610.96+342.703+2647.53+322.156C2715.69+297.047+2773.95+348.784+2837.28+368.938C2897.66+388.151+2970.03+386.102+3030.88+370.344C3073.73+359.245+3119.06+339.858+3153.56+311.844C3167.26+300.721+3191.94+275.139+3171.94+257.938C3157.85+245.827+3134.2+246.574+3117.31+250.688C3107.71+253.026+3096.47+258.156+3100.22+269.25L3101.06+269.25C3098.49+259.39+3109.42+255.117+3117.66+253.094C3133.25+249.264+3164.36+247.358+3174.12+264.25C3183.76+280.919+3162.16+299.673+3151.12+308.281C3113.55+337.585+3063.24+358.259+3016.69+367.75C2959.88+379.332+2894.95+381.808+2838.94+364.5C2779.99+346.285+2720.54+297.681+2657.66+316.625C2706.63+290.929+2760.99+275.078+2801.88+276.562C2863.86+278.813+2913.24+310.096+2977.69+298.688C3041.85+287.33+3094.01+256.579+3134.91+212.094C3173.64+173.517+3217.65+144.267+3272+131.094C3289.52+126.847+3313.31+121.728+3330.94+128.375C3368.45+142.519+3277.14+185.804+3305.12+141.5L3305.06+141.406C3269.95+188.438+3379.44+144.662+3331.59+125.188C3313.37+117.77+3289.11+122.575+3270.88+127.156C3223.65+139.024+3183.78+163.233+3149.25+195.375C3163+178.175+3175.32+159.316+3186.19+138.969C3208.18+97.7789+3219.13+55.2861+3212.22+8.84375L3211.53+8.90625C3215.07+53.8091+3202.81+96.8315+3181.31+136.094C3136.7+217.585+3066.93+278.854+2973.66+293.031C3030.35+261.66+3081.93+211.364+3115.38+156.688C3134.94+124.702+3158.76+71.6859+3099.84+67.1562L3099.69+67.9688C3153.54+75.4741+3130.25+124.352+3112.09+154.5C3078.73+209.917+3025.42+261.857+2968.56+293.781C2966.67+294.032+2964.82+294.382+2962.91+294.594C2906.78+300.804+2857.04+273.068+2801.75+271.531C2733.84+269.643+2614.66+320.133+2563.5+384.844C2598.31+307.805+2607.04+212.712+2676.75+153.562C2742.55+97.7292+2776.82+208.355+2831.25+215.312C2870.95+220.387+2908.58+195.393+2936.94+170.594C2998.24+116.981+3037.83+36.7332+3062.62-39.5938L3060.19-40.5C3030.39+33.6656+2994.15+111.443+2932.69+164.969C2906.15+188.08+2870.93+212.082+2833.75+207.969C2777.9+201.79+2747.52+86.7043+2672.56+149.5C2565.69+239.035+2600.51+417.357+2466.72+479.844C2442.22+491.287+2413.3+499.362+2387.72+486.406C2337.88+461.17+2328.06+388.183+2263.56+390C2245.51+390.508+2228.82+397.21+2214.59+408C2200.14+418.969+2188.46+430.948+2176.5+444.469C2167.66+454.466+2160.5+464.911+2154.03+475.844L2088.88+441.719C2099.26+403.785+2120.5+372.39+2163.41+347.969C2170.18+344.111+2177.53+340.687+2185.12+337.438C2165.48+346.646+2146.92+357.792+2130.28+372.219L2130.78+372.719C2156.18+351.754+2184.96+337.51+2215.22+326.156C2244.44+316.482+2276.3+308.416+2306.38+298C2354.29+284.437+2401.73+269.738+2442.31+241.156C2531.76+178.151+2447.29+66.0839+2549.28+7.28125C2563.13-0.704104+2577.6-4.66927+2593.25-7.125C2613.66-10.3273+2634.59-10.2698+2655.09-8.25L2655.22-9C2611.71-22.1594+2543.65-6.22404+2516+30.75C2495.71+57.8748+2487.35+89.3265+2485.28+122.844C2482.91+161.286+2485.6+197.396+2455.19+225.938C2440+240.191+2421.48+250.167+2402.72+258.875C2381.01+268.951+2359.35+277.893+2337.03+285.938C2365.98+272.981+2391.32+256.034+2407.91+230.469C2416.76+216.826+2425.17+198.779+2423.5+182.125C2419.86+145.946+2384.29+106.584+2344.72+113.906C2325.48+117.466+2317.27+141.998+2344.72+140.469L2344.72+140.344C2331.76+139.606+2327.82+133.589+2329.62+127.75C2329.51+128.217+2329.41+128.707+2329.41+129.25L2330.22+129.438C2330.16+122.15+2355.07+127.538+2358.91+128.5C2377.05+133.046+2398.62+148.992+2399.91+169.281C2403.02+218.209+2356.76+251.947+2315.12+266.344C2256.41+286.645+2186.79+286.207+2130.62+258.438C2126.14+256.219+2121.77+253.466+2117.44+250.469C2129.35+256.175+2142.11+246.873+2151.94+238.844C2174.48+220.432+2194.8+199.355+2214.16+177.688C2249.03+138.657+2280.87+92.4368+2327.22+65.875C2341.19+57.8681+2356.89+49.8162+2373.06+47.7188C2395.85+44.7634+2417.63+47.4345+2437.88+33.9375C2464.88+15.9299+2468.46-12.8812+2485.31-38L2485.12-38.125C2467.07-15.0329+2461.96+13.3115+2436.22+30.7188C2416.29+44.1905+2394.84+41.2024+2372.31+44.0625C2353.34+46.4714+2333.4+56.9404+2317.72+67.4062C2274.82+96.0428+2245.19+137.35+2211.28+175.219C2191.98+196.772+2171.9+217.629+2149.81+236.375C2140.32+244.432+2128.59+254.444+2116.44+248.312L2116+249.531C2085.51+227.94+2057.69+192.335+2019.94+201.969C2020.09+201.696+2020.25+201.428+2020.41+201.156C2037.7+188.679+2053.82+174.218+2067.5+158.188C2077.2+151.474+2087.45+145.446+2098.78+140.531C2127.77+127.958+2159.35+124.537+2189.22+114.75C2215.53+106.128+2241.09+93.4968+2264.12+78.1562C2269.32+74.6974+2276.17+69.47+2280.94+65.4375C2295.73+52.9177+2334.79+10.3161+2299.47-3.125L2299.03-2.375C2327.4+13.878+2292.11+49.1226+2277.62+61C2274.06+63.9276+2264.95+70.69+2261.12+73.2188C2233.87+91.2553+2204.27+104.521+2173.25+114.469C2147.9+122.598+2121.57+126.25+2097.09+137.25C2089.25+140.777+2081.79+144.892+2074.62+149.406C2086.53+133.911+2096.12+117.154+2102.09+99.4062C2113.27+66.2009+2092.19+33.6357+2056.5+31.7188C2034.68+30.5469+2013.5+39.9084+1996.88+53.4062C1980.44+66.7439+1960.04+91.3713+1981.44+108.719L1981.53+108.656C1961.1+91.0515+1981.13+67.4943+1997.56+54.5C2013.94+41.5509+2034.64+32.6456+2055.91+34C2089.39+36.1323+2108.97+66.3305+2098+97.4375C2089.62+121.189+2073.23+144.397+2052.91+165.094C2045.75+170.967+2039.06+177.379+2032.53+183.969C2005.09+207.012+1973.54+225.297+1945+235C1911.74+246.308+1872.37+244.722+1843.97+267.594C1836.9+273.283+1831.81+280.061+1828.16+287.5L1797.72+268.75C1858.15+126.441+1971.27-17.6124+1926.84-180.781C1917.14-216.428+1900.7-249.108+1873.84-275.062C1844.98-302.956+1809.93-315.007+1775-314.562ZM3593.88+23.5625C3578.67+23.1499+3563.5+26.0388+3548.91+31.4062C3533.91+36.9221+3522.39+44.3429+3511.22+55.9375C3505.05+62.3367+3497.49+72.1785+3493.12+80.0625C3428.41+196.999+3662.65+170.636+3661.84+92.6562C3661.02+12.7193+3492.37+73.5434+3563.22+122.312C3566.83+124.796+3579.57+129.922+3584.88+132.125L3585.22+131.344C3579.48+128.873+3568.85+124.496+3564.44+121.344C3501.13+76.1101+3652.96+22.7382+3656.78+90.9688C3659.7+143.138+3527.53+177.514+3496.25+139.188C3479.86+119.11+3491.08+89.1107+3504.19+71.0312C3532.48+31.9874+3586.76+16.1481+3630.94+38C3677.67+61.116+3697.27+114.322+3708.81+161.719C3743.21+302.958+3679.18+463.09+3556.09+541.469C3271.41+722.742+2989.19+599.207+2686.66+579.281C2653.08+577.07+2619.57+571.267+2585.72+571.438C2517.49+571.781+2427.8+581.751+2367.59+617.594C2354.61+625.326+2335.22+634.088+2321.19+646.219L2315.91+642.125C2382.78+586.198+2493.75+564.016+2568.81+557.938C2684.3+548.586+2797.33+583.837+2911.16+597.5C3067.71+616.292+3238.4+608.511+3386.78+550.969C3489.94+510.965+3511.09+445.304+3524.22+342.281C3530.23+295.09+3531.87+230.225+3488.81+198.469C3467.02+182.395+3440.49+181.293+3414.97+186.344C3384.26+192.423+3353.97+208.444+3399.19+227.219L3400.06+225.812C3357.59+208.52+3385.61+194.866+3415.12+189.531C3439.2+185.18+3464.26+186.792+3484.72+201.75C3526.5+232.299+3524.71+295.779+3519.31+341.406C3507.3+442.988+3486.68+506.456+3385.12+545.531C3224.73+607.249+3044.72+608.815+2876.5+588.031C2773.3+575.28+2673.3+545.283+2568.38+554.281C2493.81+560.676+2380.71+583.76+2314.06+640.688L2222.47+569.531L2222.34+569.406L2221.81+569.156L2221.31+568.938L2220.72+568.812L2220.16+568.812L2219.56+568.938L2219.03+569.156L2218.53+569.406L2218.06+569.781L2217.69+570.156L1965.34+917.031L1965.22+917.281L1964.94+917.781L1964.81+918.344L1964.75+918.938L1964.81+919.5L1964.94+920L1965.22+920.5L1965.53+921.031L1965.91+921.406L1966.38+921.719L1966.91+921.969L2118.25+976.844L2118.84+976.969L2119.44+977.031L2120+976.969L2120.53+976.844L2121.03+976.594L2121.56+976.281L2121.94+975.875L2371.12+686.812L2371.44+686.312L2371.69+685.812L2371.84+685.281L2371.91+684.719L2371.84+684.156L2371.69+683.625L2371.44+683.062L2371.12+682.625L2370.72+682.25L2370.22+681.938L2369.69+681.656L2369.19+681.531L2368.59+681.469L2366.56+681.469L2323.88+648.312C2338.39+635.732+2358.64+627.418+2374.78+618.156C2408.55+598.782+2501.56+575.311+2539.22+575.156C2554.39+575.094+2569.57+575.581+2584.75+576.031C2581.35+576.828+2578.03+577.84+2574.94+579.25L2575.19+579.438C2659.08+558.071+2798.32+684.378+2863.38+725.094C2977.6+796.58+3107.59+828.487+3242.22+827.125C3310.6+826.433+3464.7+810.074+3489.25+729.094C3503.95+680.597+3442.78+663.042+3406.06+664.062C3403.46+664.135+3400.46+664.394+3397.41+664.781C3422.39+644.062+3493.01+676.198+3502.19+710.375C3511.08+743.459+3475.95+771.075+3453+786.812C3397.56+824.834+3324.99+855.132+3257.16+861.5C3154.64+871.124+3054.65+855.198+2956.03+829C2926.06+821.038+2894.68+816.684+2865.06+807.625C2811.55+791.258+2759.35+772.249+2704.28+761.688C2629.8+747.403+2532.04+754.534+2466.84+802.438L2408.75+746.062L2408.56+745.875L2408.09+745.562L2407.59+745.312L2407+745.188L2406.47+745.125L2405.91+745.188L2405.31+745.312L2404.81+745.562L2404.34+745.875L2403.91+746.25L2170.53+1012.28L2170.34+1012.47L2170.06+1012.97L2169.88+1013.5L2169.75+1014.06L2169.75+1014.62L2169.88+1015.19L2170.06+1015.72L2170.34+1016.22L2170.72+1016.66L2243.19+1088.94L2243.47+1089.19L2243.97+1089.5L2244.5+1089.69L2245.06+1089.81L2245.66+1089.88L2246.19+1089.81L2246.75+1089.62L2247.28+1089.38L2247.72+1089.06L2515.81+854.781L2515.94+854.656L2516.34+854.219L2516.59+853.719L2516.78+853.188L2516.91+852.625L2516.91+852.062L2516.78+851.562L2516.59+850.969L2516.34+850.531L2515.94+850.094L2468.91+804.469C2554.77+743.183+2678.23+754.289+2774.44+783.969C2884.95+818.059+3029.21+862.049+3157.97+869.281L3157.97+869.5C3160.24+869.452+3162.49+869.599+3164.75+869.625C3170.54+869.892+3176.31+870.141+3182.03+870.25C3199.1+871.366+3216.09+873.263+3233.31+872.875C3248.03+872.543+3262.99+871.267+3277.94+869.469C3266.31+871.574+3254.6+873.379+3242.69+874.531L3242.38+875.688C3271.11+873.915+3299.47+868.591+3327.47+860.875C3370.89+850.997+3413.19+835.286+3450.5+813.875C3451.73+813.171+3452.99+812.323+3454.22+811.594C3524.74+778.011+3593.39+738.367+3661+710.656C3704.49+692.83+3774.1+668.278+3828.06+678.031C3852.72+701.086+3868.94+733.357+3869.31+767.031C3869.44+778.499+3869.71+789.249+3865.41+800.125C3865.15+800.77+3864.77+801.3+3864.47+801.906C3857.07+806.061+3848.5+808.965+3838.5+809.844C3831.54+810.456+3824.29+810.859+3817.91+807.406C3796.37+795.754+3804.15+770.436+3830.09+782.25L3830.12+782.188C3794.23+762.594+3796.94+810.055+3826.66+813.844C3838.76+815.386+3851.1+811.08+3861.94+805.906C3847.37+824.253+3806.62+818.748+3795.12+799.531L3793.22+800.844C3799.54+823.819+3853.95+826.917+3866.06+807.469C3867.09+805.82+3867.97+804.133+3868.75+802.406C3876.52+798.048+3883.29+792.77+3888.47+785.156C3918.26+741.327+3882+687.365+3836.53+675.906C3835.33+675.604+3834.11+675.46+3832.91+675.188C3807.83+651.149+3774.11+636.136+3739.75+638.094C3636.34+643.985+3536.81+758.837+3448.16+809.281C3443.01+812.208+3437.68+814.877+3432.38+817.594C3411.79+827.106+3390.96+835.936+3369.81+843.781C3330.77+856.843+3289.83+865.198+3249.88+868.5C3242.41+869.117+3234.99+869.256+3227.56+869.188C3240.04+868.359+3252.35+867.22+3264.25+865.375C3336.61+854.151+3412.97+824.968+3471.06+780.562C3496.67+760.986+3519.6+725.156+3500.03+693.562C3484.02+667.708+3412.82+637.282+3391.34+665.812C3378.92+668.478+3368.66+674.632+3381.91+687.531L3382.62+687.062C3371.51+676.396+3379.22+671.173+3389.5+668.688C3387.31+672.567+3385.82+677.281+3385.34+683.031C3384.08+698.209+3413.83+706.78+3419.62+693.375C3425.69+679.363+3395.85+669.526+3398.22+684.094L3398.31+684.094C3397.99+670.871+3421.08+681.825+3417.94+691.531C3414.68+701.593+3388.05+695.982+3388.75+683.812C3389.15+676.933+3391.22+671.656+3394.5+667.688C3398.56+667.055+3402.66+666.753+3405.84+666.656C3446.45+665.426+3507.65+688.488+3480.78+739C3443.55+808.999+3285.38+823.538+3216.78+820.656C3071.45+814.55+2951.56+779.365+2831.56+698.438C2792.26+671.931+2693.43+591.642+2621.62+576.719C2659.77+577.153+2698.63+585.01+2736.53+588.344C2980.97+609.846+3239.32+703.886+3476.22+591.5C3508.63+576.123+3542.02+560.909+3570.75+539.031C3686.33+451.013+3749+304.395+3714.25+160.531C3701.6+108.169+3677.93+45.8071+3621.16+28.0625C3612.11+25.2356+3603+23.8101+3593.88+23.5625ZM1579.38+144.688C1580.88+147.109+1582.48+149.472+1583.97+151.906C1584.82+153.304+1585.46+154.76+1586.22+156.188C1583.79+152.43+1581.44+148.627+1579.38+144.688ZM2016.88+204.938C2007.5+221.423+2003.72+240.932+1989.19+254.219C1961.6+279.436+1907.77+288.255+1893.84+327.938L1831.59+289.594C1852.42+247.688+1912.37+254.165+1957.09+236.25C1975.75+228.775+1994.95+218.594+2013.16+206.25C2014.39+205.81+2015.66+205.284+2016.88+204.938ZM354.594+398.75C348.7+398.969+342.799+399.484+336.844+400.344C208.098+418.933+184.177+572.537+243.188+668.688C267.212+707.833+302.075+737.777+340.062+762.688C381.628+789.944+427.785+810.999+475.562+824.906C545.717+845.327+620.07+851.015+688.406+877.781C730.976+894.455+771.911+918.918+807.719+949.125C776.085+930.017+739.403+922.845+698.562+937.344C683.907+942.547+669.345+954.878+658.719+965.688C601.169+1024.23+628.642+1105.7+673.188+1163.62C688.26+1183.22+705.153+1203.89+726.875+1216.53C774.886+1244.47+799.032+1177.97+780.906+1141.75C768.18+1116.32+745.681+1125.33+741.094+1149.53L741.531+1149.69C746.661+1128.24+765.979+1118.46+777.781+1142.56C793.974+1175.63+775.105+1241.25+729.094+1213.78C707.901+1201.13+691.541+1180.62+676.906+1161.25C634.631+1105.29+606.359+1026.21+661.844+969.5C671.913+959.207+685.786+947.227+699.688+942.188C773.887+915.29+834.54+962.932+874.219+1022.84C903.742+1067.42+927.458+1115.85+948.594+1164.91C955.94+1181.96+963.025+1199.76+970.344+1217.72C833.517+1217.82+696.158+1231.91+569.781+1256.34C514.365+1227.3+458.15+1198.99+400.25+1175.22C328.399+1145.72+252.818+1120.28+175.531+1109.94C91.31+1098.67-4.1764+1110.73-67.7188+1172.22C-143.954+1245.99-134.771+1376.21-60.625+1448.12C-51.9737+1456.52-42.9143+1463.63-33.5+1469.94C-48.9228+1489.83-61.8431+1513.49-71.5312+1541.69C-73.2785+1546.77-74.768+1551.92-76.25+1557.06C-84.8842+1572.65-89.5136+1589.58-86.6875+1607.53C-113.04+1814.88+45.3339+2051.4+185.625+2180.53C253.256+2242.78+339.818+2309.93+436.219+2314.12C545.468+2318.88+585.082+2240.03+584.562+2150.22C582.764+2196.16+567.991+2239.83+535.094+2273.12C508.778+2299.75+474.43+2310.89+437.312+2309.69C341.799+2306.59+255.829+2238.81+189.406+2177.09C38.104+2036.51-137.602+1765.86-67.5938+1548.84C-52.6978+1527.89-31.4203+1509.88-13.75+1496.16C-10.0389+1493.27-6.23501+1490.53-2.46875+1487.72C4.30017+1491.11+11.2128+1494.36+18.3438+1497.62L18.8125+1496.78C11.9978+1493.45+5.36212+1490.14-1.125+1486.72C52.5732+1446.83+111.688+1414.03+173.125+1386.06C257.074+1383.66+347.384+1404.25+420.781+1426.72C439.774+1432.53+458.627+1438.9+477.406+1445.56C472.374+1447.74+467.043+1449.86+462.125+1452.06C344.539+1504.66+109.557+1659.62+45.5312+1779.44C38.9967+1791.67+37.4288+1804.22+32.4062+1816.78C37.4228+1804.23+39.1105+1791.76+45.7188+1779.59C109.392+1662.34+347.957+1507.15+463.438+1455.44C469.519+1452.71+475.816+1450.01+482.125+1447.31C527.722+1463.65+572.745+1481.99+617+1501.19C686.378+1531.29+753.423+1566.24+821.875+1598.31C710.463+1657.29+607.077+1728.27+519.406+1807.22C489.359+1834.28+458.593+1862.9+428.906+1893.19C414.358+1895.88+401.779+1907.32+393.375+1930.94C325.687+2006.22+268.385+2091.4+246.156+2188.56L246.5+2188.66C270.309+2093.49+325.681+2010.48+391.531+1936.75C390.995+1938.52+390.368+1940.04+389.875+1941.94L390.375+1942.16C391.02+1939.76+391.816+1937.79+392.531+1935.59C404.919+1921.76+417.706+1908.32+430.688+1895.12C457.107+1892.02+489.246+1916.41+513.125+1944.81C532.404+1967.74+549.003+1996.21+561.469+2027.12C549.501+1994.6+533.647+1965.3+515.438+1943.44C491.497+1914.69+459.496+1890.7+432.875+1892.84C461.765+1863.62+491.725+1835.87+521.25+1809.47C614.708+1725.89+716.812+1656.6+825.75+1600.12C839.76+1606.66+853.802+1613.13+867.969+1619.34C1014.5+1683.59+1170.79+1729.94+1276.44+1576.12C1292.08+1553.35+1303.02+1523.06+1311.94+1497.28C1319.23+1476.2+1325.46+1454.71+1331+1433C1341.22+1431.53+1351.47+1430.16+1361.75+1429.09C1372.32+1428+1382.91+1427.19+1393.5+1426.41C1404.87+1527.7+1423.88+1628.58+1438.81+1729.31C1453.64+1829.33+1457.59+1958.65+1363.94+2022.91C1247.81+2102.58+1069.27+2026.2+949.938+1993.62C891.24+1977.6+807.32+1952.23+749.375+1984.91C689.461+2018.69+687.237+2091.12+702.156+2151.78C728.275+2257.99+802.481+2356.48+883.094+2428.12C912.49+2454.25+950.768+2488.1+993.25+2486.31C1018.93+2485.23+1037.49+2469.57+1049.19+2447.59C1082.84+2384.39+1043.73+2299.12+1007.09+2245.97C990.914+2222.49+957.646+2181.22+944.406+2230.25L946.062+2230.91C957.325+2183.8+990.7+2225.11+1005.78+2246.69C1042.37+2299.04+1080.47+2383.46+1047.53+2445.94C1036.39+2467.08+1018.79+2482.24+994.094+2483.22C952.406+2484.87+915.046+2450.63+886.531+2424.84C807.363+2353.24+733.92+2256.25+707.75+2151.16C693.37+2093.41+694.247+2023.24+751.312+1990.59C807.758+1958.3+891.034+1984.36+948.156+1999.97C1069.63+2033.16+1250.45+2109.87+1368.09+2027.56C1463.07+1961.12+1459.17+1830.94+1443.88+1728.59C1428.83+1627.97+1410.22+1527.16+1398.47+1426C1494.08+1419.29+1590.29+1423.94+1685.88+1425.88L1686.22+1424.03C1590.05+1421.63+1494.08+1416.73+1398.19+1423.69C1397.33+1416.24+1396.43+1408.79+1395.66+1401.34C1392.32+1369.35+1391.01+1337.37+1389.75+1305.38C1397.48+1306.76+1405.14+1308.23+1412.62+1309.84C1505.86+1329.99+1589.82+1364.77+1674.66+1405.38L1674.88+1404.94C1675.92+1405.64+1676.95+1406.36+1678+1407.06L1679.69+1405.06C1645.7+1381.52+1612.43+1357.99+1575.44+1339.12C1518.06+1309.86+1454.95+1286.57+1388.16+1268.41C1387.54+1255.64+1386.87+1242.89+1385.88+1230.12C1381.5+1173.75+1373.86+1118.92+1365.62+1062.88L1363.78+1063.12C1371.05+1119.07+1378.5+1174.21+1382.47+1230.44C1383.34+1242.76+1383.85+1255.06+1384.34+1267.38C1376.89+1265.37+1369.45+1263.37+1361.91+1261.5C1370.16+1187.53+1368.44+1112+1361.53+1037.59L1699.62+1417.06L1617.84+1883.88L1617.84+1883.94L1617.78+1884.47L1617.84+1885.03L1617.97+1885.59L1618.25+1886.09L1618.56+1886.56L1619.03+1886.94L1619.47+1887.25L1620+1887.5L1620.56+1887.62L1621.09+1887.69L1631.47+1887.59C1617.18+1920.92+1598.89+1953.28+1582.59+1984.19C1520.47+2101.97+1446.44+2221.38+1352.62+2316.78L1353.22+2317.34C1448.58+2223.57+1524.37+2103.87+1586+1985.94C1588.53+1981.1+1591.23+1976.05+1593.84+1971.12C1591.01+1979.03+1588.69+1987.73+1586.84+1996.56C1564.39+2056.63+1548.1+2119.34+1552.53+2181.62C1556.21+2233.27+1582.69+2274.26+1597.34+2321.81L1597.56+2321.72C1588.36+2274.43+1559.86+2235.66+1555.84+2181.62C1551.7+2125.84+1564.58+2069.42+1583.47+2014.88C1582.09+2023.77+1581.18+2031.54+1580.66+2036.5C1572.24+2115.9+1578.58+2198.63+1622.22+2268C1640.62+2297.26+1693.1+2361.51+1722.62+2310.53L1722.47+2310.41C1687.64+2366.44+1630.23+2278.04+1615.19+2247.69C1582.86+2182.47+1577.31+2112.64+1583.81+2041.41C1588.76+2059.84+1610.19+2062.62+1634.19+2058.75C1640.71+2057.7+1647.77+2056.5+1654.62+2055.31C1650.39+2074.64+1646.96+2094.1+1644.97+2113.84C1642.5+2138.34+1638.18+2172.42+1654.62+2193.75L1656.22+2192.75C1641.58+2171.77+1646.11+2137.57+1648.22+2114.34C1650.05+2094.16+1653.66+2074.34+1658.19+2054.69C1675.96+2051.64+1694.22+2048.92+1712.25+2049C1699.07+2100.4+1690.32+2161.94+1708.5+2203.59L1709.41+2203.31C1693.37+2155.17+1701.82+2099.68+1715.44+2049.03C1738.56+2049.59+1760.72+2055.13+1779.16+2071.44C1782.16+2074.1+1784.88+2076.89+1787.47+2079.78C1779.38+2109.64+1771.24+2139.51+1762.84+2169.31C1753.39+2165.9+1747.76+2153.42+1751.38+2133.22C1752.64+2126.15+1755.07+2117.07+1758.94+2110.81L1758.44+2110.56C1753.63+2116.59+1750.75+2125.61+1749.16+2132.97C1748.44+2136.29+1747.1+2144.95+1747.06+2148.28C1746.9+2164.74+1753.01+2172.37+1761.47+2174.12C1752.98+2204.22+1744.45+2234.29+1735.72+2264.38L1737.72+2264.97C1747.36+2234.87+1756.5+2204.74+1765.41+2174.53C1783.32+2174.6+1808.28+2153.21+1811.09+2131.38C1812.29+2122.1+1810.82+2112.61+1808.22+2103.69C1805.32+2093.72+1799.72+2084.67+1792.94+2076.81C1809.96+2013.5+1825.53+1949.84+1839.88+1885.72L1893.16+1885.22C1894.59+1896.14+1895.91+1907.07+1897+1918.03C1907.13+2019.69+1874.54+2160.56+1825+2249.47L1825.59+2249.78C1877.71+2165.57+1910.79+2016.14+1899.75+1917.62C1898.54+1906.8+1897.04+1896+1895.47+1885.22L1956.69+1884.66C1951.8+1908.15+1947.04+1931.68+1942.91+1955.31C1930.49+2026.33+1930.12+2103.44+1935.5+2175.16C1938.02+2208.77+1938.79+2249.37+1954.94+2280.03L1956.38+2279.56C1943.01+2236.19+1941.09+2187.9+1939.5+2142.91C1937.34+2081.73+1936.99+2016.65+1946.69+1956.06C1950.51+1932.16+1954.99+1908.39+1959.59+1884.62L2012.19+1884.16C1993.11+1991.38+1982.49+2077.08+2004.19+2190.38C2010.07+2221.11+2014.91+2254.76+2031.47+2281.88L2031.5+2281.84C2011.68+2247.15+2008.82+2201.72+2003.56+2162.94C1989.76+2061.08+1998.69+1980.99+2014.22+1884.16L2150.94+1882.91C2153.73+1905.35+2156.61+1927.97+2165.69+1948.84C2184.88+1992.97+2231.28+2045.53+2239.75+2098.34C2239.27+2109.14+2238.75+2119.94+2238.19+2130.72C2238.06+2133.21+2238+2135.89+2237.91+2138.47C2234.49+2150.33+2228.31+2162.11+2218.53+2173.69C2212.47+2180.86+2205.23+2187.48+2197.38+2192.66C2185.41+2200.54+2173.34+2204.75+2159.03+2205.47C2099.05+2208.49+2066.46+2162.62+2096.5+2108.81C2103.36+2096.52+2128.11+2062.26+2146.47+2068.59C2155.69+2071.78+2163.98+2101.99+2169.12+2111.03L2169.28+2110.94C2163.5+2099.69+2159.6+2071.43+2146.38+2066.78C2122.45+2058.38+2092.39+2103.85+2085.81+2120.88C2064.75+2175.4+2107.07+2214.5+2160.47+2212.06C2175.91+2211.36+2189.51+2206.66+2202.25+2197.94C2210.86+2192.04+2217.6+2185.14+2224.06+2176.97C2229.67+2169.88+2233.9+2162.46+2237.16+2154.84C2236.42+2170.85+2234.95+2187.17+2229.16+2201.22L2230.41+2201.75C2239.83+2181.93+2241.23+2160.01+2242.53+2138.38C2245.18+2126.68+2245.68+2114.65+2244.53+2102.56C2246.85+2056.61+2246.79+2010.52+2233.97+1965.84C2225.43+1936.09+2207.63+1911.28+2196.47+1882.81C2196.45+1882.78+2196.42+1882.54+2196.41+1882.5L2243.09+1882.06C2260.41+1991.05+2284.93+2102.69+2354.25+2184.44C2376.65+2251.79+2419.59+2313.51+2467.34+2367.56L2468.09+2366.91C2423.78+2314.62+2383.62+2255.94+2361.16+2192.28C2386.27+2220.01+2416.85+2244.03+2454.62+2262.88C2489.53+2280.29+2526.6+2290.05+2564.62+2297.78C2615.89+2308.21+2683.62+2320.2+2732.16+2295.62L2731.25+2293.34C2683.92+2316.7+2615.56+2303.34+2565.88+2293.06C2528.41+2285.31+2492.04+2275.6+2457.66+2258.38C2415.98+2237.49+2383.09+2210.27+2356.72+2178.72C2341.61+2129.82+2337.19+2078.14+2349.88+2024.22C2370.29+1937.4+2438.59+1872.86+2470.53+1790.78C2514.29+1678.34+2466.05+1573.24+2372.88+1510.22C2495.85+1539.44+2606.31+1542.75+2718.81+1612.62C2780.64+1651.02+2832.49+1715.6+2822.56+1792.22C2805.86+1921.09+2653.24+1931.53+2554.03+1958.56C2512.13+1969.98+2450.11+1985.48+2432.56+2031.28C2413.6+2080.78+2452.61+2137.62+2486.97+2169.44C2554.69+2232.15+2725.53+2291.21+2810+2237.19C2833.38+2222.24+2839.86+2203.66+2836.22+2185.12C2839.14+2201.93+2832.08+2219+2808.75+2233.59C2725.9+2285.4+2557.7+2226.46+2491.22+2165.69C2458.55+2135.83+2420.16+2081.62+2437.28+2034.41C2453.44+1989.84+2515.1+1974.77+2555.22+1963.69C2656.68+1935.65+2811.32+1924.33+2827.62+1792.28C2837.28+1714.12+2784.33+1647.79+2721.09+1608.72C2637.92+1557.33+2556.23+1541.39+2469.44+1526.09C2535.59+1533.66+2602.68+1532.17+2668.97+1528.62C2741.09+1524.77+2818.73+1513.39+2896.44+1507.72C2911.47+1507.92+2926.4+1508.03+2940.97+1507.53C2961.05+1506.85+2981.06+1505.87+3001+1504.88C3060.61+1506.62+3118.78+1515.36+3172.91+1537.66C3217.37+1555.97+3266.88+1589.37+3285.03+1636.28C3311.76+1705.37+3229.98+1781.16+3166.62+1791.16C3115.34+1799.24+2969.91+1743.14+3086.88+1703.53L3086.22+1701.44C2968.8+1717.91+3082.2+1796.1+3148.62+1797.53C3217.45+1799.01+3308.5+1723.96+3293.88+1649.78C3284.4+1601.72+3240.34+1567.48+3200+1545.16C3148.6+1516.71+3088.52+1506.63+3028.53+1503.59C3082.96+1500.94+3137.25+1498.86+3192.41+1502.56C3261.88+1507.23+3341.64+1524.66+3394.72+1573.16C3459.33+1632.19+3462.61+1723.67+3493.72+1800.25C3515.95+1854.97+3556.47+1897.2+3601.41+1933.94C3636.46+1962.59+3687.37+1994.61+3734.53+1979.03C3763.29+1969.53+3785.57+1948.06+3804.91+1925.75C3853.82+1869.33+3877.38+1811.77+3809.06+1758.16C3785.22+1739.45+3757.25+1727.85+3727+1724.91C3679.06+1720.24+3655.89+1751.54+3691.5+1790.66C3721.16+1823.24+3772.74+1856.74+3818.44+1856.28L3818.5+1855.53C3773.56+1853.78+3726.02+1819.43+3696.25+1787.97C3648.97+1738.01+3703.16+1723.15+3746.88+1732.97C3776.23+1739.56+3800.98+1754.73+3822.16+1775.94C3869.56+1823.43+3838.16+1879.87+3801.62+1922.53C3780.65+1947.03+3753.13+1973.85+3719.25+1977.81C3677.83+1982.65+3635.35+1954.81+3604.91+1929.91C3560.79+1893.82+3520.22+1852.32+3497.88+1798.81C3465.76+1721.9+3463.01+1619.04+3390.5+1565.16C3276.02+1480.08+3122.98+1493.58+2987.31+1502.53C2967.04+1502.41+2946.97+1502.7+2927.53+1503.19C2913.89+1503.53+2900.25+1504.16+2886.59+1504.91C2856.83+1504.83+2827.28+1505.15+2803.59+1508.62C2793.38+1510.12+2783.52+1512.44+2773.56+1513.84C2661.99+1524.26+2550.27+1535.85+2439.03+1517.94C2380.97+1508.59+2311.13+1488.26+2270.34+1443.28C2267.51+1440.16+2263.03+1434.35+2258.34+1427.25L2383.81+1270.75L2384.12+1270.25L2384.34+1269.72L2384.47+1269.22L2403.44+1144.5C2419.26+1146.1+2442.6+1162.35+2464.12+1177.19C2445.63+1166.23+2426.06+1158.49+2402.38+1161.47L2402.88+1162.69C2452.24+1158.13+2483.12+1197.89+2524.03+1218.34C2608.44+1260.55+2745.45+1336.44+2843.66+1311.56C2860.88+1307.2+2880.15+1301.4+2894.66+1290.03C2915.63+1278+2936.55+1265.96+2959.66+1258.09C3054.79+1225.7+3176.29+1241.45+3264.91+1284.69C3315.08+1309.17+3369.04+1345.37+3383.59+1402.72C3403.46+1481.02+3290.35+1504.93+3247.84+1453.75C3221.31+1421.81+3249.41+1368.55+3291.09+1373.09L3291.28+1372.19C3253.8+1360.73+3220.89+1415.39+3238.38+1446.47C3272.56+1507.21+3393.18+1493.16+3388.97+1414.53C3385.56+1350.87+3316.9+1306.29+3266.16+1281.69C3176.63+1238.28+3054.58+1223.09+2958.69+1255.59C2938.3+1262.5+2920.01+1272.77+2901.84+1283.56C2952.61+1229.42+2848.46+1122.42+2785.88+1174.31C2771.73+1186.04+2770.71+1198.8+2776.59+1209.47C2775.31+1206.07+2774.94+1202.22+2775.88+1197.78C2777.66+1189.32+2780.12+1182.56+2787.03+1176.72C2852.39+1121.49+2966.27+1249.45+2878.03+1294.88C2864.96+1301.61+2850.52+1307.1+2835.84+1309.03C2724.82+1323.64+2620.83+1262.26+2525.47+1215.94C2512.82+1209.79+2501.07+1201.73+2489.44+1193.69C2491.59+1194.95+2493.82+1196.32+2495.78+1197.31C2579.84+1239.9+2669.3+1278.65+2765.28+1279.69C2798.99+1280.05+2844.84+1278.89+2871.94+1254.94C2918.54+1213.74+2830.21+1175.24+2795.72+1182.72C2758.18+1190.85+2798.79+1220.66+2816.25+1225.31C2818.89+1226.02+2823.37+1226.87+2827.53+1227.69C2815.92+1229.96+2797.51+1228.1+2785.91+1220.47C2796.11+1229.01+2810.86+1234.33+2824.34+1233.22C2829.01+1232.83+2832.54+1231.27+2835.03+1229.19C2840.28+1230.14+2845.63+1231.06+2849+1231.66L2849.28+1230.34C2845.15+1229.29+2840.98+1228.41+2836.81+1227.5C2840.5+1222.77+2839.16+1216.17+2830.81+1211.69L2830.81+1211.72C2841.33+1218.57+2839.48+1223.71+2832.19+1226.44C2827.27+1225.35+2822.35+1224.21+2817.53+1222.75C2796.5+1216.36+2759.12+1185.56+2806.03+1184.72C2841.48+1184.08+2919.11+1225.93+2859.53+1257.97C2759.3+1311.87+2590.42+1240.36+2497.5+1194.09C2471.33+1181.06+2429.77+1144.77+2403.66+1143.03L2408.81+1109.09C2472.63+1036.62+2647.13+1054.04+2726+1059.19C2752.39+1060.91+2778.54+1064.55+2804.75+1068.09C2978.2+1091.55+3147.07+1136.17+3309.56+1201.03C3466.12+1263.52+3615.49+1319.48+3783.62+1343.59C3846.9+1352.67+3909.5+1359.7+3972.84+1347.38C4018.98+1338.4+4079.72+1323.84+4110.19+1283.84C4170.17+1205.1+4109.67+1085.47+4021.72+1057.28C3970.94+1041+3910.37+1052.79+3863.84+1076.81C3846.37+1085.84+3821.05+1106.65+3824.53+1130C3832.99+1186.81+3984.52+1220.42+4008.72+1173.56C4031.49+1129.46+3900.04+1092+3924.06+1137.16L3924.5+1137.06C3902.79+1094.77+4026.98+1132.6+4006.62+1171.5C3983.2+1216.28+3838.67+1183.29+3828.5+1130.59C3824.26+1108.6+3848.73+1088.02+3864.94+1079.44C3910.22+1055.46+3970.79+1044.49+4020.31+1060.28C4105.56+1087.46+4165.27+1204.36+4107.28+1280.94C4073.72+1325.26+3999.81+1339.78+3948.78+1346.66C3893.99+1354.03+3838.58+1346.52+3784.38+1338.56C3614.65+1313.64+3469.32+1259+3311.19+1196.5C3148.04+1132.01+2979.38+1086.89+2805.31+1063.81C2778.98+1060.32+2752.75+1056.74+2726.25+1054.97C2649.46+1049.84+2474.73+1034.05+2409.59+1104.03L2413.5+1078.34L2415.16+1081.16C2476.53+1052.47+2659.3+1008.84+2724.5+1017.28L2724.69+1016.41C2689.36+1005.86+2643.02+1019.05+2608.28+1025.31C2541.41+1037.37+2475.09+1048.27+2413.53+1078.19L2415.38+1066.03C2436+1054.85+2456.3+1043.03+2477.59+1033.19C2508.89+1018.72+2544.43+1010.71+2577.97+1003.12C2926.79+924.239+3242.04+1137.23+3558.53+1246.16C3693.72+1292.68+3873.25+1345.05+4016.66+1310.25C4101.62+1289.63+4154.29+1213.1+4095.75+1134.78C4068.05+1097.71+4022.59+1079.96+3978.53+1071.81C3931.44+1063.11+3851.53+1066.55+3856.81+1111.41C3856.01+1075.74+3918.84+1070.36+3941.59+1071.44C3994.88+1073.97+4057.45+1092.68+4090.97+1136.84C4131.79+1190.63+4113.64+1266.83+4050.97+1292.84C4024.87+1303.67+4002.21+1308.89+3973.88+1311.81C3878.08+1321.69+3780.44+1303.28+3688.06+1279.56C3322+1185.57+2971.95+910.125+2577.09+999.688C2517.55+1013.19+2469.4+1034.63+2415.81+1063.16L2422.28+1020.53L2422.34+1020.03L2422.28+1019.47L2422.16+1018.94L2421.91+1018.44L2421.56+1017.94L2421.19+1017.56L2420.72+1017.22L2420.22+1016.97L2419.62+1016.84L2419.06+1016.78L2418.47+1016.84L2417.94+1016.97L2417.44+1017.22L2416.91+1017.56L2248.84+1154.56L2109+1032.16L2108.59+1031.84L2108.09+1031.59L2107.56+1031.41L1849+970.625L1848.69+970.562L1848.09+970.562L1847.53+970.625L1846.94+970.812L1846.5+971.062L1846.03+971.375L1845.66+971.812L1845.31+972.281L1845.06+972.844L1844.94+973.344L1844.94+973.906L1845+974.5L1845.19+975.062L1845.44+975.5L2097.78+1362.94L2097.84+1363.09L2098.19+1363.47L2098.62+1363.84L2147.62+1398.75L2065.72+1401.31L2065.59+1401.31L2065.03+1401.44L2064.5+1401.62L2063.97+1401.88L2063.53+1402.25L2063.12+1402.66L2062.88+1403.16L2062.69+1403.66L2037.03+1495.16L2002.66+1403.41L2002.44+1402.97L2002.12+1402.53L2001.75+1402.12L2001.22+1401.75L2000.69+1401.5L2000.19+1401.38L1999.59+1401.31L1999.03+1401.38L1915.69+1414.19L2011.19+1331.91L2011.25+1331.84L2011.66+1331.47L2011.91+1330.94L2012.16+1330.44L2012.28+1329.88L2012.28+1329.28L2012.22+1328.78L2012.03+1328.22L2011.78+1327.72L1765.78+954.75L1765.47+954.375L1765.06+953.969L1764.56+953.656L1764.03+953.469L1577.06+891.688L1642.28+834.594L1642.59+834.219L1642.91+833.781L1643.19+833.25L1643.31+832.688L1643.38+832.188L1643.31+831.594L1625.06+734.312L1660.34+734.312L1722.47+819.656L1722.72+819.938L1723.16+820.312L1723.62+820.625L1724.19+820.875L1724.72+821L1725.31+821L1867.22+815.219L1867.59+815.156L1868.12+815.031L1868.62+814.844L1944.34+774.375L1944.69+774.188L1945.12+773.875L1945.47+773.438L1945.78+772.938L1945.97+772.406L1946.09+771.844L1955.56+679.25L1955.56+679.062L1955.56+678.562L1955.44+678L1955.16+677.469L1954.91+676.969L1954.53+676.594L1954.06+676.219L1953.56+675.969L1553.03+511.219L1552.5+511.094L1551.97+510.969L1551.41+510.969L1550.81+511.094L1550.31+511.281L1549.78+511.594L1549.31+512L1549+512.438L1265.19+925.781L1265+925.969L1264.78+926.531L1264.66+927.062L1264.59+927.625L1264.66+928.188L1264.78+928.719L1265.06+929.219L1265.44+929.719L1356.84+1032.31C1357.31+1038.52+1357.86+1044.72+1358.28+1050.94L1356.56+1051.03C1353.68+1111.03+1355.52+1174.29+1339+1232.69C1336.94+1239.96+1334.49+1247.2+1331.88+1254.41C1219.24+1229.34+1097.89+1218+975.938+1217.75C968.368+1199.11+961.075+1180.6+953.5+1162.91C932.337+1113.48+908.151+1065.03+878.281+1020.28C866.893+1003.22+853.837+987.25+839.375+973.531C797.6+929.997+745.167+895.133+690.344+873.531C568.901+825.68+461.384+835.95+342.875+757.812C305.544+733.198+271.424+703.75+247.625+665.344C189.709+571.882+212.405+422.766+338.156+405C361.295+401.731+383.986+403.637+406.531+409.625C444.748+419.776+483.814+437.185+515.219+461.594C541.734+482.202+567.193+504.78+587.562+531.688C605.224+555.018+621.565+581.897+630.969+609.781C644.118+648.771+645.437+700.91+604.125+723.781C594.301+729.22+580.348+731.929+569.375+728.188C519.346+711.128+515.465+615.081+529.969+573.312L529.344+573.125C512.652+617.053+513.514+717.422+569.5+733.188C581.488+736.563+596.135+732.502+606.375+726.188C647.039+701.113+647.151+648.735+634.125+608.25C624.987+579.85+608.805+552.177+591.094+528.344C570.784+501.013+544.699+478.124+517.906+457.438C485.87+432.702+446.085+415.009+407.156+404.812C389.719+400.245+372.275+398.093+354.594+398.75ZM3856.81+1111.41C3856.84+1112.5+3856.73+1113.53+3856.88+1114.69C3857.44+1119.11+3859.43+1123.44+3861.81+1127.69C3859.04+1121.75+3857.39+1116.32+3856.81+1111.41ZM3861.81+1127.69C3865.08+1134.69+3869.9+1142.39+3876.69+1150.94L3878.09+1150.06C3873.3+1143.82+3866.49+1136.01+3861.81+1127.69ZM2785.91+1220.47C2785.5+1220.13+2785.05+1219.82+2784.66+1219.47C2785.09+1219.79+2785.45+1220.17+2785.91+1220.47ZM2776.59+1209.47C2778.08+1213.41+2780.9+1216.65+2784.47+1219.31C2781.2+1216.36+2778.54+1213.01+2776.59+1209.47ZM2836.22+2185.12C2835.75+2182.4+2835.04+2179.67+2834.06+2176.97C2835.02+2179.68+2835.68+2182.41+2836.22+2185.12ZM2834.06+2176.97C2833.01+2174.08+2831.79+2171.21+2830.22+2168.38C2831.67+2171.23+2833.04+2174.07+2834.06+2176.97ZM561.469+2027.12C575.716+2065.85+584.325+2109.15+584.562+2150.22C586.175+2109.03+577.189+2066.11+561.469+2027.12ZM3740.78+644.188C3770.86+642.607+3799.7+654.052+3822.44+673.062C3751.54+662.078+3674.41+699.067+3612.75+727.75C3569.4+747.917+3526.63+770.976+3483.31+792.844C3562.75+737.477+3652.99+648.8+3740.78+644.188ZM3837.88+680.375C3847.03+682.875+3855.68+686.385+3863.47+691.406C3903.57+717.273+3903.84+773.497+3870.44+798.125C3873.82+788.145+3874.05+777.234+3874.16+766.719C3874.49+734.82+3860.14+703.955+3837.88+680.375ZM1948.75+846.344L1948.25+846.469L1810.62+885.875L1796.81+889.844L1796.75+889.844L1796.16+890.094L1795.72+890.406L1795.25+890.781L1794.94+891.25L1794.66+891.75L1794.47+892.25L1794.41+892.812L1794.41+893.406L1794.53+893.906L1794.81+894.469L1795.12+894.906L1795.5+895.375L1795.97+895.688L1796.5+895.938L1821.22+905.906L1875.38+927.75L1875.81+927.938L1876.41+928L1877+928L1877.56+927.875L1878.09+927.688L1878.56+927.375L1879+927L1951.53+851.812L1951.88+851.344L1952.19+850.906L1952.38+850.344L1952.44+849.781L1952.44+849.188L1952.31+848.688L1952.12+848.125L1951.81+847.688L1951.41+847.219L1950.97+846.906L1950.5+846.594L1949.94+846.406L1949.34+846.344L1948.75+846.344ZM1360.44+1087.12C1363.34+1144.94+1363.32+1202.81+1356.88+1260.31C1350.79+1258.83+1344.67+1257.37+1338.53+1255.97C1341.11+1248.7+1343.5+1241.38+1345.53+1234.06C1358.67+1186.68+1359.72+1136.46+1360.44+1087.12ZM126.844+1112.91C142.789+1113.2+158.619+1114.45+174.062+1116.5C250.903+1126.68+326.004+1151.97+397.406+1181.34C452.499+1204.01+506.033+1230.81+558.781+1258.5C484.756+1273.24+414.617+1291.47+350.812+1312.59C292.315+1331.96+233.233+1353.6+176.094+1379.38C94.1674+1381.51+17.9594+1405-32.0938+1468.19C-41.2164+1461.85-49.9826+1454.8-58.3438+1446.47C-129.291+1375.81-139.74+1248.08-64.4062+1176.66C-13.4674+1128.36+57.7485+1111.63+126.844+1112.91ZM966.156+1222.28C968.189+1222.28+970.218+1222.31+972.25+1222.31C983.593+1250+995.745+1277.77+1010.31+1303.69C920.37+1315.18+829.462+1333.29+742.938+1355.84C680.418+1320.17+622.759+1284.33+576.25+1259.75C699.443+1236.29+832.956+1222.67+966.156+1222.28ZM977.844+1222.38C1098.63+1222.72+1218.84+1233.9+1330.41+1258.41C1325.91+1270.37+1320.74+1282.17+1315.09+1293.78C1222.69+1285.86+1120.08+1290+1015.78+1303.03C1001.21+1277.41+989.088+1249.89+977.844+1222.38ZM1337.09+1259.97C1343.55+1261.42+1349.98+1262.92+1356.38+1264.47C1355.57+1271.34+1354.91+1278.21+1353.91+1285.06C1353.3+1289.23+1352.54+1293.42+1351.91+1297.59C1342.28+1296.39+1332.5+1295.33+1322.62+1294.41C1327.97+1283.09+1332.82+1271.58+1337.09+1259.97ZM565.156+1261.81C567.046+1262.81+568.956+1263.78+570.844+1264.78C619.347+1290.42+674.577+1324.62+732.844+1358.38C644.027+1381.98+560.592+1410.36+487.875+1441.12C466.516+1433.46+445.048+1426.09+423.375+1419.53C353.254+1398.3+268.527+1379.18+188.188+1379.28C241.984+1355.6+297.295+1335.38+352.094+1317.12C417.274+1295.41+489.156+1276.73+565.156+1261.81ZM1361.41+1265.66C1369.19+1267.57+1376.87+1269.64+1384.56+1271.69C1384.95+1281.97+1385.29+1292.25+1385.59+1302.53C1384.18+1302.29+1382.79+1302.01+1381.38+1301.78C1373.38+1300.49+1365.26+1299.33+1357.06+1298.25C1357.69+1294.04+1358.43+1289.83+1359.03+1285.62C1359.98+1278.99+1360.63+1272.32+1361.41+1265.66ZM1388.44+1272.72C1454.56+1290.59+1517.02+1313.43+1573.81+1342.06C1607.49+1359.04+1638.14+1380.09+1669.19+1401.09C1580.6+1356.79+1488.31+1320.37+1389.69+1303.25C1389.29+1293.07+1388.91+1282.9+1388.44+1272.72ZM1215.69+1292.03C1249.6+1291.84+1282.49+1293.09+1314.09+1295.72C1305.4+1313.42+1295.76+1330.67+1285.69+1346.97C1272.25+1368.71+1256.42+1389.91+1238.25+1408.72C1235.27+1410.37+1232.29+1411.99+1228.94+1413.62C1164.13+1445.21+1098.72+1405.63+1053.69+1356.56C1039.8+1341.43+1028.08+1324.31+1017.56+1306.22C1085.18+1297.5+1152.11+1292.39+1215.69+1292.03ZM1321.66+1296.38C1331.78+1297.3+1341.77+1298.38+1351.59+1299.62C1344.86+1343.72+1336.78+1387.99+1325.59+1431.34C1277.12+1437.98+1228.14+1447.61+1179.22+1459.94C1204.54+1447.41+1228.63+1429.48+1251.06+1405.19C1258.61+1399.5+1264.67+1392.65+1269.62+1383.06C1277.32+1373.03+1284.83+1362.26+1292.06+1350.47C1302.6+1333.3+1312.7+1315.1+1321.66+1296.38ZM1356.75+1300.25C1366.54+1301.55+1376.2+1302.99+1385.66+1304.62C1386.62+1337.02+1387.6+1369.41+1390.81+1401.81C1391.55+1409.25+1392.42+1416.69+1393.25+1424.12C1382.7+1424.94+1372.14+1425.75+1361.59+1426.88C1351.62+1427.94+1341.64+1429.18+1331.62+1430.5C1342.45+1387.6+1350.26+1343.83+1356.75+1300.25ZM1012.16+1306.94C1023.15+1326.09+1035.43+1344.21+1050.09+1360.12C1096.31+1410.26+1162.71+1449.69+1228.66+1418.16C1205.01+1440.49+1177.72+1458.51+1146.78+1468.53C1142.26+1469.78+1137.74+1470.99+1133.22+1472.28C1019.84+1499.89+874.519+1430.55+748.094+1358.75C833.194+1336.75+923.148+1318.67+1012.16+1306.94ZM737.812+1361.28C855.086+1428.95+984.651+1493.71+1099.19+1482.5C1007.23+1511.18+916.426+1548.88+830.281+1593.84C760.116+1560.96+691.459+1524.96+620.344+1494.09C578.356+1475.87+535.756+1458.53+492.594+1442.88C563.609+1413.18+647.702+1385.02+737.812+1361.28ZM160.312+1386.59C101.919+1413.92+45.9169+1445.91-5.03125+1484.53C-12.613+1480.44-19.9976+1476.18-27.125+1471.5C18.5306+1414.3+86.3841+1390.87+160.312+1386.59ZM2256.53+1429.5C2260.91+1436.49+2265.09+1442.29+2267.66+1445.22C2296.97+1478.65+2341.73+1498.55+2386.5+1510.72C2381.46+1509.7+2376.53+1508.84+2371.44+1507.75L2371.31+1509.12C2370.39+1508.51+2369.53+1507.83+2368.59+1507.22L2367.94+1508.94C2461.76+1571.31+2511.36+1677.94+2466.91+1789.75C2434.41+1871.48+2366.35+1936.21+2345.62+2022.88C2333.33+2074.27+2336.61+2123.68+2350.03+2170.53C2287.61+2090.75+2264.16+1985.23+2246.31+1882.03L2261.28+1881.91L2261.47+1881.91L2262.03+1881.84L2262.62+1881.66L2263.09+1881.34L2263.53+1881.03L2263.94+1880.59L2264.25+1880.12L2264.44+1879.56L2264.56+1879.06L2264.56+1878.5L2236.31+1454.72L2256.53+1429.5ZM1324.91+1433.91C1319.46+1454.77+1313.4+1475.44+1306.34+1495.72C1297.42+1521.34+1286.69+1551.07+1271.06+1573.69C1167.01+1724.32+1013.45+1675.54+870.688+1612.34C858.53+1606.96+846.449+1601.4+834.406+1595.78C941.019+1541.35+1054.05+1498.97+1171.94+1467.56C1222.36+1454.13+1273.27+1441.72+1324.91+1433.91ZM-28.4688+1473.16C-21.3606+1477.65-13.9891+1481.71-6.4375+1485.59C-9.62661+1488.02-12.852+1490.39-16+1492.88C-31.8959+1505.41-50.0833+1521.03-64.1562+1538.94C-54.8553+1513.28-42.806+1491.5-28.4688+1473.16ZM2845.19+1507.75C2829.58+1508.94+2813.96+1510.12+2798.34+1511.53C2800.19+1511.23+2802.01+1510.88+2803.88+1510.62C2817.33+1508.8+2831.2+1508.1+2845.19+1507.75ZM2708+1526.5L2708.56+1527.44C2821.72+1534.3+2865.99+1636.26+2902.22+1734.28C2881.82+1684.14+2850.52+1637.69+2815.44+1597.75C2800.43+1580.67+2782.1+1559.56+2761.47+1549.09C2747.08+1541.79+2732.03+1535.87+2717.31+1529.25L2716.66+1530.78C2731.25+1537.61+2746.16+1543.82+2760.44+1551.28C2780.67+1561.85+2798.95+1582.45+2813.5+1599.53C2884.89+1683.32+2942.55+1793.37+2916.38+1907.41C2892.42+2011.76+2799.86+2101.37+2873.81+2209.16C2919.48+2275.72+3010.45+2317.82+3089.66+2321.66C3140.6+2324.13+3212.77+2294.97+3180.31+2233.16L3179.78+2233.38C3210.48+2294.14+3139.62+2320.49+3090.28+2317.97C3012.51+2313.99+2922.47+2272.56+2877.44+2207.25C2804.71+2101.78+2897.09+2010.58+2920.22+1907.84C2931.52+1857.64+2926.93+1808+2912.03+1761.03C2919.06+1780.26+2926.04+1799.1+2933.34+1816.5C3004.53+1985.95+3224.18+2163.98+3413.72+2145C3456.96+2140.67+3516.04+2130.05+3544.09+2092.81C3597.69+2021.66+3475.59+1931.61+3414.75+1920C3373.1+1912.05+3319.15+1936.86+3337.53+1987.5C3350.15+2022.25+3387.98+2044.11+3417.81+2062.12L3418.16+2061.62C3389.5+2043.42+3353.15+2021.19+3341.34+1987.19C3320.82+1928.06+3393.42+1916+3433.47+1928.94C3485.87+1945.87+3586.97+2025.21+3540.75+2088.69C3509.21+2132+3435.47+2141.31+3386.5+2141.19C3213.28+2140.74+3030.75+1992.96+2950.62+1844.41C2889.01+1730.17+2870.14+1533.51+2708+1526.5ZM-79.7188+1570.16C-82.2509+1580.55-84.3148+1591.02-85.8438+1601.59C-86.2276+1590.69-83.9744+1580.18-79.7188+1570.16ZM2192.59+1882.53C2193.57+1885.48+2194.59+1888.41+2195.91+1891.34C2207.3+1916.78+2221.97+1940.42+2229.66+1967.47C2240.09+2004.21+2241.5+2041.76+2240.47+2079.44C2234.37+2055.19+2223.03+2031.54+2210.59+2010.91C2197.66+1989.44+2181.36+1969.76+2170.66+1947C2161.12+1926.71+2157.45+1904.81+2153.84+1882.88L2192.59+1882.53ZM1837.19+1885.72C1822.24+1948.42+1806.11+2010.7+1789.34+2072.84C1769.16+2052+1743.64+2044.66+1716.94+2043.75C1721.04+2028.96+1725.48+2014.54+1729.88+2000.97C1742.26+1962.73+1754.91+1924.57+1767.44+1886.38L1837.19+1885.72ZM1765.69+1886.38C1752.7+1924.22+1739.46+1961.97+1726.75+1999.91C1722.46+2012.71+1717.88+2027.72+1713.62+2043.72C1695.61+2043.45+1677.22+2045.92+1659.59+2048.97C1671.48+1999.52+1689.11+1951.24+1701.44+1902.12L1698.38+1901.31C1684.3+1950.44+1667.41+1999.47+1655.97+2049.56C1655.49+2049.65+1655+2049.73+1654.53+2049.81C1623.63+2055.36+1581.76+2067.87+1585.66+2022.66C1586.4+2015.56+1587.26+2008.37+1588.53+2000.62C1602.91+1961.39+1619.76+1923.66+1635.38+1887.56L1765.69+1886.38ZM2064.69+1887.94L2061.91+1888.06C2054.54+1974.13+2040.12+2063.51+2040.47+2150.22C2040.59+2180.25+2041.49+2229.22+2073.72+2244.19L2074.66+2243C2046.23+2224.92+2045.88+2180.06+2045.88+2150.47C2045.87+2114.6+2050.19+2078.86+2053.28+2043.19C2057.77+1991.41+2061.37+1939.9+2064.69+1887.94ZM426.281+1895.91C415.498+1906.97+404.858+1918.23+394.469+1929.75C402.312+1909.31+413.481+1899.04+426.281+1895.91ZM1607.44+1945.38C1606.84+1946.78+1606.28+1948.22+1605.69+1949.62C1605.28+1950.01+1604.9+1950.53+1604.5+1950.97C1605.48+1949.11+1606.46+1947.25+1607.44+1945.38ZM1604.06+1953.59C1600.14+1962.95+1596.2+1972.33+1592.47+1981.84C1595.21+1971.35+1598.89+1961.5+1604.06+1953.59ZM1791.03+2083.91C1794.46+2088.26+1797.49+2092.94+1800.09+2098.12C1808.4+2114.66+1807.99+2136.78+1796.78+2151.72C1786.64+2165.23+1775.52+2171.04+1766.69+2170.16C1775.11+2141.47+1783.23+2112.72+1791.03+2083.91ZM2729.06+2102C2701.37+2102.96+2684.8+2124.31+2692.78+2154.34C2697.58+2172.4+2700.22+2175.93+2708.28+2193.09L2708.94+2192.84C2700.7+2174.27+2699.38+2173.55+2694.66+2154.31C2674.24+2071.16+2799.35+2112.68+2830.22+2168.34C2814.01+2136.45+2772.67+2108.06+2741.59+2102.88C2737.22+2102.15+2733.02+2101.86+2729.06+2102Z" stroke="#000000" stroke-width="1" fill="#1c5800" opacity="1" stroke-linejoin="round"/>
</g>
<g id="Layer 6" vectornator:layerName="Layer 6">
<path d="M2240.31+815.344L2117.84+1048.28C2118.3+1051.76+2116.78+1055.21+2113.84+1057.25C2114.26+1058.03+2114.43+1058.5+2114.88+1059.31C2117.11+1063.37+2119.6+1067.7+2121.88+1071.41C2123.82+1074.58+2125.47+1077.05+2125.84+1077.5C2129.29+1081.63+2132.52+1085.47+2136.28+1089.88C2137.11+1090.84+2143.14+1097.86+2144.69+1099.69C2150.63+1106.68+2154.09+1111.01+2157.22+1115.5C2160.79+1120.6+2163.69+1125.66+2166.5+1131.72C2170.36+1140.05+2174.12+1150.25+2180.56+1169.59C2182.48+1175.34+2184.35+1179.98+2188.75+1190.28C2188.94+1190.73+2188.93+1190.74+2189.12+1191.19C2192+1197.92+2193.79+1202.36+2195.34+1206.5C2199.08+1203.3+2203.36+1199.57+2208.66+1194.84C2219.23+1185.41+2231.53+1174.16+2233.81+1171.88C2243.23+1162.46+2251.62+1155.4+2269.62+1141.06C2270.21+1140.6+2270.2+1140.59+2270.78+1140.12C2288.25+1126.22+2296.15+1119.54+2304.81+1110.88C2307.59+1108.1+2323.6+1100.13+2323.85+1099.87C2334.24+1089.02+2355.5+1094.03+2351.6+1085.81C2349.1+1080.53+2358.4+1086.09+2350.34+1067.56L2240.31+815.344ZM2109.84+1033.59C2109.83+1033.63+2109.82+1033.66+2109.81+1033.69C2109.83+1033.7+2109.86+1033.71+2109.88+1033.72L2109.84+1033.59ZM2036.16+1092.28C2036.91+1092.77+2037.64+1093.31+2038.34+1093.84C2038.68+1094.09+2039.08+1094.27+2039.41+1094.53C2039.4+1094.53+2039.63+1094.71+2037.88+1093.38C2037.11+1092.85+2036.7+1092.63+2036.16+1092.28Z" opacity="1" fill="#ffc800"/>
</g>
<g id="Layer 5" vectornator:layerName="Layer 5">
<path d="M1654.66+1152.56L1767.03+956.656L1751+914.109L1694.77+896.416L1642.28+834.594L1642.91+833.781L1643.19+833.25L1643.31+832.688L1643.38+832.188L1643.31+831.594L1625.06+734.312L1641.23+831.078L1578.99+889.81L1654.66+1152.56Z" opacity="1" fill="#ffc800"/>
</g>
<g id="Layer 3" vectornator:layerName="Layer 3">
<path d="M1856.41+972.375L1912.88+1079.03L2097.78+1362.94L2097.84+1363.09L2098.19+1363.47L2098.62+1363.84L2141.09+1394.09L2268.88+1248.53L2330.38+1337.41L2383.81+1270.75L2384.12+1270.25L2384.34+1269.72L2384.47+1269.22L2398.38+1177.69L2351.72+1070.69L2248.84+1154.56L2120.88+1042.53L2116.47+1050.91L2109.41+1032.5L2109+1032.16L2108.59+1031.84L2108.09+1031.59L2107.56+1031.41L1856.41+972.375Z" opacity="1" fill="#ffc800"/>
</g>
<g id="Layer 1" vectornator:layerName="Layer 1">
<path d="M804.219-558.438C817.908-487.121+857.527-422.498+895.781-361.938C975.408-235.881+1068.03-120.808+1167.62-10.0312C1218.29+46.3223+1269.47+102.279+1317.25+161.156C1318.07+162.172+1318.89+163.23+1319.72+164.25L1277.75+209.469C1244.41+180.796+1210.43+152.895+1175.66+126C1117.94+81.3585+1058.33+39.2344+1000.47-5.25C933.109-57.0405+866.943-110.529+799-161.594C759.616-238.799+723.262-317.639+686.406-395.969L684.625-395.125C719.19-319.668+752.909-243.07+790-168.281C772.609-181.264+755.13-194.147+737.438-206.719L735.969-204.75C755.324-189.845+774.728-175.015+794.094-160.125C817.152-114.041+841.532-68.6713+868.406-24.8438C829.659-57.1516+791.065-89.6441+752.438-122.094C726.246-183.029+703.521-245.682+684.688-310.25L683.75-309.969C701.3-247.511+722.309-186.462+746.656-126.938C729.407-141.437+712.141-155.916+694.938-170.469C654.041-252.653+587.28-394.586+618.219-475.688L618.062-475.719C585.477-394.948+643.521-263.579+685-178.781C678.722-184.1+672.395-189.36+666.125-194.688L664.812-193.156C672.438-186.437+680.164-179.846+687.812-173.156C692.673-163.285+697.434-153.679+701.562-145.375C751.282-45.3722+816.311+55.8691+892.25+149.281C904.984+168.558+918.14+187.616+931.781+206.406C933.134+208.27+935.77+211.922+937.312+214.062C867.759+132.56+797.123+51.9602+728.125-30C653.297-118.885+581.949-210.215+502.5-295.094L501.438-294.156C577.477-206.39+649.589-115.617+724.188-26.625C797.583+60.9314+874.106+146.035+948.188+233.094C886.29+173.283+819.419+124.864+738.938+79.7812C665.779+38.8003+585.03+7.83043+499.719+18.3438C497.462+18.6219+495.654+18.9496+493.656+19.25C411.087-20.7525+324.439-53.1735+234.625-66.0312L234.312-64.5938C321.59-45.2855+403.528-15.2261+482.688+21.4062C474.96+23.3162+468.079+25.9858+459.031+30.8125C437.215+42.4505+428.641+58.9004+428.375+76.4375C396.399+60.7037+364.441+44.8857+332.344+29.4062C296.474+12.1075+260.274-5.36554+220.531-8.3125C218.007-45.0599+220.036-82.1716+225.719-118C235.159-177.519+263.979-278.819+235.094-336.312L234.219-336C252.787-285.898+239.638-226.821+230.531-176.094C220.934-122.639+212.14-64.8891+214.688-8.5625C212.279-8.65166+209.905-8.90024+207.469-8.875L207.469-8.625C209.903-8.59965+212.279-8.27562+214.688-8.125C216.301+26.7521+222.284+61.079+235.188+93.4688C284.023+216.053+394.681+310.716+517.25+356.5C531.766+361.922+547.031+367.621+562.625+372.031C550.096+372.253+537.467+371.685+524.594+369.562C470.302+360.612+425.008+329.962+378+303.812C308.631+265.225+206.32+208.311+126.406+214.531C101.721+216.453+76.5428+222.077+54.5938+233.906C34.7034+244.626+11.9537+261.873-1.71875+280.188C-31.7535+320.42-23.0949+387.947+11+423.531C57.3257+471.88+89.1813+443.388+63.75+383.469C57.089+367.775+49.3278+353.154+39.9688+338.906L38.9062+339.531C48.0914+353.803+55.3808+368.404+61.75+384.125C84.4782+440.223+58.9616+471.232+12.875+422.375C-19.5544+387.996-27.6157+321.845+1.09375+283.219C14.3986+265.318+36.6116+248.346+55.9688+237.781C77.4451+226.06+101.94+220.379+126.156+218.344C205.46+211.679+307.437+268.539+376.375+306.688C423.795+332.929+469.514+363.45+524.406+371.594C539.068+373.769+553.402+373.98+567.688+373.406C587.842+378.677+608.46+381.482+628.781+378C635.761+376.804+642.461+374.773+648.938+372.094C651.956+372.157+654.584+371.874+655.969+370.688C656.972+369.828+657.673+368.723+658.312+367.562C707.234+341.927+745.395+281.045+807.438+259.406C824.165+267.126+840.857+274.933+857.594+282.625C912.349+307.79+968.5+331.099+1021.5+359.906C1039.12+369.484+1056.61+379.312+1074.06+389.188C1079.44+396.69+1084.71+404.265+1089.78+411.969L1077.16+425.562L1133.22+496.156C1136.15+502.169+1139.73+507.399+1144.97+510.906L1362.25+784.438L1549+512.438L1549.31+512L1549.78+511.594L1550.31+511.281L1550.81+511.094L1551.41+510.969L1551.97+510.969L1552.5+511.094L1553.03+511.219L1590.19+526.5L1426.03+49.7188L1418.12+58.25C1372.48-51.5623+1337.1-162.972+1308.44-278.75C1303.12-300.216+1272.98-380.745+1285.19-400.844L1284.66-401.031C1271.11-381.02+1297.53-299.183+1302.38-277.188C1328.23-159.869+1366.72-47.5223+1414.31+62.3438L1410.47+66.5C1395.78+38.8835+1381.05+11.2807+1365.38-15.7812C1353.16-36.8656+1322.38-78.4066+1307-100.219C1237.94-198.195+1163.04-292.598+1077.66-376.969C1085.76-376.157+1095-374.351+1105.72-371.25L1105.75-371.469C1094.52-375.099+1084.83-377.256+1076.34-378.312C1076.08-378.571+1075.83-378.835+1075.56-379.094L1075.28-378.844C1075.43-378.696+1075.57-378.554+1075.72-378.406C986.166-389.036+1043.75-264.475+1077.03-214.594C1140.46-119.526+1235.13-52.9681+1313.12+28.9062C1343.4+60.6804+1358.08+79.2876+1375.91+103.719L1323.78+159.875C1276.71+99.1222+1223.53+42.7848+1172.19-14.125C1072.61-124.498+979.586-239.101+898.688-363.938C859.856-423.86+819-487.522+804.25-558.438L804.219-558.438ZM1066.44-377.5C1069.66-377.596+1073.25-377.384+1077-377.031C1206.49-243.848+1312.52-90.2997+1409.5+67.5312L1379.69+99.6562C1363.12+75.4081+1350.35+58.7599+1318.38+24.875C1240.8-57.3243+1145.53-123.603+1081.47-218.031C1049.9-264.561+994.151-375.346+1066.44-377.5ZM698.031-164.25C715.249-149.239+732.462-134.224+749.781-119.344C782.21-41.178+820.578+34.2718+865.062+106.562C804.175+26.8123+750.827-58.6006+706.156-147.938C703.751-152.747+700.759-158.79+698.031-164.25ZM803.438-152.969C926.341-58.4953+1049.37+35.812+1172.31+130.188C1207.09+156.88+1241.2+184.452+1274.69+212.75L1220.38+271.281C1107.84+174.477+993.664+79.5933+879.625-15.4688C871.84-28.3838+864.909-40.1753+860.062-48.5625C840.254-82.8437+821.543-117.747+803.438-152.969ZM755.906-114.094C795.81-79.8618+835.975-45.9415+876.25-12.1875C882.501-2.23861+888.847+7.66072+895.375+17.4375C914.891+46.6662+931.554+78.5554+956.375+103.438C1028.82+176.057+1107.75+241.837+1184.44+310L1125.16+373.844C1041.04+306.225+964.174+229.479+895.938+145.688C842.376+62.6191+795.268-23.8016+755.906-114.094ZM220.562-7.71875C259.733-3.6736+295.647+15.6402+330.688+32.7812C363.323+48.7459+395.875+64.8946+428.469+80.9375C432.531+144.329+539.282+217.689+532.281+130.906C622.107+173.38+712.158+215.408+802.375+257.062C742.217+280.754+706.744+341.352+646.125+367.344C643.782+368.349+641.412+369.193+639.031+369.969C633.85+368.985+628.801+367.879+626.312+368C610.684+368.758+595.417+370.267+580.156+371.219C558.926+366.854+537.943+358.847+518.906+351.688C426.57+316.96+334.794+250.509+278.469+168.594C242.669+116.529+224.953+54.9602+220.562-7.71875ZM887.469-2.75C997.647+89.452+1108.71+180.502+1218.56+273.219L1186.28+308C1109.72+239.688+1030.8+173.835+958.562+101C942.284+84.5862+911.799+37.0726+887.469-2.75ZM531.188+20.5625C604.017+20.5734+673.284+48.1456+736.75+83.3125C827.652+133.682+901.146+188.434+969.875+258.969C982.133+275.671+995.553+293.586+1009.59+311.375C975.062+284.88+938.314+262.71+898.531+252.812C811.828+197.567+722.332+145.928+634.062+94.8125C590.707+69.7058+545.831+44.9142+499.719+22.3125C499.742+22.3099+499.758+22.3151+499.781+22.3125C510.325+21.1304+520.783+20.5609+531.188+20.5625ZM488.219+23.9062C569.337+61.8186+647.588+106.619+725.688+153.812C778.338+185.628+831.559+217.212+884.125+249.781C874.233+248.11+864.15+247.196+853.875+247.219C837.072+247.255+822.179+250.111+808.5+254.781C716.141+212.155+623.719+169.56+531.719+126.188C531.491+124.264+531.363+122.473+531.031+120.406C528.542+104.912+528.346+105.158+525.031+93.4688L524.406+93.5938C526.675+103.934+529.516+114.884+530.75+125.719C521.62+121.414+512.464+117.166+503.344+112.844C479.858+101.715+456.542+90.2457+433.219+78.7812C432.987+60.9363+440.432+44.4849+460.031+34.125C470.892+28.3841+478.279+25.687+488.219+23.9062ZM433.469+83.375C456.14+94.5185+478.825+105.674+501.656+116.5C511.431+121.135+521.25+125.687+531.031+130.312C531.185+132.567+531.408+134.836+531.375+137.062C530.905+168.542+508.734+176.089+483.562+161.125C459.227+146.658+436.032+113.57+433.469+83.375ZM920.562+183C982.12+254.605+1049.99+320.734+1122.28+376.938L1105.94+394.562C1086.9+377.759+1067.2+359.712+1046.88+342.094C1037.6+330.769+1028.13+319.634+1018.91+308.75C1008.25+296.168+997.537+284.091+986.719+272.406C980.534+265.034+974.274+257.725+968.062+250.375C951.76+228.165+935.92+205.708+920.562+183ZM853.125+251.594C867.493+251.553+881.352+253.273+894.75+256.406C937.734+283.208+980.222+310.694+1021.47+339.719C1036.47+350.278+1041.1+353.644+1051.31+360.875C1054.27+364.094+1057.21+367.264+1060.09+370.25C1063.35+374.555+1066.57+378.894+1069.75+383.25C1054.37+374.279+1038.98+365.312+1023.44+356.625C970.737+327.173+914.296+303.683+859.562+278.375C844.373+271.352+829.166+264.327+813.969+257.312C826.055+253.742+838.992+251.634+853.125+251.594ZM911.594+261.188C952.581+274.674+989.447+300.876+1024.53+329.812C1030.45+337.006+1036.24+343.738+1042.09+350.406C1034.06+344.62+1033.28+343.987+1023.47+336.938C987.019+310.736+949.572+285.635+911.594+261.188ZM1063.06+362.688C1070.6+369.223+1078.12+375.487+1085.59+381.812C1081.15+378.59+1073.12+372.799+1067.34+368.625C1065.94+366.628+1064.51+364.659+1063.06+362.688ZM657.25+368.188C656.672+368.958+656.024+369.665+655.25+370.25C654.278+370.985+652.636+371.25+650.75+371.312C652.945+370.357+655.101+369.287+657.25+368.188ZM626.188+369.25C628.33+369.128+632.447+369.853+636.844+370.625C620.475+375.478+603.332+375.182+586.25+372.281C599.483+371.271+612.694+370.018+626.188+369.25ZM1072.03+375.562C1089.01+387.668+1099.46+395.194+1102.91+397.812L1100.06+400.875C1095.46+398.165+1090.83+395.487+1086.22+392.781C1083.48+390.217+1080.72+387.706+1078.03+385.062C1076.1+381.861+1074.1+378.692+1072.03+375.562ZM1085.03+395.344C1088.42+397.267+1091.8+399.2+1095.19+401.125C1095.29+401.217+1095.4+401.314+1095.5+401.406L1095.69+401.406C1096.54+401.89+1097.4+402.36+1098.25+402.844L1093.25+408.219C1090.54+403.914+1087.89+399.588+1085.03+395.344ZM1884.5+446.844L1842.69+512.031L1816.31+553.594L1815.97+554.031L1815.53+554.406L1815.47+554.438L1782.62+605.656L1953.56+675.969L1954.06+676.219L1954.53+676.594L1954.91+676.969L1955.16+677.469L1955.44+678L1955.56+678.562L1955.56+679.062L1955.56+679.25L1946.09+771.844L1945.97+772.406L1945.78+772.938L1945.47+773.438L1945.12+773.875L1944.69+774.188L1944.34+774.375L1868.62+814.844L1868.12+815.031L1867.59+815.156L1867.22+815.219L1725.31+821L1724.72+821L1724.19+820.875L1723.62+820.625L1723.16+820.312L1722.72+819.938L1722.47+819.656L1681.47+763.344L1675.12+773.25L1662.97+737.906L1660.34+734.312L1625.06+734.312L1643.31+831.594L1643.38+832.188L1643.31+832.688L1643.19+833.25L1642.91+833.781L1642.59+834.219L1642.28+834.594L1648.31+895.594L1764.03+953.469L1764.56+953.656L1765.06+953.969L1765.47+954.375L1765.78+954.75L1767.03+956.656L1800.88+897.688L1796.5+895.938L1795.97+895.688L1795.5+895.375L1795.12+894.906L1794.81+894.469L1794.53+893.906L1794.41+893.406L1794.41+892.812L1794.47+892.25L1794.66+891.75L1794.94+891.25L1795.25+890.781L1795.72+890.406L1796.16+890.094L1796.75+889.844L1796.81+889.844L1807.06+886.906L1809.19+883.188L1810.62+885.875L1948.25+846.469L1948.75+846.344L1949.34+846.344L1949.94+846.406L1950.5+846.594L1950.97+846.906L1951.41+847.219L1951.81+847.688L1952.12+848.125L1952.31+848.688L1952.44+849.188L1952.44+849.781L1952.38+850.344L1952.19+850.906L1951.88+851.344L1951.53+851.812L1879+927L1878.56+927.375L1878.09+927.688L1877.56+927.875L1877+928L1876.41+928L1875.81+927.938L1875.38+927.75L1821.22+905.906L1856.41+972.375L2107.56+1031.41L2108.09+1031.59L2108.59+1031.84L2109+1032.16L2109.41+1032.5L2083.12+964.125L1966.91+921.969L1966.38+921.719L1965.91+921.406L1965.53+921.031L1965.22+920.5L1964.94+920L1964.81+919.5L1964.75+918.938L1964.81+918.344L1964.94+917.781L1965.22+917.281L1965.34+917.031L2030.59+827.312L1952.59+624.188L1881.47+589.406L1881+589.094L1880.56+588.688L1880.16+588.25L1879.91+587.75L1879.72+587.25L1879.66+586.656L1879.66+586.094L1879.78+585.594L1879.97+585.031L1880.09+584.75L1915.53+527.656L1884.5+446.844ZM1912.88+1079.03L2083.19+1400.75L2136.72+1399.09L2141.09+1394.09L2098.62+1363.84L2098.19+1363.47L2097.84+1363.09L2097.78+1362.94L1912.88+1079.03ZM2398.38+1177.69L2384.47+1269.22L2384.34+1269.72L2384.12+1270.25L2383.81+1270.75L2330.38+1337.41L2639.5+1784.16C2664.32+1894.84+2675.69+1998.89+2656.12+2113.03C2648.12+2159.71+2633.65+2204.86+2614.22+2248C2612.24+2252.39+2610.2+2256.73+2608.16+2261.09C2606.8+2264+2591.49+2299.09+2587.94+2280.22L2587.72+2280.28C2590.56+2302.68+2609.93+2265.71+2611.53+2262.66C2613.8+2258.35+2616.04+2254.03+2618.09+2249.62C2638.26+2206.41+2651.54+2160.43+2659.19+2113.41C2673.92+2022.78+2676.84+1922.26+2655.44+1832.28C2652.22+1818.74+2648.55+1805.3+2644.84+1791.88L2659.06+1812.44C2671.19+1842.33+2683.66+1872.42+2691.81+1903.56C2709.89+1972.61+2713.63+2044.24+2710.94+2115.25C2709.65+2149.19+2704.68+2183.55+2696.5+2216.53C2695.51+2220.54+2676.2+2287.39+2681.03+2247.28L2680.84+2247.25C2678.59+2257.71+2679.38+2272.61+2688.12+2251.06C2692.58+2240.09+2696.04+2228.51+2699.03+2217.06C2707.65+2184.04+2713.22+2149.39+2714.5+2115.28C2718.91+1998+2703.59+1921.16+2663.25+1818.47L2680.19+1842.94C2724.92+1939.42+2755.28+2033.17+2764.91+2140.12C2765.46+2146.33+2765.8+2152.53+2766.16+2158.75C2767.18+2176.58+2767.52+2194.42+2766.25+2212.25C2764.99+2229.91+2767.86+2231.79+2756.19+2228.72L2756.16+2228.81C2768.3+2232.81+2766.21+2227.66+2767.88+2212.34C2769.81+2194.48+2769.56+2176.45+2768.66+2158.53C2768.34+2152.29+2768+2146.07+2767.47+2139.84C2758.72+2037.51+2728.52+1943.03+2685.62+1850.81L2696.75+1866.88C2698.77+1871.43+2700.77+1876.09+2702.75+1880.12C2707.6+1890.02+2712.61+1899.87+2717.62+1909.69C2720.13+1914.96+2722.76+1920.18+2725.44+1925.38C2724.74+1923.95+2724.12+1922.49+2723.44+1921.06C2726.28+1926.59+2729.11+1932.11+2731.97+1937.62C2729.73+1933.57+2727.56+1929.49+2725.44+1925.38C2729.5+1933.74+2733.79+1942+2738.44+1950.12C2738.92+1951.05+2739.4+1951.98+2739.88+1952.91C2784.08+2038.54+2826.23+2128.71+2883.34+2206.69L2885.72+2205.12C2834.99+2135.13+2793.6+2051.99+2753.22+1974.09C2802.98+2049.71+2869+2113.28+2941.69+2166.81C2986.04+2199.48+3033.12+2231.9+3087.16+2245.56L3087.28+2245.12C3034.18+2229.5+2986.92+2197.99+2942.59+2165.66C2868.7+2111.76+2802.31+2047.23+2751.81+1970.66C2751.03+1969.48+2750.33+1968.25+2749.56+1967.06C2746.96+1962.06+2744.31+1956.88+2741.72+1951.94C2729.27+1928.22+2716.58+1904.57+2704.75+1880.53C2704.02+1878.76+2703.27+1876.99+2702.53+1875.22L2703+1875.91L2700.38+1869.88C2722.92+1906.54+2748.88+1940.73+2777.75+1972.25C2747.46+1938.01+2720.42+1900.29+2696.59+1861.22L2685.47+1835.72C2723.74+1882.1+2771.32+1918.57+2819.56+1955.53C2947.37+2053.43+3059.34+2106.06+3213.62+2148.66L3213.91+2147.72C3058.63+2102.14+2949.78+2054.51+2820.34+1954.53C2771.44+1916.76+2722.49+1879.56+2683.81+1831.91L2398.38+1177.69ZM2777.75+1972.25C2784.41+1979.77+2791.15+1987.18+2798.12+1994.34C2837.59+2034.88+2885.98+2072.49+2938.72+2104.34C2879.14+2067.78+2824.69+2023.48+2777.75+1972.25ZM2938.72+2104.34C2944.54+2107.86+2950.39+2111.35+2956.31+2114.72C2950.42+2111.3+2944.52+2107.9+2938.72+2104.34ZM2956.31+2114.72C2966.1+2120.39+2975.97+2125.95+2986+2131.22C3050.27+2164.94+3116.14+2191.43+3188.5+2198.25L3188.56+2197.31C3111.3+2186.92+3030.1+2156.67+2956.31+2114.72Z" opacity="1" fill="#ffc800"/>
</g>
<g id="Layer 2" vectornator:layerName="Layer 2">
<path d="M2136.72+1399.09L2083.19+1400.75L2102.78+1437.75L2136.72+1399.09Z" opacity="1" fill="#ffc800"/>
</g>
</svg>
