<?xml version="1.0" encoding="UTF-8" standalone="no"?> <!-- Created with Vectornator Pro for iOS (http://vectornator.io/) --><!DOCTYPE svg PUBLIC "-//W3C//DTD SVG 1.1//EN" "http://www.w3.org/Graphics/SVG/1.1/DTD/svg11.dtd">
<svg height="100%" style="fill-rule:evenodd;clip-rule:evenodd;stroke-linecap:round;stroke-linejoin:round;" xmlns:xlink="http://www.w3.org/1999/xlink" xmlns="http://www.w3.org/2000/svg" xml:space="preserve" width="100%" xmlns:vectornator="http://vectornator.io" version="1.1" viewBox="0 0 3840 2160">
<metadata>
<vectornator:setting key="ShowGrid" value="1"/>
<vectornator:setting key="CMYKEnabledKey" value="0"/>
<vectornator:setting key="Units" value="Pixels"/>
<vectornator:setting key="GridSpacing" value="36"/>
<vectornator:setting key="RulersVisible" value="1"/>
<vectornator:setting key="DynamicGuides" value="0"/>
</metadata>
<defs/>
<g id="Inside" vectornator:layerName="Inside">
<path d="M1763.06+247.926L1762.47+247.989L1761.97+248.114L1761.44+248.301L1760.94+248.614L1760.53+248.989L1760.22+249.457L1624.66+466.239L1624.47+466.645L1624.25+467.145L1624.12+467.707L1624.12+468.27L1624.25+468.801L1624.47+469.364L1624.72+469.801L1625.09+470.239L1625.56+470.645L1626.06+470.895L1812.16+554.77L1812.28+554.832L1812.81+555.02L1813.37+555.082L1813.97+555.02L1814.56+554.895L1815.06+554.707L1815.53+554.395L1815.97+554.02L1816.31+553.582L1939.31+359.739L1939.56+359.239L1939.75+358.739L1939.81+358.176L1939.81+357.582L1939.69+357.02L1939.44+356.52L1939.09+356.082L1938.72+355.614L1938.25+355.301L1764.75+248.426L1764.22+248.176L1763.66+247.989L1763.06+247.926ZM1999.59+395.395L1999.03+395.457L1998.5+395.582L1997.97+395.77L1997.47+396.082L1997.06+396.457L1996.69+396.895L1880.09+584.739L1879.97+585.02L1879.78+585.582L1879.66+586.082L1879.66+586.645L1879.72+587.239L1879.91+587.739L1880.16+588.239L1880.56+588.676L1881+589.082L1881.47+589.395L2021.28+657.77L2011.97+730.676L2011.97+730.864L2011.97+731.457L2012.09+732.02L2012.28+732.52L2012.62+732.957L2013+733.426L2013.47+733.801L2013.97+734.051L2014.5+734.239L2015.09+734.301L2015.66+734.301L2016.25+734.176L2016.75+733.989L2017.22+733.676L2017.69+733.301L2018.06+732.832L2178.94+492.864L2179.06+492.614L2179.28+492.114L2179.41+491.52L2179.47+490.957L2179.41+490.395L2179.22+489.864L2178.94+489.364L2178.62+488.926L2178.16+488.551L2177.72+488.239L2001.09+395.77L2000.78+395.582L2000.19+395.457L1999.59+395.395ZM1551.41+510.957L1550.81+511.082L1550.31+511.27L1549.78+511.582L1549.31+511.989L1549+512.426L1265.19+925.77L1265+925.957L1264.78+926.52L1264.66+927.051L1264.59+927.614L1264.66+928.176L1264.78+928.707L1265.06+929.207L1265.44+929.707L1699.62+1417.05L1617.84+1883.86L1617.84+1883.93L1617.78+1884.46L1617.84+1885.02L1617.97+1885.58L1618.25+1886.08L1618.56+1886.55L1619.03+1886.93L1619.47+1887.24L1620+1887.49L1620.56+1887.61L1621.09+1887.68L2261.28+1881.9L2261.47+1881.9L2262.03+1881.83L2262.62+1881.65L2263.09+1881.33L2263.53+1881.02L2263.94+1880.58L2264.25+1880.11L2264.44+1879.55L2264.56+1879.05L2264.56+1878.49L2236.31+1454.71L2383.81+1270.74L2384.12+1270.24L2384.34+1269.71L2384.47+1269.21L2422.28+1020.52L2422.34+1020.02L2422.28+1019.46L2422.16+1018.93L2421.91+1018.43L2421.56+1017.93L2421.19+1017.55L2420.72+1017.21L2420.22+1016.96L2419.62+1016.83L2419.06+1016.77L2418.47+1016.83L2417.94+1016.96L2417.44+1017.21L2416.91+1017.55L2248.84+1154.55L2109+1032.15L2108.59+1031.83L2108.09+1031.58L2107.56+1031.4L1849+970.614L1848.69+970.551L1848.09+970.551L1847.53+970.614L1846.94+970.801L1846.5+971.051L1846.03+971.364L1845.66+971.801L1845.31+972.27L1845.06+972.832L1844.94+973.332L1844.94+973.895L1845+974.489L1845.19+975.051L1845.44+975.489L2097.78+1362.93L2097.84+1363.08L2098.19+1363.46L2098.62+1363.83L2147.62+1398.74L2065.72+1401.3L2065.59+1401.3L2065.03+1401.43L2064.5+1401.61L2063.97+1401.86L2063.53+1402.24L2063.12+1402.65L2062.87+1403.15L2062.69+1403.65L2037.03+1495.15L2002.66+1403.4L2002.44+1402.96L2002.12+1402.52L2001.75+1402.11L2001.22+1401.74L2000.69+1401.49L2000.19+1401.36L1999.59+1401.3L1999.03+1401.36L1915.69+1414.18L2011.19+1331.9L2011.25+1331.83L2011.66+1331.46L2011.91+1330.93L2012.16+1330.43L2012.28+1329.86L2012.28+1329.27L2012.22+1328.77L2012.03+1328.21L2011.78+1327.71L1765.78+954.739L1765.47+954.364L1765.06+953.957L1764.56+953.645L1764.03+953.457L1577.06+891.676L1642.28+834.582L1642.59+834.207L1642.91+833.77L1643.19+833.239L1643.31+832.676L1643.37+832.176L1643.31+831.582L1625.06+734.301L1660.34+734.301L1722.47+819.645L1722.72+819.926L1723.16+820.301L1723.62+820.614L1724.19+820.864L1724.72+820.989L1725.31+820.989L1867.22+815.207L1867.59+815.145L1868.12+815.02L1868.62+814.832L1944.34+774.364L1944.69+774.176L1945.12+773.864L1945.47+773.426L1945.78+772.926L1945.97+772.395L1946.09+771.832L1955.56+679.239L1955.56+679.051L1955.56+678.551L1955.44+677.989L1955.16+677.457L1954.91+676.957L1954.53+676.582L1954.06+676.207L1953.56+675.957L1553.03+511.207L1552.5+511.082L1551.97+510.957L1551.41+510.957ZM2220.16+568.801L2219.56+568.926L2219.03+569.145L2218.53+569.395L2218.06+569.77L2217.69+570.145L1965.34+917.02L1965.22+917.27L1964.94+917.77L1964.81+918.332L1964.75+918.926L1964.81+919.489L1964.94+919.989L1965.22+920.489L1965.53+921.02L1965.91+921.395L1966.37+921.707L1966.91+921.957L2118.25+976.832L2118.84+976.957L2119.44+977.02L2120+976.957L2120.53+976.832L2121.03+976.582L2121.56+976.27L2121.94+975.864L2371.12+686.801L2371.44+686.301L2371.69+685.801L2371.84+685.27L2371.91+684.707L2371.84+684.145L2371.69+683.614L2371.44+683.051L2371.12+682.614L2370.72+682.239L2370.22+681.926L2369.69+681.645L2369.19+681.52L2368.59+681.457L2366.56+681.457L2222.47+569.52L2222.34+569.395L2221.81+569.145L2221.31+568.926L2220.72+568.801L2220.16+568.801ZM2406.47+745.114L2405.91+745.176L2405.31+745.301L2404.81+745.551L2404.34+745.864L2403.91+746.239L2170.53+1012.27L2170.34+1012.46L2170.06+1012.96L2169.87+1013.49L2169.75+1014.05L2169.75+1014.61L2169.87+1015.18L2170.06+1015.71L2170.34+1016.21L2170.72+1016.64L2243.19+1088.93L2243.47+1089.18L2243.97+1089.49L2244.5+1089.68L2245.06+1089.8L2245.66+1089.86L2246.19+1089.8L2246.75+1089.61L2247.28+1089.36L2247.72+1089.05L2515.81+854.77L2515.94+854.645L2516.34+854.207L2516.59+853.707L2516.78+853.176L2516.91+852.614L2516.91+852.051L2516.78+851.551L2516.59+850.957L2516.34+850.52L2515.94+850.082L2408.75+746.051L2408.56+745.864L2408.09+745.551L2407.59+745.301L2407+745.176L2406.47+745.114ZM1948.75+846.332L1948.25+846.457L1796.81+889.832L1796.75+889.832L1796.16+890.082L1795.72+890.395L1795.25+890.77L1794.94+891.239L1794.66+891.739L1794.47+892.239L1794.41+892.801L1794.41+893.395L1794.53+893.895L1794.81+894.457L1795.12+894.895L1795.5+895.364L1795.97+895.676L1796.5+895.926L1875.37+927.739L1875.81+927.926L1876.41+927.989L1877+927.989L1877.56+927.864L1878.09+927.676L1878.56+927.364L1879+926.989L1951.53+851.801L1951.87+851.332L1952.19+850.895L1952.37+850.332L1952.44+849.77L1952.44+849.176L1952.31+848.676L1952.12+848.114L1951.81+847.676L1951.41+847.207L1950.97+846.895L1950.5+846.582L1949.94+846.395L1949.34+846.332L1948.75+846.332Z" opacity="1" fill="#5f1a04"/>
</g>
<g id="Outside" vectornator:layerName="Outside">
<path d="M2240.31+815.344L2117.84+1048.28C2118.3+1051.76+2116.78+1055.21+2113.84+1057.25C2114.26+1058.03+2114.43+1058.5+2114.88+1059.31C2117.11+1063.37+2119.6+1067.7+2121.88+1071.41C2123.82+1074.58+2125.47+1077.05+2125.84+1077.5C2129.29+1081.63+2132.52+1085.47+2136.28+1089.88C2137.11+1090.84+2143.14+1097.86+2144.69+1099.69C2150.63+1106.68+2154.09+1111.01+2157.22+1115.5C2160.79+1120.6+2163.69+1125.66+2166.5+1131.72C2170.36+1140.05+2174.12+1150.25+2180.56+1169.59C2182.48+1175.34+2184.35+1179.98+2188.75+1190.28C2188.94+1190.73+2188.93+1190.74+2189.12+1191.19C2192+1197.92+2193.79+1202.36+2195.34+1206.5C2199.08+1203.3+2203.36+1199.57+2208.66+1194.84C2219.23+1185.41+2231.53+1174.16+2233.81+1171.88C2243.23+1162.46+2251.62+1155.4+2269.62+1141.06C2270.21+1140.6+2270.2+1140.59+2270.78+1140.12C2288.25+1126.22+2296.15+1119.54+2304.81+1110.88C2307.59+1108.1+2323.6+1100.13+2323.85+1099.87C2334.24+1089.02+2355.5+1094.03+2351.6+1085.81C2349.1+1080.53+2358.4+1086.09+2350.34+1067.56L2240.31+815.344ZM2109.84+1033.59C2109.83+1033.63+2109.82+1033.66+2109.81+1033.69C2109.83+1033.7+2109.86+1033.71+2109.88+1033.72L2109.84+1033.59ZM2036.16+1092.28C2036.91+1092.77+2037.64+1093.31+2038.34+1093.84C2038.68+1094.09+2039.08+1094.27+2039.41+1094.53C2039.4+1094.53+2039.63+1094.71+2037.88+1093.38C2037.11+1092.85+2036.7+1092.63+2036.16+1092.28Z" opacity="1" fill="#ffc800"/>
</g>
<g id="Layer 5" vectornator:layerName="Layer 5">
<path d="M1654.66+1152.56L1767.03+956.656L1751+914.109L1694.77+896.416L1642.28+834.594L1642.91+833.781L1643.19+833.25L1643.31+832.688L1643.38+832.188L1643.31+831.594L1625.06+734.312L1641.23+831.078L1578.99+889.81L1654.66+1152.56Z" opacity="1" fill="#ffc800"/>
</g>
<g id="Layer 4" vectornator:layerName="Layer 4">
<path d="M1948.75+846.344L1948.25+846.469L1810.62+885.875L1821.22+905.906L1875.38+927.75L1875.81+927.938L1876.41+928L1877+928L1877.56+927.875L1878.09+927.688L1878.56+927.375L1879+927L1951.53+851.812L1951.88+851.344L1952.19+850.906L1952.38+850.344L1952.44+849.781L1952.44+849.188L1952.31+848.688L1952.12+848.125L1951.81+847.688L1951.41+847.219L1950.97+846.906L1950.5+846.594L1949.94+846.406L1949.34+846.344L1948.75+846.344Z" opacity="1" fill="#ffc800"/>
</g>
<g id="Layer 3" vectornator:layerName="Layer 3">
<path d="M1856.41+972.375L1912.88+1079.03L2097.78+1362.94L2097.84+1363.09L2098.19+1363.47L2098.62+1363.84L2141.09+1394.09L2268.88+1248.53L2330.38+1337.41L2383.81+1270.75L2384.12+1270.25L2384.34+1269.72L2384.47+1269.22L2398.38+1177.69L2351.72+1070.69L2248.84+1154.56L2120.88+1042.53L2116.47+1050.91L2109.41+1032.5L2109+1032.16L2108.59+1031.84L2108.09+1031.59L2107.56+1031.41L1856.41+972.375Z" opacity="1" fill="#ffc800"/>
</g>
<g id="Layer 1" vectornator:layerName="Layer 1">
<path d="M1426.03+49.7188L1077.16+425.562L1362.25+784.438L1549+512.438L1549.31+512L1549.78+511.594L1550.31+511.281L1550.81+511.094L1551.41+510.969L1551.97+510.969L1552.5+511.094L1553.03+511.219L1590.19+526.5L1426.03+49.7188ZM1884.5+446.844L1842.69+512.031L1816.31+553.594L1815.97+554.031L1815.53+554.406L1815.47+554.438L1782.62+605.656L1953.56+675.969L1954.06+676.219L1954.53+676.594L1954.91+676.969L1955.16+677.469L1955.44+678L1955.56+678.562L1955.56+679.062L1955.56+679.25L1946.09+771.844L1945.97+772.406L1945.78+772.938L1945.47+773.438L1945.12+773.875L1944.69+774.188L1944.34+774.375L1868.62+814.844L1868.12+815.031L1867.59+815.156L1867.22+815.219L1725.31+821L1724.72+821L1724.19+820.875L1723.62+820.625L1723.16+820.312L1722.72+819.938L1722.47+819.656L1681.47+763.344L1675.12+773.25L1662.97+737.906L1660.34+734.312L1625.06+734.312L1643.31+831.594L1643.38+832.188L1643.31+832.688L1643.19+833.25L1642.91+833.781L1642.59+834.219L1642.28+834.594L1648.3+895.585L1764.03+953.469L1764.56+953.656L1765.06+953.969L1765.47+954.375L1765.78+954.75L1767.03+956.656L1800.88+897.688L1796.5+895.938L1795.97+895.688L1795.5+895.375L1795.12+894.906L1794.81+894.469L1794.53+893.906L1794.41+893.406L1794.41+892.812L1794.47+892.25L1794.66+891.75L1794.94+891.25L1795.25+890.781L1795.72+890.406L1796.16+890.094L1796.75+889.844L1796.81+889.844L1807.06+886.906L1809.19+883.188L1810.62+885.875L1948.25+846.469L1948.75+846.344L1949.34+846.344L1949.94+846.406L1950.5+846.594L1950.97+846.906L1951.41+847.219L1951.81+847.688L1952.12+848.125L1952.31+848.688L1952.44+849.188L1952.44+849.781L1952.38+850.344L1952.19+850.906L1951.88+851.344L1951.53+851.812L1879+927L1878.56+927.375L1878.09+927.688L1877.56+927.875L1877+928L1876.41+928L1875.81+927.938L1875.38+927.75L1821.22+905.906L1856.41+972.375L2107.56+1031.41L2108.09+1031.59L2108.59+1031.84L2109+1032.16L2109.41+1032.5L2083.12+964.125L1966.91+921.969L1966.38+921.719L1965.91+921.406L1965.53+921.031L1965.22+920.5L1964.94+920L1964.81+919.5L1964.75+918.938L1964.81+918.344L1964.94+917.781L1965.22+917.281L1965.34+917.031L2030.59+827.312L1952.59+624.188L1881.47+589.406L1881+589.094L1880.56+588.688L1880.16+588.25L1879.91+587.75L1879.72+587.25L1879.66+586.656L1879.66+586.094L1879.78+585.594L1879.97+585.031L1880.09+584.75L1915.53+527.656L1884.5+446.844ZM1912.88+1079.03L2083.19+1400.75L2136.72+1399.09L2141.09+1394.09L2098.62+1363.84L2098.19+1363.47L2097.84+1363.09L2097.78+1362.94L1912.88+1079.03ZM2398.38+1177.69L2384.47+1269.22L2384.34+1269.72L2384.12+1270.25L2383.81+1270.75L2330.38+1337.41L2703+1875.91L2398.38+1177.69Z" opacity="1" fill="#ffc800"/>
</g>
<g id="Layer 2" vectornator:layerName="Layer 2">
<path d="M2136.72+1399.09L2083.19+1400.75L2102.78+1437.75L2136.72+1399.09Z" opacity="1" fill="#ffc800"/>
</g>
</svg>
