<?xml version="1.0" encoding="UTF-8" standalone="no"?> <!-- Created with Vectornator Pro for iOS (http://vectornator.io/) --><!DOCTYPE svg PUBLIC "-//W3C//DTD SVG 1.1//EN" "http://www.w3.org/Graphics/SVG/1.1/DTD/svg11.dtd">
<svg height="100%" style="fill-rule:evenodd;clip-rule:evenodd;stroke-linecap:round;stroke-linejoin:round;" xmlns:xlink="http://www.w3.org/1999/xlink" xmlns="http://www.w3.org/2000/svg" xml:space="preserve" width="100%" xmlns:vectornator="http://vectornator.io" version="1.1" viewBox="0 0 3840 2160">
<metadata>
<vectornator:setting key="RulersVisible" value="1"/>
<vectornator:setting key="GridSpacing" value="36"/>
<vectornator:setting key="Units" value="Pixels"/>
<vectornator:setting key="DynamicGuides" value="0"/>
<vectornator:setting key="SnapToPoints" value="0"/>
<vectornator:setting key="SnapToGrid" value="0"/>
<vectornator:setting key="ShowGrid" value="1"/>
<vectornator:setting key="SnapToEdges" value="0"/>
</metadata>
<defs/>
<g id="Layer 4" vectornator:layerName="Layer 4">
<path d="M1920.68+889.758C1924.3+889.758+1920.65+890.019+1925.94+888.005C1928.14+887.168+1930.5+887.604+1932.7+886.503C1940.17+882.767+1945.71+875.704+1953.23+872.232C1957.78+870.13+1962.78+871.864+1967.25+872.983C1969.61+873.571+1972.44+872.904+1974.76+873.483C1978.1+874.318+1982.3+877.014+1984.78+879.492C1986.29+881.004+1987.27+883.259+1988.53+885.001C1990.23+887.34+1991.96+888.854+1993.29+891.51C1994.03+892.997+1993.65+894.453+1994.04+896.017C1995.2+900.653+1995.65+904.808+1996.04+909.537C1996.3+912.62+1997.28+915.67+1997.55+918.8C1997.87+922.703+1997.47+926.665+1997.8+930.568C1998.41+937.887+1996.73+945.236+1997.3+952.6C1998.25+964.972+1996.59+977.537+1997.55+989.906C1998.38+1000.81+1997.61+1011.79+1998.3+1022.7C1998.66+1028.49+1998.93+1034.18+1998.55+1039.98C1997.68+1052.92+1995.46+1065.65+1994.54+1078.54C1994.14+1084.1+1993.95+1090.59+1995.04+1096.06C1996.8+1104.84+1992.26+1112.58+1991.57+1121.61C1991.1+1127.72+1994.48+1135.49+1993.54+1141.63C1992.56+1148.01+1994.2+1154.2+1995.29+1160.41C1996.71+1168.47+1999.14+1176.32+2000.3+1184.44C2001.22+1190.88+1999.19+1228.18+1997.35+1234.16C1996.23+1237.81+1998.73+1241.76+1995.85+1244.93C1992.95+1248.12+1994.58+1254.44+1990.62+1254.83C1980.56+1255.84+1974+1257.7+1963.92+1258.29C1947.66+1259.25+1919.22+1259.63+1902.96+1260.49C1879.81+1261.71+1857.92+1255.03+1834.86+1251.19C1830.43+1250.45+1825.82+1249.2+1821.59+1247.68C1819.84+1247.06+1817.52+1246.26+1816.33+1244.68C1812.22+1239.2+1810.13+1199.03+1811.27+1192.2C1811.72+1189.53+1812.49+1187.24+1812.27+1184.44C1811.46+1173.89+1812.52+1163.13+1813.27+1152.65C1813.44+1150.34+1812.68+1148.16+1812.52+1145.89C1812.31+1142.97+1812.48+1140.03+1812.27+1137.12C1811.78+1130.29+1812.85+1123.23+1812.27+1116.34C1811.99+1112.93+1812.01+1109.5+1811.77+1106.08C1811.57+1103.3+1810.48+1100.63+1810.27+1097.82C1810+1094.33+1810.54+1090.78+1810.27+1087.3C1809.85+1081.91+1808.9+1076.47+1809.27+1071.03C1809.5+1067.51+1810.25+1064.02+1810.52+1060.51C1811.23+1051.29+1810.15+1041.98+1810.77+1032.72C1811.12+1027.39+1811.02+1021.72+1811.77+1016.44C1812.53+1011.1+1813.91+1005.59+1813.52+1000.17C1813.26+996.455+1811.88+992.804+1811.27+989.155C1810.53+984.694+1811.09+979.67+1810.77+975.134C1810.03+964.729+1811.82+954.282+1811.02+943.838C1810.59+938.313+1810.73+932.831+1810.27+927.313C1809.83+922.016+1808.85+916.953+1809.27+911.54C1809.47+908.863+1810.05+906.206+1810.27+903.528C1810.58+899.792+1811.13+894.475+1813.27+891.26C1815.19+888.388+1814.74+884.051+1817.28+881.746C1819.43+879.791+1824.24+878.978+1826.79+877.489C1836.58+871.78+1848.7+871.394+1859.59+872.232C1863.23+872.512+1867.14+872.938+1870.36+874.986C1873.15+876.76+1871.83+881.478+1874.86+883.498C1880.73+887.41+1888+887.627+1894.39+889.758" opacity="1" fill="#75bcff"/>
</g>
<g id="Layer 1" vectornator:layerName="Layer 1">
<path d="M1898.06+868.562C1886.61+868.747+1875.12+869.263+1864.31+869.312C1857.45+869.344+1845.67+871.027+1840.44+869.719C1831.6+867.511+1817.44+876.132+1812.56+883.062C1803.69+895.677+1806.95+957.122+1807.12+976.156C1807.29+993.731+1811+1047.29+1807.78+1061.12C1805.04+1072.88+1805.92+1103.61+1808.5+1115.53C1811.24+1128.16+1809.75+1144.16+1809.53+1153.91C1809.43+1158.17+1811.36+1168.71+1810.38+1170.34C1807.84+1174.54+1813.54+1183.79+1810.31+1187.94C1805.05+1194.7+1810.39+1238.57+1814.81+1247.34C1818.09+1253.85+1829.49+1256.44+1841.78+1258.12C1841.4+1258.15+1841+1258.13+1840.62+1258.16L1841.06+1260.25C1860.98+1261.77+1882.35+1262.38+1902.69+1262.44C1916.29+1262.48+1931.86+1264.63+1943.41+1262.12C1955.71+1259.46+1970.78+1263.64+1982.56+1259.47C1984.25+1258.87+1989.58+1257.91+1991.81+1255.44C1992.35+1254.85+1994.47+1252.6+1994.56+1252.66C1996.56+1253.83+1997.94+1246.22+1998.44+1247.38C1998.84+1248.31+1998.22+1243.39+1998.66+1244.31C1999.67+1246.45+1999.52+1239.65+1999.53+1237.28C1999.54+1235.06+1997.1+1230.08+1999.25+1230.62C2001.56+1231.21+1996.57+1223.01+1998.91+1223.47C1999.48+1223.58+1999.93+1214.51+2000.22+1203.62C2000.27+1201.54+2000.16+1199.43+2000.19+1197.34C2000.2+1196.26+1998.88+1193.25+1999.47+1194.16C2000.2+1195.27+1995.48+1188.78+1997.75+1184.72C2000.28+1180.19+1999.58+1166.67+1999.56+1160.94C1999.55+1157.02+1999.64+1153.1+1999.62+1149.19C1999.62+1147.66+1998.62+1145.39+1999.22+1145.69C2001.57+1146.84+1998.84+1140.46+1998.81+1137.84C1998.8+1136.98+1997.69+1134.58+1998.09+1135.34C1998.61+1136.31+1996.26+1131.47+1997.03+1132.25C1997.85+1133.07+1995.79+1129.87+1996.31+1128.84C1998.3+1124.93+1994.88+1118.14+1996.34+1113.97C2000.42+1102.3+1999.44+1086.82+1999.47+1074.44C1999.48+1068.31+1999.33+1062.15+1999.53+1056.03C1999.56+1055.06+1999.45+1046.12+1999.53+1046.62C1999.61+1047.07+1999.3+1027.45+2001.09+1025.5C2004.49+1021.82+2000.22+986.112+2000.81+976.344C2001.57+963.751+2002.56+910.078+1999.69+900.906C1998.18+896.093+1994.71+886.14+1994.28+885.344C1992.82+882.601+1986.78+879.311+1989.28+877.469C1989.97+876.965+1988+876.33+1987.28+875.875C1982.02+872.535+1975.45+870.893+1968.56+869.562C1956.73+867.278+1943.53+871.222+1931.69+869.812C1920.94+868.532+1909.52+868.378+1898.06+868.562ZM1944.94+872.688C1946.28+872.662+1947.6+872.769+1948.94+872.781C1946.67+874.465+1944.65+876.325+1943.09+877.781C1943.3+876.798+1943.5+875.876+1943.59+875.156C1944.31+874.996+1944.81+874.825+1944.38+874.562C1944.21+874.465+1943.97+874.493+1943.78+874.438C1943.95+874.08+1944.07+873.727+1944+873.406C1944+873.387+1943.77+873.478+1943.75+873.469C1943.72+873.047+1943.62+872.894+1943.34+873.562L1943.41+873.594C1943.06+873.634+1942.52+873.77+1941.34+874.281C1941.34+874.281+1941.34+874.313+1941.34+874.312C1940.89+874.509+1940.12+874.867+1939.56+875.125C1939.47+875.081+1939.48+875.01+1939.38+874.969C1938.82+874.751+1938.16+874.69+1937.59+874.875C1936.24+873.564+1932.77+873.579+1928.56+874.156C1928.63+873.991+1928.75+873.81+1928.75+873.656C1934.18+873.193+1939.58+872.789+1944.94+872.688ZM1856.78+872.781C1866.76+876.988+1872.19+886.129+1884.47+889.312C1891.89+891.236+1899.75+891.571+1907.28+891.156C1913.55+891.847+1919.83+892.429+1926.16+892.219C1926.79+892.371+1927.47+892.338+1928.12+892.219C1931.63+891.97+1934.78+891.37+1937.19+890.125C1938.78+889.304+1940.03+886.956+1941.09+884.312C1945.38+882.576+1944.01+878.959+1947.22+875.688C1950.8+872.047+1955.25+874.777+1959.44+873.375C1962.17+873.663+1964.91+873.945+1967.59+874.5C1971.41+875.289+1976.13+875.92+1979.94+877.719C1980.84+878.144+1981.75+878.535+1982.62+879C1983.45+879.438+1985.23+881.556+1984.88+880.688C1984.82+880.541+1988.12+885.374+1990+888.469C1990.07+888.58+1990.03+888.97+1990+888.844C1989.34+886.34+1991.99+900.806+1994.56+903.812C1995.81+905.272+1995.43+912.631+1995.44+919C1995.44+921.48+1995.43+923.959+1995.44+926.438C1995.44+927.612+1994.48+930.655+1995.44+929.969C1997.78+928.282+1994.63+935.709+1994.59+938.594C1994.56+941.565+1991.71+958.71+1994.16+961.219C1996.04+963.149+1993.64+970.848+1994.59+973.594C1997.22+981.156+1997.74+1013.86+1996.16+1021.78C1994.79+1028.61+1990.84+1074.86+1993.97+1081.75C1996.64+1087.62+1985.93+1139.51+1993.69+1147.25C1996.11+1149.67+1992.02+1158.99+1993.72+1162.12C1996.1+1166.52+1992.46+1176.08+1992.28+1182.47C1992.16+1186.95+1994.41+1195.23+1993.94+1193.44C1993.7+1192.52+1994.55+1197.12+1994.72+1196.19C1994.89+1195.29+1994.71+1197.99+1994.69+1198.91C1994.65+1200.6+1994.66+1202.3+1994.66+1204C1994.65+1207.32+1995.57+1211.98+1994.59+1214.91C1993.95+1216.82+1993.47+1218.73+1994.28+1218.47C1996.04+1217.89+1993.28+1222.13+1993.47+1223.97C1993.7+1226.18+1994.47+1231.2+1994.47+1234.53C1994.47+1235.9+1994.49+1239.25+1994.69+1239.25C1996.79+1239.29+1992.6+1247.2+1993.84+1245.5C1994.34+1244.83+1993.41+1247.57+1992.62+1248.38C1990.57+1250.48+1989.7+1251.66+1984.47+1254.06C1981.54+1255.41+1964.23+1254.77+1954.38+1257.03C1929.21+1262.82+1900.3+1259.67+1872.38+1258.31C1873.4+1258.03+1874.49+1257.86+1875.66+1257.97L1875.72+1257.31C1858.99+1252.23+1837.14+1253.09+1824+1247.47C1823.77+1247.37+1823.26+1246.97+1823.28+1247.22C1823.28+1247.23+1821.61+1245.18+1821.5+1245.06C1820.43+1243.93+1819.75+1242.42+1819.28+1240.94C1818.17+1237.42+1815.52+1229.92+1815.28+1223.19C1814.86+1211.29+1818.82+1177.37+1815.56+1168.31C1809.5+1151.46+1818.26+1129.07+1813.62+1109.22C1809.92+1093.36+1812.84+1074.17+1812.81+1057.59C1812.76+1024.72+1812.35+991.731+1812.34+958.531C1812.34+940.095+1807.66+899.25+1815.09+886.844C1822.68+874.184+1834.26+879.153+1842.34+874.219C1844.46+872.928+1850.44+872.639+1856.78+872.781ZM1862.12+873.031C1865.09+873.205+1867.71+873.393+1870.12+873.656C1869.54+873.726+1868.94+873.855+1868.5+874.062C1868.99+874.025+1870.04+874.439+1870.59+874.438C1872.29+874.434+1869.66+874.476+1868.69+874.656C1868.51+874.584+1868.3+874.533+1868.25+874.375C1868.2+874.211+1868.26+874.133+1868.38+874.094C1867.99+874.297+1867.89+874.562+1868.03+874.844C1867.52+875.018+1866.72+875.285+1865.88+875.688C1864.83+874.794+1863.59+873.914+1862.12+873.031ZM1868.38+874.094C1868.41+874.077+1868.47+874.078+1868.5+874.062C1868.45+874.066+1868.41+874.082+1868.38+874.094ZM1927.38+873.75C1926.62+873.948+1925.7+874.275+1924.31+874.875C1923.41+875.061+1922.52+875.219+1921.59+875.438C1921.63+875.406+1921.65+875.376+1921.69+875.344C1922.84+875.183+1923.92+875.048+1923.22+874.938C1922.83+874.876+1922.41+874.918+1922+874.906C1922.2+874.666+1922.46+874.452+1922.59+874.188C1924.19+874.04+1925.78+873.89+1927.38+873.75ZM1871.75+873.875C1872.42+873.959+1873.13+874.041+1873.69+874.125C1872.59+874.348+1871.58+874.557+1870.69+874.688C1871.13+874.384+1871.8+874.031+1871.75+873.875ZM1919.12+874.469C1918.35+874.845+1917.49+875.26+1916.97+875.469C1910.78+877.953+1904.89+881.048+1898.53+883.156C1897.16+883.61+1895.04+885.199+1893.41+886.219C1894.71+884.941+1896.49+883.806+1898.59+882.781C1896.15+883.595+1892.17+884.874+1892.03+886.469C1891.78+886.488+1891.46+886.572+1891.25+886.562C1891.24+886.561+1891.23+886.564+1891.22+886.562C1891.22+886.478+1891.17+886.454+1891.19+886.344C1891.38+885.235+1892.91+884.12+1894.75+883.031C1903.41+879.935+1914.09+874.688+1914.22+874.938C1914.24+874.987+1914.12+874.877+1914.12+874.906C1915.79+874.762+1917.46+874.623+1919.12+874.469ZM1898.59+882.781C1899.2+882.578+1900.26+882.2+1900.5+882.094C1901.58+881.611+1904.33+880.587+1907.66+879.469C1904.4+880.39+1901.26+881.486+1898.59+882.781ZM1876.84+874.531C1877.22+874.596+1877.6+874.596+1877.97+874.656C1874.86+875.278+1871.77+875.97+1868.62+876.438C1868.27+876.49+1867.79+876.767+1867.34+877C1867.17+876.844+1866.99+876.691+1866.81+876.531C1867.9+876.053+1868.86+875.657+1869.5+875.406C1871.42+875.71+1874.21+875.201+1876.84+874.531ZM1934.56+875C1936.11+874.934+1936.61+875.077+1936.88+875.25C1936.14+875.589+1935.4+875.935+1934.75+876.406C1934.17+876.571+1933.44+876.776+1932.75+876.969C1933.24+876.473+1933.66+875.969+1934+875.438C1934.51+875.39+1935.25+875.319+1934.94+875.281C1934.67+875.248+1934.35+875.306+1934.06+875.312C1934.12+875.22+1934.17+875.125+1934.22+875.031C1934.29+875.028+1934.49+875.003+1934.56+875ZM1931+875.344C1930.04+875.685+1928.86+876.175+1927.62+876.719C1926.89+876.714+1926.15+876.709+1925.66+876.844C1926.25+876.461+1926.78+876.082+1927.22+875.719C1928.81+875.535+1929.83+875.447+1931+875.344ZM1908.25+875.375C1908.02+875.478+1907.8+875.6+1907.56+875.688C1906.93+875.923+1904.09+877.103+1901.97+877.938C1903.36+877.227+1904.54+876.425+1905.59+875.531C1906.48+875.477+1907.36+875.438+1908.25+875.375ZM1887.53+875.75C1888.97+875.832+1890.43+875.815+1891.88+875.844C1891.65+875.927+1891.36+876.065+1891.12+876.156C1890.91+876.182+1890.6+876.101+1890.41+876.156C1886.38+877.329+1882.39+878.251+1878.66+879.812C1879.06+879.598+1879.21+879.505+1879.5+879.375C1882.21+878.155+1884.78+876.789+1887.53+875.75ZM1881.69+875.781C1881.9+875.79+1882.07+875.772+1882.28+875.781C1879.35+877.133+1874.78+879.653+1872.06+879.375C1870.52+879.217+1874.86+877.961+1876.28+877.344C1877.29+876.906+1879.61+876.441+1881.69+875.781ZM1900.81+875.812C1899.83+876.239+1899.1+876.501+1898.12+877C1895.21+878.283+1892.33+879.532+1889.16+880.406C1886.42+881.161+1881.11+883.208+1881.25+882.906C1882.45+880.286+1889.54+878.705+1892+877.812C1892.64+877.581+1893.46+876.797+1894.25+876.125C1894.17+876.121+1894.11+876.13+1894.03+876.125C1894.23+876.03+1894.34+875.962+1894.5+875.875C1894.53+875.875+1894.56+875.875+1894.59+875.875C1894.48+875.976+1894.37+876.023+1894.25+876.125C1895.14+876.173+1895.95+876.135+1896.5+875.906C1897.93+875.886+1899.37+875.869+1900.81+875.812ZM1875.59+875.938C1875.1+876.143+1874.59+876.345+1874.16+876.562C1873.73+876.592+1873.88+876.562+1873.12+876.656L1872.75+876.031C1873.44+875.945+1874.58+875.942+1875.59+875.938ZM1942.47+876.125C1942.23+876.776+1942.14+877.061+1941.62+878.25C1941.42+878.254+1941.21+878.34+1941+878.375C1941.47+877.46+1941.44+877.311+1941.69+876.688C1941.92+876.502+1942.27+876.307+1942.47+876.125ZM1920.16+876.719C1919.63+876.969+1919.26+877.149+1918.72+877.406C1919.09+877.227+1919.37+876.977+1919.72+876.781C1919.88+876.754+1920+876.745+1920.16+876.719ZM1925.41+876.969L1925.41+877.406C1925.6+877.471+1925.83+877.435+1926.03+877.469C1924.77+878.075+1923.47+878.702+1922.06+879.531C1918.75+881.49+1911.82+884.122+1906.97+887.031C1906.82+887.023+1906.68+887.009+1906.53+887C1907.53+886.31+1908.47+885.521+1909.41+884.938C1911.36+883.715+1920.41+880.124+1925.41+876.969ZM1872.91+877.156C1871.78+877.836+1871.04+878.502+1871.09+879.062C1871.22+880.341+1873.47+880.006+1876.19+879.25C1875.49+879.647+1874.38+880.281+1873.53+880.969C1872.92+880.693+1872.38+880.547+1871.75+880.25C1870.46+879.636+1869.33+878.765+1868.22+877.781C1869.84+877.694+1871.1+877.52+1872.91+877.156ZM1918.44+877.531C1915.12+879.12+1911.55+880.866+1909.53+881.719C1901.73+885.022+1896.52+887.937+1907.38+882.656C1913.99+879.438+1905.91+883.548+1913.22+879.781C1914.56+879.092+1916.58+878.405+1918.44+877.531ZM1925.56+878.656C1922.7+880.441+1919.92+882.534+1917.91+883.781C1917.57+883.986+1914.71+885.709+1912.56+887.344C1912.49+887.344+1912.18+887.376+1912.12+887.375C1911.67+887.364+1911.21+887.296+1910.75+887.281C1915.98+884.406+1921.55+880.747+1922.47+880.188C1923.45+879.587+1924.52+879.146+1925.56+878.656ZM1931.97+878.656C1931.42+879.115+1930.87+879.551+1930.28+879.969C1929.78+880.253+1929.28+880.554+1928.78+880.844C1928.25+881.128+1927.76+881.458+1927.16+881.656C1927.14+881.663+1926.34+881.71+1925.53+881.812C1926.99+881.062+1928.12+880.336+1929.47+879.469C1930.34+879.202+1931.08+878.917+1931.97+878.656ZM1937.69+879.562C1937.03+880.314+1936.4+881.12+1935.78+881.906C1935.9+881.53+1936.03+881.149+1936+880.812C1936.63+880.441+1937.18+880.013+1937.69+879.562ZM1883.06+880.094C1881.07+881.367+1879.64+882.578+1880.5+883.312C1881.44+884.112+1883.19+884.041+1885.19+883.625C1884.49+884.147+1884.12+884.628+1884.56+884.938C1884.95+885.206+1885.67+885.231+1886.44+885.219C1886.38+885.283+1886.28+885.341+1886.22+885.406C1882.84+884.571+1879.34+883.388+1875.72+881.875C1877.7+881.655+1880.36+880.895+1883.06+880.094ZM1939.34+881.188C1939.31+881.218+1939.28+881.251+1939.25+881.281C1939.23+881.29+1939.21+881.304+1939.19+881.312C1939.2+881.293+1939.21+881.27+1939.22+881.25C1939.27+881.23+1939.29+881.208+1939.34+881.188ZM1934.41+881.281C1933.78+881.829+1932.91+882.669+1932.72+882.75C1932.15+882.989+1933.46+882.326+1934.34+881.844C1933.7+883.544+1930.91+884.698+1927.53+885.531C1928.32+884.937+1929.16+884.407+1929.91+883.875C1930.65+883.344+1932.74+882.194+1934.41+881.281ZM1923.78+882.719C1923.84+883.055+1924.08+883.196+1924.34+883.312C1922.25+884.579+1920.14+885.764+1918.06+887.031C1917.4+887.09+1917.15+887.116+1916.56+887.156C1916.75+886.995+1916.85+886.913+1916.41+887.156C1916.3+887.163+1916.26+887.15+1916.16+887.156C1915.35+887.6+1913.84+888.481+1918.81+885.344C1919.99+884.599+1922.01+883.605+1923.78+882.719ZM1902.59+883.156C1901.87+883.579+1900.87+884.155+1900.22+884.5C1899.59+884.83+1898.58+885.761+1899.72+886.562C1899.3+886.524+1898.88+886.51+1898.47+886.469C1897.68+886.39+1896.3+886.721+1895.09+886.969C1894.34+886.887+1893.56+886.823+1892.81+886.719C1892.93+886.587+1893.12+886.473+1893.25+886.344C1895.81+885.836+1899.02+884.656+1902.59+883.156ZM1926.88+883.281C1926.77+883.356+1926.44+883.594+1926.34+883.656C1926.17+883.772+1924.73+884.567+1923.38+885.438C1922.82+885.798+1922.31+886.154+1921.88+886.5C1921.76+886.515+1921.65+886.516+1921.53+886.531C1922.33+886.082+1922.59+885.902+1923.38+885.438C1924.87+884.547+1925.58+884.091+1926.88+883.281ZM1934.72+883.469C1934.64+883.629+1934.6+883.968+1934.53+884.188C1934.4+884.427+1934.29+884.65+1934.19+884.875C1933.35+885.277+1932.39+885.578+1931.38+885.875C1930.76+885.976+1930.37+886.006+1929.75+886.125C1930.95+885.523+1931.48+885.219+1932.56+884.625C1932.94+884.464+1933.18+884.292+1933.5+884.125C1933.93+883.884+1934.34+883.677+1934.72+883.469ZM1890.09+884.625C1889.84+885.048+1889.67+885.465+1889.78+885.844C1889.9+886.246+1890.32+886.445+1890.88+886.531C1889.36+886.274+1887.82+885.808+1886.31+885.438C1886.39+885.383+1886.47+885.315+1886.59+885.219C1887.55+885.18+1888.74+884.979+1890.09+884.625ZM1907.38+884.656C1906.27+885.417+1905.02+886.172+1904.19+886.844C1903.54+886.797+1902.89+886.772+1902.25+886.719C1903.66+886.43+1905.49+885.591+1907.38+884.656ZM1938.06+885.469C1937.07+887.168+1936.17+888.441+1935.53+888.75C1934.8+889.105+1933.88+889.324+1933+889.562C1933.04+889.533+1933.06+889.302+1933.09+889.25C1932.91+889.423+1932.72+889.557+1932.53+889.719C1931.15+890.052+1929.67+890.286+1928.03+890.406C1928.66+890.028+1929.17+889.777+1929.81+889.406C1930.95+889.274+1932.61+889.256+1933.03+889.094C1933.57+888.883+1931.5+889.159+1929.88+889.375C1930.87+888.806+1931.97+888.099+1932.62+887.844C1933.61+887.46+1930.57+888.284+1929.56+888.625C1928.64+888.938+1924.94+889.438+1923.66+889.594C1925.06+889.773+1926.35+889.705+1928.28+889.562C1927.11+889.803+1925.99+890.1+1925.28+890.438C1922.59+890.486+1919.83+890.457+1916.91+890.25C1917.91+890.106+1918.69+889.913+1919.66+889.75L1919.69+889.906C1921.07+889.634+1920.98+889.589+1922.19+889.344C1922.35+889.436+1922.68+889.469+1922.97+889.531C1923.12+889.352+1923.35+889.176+1923.78+889C1925.74+888.591+1926.8+888.33+1928.25+888C1929.4+887.727+1930.64+887.497+1931.69+887.219C1931.86+887.192+1932.45+887.075+1932.53+887.062C1932.59+887.054+1932.62+887.014+1932.69+887C1932.85+886.958+1933.26+886.852+1933.41+886.812C1933.4+887.126+1933.46+887.346+1933.66+887.406C1933.48+888.227+1933.3+888.942+1933.09+889.25C1934.05+888.36+1934.96+887.378+1935.84+886.281C1937.05+885.925+1937.87+885.642+1938.06+885.469ZM1922.97+889.531C1922.9+889.61+1922.62+889.704+1922.62+889.781C1922.63+889.788+1923.43+889.621+1923.66+889.594C1923.44+889.566+1923.15+889.57+1922.97+889.531ZM1927.41+886.25C1926.93+886.467+1926.69+886.689+1926.25+886.906C1925.86+887.009+1925.48+887.112+1925.12+887.219C1925.47+886.989+1925.81+886.749+1926.16+886.5C1926.56+886.41+1927.02+886.344+1927.41+886.25ZM1921.03+887.5C1921.02+887.551+1920.89+887.645+1920.91+887.688C1920.94+887.783+1921.05+887.795+1921.09+887.875C1920.32+887.871+1919.71+887.905+1918.88+887.875C1918.95+887.834+1919.01+887.792+1919.09+887.75C1919.74+887.658+1920.4+887.601+1921.03+887.5Z" stroke="#000000" stroke-width="1" fill="#000000" opacity="1" stroke-linejoin="round"/>
</g>
<g id="Layer 2" vectornator:layerName="Layer 2">
<path d="M2032.51+910.055C2055.23+897.257+2083.33+884.633+2103.65+870.09L2111.38+873.82C2095.71+892.439+2069.64+905.756+2044.63+919.461" stroke="#000000" stroke-width="1" fill="#c5f2ff" opacity="1" stroke-linejoin="round"/>
<path d="M2058.04+988.309C2076.95+983.735+2095.86+979.162+2114.76+974.588L2118.83+986.511C2100.46+992.5+2082.1+998.489+2063.73+1004.48" stroke="#000000" stroke-width="1" fill="#c5f2ff" opacity="1" stroke-linejoin="round"/>
<path d="M2051.68+1097.91C2087.48+1104.31+2123.28+1110.71+2159.08+1117.12L2155.55+1129.42C2117.75+1126.12+2079.94+1122.82+2042.14+1119.52" stroke="#000000" stroke-width="1" fill="#c5f2ff" opacity="1" stroke-linejoin="round"/>
<path d="M2033.87+1204.95C2050.68+1217.48+2067.48+1230.01+2084.29+1242.55L2082.15+1245.15C2062.66+1234.8+2043.17+1224.45+2023.68+1214.09" stroke="#000000" stroke-width="1" fill="#c5f2ff" opacity="1" stroke-linejoin="round"/>
<path d="M1781.48+1222.52C1764.39+1234.15+1747.3+1245.79+1730.2+1257.43L1726.41+1252.48C1741.28+1236.88+1756.16+1221.29+1771.04+1205.7" stroke="#000000" stroke-width="1" fill="#c5f2ff" opacity="1" stroke-linejoin="round"/>
<path d="M1746+1134.7C1719.28+1145.96+1692.56+1157.23+1665.83+1168.49L1662.97+1163.65C1688.46+1149.35+1713.95+1135.04+1739.44+1120.73" stroke="#000000" stroke-width="1" fill="#c5f2ff" opacity="1" stroke-linejoin="round"/>
<path d="M1749.08+1059.48C1637.11+1029.3+1667.76+1034.47+1626.17+1023.58L1628.3+1019.24C1668.37+1009.47+1709.02+1037.16+1749.08+1046.95" stroke="#000000" stroke-width="1" fill="#c5f2ff" opacity="1" stroke-linejoin="round"/>
<path d="M1756.84+951.55C1727.97+928.854+1699.1+906.157+1670.23+883.46L1673.47+880.388C1704.36+900.093+1735.24+919.798+1766.13+939.504" stroke="#000000" stroke-width="1" fill="#c5f2ff" opacity="1" stroke-linejoin="round"/>
</g>
</svg>
