<?xml version="1.0" encoding="UTF-8" standalone="no"?> <!-- Created with Vectornator Pro for iOS (http://vectornator.io/) --><!DOCTYPE svg PUBLIC "-//W3C//DTD SVG 1.1//EN" "http://www.w3.org/Graphics/SVG/1.1/DTD/svg11.dtd">
<svg height="100%" style="fill-rule:evenodd;clip-rule:evenodd;stroke-linecap:round;stroke-linejoin:round;" xmlns:xlink="http://www.w3.org/1999/xlink" xmlns="http://www.w3.org/2000/svg" xml:space="preserve" width="100%" xmlns:vectornator="http://vectornator.io" version="1.1" viewBox="0 0 3840 2160">
<metadata>
<vectornator:setting key="CMYKEnabledKey" value="0"/>
<vectornator:setting key="Units" value="Pixels"/>
<vectornator:setting key="GridSpacing" value="36"/>
<vectornator:setting key="RulersVisible" value="1"/>
<vectornator:setting key="DynamicGuides" value="1"/>
</metadata>
<defs/>
<g id="Untitled" vectornator:layerName="Untitled">
<path d="M106.095+0M106.095+0L3733.9+0L3733.9+0L3733.9+2160L3733.9+2160L106.095+2160L106.095+2160L106.095+0L106.095+0Z" fill-opacity="0.980392" fill="#598c3d" opacity="0.98"/>
<path d="M106.095+0M1571.15+1681.07C1666.12+1665.73+1747.2+1634.79+1821.82+1585.43C2003.89+1464.97+2107.73+1256.38+2092.89+1040.91C2087.12+957.119+2068.17+887.114+2030.92+811.968C1936.73+621.971+1751.2+495.711+1537.32+476.045C1407.86+464.141+1269.45+496.647+1159.44+564.794C1106.8+597.403+1039.81+656.168+1004.51+700.717C965.209+750.3+927.847+816.383+907.179+872.863C895.251+905.457+882.194+956.913+876.767+992.707C871.453+1027.76+870.791+1128.62+875.663+1160.94C896.885+1301.76+956.957+1419.31+1057.01+1515.82C1152.04+1607.48+1272.08+1665.37+1401.52+1681.96C1411.91+1683.29+1423.6+1684.82+1427.5+1685.35C1444.91+1687.75+1549.03+1684.65+1571.15+1681.07Z" opacity="0.98" fill="#598c3d"/>
<path d="M106.095+0M1416.87+1658.55C1407.13+1657.39+1384.81+1653.64+1367.27+1650.22C1120.64+1602.15+931.891+1400.82+900.924+1152.76C896.207+1114.98+896.205+1045.32+900.924+1007.56C924.599+817.907+1040.48+653.065+1212.2+564.752C1272.22+533.889+1329.58+515.583+1400.34+504.71C1433.48+499.618+1527.64+498.95+1557.4+503.595C1636.4+515.928+1697.34+535.141+1756.97+566.516C1812.21+595.582+1857.45+629.535+1903.43+676.428C1989.38+764.091+2040.28+864.767+2062.06+990.196C2069.11+1030.84+2069.75+1120.68+2063.27+1162.11C2043.04+1291.59+1985.44+1404.9+1894.47+1494.19C1849.66+1538.17+1802.73+1571.35+1744.98+1599.88C1688.76+1627.65+1632.35+1645.69+1571.57+1655.32C1543.84+1659.71+1444.11+1661.79+1416.88+1658.55L1416.87+1658.55Z" opacity="0.98" fill="#598c3d"/>
<path d="M106.095+0M1540.02+1625.75C1677.02+1612.05+1810.71+1543.14+1899.95+1440.25C1976.05+1352.5+2021.1+1249.31+2033.45+1134.44C2037.45+1097.19+2035.13+1026.04+2028.74+989.969C2008.58+876.275+1959.16+779.176+1879.87+697.505C1697.04+509.17+1400+476.483+1179.51+620.434C1049.75+705.153+961.944+838.255+936.5+988.798C927.014+1044.92+926.986+1115.8+936.428+1170.31C979.109+1416.72+1178.84+1600.97+1431.04+1626.61C1450.11+1628.54+1517.36+1628.02+1540.02+1625.75L1540.02+1625.75Z" opacity="0.98" fill="#598c3d"/>
<path d="M106.095+0M1323.76+1484.91C1320.74+1475.38+1320.09+1433.01+1322.82+1423.88C1326.68+1411.03+1344.04+1393.79+1376.83+1370.24C1390.53+1360.41+1413.91+1342.49+1428.79+1330.43L1455.84+1308.5L1392.27+1307.87C1350.19+1307.46+1327.63+1306.37+1325.55+1304.66C1323.21+1302.74+1322.4+1293.99+1322.4+1270.78C1322.4+1240.27+1322.53+1239.46+1327.71+1238.22C1330.64+1237.52+1404.24+1237.23+1491.27+1237.59L1649.5+1238.23L1649.5+1271.02L1649.5+1303.81L1584.56+1304.98C1547.94+1305.64+1519.61+1307.09+1519.61+1308.29C1519.61+1309.46+1546.67+1331.32+1579.75+1356.86C1612.83+1382.4+1642.59+1405.97+1645.88+1409.23C1651.74+1415.04+1651.87+1415.86+1651.87+1449.62C1651.87+1478.39+1651.28+1484.19+1648.32+1484.75C1646.37+1485.11+1609.84+1457.99+1567.14+1424.48C1524.44+1390.96+1488.3+1363.54+1486.84+1363.55C1485.38+1363.55+1451.23+1389.47+1410.97+1421.13C1322.06+1491.04+1325.02+1488.88+1323.76+1484.91Z" opacity="0.98" fill="#598c3d"/>
<path d="M106.095+0M1037.82+1241.77C1035.75+1238.44+1034.43+1240.22+1100.4+1157.48C1133.52+1115.93+1160.49+1080.6+1160.34+1078.96C1160.18+1077.33+1132.55+1041.53+1098.93+999.413C1065.31+957.297+1037.81+921.606+1037.81+920.101C1037.81+918.16+1048.28+917.175+1073.76+916.717C1105.74+916.142+1110.18+916.535+1113.91+920.272C1116.22+922.584+1139.82+952.121+1166.37+985.913C1192.91+1019.7+1215.49+1047.35+1216.55+1047.35C1217.62+1047.35+1218.48+1019.02+1218.48+984.4C1218.48+933.528+1219.11+920.932+1221.76+918.749C1223.97+916.937+1235.04+916.265+1255.42+916.706L1285.79+917.363L1285.79+1078.97L1285.79+1240.58L1254.09+1241.23C1230.32+1241.72+1221.91+1241.14+1220.47+1238.89C1219.42+1237.24+1218.54+1207.57+1218.52+1172.95C1218.49+1116.64+1218.1+1110.33+1214.86+1113C1212.86+1114.64+1189.31+1143.84+1162.52+1177.89C1134.15+1213.96+1111.44+1240.7+1108.13+1241.95C1100.39+1244.87+1039.66+1244.71+1037.82+1241.76L1037.82+1241.77Z" opacity="0.98" fill="#598c3d"/>
<path d="M106.095+0M1868.96+1240.79C1857.1+1235.63+1845.6+1224.12+1828.22+1200.04C1808.88+1173.24+1759.84+1112.09+1756.8+1110.99C1755.59+1110.55+1754.41+1138.19+1754.05+1175.4L1753.42+1240.58L1719.75+1241.23L1686.08+1241.88L1686.69+1079.62L1687.29+917.363L1720.36+917.363L1753.42+917.363L1754.05+982.357C1754.41+1020.07+1755.59+1047.35+1756.86+1047.35C1758.06+1047.35+1779.44+1021.27+1804.38+989.383C1829.32+957.501+1852.98+927.991+1856.95+923.804L1864.17+916.192L1900.31+916.192C1927.67+916.192+1936.45+916.904+1936.43+919.12C1936.41+920.73+1908.25+957.274+1873.84+1000.33C1813.17+1076.24+1811.38+1078.77+1814.84+1084C1816.79+1086.96+1845.04+1122.69+1877.61+1163.4C1910.18+1204.1+1936.31+1238.74+1935.68+1240.37C1934.01+1244.7+1878.76+1245.05+1868.96+1240.79Z" opacity="0.98" fill="#598c3d"/>
<path d="M106.095+0M1325.85+1199C1325.22+1197.39+1324.99+1142.85+1325.33+1077.8L1325.94+959.521L1355.28+958.861C1377.16+958.368+1385.1+958.964+1386.54+961.203C1389.82+966.33+1389.01+1195.84+1385.7+1199.12C1381.65+1203.14+1327.4+1203.03+1325.85+1199L1325.85+1199Z" opacity="0.98" fill="#598c3d"/>
<path d="M106.095+0M1455.74+1199C1455.12+1197.39+1454.89+1142.85+1455.23+1077.8L1455.84+959.521L1485.18+958.861C1507.06+958.368+1515+958.964+1516.43+961.203C1518.63+964.643+1519.17+1192.59+1516.99+1198.23C1515.79+1201.33+1510.79+1201.93+1486.22+1201.93C1464.92+1201.93+1456.56+1201.13+1455.74+1199Z" opacity="0.98" fill="#598c3d"/>
<path d="M106.095+0M1589.4+1197.47C1585.54+1190.31+1586+967.51+1589.9+962.232C1592.48+958.726+1596.62+958.28+1621.19+958.857L1649.5+959.521L1649.5+1080.14L1649.5+1200.76L1620.69+1201.42C1594.1+1202.02+1591.69+1201.72+1589.4+1197.47Z" opacity="0.98" fill="#598c3d"/>
<path d="M106.095+0M1324.98+919.964C1323.15+917.781+1322.47+906.798+1322.92+886.589L1323.58+856.468L1389.12+855.846C1439.24+855.369+1454.64+854.543+1454.58+852.332C1454.54+850.743+1425.75+827.309+1390.6+800.257C1355.46+773.206+1325.74+749.298+1324.55+747.128C1323.37+744.958+1322.4+727.192+1322.4+707.647C1322.4+676.387+1322.84+672.28+1326.09+673.515C1328.12+674.288+1364.3+702.067+1406.48+735.246C1448.67+768.426+1484.47+795.849+1486.05+796.186C1487.62+796.523+1524.51+768.866+1568.02+734.726C1640.14+678.147+1647.43+673.015+1650.34+676.731C1652.84+679.922+1653.23+687.883+1652.14+713.323C1651.37+731.206+1649.61+747.187+1648.23+748.838C1646.85+750.488+1617.61+773.642+1583.25+800.29C1548.89+826.938+1520.18+849.689+1519.46+850.848C1518.7+852.076+1544.24+852.955+1580.68+852.955C1615.07+852.955+1644.89+853.595+1646.95+854.377C1650.11+855.578+1650.68+860.804+1650.68+888.087C1650.68+915.369+1650.11+920.596+1646.95+921.797C1644.89+922.579+1572.22+923.219+1485.46+923.219C1353.69+923.219+1327.25+922.683+1324.98+919.964Z" opacity="0.98" fill="#598c3d"/>
</g>
<g id="layer1" vectornator:layerName="layer1">
<path d="M106.095+0M1230.37+0L1738.47+0L1738.47+0L1738.47+2160L1738.47+2160L1230.37+2160L1230.37+2160L1230.37+0L1230.37+0Z" opacity="1" fill="#ffffff"/>
<path d="M106.095+0M106.095+823.444L3733.77+823.444L3733.77+823.444L3733.77+1329.34L3733.77+1329.34L106.095+1329.34L106.095+1329.34L106.095+823.444L106.095+823.444Z" opacity="1" fill="#ffffff"/>
<path d="M106.095+0M106.095+865.837L3733.9+865.837L3733.9+865.837L3733.9+917.363L3733.9+917.363L106.095+917.363L106.095+917.363L106.095+865.837L106.095+865.837Z" opacity="1" fill="#000000"/>
<path d="M106.095+0M106.095+1244.09L3733.9+1244.09L3733.9+1244.09L3733.9+1294.44L3733.9+1294.44L106.095+1294.44L106.095+1294.44L106.095+1244.09L106.095+1244.09Z" opacity="1" fill="#000000"/>
<path d="M106.095+0M1266.9+0L1317.8+0L1317.8+0L1317.8+2160L1317.8+2160L1266.9+2160L1266.9+2160L1266.9+0L1266.9+0Z" opacity="1" fill="#000000"/>
<path d="M106.095+0M1648.21+0L1699.1+0L1699.1+0L1699.1+2159.86L1699.1+2159.86L1648.21+2159.86L1648.21+2159.86L1648.21+0L1648.21+0Z" opacity="1" fill="#000000"/>
</g>
<g id="layer4" vectornator:layerName="layer4">
<path d="M759.709+1079.78C759.709+683.205+1083.89+361.72+1483.79+361.72C1883.69+361.72+2207.87+683.205+2207.87+1079.78C2207.87+1476.35+1883.69+1797.84+1483.79+1797.84C1083.89+1797.84+759.709+1476.35+759.709+1079.78Z" opacity="1" fill="#ffffff"/>
</g>
<g id="layer2" vectornator:layerName="layer2">
<path d="M106.095+0M433.199+619.775C429.302+617.782+419.708+609.884+411.879+602.223C404.051+594.563+396.08+588.314+394.166+588.336C392.253+588.36+388.257+590.918+385.288+594.024C361.613+618.786+312.731+580.263+307.74+532.911C302.347+481.738+345.278+435.528+423.695+408.099C435.407+404.003+447.187+401.255+450.017+401.959C461.549+404.829+488.101+468.32+493.587+506.143C496.956+529.367+495.238+565.502+489.961+582.44C480.248+613.62+454.402+630.619+433.199+619.775Z" opacity="1" fill="#090a09"/>
<path d="M106.095+0M446.212+569.542C449.873+566.957+455.332+559.843+458.343+553.733C462.979+544.325+463.805+539.039+463.739+519.203C463.65+492.657+459.739+476.812+447.165+452.05C437.019+432.071+433.101+430.716+410.69+439.436C381.71+450.711+357.895+468.945+348.422+487.111C335.865+511.192+344.598+543.347+367.415+557.045C378+563.398+386.347+563.996+393.651+558.923C398.552+555.519+399.533+555.851+410.921+564.778C424.845+575.693+435.47+577.127+446.212+569.542L446.212+569.542Z" opacity="1" fill="#ffffff"/>
<path d="M106.095+0M627.915+589.583C591.074+576.123+566.378+545.359+551.677+494.611C543.918+467.829+538.921+432.301+542.183+427.112C545.321+422.121+585.643+411.504+615.719+407.75C660.434+402.168+708.9+411.296+737.257+430.641C749.954+439.302+760.302+455.758+760.302+467.287C760.302+480.618+751.093+494.81+736.151+504.503C729.3+508.948+721.835+513.251+719.562+514.064C714.501+515.875+714.329+520.09+718.957+528.889C727.924+545.939+720.89+564.646+700.371+578.32C679.735+592.072+648.161+596.98+627.915+589.583Z" opacity="1" fill="#090a09"/>
<path d="M106.095+0M675.889+553.779C695.316+543.294+702.024+531.033+696.548+516.016C693.835+508.574+693.963+507.418+697.748+505.244C715.084+495.283+726.2+479.512+723.905+468.133C718.891+443.272+683.655+425.919+638.672+426.158C607.071+426.324+568.452+435.671+565.259+443.923C563.338+448.887+570.525+487.534+576.134+502.4C595.299+553.198+637.088+574.722+675.889+553.779Z" opacity="1" fill="#ffffff"/>
<path d="M106.095+0M576.25+323.362C569.436+312.28+557.417+275.553+553.532+253.945C539.335+174.982+572.015+101.037+615.927+112.763C627.756+115.922+635.55+122.151+647.137+137.705C652.305+144.643+658.069+150.319+659.945+150.319C661.821+150.319+666.836+148.215+671.089+145.644C686.111+136.561+700.917+140.429+716.468+157.498C749.671+193.945+744.735+248.332+705.098+282.775C682.478+302.43+625.066+326.7+593.364+330.008C581.451+331.251+580.99+331.073+576.25+323.362Z" opacity="1" fill="#090a09"/>
<path d="M106.095+0M639.616+290.963C675.417+278.606+696.181+260.058+701.234+235.923C705.921+213.531+694.124+186.764+676.313+179.384C669.239+176.453+667.132+176.459+659.949+179.437C651.753+182.833+651.667+182.804+645.392+174.646C621.781+143.948+590.19+162.069+583.308+210.257C579.734+235.29+587.148+275.132+598.609+292.478C603.528+299.924+614.868+299.505+639.616+290.963L639.616+290.963Z" opacity="1" fill="#ffffff"/>
<path d="M106.095+0M326.859+319.243C283.249+308.602+257.359+283.74+264.087+258.963C266.612+249.662+279.993+234.994+297.914+221.881L306.697+215.454L300.664+203.647C292.552+187.772+294.296+179.171+308.727+163.871C342.568+127.993+396.229+128.564+433.15+165.194C455.1+186.973+472.197+223.94+481.695+270.16C486.22+292.178+486.283+294.052+482.628+298.057C477.808+303.338+441.974+315.395+417.029+320.127C392.11+324.856+348.093+324.424+326.859+319.243Z" opacity="1" fill="#090a09"/>
<path d="M106.095+0M426.113+288.521C453.048+280.099+454.571+276.914+446.122+246.677C436.87+213.567+422.777+193.29+402.513+183.932C380.291+173.67+355.888+178.301+340.479+195.704C332.568+204.641+330.921+212.681+335.331+220.852C337.484+224.841+336.15+227.068+325.884+236.626C315.322+246.46+313.93+248.864+313.93+257.275C313.93+273.124+326.953+285.017+351.91+291.957C369.655+296.891+404.504+295.278+426.113+288.521Z" opacity="1" fill="#ffffff"/>
<path d="M106.095+0M1324.76+1453.62C1324.76+1415.69+1329.15+1408.48+1369.64+1379.92C1392.17+1364.02+1454.92+1314.92+1458.72+1310.21C1460.3+1308.24+1461.03+1305.74+1460.35+1304.64C1459.66+1303.54+1429.41+1302.64+1393.11+1302.64L1327.12+1302.64L1327.12+1272.18L1327.12+1241.71L1487.13+1242.32L1647.14+1242.92L1647.14+1272.19L1647.14+1301.47L1580.26+1302.09C1518.25+1302.67+1513.43+1303.01+1514.16+1306.78C1514.59+1309.01+1540.44+1330.55+1571.6+1354.64C1602.75+1378.74+1632.77+1402.26+1638.29+1406.92L1648.32+1415.39L1648.32+1448.02C1648.32+1465.96+1647.38+1480.64+1646.23+1480.64C1645.08+1480.64+1609.74+1453.64+1567.7+1420.64C1525.66+1387.64+1489.97+1360.13+1488.38+1359.52C1486.8+1358.91+1450.43+1385.91+1407.58+1419.52C1364.72+1453.14+1328.55+1480.64+1327.21+1480.64C1325.66+1480.64+1324.76+1470.68+1324.76+1453.62Z" opacity="1" fill="#090a09"/>
<path d="M106.095+0M1877.4+1239.7C1859.4+1233.85+1851.93+1227.16+1831.26+1198.42C1808.15+1166.29+1758.63+1105.9+1755.4+1105.9C1752.95+1105.9+1752.19+1119.51+1751.69+1172.07L1751.06+1238.23L1720.36+1238.23L1689.65+1238.23L1689.65+1080.14L1689.65+922.047L1720.36+922.047L1751.06+922.047L1751.66+985.285C1751.99+1020.07+1752.8+1049.96+1753.46+1051.71C1755.39+1056.85+1758.7+1053.11+1810.56+987.128C1837.22+953.22+1861.27+923.915+1864.02+922.006C1867.83+919.362+1876.49+918.534+1900.38+918.534C1917.62+918.534+1931.73+919.429+1931.73+920.523C1931.73+921.616+1904.1+957.103+1870.33+999.382C1836.56+1041.66+1808.92+1077.72+1808.92+1079.52C1808.92+1081.31+1836.29+1117.04+1869.74+1158.91C1903.19+1200.79+1930.91+1236.03+1931.34+1237.22C1931.77+1238.42+1927.41+1239.4+1921.65+1239.4C1915.89+1239.4+1904.9+1239.9+1897.24+1240.51C1889.58+1241.12+1880.65+1240.76+1877.4+1239.7Z" opacity="1" fill="#090a09"/>
<path d="M106.095+0M1041.74+1237.42C1042.18+1236.33+1069.63+1201.52+1102.76+1160.05C1135.88+1118.59+1163.3+1082.74+1163.69+1080.4C1164.14+1077.71+1141.68+1047.66+1103.02+999.219C1069.26+956.918+1042.17+921.458+1042.82+920.421C1044.23+918.155+1102.28+918.186+1107.84+920.456C1109.99+921.332+1133.72+949.978+1160.59+984.114C1217.93+1056.99+1217.81+1056.85+1220.89+1052.04C1222.17+1050.04+1223.15+1021+1223.17+984.7L1223.21+920.877L1253.93+920.877L1284.65+920.877L1284.04+1079.56L1283.43+1238.23L1253.91+1238.23L1224.39+1238.23L1223.76+1172.07C1223.18+1110.87+1222.82+1105.9+1219+1105.9C1216.39+1105.9+1195.93+1130+1163.51+1171.25C1135.25+1207.18+1110.47+1237.22+1108.44+1238C1102.68+1240.19+1040.86+1239.66+1041.74+1237.42L1041.74+1237.42Z" opacity="1" fill="#090a09"/>
<path d="M106.095+0M1460.5+1196.74C1459.86+1195.09+1459.61+1141.56+1459.95+1077.8L1460.56+961.864L1486.54+961.864L1512.52+961.864L1512.52+1080.14L1512.52+1198.42L1487.09+1199.08C1468.06+1199.58+1461.37+1198.99+1460.5+1196.74Z" opacity="1" fill="#090a09"/>
<path d="M106.095+0M1328.7+1195.68C1327.83+1194.83+1327.12+1142.78+1327.12+1080.04C1327.12+985.261+1327.68+965.491+1330.42+963.237C1332.58+961.461+1342.17+960.755+1358.17+961.193L1382.63+961.864L1383.24+1079.55L1383.85+1197.25L1357.06+1197.25C1342.33+1197.25+1329.56+1196.54+1328.7+1195.68Z" opacity="1" fill="#090a09"/>
<path d="M106.095+0M1592.21+1079.55L1592.82+961.864L1615.26+961.177C1627.6+960.799+1640.09+961.083+1643.01+961.807L1648.32+963.124L1648.32+1080.19L1648.32+1197.25L1619.96+1197.25L1591.6+1197.25L1592.21+1079.55Z" opacity="1" fill="#090a09"/>
<path d="M106.095+0M1327.12+888.103L1327.12+857.639L1393.11+857.639C1429.41+857.639+1459.66+856.74+1460.35+855.642C1462.56+852.09+1456.78+847.141+1394.43+799.184C1360.66+773.208+1331.17+749.794+1328.9+747.155C1325.41+743.106+1324.76+737.48+1324.76+711.136C1324.76+693.964+1325.56+679.464+1326.53+678.914C1327.51+678.364+1349.03+694.234+1374.36+714.181C1399.69+734.128+1435.16+761.955+1453.18+776.02L1485.94+801.593L1492.14+797.614C1495.56+795.425+1531.02+767.985+1570.94+736.636C1610.86+705.287+1644.63+679.638+1645.99+679.638C1647.61+679.638+1648.23+690.984+1647.8+712.996L1647.14+746.355L1590.46+790.393C1516.89+847.549+1513.29+850.551+1514.37+853.759C1515.01+855.686+1534.32+856.807+1581.21+857.639L1647.14+858.81L1647.14+888.087L1647.14+917.363L1487.13+917.965L1327.12+918.567L1327.12+888.103Z" opacity="1" fill="#090a09"/>
<path d="M106.095+0M1479+397.322C1352.78+397.504+1228.01+432.049+1118.44+499.753C1059.71+536.05+987.363+600.082+944.888+653.371C866.065+752.261+818.155+864.323+798.976+994.654C793.771+1030.02+793.024+1125.54+797.669+1162.12C811.363+1269.95+847.969+1368.41+907.388+1457.22C957.164+1531.62+1029.27+1602.31+1106.3+1652.22C1200.72+1713.4+1312.46+1751.58+1426.32+1761.56C1460.3+1764.54+1539.57+1762.74+1573.93+1758.21C1835.26+1723.77+2052.27+1544.72+2136.03+1294.45C2194.09+1120.96+2180.64+933.127+2098.69+773.324C2022.07+623.891+1891.99+506.453+1735.71+445.599C1652.4+413.161+1565.36+397.198+1479+397.322ZM1482.53+471.608C1510.16+471.492+1537+472.396+1554.72+474.436C1713.16+492.672+1863.24+575.114+1962.4+698.376C1991.89+735.034+2012.55+767.597+2034.49+811.969C2063.96+871.608+2081.41+926.313+2091.63+991.141C2097.67+1029.48+2097.63+1133.18+2091.55+1171.01C2074.1+1279.59+2030.9+1377.15+1962.75+1461.91C1864.67+1583.89+1718.03+1665.89+1563.3+1685.3C1373.14+1709.15+1190.39+1649.1+1054.65+1518.16C1002.63+1467.99+962.95+1414.26+931.718+1351.74C899.762+1287.76+881.224+1226.98+871.035+1152.75C866.7+1121.17+867.361+1031.95+872.168+999.792C886.248+905.584+919.926+817.175+970.07+742.788C1066.77+599.343+1216.65+504.35+1389.71+476.837C1410.17+473.584+1447.01+471.756+1482.53+471.608Z" opacity="1" fill="#090a09"/>
<path d="M106.095+0M1487.74+503.932C1458.04+503.881+1427.12+505.104+1408.6+507.504C1211.89+533.004+1047.28+649.355+959.631+824.85C868.692+1006.92+882.336+1227.89+994.979+1397.33C1094.04+1546.34+1250.61+1639.3+1431.04+1656.24C1460.86+1659.04+1532.5+1657.19+1562.83+1652.84C1626.69+1643.69+1683.84+1626.09+1741.61+1597.79C1800.99+1568.71+1849.09+1534.58+1895.06+1488.92C1966.44+1418.02+2019.4+1327.22+2044.99+1231.89C2092.3+1055.69+2054.89+868.613+1943.93+726.481C1922.85+699.477+1876.39+652.586+1849.07+630.729C1763.67+562.427+1656.34+518.05+1548.39+506.421C1533.19+504.784+1510.83+503.973+1487.74+503.932ZM1492.13+527.573C1506.9+527.657+1520.97+528.291+1533.62+529.52C1756+551.129+1940.73+696.67+2011.02+905.653C2098.84+1166.74+1978.64+1452.53+1729.8+1574.3C1673.9+1601.65+1624.3+1617.17+1564.48+1626.02C1452.38+1642.59+1341.61+1625.49+1238.56+1575.7C1039.97+1479.76+918.738+1280.02+926.393+1061.4C929.323+977.721+946.502+909.589+983.377+835.39C1057.78+685.672+1195.76+577.662+1360.19+540.422C1397.31+532.016+1447.84+527.321+1492.13+527.573Z" opacity="1" fill="#090a09"/>
<path d="M106.095+0M2205.7+987.627L3733.9+987.627L3733.9+987.627L3733.9+1171.48L3733.9+1171.48L2205.7+1171.48L2205.7+1171.48L2205.7+987.627L2205.7+987.627Z" opacity="1" fill="#000000"/>
<path d="M106.095+0M106.095+987.627L759.121+987.627L759.121+987.627L759.121+1170.31L759.121+1170.31L106.095+1170.31L106.095+1170.31L106.095+987.627L106.095+987.627Z" opacity="1" fill="#000000"/>
<path d="M106.095+0M1385.93+0L1570.15+0L1570.15+0L1570.15+362.281L1570.15+362.281L1385.93+362.281L1385.93+362.281L1385.93+0L1385.93+0Z" opacity="1" fill="#000000"/>
<path d="M106.095+0M1389.71+1798L1573.93+1798L1573.93+1798L1573.93+2159.86L1573.93+2159.86L1389.71+2159.86L1389.71+2159.86L1389.71+1798L1389.71+1798Z" opacity="1" fill="#000000"/>
</g>
</svg>
