<?xml version="1.0" encoding="UTF-8" standalone="no"?> <!-- Created with Vectornator Pro for iOS (http://vectornator.io/) --><!DOCTYPE svg PUBLIC "-//W3C//DTD SVG 1.1//EN" "http://www.w3.org/Graphics/SVG/1.1/DTD/svg11.dtd">
<svg height="100%" style="fill-rule:evenodd;clip-rule:evenodd;stroke-linecap:round;stroke-linejoin:round;" xmlns:xlink="http://www.w3.org/1999/xlink" xmlns="http://www.w3.org/2000/svg" xml:space="preserve" width="100%" xmlns:vectornator="http://vectornator.io" version="1.1" viewBox="0 0 3840 2160">
<metadata>
<vectornator:setting key="RulersVisible" value="1"/>
<vectornator:setting key="GridSpacing" value="36"/>
<vectornator:setting key="Units" value="Pixels"/>
<vectornator:setting key="DynamicGuides" value="1"/>
<vectornator:setting key="SnapToPoints" value="0"/>
<vectornator:setting key="SnapToGrid" value="0"/>
<vectornator:setting key="ShowGrid" value="1"/>
<vectornator:setting key="SnapToEdges" value="0"/>
</metadata>
<defs/>
<g id="Layer 1" vectornator:layerName="Layer 1">
<path d="M1999.02+704.34C1914.5+622.493+1723.99+776.298+1765.33+870.445C1791.35+929.7+1882.6+943.536+1942.19+937.891C1962.97+935.922+1990.75+930.86+2000.5+911.136L2001.44+911.643C1993.09+942.074+1949.9+947.731+1921.75+948.094C1862.1+948.864+1779.81+929.599+1756.28+871.405C1722.73+788.419+1819.41+710.974+1891.71+684.502C1930.05+670.464+1984.11+664.129+2007.03+703.588" stroke="#000000" stroke-width="1" fill="#ffffff" opacity="1" stroke-linejoin="round"/>
<path d="M1713.69+814.886C1741.45+810.57+1769.43+806.278+1797.54+804.289C1809.15+803.467+1820.64+802.785+1832.22+802.176C1835.6+801.998+1844.33+799.134+1842.37+801.686L1844.42+802.794C1842.63+812.581+1818.66+812.678+1811.42+813.333C1779.29+816.241+1747.09+818.697+1714.96+821.697" stroke="#000000" stroke-width="1" fill="#ffffff" opacity="1" stroke-linejoin="round"/>
<path d="M1711.02+880.661C1727.97+860.949+1784.42+861.731+1809.19+858.906C1816.11+858.117+1873.44+854.495+1868.13+859.264L1869.6+856.886C1875.38+867.533+1844.81+868.013+1837.92+868.771C1811.07+871.723+1732.28+887.805+1710.24+878.965" stroke="#000000" stroke-width="1" fill="#ffffff" opacity="1" stroke-linejoin="round"/>
<path d="M1588.05+1125.9C1585.01+1068.05+1456.58+1085.04+1452.09+1138.65C1448.95+1176.22+1525.21+1213.84+1550.95+1235.76C1567.18+1249.57+1587.27+1275.65+1571.53+1296.08C1544.54+1331.08+1466.96+1329.51+1429.61+1313.65C1393.42+1298.28+1383.61+1266.09+1417.76+1245.08L1418.67+1246.03C1391.92+1267.56+1395.58+1294+1431.4+1306.65C1465.46+1318.68+1535.09+1319.91+1562.78+1293.42C1579.24+1277.67+1558.79+1252.27+1546.24+1240.97C1516.98+1214.64+1440.19+1181.79+1444.69+1136.08C1448.95+1092.93+1516.22+1076.11+1553.92+1084.55C1574.54+1089.17+1597.99+1104.74+1594.24+1126.27" stroke="#000000" stroke-width="1" fill="#ffffff" opacity="1" stroke-linejoin="round"/>
<path d="M1508.52+1049.76C1501+1063.08+1507.32+1095.49+1504.09+1110.95C1492.21+1167.81+1476.44+1223.95+1464+1280.74C1457.3+1311.34+1451.47+1342.2+1444.08+1372.63C1442.92+1377.4+1442.22+1398.17+1433.54+1390.6L1436.31+1390.13C1427.42+1395.1+1436.03+1362.66+1436.65+1358.73C1440.87+1331.76+1447.51+1305.16+1453.8+1278.58C1468.24+1217.61+1490.1+1156.68+1499.73+1094.84C1501.29+1084.79+1496.45+1051.13+1509.87+1046.61" stroke="#000000" stroke-width="1" fill="#ffffff" opacity="1" stroke-linejoin="round"/>
<path d="M1555.91+1039.68C1559.55+1040.99+1554.71+1053.9+1554.05+1056.73C1548.24+1081.52+1543.57+1106.58+1538.86+1131.58C1527.56+1191.55+1519.16+1251.31+1514.12+1312.08C1513.28+1322.22+1507.54+1373.14+1513.59+1382.05L1510.82+1383.28C1494.25+1374.82+1501.82+1323.97+1502.66+1311.14C1507.1+1242.7+1519.42+1176.2+1534.17+1109.21C1536.64+1098.01+1543.96+1040.88+1556.22+1034.43" stroke="#000000" stroke-width="1" fill="#ffffff" opacity="1" stroke-linejoin="round"/>
<path d="M1783.89+1393.7C1786.24+1370.89+1881.01+1369.91+1886.21+1399.68C1891.43+1429.63+1813.59+1462.98+1788.12+1473.64C1783.72+1475.49+1780.59+1457.88+1792.36+1464.77C1804.78+1472.05+1815.17+1491.99+1824.54+1502.41C1857.98+1539.59+1899.55+1563.83+1949.67+1576.96C1964.83+1580.94+1980.33+1583.18+1995.62+1586.43C2004.01+1588.22+2022.67+1584.15+2020.76+1591.92C2020.42+1593.3+2017.11+1594.87+2014.79+1593.16L2016.58+1590.27C2035.52+1595.86+2007.15+1597.98+2003.37+1597.66C1983.9+1596.01+1964.18+1593.85+1945.33+1588.81C1883.77+1572.37+1842.05+1539.13+1803.25+1493.29C1791.92+1479.91+1789.64+1475.46+1790.77+1467.66C1790.99+1466.07+1784.05+1468.88+1785.65+1468.3C1811.2+1459.01+1840.89+1442.1+1862.98+1426.82C1908.97+1395+1864.04+1383.47+1830.17+1383.85C1814.41+1384.03+1799.62+1389.12+1784.15+1389.47" stroke="#000000" stroke-width="1" fill="#ffffff" opacity="1" stroke-linejoin="round"/>
<path d="M1800.11+1381.53C1835.78+1374.85+1871.82+1369.91+1908.28+1368.66C1930.44+1367.9+1964.04+1371.19+1923.86+1373.61L1923.77+1373.15C1930.94+1371.79+1940.38+1366.31+1946.6+1372.83C1949.68+1376.06+1937.63+1375.02+1933.03+1375.23C1919.29+1375.85+1905.48+1376.11+1891.76+1376.94C1861.35+1378.78+1831.62+1382.73+1801.81+1388.3" stroke="#000000" stroke-width="1" fill="#ffffff" opacity="1" stroke-linejoin="round"/>
<path d="M1790.17+1437.46C1796.42+1425.61+1817.27+1426.1+1830.01+1424.2C1852.53+1420.85+1917.35+1408.94+1938.46+1416.79C1942.33+1418.23+1934.97+1422.48+1932.44+1422.3L1932.28+1421.25C1934.83+1420.58+1943.69+1422.8+1939.08+1425.17C1926.6+1431.58+1900.59+1427.78+1887.03+1428.28C1857.14+1429.38+1819.56+1442.18+1790.24+1436.3" stroke="#000000" stroke-width="1" fill="#ffffff" opacity="1" stroke-linejoin="round"/>
<path d="M2253.52+1062.39C2280.31+1050.01+2320.93+1133.8+2330.76+1154.95C2333.18+1160.16+2346.92+1187.14+2327.09+1178.51C2318.18+1174.63+2337.39+1142.93+2339.08+1140.2C2357.26+1110.76+2384.7+1087.65+2407.71+1061.62C2420.87+1046.73+2446.33+1023.19+2426.9+1053.15L2424.7+1052.66C2422.19+1046.22+2430.72+1034.18+2439.02+1037.85C2444.28+1040.18+2432.02+1046.41+2428.17+1050.41C2419.74+1059.15+2412.84+1068.73+2404.78+1077.76C2376.99+1108.89+2345.64+1134.02+2336.79+1174.64C2336.05+1178.02+2326.91+1175.57+2326.72+1179.02C2326.46+1183.85+2323.04+1169.93+2321.38+1165.33C2317.81+1155.41+2313.09+1145.88+2308.48+1136.34C2295.06+1108.59+2269.88+1084.92+2257.84+1057.98" stroke="#000000" stroke-width="1" fill="#ffffff" opacity="1" stroke-linejoin="round"/>
<path d="M2326.58+1167.77C2349.12+1181.05+2338.98+1240.77+2337.01+1263.02C2336.03+1274.05+2334.28+1285.08+2333.5+1296.12C2333.23+1299.94+2336.79+1309.3+2333.09+1307.59C2322.28+1302.6+2335.54+1302.73+2329.01+1297.87L2329.04+1297.8C2336.96+1299.16+2335.38+1309.36+2326.04+1307.87C2322.41+1307.29+2324.52+1277.52+2324.61+1276.26C2326.47+1250.96+2318.37+1186.56+2331.49+1167.58" stroke="#000000" stroke-width="1" fill="#ffffff" opacity="1" stroke-linejoin="round"/>
<path d="M2259.05+1192.03C2255.37+1178.39+2278.43+1174.79+2289.24+1171.92C2316.32+1164.73+2345.19+1162.27+2373.29+1161.09C2385.61+1160.57+2398.11+1159.87+2410.39+1161.17C2413.28+1161.48+2406.18+1167.41+2403.58+1166.18L2403.52+1166.01C2404.99+1164.94+2417.58+1160.97+2413.42+1166.82C2409.26+1172.65+2391.62+1171.36+2385.38+1171.71C2354.03+1173.49+2322.45+1173.8+2291.57+1179.65C2282.36+1181.39+2261.18+1181.5+2259.52+1191.03" stroke="#000000" stroke-width="1" fill="#ffffff" opacity="1" stroke-linejoin="round"/>
<path d="M2283.98+1218.77C2314.64+1207.47+2346.21+1204.77+2378.92+1201.94C2381.19+1201.74+2417.12+1197.1+2417.87+1200.61C2419.67+1208.97+2405.79+1207.3+2399.61+1209.42L2399.39+1208.98C2404.15+1205.58+2414.91+1199.69+2418.92+1207.07C2419.66+1208.43+2381.21+1212.63+2380.1+1212.73C2348.43+1215.57+2317.17+1217.72+2286.18+1224.39" stroke="#000000" stroke-width="1" fill="#ffffff" opacity="1" stroke-linejoin="round"/>
</g>
</svg>
