<?xml version="1.0" encoding="UTF-8" standalone="no"?> <!-- Created with Vectornator Pro for iOS (http://vectornator.io/) --><!DOCTYPE svg PUBLIC "-//W3C//DTD SVG 1.1//EN" "http://www.w3.org/Graphics/SVG/1.1/DTD/svg11.dtd">
<svg height="100%" style="fill-rule:evenodd;clip-rule:evenodd;stroke-linecap:round;stroke-linejoin:round;" xmlns:xlink="http://www.w3.org/1999/xlink" xmlns="http://www.w3.org/2000/svg" xml:space="preserve" width="100%" xmlns:vectornator="http://vectornator.io" version="1.1" viewBox="0 0 3840 2160">
<metadata>
<vectornator:setting key="RulersVisible" value="1"/>
<vectornator:setting key="GridSpacing" value="36"/>
<vectornator:setting key="Units" value="Pixels"/>
<vectornator:setting key="DynamicGuides" value="0"/>
<vectornator:setting key="SnapToPoints" value="0"/>
<vectornator:setting key="CMYKEnabledKey" value="0"/>
<vectornator:setting key="SnapToGrid" value="0"/>
<vectornator:setting key="ShowGrid" value="1"/>
<vectornator:setting key="SnapToEdges" value="0"/>
</metadata>
<defs/>
<g id="Layer 1" vectornator:layerName="Layer 1">
<path d="M1991+100.281C1962.31+101.4+1937.79+113.525+1916.78+134.531C1846.58+204.726+1900.52+280.186+1967+213.156L1966.97+213.125C1900.92+278.633+1848.85+204.812+1917.78+135.875C1941.41+112.245+1969.34+100.096+2003+102.75C2037.3+105.455+2063.62+121.847+2082.91+145.312C2058.03+137.383+2031.27+136.488+2004.69+135.312C2031.53+136.556+2058.48+137.618+2083.5+145.938C2116.63+186.767+2128.49+248.825+2122.97+298.875C2107.32+440.744+1979.06+560.729+1864.31+631.344C1805.33+667.639+1741.69+699.049+1690.94+747.312C1623.07+811.848+1570.16+930.091+1566+1024.69C1565.77+1029.93+1565.8+1035.08+1565.91+1040.22C1566.98+939.435+1625.24+811.982+1692.16+748.469C1742.88+700.33+1806.44+669.358+1865.44+633.344C1981.02+562.789+2110.29+442.144+2125.41+299.406C2130.62+250.173+2119.57+189.148+2088.25+147.688C2097.8+151.274+2107.07+155.97+2115.88+162.344C2160.07+194.341+2196.75+292.432+2217.47+378.094C2198.23+286.267+2162.84+195.116+2116.38+161.844C2107.26+155.315+2097.67+150.549+2087.75+146.969C2068+121.152+2040.33+103.022+2003.53+100.469C1999.26+100.172+1995.1+100.121+1991+100.281ZM1565.91+1040.22C1565.8+1050.02+1566.04+1059.66+1567.06+1068.88C1568.04+1077.64+1569.8+1086.8+1571.66+1096C1568.8+1077.49+1566.31+1059.14+1565.91+1040.22ZM1571.66+1096C1573.37+1107.08+1575.14+1118.22+1576.75+1129.62L1577.91+1129.34C1576.36+1118.62+1573.94+1107.27+1571.66+1096ZM2004.69+135.312C1998.81+135.04+1992.94+134.727+1987.09+134.344C1992.94+134.719+1998.8+135.052+2004.69+135.312ZM1987.09+134.344C1984.43+134.172+1981.75+134.064+1979.09+133.844L1979.06+133.906C1981.72+134.129+1984.43+134.169+1987.09+134.344ZM2611.47+184.125C2604.51+183.888+2597.4+184.504+2590.38+185.562C2636.01+179.417+2685.82+201.63+2657.34+253.5C2674.37+181.766+2549.65+182.61+2549.94+239.969L2550.28+240.062C2550.58+181.579+2678.19+182.121+2655.12+257.406C2652.06+262.444+2648.35+267.714+2643.78+273.281C2623.07+298.52+2598.94+323.303+2572.22+344.219C2586.09+334.15+2599.55+322.652+2612.31+308.938C2626.42+293.775+2642.56+279.114+2653.81+261.438C2651.99+266.434+2649.59+271.726+2646.41+277.344C2636.61+294.645+2622.72+311.763+2608.91+325.594C2572.95+361.588+2515.45+386.534+2456.19+409.156C2437.73+411.168+2415.5+421.347+2397.81+431.125C2366.96+442.744+2337.37+454.478+2312.06+467.594C2325+457.782+2338.74+449.19+2353.62+441.344C2335.87+450.208+2318.57+460.481+2302.06+473.219C2276.93+487.331+2256.57+503.057+2244.84+522C2239.26+531.015+2235.69+539.252+2232.62+548C2232.64+547.759+2232.67+547.555+2232.69+547.312C2232.65+547.582+2232.6+547.855+2232.56+548.125C2229.89+555.765+2227.58+563.775+2224.72+573.219L2225.19+573.219C2227.75+564.819+2229.88+557.692+2232.19+550.875C2231.7+554.568+2231.18+558.268+2230.62+562C2229.96+563.08+2229.32+564.059+2228.66+565.156L2229.34+565.156C2229.72+564.52+2230.09+563.916+2230.47+563.281C2230.31+564.311+2230.19+565.31+2230.03+566.344L2230.62+566.656C2230.84+565.286+2230.91+563.636+2231.09+562.219C2234.33+556.792+2237.5+551.446+2240.69+546.156C2237.54+550.913+2234.37+555.924+2231.22+561.062C2231.66+557.608+2232.06+554.06+2232.38+550.344C2235.61+540.842+2239.28+532.055+2245.41+522.344C2256.35+504.995+2274.56+490.389+2297+477.219C2294.52+479.227+2292.07+481.249+2289.62+483.375C2268.79+501.521+2254.57+523.107+2240.69+546.156C2261.78+514.292+2282.95+490.73+2306.59+471.812C2331.41+458.404+2360.57+446.429+2391.47+434.719C2389.63+435.791+2387.42+436.955+2385.75+437.969C2371.29+446.74+2353.28+449.806+2338.62+459.562C2293.67+489.485+2236.25+534.313+2228.72+590.75C2226.99+592.445+2224.95+594.255+2223.31+595.906L2223.91+596.219C2225.4+594.738+2227+593.26+2228.53+591.781C2228.52+591.865+2228.51+591.948+2228.5+592.031L2229.47+592.031C2229.53+591.568+2229.62+591.117+2229.69+590.656C2271.19+550.929+2326.22+512.915+2382.78+504.312C2380.22+505.105+2377.66+505.884+2375.19+506.844C2297.77+536.937+2242.23+611.47+2221.56+690C2202.89+760.972+2225.44+804.199+2252.88+847.344C2226.46+799.672+2207.13+750.503+2223+690.219C2243.55+612.116+2298.71+537.9+2375.72+507.938C2380.98+505.889+2386.53+504.369+2392.19+503.094C2411.98+501.263+2431.86+503.139+2451.34+510.094C2466.22+515.404+2497.22+513.537+2503.41+531.25C2507.19+542.093+2521.66+561.769+2524.31+579.25C2523.6+563.878+2516.22+547.447+2505.44+529.219C2505.2+528.824+2504.9+528.504+2504.66+528.125C2517.65+538.904+2527.93+552.586+2533.56+569.375C2543.69+599.582+2500.01+650.883+2466.81+638.594C2441.54+629.24+2444.8+591.184+2449.72+570.625C2450.57+567.072+2450.19+566.155+2449.38+566.5C2449.69+566.704+2449.65+567.838+2448.97+570.469C2443.43+591.719+2440.57+630.154+2466.81+639.531C2500.56+651.59+2544.54+599.593+2534.41+569C2528.21+550.302+2516.4+535.314+2501.47+524C2497.52+519.714+2492.45+516.839+2486.84+514.656C2462.69+501.605+2433.46+496.446+2406.19+499.469C2343.88+495.377+2272.82+547.944+2229.88+589.656C2242.67+506.393+2351.9+452.305+2422.81+423.75C2426.44+422.288+2430.29+420.473+2434.06+418.719C2440.85+416.192+2447.6+413.639+2454.38+411.062C2457.16+410.435+2459.97+409.971+2462.78+409.938L2462.78+408.656C2461.99+408.649+2461.1+408.812+2460.28+408.844C2518.19+386.611+2574.07+361.862+2609.56+326.406C2623.48+312.503+2637.48+295.357+2647.31+277.938C2651.41+270.671+2654.17+263.986+2656.06+257.75C2684.85+208.434+2651.23+185.479+2611.47+184.125ZM2449.38+566.5C2449.35+566.483+2449.31+566.535+2449.28+566.531C2449.32+566.513+2449.34+566.514+2449.38+566.5ZM2449.28+566.531C2449.15+566.6+2449.05+566.591+2448.91+566.719C2449.04+566.621+2449.19+566.519+2449.28+566.531ZM2448.91+566.719C2448.63+566.922+2448.3+567.275+2447.91+567.844C2448.26+567.376+2448.6+566.983+2448.91+566.719ZM2524.31+579.25C2524.56+584.565+2524.01+589.754+2522.5+594.844C2524.76+590.091+2525.15+584.798+2524.31+579.25ZM2522.5+594.844C2522.31+595.246+2522.19+595.669+2521.97+596.062C2510.11+617.34+2481.39+650.159+2456.88+619.438C2452.49+613.94+2449.96+606.37+2449.09+598.531C2450.04+611.015+2454.79+623.337+2464.94+630.688C2470.95+635.044+2487.02+634.64+2492.62+630.781C2509.6+619.096+2518.83+607.259+2522.5+594.844ZM2449.09+598.531C2448.48+590.488+2449.42+582.39+2451.66+575.5C2449.11+582.233+2448.2+590.492+2449.09+598.531ZM2451.66+575.5C2451.84+575.015+2451.99+574.498+2452.19+574.031C2452.01+574.522+2451.82+574.996+2451.66+575.5ZM2252.88+847.344C2266.64+872.185+2282.29+896.629+2295.94+922.031C2283.95+894.256+2267.76+870.755+2252.88+847.344ZM2295.94+922.031C2299.2+929.586+2302.25+937.363+2304.75+945.656C2324.41+1010.86+2310.91+1081.07+2293.34+1141.56L2293.62+1141.56C2314.05+1087.48+2330.28+990.107+2302.38+934.344C2300.31+930.208+2298.13+926.112+2295.94+922.031ZM2232.69+547.312C2235.29+526.464+2236.62+506.041+2235.34+484.562C2233.76+457.956+2227.48+419.605+2217.53+378.406C2230.47+440.312+2235.99+502.379+2232.69+547.312ZM2353.62+441.344C2392.71+421.826+2434.07+409.302+2474.66+394.031C2465.68+396.598+2456.69+399.136+2447.88+402.25C2411.14+415.224+2380.52+427.163+2353.62+441.344ZM2474.66+394.031C2487.88+390.249+2501.1+386.418+2513.69+380.656C2534.31+371.221+2553.84+358.602+2572.22+344.219C2541.42+366.57+2508.34+381.355+2474.66+394.031ZM2590.38+185.562C2589.41+185.693+2588.46+185.813+2587.5+185.969C2588.45+185.801+2589.42+185.707+2590.38+185.562ZM2587.5+185.969C2584.97+186.415+2582.51+186.982+2580.03+187.594C2582.51+187.008+2584.97+186.378+2587.5+185.969ZM2580.03+187.594C2572.75+189.313+2565.75+191.643+2559.41+194.875C2565.71+191.701+2572.76+189.389+2580.03+187.594ZM2559.41+194.875C2557.61+195.788+2555.87+196.748+2554.19+197.781C2555.87+196.765+2557.61+195.782+2559.41+194.875ZM2553.31+198.344C2552.07+199.136+2550.83+199.952+2549.66+200.812C2550.84+199.961+2552.05+199.133+2553.31+198.344ZM2549.66+200.812C2548.62+201.558+2547.63+202.332+2546.66+203.125C2547.63+202.319+2548.63+201.567+2549.66+200.812ZM2546.66+203.125C2546.19+203.509+2545.73+203.885+2545.28+204.281C2545.73+203.892+2546.19+203.503+2546.66+203.125ZM2545.28+204.281C2540.5+208.434+2536.58+213.156+2533.97+218.5L2534+218.531C2536.75+213.144+2540.63+208.398+2545.28+204.281ZM2420.97+499.781C2440.81+499.721+2461.05+503.87+2479.03+512.062C2462.58+507.882+2443.03+508.043+2428.5+503.406C2423.57+501.835+2418.53+500.84+2413.44+500.125C2415.94+499.982+2418.44+499.789+2420.97+499.781ZM2468.28+557.094C2461.37+557.828+2455.76+564.464+2452.38+573.562C2458.25+560.407+2471.06+554.769+2489.66+573.219C2485.27+568.795+2483.7+563.228+2477.56+559.5C2474.29+557.513+2471.18+556.786+2468.28+557.094ZM2447.38+568.719C2445.69+571.216+2443.88+575+2443.94+577.25L2444+577.25C2444.05+575.312+2445.84+571.281+2447.38+568.719Z" opacity="1" fill="#ff0000"/>
</g>
<g id="Outside" vectornator:layerName="Outside">
<path d="M1575.3+1124.75C1576.85+1124.15+1579.56+1126.81+1580.26+1125.3C1581.26+1123.17+1576.44+1099.32+1575.85+1095.5C1571.47+1067.01+1571.42+1033.8+1573.64+1004.98C1576.31+970.33+1586.75+935.551+1600.13+903.42C1615.82+865.775+1630.19+827.313+1656.43+795.239C1683.03+762.735+1710.87+730.128+1744.74+704.72C1754.95+697.063+1766.06+691.654+1776.76+684.85C1797.16+671.864+1816.9+657.768+1837.47+645.11C1844.51+640.781+1850.2+634.923+1857.34+630.76C1919.34+594.593+1967.86+564.521+2021.82+515.955C2036.81+502.467+2047.58+485.248+2058.25+468.488C2076.08+440.467+2094.21+413.129+2109.03+383.489C2118.95+363.641+2128.72+320.09+2132.21+297.386C2135.18+278.062+2127.93+260.395+2123.38+242.191C2115.74+211.635+2105.76+180.844+2086.95+154.984C2081.38+147.331+2076+137.489+2068.18+131.802C2056.62+123.39+2026.73+108.662+2012.99+107.517C2001.56+106.565+1989.98+104.801+1978.77+101.997C1976.51+101.433+1971.41+101.997+1972.14+99.7895C1972.97+97.3212+1977.3+99.0813+1979.87+98.6856C1992.06+96.8112+2002.32+99.7379+2014.09+103.101C2055.5+114.931+2093.68+138.663+2122.27+170.438C2131.71+180.928+2139.33+193.065+2148.77+203.555C2155.12+210.614+2163.56+217.656+2168.64+225.633C2189.76+258.824+2207.81+296.081+2219.42+333.814C2228.26+362.567+2229.07+394.463+2231.56+424.333C2234.2+455.986+2236.65+487.63+2239.29+519.267C2240.27+531.109+2237.86+541.047+2235.97+552.384C2235.24+556.799+2233.77+565.63+2233.77+565.63C2233.77+565.63+2237.89+555.919+2240.39+551.28C2246.42+540.073+2251.66+527.717+2260.26+518.163C2282.23+493.747+2311.42+465.135+2339.18+448.053C2386.02+419.226+2466.2+415.162+2517.22+395.541C2555.42+380.848+2578.82+354.748+2606.88+323.879C2626.36+302.455+2646.35+276.342+2648.83+246.607C2650.49+226.721+2643.26+208.33+2621.23+204.659C2609.28+202.667+2597.83+212.118+2589.22+219.009C2587.38+220.481+2585.45+221.849+2583.7+223.425C2581.76+225.166+2580.65+229.767+2578.18+228.944C2574.52+227.724+2589.16+212.332+2590.32+211.282C2601.39+201.324+2626.68+194.088+2637.79+207.971C2669.93+248.146+2640.25+291.854+2628.58+308.045C2616.91+324.236+2582.08+380.038+2542.47+398.521C2534.24+402.362+2443.68+426.194+2428.68+434.275C2395.22+452.292+2391.22+449.891+2362.03+474.22C2332.63+498.716+2265.28+533.338+2242.6+564.526C2236.45+572.981+2229.88+581.831+2224.94+591.02C2223.76+593.193+2219.23+597.044+2221.62+597.643C2223.87+598.206+2233.35+588.119+2234.87+586.604C2244.09+577.389+2252.38+570.138+2263.57+563.423C2308.73+536.328+2353.05+506.434+2405.97+498.293C2435.52+493.748+2524.88+507.044+2537.29+577.343C2544.66+619.121+2488.59+643.475+2481.17+643.287C2430.52+642.001+2431.44+588.715+2448.82+565.465C2459.12+551.677+2483.63+562.598+2483.63+562.598C2483.63+562.598+2443.08+551.13+2446.36+583.078C2449.64+615.025+2443.9+617.483+2475.44+628.132C2486.07+631.721+2514.05+611.149+2521.31+593.727C2531.06+570.327+2505.55+553.763+2489.37+534.337C2465.1+505.221+2425.5+503.126+2392.29+509.352C2356.94+515.981+2309.95+549.351+2286.62+577.343C2269.56+597.821+2251.46+613.699+2245.91+639.591C2243.64+650.202+2243.92+661.002+2242.6+671.604C2240.98+684.518+2236.85+697.104+2235.97+710.24C2234.17+737.302+2235.4+766.402+2240.39+793.031C2243.36+808.9+2250.77+824.161+2255.84+839.395C2261.04+854.988+2265.41+870.435+2271.3+885.758C2278.41+904.251+2279.6+925.062+2283.44+944.264C2285.53+954.702+2288.33+964.772+2290.06+975.173C2291.25+982.292+2295.88+988.334+2297.79+995.043C2300.24+1003.62+2298.85+1012.9+2300+1021.54C2305.22+1060.71+2309.6+1102.79+2291.17+1139.65C2269.67+1182.65+2227.42+1213.81+2184.09+1232.38C2175.86+1235.91+2168.19+1241.38+2159.81+1244.52C2142.69+1250.94+2159.27+1242.94+2142.14+1247.83C2134.32+1250.07+2126.51+1255.64+2118.96+1258.87C2105.6+1264.6+2091.44+1268.41+2078.12+1274.33C2036.83+1292.68+2008.43+1310.07+1961.11+1307.44C1952.02+1306.94+1942.92+1305.8+1934.61+1301.92C1921.1+1295.62+1911.8+1283.94+1897.08+1279.85C1886.63+1276.94+1875.59+1275.85+1865.07+1273.22C1854.97+1270.7+1844.6+1266.54+1834.16+1265.5C1815.24+1263.6+1800.47+1263.03+1782.28+1256.66C1766.72+1251.22+1749.74+1249.21+1734.81+1242.31C1727.45+1238.92+1722.42+1233.29+1714.94+1230.17C1707.17+1226.93+1700.24+1225.76+1692.86+1221.34C1683.74+1215.87+1675.77+1208.66+1666.37+1203.68C1648.7+1194.32+1631.63+1192.23+1616.69+1178.29C1610.97+1172.95+1605.37+1167.41+1599.03+1162.83C1592.59+1158.19+1582.17+1154.02+1576.95+1147.38C1570.23+1138.83+1563.19+1129.41+1575.3+1124.75Z" opacity="1" fill="#ff0000"/>
</g>
<g id="Inside" vectornator:layerName="Inside">
<path d="M1734.05+1173.14C1730.2+1170.06+1724.66+1167.43+1721.18+1164.29C1714.92+1158.66+1712.63+1147.82+1710.72+1140.16C1701.62+1103.76+1712.3+1059.14+1735.66+1029.94C1749.19+1013.03+1762.73+1000.99+1779.91+988.102C1794.03+977.506+1806.55+964.774+1820.94+954.313C1831.92+946.323+1844.66+939.239+1854.73+930.177C1866.31+919.748+1878.33+908.992+1889.32+897.997C1896.54+890.778+1902.26+882.001+1910.24+875.47C1927.87+861.047+1943.86+843.975+1958.51+826.395C1979.56+801.128+1995.67+771.904+2013.22+744.335C2016.2+739.653+2020.05+735.499+2022.87+730.658C2047.09+689.142+2070.75+646.876+2088.04+601.935C2092.3+590.858+2097.69+576.728+2097.69+564.928C2097.69+561.31+2097.69+555.274+2097.69+555.274C2096.02+554.857+2095.18+557.733+2094.47+559.296C2092.73+563.131+2091.9+569.566+2091.25+573.777C2087.95+595.247+2087.23+618.011+2087.23+639.748C2087.23+666.236+2080.56+691.602+2078.38+717.786C2076.16+744.451+2075.7+770.488+2068.73+796.628C2063.27+817.09+2048.16+836.782+2034.94+852.944C2031.26+857.434+2028.81+861.213+2023.67+864.207C2022.12+865.114+2020.12+867.893+2018.85+866.621C2017.63+865.407+2021.59+864.551+2022.87+863.403C2027.07+859.621+2030.94+855.333+2034.94+851.335C2043.88+842.39+2053.46+832.576+2059.88+821.568C2070.55+803.272+2083.08+785.569+2094.47+767.665C2103.2+753.954+2107.77+737.391+2111.37+721.808C2113.74+711.542+2119.28+702.239+2121.83+692.041C2126.59+672.964+2134.9+652.158+2136.31+632.507C2139.11+593.312+2142.5+545.205+2154.01+507.807C2159.31+490.553+2181.17+467.243+2200.67+479.649C2211.59+486.597+2218.87+503.977+2216.76+516.657C2215.63+523.406+2213.26+530.981+2205.49+530.334C2203.87+530.198+2201.9+530.603+2200.67+529.529C2200.58+529.456+2197.37+520.315+2198.25+519.875C2213.24+512.384+2191.38+534.516+2207.1+522.289C2214.6+516.46+2211.2+498.522+2203.89+494.131C2198.01+490.603+2189.72+494.778+2184.58+497.349C2173.52+502.88+2161.99+517.581+2156.42+528.725C2151.41+538.744+2152.39+548.888+2149.98+559.296C2143.8+586.071+2140.99+612.591+2137.11+639.748C2134.43+658.503+2124.79+676.144+2120.22+694.455C2117.39+705.752+2117.26+717.661+2114.58+729.049C2110.01+748.471+2103.79+767.52+2099.3+786.974C2087.08+839.933+2077.26+895.324+2049.42+943.05C2038.94+961.014+2031.33+979.645+2016.43+994.539C2011.43+999.545+2008.14+1005.08+2001.95+1009.02C2000.44+1009.99+1997.13+1013.23+1997.13+1011.43C1997.13+1009.5+2000.52+1009.51+2001.95+1008.22C2005.7+1004.85+2009.25+1000.1+2012.41+996.148C2027.52+977.261+2043.61+960.879+2063.1+946.268C2087.66+927.841+2117.67+895.286+2130.68+867.425C2137.28+853.275+2141.75+837.717+2147.57+823.177C2159.57+793.185+2171.71+761.875+2171.71+729.049C2171.71+720.735+2171.71+712.422+2171.71+704.109C2171.71+703.96+2172.88+693.357+2168.49+694.455C2166.93+694.845+2168.61+697.677+2168.49+699.282C2167.46+712.7+2167.68+697.762+2167.68+709.74C2167.68+725.635+2166.37+741.424+2167.68+757.207C2169.23+775.823+2165.34+794.273+2166.88+812.718C2168.28+829.532+2173.76+846.788+2176.53+863.403C2181.87+895.414+2178.95+932.563+2171.71+963.967C2160.67+1011.77+2122.17+1045.85+2079.99+1066.94C2069.07+1072.41+2054.98+1074.8+2042.98+1075.79C2038.17+1076.2+2033.32+1076.2+2028.5+1076.6C2026.88+1076.73+2023.67+1075.77+2023.67+1077.4C2023.67+1079.01+2026.9+1077.53+2028.5+1077.4C2034.35+1076.95+2040.39+1075.82+2046.2+1074.99C2068.97+1071.74+2093.66+1061.1+2112.17+1047.64C2122.85+1039.87+2133.39+1031.25+2142.74+1021.89C2149.53+1015.1+2153.1+1005.4+2158.83+997.757C2165.03+989.491+2170.91+980.845+2174.92+971.208C2181.59+955.204+2181.81+936.601+2194.23+922.937C2203.88+912.329+2216.15+904.4+2230.43+902.019C2237.17+900.896+2246.38+899.708+2252.16+904.433C2264.56+914.579+2263.87+935.953+2253.77+947.072C2250.29+950.893+2245.95+956.41+2240.09+955.922C2236.87+955.654+2230.56+951.769+2232.85+949.486C2234.06+948.272+2235.19+953.076+2236.87+952.704C2240.43+951.913+2241.56+947.056+2243.31+943.854C2247.07+936.954+2249.9+915.792+2241.7+910.869C2238.9+909.19+2235.26+909.796+2232.04+909.26C2230.43+908.992+2228.76+907.94+2227.22+908.456C2218.61+911.324+2205.88+930.67+2201.47+938.223C2193.19+952.419+2186.71+966.256+2182.97+982.471C2180.68+992.382+2182.9+1003.03+2181.36+1013.04C2179.91+1022.46+2173.27+1038.64+2168.49+1046.83C2161.29+1059.18+2155.07+1071.78+2144.35+1081.43C2138.64+1086.56+2142.24+1084.35+2136.31+1088.67C2134.74+1089.8+2131.48+1089.95+2131.48+1091.88C2131.48+1093.49+2134.78+1092.39+2136.31+1091.88C2144.76+1089.07+2151.53+1081.14+2159.64+1077.4C2179.26+1068.34+2194.51+1056.13+2203.08+1035.57C2204.52+1032.11+2205.41+1027.87+2206.3+1024.31C2206.5+1023.48+2209.16+1011.82+2210.32+1011.43C2211.32+1011.1+2214.21+1020.85+2214.34+1021.09C2217.12+1026.17+2218.62+1028.4+2217.56+1034.76C2217+1038.11+2212.23+1041.77+2214.34+1044.42C2215.36+1045.69+2217.69+1044.29+2219.17+1043.61C2238.63+1034.77+2251.4+1016.92+2257.79+997.757C2259.72+991.948+2267.63+983.766+2274.68+985.689C2280.1+987.167+2279.81+996.162+2275.49+998.561C2274.06+999.353+2272.18+997.151+2270.66+997.757C2264.19+1000.34+2260.34+1019.79+2257.79+1025.91C2256.4+1029.24+2252.26+1032.04+2252.96+1035.57C2254.7+1044.26+2258.67+1034.84+2261.81+1037.98C2264.71+1040.89+2256.85+1046.68+2256.98+1047.64C2257.21+1049.25+2261.54+1046.83+2261.81+1048.44C2261.81+1048.45+2251.22+1059.58+2250.55+1060.51C2249.49+1061.96+2247.14+1063.84+2248.13+1065.34C2249.52+1067.41+2263.2+1062.34+2264.22+1061.31C2265.38+1060.16+2260.93+1061.57+2259.4+1062.12C2257.14+1062.92+2255.04+1064.15+2252.96+1065.34C2243.79+1070.58+2235.31+1077.9+2227.22+1084.64C2225.32+1086.23+2220.67+1087.18+2221.59+1089.47C2222.49+1091.73+2226.54+1089.48+2228.83+1088.67C2232.76+1087.26+2241.06+1079.64+2244.11+1077.4C2245.8+1076.16+2246.95+1072.72+2248.94+1073.38C2250.65+1073.95+2247.58+1076.75+2246.53+1078.21C2243.84+1081.91+2225.23+1095.17+2242.5+1091.88C2259.25+1088.7+2273.59+1077.63+2290.77+1074.99C2295.01+1074.34+2304.78+1070.77+2302.84+1079.82C2302.36+1082.07+2300.33+1083.71+2298.82+1085.45C2291.83+1093.51+2281.32+1102.44+2272.27+1107.98C2270.22+1109.23+2267.53+1112.89+2265.83+1111.19C2264.2+1109.56+2269.57+1108.48+2271.47+1107.17C2273.05+1106.07+2274.92+1102.59+2276.29+1103.95C2277.63+1105.29+2273.73+1106.76+2272.27+1107.98C2270.44+1109.5+2258.39+1116.63+2260.2+1120.85C2261.3+1123.4+2272.24+1120.47+2274.68+1123.26C2280.66+1130.09+2264.96+1132.69+2265.83+1135.33C2266.94+1138.64+2273.02+1128.84+2275.49+1131.31C2278.17+1133.99+2266.91+1135.6+2267.44+1139.35C2267.68+1141.03+2272.27+1139.26+2272.27+1140.96C2272.27+1143.54+2263.81+1144.95+2262.62+1145.79C2258.84+1148.43+2255.45+1153.76+2252.16+1157.05C2244.21+1165+2231.01+1171.17+2220.78+1175.55C2209.35+1180.46+2196.91+1185.39+2186.19+1191.64C2181.39+1194.44+2177.25+1198.53+2172.51+1201.3C2165.61+1205.33+2157.12+1205.77+2149.98+1209.34C2133.9+1217.39+2117.79+1225.44+2101.71+1233.48C2082.6+1243.03+2063.58+1256.11+2042.98+1262.44C2034.25+1265.13+2024.11+1266.42+2015.63+1269.68C2002.92+1274.57+1990.83+1282.57+1977.82+1286.58C1971.19+1288.62+1964.46+1287.7+1957.7+1288.19C1954.19+1288.44+1950.76+1290.09+1947.25+1289.8C1943.87+1289.51+1940.95+1287.06+1937.59+1286.58C1927.61+1285.15+1920.54+1285.71+1910.24+1281.75C1886.62+1272.67+1919.4+1283.86+1900.58+1275.31C1892.71+1271.73+1882.24+1271.81+1874.03+1268.88C1864.16+1265.35+1870.97+1266.54+1862.77+1262.44C1850.86+1256.49+1836.39+1256.08+1824.16+1250.37C1812.42+1244.9+1803.54+1233.4+1793.58+1225.43C1784.27+1217.98+1772.72+1213.11+1763.82+1205.32C1748.49+1191.91+1737.65+1160.78+1734.05+1140.96" opacity="1" fill="#f99500"/>
</g>
<g id="Title" vectornator:layerName="Title">
<path d="M2180.03+465.656C2164.8+467.604+2151.72+496.051+2147.81+505.625C2115.5+584.826+2138.55+660.338+2099.28+745.344C2090.52+764.307+2081.73+788.572+2068.38+802.438C2068.08+802.74+2063.9+807.741+2063.75+807.625C2061.75+806.092+2076.7+745.651+2078.41+737.375C2088.62+687.724+2096.52+638.726+2093.75+588.031C2099.53+569.38+2102.46+550.44+2100.72+531.812C2100.17+525.97+2090.61+518.944+2085.09+523.562C2084.27+524.253+2084.2+525.265+2084.75+526.531C2084.89+526+2085.15+525.374+2085.66+524.688C2089.21+519.852+2098.52+527.526+2098.97+531.688C2100.83+549.14+2098.51+566.693+2093.59+583.969C2093.58+583.801+2093.57+583.636+2093.56+583.469C2092.41+566.388+2093.28+548.82+2091.25+531.969C2091.16+531.194+2089.13+530.757+2087.34+530C2088.01+530.687+2088.66+531.37+2089.56+532.156C2089.76+532.332+2090.19+531.908+2090.34+532.125C2093.25+536.18+2092.01+577.883+2092.41+583.531C2092.5+584.842+2092.48+586.131+2092.56+587.438C2079.18+631.165+2049.19+672.905+2025.25+706.25C1972.96+779.095+1915.06+847.765+1852.16+911.594C1842.8+906.801+1833.66+902.199+1825+898.906L1823.53+900.469C1821.87+899.708+1815.96+895.448+1814.59+896.5C1814.06+896.341+1813.59+896.223+1813.31+896.25C1813.05+896.275+1812.91+896.379+1812.91+896.594C1812.91+897.3+1813.88+898.283+1815.34+899.375C1815.23+900.075+1815.1+900.76+1814.94+901.469C1815.17+900.895+1815.56+899.926+1815.69+899.594C1817.32+900.768+1819.97+902.164+1822.78+903.625C1821.51+904.498+1821.51+904.56+1819.41+906.344C1820.02+906.011+1820.33+905.916+1820.94+905.625C1821.59+904.921+1822.31+904.37+1823+903.75C1823.27+903.888+1823.63+904.047+1823.91+904.188C1822.99+904.606+1822.13+905.058+1820.94+905.625C1818.8+907.919+1816.75+910.437+1814.62+912.625C1814.24+911.119+1816.67+908.661+1819.31+906.406C1816.66+907.857+1814.2+909.706+1813.84+912.031C1813.77+912.516+1814+912.766+1814.28+913C1812.82+914.46+1811.31+915.758+1809.62+916.531C1809.35+916.658+1813.2+908.998+1814.94+901.469C1813.01+906.287+1808.74+916.8+1809.06+916.844C1811.97+917.234+1814.22+915.673+1816.19+913.625C1815.84+913.635+1815.49+913.664+1815.16+913.438C1815.11+913.405+1815.1+913.348+1815.06+913.312C1815.45+913.386+1815.82+913.484+1816.34+913.438C1817.94+911.731+1819.38+909.75+1820.78+908.219C1821.6+907.325+1823.38+905.764+1824.75+904.562C1831.43+907.909+1840.12+911.691+1848.59+915.188C1843.96+919.859+1839.34+924.538+1834.66+929.156C1830.7+928.551+1826.72+928.008+1821.97+927.25L1821.66+930C1824.97+930.751+1828.28+931.512+1831.59+932.25C1827.62+936.15+1823.55+939.951+1819.53+943.812C1819.01+944.252+1818.46+944.703+1817.94+945.125C1817.54+945.444+1814.24+948.353+1812.66+950.375C1808.29+954.529+1803.98+958.736+1799.56+962.844C1787.47+974.095+1774.38+984.479+1761.72+995.281C1756.6+993.153+1751.49+991.026+1746.38+988.906L1745.81+990.5C1750.48+992.553+1755.2+994.704+1759.91+996.844C1750.02+1005.36+1740.41+1014.15+1732+1024.06C1699.32+1062.6+1684.12+1123.6+1720.53+1163.72L1721.06+1163.28C1685.86+1122.85+1699.79+1063.01+1732.44+1024.34C1740.89+1014.33+1750.6+1005.6+1760.59+997.156C1770.8+1001.79+1781.07+1006.31+1791.59+1009.47L1791.84+1008.69C1782.18+1003.92+1772.31+999.691+1762.41+995.562C1775.07+984.962+1788.19+974.86+1800.34+963.781C1804.87+959.653+1809.27+955.372+1813.75+951.188C1815.48+949.894+1818.39+947.358+1819.09+946.812C1823.84+943.156+1830.17+939.949+1832.97+934.5C1831.91+934.885+1830.93+935.452+1829.94+936C1831.09+934.887+1832.25+933.773+1833.41+932.656C1833.51+932.679+1833.62+932.696+1833.72+932.719C1833.51+933.341+1833.26+933.93+1832.97+934.5C1833.45+934.323+1833.9+934.039+1834.41+933.906L1834.03+932.781C1838.01+933.657+1842+934.509+1845.97+935.469C1839.56+940.085+1834.23+946.545+1828.72+952.281C1826.9+954.174+1821.82+957.389+1824.03+958.719C1826.39+960.141+1835.08+951.679+1837.81+950.344C1839.73+949.404+1846.14+948.866+1844.06+949.281C1839.36+950.223+1834.53+961.372+1842.69+961.5L1842.72+961.375C1834.07+959.117+1848.02+950.366+1844.25+947.625C1841.46+945.594+1835.78+949.236+1831.41+952.781C1831.78+952.469+1831.24+953.142+1833.94+950.156C1836.48+947.343+1839.04+944.624+1841.66+941.906C1843.65+939.843+1845.34+937.812+1846.97+935.656C1849.99+936.314+1863.57+937.892+1858.97+938.031C1865.35+939.92+1852.62+933.215+1851.25+932.781C1846.13+931.164+1841.46+930.218+1836.62+929.438C1841.23+924.956+1845.77+920.414+1850.31+915.875C1858.34+919.159+1866.19+922.23+1871.59+924.25C1882.71+928.404+1894.01+931.96+1905.34+935.406C1983.67+965.031+2070.69+989.714+2150.47+1007.03C2159.48+1008.99+2168.59+1011.09+2177.69+1013.19C2174.04+1031.88+2167.21+1051.38+2155.69+1072.38C2080.97+1106.11+2013.15+1145.54+1960.97+1218.38L1961.75+1218.38C2014.85+1146.67+2081.11+1108.21+2154.72+1074.06C2153.59+1076.08+2152.53+1078.08+2151.31+1080.12C2149.57+1081.15+2147.8+1082.12+2146.06+1083.19C2094.07+1115.18+2047.21+1155.34+2001.06+1196.22C1990.41+1200.17+1979.93+1204.38+1970.84+1211.69C1965.86+1215.69+1950.28+1231.54+1951.5+1229.84C1953.97+1227.98+1957.95+1224.92+1959.28+1223.94C1967.63+1217.8+1974.17+1209.22+1983.66+1204.5C1989.25+1201.72+1994.88+1199.23+2000.5+1196.72C1989.38+1206.57+1978.28+1216.46+1967.19+1226.28L1968.28+1227.56C1981.29+1216.44+1994.2+1205.16+2007.12+1193.91C2010.83+1192.54+2014.5+1191.21+2018.16+1189.66C2027.1+1185.84+2036.04+1181.37+2044.91+1176.62C2035.96+1183.02+2027+1189.42+2018.16+1195.94C1994.47+1213.38+1971.62+1235.17+1945.25+1247.72L1945.53+1248.97C1972.34+1237.07+1995.58+1215.32+2019.5+1198C2068.14+1162.78+2117.58+1127.72+2169.91+1099C2175.92+1095.7+2207.65+1077.72+2228+1070.5C2207.53+1077.49+2175.53+1094.82+2169.41+1098.03C2146.47+1110.05+2124.14+1123.4+2102.22+1137.5C2106.26+1134.01+2110.19+1130.42+2114+1126.72C2110.13+1130.44+2106.07+1134.11+2101.88+1137.72C2082.79+1150.01+2064.08+1162.93+2045.56+1176.16C2033.11+1182.47+2020.37+1187.89+2007.59+1193.47C2052.28+1154.56+2097.18+1115.95+2147+1084.72C2147.86+1084.18+2148.73+1083.71+2149.59+1083.19C2149.57+1083.22+2149.55+1083.25+2149.53+1083.28C2147.71+1086.25+2145.8+1089.17+2143.81+1092.06C2145.94+1089.06+2148.02+1086.04+2149.97+1082.97C2183.67+1062.39+2220.09+1049.16+2254.28+1030.06L2254.25+1029.97C2220.35+1047.41+2185.02+1060.38+2151.91+1079.78C2153.16+1077.72+2154.51+1075.71+2155.69+1073.62C2172.29+1065.94+2189.14+1058.36+2206.44+1050.78L2206.31+1050.34C2189.44+1057.43+2172.92+1064.6+2156.62+1071.94C2166.67+1053.72+2173.77+1034.21+2178.09+1013.28C2194.36+1017.04+2210.62+1021.01+2226.47+1025.69C2233.81+1027.85+2251.54+1034.1+2254.47+1023.72L2252.47+1022.62C2250.3+1028.78+2232.76+1022.23+2227.81+1020.66C2212.62+1015.82+2195.83+1010.62+2179.34+1006.56C2184.07+979.656+2184.4+950.406+2180.28+918.312C2175.15+878.246+2173.37+840.881+2174.94+800.469C2175.12+795.748+2175.58+789.159+2176.25+782.125C2179.71+775.591+2182.87+768.867+2185.41+761.719C2185.48+761.497+2185.86+760.002+2186.25+758.125C2184.17+765.068+2180.4+772.85+2176.47+780.25C2178+764.785+2180.5+747.759+2183.62+743.75C2183.6+743.764+2183.59+743.735+2183.56+743.75C2179.44+746.265+2176.84+763.824+2175.16+782.688C2170.91+790.447+2166.77+797.404+2164.88+800.125C2137.94+838.796+2108.19+875.92+2072.78+907.188C2070.7+909.023+2065.3+912.836+2058.75+917.406C2068.21+897.977+2075.05+876.235+2078.91+865.25C2111.79+771.522+2122.23+673.153+2150.28+578.25C2153.88+566.065+2175.32+478.05+2201+475.906C2206.6+480.746+2211.71+486.982+2215.38+493.469C2215.51+494.574+2215.75+495.952+2215.88+496.844C2217.58+508.581+2211.87+515.565+2206.69+517.875C2209.14+517.335+2211.43+516.661+2212.62+516.062C2217.35+513.692+2218.78+506.821+2218.34+499.531C2219.03+501.218+2219.57+502.879+2220+504.531C2220.16+501.571+2220.15+498.918+2219.88+497.312C2219.34+494.154+2218+491.222+2216.28+488.469C2214.81+483.901+2212.8+480.001+2210.5+478.25C2207.83+476.216+2205.21+475.218+2202.62+475.062C2197.33+471.491+2191.64+468.628+2186.69+466.562C2184.45+465.627+2182.21+465.378+2180.03+465.656ZM2220+504.531C2219.66+510.598+2218.29+518.279+2215.25+523.625C2220.89+519.106+2221.96+512.142+2220+504.531ZM2215.25+523.625C2213.27+525.214+2210.87+526.586+2207.66+527.469C2201.51+529.157+2198.89+523.964+2198.69+518.156C2199.38+518.381+2200.28+518.33+2201.12+518.375C2198.75+517.066+2198.38+513.183+2202.69+506.625C2202.62+506.678+2202.57+506.757+2202.5+506.812C2201.55+508.164+2200.93+509.073+2199.66+510.875C2200.01+509.847+2200.49+508.946+2201+508.125C2198.4+510.463+2195.35+513.636+2196.03+515.75C2196.34+516.708+2197.04+517.333+2197.91+517.781C2197.83+522.053+2198.61+526.943+2201.84+528.5C2208.11+531.517+2212.39+528.658+2215.25+523.625ZM2201+508.125C2201.61+507.578+2202.01+507.234+2202.5+506.812C2202.74+506.47+2203.17+505.857+2203.22+505.781C2202.37+506.317+2201.63+507.115+2201+508.125ZM2203.22+505.781C2203.25+505.759+2203.28+505.709+2203.31+505.688C2203.54+505.361+2203.69+505.088+2203.94+504.75C2204.15+504.462+2203.27+505.706+2203.22+505.781ZM2203.31+505.688C2203.08+506.014+2202.89+506.311+2202.69+506.625C2203.99+505.516+2204.84+504.811+2203.56+505.469C2203.47+505.516+2203.4+505.634+2203.31+505.688ZM2201.12+518.375C2202.52+519.143+2204.54+518.834+2206.69+517.875C2204.77+518.296+2202.93+518.472+2201.12+518.375ZM2186.25+758.125C2187.88+752.679+2188.48+747.981+2187.12+745.094C2187.99+748.19+2187.07+754.19+2186.25+758.125ZM2187.12+745.094C2186.89+744.262+2186.54+743.675+2186+743.406C2186.35+743.733+2186.71+744.183+2187.06+744.875C2187.1+744.939+2187.09+745.028+2187.12+745.094ZM2186+743.406C2185.95+743.356+2185.9+743.261+2185.84+743.219C2185.92+743.242+2185.93+743.372+2186+743.406ZM2228+1070.5C2235.12+1068.07+2240.9+1066.82+2243.59+1067.97C2242.63+1067.51+2241.42+1067.28+2239.75+1067.41C2236.77+1067.63+2232.58+1068.88+2228+1070.5ZM2243.59+1067.97C2243.97+1068.15+2244.41+1068.29+2244.66+1068.56L2244.72+1068.53C2244.46+1068.26+2243.99+1068.14+2243.59+1067.97ZM1951.5+1229.84C1951.17+1230.09+1950.94+1230.28+1950.69+1230.47L1950.78+1230.53C1950.59+1230.76+1951.57+1229.75+1951.5+1229.84ZM1950.69+1230.47L1950.53+1230.41C1948.94+1231.74+1949.53+1231.33+1950.69+1230.47ZM1816.34+913.438C1816.29+913.498+1816.24+913.565+1816.19+913.625C1816.23+913.624+1816.27+913.661+1816.31+913.656C1816.39+913.555+1816.65+913.448+1816.75+913.344C1816.63+913.359+1816.46+913.427+1816.34+913.438ZM1816.75+913.344C1817.01+913.311+1817.35+913.148+1817.62+913.094C1817.18+913.399+1816.74+913.612+1816.31+913.656C1815.83+914.303+1816+914.845+1816.91+915.219C1816.85+915.252+1816.6+915.382+1816.56+915.406C1815.63+916.026+1816.09+915.892+1817.16+915.375C1817.21+915.39+1817.2+915.424+1817.25+915.438C1821.34+916.507+1830.71+908.226+1834.47+911.25C1837.64+913.799+1826.61+912.709+1822.94+914.312C1815.6+917.517+1808.76+921.575+1801.47+924.969C1801.02+925.177+1800.52+925.522+1800.06+925.75C1800.74+925.372+1801.41+924.938+1802.09+924.562L1801.38+923.156C1780.84+934.503+1760.74+946.549+1740.72+958.625C1739.44+958.846+1738.23+958.969+1737.09+958.969C1738.26+958.969+1739.44+958.859+1740.66+958.688C1722.22+969.807+1703.84+980.933+1685.22+991.5C1705.45+981.262+1725.62+969.443+1745.75+957.469C1751.37+955.797+1757.31+952.8+1763.31+949.188C1757.42+952.468+1751.85+955.105+1746.81+956.844C1761.74+947.956+1776.63+939.129+1791.5+930.656C1782.75+936.196+1772.99+943.364+1763.31+949.188C1780.32+939.723+1799.24+926.097+1810.69+921.094C1813.4+919.91+1835.04+914.469+1835.53+911.875C1836.55+906.549+1827.29+910.086+1821.31+912.938C1822.15+912.38+1822.82+911.771+1823.56+911.156C1826.48+909.837+1828.74+908.43+1826.91+908.469C1826.73+908.472+1826.2+908.684+1825.91+908.75C1826.34+907.989+1826.54+907.26+1826.06+906.688C1824.29+904.576+1821.82+908.631+1819.34+911.406C1818.16+912.058+1817.35+912.717+1816.75+913.344ZM2087.34+530C2086.06+528.673+2085.17+527.5+2084.75+526.531C2084.27+528.359+2085.7+529.301+2087.34+530ZM2180.62+466.594C2181.61+466.494+2182.62+466.539+2183.62+466.688C2188.87+467.462+2194.66+470.672+2200.09+475.188C2175.77+478.923+2156.45+556.314+2152.91+568.219C2122.41+670.619+2109.49+776.126+2073.56+877.156C2071.51+882.939+2064.73+901.799+2055.72+919.562C2044.22+927.586+2030.31+937.339+2022.34+944.625C2028.95+940.33+2038.18+936.17+2040.03+934.844C2044.28+931.795+2048.52+928.531+2052.75+925.281C2045.43+938.651+2036.89+950.464+2028.12+954.125C2038.8+950.064+2048.01+937.64+2055.75+923.031C2061.89+918.24+2067.93+913.335+2073.66+908.312C2106.59+879.429+2132.37+845.763+2158.16+810.656C2164.39+802.175+2170.05+793.57+2175+784.562C2173.23+805.375+2172.54+827.283+2172.38+832.375C2170.18+900.094+2187.78+950.381+2178.94+1006.44C2170.82+1004.45+2162.75+1002.68+2155.03+1001.53C2134.56+998.487+2114.14+989.522+2094.31+984.688C2035.18+970.265+1975.74+947.575+1916.47+935.219C1904.74+931.248+1892.96+927.403+1881.09+924.219C1877.21+923.176+1873.52+921.812+1869.81+920.469C1864.33+917.871+1859.07+915.116+1853.78+912.406C1916.91+848.965+1974.74+780.112+2026.78+707.375C2049.84+675.151+2078.69+634.105+2092.75+591.375C2095.15+641.063+2087.28+688.33+2077.12+737.125C2074.88+747.933+2059.11+801.593+2062.88+808.469C2063.76+810.08+2068.87+803.004+2068.91+802.969C2081.31+791.142+2087.61+771.724+2095.84+755.062C2098.22+750.246+2100.57+745.503+2102.69+740.562C2111.78+719.321+2120.57+699.715+2124.03+676.469C2132.5+619.544+2127.16+560.561+2149.31+506.125C2153.42+496.037+2165.79+468.083+2180.62+466.594ZM2028.12+954.125C2027.7+954.286+2027.27+954.397+2026.84+954.531C2027.27+954.393+2027.7+954.303+2028.12+954.125ZM2026.84+954.531C2025.6+954.935+2024.37+955.263+2023.12+955.312C2023.63+955.268+2024.13+955.379+2024.62+955.281C2025.38+955.131+2026.1+954.765+2026.84+954.531ZM2022.34+944.625C2017.18+947.981+2013.58+951.41+2016.59+953.656C2015.11+952.227+2017.67+948.896+2022.34+944.625ZM2203.94+476.031C2205.91+476.38+2207.89+477.204+2209.91+478.688C2211.69+480.004+2212.77+482.295+2213.59+484.781C2210.87+481.515+2207.57+478.604+2203.94+476.031ZM2184.72+742.906C2184.36+742.997+2184.01+743.281+2183.66+743.719C2184.52+743.215+2185.24+743.047+2185.78+743.188C2185.43+742.927+2185.06+742.82+2184.72+742.906ZM1831.47+904.969C1832.19+905.211+1833.1+905.562+1833.62+905.719C1837.58+908.38+1835.88+907.451+1831.47+904.969ZM1871.03+939.125C1866.46+939.091+1863.12+941.366+1863.47+947.812C1867.65+933.283+1889.11+946.707+1892.88+955.438C1903.41+979.892+1883.63+1005.8+1865.22+1017.81C1862.34+1019.69+1858.98+1024.28+1855.72+1025C1838+1028.89+1828.52+1029.34+1811.59+1020.75C1805.74+1017.78+1804.76+1008.26+1805.31+1002.44C1806.75+987.307+1817.53+977.243+1829.41+971.656L1829.22+970.656C1822.95+973.709+1816.89+977.114+1811.59+982.344C1802.45+991.377+1797.79+1014.12+1809.94+1022.81C1823.35+1032.41+1842.45+1035.55+1857.28+1028.72C1879.76+1018.36+1915.87+976.363+1893.06+949.5C1889.74+945.59+1878.66+939.182+1871.03+939.125ZM2016.59+953.688C2018.26+955.219+2020.61+955.517+2022.94+955.344C2021.42+955.381+2019.91+955.146+2018.41+954.594C2017.65+954.317+2017.04+954.021+2016.59+953.688ZM1858.25+956.969C1856.36+957.172+1854.18+957.88+1852.09+958.812C1851.58+958.519+1851.02+958.242+1850.53+957.969L1847.84+958.562C1847.96+958.651+1849+959.26+1849.97+959.812C1845.02+962.719+1842.11+967.359+1849.44+971.656C1851.85+973.069+1854.25+973.539+1856.97+973.969C1859.78+974.414+1862.13+974.425+1864.72+973.125L1864.62+972.062C1860.47+972.233+1851.38+971.217+1848.28+967.906C1845.79+965.241+1848.43+962.671+1852+960.812C1856.89+963.247+1864.19+965.872+1862.88+958.625C1862.61+957.164+1860.72+956.704+1858.25+956.969ZM1861.19+958.062C1862.65+958.232+1859.7+961.076+1859.03+961.125C1857.33+961.249+1855.72+960.694+1854.16+959.938C1857.05+958.754+1860.03+957.928+1861.19+958.062ZM1728.22+969C1703.73+985.588+1671.09+1003.22+1650.91+1025.72C1672.11+1003.83+1703.68+986.646+1728.41+969.438L1728.22+969ZM1918.22+972.531C1917.54+972.404+1917.02+977.21+1916.06+978.781L1916.19+978.906C1913.22+982.488+1909.19+987.472+1907.94+989.125C1900.51+998.913+1892.51+1008.2+1885.56+1018.41C1883.5+1021.44+1881.76+1024.85+1879.47+1027.69C1878.57+1028.8+1875.27+1030.12+1876.5+1030.78C1876.71+1030.9+1876.84+1030.91+1877+1030.97C1876.87+1031.29+1876.81+1031.66+1876.97+1032.22C1877.7+1034.79+1887.38+1020.78+1887.75+1020.22C1894.54+1009.93+1902.1+1000.3+1909.44+990.469C1911.88+987.203+1917.88+981.254+1918.75+976.188C1918.99+975.788+1919.19+975.479+1918.81+975.875C1918.94+974.845+1918.93+973.824+1918.53+972.906C1918.43+972.663+1918.32+972.549+1918.22+972.531ZM1984.62+978.594C1980.3+978.745+1975.55+980.32+1970.12+983.812L1971.41+984.969C1994.13+970.703+2002.17+990.81+2018.84+1004.16C2030.97+1013.86+2044.45+1021.29+2059.09+1025.53C2066.74+1027.74+2086.56+1031.62+2092.62+1024.44C2100.43+1015.19+2075.68+1003.52+2068.5+1003.88L2068.47+1004.06C2075.93+1004.78+2082.36+1008.18+2087.59+1014.03C2089.27+1015.91+2094.31+1021.48+2090.72+1024C2083.65+1028.97+2070.1+1025+2062.53+1023.22C2047.16+1019.59+2031.09+1011.25+2018.81+1000.72C2006.71+990.339+1997.59+978.14+1984.62+978.594ZM1946.12+986.781C1946.07+987.355+1945.9+987.927+1945.75+988.5C1946.04+988.421+1946.31+988.279+1946.59+988.25L1946.12+986.781ZM1945.75+988.5C1941.24+989.747+1937.14+996.805+1934.16+1000.31C1927.74+1007.84+1913.8+1022+1909.81+1035.47C1907.52+1035.55+1905.22+1035.72+1903+1035.56C1900.93+1035.42+1898.98+1034.65+1896.94+1034.75C1880.78+1035.53+1897.69+1020.73+1905.38+1018.91C1910.25+1017.75+1915.25+1017.13+1912.5+1021.59L1912.09+1021.97C1918+1020.63+1914.72+1016.49+1910.22+1016.62C1905.11+1016.78+1885.18+1021.86+1887.38+1031.16C1889.31+1039.33+1901.59+1038.81+1909.59+1036.66C1908.66+1040.37+1908.32+1044.02+1909.38+1047.44C1910.73+1051.8+1925.55+1057.57+1925.69+1052.19C1925.06+1055.16+1916.92+1051.52+1915.5+1050.62C1910.35+1047.4+1910.47+1042.55+1913+1036.69C1918.15+1024.73+1926.13+1014.72+1934.09+1004.84C1937.67+1000.41+1944.16+994.506+1945.75+988.5ZM1699.12+991.656C1696.03+994.364+1693.03+997.024+1689.94+999.688C1689.46+999.861+1688.98+1000.06+1688.5+1000.25C1688.89+1000.13+1689.27+1000.02+1689.66+999.906C1672.27+1014.89+1655.03+1029.51+1639.91+1047.31C1633.1+1055.32+1625.57+1062.98+1619.31+1071.5C1618.02+1073.26+1615.98+1076.7+1614.12+1079.72C1616.7+1076.69+1619.46+1073.36+1620.22+1072.41C1626.76+1064.15+1634.09+1056.42+1641.12+1048.66C1659.44+1028.45+1679.92+1011.14+1700.06+993.062L1699.12+991.656ZM1614.12+1079.72C1611.7+1082.56+1609.45+1085.16+1609.41+1084.88C1608.98+1087.86+1611.36+1084.21+1614.12+1079.72ZM1688.5+1000.25C1659.87+1009.45+1626.75+1056.08+1609+1077.56C1603.43+1084.3+1582.83+1100.55+1583.78+1110.47L1583.94+1110.5C1585.2+1099.26+1603+1086.25+1609.78+1078.38C1628.69+1056.42+1660.23+1011.7+1688.5+1000.25ZM2013.38+1001.94C2012.91+1002.68+2012.12+1003.78+2011.56+1004.62C2012.56+1003.72+2013.48+1003.01+2014.25+1003.16C2013.92+1002.43+2013.65+1001.49+2013.38+1001.94ZM2014.25+1003.16C2014.44+1003.58+2014.65+1003.96+2014.94+1003.88L2015.69+1003.97C2015.19+1003.46+2014.72+1003.25+2014.25+1003.16ZM2011.56+1004.62C2009.1+1006.86+2005.49+1011.9+1997.59+1020.31C1979.14+1039.96+1955.2+1056.58+1946.62+1084.25C1942.55+1097.41+1944.97+1107.06+1950.97+1112.78C1949.86+1111.56+1948.97+1110.1+1948.28+1108.38C1944.81+1099.64+1948.71+1088.29+1951.62+1079.94C1958.74+1059.57+1975.15+1044.85+1990.06+1030.22C1991.66+1031.2+1994.24+1033.22+1996.38+1035.25C1995.51+1034.04+1994.55+1032.94+1993.66+1032.12C1993.34+1031.84+1991.44+1030.8+1990.09+1030.19C1993.03+1027.31+1996.02+1024.45+1998.75+1021.53C2003.6+1016.34+2008.2+1009.79+2011.56+1004.62ZM1996.38+1035.25C1998.73+1038.54+2000.23+1042.8+1996.59+1045.5C1994.98+1046.7+1992.87+1046.86+1990.97+1046.88C1973.23+1047.05+1991.57+1032.47+1996.03+1036.06L1996.34+1036.22C1993.43+1029.17+1976.75+1041.77+1982.09+1046.81C1987.21+1051.65+2003.98+1048.88+1999.34+1038.72C1998.94+1037.84+1997.77+1036.58+1996.38+1035.25ZM1863.38+1039.06L1862.53+1040.97C1884.29+1049.88+1906.44+1059.31+1928.47+1067.41L1928.62+1066.97C1907.81+1054.92+1885.71+1047.36+1863.38+1039.06ZM1985.44+1051C1985.32+1051.44+1985.12+1051.87+1984.97+1052.31C1985.48+1052.05+1985.98+1051.81+1986.34+1051.84L1985.44+1051ZM1984.97+1052.31C1980.07+1054.8+1969.52+1069.22+1973.75+1071.84L1974.25+1071.47C1973.73+1073.6+1976.38+1067.69+1977.5+1065.84C1980.05+1061.63+1983.36+1057.1+1984.97+1052.31ZM1998.69+1056.31C1996.51+1055.96+1992.09+1063+1989.22+1068.06C1989.72+1067.1+1989.52+1067.53+1990.25+1066.09C1992.31+1062.04+1992.19+1061.61+1992.09+1058.78C1985.06+1064.77+1982.72+1073.87+1984.75+1074.72C1988.43+1076.26+1993.45+1064.48+1994.69+1062.38C1995.71+1060.63+1999.82+1056.34+1998.81+1058.09C1997.78+1059.89+1986.49+1073.72+1991.62+1075.59C1995.09+1076.86+2000.9+1067.64+2004.84+1062.41C2003.34+1065.57+2001.33+1068.63+1999.66+1071.59C1998.33+1073.95+1996.42+1085.46+2001.78+1079.47L2001.66+1079.06C1996.16+1079.43+2013.97+1059.9+2007.72+1056.75C2004.39+1055.07+1994.54+1073.74+1993.41+1074.5C1992.09+1075.39+1994.54+1071.38+1995.28+1069.91C1996.63+1067.23+2001.19+1059.97+1999.44+1056.91C1999.24+1056.55+1998.99+1056.36+1998.69+1056.31ZM1992.09+1058.78C1992.68+1058.29+1993.23+1057.76+1993.88+1057.31L1992.09+1057.09C1992.1+1058.08+1992.07+1058.17+1992.09+1058.78ZM2008.56+1058.94C2009.2+1059.3+2007.99+1059.49+2006.94+1059.88C2007.62+1059.19+2008.21+1058.74+2008.56+1058.94ZM2020.44+1066.31C2014+1066.63+2006.34+1071.15+2005.97+1076.81C2005.28+1087.42+2019.25+1086.58+2025.19+1084.62C2021.01+1085.1+2007.12+1083.75+2008.12+1076.62C2008.52+1073.82+2011.69+1071.05+2015.34+1069.25C2009.89+1075.97+2022.96+1080.45+2027.66+1076.78C2027.12+1080.29+2039.76+1085.51+2040+1089.53C2040.07+1090.77+2025.42+1089.36+2025.47+1088.94C2025.16+1091.68+2041.02+1094.75+2041.75+1090.5C2042.43+1086.5+2035.43+1082.48+2032.78+1080.78C2031.34+1079.86+2027.17+1078.64+2028.62+1077.75C2031.41+1076.04+2042.44+1073.65+2044.12+1075.91L2044.41+1077.06C2046.03+1072.95+2033.02+1072.59+2028.81+1075.31C2029.33+1074.22+2029.48+1072.81+2028.88+1070.97C2027.72+1067.44+2024.3+1066.12+2020.44+1066.31ZM2023.44+1067.34C2025.64+1067.58+2027.32+1068.67+2027.78+1070.97C2029.08+1077.44+2015.2+1076.05+2015.44+1069.19C2017.29+1068.29+2019.26+1067.6+2021.09+1067.38C2021.92+1067.28+2022.7+1067.26+2023.44+1067.34ZM2015.41+1069L2015.47+1069.03C2015.45+1069.05+2015.45+1069.07+2015.44+1069.09C2015.44+1069.06+2015.4+1069.04+2015.41+1069ZM2273.72+1072.88C2271.91+1072.96+2269.1+1074.05+2266.25+1075.22C2266.24+1075.22+2266.23+1075.22+2266.22+1075.22L2266.22+1075.25C2258.93+1078.24+2250.11+1083.22+2247.72+1084.44C2216.74+1100.24+2186.81+1118.18+2155.91+1134.09C2118.84+1153.18+2083.37+1175.28+2048+1197.59C2034.41+1204.48+2020.85+1211.43+2007.41+1218.62C1990.19+1227.83+1956.15+1241.4+1942.56+1261.34C1939.74+1262.9+1936.96+1264.54+1934.12+1266.06L1934.34+1266.56C1936.89+1265.2+1939.38+1263.73+1941.91+1262.34C1940.61+1264.36+1939.45+1266.41+1938.62+1268.56L1939.41+1269.19C1941.2+1265.99+1943.45+1262.97+1946+1260.06C1980.19+1241.14+2013.47+1220.39+2046.75+1199.59C2090.03+1177.64+2133.98+1157.16+2177.84+1136.72C2199.89+1126.44+2251.9+1114.05+2262.75+1088.81L2261.75+1089.38C2251.3+1109.97+2214.94+1118.28+2195.78+1127.09C2150+1148.15+2104.26+1169.37+2059.09+1191.97C2091.04+1172.07+2123.12+1152.39+2156.28+1134.84C2187.05+1118.57+2216.8+1100.49+2248.03+1085.16C2249.7+1084.34+2260.86+1078.35+2268.56+1075.38C2268.44+1075.37+2268.31+1075.35+2268.19+1075.34C2268.37+1075.33+2268.57+1075.27+2268.78+1075.25C2272.04+1074+2274.7+1073.27+2275.53+1073.94C2275.86+1073.75+2276.04+1073.57+2275.81+1073.38C2275.36+1072.99+2274.64+1072.83+2273.72+1072.88ZM2275.53+1073.94C2274.36+1074.59+2271.16+1075+2268.78+1075.25C2268.71+1075.28+2268.64+1075.35+2268.56+1075.38C2272.29+1075.66+2277.36+1076.32+2275.81+1074C2275.77+1073.94+2275.59+1073.99+2275.53+1073.94ZM1966.22+1083.47L1965.5+1085.81C1982.11+1091.88+1998.94+1098.37+2015.69+1103.97L2015.91+1103.5C2001.71+1093.46+1981.97+1088.84+1966.22+1083.47ZM2267.84+1091.19L2267.84+1092.12C2294.84+1096.03+2262.11+1108.78+2252.44+1113.44C2223.9+1127.19+2193.89+1136.64+2164.75+1148.69C2103.23+1174.12+1998.49+1218.98+1953.38+1271.44L1953.41+1271.47C2007.7+1217.78+2096.76+1177.15+2165+1149.38C2194.24+1137.48+2224.3+1128.22+2252.88+1114.41C2263.17+1109.43+2295.35+1095.64+2267.84+1091.19ZM2137.62+1100.62C2130.85+1109.29+2123.29+1117.65+2114.97+1125.75C2123.1+1117.78+2130.83+1109.5+2137.62+1100.62ZM2276.81+1107.38L2276.41+1108.47C2281.51+1110.62+2288.84+1110.09+2291.62+1115.16C2291.8+1115.47+2286.05+1117.28+2279.5+1119.25C2277.42+1116.92+2275.57+1114.64+2274.44+1113.06L2272.41+1113.06C2273.87+1115.2+2275.55+1117.61+2277.38+1119.88C2268.9+1122.4+2259.63+1125.06+2258.19+1125.59C2254.94+1126.8+2251.76+1128.15+2248.53+1129.38C2253.38+1127.73+2258.23+1126+2263.12+1124.59C2265.23+1123.99+2272.28+1123.06+2278.94+1121.66C2280.72+1123.64+2282.64+1125.47+2284.81+1126.66C2286.03+1127.32+2288.49+1128.07+2290.5+1128.72C2293.7+1128.35+2295.92+1128.17+2293.81+1128.41C2289.85+1128.86+2285.15+1125.16+2281.19+1121.06C2286.48+1119.81+2291.26+1118.31+2292.12+1116.25C2294.51+1110.58+2282.14+1109.83+2276.81+1107.38ZM2290.5+1128.72C2287.4+1129.07+2283.38+1129.6+2281.41+1130.19C2277.99+1131.2+2274.54+1132.41+2271.09+1133.62C2278.43+1132.22+2285.71+1131.07+2292.94+1130.25C2294.5+1130.07+2292.81+1129.46+2290.5+1128.72ZM2271.09+1133.62C2167.05+1153.6+2053.66+1230.09+1963.44+1286.31L1964.06+1287.41C2037.52+1244.51+2106.66+1198.91+2185+1165.75C2208.25+1155.91+2232.03+1146.23+2256.06+1138.75C2261.08+1137.19+2266.09+1135.39+2271.09+1133.62ZM2248.53+1129.38C2224.66+1137.48+2201.3+1148+2178.44+1158.44C2201.54+1147.89+2224.89+1138.37+2248.53+1129.38ZM2178.44+1158.44C2102.44+1193.13+2030.86+1236.93+1955.69+1272.97L1955.84+1273.34C2031.81+1239.89+2102.64+1193.04+2178.44+1158.44ZM1985.38+1113.69C1978.83+1116.8+1967.91+1119.4+1959.38+1117.31C1966.88+1119.76+1976.24+1119.12+1985.62+1114.59L1985.38+1113.69ZM2280.09+1133.31C2263.76+1139.54+2296.29+1141.4+2296.03+1141.59C2280.84+1152.68+2256.19+1156.22+2238.88+1163.81C2199.4+1181.12+2159.26+1197.21+2120.72+1216.84C2111.06+1221.76+2096.71+1230.57+2081.16+1240.12C2128.67+1214.82+2176.18+1191.45+2225.72+1170.91C2244.97+1162.92+2281.32+1156.95+2296.28+1142.44C2302.71+1136.2+2266.94+1143.19+2279.53+1133.91L2280.09+1133.31ZM2081.16+1240.12C2080.22+1240.62+2079.28+1241.09+2078.34+1241.59C2069.08+1246.55+2058.35+1253.42+2047.25+1260.38C2058.99+1253.68+2070.24+1246.83+2081.16+1240.12ZM2047.25+1260.38C2021.75+1274.91+1996.31+1287.32+1979.72+1287.72C2001.06+1288.23+2025.21+1274.18+2047.25+1260.38ZM2034.97+1205.72C2006.07+1223.97+1977.12+1242.07+1947.41+1258.66C1963.35+1241.47+1990.43+1229.21+2007.91+1219.81C2016.87+1214.99+2025.93+1210.38+2034.97+1205.72Z" opacity="1" fill="#f9ea00"/>
</g>
<g id="Headline" vectornator:layerName="Headline">
<path d="M1718.31+995.188L1719.34+997.562C1720.62+997.863+1723.17+998.553+1725.38+999.062C1718.73+1002.59+1713.27+1011.01+1708.56+1016.53C1708.1+1017.07+1705.36+1021.48+1704.22+1023.78C1702.33+1025.21+1701.37+1026.96+1703.81+1028C1712.53+1031.73+1728.64+1026.34+1737.03+1022.81C1746.69+1018.75+1751.9+1009.44+1742.12+1001.62C1735.32+996.188+1726.23+995.963+1718.31+995.188ZM1726.41+999.312C1729.07+999.938+1731.45+1000.42+1733.5+1001.09C1734.31+1001.36+1738.83+1003.12+1739.56+1003.44C1744.65+1005.65+1749.25+1013.18+1743.34+1017.66C1735.33+1023.73+1725.33+1025.15+1715.81+1026.25C1710.44+1026.87+1706.89+1026.18+1705.28+1025.19C1706.17+1024.57+1707.35+1023.32+1708.62+1021.81C1709.16+1021.73+1709.6+1021.61+1710.25+1021.56L1710.22+1021.44C1709.84+1021.39+1709.2+1021.65+1708.66+1021.78C1710.74+1019.31+1712.93+1016.34+1713.47+1015.72C1717.13+1011.44+1724.63+1005.55+1726.41+999.312ZM1747.34+1020.5L1747.16+1020.69C1746.71+1020.94+1747.8+1021.86+1748.78+1022.72C1743.13+1023.61+1729.5+1028.1+1734.72+1034.78C1737.76+1038.67+1745.41+1039.37+1749.84+1036.47C1749.71+1037.66+1749.77+1038.95+1750.22+1040.41C1751.39+1044.2+1758.38+1049.39+1762.19+1047.03C1766.89+1044.12+1759.77+1037.89+1759.94+1037.75C1760.63+1037.2+1760.93+1039.57+1761.78+1039.66C1764.91+1039.98+1769.91+1042.85+1772.72+1042.25L1773.34+1040.47C1771.98+1038.63+1760.51+1035.68+1758.66+1037.25C1756.33+1039.21+1762.74+1042.68+1761.72+1043.88C1759.96+1045.94+1753.26+1043.3+1752.69+1040.81C1750.99+1033.5+1766.15+1026.52+1765.31+1031.38L1766.44+1032.66C1770.28+1027.49+1759+1026.54+1753.12+1031.09C1753.21+1029.11+1752.48+1027.11+1751.53+1025.31C1752.9+1023.97+1753.27+1022.24+1750.47+1022.38C1750.3+1022.38+1749.87+1022.51+1749.66+1022.53C1748.72+1021.42+1747.34+1019.92+1747.34+1020.5ZM1750.06+1024.22C1750.09+1024.28+1750.1+1024.37+1750.12+1024.44C1749.8+1024.64+1749.52+1024.84+1748.69+1025.28L1748.84+1026.78C1749.48+1026.71+1750.07+1026.39+1750.62+1026.06C1751.22+1028.09+1751.59+1030.37+1750.78+1032.06C1748.65+1036.53+1739.94+1035.31+1736.72+1033.25C1734.17+1031.62+1747.02+1025.35+1750.06+1024.22ZM1815.16+1034.31C1815.1+1034.35+1814.97+1034.69+1814.91+1034.75C1812.18+1035.06+1809.87+1035.55+1808.19+1036.25C1809.72+1037+1811.4+1037.41+1813.12+1037.69C1812.95+1038.03+1812.91+1037.94+1812.72+1038.34L1813.25+1038.56C1819.93+1030.49+1812.9+1038.58+1810.41+1042.19C1806.05+1048.48+1801.2+1054.4+1796.94+1060.75C1794.33+1064.63+1794.74+1067.72+1797.22+1066.84C1797.2+1066.93+1797.17+1066.94+1797.16+1067.03C1797.14+1067.11+1797.27+1066.8+1797.28+1066.81C1797.48+1066.74+1797.78+1066.44+1798+1066.31C1800.72+1071.78+1809.81+1073.85+1816.25+1071.75C1818.45+1074.88+1830.72+1080.84+1832.84+1077.91L1833.12+1077.06C1833.2+1075.17+1830.05+1073.62+1826.44+1072.59C1828.55+1069.51+1829.92+1064.6+1830.03+1061.66C1827.66+1063.76+1824.02+1068.26+1823.16+1071.88C1820.71+1071.44+1818.67+1071.3+1817.22+1071.47C1819.4+1070.57+1821.18+1069.16+1822.09+1067.16C1825.31+1060.12+1824.08+1052.48+1816.81+1049.38C1816.65+1049.31+1816.22+1049.16+1815.97+1049.06C1821.51+1048.4+1834.21+1047.55+1834.94+1041.59C1835.71+1035.29+1824.51+1033.81+1815.72+1034.66C1815.64+1034.29+1815.46+1034.09+1815.16+1034.31ZM1830.03+1061.66C1830.43+1061.3+1830.77+1061.02+1831.06+1060.84C1833.08+1061.15+1832.46+1061.05+1838.28+1061.41C1838.55+1061.42+1840.66+1061.19+1840.19+1061C1840.79+1061.24+1839.37+1059.4+1838.53+1059.19C1833.42+1057.88+1834.38+1058.15+1829.22+1057.47L1828.69+1060.5C1829.77+1060.65+1829.41+1060.59+1830.03+1060.69C1830.06+1060.97+1830.04+1061.3+1830.03+1061.66ZM1815.19+1037.97C1818.71+1038.33+1822.38+1038.34+1825.75+1039.12C1826.62+1039.33+1832.51+1040.43+1832.59+1042.09C1832.75+1045.07+1815.94+1046.68+1814.03+1046.97C1813.32+1047.08+1812.04+1047.31+1810.88+1047.53C1810.75+1047.51+1810.66+1047.55+1810.53+1047.53C1811.32+1046.29+1812.14+1045.08+1812.91+1043.81C1813.98+1042.04+1814.7+1039.89+1815.19+1037.97ZM1808.38+1050.88C1816.31+1052.4+1826.76+1058.23+1819.44+1068.44C1813.12+1077.23+1790.44+1058.82+1806.47+1063.47L1806.5+1063.41C1805.49+1062.9+1802.38+1062.25+1800.03+1062.5C1800.72+1061.59+1801.36+1060.66+1802.09+1059.69C1804.28+1056.82+1806.37+1053.86+1808.38+1050.88ZM1845.94+1063L1845.5+1066.19C1846.04+1066.34+1846.58+1066.5+1847.12+1066.66C1847.14+1066.97+1847.15+1067.31+1847.12+1067.66C1847.44+1067.4+1847.75+1067.14+1848.09+1066.94C1851.5+1067.96+1854.9+1069.03+1858.34+1069.88C1861.87+1070.74+1861.8+1067.08+1859.03+1067.19C1860.83+1068.75+1863.39+1065.44+1859.19+1064.75C1854.8+1064.02+1850.35+1063.58+1845.94+1063ZM1847.12+1067.66C1841.26+1072.34+1839.14+1085.62+1843.09+1080.66L1842.94+1080.25C1842.89+1080.28+1846.73+1072.54+1847.12+1067.66ZM1866.41+1067.84C1866.11+1067.79+1865.74+1068.12+1865.38+1068.44C1865.31+1068.39+1865.32+1068.39+1865.25+1068.34C1865.14+1068.26+1861+1072.2+1860.91+1072.28C1857.85+1075.06+1850.2+1082.7+1851.91+1087.97C1853.57+1093.13+1869.35+1092.03+1867.84+1086.34L1867.38+1086.16C1866.28+1086.94+1863.62+1087.12+1862.28+1087.31C1849.41+1089.2+1855.45+1083.09+1861.25+1077.66L1860.84+1079.28C1863.91+1080.58+1873.29+1081.95+1870.72+1079.75C1871.13+1080.1+1870.74+1078.63+1868.59+1078.16C1866.37+1077.66+1864.09+1077.41+1861.84+1077.06C1864.77+1074.33+1867.47+1071.82+1867.41+1070.78C1867.4+1070.7+1867.38+1070.7+1867.38+1070.62C1867.45+1070.52+1867.42+1070.36+1867.25+1070.12C1867.08+1068.75+1866.82+1067.92+1866.41+1067.84ZM1868.41+1069.34L1868.03+1073.19C1869.44+1073.73+1875.87+1077.56+1877.97+1075.88C1878.3+1075.61+1878.81+1075.51+1878.59+1075.12C1880.22+1074.53+1877.26+1072+1876.62+1071.72C1873.73+1070.43+1871.61+1069.95+1868.41+1069.34ZM1880.06+1076.75C1877.61+1076.73+1875.13+1077.05+1874.31+1077.72C1869.59+1081.6+1885.42+1089.55+1886.5+1094.41C1887.87+1100.6+1869.98+1094.92+1875.56+1094.56L1875.28+1092.78C1867.72+1092.33+1883.74+1106.04+1889.22+1097.88C1893.29+1091.81+1883.54+1086.71+1880.16+1083.91C1878.62+1082.63+1874.35+1082.48+1875.19+1080.59C1876.15+1078.43+1882.6+1079.75+1884.03+1080C1885.15+1080.19+1886.19+1079.07+1887.03+1078.78C1886.5+1078.38+1886.45+1078.35+1885.69+1077.72C1884.95+1077.12+1882.51+1076.77+1880.06+1076.75ZM1887.03+1078.78C1887.5+1079.14+1887.93+1079.53+1888.22+1079.75L1888.19+1079.34C1887.88+1078.64+1887.48+1078.63+1887.03+1078.78ZM1888.22+1079.75L1888.41+1081.38C1889.7+1080.98+1889.38+1080.64+1888.22+1079.75ZM1926.94+1082.12C1926.41+1082.08+1926.13+1082.33+1925.84+1082.59C1925.7+1082.5+1925.58+1082.37+1925.41+1082.31C1924.99+1082.17+1925.13+1082.59+1925.38+1083.16C1924.72+1084.56+1924.95+1087.11+1924.5+1088.81C1924.41+1089.17+1924.29+1089.72+1924.19+1090.12C1924.17+1090.17+1924.14+1090.24+1924.12+1090.28C1920.7+1097+1916.87+1103.98+1912.53+1110.06C1911.27+1111.84+1910.84+1114.79+1910.47+1116.41C1911.86+1116.45+1913.39+1116.16+1914.44+1114.5C1918.12+1108.65+1920.75+1101.66+1923.22+1094.94C1922.27+1100.72+1922.41+1107.28+1928.94+1108.06C1929.2+1108.09+1929.46+1108+1929.72+1108C1925.83+1115.1+1922.37+1122.72+1921.94+1127.81C1921.58+1132.08+1925.68+1132.2+1927.16+1128.66L1926.5+1127.78C1926.77+1126.66+1927.04+1125.4+1927.34+1124.75C1928.43+1122.42+1929.57+1120.22+1930.81+1118C1932.26+1115.42+1934.08+1110.5+1936.06+1105.38C1940.46+1101.79+1944.18+1095.55+1946.38+1091.97C1947.54+1090.06+1950.9+1086.68+1948.97+1085.72C1945.59+1084.04+1940.42+1091.11+1938.81+1093.31C1936.98+1095.81+1934.45+1099.84+1931.91+1104.19C1931.38+1104.39+1930.89+1104.5+1930.41+1104.5C1921.62+1104.48+1928.49+1089.44+1926.88+1084.06C1927.12+1082.98+1927.24+1082.15+1926.94+1082.12ZM1910.47+1116.41C1910.11+1116.4+1909.75+1116.44+1909.44+1116.38L1909.44+1116.66C1909.94+1118.16+1910.2+1117.57+1910.47+1116.41ZM1909.44+1116.38L1909.47+1115.31C1906.65+1114.91+1907.6+1115.98+1909.44+1116.38ZM1948.06+1086.22C1948.77+1086+1947.18+1087.48+1946.72+1088.09C1946.22+1088.75+1942.65+1093.57+1942.41+1093.88C1941.75+1094.69+1940.41+1096.23+1939.28+1097.59C1941.85+1092.02+1944.74+1087.26+1948.06+1086.22ZM1955.09+1106.78C1954.41+1106.53+1953.8+1107.32+1953.78+1109.88L1954.31+1110.25C1956.42+1107.52+1952.7+1115.24+1950.19+1121.56C1949.73+1121.42+1949.92+1121.51+1949.41+1121.34L1947.91+1125C1948.56+1125.27+1948.32+1125.23+1948.88+1125.47C1948.68+1126.11+1948.3+1127+1948.22+1127.47C1947.64+1130.85+1951.03+1140.79+1954.41+1134.78L1954.06+1134.31C1951.7+1135.11+1952+1131.59+1952.91+1127.38C1956.17+1129.09+1956.83+1129.65+1961.75+1129.19L1962.5+1126.78C1958.65+1123.53+1958+1123.63+1954.09+1122.66C1955.24+1118.82+1956.61+1114.52+1956.84+1113.56C1957.57+1110.54+1956.23+1107.2+1955.09+1106.78ZM1952.22+1109.47C1951.51+1109.48+1950.93+1110.38+1950.31+1111.59C1950.11+1111.75+1950.09+1111.69+1949.84+1111.91C1944.5+1116.53+1927+1136.93+1942.06+1122.75C1929.89+1134.21+1940.79+1129.13+1948.12+1120.5C1949.04+1119.43+1954.31+1113.57+1953.81+1111.78C1953.34+1110.09+1952.79+1109.46+1952.22+1109.47ZM1969.25+1119.59C1968.94+1119.7+1968.67+1120.25+1968.25+1121.66C1968.01+1122.44+1968.01+1123.67+1968.06+1125.06C1963.49+1132.49+1957.94+1145.65+1963.69+1140.28C1964.84+1138.57+1967.12+1135.12+1968.97+1130.94C1970.4+1137.97+1973.4+1145.93+1976.91+1145.91C1991.63+1145.83+1982.82+1129.28+1981.31+1122.69C1979.69+1125.37+1987.47+1143.13+1977.44+1142.38C1973.68+1142.09+1974.85+1133.46+1974.31+1130.91C1973.54+1127.21+1971.96+1125.17+1970.69+1123.53C1970.61+1122.97+1970.42+1122.48+1970.16+1122.03C1970.06+1122.15+1969.98+1122.24+1969.88+1122.38C1969.72+1122.14+1969.38+1121.78+1969.28+1121.56L1970.59+1120.25C1969.95+1119.84+1969.56+1119.49+1969.25+1119.59ZM1970.16+1122.03C1970.5+1121.61+1970.91+1121.04+1971.19+1120.81L1969.88+1121.47C1970.01+1121.63+1970.05+1121.85+1970.16+1122.03ZM1963.69+1140.28C1962.63+1141.85+1962.54+1142.07+1966.28+1137.59C1965.15+1138.95+1964.42+1139.6+1963.69+1140.28ZM1981.47+1122.22C1981.37+1122.27+1981.41+1122.55+1981.34+1122.66C1981.25+1122.04+1982.53+1123.62+1983.22+1123.62L1983.41+1122.91C1982.46+1122.24+1981.84+1122.03+1981.47+1122.22Z" stroke="#000000" stroke-width="1" fill="#000000" opacity="1" stroke-linejoin="round"/>
</g>
<g id="Story" vectornator:layerName="Story">
<path d="M1690.12+1040.09C1690.17+1040.49+1690.09+1040.85+1690.06+1041.22C1690.34+1040.93+1690.63+1040.69+1690.91+1040.41L1690.12+1040.09ZM1690.06+1041.22C1673+1058.77+1654.92+1073.81+1639.88+1093.81C1633.43+1102.38+1626.48+1111.43+1622.12+1121.53C1621.59+1122.77+1616.8+1136.88+1619.56+1133.41L1619.22+1133.16C1619.56+1135.71+1624.87+1121.16+1625.94+1118.84C1629.92+1110.22+1635.96+1102.78+1641.62+1095.41C1653.45+1080.01+1666.17+1066.6+1679.94+1053.22C1683.52+1049.74+1689.74+1046.39+1690.06+1041.22ZM1697.53+1040.97L1697.22+1043.41C1708.71+1046.11+1720.21+1048.72+1731.69+1051.5C1737.2+1052.84+1742.75+1054.71+1748.22+1056.25C1753.31+1057.68+1753.86+1057.98+1758.44+1059.59C1773.56+1064.93+1763.38+1064.4+1753.97+1073.44C1748.65+1078.54+1742.92+1083.1+1737.66+1088.28C1724.42+1101.31+1712.42+1115.11+1700.78+1129.78C1697.88+1133.43+1691.07+1141.51+1688+1149.12C1683.46+1145.87+1678.09+1143.3+1672.28+1141.28C1673.51+1137.38+1674.71+1133.47+1675.94+1129.56L1674.28+1129.38C1673.31+1133.23+1672.35+1137.08+1671.38+1140.94C1654.57+1135.32+1634.5+1134.06+1621.09+1133.56L1623.09+1134.34C1643.81+1142.63+1666+1145.28+1686.69+1153.69C1686.23+1156.43+1686.49+1158.97+1688+1161.03L1688.12+1161.03C1687.79+1159.24+1688.23+1157.06+1689.06+1154.78C1691.06+1155.64+1693.06+1156.48+1695.03+1157.47L1695.66+1156.19C1694.25+1154.38+1692.57+1152.78+1690.78+1151.25C1694.5+1143.96+1701.03+1136.1+1703.75+1132.53C1715.06+1117.67+1726.81+1104.09+1739.66+1090.75C1759.6+1070.04+1784.23+1064.51+1748.97+1053.44C1743.5+1051.72+1737.86+1049.46+1732.28+1048.22C1720.73+1045.66+1709.11+1043.39+1697.53+1040.97ZM1677+1068.97C1676.98+1068.96+1676.57+1069.68+1676.5+1069.75C1676.54+1069.8+1676.58+1069.81+1676.62+1069.91C1677.35+1071.39+1676.31+1093.47+1680.09+1090.12L1679.72+1089.25C1679.45+1090.21+1679.07+1084.68+1679.06+1083.41C1679.05+1079.84+1678.93+1069.68+1677+1068.97ZM1676.5+1069.75C1676.28+1069.49+1676.13+1069.89+1676+1070.53C1676.1+1070.39+1676.43+1069.82+1676.5+1069.75ZM1676+1070.53C1674.44+1072.61+1670.08+1080.01+1668.31+1083.34C1671.78+1081.82+1673.31+1079.12+1675.12+1075.03C1675.57+1074.02+1675.75+1071.79+1676+1070.53ZM1668.31+1083.34C1667.76+1083.59+1667.29+1083.88+1666.62+1084.06L1667.19+1085.34C1667.26+1085.16+1668.06+1083.82+1668.31+1083.34ZM1788.38+1075.78C1781.9+1075.95+1781.43+1076.15+1777.47+1077.16C1777.56+1076.96+1777.48+1076.94+1777.25+1077.19C1776.16+1077.46+1776.11+1077.5+1774.09+1077.97L1774.66+1080.12C1773.51+1080.97+1773.12+1081.16+1772.94+1081.34C1767.37+1087+1761.33+1092.26+1756.34+1098.53C1755.8+1099.22+1750.5+1106.12+1754.28+1105.06L1754.19+1104.69C1753.51+1105.64+1758.6+1098.75+1759.84+1097.5C1763.9+1093.42+1768.11+1089.45+1772.03+1085.22C1772.49+1084.72+1774.28+1082.17+1775.69+1080.03C1783.88+1078.75+1780.31+1079.15+1788.69+1078.38C1789.46+1078.3+1793.77+1077.69+1793.69+1077.97C1794.17+1076.25+1789.2+1075.76+1788.38+1075.78ZM1701.94+1082.81C1701.9+1082.79+1701.79+1082.95+1701.72+1083C1700.9+1083.12+1699.7+1083.52+1697.38+1084.69C1694.86+1085.95+1692.33+1087.19+1689.81+1088.44L1690.78+1091.22C1693.3+1089.73+1695.85+1088.31+1698.34+1086.78C1699.29+1086.2+1699.95+1085.63+1700.5+1085.09C1698.23+1089.62+1693.1+1102.16+1699.25+1101.09L1699.53+1100.25C1694.17+1093.75+1705.42+1082.86+1701.91+1083C1701.9+1082.96+1701.96+1082.83+1701.94+1082.81ZM1769.09+1089.47L1769.31+1092.06C1769.99+1092.1+1783.27+1091.15+1785.12+1091.75C1777.64+1089.31+1790.5+1089.21+1769.09+1089.47ZM1659.88+1089.75C1659.71+1089.58+1659.55+1090.18+1659.41+1092.09L1659.72+1091.94C1660.97+1087.96+1652.95+1117.62+1654.44+1123.94C1652.78+1124.43+1651.83+1125.39+1652.25+1126.81L1655.66+1126.47C1655.53+1126.12+1655.36+1125.79+1655.38+1125.41C1655.38+1125.27+1655.43+1125.19+1655.44+1125.06C1655.57+1125.06+1655.66+1125.13+1655.81+1125.06L1655.75+1124.66C1655.65+1124.72+1655.61+1124.66+1655.53+1124.69C1655.57+1124.32+1655.66+1123.99+1655.75+1123.66C1655.51+1123.69+1655.26+1123.73+1655.03+1123.78C1655.12+1121.72+1656.67+1117.09+1656.84+1116.47C1658.43+1110.88+1660.38+1105.09+1660.78+1099.22C1660.87+1097.88+1660.38+1090.25+1659.88+1089.75ZM1655.75+1123.66C1656.23+1123.58+1656.68+1123.55+1657.19+1123.53C1658.19+1121.54+1660.16+1119.71+1662.03+1119.38C1659.33+1118.92+1656.6+1120.35+1655.75+1123.66ZM1662.03+1119.38C1663.16+1119.57+1664.21+1120.17+1665.12+1120.97C1665.01+1120.8+1665+1120.68+1664.88+1120.5C1664.12+1119.45+1663.1+1119.18+1662.03+1119.38ZM1665.12+1120.97C1667.09+1123.93+1667.22+1126.21+1666.31+1127.88C1665.74+1128.5+1665.08+1129.12+1664.53+1129.75C1660.98+1131.96+1654.53+1131.31+1652.38+1127.41C1652.25+1127.18+1652.31+1127.02+1652.25+1126.81L1651.12+1126.91C1652.09+1132.51+1665.46+1135.45+1667.25+1128.47C1676.29+1121.4+1689.99+1114.24+1694+1103.19C1685.47+1110.28+1675.37+1118.3+1667.47+1126.66C1667.46+1124.09+1666.53+1122.19+1665.12+1120.97ZM1694+1103.19C1694.23+1103+1694.5+1102.78+1694.72+1102.59L1694.5+1102.06C1694.39+1102.46+1694.14+1102.8+1694+1103.19ZM1657.19+1123.53C1656.69+1124.52+1656.45+1125.49+1656.59+1126.38L1661.41+1125.94C1662.18+1125.48+1662.96+1124.99+1663.56+1124.88C1662.31+1123.9+1659.67+1123.43+1657.19+1123.53ZM1663.56+1124.88C1663.86+1125.11+1664.17+1125.37+1664.28+1125.66L1661.41+1125.94C1659.39+1127.14+1657.21+1128.67+1656.62+1126.75C1656.59+1126.63+1656.61+1126.5+1656.59+1126.38L1655.66+1126.47C1657.02+1130.36+1665.91+1131.71+1664.94+1125.94C1664.78+1124.98+1664.25+1124.74+1663.56+1124.88ZM1668.44+1093.81C1666.36+1094.1+1663.94+1096.68+1663.97+1098.81C1664.86+1097.3+1665.88+1096+1666.56+1096.09C1666.72+1095.95+1666.87+1095.81+1667.03+1095.69C1667.18+1095.08+1667.59+1094.85+1668.09+1095C1668.49+1094.81+1668.91+1094.57+1669.25+1094.53C1669.32+1094.52+1668.75+1095.15+1668.69+1095.28C1668.85+1095.42+1668.92+1095.64+1669+1095.84C1668.37+1097.13+1667.66+1099.23+1667.16+1097.34C1666.33+1098.33+1666.13+1098.61+1665.25+1099.59C1665.05+1099.41+1665.1+1099.12+1665.06+1098.88L1664.19+1100.06C1664.27+1100.2+1664.34+1100.37+1664.44+1100.47C1663.84+1101.12+1662.92+1102.19+1662.75+1102.34C1662.54+1102.54+1662.45+1102.55+1662.41+1102.47L1662.12+1102.84C1663.69+1103.81+1667+1101.45+1669+1098.88C1669.14+1098.7+1669.26+1098.56+1669.38+1098.38C1670.36+1096.94+1670.99+1095.49+1670.34+1094.56C1669.88+1093.9+1669.2+1093.71+1668.44+1093.81ZM1662.41+1102.47L1664.19+1100.06C1664.07+1099.87+1663.95+1099.73+1663.88+1099.47C1663.82+1099.27+1663.97+1099.03+1663.97+1098.81C1663+1100.45+1662.24+1102.18+1662.41+1102.47ZM1665.06+1098.88L1666.94+1096.38C1667+1096.83+1667.09+1097.08+1667.16+1097.34C1667.98+1096.36+1668.51+1095.64+1668.69+1095.28C1668.52+1095.13+1668.3+1095.06+1668.09+1095C1667.72+1095.18+1667.4+1095.41+1667.03+1095.69C1666.99+1095.87+1666.87+1095.98+1666.91+1096.25C1666.81+1096.13+1666.68+1096.11+1666.56+1096.09C1665.54+1097+1664.91+1098.01+1665.06+1098.88ZM1788.44+1095.72C1785.33+1095.98+1781.16+1097.61+1782.81+1100.12C1784.45+1102.62+1790.88+1103.73+1793.41+1102.66C1794.06+1102.38+1795.57+1099.85+1796.22+1100.25C1796.51+1100.43+1793.42+1103.25+1795.75+1104.84C1797.08+1105.75+1799.49+1105.24+1800.88+1104.66C1801.4+1104.43+1802.25+1104.07+1802.41+1103.91C1800.79+1102.27+1799.12+1100.84+1796.53+1103.88C1795.54+1105.04+1797.88+1098.9+1796.44+1099.16C1793.78+1099.63+1786.54+1105.01+1783.69+1099.69C1782.6+1097.66+1794.89+1093.65+1788.25+1098.19L1787.66+1099.53C1793.59+1096.57+1791.55+1095.46+1788.44+1095.72ZM1802.41+1103.91C1800.37+1104.54+1801.81+1107.46+1804.34+1108.03C1806.97+1108.63+1809.66+1106.17+1811.69+1106.56C1811.89+1106.6+1811.88+1106.76+1811.88+1106.91C1812+1106.35+1812.03+1105.81+1811.62+1105.34C1811.42+1105.1+1806.38+1106.28+1805.69+1106.22C1804.48+1106.11+1803.45+1104.97+1802.41+1103.91ZM1811.88+1106.91C1811.85+1107+1811.87+1107.09+1811.84+1107.19C1811.89+1107.08+1811.87+1106.99+1811.88+1106.91ZM1811.84+1107.19C1811.53+1107.89+1810.49+1109.03+1810.62+1109.81L1811.25+1109.69C1811.13+1108.87+1811.6+1108.02+1811.84+1107.19ZM1682.53+1100.94C1679.7+1101.02+1673.41+1106.27+1674.94+1108.59C1676.32+1110.71+1679.17+1109.53+1680.97+1107.84C1683.26+1106.1+1685.32+1103.01+1683.5+1101.25C1683.27+1101.03+1682.94+1100.93+1682.53+1100.94ZM1682.59+1101.44C1682.88+1101.46+1683.12+1101.6+1683.28+1101.88C1684.44+1103.92+1683.71+1105.05+1682.47+1105.69C1682.54+1105.24+1682.49+1104.83+1682.16+1104.5C1681.95+1104.29+1681.74+1104.28+1681.53+1104.19L1680.03+1106.28C1679.28+1106.32+1678.63+1106.29+1678.09+1106.16C1676.77+1107.92+1675.82+1109.87+1675.88+1108.53C1675.9+1107.91+1676.52+1106.86+1677.34+1105.75C1677.19+1105.52+1677.37+1105.22+1678+1104.94C1679.53+1103.1+1681.45+1101.35+1682.59+1101.44ZM1678+1104.94C1677.77+1105.21+1677.54+1105.48+1677.34+1105.75C1677.46+1105.93+1677.68+1106.05+1678.09+1106.16C1678.59+1105.49+1679.14+1104.88+1679.72+1104.47C1679.02+1104.63+1678.36+1104.77+1678+1104.94ZM1679.72+1104.47C1680.25+1104.34+1680.65+1104.24+1681.41+1104.12C1680.84+1103.94+1680.28+1104.07+1679.72+1104.47ZM1681.41+1104.12C1681.45+1104.14+1681.49+1104.17+1681.53+1104.19L1681.62+1104.06C1681.52+1104.08+1681.51+1104.11+1681.41+1104.12ZM1756+1107.28L1758.25+1109.56C1758.39+1109.59+1758.58+1109.57+1758.72+1109.59C1757.85+1108.91+1756.99+1108.29+1756+1107.28ZM1758.72+1109.59C1762.98+1112.94+1766.29+1113.03+1772.66+1113.28C1774.53+1113.36+1781.64+1111.89+1783.12+1113.47C1785.15+1115.63+1781.64+1119.43+1785.81+1123.16C1790.73+1127.55+1804.08+1122.04+1807.25+1126.19C1807.77+1126.86+1806.31+1131.8+1808.75+1134.22C1814.65+1140.08+1822.75+1135.65+1829.5+1137.06C1831.22+1137.42+1830.01+1141.53+1831.62+1142.25C1834.44+1143.51+1837.85+1143.64+1840.78+1142.75L1840.94+1141.78C1832.68+1134.42+1821.77+1138.01+1812.59+1132.75C1809.03+1130.71+1810.51+1125.58+1807.88+1123.88C1803.09+1120.78+1795.47+1123.84+1790.22+1121.78C1784.66+1119.6+1786.76+1114.71+1783.34+1112.38C1777.08+1108.11+1765.91+1110.7+1758.72+1109.59ZM1821.25+1108.88C1819.7+1108.51+1817.47+1110.38+1816.88+1112.19C1815.61+1112.97+1814.56+1113.48+1814.94+1112.69L1813.84+1111.44C1811.82+1113.96+1814.16+1114.22+1816.88+1113.53C1816.91+1113.66+1816.81+1113.82+1816.88+1113.94C1817.57+1115.11+1820.92+1116.05+1823.28+1115.75C1823.42+1116.14+1823.45+1116.47+1823.94+1116.97C1825.76+1118.83+1835.08+1122.54+1837.81+1123.03L1838.62+1122.22C1835.09+1120.35+1833.11+1117.77+1828.44+1116.44C1827.69+1116.22+1826.37+1115.38+1825.44+1114.62C1825.53+1114.41+1825.66+1114.21+1825.66+1113.94C1825.66+1113.64+1825.29+1113.54+1824.81+1113.56C1824.95+1113.68+1824.91+1113.81+1824.72+1113.94C1824.64+1113.85+1824.49+1113.72+1824.44+1113.66C1823.97+1113.75+1823.64+1114+1823.34+1114.38C1821.69+1114.74+1819.33+1114.81+1818.88+1113.72C1818.75+1113.42+1818.74+1113.09+1818.75+1112.75C1821.03+1111.81+1823.03+1110.52+1822.03+1109.38C1821.81+1109.12+1821.55+1108.95+1821.25+1108.88ZM1824.44+1113.66C1824.57+1113.63+1824.69+1113.57+1824.81+1113.56C1824.76+1113.52+1824.77+1113.48+1824.66+1113.44C1824.27+1113.3+1824.25+1113.42+1824.44+1113.66ZM1650.5+1115C1647.34+1118.88+1637.24+1127.3+1636.09+1131.97L1636.16+1132.03C1638.28+1127.19+1647.6+1120.22+1651.19+1115.53L1650.5+1115ZM1742.69+1122.78C1741.51+1123.24+1739.9+1125.04+1739.19+1125.06C1737.55+1125.11+1735.92+1124.92+1734.28+1124.84L1732.75+1124.59C1734.78+1125.17+1736.78+1125.93+1738.84+1126.34C1739.99+1126.57+1742.33+1124.17+1743.41+1125.25C1744.42+1126.27+1742.27+1128.23+1742.66+1129.66C1743.84+1134.06+1746.84+1136.18+1750.97+1137.16C1756.85+1138.55+1763.62+1136.76+1769.38+1135.47C1770.22+1135.28+1774.45+1133.47+1776.16+1134.84C1778.49+1136.72+1769.8+1144.93+1777.97+1148.16C1785.32+1151.06+1791.65+1143.91+1798.66+1145.06C1799.15+1145.14+1798.64+1154.74+1802.09+1157.03C1809.25+1161.78+1814.53+1153.6+1821+1155.41C1822.39+1155.8+1819.7+1159.05+1820.81+1160.03C1823.75+1162.64+1828.78+1162.18+1832.09+1160.84L1832.03+1159.5C1829.29+1159+1825.49+1159.38+1822.94+1158.38C1821.78+1157.92+1823.57+1154.52+1821.5+1154.06C1815.38+1152.71+1809.68+1158.82+1803.69+1153.78C1800.91+1151.45+1802.54+1145.19+1799.66+1143.69C1793.95+1140.71+1785.35+1147.77+1778.88+1144.97C1775.08+1143.33+1779.84+1135.47+1776.41+1133.62C1769.46+1129.9+1757.83+1137.34+1749.62+1134.06C1743.57+1131.64+1747.06+1126.52+1743.66+1122.91C1743.41+1122.64+1743.08+1122.63+1742.69+1122.78ZM1882.09+1124.59C1878.64+1124.36+1873.65+1125.32+1870.84+1126.12C1873.22+1127.11+1875.99+1128.13+1878.12+1127.97C1879.47+1127.87+1883.33+1125.47+1884.5+1126.34C1884.84+1126.6+1883.95+1131.03+1883.94+1131.28C1883.73+1136.34+1885.9+1140.75+1891+1141.25C1895.83+1141.73+1901.41+1139.41+1905.69+1137.28C1905.97+1137.14+1912.21+1133.59+1912.47+1134.69C1913.15+1137.58+1907.84+1141.18+1910.22+1144.66C1916.89+1154.4+1927.37+1146.73+1936.22+1148.03C1940.35+1148.64+1941.04+1154.52+1945.03+1156.47L1945.97+1154.59C1943.1+1152.18+1941.96+1147.89+1937.88+1147.16C1931.48+1146.02+1921.94+1149.26+1916.16+1146.09C1911.7+1143.66+1915.39+1133.25+1911.38+1132.97C1904.35+1132.47+1897.79+1141.55+1890.16+1138.69C1884.87+1136.7+1887.75+1129.16+1885.16+1125.66C1884.69+1125.02+1883.55+1124.69+1882.09+1124.59ZM1870.84+1126.12C1869.95+1125.76+1868.91+1125.38+1868.28+1125.09L1868.88+1126.72C1869.19+1126.55+1870.1+1126.34+1870.84+1126.12ZM1618.94+1141.94C1617.74+1142.11+1614.53+1144.52+1613.09+1145.47L1613.12+1145.5C1610.12+1147.32+1606.85+1149.45+1605.19+1151.03C1604.28+1151.89+1601.7+1154.4+1603.56+1155.78C1607.06+1158.38+1617.56+1149.57+1620.69+1148.03C1621.28+1147.74+1626.8+1144.43+1627.62+1145.69C1627.86+1146.05+1616.66+1156.18+1619.84+1158.22C1623.04+1160.26+1630.78+1155.13+1633.5+1153.78C1634.72+1153.18+1637.74+1151.89+1638.66+1151.72C1638.64+1151.58+1638.71+1151.41+1638.66+1151.28C1638.08+1149.93+1625.95+1155.27+1625.09+1155.62C1623.63+1156.24+1620.35+1159.21+1620.72+1157.56C1621.71+1153.16+1630.12+1149.38+1628.22+1144.06C1627.57+1142.26+1623.06+1144.46+1622.38+1144.75C1619.66+1145.91+1612.07+1148.95+1607.69+1152.12C1608.36+1151.56+1608.8+1151.15+1610.19+1150.06C1612.31+1148.4+1618.43+1145.4+1619.31+1142.66C1619.5+1142.09+1619.34+1141.88+1618.94+1141.94ZM1638.66+1151.72C1638.67+1151.82+1638.66+1151.93+1638.66+1152.03C1638.66+1152.03+1638.68+1152+1638.69+1152C1639.07+1151.7+1638.98+1151.66+1638.66+1151.72ZM1638.66+1152.03C1637.81+1152.68+1627.25+1157.78+1629.84+1159.94C1631.96+1161.7+1637.27+1158.14+1639.41+1157.53C1640.72+1157.15+1644.83+1157.19+1643.47+1157.03C1641.43+1156.8+1644.12+1162.97+1645.16+1163.56C1648.71+1165.61+1651.73+1163.84+1654.97+1163C1654.41+1164.18+1654.42+1165.49+1655.41+1166.5C1657.75+1168.91+1661.16+1167.05+1663.94+1167.38C1671.23+1168.23+1677.67+1175.56+1683.88+1176.62L1684.19+1175.5C1681.45+1174.13+1681.57+1171.74+1679.38+1170.22C1676+1167.88+1670.62+1167.63+1666.91+1165.78C1664.1+1164.39+1658.57+1168.2+1657.66+1165.03C1657.12+1163.19+1658.83+1162.66+1657.53+1160.81C1657.11+1160.21+1649.74+1162.58+1648.47+1162.34C1644.84+1161.66+1645.66+1158.88+1644.16+1156.31C1643.34+1154.93+1638.89+1155.46+1635.41+1156.34C1637.08+1154.97+1638.55+1153.35+1638.66+1152.03ZM1866.97+1144.97L1865+1146.31C1878.22+1155.14+1886.83+1152.01+1900.56+1155.88C1905.83+1157.36+1907.68+1162.86+1912.81+1164.5C1919.28+1166.57+1931.06+1164.4+1936.12+1169.38L1936.97+1168.22C1933.85+1161.82+1921.74+1162.75+1915.88+1162C1909.99+1161.24+1907.96+1157.69+1903.03+1155.44C1891.53+1150.18+1878.84+1150.55+1866.97+1144.97ZM1719.31+1145.28L1718.5+1148.16C1718.3+1163.2+1731.98+1146.51+1739.16+1152.66C1742.42+1155.46+1742.38+1159.61+1747.19+1161.62C1754.95+1164.87+1763.61+1161.53+1771.25+1165C1776.09+1167.2+1771.94+1175.36+1779.06+1177.53C1787.12+1179.99+1795.38+1174.98+1803.28+1176.78C1810.6+1178.45+1814.09+1187.19+1821.81+1189.44L1822.38+1188.34C1816.31+1182.55+1809.54+1174.64+1800.91+1174C1794+1173.49+1785.58+1176.31+1778.81+1174.03C1774.19+1172.48+1775.99+1165.56+1771.78+1163.47C1764.35+1159.77+1755.99+1162.46+1748.41+1159.41C1744+1157.63+1743.16+1153.63+1739.75+1151C1729.53+1143.13+1720.46+1162.81+1719.31+1145.28ZM1855.53+1166.53C1853+1167+1846.61+1175.72+1845.91+1176.69C1837.04+1188.88+1828.69+1202.1+1825.97+1217.53C1825.36+1220.96+1825.18+1228.59+1828.19+1230.94L1828.41+1230.78C1819.64+1220.2+1838.5+1190.68+1844.25+1182.28C1845.35+1180.67+1854.72+1163.78+1856+1169.34L1856.41+1169.41C1856.78+1167.14+1856.37+1166.37+1855.53+1166.53ZM1859.38+1166.97L1859.12+1169.03C1883.75+1178.11+1914.35+1178.91+1937.72+1191.69C1937.76+1191.67+1938.1+1191.64+1938.09+1191.62C1936.57+1187.45+1924.48+1185.45+1921.28+1184.44C1900.7+1177.93+1879.72+1174.64+1859.38+1166.97ZM1937.72+1191.69C1937.4+1191.81+1936.29+1191.86+1935+1192C1936.76+1192.45+1938.96+1192.34+1938+1191.81C1937.91+1191.76+1937.81+1191.74+1937.72+1191.69ZM1935+1192C1934.06+1191.76+1933.23+1191.39+1933.12+1190.78C1932.97+1189.83+1931.89+1189.65+1930.78+1189.62C1930.88+1190.37+1931.26+1191.57+1932.94+1192.25C1933.11+1192.32+1934.02+1192.1+1935+1192ZM1930.78+1189.62C1930.73+1189.2+1930.69+1188.67+1930.75+1189.06C1930.77+1189.2+1930.58+1189.46+1930.56+1189.62C1930.64+1189.62+1930.7+1189.62+1930.78+1189.62ZM1930.56+1189.62C1930.05+1189.63+1929.51+1189.61+1929.09+1189.66C1925.34+1190.05+1920.39+1200.15+1918.47+1202.69C1910.39+1213.32+1903.3+1224.3+1899.78+1237.62C1898.66+1241.87+1895.47+1250.69+1900.5+1253.44L1901.06+1252.91C1897.4+1251.1+1901.27+1237.19+1902.25+1234.59C1907.22+1221.4+1916.08+1210.94+1923.69+1199.59C1924.71+1198.07+1930.2+1192.24+1930.56+1189.62ZM1708.5+1169.38L1708.28+1169.56C1708.39+1169.75+1708.76+1170.45+1708.91+1170.75C1708.78+1170.3+1708.63+1169.79+1708.5+1169.38ZM1708.91+1170.75C1710.2+1175.5+1711.08+1181.75+1716.75+1181.97C1720.11+1182.1+1723.82+1180.07+1726.72+1178.5C1727.62+1178.01+1729.54+1176.84+1730.31+1176.88C1728.97+1176.19+1718.92+1181.15+1717.09+1180.91C1713.32+1180.4+1710.33+1173.57+1708.91+1170.75ZM1730.31+1176.88C1730.57+1176.89+1730.7+1177.02+1730.62+1177.38C1730.07+1179.94+1727.86+1181.95+1727.94+1185C1728.27+1198.91+1750.55+1186.41+1756.12+1185.91C1758.41+1185.7+1754.91+1192.36+1754.81+1193.31C1754.43+1197+1756.21+1199.47+1759.28+1200.94C1767.95+1205.06+1776.9+1197.36+1785.22+1200.06C1777.37+1197.51+1768.82+1201.96+1761.06+1198.47C1755.66+1196.04+1759.79+1186.9+1756.94+1185.75C1751.79+1183.67+1741.59+1189.88+1735.81+1189.56C1726.1+1189.03+1733.25+1181.55+1730.62+1176.84C1730.6+1176.8+1730.36+1176.9+1730.31+1176.88ZM1872.91+1185.44C1871.87+1185.65+1870.86+1186.18+1869.94+1187.12L1870.19+1187.56C1872.99+1185.87+1875.04+1185.61+1876.59+1186.12C1875.42+1185.53+1874.17+1185.18+1872.91+1185.44ZM1876.59+1186.12C1877.2+1186.43+1877.79+1186.8+1878.31+1187.28C1877.85+1186.73+1877.28+1186.35+1876.59+1186.12ZM1878.31+1187.28C1879.19+1188.31+1879.73+1189.81+1879.91+1191.62C1879.53+1191.65+1878.99+1191.73+1878.53+1191.78C1878.14+1191.13+1877.36+1190.83+1876.31+1190.78C1876.71+1190.49+1877.51+1190.01+1877.47+1189.97C1877.25+1189.73+1876.86+1189.61+1876.38+1189.56C1876.45+1189.47+1876.59+1189.41+1876.66+1189.31C1877.11+1188.58+1876.41+1188.98+1875.44+1189.62C1874.43+1189.69+1873.15+1190.07+1871.81+1190.47C1871.99+1190.19+1872.19+1189.89+1872.09+1189.72C1870.82+1187.43+1860.13+1195.11+1860.56+1196.56C1860.64+1196.82+1860.94+1196.87+1861.16+1197C1861.39+1196.64+1862.3+1195.9+1862.88+1195.47C1862.1+1196.25+1861.79+1196.72+1862+1196.81C1862.02+1196.81+1861.79+1197.01+1861.84+1196.97C1861.92+1196.9+1862.01+1196.85+1862.09+1196.78C1862.32+1196.84+1863.2+1196.36+1863.97+1196C1865.1+1195.47+1866.16+1194.87+1867.62+1193.91C1867.69+1193.97+1867.79+1194.01+1867.88+1194.06C1868.25+1193.66+1868.94+1193.38+1869.78+1193.19C1869.22+1193.52+1868.68+1193.82+1868.09+1194.16C1868.13+1194.17+1868.15+1194.21+1868.19+1194.22C1868.03+1194.28+1867.89+1194.33+1867.81+1194.34C1866.58+1195.04+1865.41+1195.49+1864.16+1196.03C1864.26+1196.05+1864.41+1196.05+1864.53+1196.06C1864.33+1196.09+1864.14+1196.1+1864+1196.06C1863.27+1196.37+1862.54+1196.78+1861.84+1196.97C1861.69+1197.01+1861.52+1197.12+1861.38+1197.16C1862.37+1197.51+1864.3+1196.89+1866.44+1196.03C1866.51+1196.02+1866.61+1196.01+1866.69+1196C1860.6+1200.96+1855.28+1207.63+1863.16+1211.28C1871.68+1215.24+1879.31+1208.62+1881.19+1200.25C1883.67+1199.98+1885.89+1199.19+1884.66+1199.44C1884.24+1199.52+1883.4+1200.06+1882.66+1200.5C1882.2+1200.33+1882.14+1200.32+1882.5+1200.56C1881.22+1201.34+1880.36+1202.09+1882.94+1201.53L1883.03+1200.88C1884.07+1201.28+1885.51+1201.28+1885.25+1198.56C1885.15+1197.56+1883.36+1197.79+1881.5+1198.31C1881.52+1198.15+1881.52+1197.98+1881.53+1197.81C1882.06+1197.51+1882.49+1197.14+1882.88+1196.72C1883.52+1196.81+1883.96+1196.78+1883.59+1196.34C1883.5+1196.23+1883.34+1196.21+1883.22+1196.12C1883.48+1195.69+1883.77+1195.25+1883.81+1194.66C1883.82+1194.51+1882.43+1194.84+1881.66+1194.94C1881.64+1194.75+1881.52+1194.57+1881.5+1194.38C1882.22+1194.34+1882.68+1194.27+1882.22+1194.12C1882.13+1194.1+1881.65+1194.33+1881.5+1194.34C1881.46+1194.01+1881.34+1193.68+1881.28+1193.34C1881.7+1193.31+1881.9+1193.23+1881.47+1192.97C1881.42+1192.94+1881.25+1192.96+1881.19+1192.94C1881.17+1192.86+1881.14+1192.79+1881.12+1192.72C1881.35+1192.43+1881.48+1192.1+1881.44+1191.72C1881.43+1191.66+1881.03+1191.71+1880.88+1191.69C1880.76+1191.31+1880.77+1190.93+1880.62+1190.56C1880.12+1189.24+1879.28+1188.17+1878.31+1187.28ZM1861.38+1197.16C1861.28+1197.12+1861.23+1197.05+1861.16+1197C1861.06+1197.15+1861.09+1197.24+1861.31+1197.19C1861.33+1197.18+1861.35+1197.16+1861.38+1197.16ZM1864+1196.06C1864.05+1196.04+1864.11+1196.05+1864.16+1196.03C1864.1+1196.02+1864.02+1196.01+1863.97+1196C1863.99+1196.01+1863.97+1196.06+1864+1196.06ZM1867.81+1194.34C1867.92+1194.29+1867.99+1194.21+1868.09+1194.16C1868.02+1194.12+1867.94+1194.1+1867.88+1194.06C1867.85+1194.09+1867.8+1194.1+1867.78+1194.12C1867.6+1194.35+1867.67+1194.37+1867.81+1194.34ZM1871.28+1189.59C1871.72+1189.26+1870.76+1190.23+1870.22+1190.91C1869.55+1191.15+1869.02+1191.35+1868.38+1191.62C1869.35+1190.95+1870.36+1190.3+1871.28+1189.59ZM1878.12+1191.25C1877.89+1191.53+1877.45+1191.71+1877.09+1191.94C1876.77+1191.98+1876.61+1192.01+1876.28+1192.06C1877.38+1191.5+1878.65+1190.64+1878.12+1191.25ZM1871.09+1191.78C1870.72+1191.9+1870.61+1191.94+1870.28+1192.06C1870.33+1192.02+1870.36+1191.98+1870.41+1191.94C1870.64+1191.89+1870.86+1191.83+1871.09+1191.78ZM1868.97+1192.31C1868.6+1192.55+1868.2+1192.73+1867.81+1192.94C1867.75+1192.98+1867.18+1193.14+1867.19+1193.16C1867.19+1193.2+1867.24+1193.21+1867.25+1193.25C1866.41+1193.67+1865.61+1194.18+1864.78+1194.62C1864.97+1194.47+1865.15+1194.31+1865.34+1194.16L1865.16+1193.88C1865.56+1193.6+1865.94+1193.3+1866.34+1193.03C1867.13+1192.74+1868.02+1192.52+1868.97+1192.31ZM1880+1193.41C1880+1193.73+1879.89+1194.11+1879.88+1194.44C1879.71+1194.45+1879.46+1194.46+1879.34+1194.47C1878.48+1194.55+1877.1+1194.56+1875.78+1194.62C1877.23+1194.37+1878.72+1194.02+1880+1193.41ZM1879.81+1194.88C1879.8+1194.98+1879.76+1195.08+1879.75+1195.19C1879.7+1195.2+1879.7+1195.18+1879.66+1195.19C1879.36+1195.18+1879.23+1195.15+1878.91+1195.16C1879.28+1195.01+1879.47+1194.99+1879.81+1194.88ZM1870.88+1195.19C1870.29+1195.58+1869.96+1195.94+1870.31+1196.22C1870.48+1196.35+1870.76+1196.36+1870.97+1196.44C1871+1196.47+1871+1196.55+1871.12+1196.5C1872.03+1196.79+1873.12+1196.83+1874.31+1196.66C1874.39+1196.71+1874.42+1196.84+1874.5+1196.88C1874.5+1196.87+1874.53+1196.88+1874.53+1196.88C1875.87+1197.45+1878.06+1196.5+1879.44+1196.28C1879.47+1196.28+1879.55+1196.32+1879.59+1196.31C1879.59+1196.37+1879.57+1196.42+1879.56+1196.47C1877.68+1197.32+1876.04+1198.71+1876.59+1199.38C1877.07+1199.95+1877.9+1200.24+1878.84+1200.34C1876.36+1208.82+1870.1+1216.58+1863.22+1209.47C1859.65+1205.78+1863.49+1200.1+1867.91+1195.75C1868.89+1195.58+1869.82+1195.47+1870.88+1195.19ZM1879.22+1198.91C1879.2+1199+1879.21+1199.09+1879.19+1199.19C1878.61+1199.42+1877.61+1199.7+1877.44+1199.81C1877.36+1199.86+1877.58+1199.7+1877.66+1199.66C1878.11+1199.39+1878.68+1199.14+1879.22+1198.91ZM1786.44+1200.84C1788.3+1203.18+1783.84+1208.78+1787.03+1211.62C1791.2+1215.34+1799.04+1211.31+1803.66+1211.59C1808.17+1211.87+1810.18+1216.05+1814.62+1215.59L1814.66+1214.88C1810.29+1213.87+1808.45+1210.48+1803.53+1210.06C1798.87+1209.67+1793.8+1211.95+1789.25+1210C1785.84+1208.54+1788.63+1203.11+1786.44+1200.84ZM1862.03+1216.62C1861.88+1217.17+1861.59+1217.6+1861.38+1218.09C1861.71+1217.86+1862.31+1217.35+1862.5+1217.25L1862.03+1216.62ZM1861.38+1218.09C1857.81+1220.64+1847.24+1230.23+1849.06+1231.69L1849.66+1231.47C1849.23+1232.12+1852.44+1228.37+1853.06+1227.75C1856.1+1224.71+1859.66+1222.12+1861.38+1218.09ZM1862.75+1218.88C1855.7+1235.65+1856.63+1229.29+1856.09+1235.44C1848.88+1234.11+1841.08+1233.07+1829.69+1231.19L1829.53+1232.47C1849.72+1236.34+1862.28+1237.88+1879.41+1243.78L1879.97+1242.06C1870.73+1238.6+1863.77+1236.85+1856.12+1235.44C1857.16+1229.5+1860.38+1226.1+1863.62+1219.38L1862.75+1218.88ZM1861.75+1224.16C1861.94+1227.26+1862.12+1230.36+1862.31+1233.47L1862.88+1233.5C1863.2+1230.43+1863.52+1227.38+1863.84+1224.31L1861.75+1224.16Z" stroke="#000000" stroke-width="1" fill="#000000" opacity="1" stroke-linejoin="round"/>
</g>
</svg>
