<?xml version="1.0" encoding="UTF-8" standalone="no"?> <!-- Created with Vectornator Pro for iOS (http://vectornator.io/) --><!DOCTYPE svg PUBLIC "-//W3C//DTD SVG 1.1//EN" "http://www.w3.org/Graphics/SVG/1.1/DTD/svg11.dtd">
<svg height="100%" style="fill-rule:evenodd;clip-rule:evenodd;stroke-linecap:round;stroke-linejoin:round;" xmlns:xlink="http://www.w3.org/1999/xlink" xmlns="http://www.w3.org/2000/svg" xml:space="preserve" width="100%" xmlns:vectornator="http://vectornator.io" version="1.1" viewBox="0 0 3840 2160">
<metadata>
<vectornator:setting key="RulersVisible" value="1"/>
<vectornator:setting key="SnapToEdges" value="0"/>
<vectornator:setting key="Units" value="Pixels"/>
<vectornator:setting key="DynamicGuides" value="0"/>
<vectornator:setting key="SnapToPoints" value="0"/>
<vectornator:setting key="CMYKEnabledKey" value="0"/>
<vectornator:setting key="SnapToGrid" value="0"/>
<vectornator:setting key="ShowGrid" value="1"/>
<vectornator:setting key="GridSpacing" value="36"/>
</metadata>
<defs/>
<g id="Layer 1" vectornator:layerName="Layer 1">
<path d="M1819.25+899.625C1816.76+900.33+1814.22+905.388+1811.59+911.156C1811.63+911.161+1811.75+911.083+1811.78+911.094C1811.78+911.098+1811.72+911.213+1811.72+911.219C1811.67+911.22+1811.64+911.152+1811.59+911.156C1811.57+911.158+1811.55+911.154+1811.53+911.156C1811.45+911.336+1811.39+911.537+1811.31+911.719C1810.89+912.607+1807.08+917.092+1801.28+923.188C1804.07+919.006+1807.42+914.241+1809.69+912.188C1806.81+914.211+1803.08+919.377+1799.91+924.594C1793.88+930.799+1786.39+937.886+1777.31+944.75C1766.69+950.829+1756.31+956.772+1745.78+963.156C1730.13+968.673+1714.86+974.391+1702.41+982.062C1691.79+988.604+1683.29+995.896+1675.81+1003.69L1675.47+1003.19C1670.36+1007.52+1665.51+1012.38+1660.91+1017.53C1659.59+1018.37+1658.28+1019.21+1656.97+1020.06C1650.6+1024.18+1646.94+1032.08+1640.44+1035.72L1640.5+1035.84C1647.09+1032.46+1650.81+1024.44+1657.16+1020.38C1658.1+1019.77+1659.05+1019.2+1660+1018.59C1656.67+1022.37+1653.57+1026.45+1650.41+1030.5C1622.62+1054.17+1595.13+1079.86+1609.12+1080.28C1586.49+1107.73+1569.36+1136.29+1575.59+1155.12C1572.95+1154.22+1572.36+1154.05+1569.38+1153.03C1570.58+1154.05+1571.75+1154.94+1572.84+1155.38C1573.96+1155.82+1575.1+1156.22+1576.22+1156.66C1576.68+1157.55+1577.18+1158.45+1578.12+1159.47C1571.36+1155.61+1566.23+1152.67+1564.09+1151.25C1562.57+1150.74+1559.27+1149.57+1559.28+1149.59C1560.06+1152.6+1574.37+1160.34+1589.56+1167.88C1592.97+1170.07+1596.34+1172.23+1600.72+1174.62C1601.53+1175.13+1602.34+1175.62+1603.19+1176.09C1594.57+1174.57+1584.59+1172.99+1580.28+1172.19C1580.31+1173.55+1600.27+1179.43+1623.56+1186.06C1657.57+1202+1698.52+1217.5+1720.38+1224.41C1726.09+1226.75+1731.86+1228.85+1737.59+1231.12C1745.68+1235.57+1753.5+1241.86+1761.94+1244.19C1797.31+1253.93+1833.38+1270.84+1868.31+1286.91C1877.22+1291.52+1885.89+1295.76+1893.88+1299.19C1886.33+1295.9+1878.03+1291.83+1869.5+1287.47C1880.27+1292.42+1891.43+1297.63+1901.78+1302.06C1906.07+1303.9+1910.68+1305.23+1915.47+1306.19C1915.59+1306.28+1915.69+1306.41+1915.81+1306.5C1914.01+1306.1+1912.59+1306.1+1910.59+1305.5C1912.83+1306.2+1914.93+1306.79+1916.88+1307.22C1918.42+1308.23+1920.08+1309.11+1921.97+1309.81C1940.86+1316.86+1959.78+1310.62+1978+1301.41C2027.96+1288.18+2081.21+1258.93+2120.66+1236.94C2140.72+1229.31+2160.7+1221.52+2180.38+1213.06C2161.56+1221.08+2142.44+1228.38+2123.25+1235.53C2131.23+1231.08+2140.99+1225.66+2147.34+1222.22C2166.13+1212.04+2218.05+1186.1+2249.47+1163.72C2252.06+1162.35+2254.73+1161.03+2257.31+1159.66L2256.88+1158.69C2256.35+1158.97+2255.78+1159.19+2255.25+1159.47C2264.49+1152.39+2271.51+1145.78+2273.81+1140.38L2273.56+1140.19C2270.05+1147.07+2259.36+1155.52+2245.88+1164.31C2203.45+1186.84+2160.09+1207.74+2116.72+1228.09C2091.77+1239.8+2067.85+1253.24+2043.41+1265.25C2020.21+1274.03+1997.2+1283.24+1974.69+1293.72C1965.01+1294.86+1955.34+1296.03+1946.19+1298.62C1938.16+1300.9+1929.91+1301.03+1921.59+1300.34C1921.12+1299.69+1920.65+1299.1+1920.22+1298.41C1921.97+1298.69+1923.71+1299.04+1925.47+1299.25C1923.7+1299.04+1921.98+1298.64+1920.22+1298.34C1918.84+1296.1+1917.57+1293.71+1916.66+1291.09C1917.15+1291.25+1917.66+1291.41+1918.16+1291.56L1918.25+1291.41C1917.7+1291.24+1917.15+1291.02+1916.59+1290.84C1916.21+1289.74+1916.05+1288.55+1915.75+1287.41C1916.43+1287.73+1917.45+1288.06+1918.09+1288.38C1917.41+1288.03+1916.47+1287.69+1915.75+1287.34C1913.02+1276.84+1913.46+1264.88+1917.47+1256.09L1916.88+1255.72C1912.67+1264.55+1912.03+1276.33+1914.5+1286.78C1911.7+1285.47+1908.81+1284.18+1905.62+1282.88C1902.63+1253.2+1928.39+1209.31+1941.31+1190.66C1943.58+1187.39+1946.02+1184.29+1948.47+1181.16C1940.57+1190.36+1933.09+1199.96+1926.09+1210C1916.5+1223.77+1902.8+1257.55+1904.66+1282.5C1899.8+1280.53+1897.27+1279.51+1892.28+1277.72C1896.9+1279.41+1900.42+1281.14+1904.69+1282.88C1904.8+1284.25+1904.94+1285.59+1905.16+1286.91C1887.29+1280.59+1869.6+1272.65+1852+1264.25C1855.79+1265.42+1861.32+1267.14+1867.91+1269.28C1866.22+1268.71+1861.93+1267.2+1861.22+1266.97C1857.15+1265.63+1853.1+1264.19+1849.03+1262.84C1821.19+1249.45+1793.57+1235.02+1766+1223.31C1732.54+1209.1+1697.9+1198.2+1663.56+1186.66C1682.45+1183.74+1704.05+1174.99+1720.03+1165.56C1746.88+1149.73+1769.41+1124.47+1794.09+1105.09L1793.62+1104.34C1767.29+1121.46+1746+1146.47+1718.44+1161.75C1697.65+1173.27+1672.98+1180.56+1650.75+1182.31C1633.38+1176.33+1616.07+1170.12+1599.19+1162.97L1598.94+1163.91C1596.47+1162.91+1593.98+1161.96+1591.5+1161C1589.76+1157.36+1588.99+1153.09+1588.75+1148.44C1588.81+1148.32+1589.07+1148.14+1589.09+1148.06C1589.71+1145.62+1589.39+1144.93+1588.81+1144.69C1589.05+1138.51+1590.53+1131.56+1593.62+1123.69C1595.3+1121.62+1596.43+1120.38+1599+1116.94C1596.5+1120.29+1595.35+1121.46+1593.69+1123.5C1594.44+1121.59+1595.44+1119.54+1596.38+1117.53C1595.81+1118.44+1595.29+1119.26+1594.72+1120.19C1594.92+1119.77+1594.95+1119.51+1595.16+1119.09C1594.63+1120.1+1594.01+1121.1+1593.5+1122.09C1592.31+1124.03+1591.28+1125.57+1590.06+1127.56C1589.82+1127.96+1589.73+1128.32+1589.5+1128.72C1588.89+1129.34+1588.5+1129.62+1588.12+1129.88C1588.85+1127.16+1589.29+1125.78+1589.84+1123.81C1590.69+1122.1+1591.78+1120.02+1593+1117.78C1608.22+1092.64+1624.24+1064.91+1645+1043.28C1645.24+1043.17+1645.52+1042.93+1645.75+1042.84C1645.57+1042.9+1645.37+1043.03+1645.19+1043.09C1645.7+1042.56+1646.2+1042.03+1646.72+1041.5C1646.4+1041.96+1646.07+1042.38+1645.75+1042.84C1639.34+1052.13+1632.63+1061.53+1624.62+1071.06C1617.05+1080.08+1608.62+1094.24+1601.12+1108.22C1599.28+1111.48+1597.79+1114.51+1596.38+1117.53C1608.27+1098.39+1619.3+1081.64+1629.91+1067.22C1623.11+1075.72+1616.47+1084.59+1609.94+1094.03C1616.43+1083.84+1622.45+1074.94+1625.22+1071.62C1633.74+1061.46+1640.32+1051.95+1646.5+1042.72C1646.64+1042.68+1646.77+1042.69+1646.91+1042.66C1646.77+1042.67+1646.64+1042.63+1646.5+1042.66C1647.11+1041.75+1647.74+1040.9+1648.34+1040C1653.6+1034.82+1659.17+1030.13+1665.09+1025.91C1652.98+1038.09+1641.49+1051.46+1629.91+1067.22C1644.18+1049.35+1659.2+1033.53+1675.06+1019.03C1709.12+997.076+1743.28+974.573+1777.44+952.219C1777.57+952.152+1777.71+952.098+1777.84+952.031C1796.38+944.578+1813.69+935.778+1826.03+922.469L1825.97+922.344C1814.71+934.361+1799.41+942.649+1782.81+949.531C1793.36+943.895+1802.92+937.8+1810.28+930.812C1813.84+928.511+1817.38+926.166+1820.94+923.875L1820.75+923.688C1824.78+921.275+1828.4+918.736+1830.66+915.875C1850.1+916.91+1884.29+928.805+1911.84+938.344L1911.84+938.469C1963.98+955.063+2014.3+975.792+2066.31+992.188C2063.71+991.586+2060.92+990.779+2058.34+990.219L2057.91+992.375C2096.91+1001.31+2143.51+1017.86+2184.41+1018.09C2183.16+1018.76+2183.99+1018.27+2182.47+1019.09L2182.47+1019.16C2184.06+1018.31+2183.4+1018.8+2184.66+1018.16C2185.4+1018.16+2186.13+1018.16+2186.88+1018.16C2182.35+1020.82+2177.81+1023.15+2172.06+1026.12C2171.2+1026.35+2169.15+1026.85+2168.91+1026.94C2169.46+1026.41+2170.12+1025.95+2170.62+1025.41C2172.5+1024.93+2173.77+1024.21+2173.16+1022.75C2173.16+1022.69+2173.29+1022.66+2173.25+1022.59C2173.23+1022.55+2173.13+1022.57+2173.09+1022.53C2173.05+1022.46+2173.08+1022.42+2173.03+1022.34C2173.02+1022.32+2172.83+1022.48+2172.81+1022.47C2171.13+1021.56+2164.47+1024.67+2158.84+1027.97C2160.96+1027+2163.87+1026.6+2166.56+1026.25C2165.33+1027.15+2163.8+1028.28+2163.47+1028.47C2161.16+1029.82+2158.92+1030.9+2156.66+1032.16C2155.61+1032.6+2154.58+1033.05+2153.53+1033.5C2153.83+1033.15+2154.5+1032.71+2154.5+1032.47C2154.5+1032.53+2153.8+1032.88+2153.75+1032.97C2155.08+1031.42+2156.48+1029.75+2156.72+1029.47C2156.98+1029.15+2157.39+1028.94+2157.75+1028.69C2153.6+1031.21+2150.13+1033.7+2150.72+1034.31C2150.86+1034.46+2151.57+1034.2+2151.84+1034.25C2148.45+1035.74+2144.98+1037.09+2141.62+1038.66C2139.88+1039.27+2138.25+1040.2+2136.53+1040.88C2137.44+1040.54+2138.36+1040.23+2139.28+1039.91C2131.47+1043.62+2123.72+1047.58+2116.03+1052C2118.51+1050.26+2120.83+1048.47+2123.25+1046.72C2127.56+1044.53+2132.04+1042.63+2136.53+1040.88C2132.14+1042.51+2127.8+1044.38+2123.59+1046.47C2129.92+1041.87+2136.22+1037.24+2142.06+1032.47C2126.71+1042.02+2111.03+1051.89+2095.44+1061.88C2105.87+1054.38+2116.31+1046.88+2126.62+1039.41L2126.41+1038.84C2112.49+1048.66+2098.58+1058.74+2084.62+1068.69C2104.24+1050.7+2128.57+1035.8+2149.5+1020.81L2149.12+1019.69C2127.77+1034.94+2103.58+1050.5+2083.94+1069.12C2070.79+1077.69+2057.82+1086.63+2044.97+1095.81C2041.7+1097.94+2038.48+1100.12+2035.19+1102.19C2035.7+1101.76+2036.28+1101.33+2036.78+1100.91L2035.97+1099.62C2015.13+1117.86+1983.98+1137.56+1965.53+1161.88C1959.55+1168.07+1953.73+1174.41+1948.47+1181.16C1952.59+1176.35+1957.13+1171.94+1961.47+1167.34C1960.34+1169.06+1959.48+1170.86+1958.5+1172.62C1956.76+1174.79+1955.09+1176.97+1953.41+1179.19C1954.95+1177.32+1956.42+1175.35+1957.97+1173.53C1956.77+1175.77+1955.43+1177.96+1954.5+1180.28C1956.39+1176.73+1958.6+1173.36+1960.91+1170.03C1965.89+1164.3+1970.85+1158.9+1975.44+1153.94L1975.03+1153.34C1970.29+1158.38+1965.86+1163.81+1961.41+1169.22C1964.61+1164.67+1968.13+1160.3+1971.94+1156.09C1978.8+1149.31+1985.96+1142.87+1993.22+1136.5C1990.54+1138.7+1987.7+1140.77+1985.09+1143.03C1998.04+1131.18+2012.16+1120.5+2025.44+1110C2028.08+1107.91+2030.75+1105.76+2033.28+1103.69C2035.47+1102.37+2037.63+1100.92+2039.81+1099.56C2035.02+1103.04+2030.14+1106.41+2025.44+1110C2014.37+1118.44+2003.67+1127.33+1993.22+1136.5C2024.77+1110.61+2060.73+1088.69+2094.22+1066.66C2100.47+1063.03+2110.79+1057.82+2120.62+1052.72C2111.02+1057.84+2102.03+1062.54+2097.44+1064.56C2103.6+1060.48+2109.72+1056.36+2115.62+1052.22C2120.27+1050.58+2124.86+1048.48+2129.47+1046.53L2130+1047.94C2138.07+1044.31+2148.93+1040.14+2158.31+1034.75C2178.23+1030.15+2198.88+1027.87+2218.75+1025.47C2222.96+1024.96+2234.78+1023.27+2242.84+1022.75C2231.24+1022.34+2220.84+1023.71+2209.31+1025.03C2193.35+1026.87+2177.14+1029.22+2161.31+1033.03C2162.11+1032.52+2162.99+1032.06+2163.75+1031.53C2165.6+1030.72+2167.46+1029.81+2169.31+1029.03C2171.83+1027.98+2192.62+1024.67+2193+1021.78C2193.22+1020.09+2191.33+1021.22+2189.75+1022.34C2190.26+1021.97+2190.74+1021.58+2191.22+1021.28C2191.07+1021.32+2190.11+1021.58+2189.84+1021.66L2189.56+1021.03C2189.1+1021.58+2189.22+1021.55+2188.94+1021.91C2185.31+1022.84+2179.88+1024.2+2174.41+1025.59C2179.71+1022.76+2183.88+1020.48+2187.62+1018.16C2189.35+1018.13+2191.14+1018.25+2192.84+1018.16L2192.84+1017.84C2191.44+1017.77+2190+1017.6+2188.59+1017.5C2189.59+1016.87+2190.17+1016.42+2190.88+1015.94C2212.93+1020.23+2235.68+1023.5+2257.16+1015.94L2257.03+1015.59C2235.19+1019.62+2214.17+1017.84+2192.88+1014.59C2193.33+1014.22+2193.99+1013.87+2193.88+1013.81C2193.64+1013.98+2192.91+1014.33+2192.59+1014.53C2192.5+1014.52+2192.41+1014.55+2192.31+1014.53C2192.49+1014.49+2193.82+1013.79+2193.88+1013.81C2195.06+1012.98+2193.1+1013.93+2191.81+1014.47C2184.64+1013.36+2177.44+1012.05+2170.16+1010.78L2169.94+1011.84C2176.31+1013.02+2182.85+1014.37+2189.41+1015.66C2188.38+1016.15+2187.82+1016.37+2186.12+1017.25C2151.53+1014.34+2115.7+1004.4+2081.06+995.812C2031.3+978.395+1981.64+959.935+1931.53+943.75C1904.78+934.415+1855.48+916.581+1831.16+915.219C1831.52+914.702+1832.03+914.219+1832.31+913.688C1832.6+913.147+1831.57+913.396+1830.47+913.75C1829.99+914.199+1830.07+914.314+1829.22+914.969C1828.49+914.953+1827.88+915.01+1827.22+915.031C1828.56+914.424+1829.61+914.025+1830.47+913.75C1831.06+913.2+1832.14+912.394+1831.97+912.281C1831.78+912.156+1830.95+912.527+1830.38+912.75C1832.29+911.508+1837.66+908.83+1835.5+908.219C1835.33+908.171+1834.6+908.602+1834.25+908.719C1833.05+909.757+1831.05+911.201+1829.84+911.969C1828.31+912.945+1826.67+914.078+1824.94+915.156C1824.41+915.217+1823.79+915.251+1823.31+915.344C1828.62+911.701+1832.46+909.308+1834.25+908.719C1834.92+908.136+1835.81+907.389+1835.06+907.656C1830.48+909.301+1825.88+912.51+1821.31+916.062C1820.85+916.246+1820.28+916.327+1819.91+916.562L1819.66+917.062C1819.82+916.991+1820.08+917.003+1820.25+916.938C1819.76+917.331+1819.24+917.69+1818.75+918.094C1819.01+918.075+1819.17+918.132+1819.38+918.156C1820.1+917.652+1820.97+917.039+1821.66+916.562C1822.31+916.387+1822.88+916.109+1823.62+916C1822.33+916.832+1821+917.621+1819.91+918.469C1819.88+918.413+1819.9+918.321+1819.84+918.281C1819.91+918.406+1819.26+918.825+1819.16+919.031C1819.15+919.039+1819.17+919.086+1819.16+919.094C1817.49+919.972+1815.58+920.873+1814.84+921.281C1814.62+921.438+1814.44+921.624+1814.22+921.781C1814.32+921.69+1814.39+921.56+1814.5+921.469C1814.33+921.564+1813.45+922.052+1813.38+922.094C1812.84+922.406+1811.46+923.703+1810.78+924.188C1808.07+926.119+1805.82+927.594+1803+929.594C1804.07+928.329+1805.14+927.259+1806.09+925.781C1810.09+923.562+1814.23+921.184+1815.84+920.438C1816.82+919.61+1817.77+918.892+1818.75+918.094C1817.68+918.17+1816.23+918.564+1815.5+918.906C1813.49+919.844+1811.23+921.338+1809.06+922.594C1808.48+922.93+1807.96+923.21+1807.38+923.562C1807.4+923.52+1807.38+923.48+1807.41+923.438C1807.98+922.995+1808.53+922.69+1809.06+922.594C1808.57+922.672+1808.04+922.847+1807.53+923.188C1808.95+920.72+1810.21+918.556+1811.31+916.438C1811.49+916.214+1811.63+916.073+1811.81+915.844C1812.34+915.138+1812.85+914.504+1813.09+913.875C1814.08+912.486+1814.99+910.999+1815.84+909.438C1819.2+905.039+1823.66+899.761+1820.28+900.719C1820.2+900.743+1820.09+900.931+1820+900.969C1820.2+900.029+1820.15+899.37+1819.25+899.625ZM1815.84+920.438C1815.41+920.808+1814.93+921.094+1814.5+921.469C1814.55+921.44+1814.78+921.314+1814.84+921.281C1815.6+920.748+1816.36+920.263+1817.09+919.75C1816.94+919.813+1816.05+920.341+1815.84+920.438ZM1817.09+919.75C1817.42+919.613+1819.75+918.186+1819.78+918.219C1819.68+918.167+1819.53+918.175+1819.38+918.156C1818.65+918.661+1817.84+919.221+1817.09+919.75ZM2242.84+1022.75C2244.04+1022.67+2244.87+1022.71+2245.78+1022.72C2245.76+1022.71+2245.74+1022.69+2245.72+1022.69C2244.71+1022.62+2243.83+1022.78+2242.84+1022.75ZM2245.78+1022.72C2245.91+1022.75+2246.09+1022.85+2246.22+1022.88C2243.49+1023.64+2240.36+1025.28+2237.75+1025.72C2241.99+1025.23+2251.1+1026.9+2250.91+1024.06C2250.89+1023.99+2251.02+1024.03+2250.97+1023.94C2250.95+1023.91+2250.92+1023.9+2250.91+1023.88C2250.86+1023.65+2250.9+1023.46+2250.75+1023.19C2250.67+1023.04+2249.75+1023.1+2249.47+1023C2248.79+1022.69+2248.07+1022.54+2247.19+1022.69C2246.78+1022.68+2246.22+1022.72+2245.78+1022.72ZM2237.75+1025.72C2237.66+1025.73+2237.49+1025.71+2237.41+1025.72L2237.41+1025.84C2237.51+1025.83+2237.65+1025.74+2237.75+1025.72ZM1953.41+1179.19C1948.76+1184.82+1944.34+1190.54+1940.06+1196.5C1940.68+1195.87+1941.29+1194.92+1941.91+1194.41C1942.24+1194.13+1942.47+1194.05+1942.59+1194.16C1940.89+1195.65+1939.27+1197.74+1937.66+1200C1938.46+1198.84+1939.23+1197.66+1940.06+1196.5C1937.42+1199.2+1934.89+1202.86+1932.5+1207.28C1933.56+1205.6+1934.87+1203.99+1936+1202.31C1934.79+1204.22+1933.63+1206.48+1932.5+1208.72C1934.84+1205.41+1938.1+1200.77+1938.59+1200C1939.84+1198.07+1941.3+1196.26+1942.59+1194.34C1943.31+1195.91+1937.14+1209.28+1930.97+1220C1934.3+1215.01+1937.46+1209.85+1939.91+1204.72C1941.48+1201.43+1945.44+1191.96+1943+1193.78C1946.35+1188.83+1949.78+1183.95+1953.41+1179.19ZM1930.97+1220C1928.86+1223.15+1926.76+1226.33+1924.56+1229.09C1926.86+1221.61+1929.48+1214.7+1932.5+1208.72C1931.35+1210.35+1930.83+1211.09+1929.53+1213C1927.07+1218.46+1924.91+1224.64+1923+1231.06C1922.15+1232.2+1921.34+1233.12+1920.56+1232.66C1921.1+1232.98+1921.78+1232.8+1922.66+1232.09C1916.64+1252.87+1913.95+1276.13+1917.91+1288.12C1917.95+1288.26+1918.05+1288.26+1918.09+1288.38C1918.67+1289.8+1919.56+1290.19+1920.56+1289.75C1923.2+1291.15+1925.76+1292.51+1927.41+1293.78C1925.74+1292.44+1923.61+1291.08+1920.91+1289.62C1924.58+1287.47+1929.71+1276.6+1929.59+1273.72C1929.49+1276.3+1923.13+1288.53+1919.97+1289.19C1919.7+1289.05+1919.28+1288.89+1919+1288.75C1918.83+1288.55+1918.61+1288.51+1918.5+1288.12C1914.86+1275.61+1917.84+1251.54+1924.16+1230.38C1926.14+1228.17+1928.52+1224.25+1930.97+1220ZM1927.41+1293.78C1928.44+1294.57+1929.24+1295.36+1929.78+1296.09C1929.22+1295.36+1928.4+1294.58+1927.41+1293.78ZM1929.53+1213C1930.48+1210.9+1931.49+1209.15+1932.5+1207.28C1930.07+1211.12+1927.83+1215+1925.81+1218.84C1927.26+1216.5+1927.97+1215.3+1929.53+1213ZM1925.81+1218.84C1922.6+1224.03+1920.1+1228.79+1920.09+1231.22C1920.26+1230.21+1920.96+1229.01+1921.34+1228.09C1922.64+1225.01+1924.18+1221.95+1925.81+1218.84ZM1920.09+1231.22C1920.02+1231.64+1920.05+1232.02+1920.25+1232.34C1920.07+1232.08+1920.09+1231.64+1920.09+1231.22ZM1920.25+1232.34C1920.28+1232.39+1920.25+1232.49+1920.28+1232.53C1920.29+1232.55+1920.3+1232.52+1920.31+1232.53C1920.27+1232.48+1920.28+1232.4+1920.25+1232.34ZM2157.75+1028.69C2158.15+1028.45+2158.43+1028.21+2158.84+1027.97C2158.42+1028.16+2158.1+1028.44+2157.75+1028.69ZM1646.91+1042.66C1647.65+1042.56+1648.4+1042.42+1649.03+1042.59L1648.5+1042.34C1648.02+1042.3+1647.46+1042.54+1646.91+1042.66ZM1580.28+1172.19C1580.28+1172.02+1581.83+1172.19+1582.53+1172.19C1579.62+1171.88+1578.36+1171.83+1580.28+1172.19ZM1582.53+1172.19C1583.99+1172.34+1583.45+1172.25+1586.59+1172.62L1586.59+1172.44C1583.89+1172.04+1583.55+1172.19+1582.53+1172.19ZM1564.09+1151.25C1565.73+1151.8+1566.83+1152.12+1569.31+1152.97C1565.62+1149.83+1561.73+1145.46+1559.97+1148.78C1559.94+1148.84+1563.46+1150.83+1564.09+1151.25ZM1830.25+912.812C1829.12+913.545+1827.9+914.295+1826.69+915.031C1826.51+915.04+1826.36+915.082+1826.19+915.094C1827.96+913.975+1829.27+913.212+1830.25+912.812ZM1828.03+915.844C1825.29+917.884+1822.72+919.629+1819.31+921.906L1818.56+920.938C1818.78+920.602+1819.05+920.277+1819.25+919.938C1819.5+919.755+1819.75+919.557+1820+919.375C1821.64+918.166+1823.51+917.012+1825.38+915.875C1826.21+915.81+1827.11+915.845+1828.03+915.844ZM1825.22+915.875C1824.71+916.122+1824.37+916.302+1823.84+916.562C1824.25+916.294+1824.5+916.186+1824.88+915.938C1824.98+915.927+1825.11+915.884+1825.22+915.875ZM1806.44+921.719C1805.84+922.963+1805.25+924.007+1804.62+925.156C1803.18+926.083+1801.97+926.927+1800.56+927.906C1800.37+927.932+1800.16+927.981+1799.97+927.969C1800.12+927.995+1800.28+928.034+1800.44+928.031C1798.98+929.052+1797.67+930.09+1796.31+931.125C1796.68+930.487+1796.93+929.854+1797.06+929.625C1797.7+929.015+1798.29+928.493+1798.94+927.875C1799.09+927.974+1799.25+927.842+1799.41+927.906C1799.41+927.753+1802.48+925.57+1806.44+921.719ZM1799.41+927.906C1799.41+927.91+1799.25+928.03+1799.25+928.031C1799.5+928.121+1799.72+927.953+1799.97+927.969C1799.78+927.936+1799.6+927.987+1799.41+927.906ZM1803.47+927.25C1802.84+928.301+1802.28+929.69+1801.62+930.562C1801.19+930.87+1800.81+931.1+1800.38+931.406C1798.44+932.511+1796.48+933.674+1794.53+934.781C1794.5+934.681+1794.97+933.717+1795.16+933.25C1794.84+933.899+1794.24+934.884+1794.38+934.906C1791.7+936.424+1789.03+938.004+1786.34+939.531C1788.26+937.824+1790.21+935.918+1792.12+934.125C1793.03+933.372+1794.23+932.614+1795.22+931.844C1794.23+932.461+1793.73+932.951+1792.78+933.562C1794.14+932.285+1795.49+931.067+1796.88+929.75C1795.85+931.639+1795.53+932.328+1795.16+933.25C1795.55+932.437+1795.72+932.165+1796.25+931.25C1799.6+929.19+1800.26+929.076+1803.47+927.25ZM1742.41+965.25C1737.4+968.314+1732.51+971.455+1727.59+974.625C1727.24+974.86+1726.85+975.14+1726.5+975.375C1719.76+979.739+1713.18+984.2+1706.69+988.812C1699.35+993.371+1692.12+998.082+1684.78+1002.62C1688.6+999.518+1694.37+994.889+1695.59+993.781L1695.19+993.312C1693.48+994.822+1686.54+1000.37+1680.22+1005.5C1675.82+1008.23+1671.41+1010.98+1667.03+1013.75C1676.04+1002.82+1686.9+992.552+1702.88+982.812C1714.31+975.838+1728.14+970.438+1742.41+965.25ZM1700.81+993.188C1695.12+997.371+1689.21+1001.38+1683.81+1005.81C1677.25+1011.19+1665.55+1021.51+1652.22+1034.25C1654.57+1030.76+1656.95+1027.12+1659.38+1023.75C1668.71+1015.98+1675.42+1010.27+1682.03+1004.91C1688.31+1001.03+1694.53+997.064+1700.81+993.188ZM1673.12+1006.69C1670.93+1009.09+1668.72+1011.51+1666.69+1014C1665.91+1014.49+1665.12+1014.97+1664.34+1015.47C1667.17+1012.4+1670.11+1009.47+1673.12+1006.69ZM1677.53+1007.72C1672.41+1011.88+1667.38+1016.23+1661.16+1021.41C1662.83+1019.15+1664.55+1016.92+1666.34+1014.72C1670.06+1012.38+1673.8+1010.03+1677.53+1007.72ZM1665.97+1014.97C1664.08+1017.32+1662.21+1019.67+1660.41+1022.09C1658.47+1023.71+1656.6+1025.27+1654.62+1026.94C1657.5+1023.36+1660.41+1019.84+1663.44+1016.5C1664.27+1015.97+1665.14+1015.49+1665.97+1014.97ZM2189.75+1015.72C2190.02+1015.77+2190.26+1015.82+2190.53+1015.88C2189.67+1016.41+2189.13+1016.78+2188.03+1017.44C2187.5+1017.4+2186.94+1017.36+2186.41+1017.31C2187.94+1016.55+2188.91+1016.08+2189.75+1015.72ZM2188.72+1023C2188.1+1023.49+2187.88+1023.57+2188.12+1023.31C2188.29+1023.22+2188.42+1023.21+2188.72+1023ZM1658.75+1024.31C1656.06+1027.99+1653.41+1031.86+1650.78+1035.66C1647.38+1038.93+1643.86+1042.41+1640.31+1045.97C1640.04+1046.17+1639.75+1046.44+1639.47+1046.66C1643.77+1040.75+1648.22+1035.08+1652.69+1029.41C1654.78+1027.64+1656.69+1026.03+1658.75+1024.31ZM1648.5+1032.91C1644.34+1038.33+1640.21+1043.7+1636.19+1049.28C1631.61+1053.46+1626.65+1059.19+1621.56+1065.78C1617.27+1070.53+1613.28+1075.27+1609.25+1080.16C1595.82+1080.01+1621.51+1055.9+1648.5+1032.91ZM2168.75+1036.28C2141.55+1047.02+2116.28+1060.1+2090.12+1073.34L2090.34+1073.84C2116.74+1061.46+2142.15+1048.28+2169.25+1037.56L2168.75+1036.28ZM2192+1049.62C2089.66+1066.5+1979.69+1151.83+1934.09+1252.56L1934.34+1252.69C1983.01+1151.22+2087.55+1069.93+2192.03+1049.78L2192+1049.62ZM1587.5+1128.28C1587.39+1128.74+1587.33+1128.94+1587.22+1129.41C1587.2+1129.54+1587.09+1129.71+1587.09+1129.81C1586.44+1132.59+1586.09+1134.38+1585.62+1136.94C1582.59+1145.31+1582.92+1152.51+1585.66+1158.69C1584.64+1158.31+1583.64+1157.87+1582.62+1157.5C1582.54+1157.47+1580.89+1156.93+1580.47+1156.78C1578.26+1150.83+1583.15+1137.66+1587.5+1128.28ZM1589.38+1128.97C1588.57+1130.37+1587.97+1131.72+1587.34+1133.06C1587.7+1131.68+1587.7+1131.44+1588.06+1130.06C1588.4+1129.84+1588.79+1129.57+1589.38+1128.97ZM1983.56+1144.44C1981.85+1145.94+1980.36+1147.63+1978.69+1149.16C1980.29+1147.57+1981.9+1145.99+1983.56+1144.44ZM1581.78+1158.81C1583.4+1159.43+1585.03+1160.01+1586.66+1160.62C1586.93+1161.13+1587.07+1161.7+1587.38+1162.19C1585.71+1161.19+1583.45+1160.15+1582+1159.16C1581.88+1159.08+1581.89+1158.9+1581.78+1158.81ZM2288.5+1161.97C2258.71+1162.65+2216.68+1189.16+2193.62+1200.97L2194.09+1201.91C2223.44+1187.12+2261.33+1166.51+2294.53+1162.84L2294.28+1162.19C2292.41+1161.99+2290.49+1161.92+2288.5+1161.97ZM1592.94+1163.09C1595.57+1164.09+1598.22+1165.08+1600.84+1166.09C1609.11+1170.99+1617.45+1175.82+1625.97+1180.41C1614.34+1175.82+1604.19+1171.2+1595.28+1166.59C1594.4+1165.5+1593.66+1164.31+1592.94+1163.09ZM1604.22+1167.47C1605.19+1167.85+1606.16+1168.17+1607.12+1168.56C1619.01+1173.36+1630.99+1177.92+1642.94+1182.56C1638.77+1182.64+1634.76+1182.48+1630.88+1182.12C1621.85+1177.4+1613+1172.51+1604.22+1167.47ZM2289.66+1168.56C2284.67+1168.68+2279.67+1169.07+2274.56+1169.78L2274.84+1170.84C2284.82+1170.1+2294.78+1170.08+2304.75+1169.41L2304.75+1168.94C2299.62+1168.59+2294.64+1168.44+2289.66+1168.56ZM2235.28+1171.06C2203.72+1190+2162.13+1209.41+2145.06+1218.47C2130.07+1226.42+2114.71+1235.37+2099.22+1244.38C2088.3+1248.35+2077.44+1252.53+2066.53+1256.53C2123.12+1229.44+2179.54+1200.47+2235.28+1171.06ZM1632.03+1177.22C1636.82+1178.97+1641.55+1180.82+1646.38+1182.5C1645.99+1182.52+1645.63+1182.49+1645.25+1182.5C1643.02+1181.64+1640.76+1180.77+1638.53+1179.91C1636.34+1179.05+1634.21+1178.1+1632.03+1177.22ZM1660.47+1187.22C1695.71+1199.01+1731.43+1209.84+1765.75+1224C1792.98+1235.23+1820.09+1249.2+1847.41+1262.34C1827.53+1255.78+1807.7+1249.1+1787.84+1242.41C1785.34+1241.09+1781.5+1238.79+1779.44+1237.81C1739.8+1218.95+1698.83+1203.24+1658+1187.47C1658.34+1187.44+1658.82+1187.5+1659.16+1187.47C1659.58+1187.42+1660.04+1187.27+1660.47+1187.22ZM1655.72+1187.53C1697.22+1203.57+1738.76+1219.55+1779.22+1238.41C1780.44+1238.97+1783.14+1240.58+1784.59+1241.31C1767.66+1235.59+1750.7+1229.95+1733.81+1224.06C1726.82+1221.18+1719.82+1218.28+1712.81+1215.41C1701.8+1209.64+1690.75+1204.03+1679.41+1200C1668.18+1196.01+1656.98+1191.76+1645.66+1187.59C1649.32+1187.82+1652.56+1187.71+1655.72+1187.53ZM1732.56+1225.53C1735.92+1226.7+1739.27+1227.82+1742.62+1228.97C1752.62+1233.07+1762.64+1237.24+1772.62+1241.38C1768.79+1240.26+1764.88+1239.24+1761.12+1238C1751.5+1234.82+1742+1230.32+1732.56+1225.53ZM1759.34+1234.56C1770.46+1238.29+1781.6+1242.08+1792.72+1245.66C1795.25+1247.01+1797.55+1248.25+1800.44+1249.84C1794.26+1247.83+1788.14+1245.88+1781.91+1244.12C1774.38+1240.96+1766.88+1237.7+1759.34+1234.56ZM2095.72+1246.41C2064.6+1264.42+2032.64+1282+1999.59+1289.84C1999.44+1289.88+1999.27+1289.87+1999.12+1289.91C2006.71+1285.52+2014.15+1281.22+2021.28+1277.94C2032.91+1272.58+2044.57+1266.97+2056.22+1261.44C2069.39+1256.45+2082.53+1251.33+2095.72+1246.41ZM1795.28+1246.47C1812.48+1251.99+1829.63+1257.36+1846.69+1262.59C1847.24+1262.76+1849.67+1263.55+1850.62+1263.84C1868.69+1272.47+1886.83+1280.66+1905.22+1287.16C1905.72+1290.16+1906.48+1292.96+1907.56+1295.56C1898.15+1293.02+1888.85+1289.7+1879.81+1286C1873.35+1283.36+1866.92+1280.59+1860.47+1277.88C1875.94+1284.86+1891.56+1291.6+1907.69+1295.75C1908.09+1296.71+1908.44+1297.67+1908.94+1298.56C1888.06+1293.96+1867.26+1283.28+1848.41+1272.78C1852.43+1274.49+1856.44+1276.18+1860.47+1277.88C1855.67+1275.71+1850.82+1273.7+1846.09+1271.56C1845.67+1271.33+1845.33+1271.11+1844.91+1270.88C1845.49+1271.08+1846.11+1271.3+1846.69+1271.5L1846.72+1271.44C1845.93+1271.15+1845.1+1270.88+1844.31+1270.59C1836.8+1266.39+1829.32+1262.08+1822.69+1258.69C1816.29+1255.41+1809.61+1252.86+1802.84+1250.56C1800.02+1248.97+1797.84+1247.88+1795.28+1246.47ZM2034.66+1269.66C2033.34+1270.27+2032.1+1271.02+2030.78+1271.62C2020.98+1276.1+2009.32+1283.2+1997.22+1290.28C1990.94+1291.63+1984.56+1292.51+1978.12+1293.28C1996.73+1284.84+2015.61+1277.09+2034.66+1269.66ZM1905.69+1283.22C1908.7+1284.46+1911.91+1285.69+1914.53+1286.91C1914.81+1288.08+1915.04+1289.28+1915.41+1290.41C1912.44+1289.47+1909.49+1288.38+1906.53+1287.34C1906.23+1285.99+1905.84+1284.65+1905.69+1283.22ZM1906.53+1287.59C1909.51+1288.63+1912.48+1289.71+1915.47+1290.66C1916.35+1293.34+1917.54+1295.78+1918.91+1298.09C1915.83+1297.54+1912.78+1296.9+1909.75+1296.12C1908.26+1293.51+1907.22+1290.65+1906.53+1287.59ZM1919+1288.81C1919.32+1288.98+1919.5+1289.09+1919.81+1289.25C1919.5+1289.28+1919.23+1289.07+1919+1288.81ZM1909.78+1296.31C1912.81+1297.05+1915.86+1297.69+1918.91+1298.22C1919.31+1298.9+1919.65+1299.58+1920.09+1300.22C1917.38+1299.95+1914.69+1299.83+1911.97+1299.31C1911.21+1298.34+1910.4+1297.38+1909.78+1296.31ZM1930.09+1299.12C1929.82+1299.31+1929.45+1299.38+1929.03+1299.44C1929.44+1299.39+1929.82+1299.29+1930.09+1299.12ZM1975.44+1302.06C1960.18+1309.28+1944.81+1313.99+1931.03+1310.72C1928.28+1310.07+1925.94+1309.14+1923.69+1308.16C1923.91+1308.16+1924.22+1308.22+1924.44+1308.22L1924.44+1308.09C1923.91+1308.08+1923.12+1307.76+1922.56+1307.72C1921.99+1307.45+1921.48+1307.17+1920.94+1306.88C1923.56+1307.22+1926.11+1307.65+1928.84+1307.78C1932.63+1309.8+1936.84+1311.09+1942+1310.53C1945.98+1310.1+1949.37+1308.4+1952.59+1306.44C1960.02+1305.43+1967.62+1304.05+1975.44+1302.06ZM1952.31+1306.44C1949.16+1308.28+1945.91+1309.92+1942.06+1310.25C1937.56+1310.64+1933.82+1309.48+1930.41+1307.78C1937.38+1308.01+1944.75+1307.45+1952.31+1306.44Z" stroke="#000000" stroke-width="1" fill="#000000" opacity="1" stroke-linejoin="round"/>
</g>
<g id="Outside" vectornator:layerName="Outside">
<path d="M1825.98+915.722C1805.3+930.51+1783.67+945.408+1761.72+957.967C1754.57+962.057+1745.61+965.416+1738.92+970.195C1700.23+997.867+1668.58+1033.43+1634.26+1066.91C1615.76+1084.95+1578.66+1113.71+1583.48+1144.73C1587.52+1170.77+1623.58+1172.36+1640.47+1181.42C1658.97+1191.34+1676.13+1202.65+1696.44+1208.1C1705.85+1210.62+1720.2+1212.4+1728.56+1218.1C1747.71+1231.18+1761.57+1239.17+1783.49+1247.01C1793.53+1250.6+1805.64+1248.82+1815.61+1253.68C1827.33+1259.39+1813.08+1258.24+1829.09+1261.46C1841.98+1264.05+1832.71+1259.51+1843.59+1261.46C1862.33+1264.81+1884.03+1275.83+1901.63+1283.69C1905.66+1285.5+1910.23+1285.9+1914.06+1288.14C1916.01+1289.28+1917.48+1294.01+1919.25+1292.59C1921.2+1291.01+1918.72+1287.37+1918.21+1284.8C1916.9+1278.23+1913.54+1270.32+1913.03+1263.68C1911.77+1247.46+1920.06+1229.55+1928.57+1216.99C1939.61+1200.71+1956.39+1188.65+1968.99+1173.64C1982.95+1156.99+1994.3+1136.66+2010.44+1122.5C2043+1093.92+2088.09+1076.32+2124.44+1053.57C2157.8+1032.7+2193.61+1015.54+2232.22+1022.44" stroke="#000000" stroke-width="1" fill="#9a9a9a" opacity="1" stroke-linejoin="round"/>
</g>
<g id="Inside" vectornator:layerName="Inside">
<path d="M2237.4+1025.78C2135.62+1025.78+2048.42+1095.06+1976.24+1164.74C1951.62+1188.52+1917.24+1220.74+1923.39+1260.35C1924.46+1267.24+1924.57+1274.46+1928.57+1280.36C1933.57+1287.73+1945.16+1291.47+1953.44+1291.47C1973.78+1291.47+1997.95+1283.94+2016.66+1275.91C2047.81+1262.54+2080.64+1253.28+2112+1240.34C2138.09+1229.58+2162.88+1215.85+2189.73+1206.99C2219.79+1197.06+2270.33+1180.12+2288.18+1151.4" stroke="#000000" stroke-width="1" fill="#5a5a5a" opacity="1" stroke-linejoin="round"/>
</g>
<g id="Title" vectornator:layerName="Title">
<path d="M1813.31+896.25C1813.05+896.275+1812.91+896.379+1812.91+896.594C1812.91+897.3+1813.88+898.283+1815.34+899.375C1815.23+900.075+1815.1+900.76+1814.94+901.469C1815.17+900.895+1815.56+899.926+1815.69+899.594C1817.32+900.768+1819.97+902.163+1822.78+903.625C1821.51+904.498+1821.51+904.56+1819.41+906.344C1820.02+906.011+1820.33+905.916+1820.94+905.625C1821.59+904.921+1822.31+904.37+1823+903.75C1823.27+903.888+1823.63+904.047+1823.91+904.188C1822.99+904.606+1822.13+905.058+1820.94+905.625C1818.8+907.919+1816.75+910.437+1814.62+912.625C1814.24+911.119+1816.67+908.661+1819.31+906.406C1816.66+907.857+1814.2+909.706+1813.84+912.031C1813.77+912.516+1814+912.766+1814.28+913C1812.82+914.46+1811.31+915.758+1809.62+916.531C1809.35+916.658+1813.2+908.998+1814.94+901.469C1813.01+906.287+1808.74+916.8+1809.06+916.844C1811.97+917.234+1814.22+915.673+1816.19+913.625C1815.84+913.635+1815.49+913.664+1815.16+913.438C1815.11+913.405+1815.1+913.348+1815.06+913.312C1815.45+913.386+1815.82+913.484+1816.34+913.438C1817.94+911.731+1819.38+909.75+1820.78+908.219C1821.6+907.325+1823.38+905.764+1824.75+904.562C1838.3+911.348+1860.09+919.95+1871.59+924.25C1882.71+928.404+1894.01+931.96+1905.34+935.406C1983.67+965.031+2070.69+989.714+2150.47+1007.03C2175.73+1012.51+2201.62+1018.36+2226.47+1025.69C2233.81+1027.85+2251.54+1034.1+2254.47+1023.72L2252.47+1022.62C2250.3+1028.78+2232.76+1022.23+2227.81+1020.66C2205.01+1013.4+2178.56+1005.03+2155.03+1001.53C2134.56+998.487+2114.14+989.522+2094.31+984.688C2035.18+970.265+1975.74+947.575+1916.47+935.219C1904.74+931.248+1892.96+927.403+1881.09+924.219C1877.21+923.176+1873.52+921.812+1869.81+920.469C1854.05+912.995+1839.03+904.241+1825+898.906L1823.53+900.469C1821.87+899.708+1815.96+895.448+1814.59+896.5C1814.06+896.341+1813.59+896.223+1813.31+896.25ZM1816.34+913.438C1816.29+913.498+1816.24+913.565+1816.19+913.625C1816.23+913.624+1816.27+913.661+1816.31+913.656C1816.39+913.555+1816.65+913.448+1816.75+913.344C1816.63+913.359+1816.46+913.427+1816.34+913.438ZM1816.75+913.344C1817.01+913.311+1817.35+913.148+1817.62+913.094C1817.18+913.399+1816.74+913.612+1816.31+913.656C1815.83+914.303+1816+914.845+1816.91+915.219C1816.85+915.252+1816.6+915.382+1816.56+915.406C1815.63+916.026+1816.09+915.892+1817.16+915.375C1817.21+915.39+1817.2+915.424+1817.25+915.438C1821.34+916.507+1830.71+908.226+1834.47+911.25C1837.64+913.799+1826.61+912.709+1822.94+914.312C1815.6+917.517+1808.76+921.575+1801.47+924.969C1801.02+925.177+1800.52+925.522+1800.06+925.75C1800.74+925.372+1801.41+924.938+1802.09+924.562L1801.38+923.156C1780.84+934.503+1760.74+946.549+1740.72+958.625C1739.44+958.846+1738.23+958.969+1737.09+958.969C1738.26+958.969+1739.44+958.859+1740.66+958.688C1722.22+969.807+1703.84+980.933+1685.22+991.5C1705.45+981.262+1725.62+969.443+1745.75+957.469C1751.37+955.797+1757.31+952.8+1763.31+949.188C1757.42+952.468+1751.85+955.105+1746.81+956.844C1761.74+947.956+1776.63+939.129+1791.5+930.656C1782.75+936.196+1772.99+943.364+1763.31+949.188C1780.32+939.723+1799.24+926.097+1810.69+921.094C1813.4+919.91+1835.04+914.469+1835.53+911.875C1836.55+906.549+1827.29+910.086+1821.31+912.938C1822.15+912.38+1822.82+911.771+1823.56+911.156C1826.48+909.837+1828.74+908.43+1826.91+908.469C1826.73+908.472+1826.2+908.684+1825.91+908.75C1826.34+907.989+1826.54+907.26+1826.06+906.688C1824.29+904.576+1821.82+908.631+1819.34+911.406C1818.16+912.058+1817.35+912.717+1816.75+913.344ZM1831.47+904.969C1832.19+905.211+1833.1+905.562+1833.62+905.719C1837.58+908.38+1835.88+907.451+1831.47+904.969ZM1821.97+927.25L1821.66+930C1825.68+930.912+1829.69+931.835+1833.72+932.719C1833.51+933.341+1833.26+933.93+1832.97+934.5C1833.45+934.323+1833.9+934.039+1834.41+933.906L1834.03+932.781C1838.01+933.657+1842+934.509+1845.97+935.469C1839.56+940.085+1834.23+946.544+1828.72+952.281C1826.9+954.174+1821.82+957.389+1824.03+958.719C1826.39+960.141+1835.08+951.679+1837.81+950.344C1839.73+949.404+1846.14+948.866+1844.06+949.281C1839.36+950.223+1834.53+961.373+1842.69+961.5L1842.72+961.375C1834.07+959.117+1848.02+950.366+1844.25+947.625C1841.46+945.594+1835.78+949.236+1831.41+952.781C1831.78+952.469+1831.24+953.142+1833.94+950.156C1836.48+947.343+1839.04+944.624+1841.66+941.906C1843.65+939.843+1845.34+937.812+1846.97+935.656C1849.99+936.314+1863.57+937.892+1858.97+938.031C1865.35+939.92+1852.62+933.215+1851.25+932.781C1841.35+929.656+1833.34+929.066+1821.97+927.25ZM1832.97+934.5C1827.32+936.559+1822.7+941.305+1817.94+945.125C1817.34+945.607+1809.71+952.137+1812.19+952.312C1812.21+952.965+1818.15+947.542+1819.09+946.812C1823.84+943.156+1830.17+939.949+1832.97+934.5ZM1871.03+939.125C1866.46+939.091+1863.12+941.366+1863.47+947.812C1867.65+933.283+1889.11+946.707+1892.88+955.438C1903.41+979.892+1883.63+1005.8+1865.22+1017.81C1862.34+1019.69+1858.98+1024.28+1855.72+1025C1838+1028.89+1828.52+1029.34+1811.59+1020.75C1805.74+1017.78+1804.76+1008.26+1805.31+1002.44C1806.75+987.307+1817.53+977.243+1829.41+971.656L1829.22+970.656C1822.95+973.709+1816.89+977.114+1811.59+982.344C1802.45+991.377+1797.79+1014.12+1809.94+1022.81C1823.35+1032.41+1842.45+1035.55+1857.28+1028.72C1879.76+1018.36+1915.87+976.363+1893.06+949.5C1889.74+945.59+1878.66+939.182+1871.03+939.125ZM1858.25+956.969C1856.36+957.172+1854.18+957.88+1852.09+958.812C1851.58+958.519+1851.02+958.242+1850.53+957.969L1847.84+958.562C1847.96+958.651+1849+959.26+1849.97+959.812C1845.02+962.719+1842.11+967.359+1849.44+971.656C1851.85+973.069+1854.25+973.539+1856.97+973.969C1859.78+974.414+1862.13+974.425+1864.72+973.125L1864.62+972.062C1860.47+972.233+1851.38+971.217+1848.28+967.906C1845.79+965.241+1848.43+962.671+1852+960.812C1856.89+963.247+1864.19+965.872+1862.88+958.625C1862.61+957.164+1860.72+956.704+1858.25+956.969ZM1861.19+958.062C1862.65+958.232+1859.7+961.076+1859.03+961.125C1857.33+961.249+1855.72+960.694+1854.16+959.938C1857.05+958.754+1860.03+957.928+1861.19+958.062ZM1728.22+969C1703.73+985.588+1671.09+1003.22+1650.91+1025.72C1672.11+1003.83+1703.68+986.646+1728.41+969.438L1728.22+969ZM1918.22+972.531C1917.54+972.404+1917.02+977.21+1916.06+978.781L1916.19+978.906C1913.22+982.488+1909.19+987.472+1907.94+989.125C1900.51+998.913+1892.51+1008.2+1885.56+1018.41C1883.5+1021.44+1881.76+1024.85+1879.47+1027.69C1878.57+1028.8+1875.27+1030.12+1876.5+1030.78C1876.71+1030.9+1876.84+1030.91+1877+1030.97C1876.87+1031.29+1876.81+1031.66+1876.97+1032.22C1877.7+1034.79+1887.38+1020.78+1887.75+1020.22C1894.54+1009.93+1902.1+1000.3+1909.44+990.469C1911.88+987.203+1917.88+981.254+1918.75+976.188C1918.99+975.788+1919.19+975.479+1918.81+975.875C1918.94+974.845+1918.93+973.824+1918.53+972.906C1918.43+972.663+1918.32+972.549+1918.22+972.531ZM1984.62+978.594C1980.3+978.745+1975.55+980.32+1970.12+983.812L1971.41+984.969C1994.13+970.703+2002.17+990.81+2018.84+1004.16C2030.97+1013.86+2044.45+1021.29+2059.09+1025.53C2066.74+1027.74+2086.56+1031.62+2092.62+1024.44C2100.43+1015.19+2075.68+1003.52+2068.5+1003.88L2068.47+1004.06C2075.93+1004.78+2082.36+1008.18+2087.59+1014.03C2089.27+1015.91+2094.31+1021.48+2090.72+1024C2083.65+1028.97+2070.1+1025+2062.53+1023.22C2047.16+1019.59+2031.09+1011.25+2018.81+1000.72C2006.71+990.339+1997.59+978.14+1984.62+978.594ZM1946.12+986.781C1946.07+987.355+1945.9+987.927+1945.75+988.5C1946.04+988.421+1946.31+988.279+1946.59+988.25L1946.12+986.781ZM1945.75+988.5C1941.24+989.747+1937.14+996.805+1934.16+1000.31C1927.74+1007.84+1913.8+1022+1909.81+1035.47C1907.52+1035.55+1905.22+1035.72+1903+1035.56C1900.93+1035.42+1898.98+1034.65+1896.94+1034.75C1880.78+1035.53+1897.69+1020.73+1905.38+1018.91C1910.25+1017.75+1915.25+1017.13+1912.5+1021.59L1912.09+1021.97C1918+1020.63+1914.72+1016.49+1910.22+1016.62C1905.11+1016.78+1885.18+1021.86+1887.38+1031.16C1889.31+1039.33+1901.59+1038.81+1909.59+1036.66C1908.66+1040.37+1908.32+1044.02+1909.38+1047.44C1910.73+1051.8+1925.55+1057.57+1925.69+1052.19C1925.06+1055.16+1916.92+1051.52+1915.5+1050.62C1910.35+1047.4+1910.47+1042.55+1913+1036.69C1918.15+1024.73+1926.13+1014.72+1934.09+1004.84C1937.67+1000.41+1944.16+994.506+1945.75+988.5ZM1746.38+988.906L1745.81+990.5C1760.81+997.102+1775.98+1004.79+1791.59+1009.47L1791.84+1008.69C1776.97+1001.35+1761.63+995.226+1746.38+988.906ZM1699.12+991.656C1696.03+994.364+1693.03+997.024+1689.94+999.688C1689.46+999.861+1688.98+1000.06+1688.5+1000.25C1688.89+1000.13+1689.27+1000.02+1689.66+999.906C1672.27+1014.89+1655.03+1029.51+1639.91+1047.31C1633.1+1055.32+1625.57+1062.98+1619.31+1071.5C1618.02+1073.26+1615.98+1076.7+1614.12+1079.72C1616.7+1076.69+1619.46+1073.36+1620.22+1072.41C1626.76+1064.15+1634.09+1056.42+1641.12+1048.66C1659.44+1028.45+1679.92+1011.14+1700.06+993.062L1699.12+991.656ZM1614.12+1079.72C1611.7+1082.56+1609.45+1085.16+1609.41+1084.88C1608.98+1087.86+1611.36+1084.21+1614.12+1079.72ZM1688.5+1000.25C1659.87+1009.45+1626.75+1056.08+1609+1077.56C1603.43+1084.3+1582.83+1100.55+1583.78+1110.47L1583.94+1110.5C1585.2+1099.26+1603+1086.25+1609.78+1078.38C1628.69+1056.42+1660.23+1011.7+1688.5+1000.25ZM2013.38+1001.94C2012.91+1002.68+2012.12+1003.78+2011.56+1004.62C2012.56+1003.72+2013.48+1003.01+2014.25+1003.16C2013.92+1002.43+2013.65+1001.49+2013.38+1001.94ZM2014.25+1003.16C2014.44+1003.58+2014.65+1003.96+2014.94+1003.88L2015.69+1003.97C2015.19+1003.46+2014.72+1003.25+2014.25+1003.16ZM2011.56+1004.62C2009.1+1006.86+2005.49+1011.9+1997.59+1020.31C1979.14+1039.96+1955.2+1056.58+1946.62+1084.25C1942.55+1097.41+1944.97+1107.06+1950.97+1112.78C1949.86+1111.56+1948.97+1110.1+1948.28+1108.38C1944.81+1099.64+1948.71+1088.29+1951.62+1079.94C1958.74+1059.57+1975.15+1044.85+1990.06+1030.22C1991.66+1031.2+1994.24+1033.22+1996.38+1035.25C1995.51+1034.04+1994.55+1032.94+1993.66+1032.12C1993.34+1031.84+1991.44+1030.8+1990.09+1030.19C1993.03+1027.31+1996.02+1024.45+1998.75+1021.53C2003.6+1016.34+2008.2+1009.79+2011.56+1004.62ZM1996.38+1035.25C1998.73+1038.54+2000.23+1042.8+1996.59+1045.5C1994.98+1046.7+1992.87+1046.86+1990.97+1046.88C1973.23+1047.05+1991.57+1032.47+1996.03+1036.06L1996.34+1036.22C1993.43+1029.17+1976.75+1041.77+1982.09+1046.81C1987.21+1051.65+2003.98+1048.88+1999.34+1038.72C1998.94+1037.84+1997.77+1036.58+1996.38+1035.25ZM2254.25+1029.97C2218.36+1048.44+2180.83+1061.79+2146.06+1083.19C2081.33+1123.02+2024.53+1175.51+1967.19+1226.28L1968.28+1227.56C2026.42+1177.83+2082.59+1125.09+2147+1084.72C2181.51+1063.08+2219.09+1049.72+2254.28+1030.06L2254.25+1029.97ZM1863.38+1039.06L1862.53+1040.97C1884.29+1049.88+1906.44+1059.31+1928.47+1067.41L1928.62+1066.97C1907.81+1054.92+1885.71+1047.36+1863.38+1039.06ZM2206.31+1050.34C2111.71+1090.07+2024.74+1129.36+1960.97+1218.38L1961.75+1218.38C2027.05+1130.19+2112.06+1092.15+2206.44+1050.78L2206.31+1050.34ZM1985.44+1051C1985.32+1051.44+1985.12+1051.87+1984.97+1052.31C1985.48+1052.05+1985.98+1051.81+1986.34+1051.84L1985.44+1051ZM1984.97+1052.31C1980.07+1054.8+1969.52+1069.22+1973.75+1071.84L1974.25+1071.47C1973.73+1073.6+1976.38+1067.69+1977.5+1065.84C1980.05+1061.63+1983.36+1057.1+1984.97+1052.31ZM1998.69+1056.31C1994.19+1055.59+1979.85+1086.5+1990.25+1066.09C1992.31+1062.04+1992.19+1061.61+1992.09+1058.78C1985.06+1064.77+1982.72+1073.87+1984.75+1074.72C1988.43+1076.26+1993.45+1064.48+1994.69+1062.38C1995.71+1060.63+1999.82+1056.34+1998.81+1058.09C1997.78+1059.89+1986.49+1073.72+1991.62+1075.59C1995.09+1076.86+2000.9+1067.64+2004.84+1062.41C2003.34+1065.57+2001.33+1068.63+1999.66+1071.59C1998.33+1073.95+1996.42+1085.46+2001.78+1079.47L2001.66+1079.06C1996.16+1079.43+2013.96+1059.9+2007.72+1056.75C2004.39+1055.07+1994.54+1073.74+1993.41+1074.5C1992.09+1075.39+1994.54+1071.38+1995.28+1069.91C1996.63+1067.23+2001.19+1059.97+1999.44+1056.91C1999.24+1056.55+1998.99+1056.36+1998.69+1056.31ZM1992.09+1058.78C1992.68+1058.29+1993.23+1057.76+1993.88+1057.31L1992.09+1057.09C1992.1+1058.08+1992.07+1058.17+1992.09+1058.78ZM2008.56+1058.94C2009.2+1059.3+2007.99+1059.49+2006.94+1059.88C2007.62+1059.19+2008.21+1058.74+2008.56+1058.94ZM2020.44+1066.31C2014+1066.63+2006.34+1071.15+2005.97+1076.81C2005.28+1087.42+2019.25+1086.58+2025.19+1084.62C2021.01+1085.1+2007.12+1083.75+2008.12+1076.62C2008.52+1073.82+2011.69+1071.05+2015.34+1069.25C2009.89+1075.97+2022.96+1080.45+2027.66+1076.78C2027.12+1080.29+2039.76+1085.51+2040+1089.53C2040.07+1090.77+2025.42+1089.36+2025.47+1088.94C2025.16+1091.68+2041.02+1094.75+2041.75+1090.5C2042.43+1086.5+2035.43+1082.48+2032.78+1080.78C2031.34+1079.86+2027.17+1078.64+2028.62+1077.75C2031.41+1076.04+2042.44+1073.65+2044.12+1075.91L2044.41+1077.06C2046.03+1072.95+2033.02+1072.59+2028.81+1075.31C2029.33+1074.22+2029.48+1072.81+2028.88+1070.97C2027.72+1067.44+2024.3+1066.12+2020.44+1066.31ZM2021.09+1067.38C2024.38+1066.98+2027.17+1067.91+2027.78+1070.97C2029.08+1077.44+2015.2+1076.05+2015.44+1069.19C2017.29+1068.29+2019.26+1067.6+2021.09+1067.38ZM2239.75+1067.41C2236.77+1067.63+2232.58+1068.88+2228+1070.5C2235.12+1068.07+2240.9+1066.82+2243.59+1067.97C2242.63+1067.51+2241.42+1067.28+2239.75+1067.41ZM2243.59+1067.97C2243.97+1068.15+2244.41+1068.29+2244.66+1068.56L2244.72+1068.53C2244.46+1068.26+2243.99+1068.14+2243.59+1067.97ZM2228+1070.5C2207.53+1077.49+2175.53+1094.82+2169.41+1098.03C2116.48+1125.76+2066.63+1160.23+2018.16+1195.94C1994.47+1213.38+1971.62+1235.17+1945.25+1247.72L1945.53+1248.97C1972.34+1237.07+1995.58+1215.32+2019.5+1198C2068.14+1162.78+2117.58+1127.72+2169.91+1099C2175.92+1095.7+2207.65+1077.72+2228+1070.5ZM2015.41+1069L2015.47+1069.03C2015.45+1069.05+2015.45+1069.07+2015.44+1069.09C2015.44+1069.06+2015.4+1069.04+2015.41+1069ZM2273.72+1072.88C2271.91+1072.96+2269.1+1074.05+2266.25+1075.22C2266.24+1075.22+2266.23+1075.22+2266.22+1075.22L2266.22+1075.25C2258.93+1078.24+2250.11+1083.22+2247.72+1084.44C2216.74+1100.24+2186.81+1118.18+2155.91+1134.09C2118.84+1153.18+2083.37+1175.28+2048+1197.59C2034.41+1204.48+2020.85+1211.43+2007.41+1218.62C1990.19+1227.83+1956.14+1241.4+1942.56+1261.34C1939.74+1262.9+1936.96+1264.54+1934.12+1266.06L1934.34+1266.56C1936.89+1265.2+1939.38+1263.73+1941.91+1262.34C1940.61+1264.36+1939.45+1266.41+1938.62+1268.56L1939.41+1269.19C1941.2+1265.99+1943.45+1262.97+1946+1260.06C1980.19+1241.14+2013.47+1220.39+2046.75+1199.59C2090.03+1177.64+2133.98+1157.16+2177.84+1136.72C2199.89+1126.44+2251.9+1114.05+2262.75+1088.81L2261.75+1089.38C2251.3+1109.97+2214.94+1118.28+2195.78+1127.09C2150+1148.15+2104.26+1169.37+2059.09+1191.97C2091.04+1172.07+2123.12+1152.39+2156.28+1134.84C2187.05+1118.57+2216.8+1100.49+2248.03+1085.16C2249.7+1084.34+2260.86+1078.35+2268.56+1075.38C2268.44+1075.37+2268.31+1075.35+2268.19+1075.34C2268.37+1075.33+2268.57+1075.27+2268.78+1075.25C2272.04+1074+2274.7+1073.27+2275.53+1073.94C2275.86+1073.75+2276.04+1073.57+2275.81+1073.38C2275.36+1072.99+2274.64+1072.83+2273.72+1072.88ZM2275.53+1073.94C2274.36+1074.59+2271.16+1075+2268.78+1075.25C2268.71+1075.28+2268.64+1075.35+2268.56+1075.38C2272.29+1075.66+2277.36+1076.32+2275.81+1074C2275.77+1073.94+2275.59+1073.99+2275.53+1073.94ZM1966.22+1083.47L1965.5+1085.81C1982.11+1091.88+1998.94+1098.37+2015.69+1103.97L2015.91+1103.5C2001.71+1093.46+1981.97+1088.84+1966.22+1083.47ZM2267.84+1091.19L2267.84+1092.12C2294.84+1096.03+2262.11+1108.78+2252.44+1113.44C2223.9+1127.19+2193.89+1136.64+2164.75+1148.69C2103.23+1174.12+1998.49+1218.98+1953.38+1271.44L1953.41+1271.47C2007.7+1217.78+2096.76+1177.15+2165+1149.38C2194.24+1137.48+2224.3+1128.22+2252.88+1114.41C2263.17+1109.43+2295.35+1095.64+2267.84+1091.19ZM2276.81+1107.38L2276.41+1108.47C2281.51+1110.62+2288.84+1110.09+2291.62+1115.16C2291.8+1115.47+2286.05+1117.28+2279.5+1119.25C2277.42+1116.92+2275.57+1114.64+2274.44+1113.06L2272.41+1113.06C2273.87+1115.2+2275.55+1117.61+2277.38+1119.88C2268.9+1122.4+2259.63+1125.06+2258.19+1125.59C2254.94+1126.8+2251.76+1128.15+2248.53+1129.38C2253.38+1127.73+2258.23+1126+2263.12+1124.59C2265.23+1123.99+2272.28+1123.06+2278.94+1121.66C2280.72+1123.64+2282.64+1125.47+2284.81+1126.66C2286.03+1127.32+2288.49+1128.07+2290.5+1128.72C2293.7+1128.35+2295.92+1128.17+2293.81+1128.41C2289.85+1128.86+2285.15+1125.16+2281.19+1121.06C2286.48+1119.81+2291.26+1118.31+2292.12+1116.25C2294.51+1110.58+2282.14+1109.83+2276.81+1107.38ZM2290.5+1128.72C2287.4+1129.07+2283.38+1129.6+2281.41+1130.19C2277.99+1131.2+2274.54+1132.41+2271.09+1133.62C2278.43+1132.22+2285.71+1131.07+2292.94+1130.25C2294.5+1130.07+2292.81+1129.46+2290.5+1128.72ZM2271.09+1133.62C2167.05+1153.6+2053.66+1230.09+1963.44+1286.31L1964.06+1287.41C2037.52+1244.51+2106.66+1198.91+2185+1165.75C2208.25+1155.91+2232.03+1146.23+2256.06+1138.75C2261.08+1137.19+2266.09+1135.39+2271.09+1133.62ZM2248.53+1129.38C2224.66+1137.48+2201.3+1148+2178.44+1158.44C2201.54+1147.89+2224.89+1138.37+2248.53+1129.38ZM2178.44+1158.44C2102.44+1193.13+2030.86+1236.93+1955.69+1272.97L1955.84+1273.34C2031.81+1239.89+2102.65+1193.04+2178.44+1158.44ZM1951.31+1113.06C1952.22+1113.89+1953.2+1114.63+1954.25+1115.28C1953.19+1114.65+1952.18+1113.96+1951.31+1113.06ZM1954.25+1115.28C1954.77+1115.59+1955.29+1115.87+1955.84+1116.12C1955.31+1115.85+1954.76+1115.6+1954.25+1115.28ZM1955.84+1116.12C1963.75+1120.16+1974.76+1119.84+1985.62+1114.59L1985.38+1113.69C1977.88+1117.25+1964.67+1120.16+1955.84+1116.12ZM2280.09+1133.31C2263.76+1139.54+2296.29+1141.4+2296.03+1141.59C2280.84+1152.68+2256.19+1156.22+2238.88+1163.81C2199.4+1181.12+2159.26+1197.21+2120.72+1216.84C2111.06+1221.76+2096.71+1230.57+2081.16+1240.12C2128.67+1214.82+2176.18+1191.45+2225.72+1170.91C2244.97+1162.92+2281.32+1156.95+2296.28+1142.44C2302.71+1136.2+2266.94+1143.19+2279.53+1133.91L2280.09+1133.31ZM2081.16+1240.12C2080.22+1240.62+2079.28+1241.09+2078.34+1241.59C2069.08+1246.55+2058.35+1253.42+2047.25+1260.38C2058.99+1253.68+2070.24+1246.83+2081.16+1240.12ZM2047.25+1260.38C2021.75+1274.91+1996.31+1287.32+1979.72+1287.72C2001.06+1288.23+2025.21+1274.18+2047.25+1260.38ZM2034.97+1205.72C2006.07+1223.97+1977.12+1242.07+1947.41+1258.66C1963.35+1241.47+1990.43+1229.21+2007.91+1219.81C2016.87+1214.99+2025.93+1210.38+2034.97+1205.72Z" stroke="#000000" stroke-width="1" fill="#000000" opacity="1" stroke-linejoin="round"/>
</g>
<g id="Headline" vectornator:layerName="Headline">
<path d="M1718.31+995.188L1719.34+997.562C1720.62+997.863+1723.17+998.553+1725.38+999.062C1718.73+1002.59+1713.27+1011.01+1708.56+1016.53C1708.1+1017.07+1705.36+1021.48+1704.22+1023.78C1702.33+1025.21+1701.37+1026.96+1703.81+1028C1712.53+1031.73+1728.64+1026.34+1737.03+1022.81C1746.69+1018.75+1751.9+1009.44+1742.12+1001.62C1735.32+996.188+1726.23+995.963+1718.31+995.188ZM1726.41+999.312C1729.07+999.938+1731.45+1000.42+1733.5+1001.09C1734.31+1001.36+1738.83+1003.12+1739.56+1003.44C1744.65+1005.65+1749.25+1013.18+1743.34+1017.66C1735.33+1023.73+1725.33+1025.15+1715.81+1026.25C1710.44+1026.87+1706.89+1026.18+1705.28+1025.19C1706.17+1024.57+1707.35+1023.32+1708.62+1021.81C1709.16+1021.73+1709.6+1021.61+1710.25+1021.56L1710.22+1021.44C1709.84+1021.39+1709.2+1021.65+1708.66+1021.78C1710.74+1019.31+1712.93+1016.34+1713.47+1015.72C1717.13+1011.44+1724.63+1005.55+1726.41+999.312ZM1747.34+1020.5L1747.16+1020.69C1746.71+1020.94+1747.8+1021.86+1748.78+1022.72C1743.13+1023.61+1729.5+1028.1+1734.72+1034.78C1737.76+1038.67+1745.41+1039.37+1749.84+1036.47C1749.71+1037.66+1749.77+1038.95+1750.22+1040.41C1751.39+1044.2+1758.38+1049.39+1762.19+1047.03C1766.89+1044.12+1759.77+1037.89+1759.94+1037.75C1760.63+1037.2+1760.93+1039.57+1761.78+1039.66C1764.91+1039.98+1769.91+1042.85+1772.72+1042.25L1773.34+1040.47C1771.98+1038.63+1760.51+1035.68+1758.66+1037.25C1756.33+1039.21+1762.74+1042.68+1761.72+1043.88C1759.96+1045.94+1753.26+1043.3+1752.69+1040.81C1750.99+1033.5+1766.15+1026.52+1765.31+1031.38L1766.44+1032.66C1770.28+1027.49+1759+1026.54+1753.12+1031.09C1753.21+1029.11+1752.48+1027.11+1751.53+1025.31C1752.9+1023.97+1753.27+1022.24+1750.47+1022.38C1750.3+1022.38+1749.87+1022.51+1749.66+1022.53C1748.72+1021.42+1747.34+1019.92+1747.34+1020.5ZM1750.06+1024.22C1750.09+1024.28+1750.1+1024.37+1750.12+1024.44C1749.8+1024.64+1749.52+1024.84+1748.69+1025.28L1748.84+1026.78C1749.48+1026.71+1750.07+1026.39+1750.62+1026.06C1751.22+1028.09+1751.59+1030.37+1750.78+1032.06C1748.65+1036.53+1739.94+1035.31+1736.72+1033.25C1734.17+1031.62+1747.02+1025.35+1750.06+1024.22ZM1815.16+1034.31C1815.1+1034.35+1814.97+1034.69+1814.91+1034.75C1812.18+1035.06+1809.87+1035.55+1808.19+1036.25C1809.72+1037+1811.4+1037.41+1813.12+1037.69C1812.95+1038.03+1812.91+1037.94+1812.72+1038.34L1813.25+1038.56C1819.93+1030.49+1812.9+1038.58+1810.41+1042.19C1806.05+1048.48+1801.2+1054.4+1796.94+1060.75C1794.33+1064.63+1794.74+1067.72+1797.22+1066.84C1797.2+1066.93+1797.17+1066.94+1797.16+1067.03C1797.14+1067.11+1797.27+1066.8+1797.28+1066.81C1797.48+1066.74+1797.78+1066.44+1798+1066.31C1800.72+1071.78+1809.81+1073.85+1816.25+1071.75C1818.45+1074.88+1830.72+1080.84+1832.84+1077.91L1833.12+1077.06C1833.2+1075.17+1830.05+1073.62+1826.44+1072.59C1828.55+1069.51+1829.92+1064.6+1830.03+1061.66C1827.66+1063.76+1824.02+1068.26+1823.16+1071.88C1820.71+1071.44+1818.67+1071.3+1817.22+1071.47C1819.4+1070.57+1821.18+1069.16+1822.09+1067.16C1825.31+1060.12+1824.08+1052.48+1816.81+1049.38C1816.65+1049.31+1816.22+1049.16+1815.97+1049.06C1821.51+1048.4+1834.21+1047.55+1834.94+1041.59C1835.71+1035.29+1824.51+1033.81+1815.72+1034.66C1815.64+1034.29+1815.46+1034.09+1815.16+1034.31ZM1830.03+1061.66C1830.43+1061.3+1830.77+1061.02+1831.06+1060.84C1833.08+1061.15+1832.46+1061.05+1838.28+1061.41C1838.55+1061.42+1840.66+1061.19+1840.19+1061C1840.79+1061.24+1839.37+1059.4+1838.53+1059.19C1833.42+1057.88+1834.38+1058.15+1829.22+1057.47L1828.69+1060.5C1829.77+1060.65+1829.41+1060.59+1830.03+1060.69C1830.06+1060.97+1830.04+1061.3+1830.03+1061.66ZM1815.19+1037.97C1818.71+1038.33+1822.38+1038.34+1825.75+1039.12C1826.62+1039.33+1832.51+1040.43+1832.59+1042.09C1832.75+1045.07+1815.94+1046.68+1814.03+1046.97C1813.32+1047.08+1812.04+1047.31+1810.88+1047.53C1810.75+1047.51+1810.66+1047.55+1810.53+1047.53C1811.32+1046.29+1812.14+1045.08+1812.91+1043.81C1813.98+1042.04+1814.7+1039.89+1815.19+1037.97ZM1808.38+1050.88C1816.31+1052.4+1826.76+1058.23+1819.44+1068.44C1813.12+1077.23+1790.44+1058.82+1806.47+1063.47L1806.5+1063.41C1805.49+1062.9+1802.38+1062.25+1800.03+1062.5C1800.72+1061.59+1801.36+1060.66+1802.09+1059.69C1804.28+1056.82+1806.37+1053.86+1808.38+1050.88ZM1845.94+1063L1845.5+1066.19C1846.04+1066.34+1846.58+1066.5+1847.12+1066.66C1847.14+1066.97+1847.15+1067.31+1847.12+1067.66C1847.44+1067.4+1847.75+1067.14+1848.09+1066.94C1851.5+1067.96+1854.9+1069.03+1858.34+1069.88C1861.87+1070.74+1861.8+1067.08+1859.03+1067.19C1860.83+1068.75+1863.39+1065.44+1859.19+1064.75C1854.8+1064.02+1850.35+1063.58+1845.94+1063ZM1847.12+1067.66C1841.26+1072.34+1839.14+1085.62+1843.09+1080.66L1842.94+1080.25C1842.89+1080.28+1846.73+1072.54+1847.12+1067.66ZM1866.41+1067.84C1866.11+1067.79+1865.74+1068.12+1865.38+1068.44C1865.31+1068.39+1865.32+1068.39+1865.25+1068.34C1865.14+1068.26+1861+1072.2+1860.91+1072.28C1857.85+1075.06+1850.2+1082.7+1851.91+1087.97C1853.57+1093.13+1869.35+1092.03+1867.84+1086.34L1867.38+1086.16C1866.28+1086.94+1863.62+1087.12+1862.28+1087.31C1849.41+1089.2+1855.45+1083.09+1861.25+1077.66L1860.84+1079.28C1863.91+1080.58+1873.29+1081.95+1870.72+1079.75C1871.13+1080.1+1870.74+1078.63+1868.59+1078.16C1866.37+1077.66+1864.09+1077.41+1861.84+1077.06C1864.77+1074.33+1867.47+1071.82+1867.41+1070.78C1867.4+1070.7+1867.38+1070.7+1867.38+1070.62C1867.45+1070.52+1867.42+1070.36+1867.25+1070.12C1867.08+1068.75+1866.82+1067.92+1866.41+1067.84ZM1868.41+1069.34L1868.03+1073.19C1869.44+1073.73+1875.87+1077.56+1877.97+1075.88C1878.3+1075.61+1878.81+1075.51+1878.59+1075.12C1880.22+1074.53+1877.26+1072+1876.62+1071.72C1873.73+1070.43+1871.61+1069.95+1868.41+1069.34ZM1880.06+1076.75C1877.61+1076.73+1875.13+1077.05+1874.31+1077.72C1869.59+1081.6+1885.42+1089.55+1886.5+1094.41C1887.87+1100.6+1869.98+1094.92+1875.56+1094.56L1875.28+1092.78C1867.72+1092.33+1883.74+1106.04+1889.22+1097.88C1893.29+1091.81+1883.54+1086.71+1880.16+1083.91C1878.62+1082.63+1874.35+1082.48+1875.19+1080.59C1876.15+1078.43+1882.6+1079.75+1884.03+1080C1885.15+1080.19+1886.19+1079.07+1887.03+1078.78C1886.5+1078.38+1886.45+1078.35+1885.69+1077.72C1884.95+1077.12+1882.51+1076.77+1880.06+1076.75ZM1887.03+1078.78C1887.5+1079.14+1887.93+1079.53+1888.22+1079.75L1888.19+1079.34C1887.88+1078.64+1887.48+1078.63+1887.03+1078.78ZM1888.22+1079.75L1888.41+1081.38C1889.7+1080.98+1889.38+1080.64+1888.22+1079.75ZM1926.94+1082.12C1926.41+1082.08+1926.13+1082.33+1925.84+1082.59C1925.7+1082.5+1925.58+1082.37+1925.41+1082.31C1924.99+1082.17+1925.13+1082.59+1925.38+1083.16C1924.72+1084.56+1924.95+1087.11+1924.5+1088.81C1924.41+1089.17+1924.29+1089.72+1924.19+1090.12C1924.17+1090.17+1924.14+1090.24+1924.12+1090.28C1920.7+1097+1916.87+1103.98+1912.53+1110.06C1911.27+1111.84+1910.84+1114.79+1910.47+1116.41C1911.86+1116.45+1913.39+1116.16+1914.44+1114.5C1918.12+1108.65+1920.75+1101.66+1923.22+1094.94C1922.27+1100.72+1922.41+1107.28+1928.94+1108.06C1929.2+1108.09+1929.46+1108+1929.72+1108C1925.83+1115.1+1922.37+1122.72+1921.94+1127.81C1921.58+1132.08+1925.68+1132.2+1927.16+1128.66L1926.5+1127.78C1926.77+1126.66+1927.04+1125.4+1927.34+1124.75C1928.43+1122.42+1929.57+1120.22+1930.81+1118C1932.26+1115.42+1934.08+1110.5+1936.06+1105.38C1940.46+1101.79+1944.18+1095.55+1946.38+1091.97C1947.54+1090.06+1950.9+1086.68+1948.97+1085.72C1945.59+1084.04+1940.42+1091.11+1938.81+1093.31C1936.98+1095.81+1934.45+1099.84+1931.91+1104.19C1931.38+1104.39+1930.89+1104.5+1930.41+1104.5C1921.62+1104.48+1928.49+1089.44+1926.88+1084.06C1927.12+1082.98+1927.24+1082.15+1926.94+1082.12ZM1910.47+1116.41C1910.11+1116.4+1909.75+1116.44+1909.44+1116.38L1909.44+1116.66C1909.94+1118.16+1910.2+1117.57+1910.47+1116.41ZM1909.44+1116.38L1909.47+1115.31C1906.65+1114.91+1907.6+1115.98+1909.44+1116.38ZM1948.06+1086.22C1948.77+1086+1947.18+1087.48+1946.72+1088.09C1946.22+1088.75+1942.65+1093.57+1942.41+1093.88C1941.75+1094.69+1940.41+1096.23+1939.28+1097.59C1941.85+1092.02+1944.74+1087.26+1948.06+1086.22ZM1955.09+1106.78C1954.41+1106.53+1953.8+1107.32+1953.78+1109.88L1954.31+1110.25C1956.42+1107.52+1952.7+1115.24+1950.19+1121.56C1949.73+1121.42+1949.92+1121.51+1949.41+1121.34L1947.91+1125C1948.56+1125.27+1948.32+1125.23+1948.88+1125.47C1948.68+1126.11+1948.3+1127+1948.22+1127.47C1947.64+1130.85+1951.03+1140.79+1954.41+1134.78L1954.06+1134.31C1951.7+1135.11+1952+1131.59+1952.91+1127.38C1956.17+1129.09+1956.83+1129.65+1961.75+1129.19L1962.5+1126.78C1958.65+1123.53+1958+1123.63+1954.09+1122.66C1955.24+1118.82+1956.61+1114.52+1956.84+1113.56C1957.57+1110.54+1956.23+1107.2+1955.09+1106.78ZM1952.22+1109.47C1951.51+1109.48+1950.93+1110.38+1950.31+1111.59C1950.11+1111.75+1950.09+1111.69+1949.84+1111.91C1944.5+1116.53+1927+1136.93+1942.06+1122.75C1929.89+1134.21+1940.79+1129.13+1948.12+1120.5C1949.04+1119.43+1954.31+1113.57+1953.81+1111.78C1953.34+1110.09+1952.79+1109.46+1952.22+1109.47ZM1969.25+1119.59C1968.94+1119.7+1968.67+1120.25+1968.25+1121.66C1968.01+1122.44+1968.01+1123.67+1968.06+1125.06C1963.49+1132.49+1957.94+1145.65+1963.69+1140.28C1964.84+1138.57+1967.12+1135.12+1968.97+1130.94C1970.4+1137.97+1973.4+1145.93+1976.91+1145.91C1991.63+1145.83+1982.82+1129.28+1981.31+1122.69C1979.69+1125.37+1987.47+1143.13+1977.44+1142.38C1973.68+1142.09+1974.85+1133.46+1974.31+1130.91C1973.54+1127.21+1971.96+1125.17+1970.69+1123.53C1970.61+1122.97+1970.42+1122.48+1970.16+1122.03C1970.06+1122.15+1969.98+1122.24+1969.88+1122.38C1969.72+1122.14+1969.38+1121.78+1969.28+1121.56L1970.59+1120.25C1969.95+1119.84+1969.56+1119.49+1969.25+1119.59ZM1970.16+1122.03C1970.5+1121.61+1970.91+1121.04+1971.19+1120.81L1969.88+1121.47C1970.01+1121.63+1970.05+1121.85+1970.16+1122.03ZM1963.69+1140.28C1962.63+1141.85+1962.54+1142.07+1966.28+1137.59C1965.15+1138.95+1964.42+1139.6+1963.69+1140.28ZM1981.47+1122.22C1981.37+1122.27+1981.41+1122.55+1981.34+1122.66C1981.25+1122.04+1982.53+1123.62+1983.22+1123.62L1983.41+1122.91C1982.46+1122.24+1981.84+1122.03+1981.47+1122.22Z" stroke="#000000" stroke-width="1" fill="#000000" opacity="1" stroke-linejoin="round"/>
</g>
<g id="Story" vectornator:layerName="Story">
<path d="M1690.12+1040.09C1690.17+1040.49+1690.09+1040.85+1690.06+1041.22C1690.34+1040.93+1690.63+1040.69+1690.91+1040.41L1690.12+1040.09ZM1690.06+1041.22C1673+1058.77+1654.92+1073.81+1639.88+1093.81C1633.43+1102.38+1626.48+1111.43+1622.12+1121.53C1621.59+1122.77+1616.8+1136.88+1619.56+1133.41L1619.22+1133.16C1619.56+1135.71+1624.87+1121.16+1625.94+1118.84C1629.92+1110.22+1635.96+1102.78+1641.62+1095.41C1653.45+1080.01+1666.17+1066.6+1679.94+1053.22C1683.52+1049.74+1689.74+1046.39+1690.06+1041.22ZM1697.53+1040.97L1697.22+1043.41C1708.71+1046.11+1720.21+1048.72+1731.69+1051.5C1737.2+1052.84+1742.75+1054.71+1748.22+1056.25C1753.31+1057.68+1753.86+1057.98+1758.44+1059.59C1773.56+1064.93+1763.38+1064.4+1753.97+1073.44C1748.65+1078.54+1742.92+1083.1+1737.66+1088.28C1724.42+1101.31+1712.42+1115.11+1700.78+1129.78C1697.88+1133.43+1691.07+1141.51+1688+1149.12C1683.46+1145.87+1678.09+1143.3+1672.28+1141.28C1673.51+1137.38+1674.71+1133.47+1675.94+1129.56L1674.28+1129.38C1673.31+1133.23+1672.35+1137.08+1671.38+1140.94C1654.57+1135.32+1634.5+1134.06+1621.09+1133.56L1623.09+1134.34C1643.81+1142.63+1666+1145.28+1686.69+1153.69C1686.23+1156.43+1686.49+1158.97+1688+1161.03L1688.12+1161.03C1687.79+1159.24+1688.23+1157.06+1689.06+1154.78C1691.06+1155.64+1693.06+1156.48+1695.03+1157.47L1695.66+1156.19C1694.25+1154.38+1692.57+1152.78+1690.78+1151.25C1694.5+1143.96+1701.03+1136.1+1703.75+1132.53C1715.06+1117.67+1726.81+1104.09+1739.66+1090.75C1759.6+1070.04+1784.23+1064.51+1748.97+1053.44C1743.5+1051.72+1737.86+1049.46+1732.28+1048.22C1720.73+1045.66+1709.11+1043.39+1697.53+1040.97ZM1677+1068.97C1676.98+1068.96+1676.57+1069.68+1676.5+1069.75C1676.54+1069.8+1676.58+1069.81+1676.62+1069.91C1677.35+1071.39+1676.31+1093.47+1680.09+1090.12L1679.72+1089.25C1679.45+1090.21+1679.07+1084.68+1679.06+1083.41C1679.05+1079.84+1678.93+1069.68+1677+1068.97ZM1676.5+1069.75C1676.28+1069.49+1676.13+1069.89+1676+1070.53C1676.1+1070.39+1676.43+1069.82+1676.5+1069.75ZM1676+1070.53C1674.44+1072.61+1670.08+1080.01+1668.31+1083.34C1671.78+1081.82+1673.31+1079.12+1675.12+1075.03C1675.57+1074.02+1675.75+1071.79+1676+1070.53ZM1668.31+1083.34C1667.76+1083.59+1667.29+1083.88+1666.62+1084.06L1667.19+1085.34C1667.26+1085.16+1668.06+1083.82+1668.31+1083.34ZM1788.38+1075.78C1781.9+1075.95+1781.43+1076.15+1777.47+1077.16C1777.56+1076.96+1777.48+1076.94+1777.25+1077.19C1776.16+1077.46+1776.11+1077.5+1774.09+1077.97L1774.66+1080.12C1773.51+1080.97+1773.12+1081.16+1772.94+1081.34C1767.37+1087+1761.33+1092.26+1756.34+1098.53C1755.8+1099.22+1750.5+1106.12+1754.28+1105.06L1754.19+1104.69C1753.51+1105.64+1758.6+1098.75+1759.84+1097.5C1763.9+1093.42+1768.11+1089.45+1772.03+1085.22C1772.49+1084.72+1774.28+1082.17+1775.69+1080.03C1783.88+1078.75+1780.31+1079.15+1788.69+1078.38C1789.46+1078.3+1793.77+1077.69+1793.69+1077.97C1794.17+1076.25+1789.2+1075.76+1788.38+1075.78ZM1701.94+1082.81C1701.9+1082.79+1701.79+1082.95+1701.72+1083C1700.9+1083.12+1699.7+1083.52+1697.38+1084.69C1694.86+1085.95+1692.33+1087.19+1689.81+1088.44L1690.78+1091.22C1693.3+1089.73+1695.85+1088.31+1698.34+1086.78C1699.29+1086.2+1699.95+1085.63+1700.5+1085.09C1698.23+1089.62+1693.1+1102.16+1699.25+1101.09L1699.53+1100.25C1694.17+1093.75+1705.42+1082.86+1701.91+1083C1701.9+1082.96+1701.96+1082.83+1701.94+1082.81ZM1769.09+1089.47L1769.31+1092.06C1769.99+1092.1+1783.27+1091.15+1785.12+1091.75C1777.64+1089.31+1790.5+1089.21+1769.09+1089.47ZM1659.88+1089.75C1659.71+1089.58+1659.55+1090.18+1659.41+1092.09L1659.72+1091.94C1660.97+1087.96+1652.95+1117.62+1654.44+1123.94C1652.78+1124.43+1651.83+1125.39+1652.25+1126.81L1655.66+1126.47C1655.53+1126.12+1655.36+1125.79+1655.38+1125.41C1655.38+1125.27+1655.43+1125.19+1655.44+1125.06C1655.57+1125.06+1655.66+1125.13+1655.81+1125.06L1655.75+1124.66C1655.65+1124.72+1655.61+1124.66+1655.53+1124.69C1655.57+1124.32+1655.66+1123.99+1655.75+1123.66C1655.51+1123.69+1655.26+1123.73+1655.03+1123.78C1655.12+1121.72+1656.67+1117.09+1656.84+1116.47C1658.43+1110.88+1660.38+1105.09+1660.78+1099.22C1660.87+1097.88+1660.38+1090.25+1659.88+1089.75ZM1655.75+1123.66C1656.23+1123.58+1656.68+1123.55+1657.19+1123.53C1658.19+1121.54+1660.16+1119.71+1662.03+1119.38C1659.33+1118.92+1656.6+1120.35+1655.75+1123.66ZM1662.03+1119.38C1663.16+1119.57+1664.21+1120.17+1665.12+1120.97C1665.01+1120.8+1665+1120.68+1664.88+1120.5C1664.12+1119.45+1663.1+1119.18+1662.03+1119.38ZM1665.12+1120.97C1667.09+1123.93+1667.22+1126.21+1666.31+1127.88C1665.74+1128.5+1665.08+1129.12+1664.53+1129.75C1660.98+1131.96+1654.53+1131.31+1652.38+1127.41C1652.25+1127.18+1652.31+1127.02+1652.25+1126.81L1651.12+1126.91C1652.09+1132.51+1665.46+1135.45+1667.25+1128.47C1676.29+1121.4+1689.99+1114.24+1694+1103.19C1685.47+1110.28+1675.37+1118.3+1667.47+1126.66C1667.46+1124.09+1666.53+1122.19+1665.12+1120.97ZM1694+1103.19C1694.23+1103+1694.5+1102.78+1694.72+1102.59L1694.5+1102.06C1694.39+1102.46+1694.14+1102.8+1694+1103.19ZM1657.19+1123.53C1656.69+1124.52+1656.45+1125.49+1656.59+1126.38L1661.41+1125.94C1662.18+1125.48+1662.96+1124.99+1663.56+1124.88C1662.31+1123.9+1659.67+1123.43+1657.19+1123.53ZM1663.56+1124.88C1663.86+1125.11+1664.17+1125.37+1664.28+1125.66L1661.41+1125.94C1659.39+1127.14+1657.21+1128.67+1656.62+1126.75C1656.59+1126.63+1656.61+1126.5+1656.59+1126.38L1655.66+1126.47C1657.02+1130.36+1665.91+1131.71+1664.94+1125.94C1664.78+1124.98+1664.25+1124.74+1663.56+1124.88ZM1668.44+1093.81C1666.36+1094.1+1663.94+1096.68+1663.97+1098.81C1664.86+1097.3+1665.88+1096+1666.56+1096.09C1666.72+1095.95+1666.87+1095.81+1667.03+1095.69C1667.18+1095.08+1667.59+1094.85+1668.09+1095C1668.49+1094.81+1668.91+1094.57+1669.25+1094.53C1669.32+1094.52+1668.75+1095.15+1668.69+1095.28C1668.85+1095.42+1668.92+1095.64+1669+1095.84C1668.37+1097.13+1667.66+1099.23+1667.16+1097.34C1666.33+1098.33+1666.13+1098.61+1665.25+1099.59C1665.05+1099.41+1665.1+1099.12+1665.06+1098.88L1664.19+1100.06C1664.27+1100.2+1664.34+1100.37+1664.44+1100.47C1663.84+1101.12+1662.92+1102.19+1662.75+1102.34C1662.54+1102.54+1662.45+1102.55+1662.41+1102.47L1662.12+1102.84C1663.69+1103.81+1667+1101.45+1669+1098.88C1669.14+1098.7+1669.26+1098.56+1669.38+1098.38C1670.36+1096.94+1670.99+1095.49+1670.34+1094.56C1669.88+1093.9+1669.2+1093.71+1668.44+1093.81ZM1662.41+1102.47L1664.19+1100.06C1664.07+1099.87+1663.95+1099.73+1663.88+1099.47C1663.82+1099.27+1663.97+1099.03+1663.97+1098.81C1663+1100.45+1662.24+1102.18+1662.41+1102.47ZM1665.06+1098.88L1666.94+1096.38C1667+1096.83+1667.09+1097.08+1667.16+1097.34C1667.98+1096.36+1668.51+1095.64+1668.69+1095.28C1668.52+1095.13+1668.3+1095.06+1668.09+1095C1667.72+1095.18+1667.4+1095.41+1667.03+1095.69C1666.99+1095.87+1666.87+1095.98+1666.91+1096.25C1666.81+1096.13+1666.68+1096.11+1666.56+1096.09C1665.54+1097+1664.91+1098.01+1665.06+1098.88ZM1788.44+1095.72C1785.33+1095.98+1781.16+1097.61+1782.81+1100.12C1784.45+1102.62+1790.88+1103.73+1793.41+1102.66C1794.06+1102.38+1795.57+1099.85+1796.22+1100.25C1796.51+1100.43+1793.42+1103.25+1795.75+1104.84C1797.08+1105.75+1799.49+1105.24+1800.88+1104.66C1801.4+1104.43+1802.25+1104.07+1802.41+1103.91C1800.79+1102.27+1799.12+1100.84+1796.53+1103.88C1795.54+1105.04+1797.88+1098.9+1796.44+1099.16C1793.78+1099.63+1786.54+1105.01+1783.69+1099.69C1782.6+1097.66+1794.89+1093.65+1788.25+1098.19L1787.66+1099.53C1793.59+1096.57+1791.55+1095.46+1788.44+1095.72ZM1802.41+1103.91C1800.37+1104.54+1801.81+1107.46+1804.34+1108.03C1806.97+1108.63+1809.66+1106.17+1811.69+1106.56C1811.89+1106.6+1811.88+1106.76+1811.88+1106.91C1812+1106.35+1812.03+1105.81+1811.62+1105.34C1811.42+1105.1+1806.38+1106.28+1805.69+1106.22C1804.48+1106.11+1803.45+1104.97+1802.41+1103.91ZM1811.88+1106.91C1811.85+1107+1811.87+1107.09+1811.84+1107.19C1811.89+1107.08+1811.87+1106.99+1811.88+1106.91ZM1811.84+1107.19C1811.53+1107.89+1810.49+1109.03+1810.62+1109.81L1811.25+1109.69C1811.13+1108.87+1811.6+1108.02+1811.84+1107.19ZM1682.53+1100.94C1679.7+1101.02+1673.41+1106.27+1674.94+1108.59C1676.32+1110.71+1679.17+1109.53+1680.97+1107.84C1683.26+1106.1+1685.32+1103.01+1683.5+1101.25C1683.27+1101.03+1682.94+1100.93+1682.53+1100.94ZM1682.59+1101.44C1682.88+1101.46+1683.12+1101.6+1683.28+1101.88C1684.44+1103.92+1683.71+1105.05+1682.47+1105.69C1682.54+1105.24+1682.49+1104.83+1682.16+1104.5C1681.95+1104.29+1681.74+1104.28+1681.53+1104.19L1680.03+1106.28C1679.28+1106.32+1678.63+1106.29+1678.09+1106.16C1676.77+1107.92+1675.82+1109.87+1675.88+1108.53C1675.9+1107.91+1676.52+1106.86+1677.34+1105.75C1677.19+1105.52+1677.37+1105.22+1678+1104.94C1679.53+1103.1+1681.45+1101.35+1682.59+1101.44ZM1678+1104.94C1677.77+1105.21+1677.54+1105.48+1677.34+1105.75C1677.46+1105.93+1677.68+1106.05+1678.09+1106.16C1678.59+1105.49+1679.14+1104.88+1679.72+1104.47C1679.02+1104.63+1678.36+1104.77+1678+1104.94ZM1679.72+1104.47C1680.25+1104.34+1680.65+1104.24+1681.41+1104.12C1680.84+1103.94+1680.28+1104.07+1679.72+1104.47ZM1681.41+1104.12C1681.45+1104.14+1681.49+1104.17+1681.53+1104.19L1681.62+1104.06C1681.52+1104.08+1681.51+1104.11+1681.41+1104.12ZM1756+1107.28L1758.25+1109.56C1758.39+1109.59+1758.58+1109.57+1758.72+1109.59C1757.85+1108.91+1756.99+1108.29+1756+1107.28ZM1758.72+1109.59C1762.98+1112.94+1766.29+1113.03+1772.66+1113.28C1774.53+1113.36+1781.64+1111.89+1783.12+1113.47C1785.15+1115.63+1781.64+1119.43+1785.81+1123.16C1790.73+1127.55+1804.08+1122.04+1807.25+1126.19C1807.77+1126.86+1806.31+1131.8+1808.75+1134.22C1814.65+1140.08+1822.75+1135.65+1829.5+1137.06C1831.22+1137.42+1830.01+1141.53+1831.62+1142.25C1834.44+1143.51+1837.85+1143.64+1840.78+1142.75L1840.94+1141.78C1832.68+1134.42+1821.77+1138.01+1812.59+1132.75C1809.03+1130.71+1810.51+1125.58+1807.88+1123.88C1803.09+1120.78+1795.47+1123.84+1790.22+1121.78C1784.66+1119.6+1786.76+1114.71+1783.34+1112.38C1777.08+1108.11+1765.91+1110.7+1758.72+1109.59ZM1821.25+1108.88C1819.7+1108.51+1817.47+1110.38+1816.88+1112.19C1815.61+1112.97+1814.56+1113.48+1814.94+1112.69L1813.84+1111.44C1811.82+1113.96+1814.16+1114.22+1816.88+1113.53C1816.91+1113.66+1816.81+1113.82+1816.88+1113.94C1817.57+1115.11+1820.92+1116.05+1823.28+1115.75C1823.42+1116.14+1823.45+1116.47+1823.94+1116.97C1825.76+1118.83+1835.08+1122.54+1837.81+1123.03L1838.62+1122.22C1835.09+1120.35+1833.11+1117.77+1828.44+1116.44C1827.69+1116.22+1826.37+1115.38+1825.44+1114.62C1825.53+1114.41+1825.66+1114.21+1825.66+1113.94C1825.66+1113.64+1825.29+1113.54+1824.81+1113.56C1824.95+1113.68+1824.91+1113.81+1824.72+1113.94C1824.64+1113.85+1824.49+1113.72+1824.44+1113.66C1823.97+1113.75+1823.64+1114+1823.34+1114.38C1821.69+1114.74+1819.33+1114.81+1818.88+1113.72C1818.75+1113.42+1818.74+1113.09+1818.75+1112.75C1821.03+1111.81+1823.03+1110.52+1822.03+1109.38C1821.81+1109.12+1821.55+1108.95+1821.25+1108.88ZM1824.44+1113.66C1824.57+1113.63+1824.69+1113.57+1824.81+1113.56C1824.76+1113.52+1824.77+1113.48+1824.66+1113.44C1824.27+1113.3+1824.25+1113.42+1824.44+1113.66ZM1650.5+1115C1647.34+1118.88+1637.24+1127.3+1636.09+1131.97L1636.16+1132.03C1638.28+1127.19+1647.6+1120.22+1651.19+1115.53L1650.5+1115ZM1742.69+1122.78C1741.51+1123.24+1739.9+1125.04+1739.19+1125.06C1737.55+1125.11+1735.92+1124.92+1734.28+1124.84L1732.75+1124.59C1734.78+1125.17+1736.78+1125.93+1738.84+1126.34C1739.99+1126.57+1742.33+1124.17+1743.41+1125.25C1744.42+1126.27+1742.27+1128.23+1742.66+1129.66C1743.84+1134.06+1746.84+1136.18+1750.97+1137.16C1756.85+1138.55+1763.62+1136.76+1769.38+1135.47C1770.22+1135.28+1774.45+1133.47+1776.16+1134.84C1778.49+1136.72+1769.8+1144.93+1777.97+1148.16C1785.32+1151.06+1791.65+1143.91+1798.66+1145.06C1799.15+1145.14+1798.64+1154.74+1802.09+1157.03C1809.25+1161.78+1814.53+1153.6+1821+1155.41C1822.39+1155.8+1819.7+1159.05+1820.81+1160.03C1823.75+1162.64+1828.78+1162.18+1832.09+1160.84L1832.03+1159.5C1829.29+1159+1825.49+1159.38+1822.94+1158.38C1821.78+1157.92+1823.57+1154.52+1821.5+1154.06C1815.38+1152.71+1809.68+1158.82+1803.69+1153.78C1800.91+1151.45+1802.54+1145.19+1799.66+1143.69C1793.95+1140.71+1785.35+1147.77+1778.88+1144.97C1775.08+1143.33+1779.84+1135.47+1776.41+1133.62C1769.46+1129.9+1757.83+1137.34+1749.62+1134.06C1743.57+1131.64+1747.06+1126.52+1743.66+1122.91C1743.41+1122.64+1743.08+1122.63+1742.69+1122.78ZM1882.09+1124.59C1878.64+1124.36+1873.65+1125.32+1870.84+1126.12C1873.22+1127.11+1875.99+1128.13+1878.12+1127.97C1879.47+1127.87+1883.33+1125.47+1884.5+1126.34C1884.84+1126.6+1883.95+1131.03+1883.94+1131.28C1883.73+1136.34+1885.9+1140.75+1891+1141.25C1895.83+1141.73+1901.41+1139.41+1905.69+1137.28C1905.97+1137.14+1912.21+1133.59+1912.47+1134.69C1913.15+1137.58+1907.84+1141.18+1910.22+1144.66C1916.89+1154.4+1927.37+1146.73+1936.22+1148.03C1940.35+1148.64+1941.04+1154.52+1945.03+1156.47L1945.97+1154.59C1943.1+1152.18+1941.96+1147.89+1937.88+1147.16C1931.48+1146.02+1921.94+1149.26+1916.16+1146.09C1911.7+1143.66+1915.39+1133.25+1911.38+1132.97C1904.35+1132.47+1897.79+1141.55+1890.16+1138.69C1884.87+1136.7+1887.75+1129.16+1885.16+1125.66C1884.69+1125.02+1883.55+1124.69+1882.09+1124.59ZM1870.84+1126.12C1869.95+1125.76+1868.91+1125.38+1868.28+1125.09L1868.88+1126.72C1869.19+1126.55+1870.1+1126.34+1870.84+1126.12ZM1618.94+1141.94C1617.74+1142.11+1614.53+1144.52+1613.09+1145.47L1613.12+1145.5C1610.12+1147.32+1606.85+1149.45+1605.19+1151.03C1604.28+1151.89+1601.7+1154.4+1603.56+1155.78C1607.06+1158.38+1617.56+1149.57+1620.69+1148.03C1621.28+1147.74+1626.8+1144.43+1627.62+1145.69C1627.86+1146.05+1616.66+1156.18+1619.84+1158.22C1623.04+1160.26+1630.78+1155.13+1633.5+1153.78C1634.72+1153.18+1637.74+1151.89+1638.66+1151.72C1638.64+1151.58+1638.71+1151.41+1638.66+1151.28C1638.08+1149.93+1625.95+1155.27+1625.09+1155.62C1623.63+1156.24+1620.35+1159.21+1620.72+1157.56C1621.71+1153.16+1630.12+1149.38+1628.22+1144.06C1627.57+1142.26+1623.06+1144.46+1622.38+1144.75C1619.66+1145.91+1612.07+1148.95+1607.69+1152.12C1608.36+1151.56+1608.8+1151.15+1610.19+1150.06C1612.31+1148.4+1618.43+1145.4+1619.31+1142.66C1619.5+1142.09+1619.34+1141.88+1618.94+1141.94ZM1638.66+1151.72C1638.67+1151.82+1638.66+1151.93+1638.66+1152.03C1638.66+1152.03+1638.68+1152+1638.69+1152C1639.07+1151.7+1638.98+1151.66+1638.66+1151.72ZM1638.66+1152.03C1637.81+1152.68+1627.25+1157.78+1629.84+1159.94C1631.96+1161.7+1637.27+1158.14+1639.41+1157.53C1640.72+1157.15+1644.83+1157.19+1643.47+1157.03C1641.43+1156.8+1644.12+1162.97+1645.16+1163.56C1648.71+1165.61+1651.73+1163.84+1654.97+1163C1654.41+1164.18+1654.42+1165.49+1655.41+1166.5C1657.75+1168.91+1661.16+1167.05+1663.94+1167.38C1671.23+1168.23+1677.67+1175.56+1683.88+1176.62L1684.19+1175.5C1681.45+1174.13+1681.57+1171.74+1679.38+1170.22C1676+1167.88+1670.62+1167.63+1666.91+1165.78C1664.1+1164.39+1658.57+1168.2+1657.66+1165.03C1657.12+1163.19+1658.83+1162.66+1657.53+1160.81C1657.11+1160.21+1649.74+1162.58+1648.47+1162.34C1644.84+1161.66+1645.66+1158.88+1644.16+1156.31C1643.34+1154.93+1638.89+1155.46+1635.41+1156.34C1637.08+1154.97+1638.55+1153.35+1638.66+1152.03ZM1866.97+1144.97L1865+1146.31C1878.22+1155.14+1886.83+1152.01+1900.56+1155.88C1905.83+1157.36+1907.68+1162.86+1912.81+1164.5C1919.28+1166.57+1931.06+1164.4+1936.12+1169.38L1936.97+1168.22C1933.85+1161.82+1921.74+1162.75+1915.88+1162C1909.99+1161.24+1907.96+1157.69+1903.03+1155.44C1891.53+1150.18+1878.84+1150.55+1866.97+1144.97ZM1719.31+1145.28L1718.5+1148.16C1718.3+1163.2+1731.98+1146.51+1739.16+1152.66C1742.42+1155.46+1742.38+1159.61+1747.19+1161.62C1754.95+1164.87+1763.61+1161.53+1771.25+1165C1776.09+1167.2+1771.94+1175.36+1779.06+1177.53C1787.12+1179.99+1795.38+1174.98+1803.28+1176.78C1810.6+1178.45+1814.09+1187.19+1821.81+1189.44L1822.38+1188.34C1816.31+1182.55+1809.54+1174.64+1800.91+1174C1794+1173.49+1785.58+1176.31+1778.81+1174.03C1774.19+1172.48+1775.99+1165.56+1771.78+1163.47C1764.35+1159.77+1755.99+1162.46+1748.41+1159.41C1744+1157.63+1743.16+1153.63+1739.75+1151C1729.53+1143.13+1720.46+1162.81+1719.31+1145.28ZM1855.53+1166.53C1853+1167+1846.61+1175.72+1845.91+1176.69C1837.04+1188.88+1828.69+1202.1+1825.97+1217.53C1825.36+1220.96+1825.18+1228.59+1828.19+1230.94L1828.41+1230.78C1819.64+1220.2+1838.5+1190.68+1844.25+1182.28C1845.35+1180.67+1854.72+1163.78+1856+1169.34L1856.41+1169.41C1856.78+1167.14+1856.37+1166.37+1855.53+1166.53ZM1859.38+1166.97L1859.12+1169.03C1883.75+1178.11+1914.35+1178.91+1937.72+1191.69C1937.76+1191.67+1938.1+1191.64+1938.09+1191.62C1936.57+1187.45+1924.48+1185.45+1921.28+1184.44C1900.7+1177.93+1879.72+1174.64+1859.38+1166.97ZM1937.72+1191.69C1937.4+1191.81+1936.29+1191.86+1935+1192C1936.76+1192.45+1938.96+1192.34+1938+1191.81C1937.91+1191.76+1937.81+1191.74+1937.72+1191.69ZM1935+1192C1934.06+1191.76+1933.23+1191.39+1933.12+1190.78C1932.97+1189.83+1931.89+1189.65+1930.78+1189.62C1930.88+1190.37+1931.26+1191.57+1932.94+1192.25C1933.11+1192.32+1934.02+1192.1+1935+1192ZM1930.78+1189.62C1930.73+1189.2+1930.69+1188.67+1930.75+1189.06C1930.77+1189.2+1930.58+1189.46+1930.56+1189.62C1930.64+1189.62+1930.7+1189.62+1930.78+1189.62ZM1930.56+1189.62C1930.05+1189.63+1929.51+1189.61+1929.09+1189.66C1925.34+1190.05+1920.39+1200.15+1918.47+1202.69C1910.39+1213.32+1903.3+1224.3+1899.78+1237.62C1898.66+1241.87+1895.47+1250.69+1900.5+1253.44L1901.06+1252.91C1897.4+1251.1+1901.27+1237.19+1902.25+1234.59C1907.22+1221.4+1916.08+1210.94+1923.69+1199.59C1924.71+1198.07+1930.2+1192.24+1930.56+1189.62ZM1708.5+1169.38L1708.28+1169.56C1708.39+1169.75+1708.76+1170.45+1708.91+1170.75C1708.78+1170.3+1708.63+1169.79+1708.5+1169.38ZM1708.91+1170.75C1710.2+1175.5+1711.08+1181.75+1716.75+1181.97C1720.11+1182.1+1723.82+1180.07+1726.72+1178.5C1727.62+1178.01+1729.54+1176.84+1730.31+1176.88C1728.97+1176.19+1718.92+1181.15+1717.09+1180.91C1713.32+1180.4+1710.33+1173.57+1708.91+1170.75ZM1730.31+1176.88C1730.57+1176.89+1730.7+1177.02+1730.62+1177.38C1730.07+1179.94+1727.86+1181.95+1727.94+1185C1728.27+1198.91+1750.55+1186.41+1756.12+1185.91C1758.41+1185.7+1754.91+1192.36+1754.81+1193.31C1754.43+1197+1756.21+1199.47+1759.28+1200.94C1767.95+1205.06+1776.9+1197.36+1785.22+1200.06C1777.37+1197.51+1768.82+1201.96+1761.06+1198.47C1755.66+1196.04+1759.79+1186.9+1756.94+1185.75C1751.79+1183.67+1741.59+1189.88+1735.81+1189.56C1726.1+1189.03+1733.25+1181.55+1730.62+1176.84C1730.6+1176.8+1730.36+1176.9+1730.31+1176.88ZM1872.91+1185.44C1871.87+1185.65+1870.86+1186.18+1869.94+1187.12L1870.19+1187.56C1872.99+1185.87+1875.04+1185.61+1876.59+1186.12C1875.42+1185.53+1874.17+1185.18+1872.91+1185.44ZM1876.59+1186.12C1877.2+1186.43+1877.79+1186.8+1878.31+1187.28C1877.85+1186.73+1877.28+1186.35+1876.59+1186.12ZM1878.31+1187.28C1879.19+1188.31+1879.73+1189.81+1879.91+1191.62C1879.53+1191.65+1878.99+1191.73+1878.53+1191.78C1878.14+1191.13+1877.36+1190.83+1876.31+1190.78C1876.71+1190.49+1877.51+1190.01+1877.47+1189.97C1877.25+1189.73+1876.86+1189.61+1876.38+1189.56C1876.45+1189.47+1876.59+1189.41+1876.66+1189.31C1877.11+1188.58+1876.41+1188.98+1875.44+1189.62C1874.43+1189.69+1873.15+1190.07+1871.81+1190.47C1871.99+1190.19+1872.19+1189.89+1872.09+1189.72C1870.82+1187.43+1860.13+1195.11+1860.56+1196.56C1860.64+1196.82+1860.94+1196.87+1861.16+1197C1861.39+1196.64+1862.3+1195.9+1862.88+1195.47C1862.1+1196.25+1861.79+1196.72+1862+1196.81C1862.02+1196.81+1861.79+1197.01+1861.84+1196.97C1861.92+1196.9+1862.01+1196.85+1862.09+1196.78C1862.32+1196.84+1863.2+1196.36+1863.97+1196C1865.1+1195.47+1866.16+1194.87+1867.62+1193.91C1867.69+1193.97+1867.79+1194.01+1867.88+1194.06C1868.25+1193.66+1868.94+1193.38+1869.78+1193.19C1869.22+1193.52+1868.68+1193.82+1868.09+1194.16C1868.13+1194.17+1868.15+1194.21+1868.19+1194.22C1868.03+1194.28+1867.89+1194.33+1867.81+1194.34C1866.58+1195.04+1865.41+1195.49+1864.16+1196.03C1864.26+1196.05+1864.41+1196.05+1864.53+1196.06C1864.33+1196.09+1864.14+1196.1+1864+1196.06C1863.27+1196.37+1862.54+1196.78+1861.84+1196.97C1861.69+1197.01+1861.52+1197.12+1861.38+1197.16C1862.37+1197.51+1864.3+1196.89+1866.44+1196.03C1866.51+1196.02+1866.61+1196.01+1866.69+1196C1860.6+1200.96+1855.28+1207.63+1863.16+1211.28C1871.68+1215.24+1879.31+1208.62+1881.19+1200.25C1883.67+1199.98+1885.89+1199.19+1884.66+1199.44C1884.24+1199.52+1883.4+1200.06+1882.66+1200.5C1882.2+1200.33+1882.14+1200.32+1882.5+1200.56C1881.22+1201.34+1880.36+1202.09+1882.94+1201.53L1883.03+1200.88C1884.07+1201.28+1885.51+1201.28+1885.25+1198.56C1885.15+1197.56+1883.36+1197.79+1881.5+1198.31C1881.52+1198.15+1881.52+1197.98+1881.53+1197.81C1882.06+1197.51+1882.49+1197.14+1882.88+1196.72C1883.52+1196.81+1883.96+1196.78+1883.59+1196.34C1883.5+1196.23+1883.34+1196.21+1883.22+1196.12C1883.48+1195.69+1883.77+1195.25+1883.81+1194.66C1883.82+1194.51+1882.43+1194.84+1881.66+1194.94C1881.64+1194.75+1881.52+1194.57+1881.5+1194.38C1882.22+1194.34+1882.68+1194.27+1882.22+1194.12C1882.13+1194.1+1881.65+1194.33+1881.5+1194.34C1881.46+1194.01+1881.34+1193.68+1881.28+1193.34C1881.7+1193.31+1881.9+1193.23+1881.47+1192.97C1881.42+1192.94+1881.25+1192.96+1881.19+1192.94C1881.17+1192.86+1881.14+1192.79+1881.12+1192.72C1881.35+1192.43+1881.48+1192.1+1881.44+1191.72C1881.43+1191.66+1881.03+1191.71+1880.88+1191.69C1880.76+1191.31+1880.77+1190.93+1880.62+1190.56C1880.12+1189.24+1879.28+1188.17+1878.31+1187.28ZM1861.38+1197.16C1861.28+1197.12+1861.23+1197.05+1861.16+1197C1861.06+1197.15+1861.09+1197.24+1861.31+1197.19C1861.33+1197.18+1861.35+1197.16+1861.38+1197.16ZM1864+1196.06C1864.05+1196.04+1864.11+1196.05+1864.16+1196.03C1864.1+1196.02+1864.02+1196.01+1863.97+1196C1863.99+1196.01+1863.97+1196.06+1864+1196.06ZM1867.81+1194.34C1867.92+1194.29+1867.99+1194.21+1868.09+1194.16C1868.02+1194.12+1867.94+1194.1+1867.88+1194.06C1867.85+1194.09+1867.8+1194.1+1867.78+1194.12C1867.6+1194.35+1867.67+1194.37+1867.81+1194.34ZM1871.28+1189.59C1871.72+1189.26+1870.76+1190.23+1870.22+1190.91C1869.55+1191.15+1869.02+1191.35+1868.38+1191.62C1869.35+1190.95+1870.36+1190.3+1871.28+1189.59ZM1878.12+1191.25C1877.89+1191.53+1877.45+1191.71+1877.09+1191.94C1876.77+1191.98+1876.61+1192.01+1876.28+1192.06C1877.38+1191.5+1878.65+1190.64+1878.12+1191.25ZM1871.09+1191.78C1870.72+1191.9+1870.61+1191.94+1870.28+1192.06C1870.33+1192.02+1870.36+1191.98+1870.41+1191.94C1870.64+1191.89+1870.86+1191.83+1871.09+1191.78ZM1868.97+1192.31C1868.6+1192.55+1868.2+1192.73+1867.81+1192.94C1867.75+1192.98+1867.18+1193.14+1867.19+1193.16C1867.19+1193.2+1867.24+1193.21+1867.25+1193.25C1866.41+1193.67+1865.61+1194.18+1864.78+1194.62C1864.97+1194.47+1865.15+1194.31+1865.34+1194.16L1865.16+1193.88C1865.56+1193.6+1865.94+1193.3+1866.34+1193.03C1867.13+1192.74+1868.02+1192.52+1868.97+1192.31ZM1880+1193.41C1880+1193.73+1879.89+1194.11+1879.88+1194.44C1879.71+1194.45+1879.46+1194.46+1879.34+1194.47C1878.48+1194.55+1877.1+1194.56+1875.78+1194.62C1877.23+1194.37+1878.72+1194.02+1880+1193.41ZM1879.81+1194.88C1879.8+1194.98+1879.76+1195.08+1879.75+1195.19C1879.7+1195.2+1879.7+1195.18+1879.66+1195.19C1879.36+1195.18+1879.23+1195.15+1878.91+1195.16C1879.28+1195.01+1879.47+1194.99+1879.81+1194.88ZM1870.88+1195.19C1870.29+1195.58+1869.96+1195.94+1870.31+1196.22C1870.48+1196.35+1870.76+1196.36+1870.97+1196.44C1871+1196.47+1871+1196.55+1871.12+1196.5C1872.03+1196.79+1873.12+1196.83+1874.31+1196.66C1874.39+1196.71+1874.42+1196.84+1874.5+1196.88C1874.5+1196.87+1874.53+1196.88+1874.53+1196.88C1875.87+1197.45+1878.06+1196.5+1879.44+1196.28C1879.47+1196.28+1879.55+1196.32+1879.59+1196.31C1879.59+1196.37+1879.57+1196.42+1879.56+1196.47C1877.68+1197.32+1876.04+1198.71+1876.59+1199.38C1877.07+1199.95+1877.9+1200.24+1878.84+1200.34C1876.36+1208.82+1870.1+1216.58+1863.22+1209.47C1859.65+1205.78+1863.49+1200.1+1867.91+1195.75C1868.89+1195.58+1869.82+1195.47+1870.88+1195.19ZM1879.22+1198.91C1879.2+1199+1879.21+1199.09+1879.19+1199.19C1878.61+1199.42+1877.61+1199.7+1877.44+1199.81C1877.36+1199.86+1877.58+1199.7+1877.66+1199.66C1878.11+1199.39+1878.68+1199.14+1879.22+1198.91ZM1786.44+1200.84C1788.3+1203.18+1783.84+1208.78+1787.03+1211.62C1791.2+1215.34+1799.04+1211.31+1803.66+1211.59C1808.17+1211.87+1810.18+1216.05+1814.62+1215.59L1814.66+1214.88C1810.29+1213.87+1808.45+1210.48+1803.53+1210.06C1798.87+1209.67+1793.8+1211.95+1789.25+1210C1785.84+1208.54+1788.63+1203.11+1786.44+1200.84ZM1862.03+1216.62C1861.88+1217.17+1861.59+1217.6+1861.38+1218.09C1861.71+1217.86+1862.31+1217.35+1862.5+1217.25L1862.03+1216.62ZM1861.38+1218.09C1857.81+1220.64+1847.24+1230.23+1849.06+1231.69L1849.66+1231.47C1849.23+1232.12+1852.44+1228.37+1853.06+1227.75C1856.1+1224.71+1859.66+1222.12+1861.38+1218.09ZM1862.75+1218.88C1855.7+1235.65+1856.63+1229.29+1856.09+1235.44C1848.88+1234.11+1841.08+1233.07+1829.69+1231.19L1829.53+1232.47C1849.72+1236.34+1862.28+1237.88+1879.41+1243.78L1879.97+1242.06C1870.73+1238.6+1863.77+1236.85+1856.12+1235.44C1857.16+1229.5+1860.38+1226.1+1863.62+1219.38L1862.75+1218.88ZM1861.75+1224.16C1861.94+1227.26+1862.12+1230.36+1862.31+1233.47L1862.88+1233.5C1863.2+1230.43+1863.52+1227.38+1863.84+1224.31L1861.75+1224.16Z" stroke="#000000" stroke-width="1" fill="#000000" opacity="1" stroke-linejoin="round"/>
</g>
</svg>
