<?xml version="1.0" encoding="UTF-8" standalone="no"?> <!-- Created with Vectornator Pro for iOS (http://vectornator.io/) --><!DOCTYPE svg PUBLIC "-//W3C//DTD SVG 1.1//EN" "http://www.w3.org/Graphics/SVG/1.1/DTD/svg11.dtd">
<svg height="100%" style="fill-rule:evenodd;clip-rule:evenodd;stroke-linecap:round;stroke-linejoin:round;" xmlns:xlink="http://www.w3.org/1999/xlink" xmlns="http://www.w3.org/2000/svg" xml:space="preserve" width="100%" xmlns:vectornator="http://vectornator.io" version="1.1" viewBox="0 0 3840 2160">
<metadata>
<vectornator:setting key="RulersVisible" value="1"/>
<vectornator:setting key="GridSpacing" value="36"/>
<vectornator:setting key="Units" value="Pixels"/>
<vectornator:setting key="DynamicGuides" value="1"/>
<vectornator:setting key="SnapToPoints" value="0"/>
<vectornator:setting key="CMYKEnabledKey" value="0"/>
<vectornator:setting key="SnapToGrid" value="0"/>
<vectornator:setting key="ShowGrid" value="1"/>
<vectornator:setting key="SnapToEdges" value="0"/>
</metadata>
<defs/>
<g id="Layer 1" vectornator:layerName="Layer 1">
<path d="M1871.34+352.156C1807.9+352.156+1756.47+400.705+1756.47+460.594C1756.47+482.292+1763.31+502.454+1774.94+519.406C1736.49+526.218+1691.87+522.073+1654.28+524.625C1622.26+526.799+1593.29+537.362+1566.44+552.375C1528.03+560.234+1476.96+557.821+1440.72+583.344C1403.08+609.85+1404.76+673.662+1330.94+686.25C1314.16+689.111+1296.57+686.161+1279.53+684.656C1230.85+655.075+1189.37+630.682+1129.28+655.594C1113.4+662.179+1098.76+672.136+1091.47+688.062C1069.17+736.769+1129.15+743.066+1063.59+775.781L1063.81+776.062C1130.95+744.076+1071.22+737.004+1094.34+689.781C1101.66+674.849+1115.51+665.28+1130.72+659.094C1187.12+636.149+1224.48+658.462+1269.72+683.969C1213.4+681.663+1151.33+704.022+1122.91+754.344C1155.12+706.139+1214.48+687.53+1270.94+690.75C1282.76+691.424+1294.88+693.229+1306.94+694.031C1266.73+716.205+1340.12+772.158+1356.22+797.594C1363.81+809.59+1365.53+822.871+1364.53+836.75C1362.15+869.746+1308.78+925.758+1270.41+905.094C1248.6+893.352+1283.8+872.041+1294.34+868.688L1294.09+867.969C1281.68+872.095+1246.67+894.599+1269.09+908.562C1308.92+933.363+1358.91+875.44+1367.69+844.938C1380.88+799.062+1337.82+778.716+1314.97+746.906C1297.86+723.1+1291+705.299+1313.38+694.281C1320.07+694.459+1326.76+694.359+1333.31+693.156C1411.52+678.812+1406.87+610.236+1452.06+585.094C1476.46+571.518+1518.01+567.58+1552.44+560.719C1538.78+569.359+1525.63+578.947+1512.97+589.219C1466.3+627.083+1413.57+680.744+1463+736.906L1464.16+736.062C1428.8+689.689+1460.63+646.033+1498.41+612.812C1469.3+658.413+1551.62+677.354+1568.84+717.406C1574.02+729.437+1580.08+745.775+1573.78+758.188C1569.94+765.761+1546.04+791.998+1543.94+775.938L1543.47+775.938C1540.86+795.879+1567.04+774.834+1572.5+768.656C1583.04+756.732+1583.08+742.43+1578.75+728.031C1572.7+707.887+1559.2+686.588+1541.47+674.25C1517.05+657.258+1482.24+647.107+1501.19+612.531L1499.78+611.625C1508.59+603.969+1517.57+596.709+1526.19+590.312C1564.15+562.137+1606.52+538.774+1655.03+535.75C1693.41+533.358+1740.84+536.341+1780.84+527.219C1801.87+552.631+1834.54+569+1871.34+569C1873.88+569+1876.35+568.84+1878.84+568.688C1879.43+578.584+1882.85+588.146+1886.19+597.812C1886.55+611.903+1887.26+625.969+1891.31+639.938C1883.76+671.943+1857.05+710.841+1824.19+721.312C1802.26+728.299+1774.53+713.726+1753.03+711.5C1704.38+706.462+1661.18+719.102+1632.19+758.656C1584.02+824.372+1685.74+875.691+1712.66+814.438C1696.79+850.555+1629.87+845.968+1623.31+804.438C1619.61+780.988+1637.16+759.207+1653.06+743.656C1712.83+685.21+1778.54+746.952+1828.5+730.438C1856.45+721.199+1876.55+695.574+1889.56+671.062C1892.14+666.208+1894.47+661.048+1896.53+655.75C1915.73+711.334+1938+765.652+1946.56+824.125C1949.53+844.365+1947.34+861.802+1942.19+877.688C1879.83+977.74+1760.06+943.407+1660+955.812C1624.42+947.23+1576.66+951.414+1535.31+966.938L1534.69+965.719C1494.41+969.509+1460.12+992.086+1417.59+991.906C1403.24+991.845+1382.75+991.566+1373.66+977.969C1354.4+949.17+1417.94+878.386+1450.19+898.469C1419.86+877.762+1370.8+930.576+1366.47+958.656C1362.32+985.543+1387.59+996.229+1410.38+996.062C1463.19+995.678+1488.59+976.904+1532.28+968.156C1523.61+971.558+1515.24+975.41+1507.38+979.812C1469.49+995.287+1435.2+1015.15+1400.12+1033.69C1393.34+1036.27+1386.92+1039.55+1380.91+1043.44C1343.54+1062.23+1304.54+1078.56+1258.53+1085.38C1235.81+1088.74+1173.24+1099.15+1154.88+1074.47C1131.83+1043.5+1177.21+995.647+1210.44+1015.59C1224.38+1023.96+1219.51+1058.71+1211.78+1056.03C1220.98+1059.49+1224.5+1024.17+1210.59+1015.25C1174.42+992.041+1126.72+1044.83+1151.56+1078.34C1171.73+1105.55+1233.67+1095.75+1259.69+1091.88C1295.98+1086.47+1328.3+1075.43+1359.31+1061.59C1332.36+1090.53+1318.57+1133.1+1322.66+1171.31C1325.93+1201.89+1350.09+1261.1+1324.22+1287.06C1308.32+1303.02+1278.69+1309.5+1257.88+1315.75C1207.15+1330.99+1138.24+1353.16+1115.94+1406.12C1095.02+1455.81+1192.02+1483.44+1208.62+1452.81C1192.55+1478.72+1102.85+1453.17+1121.47+1409.12C1143.32+1357.45+1211.77+1338.64+1260.66+1323.62C1284.72+1316.23+1324.25+1307.38+1336.53+1282.5C1352.67+1249.8+1335.74+1204.12+1331.72+1170.69C1326.89+1130.53+1342.18+1084.69+1372.22+1055.75C1395.04+1044.89+1417.49+1032.52+1440.16+1019.84C1401.2+1051.39+1363.05+1100.32+1364.09+1126.56L1364.19+1126.56C1365.53+1092.78+1420.55+1034.19+1464.38+1006.38C1465.46+1005.78+1466.48+1005.19+1467.56+1004.59C1472.2+1002.03+1477.02+999.629+1481.91+997.312C1463.58+1013.03+1450.85+1032.56+1447.84+1055.66C1443.81+1086.65+1459.96+1113.6+1465.25+1143.12C1471.67+1178.93+1466.63+1222.43+1455.69+1257.03C1448.71+1279.09+1435.02+1294.45+1416.59+1308.19C1354.25+1354.67+1193.01+1436.12+1310.16+1523.59C1322.97+1533.16+1336.05+1539.72+1352.03+1542.94C1378.04+1548.17+1406.45+1545.51+1431.81+1538.91L1431.72+1538.38C1411.28+1543.08+1391.24+1543.76+1370.28+1542.47C1316.44+1539.16+1249.17+1479.01+1283.69+1423.03C1314.79+1372.59+1374.14+1346.91+1420.19+1312.34C1439.52+1297.83+1453.8+1281.5+1461.34+1258.41C1463.75+1251.04+1465.72+1243.32+1467.44+1235.44C1470.92+1265.22+1499.42+1281.28+1525.81+1300.03C1560.88+1324.95+1599.67+1350.28+1622.94+1387.19C1629.35+1397.36+1635.17+1409.03+1637.12+1420.97C1646.52+1478.43+1563.62+1487.27+1582.12+1432.59L1581.41+1432.28C1555.81+1486.04+1644.95+1489.47+1644.69+1430.09C1644.63+1417.48+1641.35+1406.4+1635.72+1395.09C1613.6+1350.7+1569.42+1322.37+1530+1294.31C1502.82+1274.97+1471.58+1260.17+1469.19+1226.72C1474.28+1198.65+1475+1168.71+1470.31+1141.94C1465.34+1113.5+1450.56+1087.3+1454.78+1057.59C1464.98+985.817+1576.47+949.682+1648.88+957.406C1622.35+961.757+1597.46+969.93+1575.72+985.594C1546.35+1006.76+1510.23+1052.46+1537.53+1088.47C1555.49+1112.15+1610.24+1114.77+1623.69+1084.84L1623.19+1084.56C1608.39+1109.88+1557.27+1110.1+1540.41+1087.06C1516.19+1053.99+1552.83+1008.85+1579.59+991.281C1614.05+968.666+1656.74+964.37+1701.28+963.688C1698.21+965.113+1695.23+966.673+1692.06+968.625C1635.09+1003.69+1706.65+1020.58+1723.28+1047.53C1744.03+1081.15+1730.33+1126.56+1706.81+1154.84C1698.62+1164.7+1687.73+1172.55+1675.62+1176.97C1666.3+1180.37+1657+1181.95+1647.03+1181.97C1642.69+1181.98+1636.15+1181.29+1632+1179.97C1590.93+1166.92+1666.04+1102.3+1675.44+1143.25L1675.47+1143.25C1666.23+1101.83+1587.84+1167.42+1631.84+1181.09C1635.98+1182.38+1642.83+1183.09+1647.16+1183.09C1657.33+1183.11+1666.76+1181.6+1676.28+1178.12C1688.67+1173.61+1699.55+1165.64+1707.88+1155.53C1731.3+1127.08+1744.13+1080.67+1723.81+1047.09C1709.1+1022.77+1641.05+1004.81+1687.69+971.875C1692.58+968.42+1697.75+965.975+1703.09+963.656C1787.83+962.545+1879.04+974.032+1933.5+898.625C1908.73+945.749+1859.73+979.945+1848.53+1034.69C1836.88+1091.64+1893.18+1131.38+1881.84+1189.69C1877.95+1209.74+1868.66+1227.64+1858.59+1245.25C1826.43+1301.5+1750.25+1316.69+1709.66+1256.66C1697.28+1238.36+1702.31+1203.73+1730.09+1201.28L1729.94+1200.66C1698.26+1198.28+1688.89+1241.94+1702.97+1262.34C1712.7+1276.44+1732.53+1288.21+1748+1294.81C1808.97+1320.82+1861.97+1275.21+1881.53+1217.5C1886.94+1201.55+1889.7+1185.85+1889.84+1170.06C1913.92+1206.08+1949.42+1229.29+1987.47+1249.62L1986.91+1250.75C2041.27+1278.18+1972.61+1304.35+1955.19+1329.19C1940.53+1350.08+1937.28+1382.95+1972+1382.28L1972.06+1381.75C1938.55+1381.09+1939.7+1350.51+1955.94+1329.75C1963.19+1320.47+1979.19+1310.57+1992.31+1300.19C1982.17+1335.33+2017.42+1328.12+2036.88+1350.22C2055.06+1370.88+2062.22+1401+2055.47+1427.44C2049.55+1450.62+2021.75+1491.67+1992.16+1483.44C1954.51+1472.97+1994.62+1437.53+2013.56+1432.22C1993.47+1437.85+1952.53+1474+1992.16+1484.78C2022.29+1492.98+2050.34+1451.23+2056.34+1427.56C2063.12+1400.86+2055.65+1370.49+2037.38+1349.62C2019.86+1329.62+1982.46+1331.43+1992.94+1299.69C2009.36+1286.57+2020.59+1272.65+2003.44+1258.16C2031.27+1272.38+2059.78+1285.81+2085.66+1302.16C2120.17+1323.96+2165.44+1352.68+2174.22+1395.66C2177.32+1410.86+2177.16+1428.25+2173.91+1443.41C2168.28+1469.65+2143.9+1537.24+2106+1533.03C2081.7+1530.33+2042.89+1474.95+2070.84+1474.16L2070.78+1473.78C2035.87+1472.92+2077.11+1528.08+2091.12+1535.12C2136.78+1558.07+2167.73+1496.34+2178.5+1444.31C2183.58+1480.17+2215.83+1511.58+2218.75+1544.62C2220.59+1565.49+2198.7+1586.09+2213.16+1606.25C2221.07+1617.28+2243.05+1632.31+2257.66+1627.22C2263.56+1625.16+2284.07+1600.72+2270.28+1601.16C2283.07+1601.57+2262.05+1626.44+2254.16+1627.5C2239.73+1629.43+2222.26+1616.58+2214.75+1605.47C2201.44+1585.76+2221.64+1564.97+2219.66+1544.47C2216.62+1513.08+2184.65+1478.84+2179.25+1440.62C2182.93+1421.29+2183.85+1403.6+2181.47+1392.62C2156.67+1278.16+1957.61+1259.97+1889.75+1162.25C1889.21+1150.89+1887.3+1139.43+1883.94+1127.81C1875.7+1099.35+1853.44+1079.39+1856.34+1048C1857.98+1030.29+1864.6+1014.49+1873.72+999.562C1852.34+1074.98+1987.27+1075.34+2030.56+1138.31C2039.5+1151.31+2046.46+1170.37+2036.09+1184.69C2026.47+1197.98+2004.25+1199.32+2001.72+1181.72L1999.88+1181.72C1997.47+1203.02+2023.16+1200.41+2035.5+1190.53C2054.9+1174.99+2044.7+1144.94+2031.94+1128.78C2029.74+1126+2027.34+1123.49+2025.03+1120.88C2056.26+1133.92+2119.29+1095.62+2148.03+1120.28C2173.07+1141.77+2166.4+1186.48+2169.41+1214.88C2173.95+1257.83+2207.09+1299.21+2250.41+1310.06C2265.58+1313.86+2280.57+1314.09+2295.72+1310.16C2329.56+1301.37+2364.63+1275.5+2379.97+1244.03C2388.01+1227.53+2388.5+1205.13+2368.09+1197.78C2340.87+1187.98+2304.15+1219.42+2340.66+1228.38C2304.62+1218.02+2348.39+1186.12+2373.78+1203C2387.4+1212.05+2384.86+1230.45+2378.66+1243.16C2363.66+1273.87+2328.53+1299.27+2295.53+1307.72C2280.82+1311.49+2266.24+1311.29+2251.5+1307.62C2209.42+1297.15+2175.81+1256.73+2171.28+1214.81C2168.09+1185.34+2174.67+1141.21+2148.88+1118.97C2142.85+1113.78+2135.64+1111.29+2127.81+1110.38C2188+1101.99+2298.62+1076.18+2332.5+1140.25C2336.85+1148.47+2338.82+1156.48+2337.97+1165.66C2337.38+1171.99+2334.12+1178.52+2330.19+1183.47C2297.76+1224.3+2256.33+1169.7+2293.88+1151.75C2254.24+1170.18+2297.38+1225.94+2330.56+1183.66C2334.54+1178.58+2337.79+1172.07+2338.44+1165.62C2339.37+1156.31+2337.5+1148.2+2333.12+1139.81C2299.31+1074.95+2186.73+1102.02+2126.81+1110.22C2093.23+1106.92+2047.53+1133.16+2022.41+1117.88C2009.3+1103.72+1994.29+1092.02+1976.19+1083.56C1932.46+1063.13+1853.49+1049.3+1884.25+984.875C1884.77+983.786+1885.4+982.77+1885.97+981.719C1914.1+944.145+1952.4+910.059+1956.5+862.156C1962.1+796.787+1935.41+733.346+1912.22+672.562C1920.26+688.611+1929.45+703.501+1939.62+716.375C1973.82+759.625+2018.68+795.592+2046.06+844.188C2047.26+846.318+2048.28+848.52+2049.31+850.719C2047.63+871.122+2025.86+889.997+2014.09+907.719C1989.96+944.047+1980.66+979.475+1988.75+1022.56C1990.38+1031.25+1993.9+1040.09+1999.97+1046.81C2004.63+1051.97+2011.74+1055.93+2018.22+1058.28C2026.7+1061.36+2034.64+1061.7+2043.47+1059.91C2079.24+1052.62+2074.7+1017.71+2042.09+1032.31L2042.41+1033.44C2078.77+1020.34+2071.93+1056.47+2035.22+1057.16C2026.36+1057.32+2017.33+1053.57+2010.34+1048.41C2003.79+1043.56+1999.16+1037.41+1995.97+1029.91C1992.95+1022.81+1991.72+1014.04+1991.06+1006.44C1987.6+966.602+2002.38+935.356+2024.31+902.781C2034.04+888.339+2048+873.863+2052.62+858.594C2069.01+901.787+2060.81+954.911+2091.28+990.875C2120.54+1025.4+2171.05+1032+2213+1044.22L2213.19+1043.59C2184.44+1033.25+2150.47+1024.98+2124.34+1009.44C2089.45+988.685+2082.64+951.695+2076.69+913.875C2106.94+945.867+2157.03+947.078+2200.56+948.969C2220.83+949.849+2244.08+950.252+2268.38+951.219C2305.19+965.948+2343.11+1013.74+2306.75+1046.66C2290.63+1061.25+2267.71+1059.74+2259.69+1048.84C2264.3+1057.43+2273.95+1064.34+2282.38+1064.69C2293.38+1065.14+2303.48+1056.2+2310.75+1049.31C2337.9+1023.58+2318.97+973.367+2289.09+952.281C2351.26+955.787+2417.05+964.987+2457.72+998.031C2466.9+1005.49+2475.38+1014.31+2480.66+1024.91C2485.45+1034.53+2487.51+1045.97+2487.53+1056.59C2487.63+1112.07+2411.27+1117.5+2392.81+1079.84C2392.76+1090.41+2410.94+1101.36+2425.78+1106.66C2455.78+1117.36+2488.38+1096.98+2492.19+1066.22C2493.59+1054.85+2492.99+1043.71+2489.78+1032.66C2486.25+1020.49+2479.95+1010.62+2471+1001.5C2427.19+956.854+2343.45+946.852+2270.25+943.688C2265.26+942.577+2260.21+942.232+2255.16+943.156C2235.66+942.52+2216.93+942.159+2200.56+941.688C2154.71+940.366+2107.99+938.862+2075.47+906.344C2072.82+889.481+2069.94+872.65+2064.53+857.219C2088.41+874.304+2098.01+896.991+2138.31+896.281C2185.14+895.456+2223.45+852.411+2256.69+850.625C2263.52+850.258+2276.86+880.982+2274.88+883.594C2272.91+886.172+2263.5+893.901+2261.72+886.906C2262.87+894.525+2274.95+886.837+2276.97+883.688C2280.18+878.673+2264.01+846.835+2255.84+846.438C2224.31+844.902+2180.37+887.667+2138.84+889.312C2101.96+890.774+2088.7+865.616+2062+850.625C2059.35+844.215+2056.19+838.065+2052.28+832.344C2016.07+779.397+1962.95+737.77+1930.59+682.938C1925.91+674.996+1921.58+666.586+1917.56+657.844C1928.02+671.49+1942.92+680.208+1957.84+689.656C1977.07+701.832+1997.9+707.188+2019.31+709.25C2024.63+718.355+2044.04+724.006+2053.12+725.562C2095.52+732.83+2150.13+710.617+2188.91+732.938C2232.33+757.931+2200.3+828.714+2146.06+829.688L2146.06+829.969C2205.46+831.022+2236.92+755.482+2191.66+726.531C2166.73+710.587+2131.19+717.73+2103.44+718.625C2079.03+719.412+2059.82+716.174+2039.94+710.281C2063.49+710.463+2087.37+707.898+2110.41+706.312C2159.54+702.93+2207.03+710.048+2252.06+729.969C2303.35+752.653+2281.42+803.676+2312.44+838.688C2340.61+870.49+2394.55+870.399+2433.44+874.688L2433.47+874.281C2394.78+869.113+2335.44+866.454+2311.34+830.469C2288.22+795.93+2307.17+751.046+2262.84+727.188C2158.63+671.092+2091.65+718.702+2005.69+694.781C1983.83+688.699+1952.65+680.437+1935.56+665.219C1921.57+652.756+1916.2+628.892+1905.38+623.406L1904.34+623.938C1898.4+605.581+1894.1+586.425+1891.62+567.25C1933.03+560.274+1966.69+532.404+1980+495.562C2023.63+519.547+2092.25+529.793+2123.28+534C2139.49+536.197+2156.15+536.991+2172.28+539.625C2178.29+540.606+2184.4+541.166+2190.53+541.594L2190.47+541.844C2205.09+548.001+2235.45+550.31+2243.31+563.219C2251.58+576.79+2231.35+595.527+2222.44+602.031C2195.23+621.881+2096.66+653.197+2146.75+697.469L2146.94+697.281C2102.04+648.849+2207.28+625.268+2234.34+603C2249.15+590.82+2260.04+562.662+2238.72+551.25C2230.6+546.907+2221.05+544.896+2211.53+542.812C2218.7+543.223+2225.88+543.718+2232.94+544.75C2259.59+548.645+2284.78+551.638+2309.47+562.562C2352+581.383+2401.03+609.832+2403.47+660.188C2404.77+687.001+2370.6+755.643+2334.62+727.969L2334.16+728.531C2353.4+751.376+2380.49+730.397+2397.12+708.219C2396.53+714.178+2396.86+720.413+2396.84+726.188C2396.7+782.757+2434.06+780.447+2467.75+816.281C2482.33+831.783+2458.41+850.265+2443.28+850.875L2443.28+851C2459.34+851.648+2482.91+836.782+2473.81+817.938C2461.75+792.964+2428.08+787.423+2411.31+767.625C2398.4+752.385+2398.44+719.863+2402.81+699.938C2403.01+699.63+2403.25+699.305+2403.44+699C2409.73+715.706+2435.82+729.547+2448.34+738.906C2505.67+781.747+2578.64+797.003+2623.75+855.5C2632.57+866.934+2641.33+882.123+2647.19+898.25L2645.91+897.656C2641.31+904.975+2645.45+910.948+2652.25+915.719C2655.43+931.997+2654.5+948.309+2646.19+962.031C2633.79+982.495+2554.68+1001.87+2577.16+969.062L2575.5+967.781C2548.44+999.736+2610.67+991.525+2626.88+984.531C2652.32+973.551+2661.01+950.577+2660.28+926.406C2695.56+974.885+2765.99+1017.07+2758.44+1082.06C2757.54+1089.78+2754.84+1099.62+2750.12+1106.12C2746.24+1111.49+2742.04+1117.34+2736.03+1120.59C2702.8+1138.58+2692.29+1115.12+2701.94+1098.34C2693.12+1107.84+2689.74+1119.64+2704.34+1125.97C2748.29+1145.01+2766.34+1084.25+2759.81+1054.5C2748.1+1001.11+2693.58+962.534+2660.03+920.375C2660.03+920.344+2660.03+920.313+2660.03+920.281C2666.93+923.591+2674.36+925.973+2678.78+927.344C2707.31+936.192+2751.07+935.923+2770.06+908.812C2774.59+902.348+2776.41+895.507+2776.41+887.812C2776.41+840.347+2714.46+847.901+2719.94+866.031C2717.3+848.785+2801.71+851.453+2766.28+904.844C2749.71+929.82+2706.08+929.096+2680.72+921.75C2675.63+920.275+2666.53+917.899+2659.25+914.312C2657.04+899.901+2651.96+885.661+2645.28+873.906C2604.37+801.869+2531.86+784.216+2466.62+741.781C2454.19+733.689+2410.89+711.386+2406.56+693.938C2408.51+690.341+2410.01+687.005+2410.97+684.125C2425.82+639.346+2393.34+599.942+2358.31+576.312C2330.54+557.575+2299.68+546.407+2267.31+539.062C2343.2+539.632+2449.41+538.736+2496.94+583.5C2540.63+624.652+2440.41+683.478+2498.66+710.125C2507.63+714.232+2517.72+716.913+2527.34+719.094C2537.48+721.391+2548.58+723.773+2558.97+723.656L2559+723.469C2548.65+723.352+2537.49+721.155+2527.41+718.812C2420.4+693.947+2553.94+632.082+2500.97+578.719C2450.6+527.976+2316.38+532.019+2241.56+534.062C2180.51+523.753+2115.8+523.225+2057.44+509.344C2031.16+503.095+2004.33+498.065+1982.66+486.906C1984.89+478.463+1986.19+469.691+1986.19+460.594C1986.19+400.705+1934.78+352.156+1871.34+352.156ZM2701.94+1098.34C2708.26+1091.53+2717.27+1085.88+2724.88+1084.47C2713.78+1085.53+2706.01+1091.26+2701.94+1098.34ZM1450.19+898.469C1451.62+899.447+1453.06+900.401+1454.41+901.719C1453.08+900.416+1451.65+899.382+1450.19+898.469ZM2720.16+905.562C2720.67+907.59+2722.24+909.851+2725.03+912.312C2722.47+909.978+2720.93+907.705+2720.16+905.562ZM2648.28+942.844C2647.98+945.432+2648.85+947.745+2650.44+949.844C2649.84+947.485+2649.01+945.179+2648.28+942.844ZM2258.31+1032.31C2257.78+1033.51+2257.44+1034.73+2257.22+1035.97C2257.48+1034.79+2257.81+1033.57+2258.31+1032.31ZM2257.22+1035.97C2256.11+1040.98+2257.13+1045.25+2259.56+1048.66C2257.44+1044.62+2256.46+1040.21+2257.22+1035.97ZM2407.19+1119.75C2403.26+1121.45+2400.27+1123.24+2398.03+1125.12C2401.78+1122.89+2406.14+1121.31+2407.56+1120.56L2407.19+1119.75ZM2398.03+1125.12C2394.11+1127.47+2390.86+1130.53+2392.47+1134.22C2392.56+1134.43+2392.72+1134.57+2392.81+1134.78C2392.83+1131.47+2394.37+1128.2+2398.03+1125.12ZM2286+1426.41C2271.68+1426.23+2259.2+1434.68+2271.16+1449.38C2250.78+1422.93+2319.98+1417.09+2310.72+1454.75C2308.95+1461.95+2305.66+1467.88+2301.19+1473.75C2296.62+1479.75+2291.23+1484.85+2284.81+1489C2255.04+1508.25+2211.36+1491.15+2192.56+1464.59C2185.2+1454.19+2184.95+1441.62+2181.34+1430.03L2181.09+1430.16C2184.27+1441.9+2184.43+1454.5+2191.72+1465.03C2210.36+1491.94+2255.38+1509.59+2285.44+1490.34C2292+1486.14+2297.57+1480.85+2302.25+1474.75C2306.86+1468.73+2310.26+1462.59+2311.97+1455.16C2316.51+1435.37+2300.32+1426.58+2286+1426.41Z" stroke="#000000" stroke-width="1" fill="#00ff44" opacity="1" stroke-linejoin="round"/>
</g>
</svg>
