<?xml version="1.0" encoding="UTF-8" standalone="no"?> <!-- Created with Vectornator Pro for iOS (http://vectornator.io/) --><!DOCTYPE svg PUBLIC "-//W3C//DTD SVG 1.1//EN" "http://www.w3.org/Graphics/SVG/1.1/DTD/svg11.dtd">
<svg height="100%" style="fill-rule:evenodd;clip-rule:evenodd;stroke-linecap:round;stroke-linejoin:round;" xmlns:xlink="http://www.w3.org/1999/xlink" xmlns="http://www.w3.org/2000/svg" xml:space="preserve" width="100%" xmlns:vectornator="http://vectornator.io" version="1.1" viewBox="0 0 3840 2160">
<metadata>
<vectornator:setting key="RulersVisible" value="1"/>
<vectornator:setting key="SnapToEdges" value="0"/>
<vectornator:setting key="Units" value="Pixels"/>
<vectornator:setting key="DynamicGuides" value="0"/>
<vectornator:setting key="SnapToPoints" value="0"/>
<vectornator:setting key="SnapToGrid" value="0"/>
<vectornator:setting key="ShowGrid" value="1"/>
<vectornator:setting key="GridSpacing" value="36"/>
</metadata>
<defs/>
<g id="Layer 4" vectornator:layerName="Layer 4">
<path d="M1680.02+944.07C1680.02+956.969+1687+966.904+1688.82+979.596C1689.99+987.81+1688.99+995.922+1689.49+1004.14C1690.3+1017.22+1694.32+1030.58+1696.26+1043.54C1698.87+1061.01+1701.18+1077.62+1706.4+1094.57C1711.85+1112.28+1717.92+1129.98+1721.28+1148.19C1723.99+1162.87+1721.77+1182.56+1731.43+1195.34C1739.01+1205.37+1755.86+1206.65+1767.28+1210.84C1799+1222.49+1829.66+1222.8+1863.32+1224.41C1914.29+1226.84+1978.6+1236.01+2021.59+1201.8C2040.72+1186.58+2043.8+1163.08+2050.67+1141.73C2053.65+1132.5+2058.62+1123.06+2059.47+1113.31C2060.59+1100.47+2060.14+1087.46+2060.14+1074.55C2060.14+1065.55+2061.76+1054.9+2059.47+1046.13C2054.75+1028.1+2046.64+1010.73+2042.56+992.515C2034.41+956.182+2019.6+913.509+1988.45+889.165C1957.75+865.177+1919.69+860.743+1881.58+860.743" opacity="1" fill="#ffffff"/>
</g>
<g id="Layer 2" vectornator:layerName="Layer 2">
<path d="M2051.99+1147.53C2059.01+1168.8+2062.31+1190.9+2069.05+1212.25C2070.42+1216.59+2073.34+1220.93+2075.76+1224.83C2075.81+1224.9+2078.77+1229.33+2079.47+1228.97C2080.32+1228.52+2080.96+1223.87+2081.21+1222.83C2082.33+1218.21+2083.44+1213.59+2084.45+1208.91C2085.74+1202.88+2085.88+1196.95+2086.64+1190.91C2087.26+1186.06+2089.65+1181.74+2090.31+1176.93C2092.05+1164.33+2093.85+1151.64+2093.97+1138.92C2094.23+1110.45+2098.67+1082.05+2100.37+1053.76C2101.76+1030.49+2099.81+1006.62+2102.35+983.525C2104.15+967.234+2104.61+950.381+2103.43+934.065C2102.93+927.099+2099.64+920.86+2099.14+913.989C2097.93+897.227+2094.46+879.821+2086.99+864.625C2084.09+858.721+2075.39+851.571+2069.22+848.895C2066.31+847.631+2066.56+849.354+2063.72+847.528C2051.59+839.727+2036.25+841.846+2021.96+839.667C2012.72+838.258+2004.68+834.875+1995.77+832.658C1988.4+830.827+1978.67+832.726+1970.98+832.204C1962.45+831.624+1954.83+832.528+1946.38+832.989C1944.02+833.118+1937.86+832.801+1936+834.388C1932.74+837.16+1937.6+844.144+1939.13+846.611C1944.99+856.067+1951.5+865.697+1954.59+876.563C1956.09+881.855+1958.4+886.929+1959.56+892.33C1961.43+900.998+1960.55+910.33+1963.04+918.838C1967.35+933.564+1975.01+947.886+1978.35+962.719C1982.6+981.662+1988.74+1002.5+1997.83+1019.95" opacity="1" fill="#ffcf00"/>
</g>
<g id="Layer 9" vectornator:layerName="Layer 9">
<path d="M1937.11+841.338C1963.17+876.499+1971.72+927.108+1982.22+968.639C1993.6+1013.66+2015.49+1055.48+2031.74+1097.94C2043.8+1129.48+2061.6+1162.56+2067.42+1193.45C2068.92+1201.4+2073.16+1214.12+2078+1221.07C2080.49+1224.65+2086.21+1236.21+2083.26+1232.96C2081.76+1231.31+2081.09+1231.63+2081.72+1229.65C2090.25+1202.61+2090.5+1174.13+2093.54+1145.76C2099.33+1091.68+2102.74+1036.21+2098.79+981.508C2096.71+952.832+2105.66+920.311+2096.46+892.596C2080.99+845.998+2046.11+837.811+1998.02+841.065C1984.26+841.996+1970.13+839.245+1956.24+841.213C1950.32+842.052+1957.47+880.055+1935.9+840.107C1935.25+838.902+1971.94+832.66+1984.01+835.022C2017.36+841.547+2068.57+825.946+2088.3+860.765C2124.24+924.197+2104.77+1067.03+2096.2+1139.99C2094.51+1154.43+2093.86+1228.28+2082.9+1234.2C2079.32+1236.14+2070.49+1211.21+2067.94+1206.66C2058.56+1189.92+2055.49+1167.28+2048.01+1148.48C2025.04+1090.75+1995.1+1030.79+1979.63+968.871" opacity="1" fill="#000000"/>
</g>
<g id="Layer 3" vectornator:layerName="Layer 3">
<path d="M1815.47+1203.46C1781.15+1209.07+1748.19+1222.37+1714.44+1230.13C1706.83+1231.88+1699.15+1233.9+1691.74+1236.26C1690.49+1236.66+1685.43+1237.75+1685.27+1239.73C1685.21+1240.6+1691.08+1242.09+1691.27+1242.14C1695.83+1243.14+1700.35+1243.57+1704.9+1244.74C1721.52+1249.01+1736.24+1250.34+1753.26+1251.83C1760.53+1252.46+1766.78+1254+1774.27+1253.23C1793.23+1251.28+1812.37+1250.61+1831.36+1252.59C1842.77+1253.78+1853.87+1257.18+1865.27+1258.17C1872.09+1258.76+1879.09+1257.42+1885.94+1257.69C1921.55+1259.1+1955.26+1257.13+1990.53+1253.64C2013.51+1251.37+2042.02+1251.58+2062.49+1239.94C2073.5+1233.68+2085.6+1223.62+2089.85+1211.78C2093.74+1200.92+2092.35+1188.99+2093.87+1177.76C2095.43+1166.3+2098.47+1155.54+2097.41+1143.82C2096.68+1135.86+2096.99+1128.99+2094.84+1121.03C2094.39+1119.36+2093.93+1113.81+2092.34+1112.73C2090.47+1111.47+2087.89+1113.62+2086.52+1114.17C2081.61+1116.13+2077.08+1118.78+2071.95+1120.42C2060.93+1123.93+2049.58+1125.27+2038.35+1127.85C2026.61+1130.55+2015.45+1135.85+2003.94+1139.28C1940.34+1158.21+1877.72+1179.92+1815.21+1202.05C1785.76+1212.47+1755.2+1219.65+1725.34+1228.83" opacity="1" fill="#ff4343"/>
</g>
<g id="Layer 10" vectornator:layerName="Layer 10">
<path d="M1684.31+1237.09C1792.54+1217.42+1898.35+1170.68+2002.82+1140.75C2027.9+1133.57+2059.66+1128.47+2079.41+1116.19C2082.79+1114.09+2096.76+1110.65+2098.17+1115.66C2105.33+1141.05+2101.26+1225.66+2072.31+1238.26C2014.85+1263.26+1905.36+1267.73+1841.74+1256.27C1809.47+1250.45+1760.42+1250.06+1728.15+1254.08C1718.02+1255.34+1777.91+1226.02+1684.95+1237.48C1679.88+1238.1+1690.29+1247.37+1695.35+1248.76C1707.28+1252.03+1729.28+1254.44+1741.17+1253.5C1773.13+1250.97+1816.84+1247.62+1847.67+1254.5C1856.97+1256.57+1875.25+1249.68+1883+1253.93C1896.92+1261.56+1919.51+1252.61+1935.37+1255.85C1983.55+1265.7+2049.27+1251.18+2082.78+1223.67C2094.37+1214.16+2092.35+1149.65+2099.82+1148.82C2102.98+1148.47+2099.02+1142.79+2098.68+1139.77C2097.95+1133.23+2093.67+1120+2096.53+1115.62C2099.16+1111.62+2086.93+1118.6+2081.98+1118.42C2074.8+1118.14+2059.75+1126.1+2052.51+1129.14C2024.22+1141.02+1989.56+1147.51+1959.38+1155.69" stroke="#000000" stroke-width="1" fill="#000000" opacity="1" stroke-linejoin="round"/>
</g>
<g id="Layer 5" vectornator:layerName="Layer 5" opacity="0.866444">
<path d="M1643.21+1082.84C1643.21+1114.71+1647.66+1145.7+1653.11+1176.95C1654.46+1184.66+1652.43+1193.05+1653.11+1200.85C1654.4+1215.67+1664.67+1230.8+1676.05+1240.68C1701.16+1262.48+1740.48+1258.11+1771.99+1258.11C1780.68+1258.11+1788.56+1259.26+1797.02+1260.6C1800.59+1261.17+1803.8+1262.29+1803.8+1257.61C1803.8+1252.7+1800.96+1249.92+1799.1+1245.66C1790.69+1226.37+1775.46+1211.2+1770.43+1190.39C1766.77+1175.25+1767.05+1159.56+1763.13+1144.58C1755.66+1116.06+1744.62+1088.58+1734.97+1060.93C1732.24+1053.09+1731.84+1044.98+1729.76+1037.02C1721.9+1006.99+1706.32+979.871+1698.47+949.885C1695.29+937.705+1687.37+925.631+1682.31+914.033C1677.2+902.325+1675.6+890.372+1672.4+878.181C1670.97+872.714+1668.65+868.119+1664.58+864.238C1663.34+863.052+1662.04+859.987+1659.37+860.753C1656.89+861.463+1655.35+867.284+1654.68+869.218C1652.36+875.863+1650.55+883.106+1649.98+890.131C1648.32+910.805+1644.49+931.211+1642.68+951.876C1641.76+962.452+1643.51+972.547+1641.64+983.247" stroke="#000000" stroke-width="1" fill="#4db38b" opacity="1" stroke-linejoin="round"/>
</g>
<g id="Layer 8" vectornator:layerName="Layer 8">
<path d="M1796.65+1240.71C1769.15+1229.38+1768.26+1171.28+1760.8+1143.6C1742.96+1077.4+1721.18+1011.56+1697.97+948.56C1693.71+937.014+1667.92+863.824+1663.5+863.173C1655.05+861.929+1658.94+926.71+1654.34+945.566C1639.32+1007.1+1647.89+1078.56+1652.02+1143.17C1653.75+1170.27+1652.25+1205.62+1666.53+1228.49C1687.22+1261.63+1726.56+1250.41+1761.5+1256.22C1772.5+1258.05+1784.89+1257.39+1792.4+1260.09C1795.68+1261.26+1804.13+1265.63+1802.56+1262.64C1800.43+1258.6+1748.25+1171.22+1797.4+1240.35C1805.45+1251.67+1805.91+1253.7+1807.74+1260.81C1809.64+1268.21+1800.73+1267.54+1802.71+1267.34C1806.1+1266.99+1794.61+1269.06+1792.52+1266.48C1788.64+1261.7+1775.09+1265.6+1766.45+1263.11C1744.67+1256.82+1681.06+1264.2+1669.72+1238.55C1638.24+1167.32+1635.14+1016.8+1652.35+945.745C1655.62+932.259+1652.57+868.344+1660.75+861.333C1666.48+856.424+1675.05+879.053+1676.32+881.961C1689.48+912.288+1698.28+946.144+1709.98+978.637" stroke="#000000" stroke-width="1" fill="#000000" opacity="1" stroke-linejoin="round"/>
</g>
<g id="Layer 6" vectornator:layerName="Layer 6">
<path d="M1712.15+956.865C1712.22+956.52+1724.32+951.487+1726.66+950.627C1733.19+948.228+1740.72+947.848+1747.47+946.005C1757.16+943.361+1766.87+940.055+1776.5+937.225C1809.56+927.512+1840.7+912.281+1873.77+902.566C1891.14+897.461+1909.31+894.449+1927+890.551C1948.73+885.761+1971.01+877.866+1991.84+870.217C2011.3+863.068+2033.22+856.853+2053.78+853.581C2055.88+853.247+2071.74+850.003+2069.74+846.187C2069.47+845.66+2064.13+844.899+2063.45+844.8C2058.9+844.132+2054.39+843.478+2049.9+842.49C2025.21+837.049+2001.72+831.569+1976.35+829.55C1956.17+827.944+1936.03+828.637+1915.87+830.013C1899.15+831.153+1882.25+829.709+1865.54+830.937C1861.25+831.252+1857.62+829.421+1853.44+829.088C1842.14+828.189+1830.89+827.088+1819.57+826.316C1812.21+825.814+1805.06+828.092+1797.8+828.626C1780.98+829.861+1764.27+832.372+1747.47+833.71C1730.6+835.052+1712.5+836.649+1696.18+841.104C1687.1+843.58+1680.97+850.17+1673.44+854.967C1668.53+858.09+1663.75+860.748+1660.37+865.596C1649.22+881.574+1654.01+897.923+1651.18+915.505C1649.59+925.369+1650.12+936.386+1649.24+946.468C1648.56+954.221+1648.06+962.372+1646.82+970.036C1646.48+972.133+1644.69+974.009+1646.82+976.043C1648.74+977.874+1656.86+976.878+1659.4+976.505C1672.37+974.6+1684+966.357+1696.66+963.566C1700.72+962.671+1711.27+960.956+1712.15+956.865Z" opacity="1" fill="#95d7e3"/>
</g>
<g id="Layer 1" vectornator:layerName="Layer 1">
<path d="M2054.76+853.989C2057.13+854.737+2025.16+864.42+2019.61+864.814C1981.11+867.539+1943.11+888.178+1904.89+895.437C1843.35+907.122+1785.16+935.48+1724.62+950.898C1705+955.895+1665.22+983.108+1644.99+975.957C1635.64+972.656+1650.6+910.95+1652.55+902.401C1665.83+844.146+1668+847.307+1730.78+828.454C1745.77+823.952+1771.48+821.475+1786.97+823.393C1833.97+829.209+1893.95+831.517+1941.16+827.355C1985.98+823.403+2034.04+831.531+2072.55+844.739C2085.89+849.317+2057.25+855.43+2054.49+852.915C2050.4+849.177+2075.2+852.264+2070.91+848.734C2042.31+825.222+1975.96+833.624+1938.3+831.045C1894.83+828.069+1846.36+823.68+1802.79+827.541C1782.9+829.304+1762.66+828.745+1742.32+830.531C1636.95+839.791+1661.57+904.795+1644.75+973.512C1644.73+973.582+1664.22+970.68+1665.14+970.389C1684.25+964.384+1704.08+953.414+1724.23+949.321C1785.91+936.791+1842.58+905.56+1904.62+894.15C1942.41+887.199+1981.31+875.003+2017.76+864.372" stroke="#000000" stroke-width="1" fill="#000000" opacity="1" stroke-linejoin="round"/>
</g>
<g id="Layer 7" vectornator:layerName="Layer 7">
<path d="M1872.65+957.649L1870.31+957.872L1868.32+958.319L1867.15+957.984L1865.51+958.319L1863.87+958.766L1862.7+959.213L1861.3+959.437L1860.95+959.661L1859.89+960.331L1859.54+960.108L1858.6+960.443L1857.55+960.219L1855.91+960.555L1854.74+960.443L1854.27+960.778L1852.87+960.89L1852.4+960.778L1852.05+961.002C1847.05+959.615+1835.83+964.819+1835.43+966.032C1820.62+969.288+1808.79+976.648+1805.82+992.41C1802.58+1009.59+1804.71+1020.82+1810.5+1029.18C1815.25+1037.88+1823.86+1043.21+1834.14+1046.73C1841.99+1050.62+1850.62+1054.56+1860.13+1059.25C1870.24+1064.24+1893.29+1070.92+1897.69+1081.27C1896.78+1084.76+1896.28+1087.93+1896.99+1089.76C1895.76+1091.88+1894.01+1093.29+1892.19+1094.57C1886.57+1094.87+1880.81+1095.78+1878.03+1096.02L1873.82+1096.58L1869.02+1097.03L1867.62+1097.25C1846.71+1093.12+1822+1080.37+1813.19+1081.6C1809.39+1082.14+1805.77+1096.78+1803.83+1107.98L1803.71+1108.09C1802.89+1112.88+1801.52+1119.24+1802.08+1119.94C1807.15+1126.32+1833.16+1130.87+1845.26+1131.68C1888.01+1134.54+1926.92+1133.74+1943.46+1090.21C1963.91+1036.37+1874.58+1029.49+1850.53+1007.83C1847.52+1005.13+1857.8+998.314+1863.29+996.881C1883.42+994.183+1906.63+1005.67+1924.15+1004.15C1931+1003.55+1945.71+977.436+1936.32+972.403C1932.06+970.123+1926.04+969.139+1919.93+968.602C1919.89+968.599+1919.86+968.606+1919.82+968.602L1919.46+967.932L1918.76+968.043L1917.24+967.149L1916.3+967.038L1914.78+966.367L1913.73+966.143L1913.14+966.143L1912.21+966.032C1911.77+965.409+1911.06+964.381+1911.04+964.355C1906.66+960.206+1893.4+958.844+1879.91+959.102L1879.09+958.655L1876.98+958.431L1874.76+957.984L1872.65+957.649ZM1855.68+970.055C1834.92+974.665+1816.38+985.057+1809.45+1000.46C1810.8+990.132+1816.89+982.544+1826.3+977.656L1826.54+977.768L1826.77+977.656L1827.24+977.432L1828.41+977.097L1828.64+976.985L1828.88+976.65L1830.16+976.203L1831.22+975.868L1832.86+975.085L1833.91+974.75C1834.07+974.692+1834.21+974.583+1834.38+974.526C1841+972.254+1848.12+970.684+1855.68+970.055ZM1917.83+974.973C1917.98+974.99+1918.13+975.069+1918.29+975.085L1917.94+975.085C1917.9+975.048+1917.87+975.008+1917.83+974.973ZM1925.78+975.979L1926.95+976.538L1926.6+975.979L1926.6+976.203L1926.49+975.979C1926.52+975.984+1926.56+975.975+1926.6+975.979C1926.99+976.023+1927.38+976.048+1927.77+976.091C1929.63+976.295+1934.85+975.527+1933.39+976.65C1932.35+977.455+1929.93+983.51+1927.31+989.727C1927.06+989.255+1926.98+988.699+1926.6+988.386C1926.77+987.784+1926.98+987.392+1927.07+986.598C1927.17+985.653+1926.57+985.508+1926.02+985.256L1926.02+984.586C1925.85+984.374+1925.6+984.234+1925.43+984.027C1925.93+983.695+1926.3+983.247+1926.25+982.574C1926.24+982.425+1925.91+982.007+1925.78+981.791C1927.63+980.854+1930.26+979.669+1930+979.444C1929.06+978.632+1927.06+978.881+1925.32+978.885L1925.9+976.203L1925.67+976.091L1925.78+975.979ZM1919.82+977.656L1921.57+977.656L1922.39+977.768C1921.78+978.053+1921.26+978.327+1920.17+978.774C1919.7+978.407+1919.13+978.116+1918.64+977.768L1919.82+977.656ZM1873.23+978.215C1872.67+978.554+1872.17+978.746+1871.6+979.109C1869.84+979.163+1868.09+979.176+1866.33+979.221C1868.18+978.797+1869.8+978.6+1871.48+978.327L1873.23+978.215ZM1861.41+980.227C1863.75+980.41+1866.1+980.5+1868.44+980.674C1868.09+980.783+1867.53+981.002+1867.15+981.121C1863.59+981.328+1861.46+981.211+1860.36+981.344C1860.07+981.379+1856.67+982.09+1853.92+982.686L1854.27+982.35L1855.21+982.127L1855.56+981.791C1857.73+981.046+1859.32+980.822+1861.41+980.227ZM1889.5+980.785C1889.56+980.798+1889.56+980.885+1889.62+980.897C1889.81+980.905+1889.72+981.168+1889.85+981.233C1887.43+982.677+1885.27+984.073+1884+985.592C1881.16+986.082+1879+986.454+1876.39+986.821C1876.15+986.533+1876+986.162+1875.69+985.927C1875.87+985.801+1875.99+985.615+1876.16+985.48C1876.77+985.35+1877.29+985.025+1877.92+984.921C1881.07+984.399+1887.06+980.912+1889.5+980.785ZM1902.14+983.021C1903.42+983.197+1904.86+983.492+1906+983.58C1899.04+985.369+1891.96+987.08+1887.28+989.392C1887.17+989.373+1887.04+989.299+1886.93+989.28C1886.5+989.47+1890.74+986.897+1893.13+985.592C1895.59+984.827+1899.73+983.706+1901.32+983.244C1901.39+983.225+1902.03+983.055+1902.14+983.021ZM1855.91+984.698C1853.17+985.608+1851.54+986.389+1849.01+987.38L1849.83+986.486L1849.94+986.374C1851.95+985.569+1853.59+985.162+1855.91+984.698ZM1917.12+986.486C1917.81+986.644+1918.53+986.695+1919.23+986.821C1917.44+987.655+1915.86+988.346+1914.2+989.168C1915.22+988.185+1916.29+987.08+1917.12+986.486ZM1844.68+987.492L1843.97+988.162L1843.16+988.498C1843.66+988.149+1844.17+987.838+1844.68+987.492ZM1882.83+988.386C1882.83+988.418+1882.84+988.466+1882.83+988.498C1882.72+988.483+1882.6+988.512+1882.48+988.498C1882.62+988.46+1882.7+988.423+1882.83+988.386ZM1904.37+989.727C1904.17+990.082+1903.9+990.382+1903.78+990.733C1902.36+990.627+1901.59+990.557+1900.27+990.51C1901.68+990.176+1902.92+990.134+1904.37+989.727ZM1926.37+991.851C1925.07+994.749+1923.83+998.044+1922.51+999.787C1922.03+1000.42+1922.13+998.109+1921.45+997.663C1919.94+996.66+1917.86+996.171+1915.95+995.539C1915.88+995.293+1915.5+995.203+1915.37+994.981C1920.81+994.053+1924.98+992.724+1926.37+991.851ZM1836.37+999.675C1837.2+999.469+1837.34+999.929+1838.01+999.899C1836.85+1000.27+1835.61+1000.87+1834.38+1001.35C1833.5+1001.46+1832.69+1001.52+1831.8+1001.69C1833.37+1000.98+1835.02+1000.01+1836.37+999.675ZM1840.7+1003.81C1840.61+1003.96+1840.68+1004.11+1840.58+1004.26C1838.27+1005.78+1837.01+1006.65+1833.79+1008.95C1832.12+1009.72+1830.88+1010.4+1829.58+1010.85C1830.58+1009.55+1830.69+1009+1831.57+1008.39C1833.45+1007.09+1835.69+1006.07+1837.89+1005.04C1838.93+1004.64+1839.79+1004.24+1840.7+1003.81ZM1843.51+1004.7C1843.43+1005.26+1843.29+1005.83+1843.27+1006.38C1841.06+1009.42+1837.08+1012.39+1832.39+1014.65C1832.02+1014.7+1831.54+1014.61+1831.1+1014.65C1836.32+1012.14+1841.12+1008.69+1843.16+1005.04C1843.27+1004.93+1843.4+1004.81+1843.51+1004.7ZM1844.09+1010.29C1844.64+1011.99+1844.88+1013.75+1846.32+1015.1C1847.48+1016.2+1849.03+1016.99+1850.29+1018.01C1847.32+1017.64+1844.37+1017.26+1841.05+1017.33C1842.72+1016.8+1843.95+1016.18+1843.16+1015.32C1842.51+1014.64+1840.41+1014.58+1838.36+1014.54C1839.29+1014.14+1841.28+1013.54+1841.75+1013.2C1842.35+1012.77+1840.14+1013.56+1839.53+1013.65C1841.18+1012.54+1842.82+1011.44+1844.09+1010.29ZM1816.82+1017.11C1817.13+1017.43+1817.52+1017.64+1817.88+1017.89L1817.99+1018.34L1818.23+1019.46C1817.85+1019.66+1817.28+1019.81+1816.94+1020.02C1816.56+1019.02+1816.99+1018.09+1816.82+1017.11ZM1834.73+1022.36C1834.77+1022.36+1834.81+1022.37+1834.85+1022.36C1837.12+1022.3+1839.72+1022.51+1842.22+1022.7C1841.83+1022.79+1841.57+1022.94+1841.17+1023.04C1839.07+1022.93+1836.94+1022.73+1835.31+1023.04C1834.89+1023.02+1834.19+1022.93+1833.79+1022.92C1834.16+1022.73+1834.35+1022.57+1834.73+1022.36ZM1856.5+1022.48C1856.78+1022.66+1857.03+1022.86+1857.32+1023.04C1856.6+1023.32+1855.3+1023.52+1852.87+1024.26C1852.21+1024.21+1851.36+1024.4+1850.65+1024.38C1849.71+1024.15+1848.92+1023.78+1847.95+1023.59C1848.4+1023.35+1848.7+1023.15+1849.01+1022.92C1851.7+1023.06+1854.12+1022.82+1856.5+1022.48ZM1820.33+1023.15C1820.66+1023.43+1821.02+1023.69+1821.39+1023.93L1821.62+1024.15L1822.32+1024.71L1822.32+1024.82L1821.5+1026.05C1820.89+1025.31+1820.23+1024.55+1819.75+1023.82C1819.97+1023.6+1820.07+1023.36+1820.33+1023.15ZM1860.59+1025.38C1860.62+1025.37+1860.69+1025.4+1860.71+1025.38C1864.27+1027.37+1868.1+1029.15+1871.95+1030.86C1868.85+1030.61+1865.78+1030.34+1862.35+1030.41C1862.58+1029.92+1862.62+1029.41+1862.23+1028.85C1861.95+1028.43+1860.5+1027.97+1859.66+1027.51C1860.09+1027.3+1860.89+1027.2+1860.71+1026.84C1860.6+1026.62+1859.75+1026.58+1859.54+1026.39C1859.66+1026.35+1860.14+1026.43+1860.24+1026.39C1861.2+1026.01+1860.85+1025.72+1860.48+1025.49C1860.51+1025.47+1860.56+1025.4+1860.59+1025.38ZM1850.18+1028.4C1854.87+1028.48+1859.34+1028.61+1860.13+1028.4C1862.29+1027.82+1855.93+1030.18+1853.69+1030.3C1850.8+1030.46+1847.39+1030.02+1844.56+1030.41L1843.27+1029.97L1842.69+1029.63C1845.44+1029.41+1847.63+1028.83+1850.18+1028.4ZM1881.31+1034.88C1881.39+1034.92+1881.46+1034.96+1881.54+1034.99C1881.44+1034.98+1881.3+1035.01+1881.19+1034.99C1881.24+1034.97+1881.26+1034.91+1881.31+1034.88ZM1858.49+1035.55C1860.12+1035.68+1861.5+1035.76+1863.17+1035.89C1864.3+1036.07+1865.59+1036.31+1866.8+1036.56C1863.94+1036.27+1861.73+1035.94+1858.49+1035.55ZM1856.26+1037.12C1863.16+1037.99+1869.07+1038.66+1872.53+1039.02C1868.5+1038.9+1866.81+1038.77+1861.53+1038.57C1861.47+1038.57+1861.47+1038.57+1861.41+1038.57L1858.72+1037.79L1856.26+1037.12ZM1836.13+1037.45C1836.77+1037.45+1837.35+1037.48+1838.01+1037.45L1838.24+1037.57L1840.46+1038.24C1841.59+1039.58+1844.68+1040.33+1848.31+1040.92C1848.88+1041.01+1849.56+1041.06+1850.18+1041.14C1850.09+1041.18+1850.03+1041.22+1849.94+1041.25C1851.46+1041.52+1852.77+1041.66+1854.16+1041.92C1855.06+1042.24+1856.19+1042.95+1856.85+1043.04C1857.79+1043.17+1858.15+1043.26+1859.07+1043.38L1860.95+1044.05C1860.6+1044.09+1860.39+1044.08+1860.01+1044.16C1855.7+1043.36+1851.33+1042.65+1847.25+1041.48C1848.13+1041.33+1848.98+1041.69+1849.94+1041.25C1849.35+1041.15+1848.85+1041+1848.31+1040.92C1846.38+1040.63+1845.39+1040.61+1845.03+1040.92C1841.95+1039.95+1838.98+1038.79+1836.13+1037.45ZM1893.95+1040.02C1901.09+1042.8+1908.2+1045.73+1914.31+1048.97C1912.93+1048.96+1904.75+1048.98+1896.99+1049.19L1895.35+1048.41L1892.9+1047.74L1891.37+1047.18C1891.53+1047.18+1891.69+1047.18+1891.84+1047.18C1901.24+1048.06+1906.93+1048.21+1906.82+1047.29C1906.44+1044.06+1899.82+1043.1+1892.19+1042.71C1892.25+1042.3+1890.18+1041.75+1888.92+1041.25C1891.75+1040.95+1892.91+1040.51+1893.95+1040.02ZM1883.07+1041.81C1883.92+1042.11+1884.01+1042.09+1884.82+1042.37C1881.66+1042.43+1880.37+1042.74+1877.45+1042.93L1877.33+1042.93L1874.4+1042.15L1873.35+1041.92C1875.82+1041.86+1880.62+1041.91+1881.43+1041.92C1881.47+1041.93+1882.73+1041.83+1883.07+1041.81ZM1875.69+1046.84C1877.39+1046.94+1879.18+1046.84+1880.84+1046.95C1882.15+1047.34+1883.28+1047.9+1884.59+1048.3C1883.53+1048.19+1882.48+1048.06+1881.43+1047.96C1880.65+1047.89+1879.86+1047.81+1879.09+1047.74C1878.14+1047.59+1877.22+1047.44+1876.28+1047.29L1875.69+1046.84ZM1880.08+1048.45C1888.08+1049.85+1895.29+1051.53+1902.44+1052.92C1904.07+1053.69+1906.58+1054.31+1908.87+1054.93C1908.78+1055.2+1909.35+1055.51+1903.49+1055.82C1901.96+1055.91+1897.78+1054.41+1898.93+1055.38C1899.55+1055.9+1900.58+1056.12+1901.38+1056.49C1901.12+1056.57+1900.82+1056.52+1900.56+1056.61C1894.44+1053.74+1887.16+1051.08+1880.08+1048.45ZM1919.7+1052.21C1921.19+1053.16+1922.92+1053.97+1924.26+1055C1923.62+1055.1+1923.09+1054.97+1922.39+1055.11L1920.28+1054C1920.52+1054.15+1921.69+1054.16+1921.8+1054.33C1922.67+1055.64+1921.4+1054.09+1919.58+1052.32C1919.6+1052.27+1919.68+1052.26+1919.7+1052.21ZM1928.94+1060.14C1928.98+1060.08+1929.16+1060.22+1929.18+1060.14C1929.64+1060.64+1930.04+1061.19+1930.47+1061.71L1928.94+1060.14ZM1877.8+1060.81C1878.2+1060.85+1878.36+1060.85+1878.62+1060.93C1884.73+1062.81+1882.77+1063.87+1890.56+1065.17C1890.92+1065.24+1891.35+1065.12+1891.73+1065.17C1891.65+1065.9+1892.01+1066.73+1892.19+1067.52C1887.24+1064.84+1881.98+1062.71+1877.8+1060.81ZM1930.58+1061.93C1933.84+1066+1936.5+1070.49+1937.25+1076.13L1934.56+1073.56L1934.44+1073.22C1935.83+1071.49+1935.52+1070.38+1934.21+1069.98L1933.51+1067.41L1932.57+1064.73L1930.58+1061.93ZM1937.37+1077.02C1937.82+1081.37+1936.53+1086.81+1935.15+1092.33L1935.03+1091.22C1935.02+1091.09+1935.05+1091+1935.03+1090.88L1935.03+1090.21L1933.74+1088.87C1933.76+1088.84+1933.73+1088.79+1933.74+1088.76C1936.39+1084.01+1937.87+1079.97+1937.25+1077.69L1937.25+1077.36C1937.22+1077.28+1937.41+1077.1+1937.37+1077.02ZM1824.31+1090.43C1824.61+1090.6+1824.71+1090.6+1825.01+1090.77L1824.66+1090.77L1824.31+1090.88L1824.31+1090.43ZM1919.11+1091.89C1918.97+1092.26+1918.81+1092.63+1918.64+1093L1918.29+1093.23L1916.54+1094.68L1914.43+1095.91L1913.03+1096.92L1912.79+1097.25C1912.38+1097.62+1912.29+1098.06+1911.97+1098.48L1908.23+1099.04L1907.17+1099.15C1906.84+1099.18+1906.58+1099.23+1906.24+1099.26L1906.36+1097.14L1905.65+1096.92L1905.65+1096.8C1905.18+1096.45+1904.4+1096.28+1903.78+1096.02L1906.24+1095.91L1906.36+1095.91C1906.74+1096.07+1907.09+1096.29+1907.53+1096.36L1907.99+1096.47L1909.4+1096.25L1909.52+1096.25C1910.25+1096.17+1910.95+1096.04+1911.74+1095.8L1913.03+1095.58L1915.02+1094.68L1917.71+1092.89L1918.29+1092.33C1918.57+1092.14+1918.85+1092.09+1919.11+1091.89ZM1934.8+1093.79C1934.06+1096.43+1934.12+1098.55+1932.92+1101.5C1923.27+1125.29+1896.52+1129.83+1871.48+1128.55C1878.2+1128.07+1884.83+1126.66+1891.26+1124.41C1891.84+1124.93+1892.71+1125.34+1894.18+1125.87L1896.41+1125.64L1898.87+1124.86L1901.09+1124.19L1902.49+1123.41L1904.01+1123.63C1907.52+1123.48+1911.32+1121.7+1915.25+1119.49L1917.36+1119.05L1919.35+1117.15L1921.8+1115.69C1927.53+1110.75+1927.24+1109.02+1925.2+1108.43L1924.26+1107.42C1924.3+1107.38+1924.34+1107.35+1924.38+1107.31L1926.37+1104.85C1926.75+1104.28+1926.9+1103.85+1927.19+1103.29L1927.77+1102.39L1928.24+1100.61L1928.36+1099.93C1928.82+1099.58+1929.1+1099.19+1929.53+1098.82L1931.64+1097.25L1933.98+1095.02L1934.09+1094.57C1934.16+1094.45+1934.15+1094.35+1934.21+1094.23L1934.8+1093.79ZM1834.85+1096.02C1836.26+1096.57+1839.65+1097.11+1841.87+1097.7L1838.71+1098.26C1838.65+1098.27+1838.53+1098.25+1838.47+1098.26C1838.42+1098.27+1837.84+1098.36+1837.77+1098.37L1834.14+1098.7L1830.52+1099.04L1830.75+1098.82L1830.87+1098.82C1832.58+1097.98+1834.16+1097.08+1834.85+1096.02ZM1845.96+1098.7C1846.31+1098.78+1846.55+1098.85+1846.9+1098.93L1846.43+1098.93L1846.78+1099.04C1846.24+1099.1+1845.75+1099.15+1844.91+1099.26L1844.79+1099.49C1846.5+1099.98+1847.69+1100+1848.19+1099.26C1848.69+1099.36+1848.96+1099.39+1849.48+1099.49L1846.55+1100.61L1843.86+1101.95L1843.62+1102.62L1842.45+1102.84L1835.43+1104.41L1830.98+1104.85L1829.23+1105.19C1827.63+1104.74+1827.51+1104.37+1826.89+1103.96L1827.47+1103.85L1833.32+1102.62L1839.18+1101.28L1844.09+1100.38L1844.79+1099.49C1844.63+1099.44+1844.49+1099.42+1844.33+1099.38C1844.61+1099.34+1844.64+1099.3+1844.91+1099.26L1845.15+1098.93L1845.38+1098.93L1846.43+1098.93L1845.96+1098.7ZM1812.14+1111.56L1811.79+1112.68C1811.18+1112.87+1811.03+1113.3+1810.62+1113.57L1810.38+1113.68C1810.57+1113.02+1810.68+1112.48+1810.85+1111.78L1812.14+1111.56ZM1809.57+1116.14L1809.8+1117.04C1809.59+1117.04+1809.35+1116.99+1809.21+1117.04C1809.32+1116.81+1809.45+1116.45+1809.57+1116.14ZM1832.27+1122.18C1833.47+1122.2+1834.22+1122.41+1835.43+1122.4L1835.78+1122.4L1834.73+1122.74C1833.88+1122.52+1833.11+1122.4+1832.27+1122.18Z" stroke="#000000" stroke-width="1" fill="#000000" opacity="1" stroke-linejoin="round"/>
</g>
</svg>
