<?xml version="1.0" encoding="UTF-8" standalone="no"?> <!-- Created with Vectornator Pro for iOS (http://vectornator.io/) --><!DOCTYPE svg PUBLIC "-//W3C//DTD SVG 1.1//EN" "http://www.w3.org/Graphics/SVG/1.1/DTD/svg11.dtd">
<svg height="100%" style="fill-rule:evenodd;clip-rule:evenodd;stroke-linecap:round;stroke-linejoin:round;" xmlns:xlink="http://www.w3.org/1999/xlink" xmlns="http://www.w3.org/2000/svg" xml:space="preserve" width="100%" xmlns:vectornator="http://vectornator.io" version="1.1" viewBox="0 0 3840 2160">
<metadata>
<vectornator:setting key="RulersVisible" value="1"/>
<vectornator:setting key="OutlineMode" value="0"/>
<vectornator:setting key="SnapToEdges" value="0"/>
<vectornator:setting key="Units" value="Pixels"/>
<vectornator:setting key="DynamicGuides" value="0"/>
<vectornator:setting key="SnapToPoints" value="0"/>
<vectornator:setting key="CMYKEnabledKey" value="0"/>
<vectornator:setting key="SnapToGrid" value="0"/>
<vectornator:setting key="ShowGrid" value="1"/>
<vectornator:setting key="GridSpacing" value="36"/>
</metadata>
<defs/>
<g id="Blossom2" vectornator:layerName="Blossom2">
<path stroke="#000000" stroke-width="1" d="M2008.37+519.664C1996.42+520.399+1985.39+528.383+1977.03+547.201C1963.07+578.617+1968.1+614.183+1977.77+649.44C1934.49+605.754+1869.88+581.154+1824.32+615.769C1815.56+622.431+1810.84+640.096+1808.58+649.44C1790.72+723.466+1923.05+746.475+1971.29+771.31C1980.76+776.184+1993.53+784.33+2003.07+793.939C2001.29+793.525+1999.42+793.034+1997.77+792.712C1999.7+793.277+2001.59+793.869+2003.51+794.348C2003.86+794.709+2004.2+795.072+2004.54+795.438L1975.27+790.531C1980.79+789.949+1988.68+790.936+1997.77+792.712C1939.76+775.671+1882.84+722.347+1817.85+751.271C1804.28+753.589+1788.82+758.031+1785.78+764.085C1784.93+764.572+1784.42+765.184+1784.01+765.857C1762.37+779.419+1731.37+798.614+1737.82+824.883C1758.38+908.657+1890.93+856.825+1935.69+831.972C1937.65+830.886+1939.87+830.151+1941.87+829.109L1943.05+828.7L1944.96+827.61C1959.03+820.485+1973.67+813.942+1988.06+807.707C1992.26+805.889+2003.07+803.991+2010.43+801.982C2011.3+803.295+2011.37+804.717+2012.04+806.071C2004.06+810.684+2001.2+812.449+1997.19+815.068C1950.37+821.644+1892.32+851.458+1855.36+889.499C1850.95+891.902+1846.32+893.991+1842.71+896.996C1842.09+897.298+1841.56+898.004+1840.95+898.632C1839.41+899.908+1837.51+901.486+1835.65+903.676C1835.46+903.877+1835.33+904.025+1835.21+904.221C1833.98+905.785+1833.57+907.19+1833.89+908.311C1820.13+926.434+1802.16+960.344+1819.62+979.333C1883.78+1049.14+1979.13+933.828+1998.51+885.546C2007.06+864.255+2008.35+841.246+2016.9+820.248C2017.86+817.88+2020.39+814.726+2022.64+811.66C2022.11+816.786+2022.39+822.617+2023.08+828.973C2019.88+840.347+2014.29+851+2011.75+862.371C2010.5+867.947+2010.29+873.455+2009.4+879.002C2006.12+885.992+2001.54+897.92+2005.13+902.177C2005.29+902.366+2005.41+901.574+2005.57+901.495C2005.27+903.493+2004.95+905.488+2004.69+907.493C2000.82+921.615+1997.74+935.772+1998.07+949.888C1998.13+952.581+1997.61+959.674+1997.48+966.383C1997.68+966.246+1997.47+965.736+1997.77+965.701C1998.62+965.602+1999.14+966.421+1999.83+966.792C1999.65+968.371+1999.57+970.135+1999.39+971.972C1999.32+972.396+1998.98+973.283+1998.95+973.608C1998.93+973.83+1998.78+975.821+1998.66+977.152C1998.09+975.58+1998.44+975.211+1997.63+972.79C1997.77+974.98+1998.2+976.451+1998.66+977.834C1998.46+980.247+1998.66+981.19+1998.95+983.014C1999.09+986.192+1999.58+988.998+2000.42+991.602C2000.91+999.539+2002.12+1006.99+2004.25+1013.82C2004.33+1014.01+2004.3+1014.18+2004.39+1014.37C2004.47+1014.51+2004.61+1014.5+2004.69+1014.64C2009.78+1030.18+2019.67+1041.7+2038.82+1042.31C2040.73+1042.37+2043.44+1041.86+2045.59+1041.77C2057.59+1042.37+2070.99+1039.57+2083.54+1034.68C2101.22+1029.01+2117.4+1020.59+2122.97+1010.01C2129.55+997.487+2122.82+963.894+2118.85+951.524C2107.79+917.018+2095.15+876.87+2075.6+845.195C2098.21+868.174+2118.16+894.392+2137.09+919.489C2144.31+943.4+2185.32+990.532+2212.12+998.691C2216.69+1001.12+2221.36+1002.98+2225.95+1004.01C2250.74+1009.54+2264.17+1002.71+2271.27+990.648C2271.3+990.592+2271.38+990.567+2271.41+990.512C2271.43+990.477+2271.39+990.409+2271.41+990.375C2286.21+964.644+2269.77+913.531+2251.85+891.407C2250.71+890.003+2249.47+888.948+2248.31+887.59C2247.68+886.773+2247.04+886.291+2246.4+885.546C2193.4+824.748+2125.72+812.537+2049.12+794.893L2049.12+796.665C2113.29+816.032+2177.82+821.588+2226.54+869.596C2211.12+858.365+2183.33+837.38+2177.11+836.471C2172.38+835.778+2139.5+822.221+2134.89+820.794C2133.61+820.399+2033.36+792.414+2033.82+792.985C2052.19+792.084+2075.81+798.234+2087.96+800.21C2125.83+806.371+2187.03+823.57+2236.99+823.111L2244.64+824.338C2250.02+823.506+2256.39+822.21+2262.88+820.521C2287.46+816.041+2307.1+805.222+2314.81+781.397C2324.54+751.336+2275.32+723.519+2249.2+723.462C2190.31+723.332+2133.23+738.186+2081.19+761.495C2084.24+759.207+2087.55+757.233+2090.61+754.951C2125.45+738.438+2252.92+664.802+2238.9+625.721C2225.8+589.225+2171.36+611.421+2143.27+622.313C2126.38+628.864+2106.75+643.165+2088.4+660.618C2095.47+643.258+2099.26+625.703+2095.17+608.408C2088.48+580.162+2044.22+517.458+2008.37+519.664ZM2010.57+526.207C2011.44+526.184+2012.35+526.835+2013.22+526.889C2009.39+527.093+2005.73+528.013+2002.34+530.842C1981.23+548.441+1971.96+575.211+1973.21+599.82C1971.99+582.237+1973.86+565.229+1981.3+549.791C1989.29+533.185+1999.52+526.51+2010.57+526.207ZM2023.67+529.206C2025.95+530.043+2028.15+530.843+2030.43+532.069C2028.17+530.771+2025.96+530.064+2023.67+529.206ZM2037.64+536.84C2043.98+541.286+2049.98+546.52+2055.74+552.79C2051.21+548.137+2044.87+542.243+2037.64+536.84ZM2058.39+555.38C2063.97+561.776+2069.15+568.561+2073.54+575.419C2069.07+568.441+2064.4+561.6+2058.39+555.38ZM2082.37+591.368C2082.9+592.49+2083.36+593.553+2083.84+594.64C2086.05+599.685+2087.81+604.51+2088.55+608.408C2088.84+609.949+2088.65+611.381+2088.84+612.906C2088.54+611.797+2088+610.801+2087.81+609.635C2086.95+604.447+2085.59+599.503+2083.84+594.64C2083.43+593.52+2082.81+592.471+2082.37+591.368ZM1870.52+608.681C1907.16+605.364+1953.34+632.329+1983.95+669.343C1985.19+673.316+1986.34+677.265+1987.62+681.203C1974.59+663.186+1958.98+647.213+1938.78+634.172C1920.92+622.643+1903.07+610.04+1880.08+609.907C1861.75+609.802+1838.82+623.078+1825.94+640.307C1836.18+620.412+1851.89+610.367+1870.52+608.681ZM1974.68+611.952C1975.37+617.354+1976.57+622.755+1977.62+628.174C1976.38+622.709+1975.46+617.354+1974.68+611.952ZM2169.9+617.132C2159.6+620.532+2149.62+624.865+2141.36+629.946L2142.98+627.902C2150.15+623.885+2159.7+620.223+2169.9+617.132ZM2224.33+617.132C2228.43+619.762+2231.94+623.02+2233.75+628.038C2234.65+630.536+2234.46+633.296+2233.9+636.217C2233.21+628.31+2229.93+621.704+2224.33+617.132ZM2229.93+725.779C2232.84+725.829+2235.47+726.397+2238.31+726.597C2230.96+726.937+2223.59+727.825+2216.54+728.369C2171.49+731.848+2129.15+746.519+2088.4+763.949C2082.06+766.659+2074.63+769.2+2067.36+771.719C2113.5+748.516+2176.49+724.861+2229.93+725.779ZM2284.21+741.456C2288.98+744.888+2293.14+748.817+2296.72+753.043C2293.03+748.764+2288.8+744.902+2284.21+741.456ZM1912.01+741.865C1919.63+744.836+1926.96+748.304+1934.07+752.225C1926.71+749.087+1920.31+745.854+1912.01+741.865ZM2300.25+757.269C2300.66+757.864+2301.04+758.437+2301.42+759.041C2301.03+758.456+2300.66+757.844+2300.25+757.269ZM2032.35+762.176C2031.71+764.851+2031.33+767.522+2030.43+770.219C2030.58+768.401+2030.27+765.866+2030.58+764.357L2032.35+762.176ZM1800.78+764.494L1748.41+801.436C1757.38+788.286+1774.34+777.921+1787.4+769.538C1789.54+769.368+1794.11+767.159+1798.87+764.766C1799.77+764.551+1799.85+764.739+1800.78+764.494ZM1963.94+764.494C1971.86+766.496+1979.81+768.603+1985.71+772.809C1988.43+774.751+1990.45+777.558+1992.63+780.171C1982.9+773.105+1972.14+767.38+1963.94+764.494ZM2027.49+768.311C2027.53+771.627+2027.44+775.031+2028.08+778.126C2027.35+780.258+2025.69+781.789+2024.26+783.442C2025.07+779.006+2026.1+774.524+2026.02+770.356L2027.49+768.311ZM2047.06+777.989C2046.49+778.297+2045.86+778.498+2045.29+778.807L2046.03+780.034C2040.53+782.552+2035.37+785.401+2031.02+788.759L2041.03+790.395C2034.59+790.602+2028.29+791.082+2022.93+793.394C2022.07+792.759+2021.2+792.172+2020.28+791.621C2020.3+790.739+2020.44+789.927+2020.43+789.031L2023.37+789.577C2023.74+788.283+2023.68+787.162+2023.96+785.896L2047.06+777.989ZM1998.66+784.805L2012.04+787.396C2012.1+787.459+2012.13+787.467+2012.19+787.532C2011.76+787.455+2011.79+788.338+2011.46+788.486C2011.93+788.463+2012.32+788.249+2012.93+788.35C2013.31+788.745+2013.67+789.137+2014.1+789.577C2014.83+790.899+2015.75+792.28+2016.61+793.666C2016.61+794.028+2016.61+794.396+2016.61+794.757C2015.71+793.834+2014.84+792.791+2013.96+792.439C2013.79+792.382+2012.64+790.872+2012.63+791.076C2012.63+791.235+2012.77+791.46+2012.78+791.621C2012.63+791.606+2012.48+791.207+2012.34+791.212C2009.59+791.31+2011.59+793.739+2014.25+796.529C2014.11+796.483+2014.11+796.438+2013.96+796.393C2011.64+795.707+2010.21+795.59+2008.07+795.029C2005.38+791.445+2002.32+787.963+1998.66+784.805ZM2011.46+788.486C2010.23+788.546+2009.4+788.834+2009.84+790.258C2009.93+788.714+2010.79+788.78+2011.46+788.486ZM2015.87+788.077L2016.31+788.213C2016.32+788.305+2016.3+788.394+2016.31+788.486C2016.16+788.326+2016.02+788.229+2015.87+788.077ZM1970.56+789.849L1974.97+790.531C1974.12+790.625+1973.69+790.936+1972.91+791.076L1970.56+789.849ZM2029.7+792.848C2030.86+792.713+2032.31+793.049+2033.52+792.985C2034.84+794.128+2030.75+797.289+2028.08+799.255C2027.91+798.905+2027.71+798.51+2027.49+798.165C2028.66+797.316+2029.29+796.043+2030.58+795.302C2030.58+795.302+2027.42+797.189+2026.9+797.483C2026.01+796.292+2025.27+795.133+2023.96+794.075C2025.8+793.58+2027.64+793.089+2029.7+792.848ZM2008.66+795.847C2009.89+796.098+2011.11+796.592+2012.34+796.802L2009.1+796.256C2008.99+796.101+2008.77+796.002+2008.66+795.847ZM2020.58+797.074C2021.53+798.369+2021.54+799.415+2021.75+800.482C2021.7+800.511+2021.66+800.589+2021.61+800.618C2021.45+799.463+2021.38+798.273+2020.58+797.074ZM2016.02+799.937C2016.27+800.061+2016.5+800.221+2016.75+800.346C2016.8+800.432+2016.85+800.532+2016.9+800.618C2016.76+801.649+2016.38+802.605+2016.16+803.617C2015.27+804.129+2014.91+804.434+2013.96+804.981C2013.52+803.725+2012.95+802.526+2012.34+801.3C2013.76+800.842+2015.24+800.409+2016.02+799.937ZM2022.78+802.527C2022.92+802.718+2023.1+802.882+2023.23+803.072C2023.01+802.963+2022.85+802.772+2022.64+802.663C2022.68+802.616+2022.74+802.574+2022.78+802.527ZM1746.2+804.299L1747.38+833.88C1746.02+830.997+1744.57+828.24+1743.56+824.883C1741.31+817.455+1742.7+810.6+1746.2+804.299ZM2027.05+804.435C2027.29+804.755+2027.48+805.01+2027.64+805.253C2027.39+805.118+2027.15+804.978+2026.9+804.844C2027.01+804.676+2026.96+804.593+2027.05+804.435ZM2019.4+804.844C2019.49+804.989+2019.6+805.108+2019.69+805.253C2019.32+805.713+2018.73+806.006+2018.37+806.48C2018.54+806.016+2018.81+805.593+2018.96+805.117C2019.21+804.988+2019.15+804.976+2019.4+804.844ZM2027.79+806.48C2027.94+806.568+2028.08+806.665+2028.23+806.753C2028.24+806.981+2028.18+807.214+2028.23+807.434C2028.08+807.13+2027.93+806.781+2027.79+806.48ZM2015.28+807.026C2015.15+807.441+2014.99+807.841+2014.84+808.252C2014.76+807.89+2014.78+807.522+2014.69+807.162C2014.93+807.042+2015.04+807.148+2015.28+807.026ZM2012.78+808.116C2013.04+808.755+2013.3+809.378+2013.52+810.025L2005.28+814.114C2003.45+814.265+2001.56+814.429+1999.69+814.659C2002.12+813.526+2007.36+810.871+2012.78+808.116ZM2027.64+809.616C2027.99+810.13+2028.34+810.607+2028.67+811.115C2028.71+811.433+2028.78+811.751+2028.82+812.069C2028.5+811.588+2028+810.979+2027.64+810.433C2027.61+810.185+2027.67+809.852+2027.64+809.616ZM2013.66+814.659C2013.19+815.577+2012.62+816.442+2012.19+817.386L2012.63+815.886C2013.01+815.495+2013.32+815.072+2013.66+814.659ZM2190.35+815.341L2199.03+816.704C2196.11+816.262+2193.29+815.847+2190.35+815.341ZM2058.98+822.839C2066.51+828.202+2074.1+834.327+2080.45+841.787C2110.21+876.735+2137.78+904.298+2136.06+910.356C2135.89+910.978+2136.4+912.081+2136.36+912.809C2116.43+886.66+2094.94+859.851+2070.3+837.152C2066.77+832.057+2062.97+827.293+2058.98+822.839ZM2024.99+823.384C2025.15+823.435+2025.14+823.598+2025.29+823.656C2025.13+823.991+2024.72+824.414+2024.55+824.747C2024.47+824.057+2024.1+823.092+2024.99+823.384ZM1755.33+846.422L1771.36+858.691C1765.31+855.714+1759.87+851.684+1755.33+846.422ZM2019.99+846.967C2019.39+849.291+2019.65+850.096+2019.55+851.602C2018.95+854.346+2017.9+857+2017.78+859.781C2017.78+859.893+2017.81+861.23+2017.78+861.69C2017.12+864.245+2016.17+866.883+2015.43+869.46C2014.4+870.606+2013.59+871.704+2012.78+872.732C2013.38+869.766+2014.22+865.091+2014.69+862.78C2015.79+857.41+2017.87+852.187+2019.99+846.967ZM2012.19+876.412C2014.43+875.348+2013.01+877.988+2011.16+881.183C2011.44+879.73+2011.63+878.317+2011.9+876.957C2012+876.883+2012.09+876.46+2012.19+876.412ZM2015.87+882.819C2015.8+883.568+2015.64+884.289+2015.58+885.273C2015.34+887.079+2014.94+888.489+2014.99+890.317C2014.82+891.461+2014.4+892.416+2014.25+893.588C2014.19+894.054+2014.29+894.491+2014.25+894.952C2014.23+895.305+2014.04+895.755+2014.1+896.042C2010.51+913.843+2007.32+931.887+2005.72+949.479C2005.6+949.353+2005.42+949.304+2005.28+949.207C2005.27+948.814+2005.23+948.062+2005.28+947.98C2006.59+937.929+2008.18+928.347+2009.1+922.352C2010.84+911.079+2011.68+899.648+2014.1+888.408C2014.52+886.48+2015.37+884.712+2015.87+882.819ZM2011.02+884.591C2010.44+886.419+2009.96+888.209+2009.4+890.044C2009.64+888.674+2009.89+887.815+2010.13+886.5C2010.45+885.858+2010.68+885.237+2011.02+884.591ZM2004.84+933.394C2004.22+937.24+2003.71+940.952+2003.07+945.526C2003.02+944.753+2002.95+943.938+2002.92+943.209C2002.97+942.14+2003.16+941.145+2003.22+940.073C2003.71+937.873+2004.29+935.667+2004.84+933.394ZM2112.53+950.57C2112.7+951.102+2112.94+951.676+2113.11+952.206C2114.24+955.669+2115.87+963.487+2117.38+970.2C2117.21+970.194+2116.95+970.05+2116.79+970.064C2115.59+963.62+2114.31+957.184+2112.53+950.57ZM1819.62+957.795L1829.33+979.742C1823.12+975.277+1819.57+968.109+1819.62+957.795ZM1999.83+965.429C1999.91+965.42+1999.91+965.566+1999.98+965.565C1999.97+965.647+1999.84+965.755+1999.83+965.838C1999.84+965.82+1999.82+965.43+1999.83+965.429ZM1999.98+966.792C2000.13+966.879+2000.28+966.957+2000.42+967.065C2000.32+967.477+2000.37+967.765+2000.28+968.155C2000.23+967.823+1999.99+966.972+1999.98+966.792ZM2000.86+983.15C2000.87+983.795+2000.71+984.416+2000.72+985.059C2000.28+985.287+2000.22+984.871+1999.98+984.786C2000.34+984.391+2000.67+983.826+2000.86+983.15ZM2120.91+992.556C2121.44+999.576+2121.48+1005.93+2119.59+1009.32C2118.87+1010.61+2117.55+1011.78+2116.5+1013C2115.1+1012.29+2113.86+1011.35+2112.53+1010.55C2112.74+1010.52+2112.81+1010.69+2113.11+1010.55C2113.18+1010.52+2113.2+1009.92+2113.26+1009.87C2113.37+1009.73+2113.6+1009.74+2113.7+1009.6C2114.43+1010.33+2115.16+1011.04+2116.35+1010.41C2119.71+1008.63+2118.83+1004.32+2117.97+1000.33C2118.23+999.432+2118.53+998.606+2118.7+997.6C2119.3+995.789+2120.51+994.57+2120.91+992.556ZM2246.4+999.372C2248.79+999.55+2250.83+999.577+2252.88+999.645C2247.45+1001.1+2240.5+1001.26+2232.13+999.781C2237.03+999.631+2242.55+999.087+2246.4+999.372ZM2115.03+1014.91C2114.1+1015.82+2113.02+1016.63+2111.94+1017.5C2112.94+1016.61+2114.1+1015.85+2115.03+1014.91ZM2021.75+1034.27C2022.24+1034.61+2022.87+1034.77+2023.37+1035.09C2022.85+1034.8+2022.25+1034.59+2021.75+1034.27Z" fill="#ffe100" fill-opacity="0.886497" opacity="1" stroke-linejoin="round"/>
</g>
<g id="Ground" vectornator:layerName="Ground">
<path d="M1834.86+1437.17L1746.72+1441.02L1734.64+1442.6L1704.38+1444.15L1671.86+1445.7L1639.56+1449.08L1605.14+1450.87L1574.78+1454.26L1548.73+1458.21L1526.4+1460.01L1514.24+1461.86L1508.16+1462.04L1511.8+1463.26L1525.84+1453.95L1555.77+1452.14L1598.12+1446.65L1648.62+1441.51L1703.41+1437.49L1764.18+1432.11L1877.64+1426.27L1928.51+1426.07L1969.14+1424.58L1997.44+1424.86L2011.84+1425.33L2017.91+1425.66L2015.27+1436.76L1982.44+1441.01L1939.3+1443.1L1888.75+1446.81L1827.95+1448.79L1767.19+1452.43L1704.54+1455.93L1645.84+1459.49L1591.07+1461.37L1548.63+1464.79L1512.31+1466.62L1489.98+1468.43L1479.81+1468.62L1477.24+1468.75L1491.41+1454L1519.33+1452.2L1561.5+1448.74L1614.15+1445.25L1674.98+1441.38L1741.87+1437.89L1808.69+1434.05L1873.64+1432.31L1928.63+1432.25L1971.34+1432.62L1997.95+1434.71L2012.75+1436.98L2016.01+1439.13L2006+1455.52L1971.08+1461.08L1927.93+1464.97L1872.82+1468.4L1818.24+1473.54L1761.53+1476.97L1706.7+1480.34L1656.1+1483.59L1613.66+1486.96L1583.3+1489.04L1565.07+1490.7L1556.95+1491.08L1578.49+1474.99L1614.27+1471.84L1662.42+1467L1723.22+1461.78L1792.23+1456.69L1861.09+1451.2L1925.86+1446.15L1986.89+1444.6L2035.95+1444.71L2070.56+1444.83L2092.84+1445.37L2101.5+1447.62L2103.21+1454.5L2071.94+1465.36L2028.72+1469.46L1974.01+1472.84L1913.22+1476.92L1850.42+1480.5L1783.58+1483.92L1716.59+1485.4L1653.81+1488.55L1599.25+1491.05L1556.65+1492.35L1526.23+1494L1506.12+1495.34L1497.98+1495.64L1501.54+1495.85L1527.86+1483.58L1574.21+1481.43L1628.59+1477.55L1701.27+1472.01L1778.44+1470.09L1861.59+1466L1940.69+1465.57L2011.84+1465.66L2078.81+1467.98L2125.75+1471.86L2156.5+1476.16L2170.82+1478.55L2176.16+1482.44L2161.44+1496.28L2120.21+1500.76L2066.96+1502.15L2008.06+1504.45L1943.25+1506.5L1876.42+1508.47L1817.71+1510.35L1758.86+1510.48L1718.39+1512.02L1688.08+1512.06L1669.61+1511.83L1663.54+1511.81L1669.61+1511.78L1695.42+1496.37L1735.41+1491.22L1784.04+1487.6L1842.9+1482.25L1901.65+1478.45L1954.58+1476.37L2003.33+1474.76L2037.91+1474.55L2060.44+1475.44L2068.54+1476L2066.51+1476.47L2045.48+1492.7L2004.63+1495.59L1953.8+1499.62L1899.03+1502.98L1840.34+1507.21L1785.86+1512.59L1741.71+1518.3L1701.2+1521.8L1676.65+1523.56L1662.61+1525.39L1660.8+1525.43L1669.61+1508.25L1697.96+1508.19L1740.19+1506.35L1790.43+1503.02L1840.85+1499.11L1899.61+1495.47L1950.44+1493.62L1987.27+1493.55L2017.91+1493.34L2040.19+1494.17L2042.21+1494.89L2040.5+1512.21L2013.05+1514.18L1976.27+1517.35L1934.06+1522.76L1889.44+1526.41L1847+1532.04L1808.68+1535.87L1778.29+1539.63L1754.39+1543.33L1742.38+1544.6L1737.88+1544.73L1742.31+1544.26L1758.71+1526.39L1786.61+1524.8L1824.57+1521.31L1865.22+1519.68L1907.77+1516.13L1952.34+1514.2L1991.32+1514.14L2021.96+1514.03L2044.24+1514.73L2054.98+1516.97L2057.93+1517.46L2053.34+1534.75L2027.75+1537.34L1992.27+1539.74L1953.65+1541.52L1911.36+1545.38L1870.87+1547.34L1832.46+1550.99L1804.26+1552.64L1781.88+1554.5L1770.12+1555.95L1768.31+1555.63L1770.86+1538.8L1789.09+1539.11L1817.44+1539.44L1853.61+1537.97L1889.85+1536.25L1926.54+1536.23L1958.93+1534.71L1985.21+1534.59L2003.74+1534.37L2012.55+1535.89L2017.33+1538.07L2014.84+1552.51L1989.93+1558.41L1962.59+1561.89L1934.07+1565.41L1905.7+1568.9L1881.49+1572.25L1861.47+1575.61L1847.3+1577.53L1843.62+1579.13L1844.51+1579.74L1850.6+1566.86L1866.04+1566.97L1889.97+1565.71L1916.06+1564.18L1946.51+1562.57L1972.84+1561.02L1993.3+1561.07L2009.42+1559.51L2017.32+1559.44L2019.94+1559.56L2024.85+1563L2016.04+1575.07L2001.68+1577.6L1986.59+1579.57L1974.47+1581.39L1964.48+1582.81L1958.85+1584.4L1954.41+1584.18L1951.09+1584.07L1955.09+1583.81L1960.51+1576.1L1969.31+1576.21L1983.49+1576.01L2001.71+1575.82L2015.51+1573.8L2031.69+1573.8L2044.24+1573.69L2050.31+1573.61L2052.34+1573.73L2050.31+1573.95L2042.21+1583.38L2026.47+1584.99L2012.54+1586.54L1998.49+1588.62L1984.33+1590.41L1976.54+1592.45L1971.1+1594.07L1972.7+1594.77L1975.5+1587.11L1981.46+1585.88L1993.61+1586.08L2011.84+1586.15L2030.06+1586.41L2046.26+1586.59L2060.44+1586.6L2070.18+1585.08L2073.94+1584.97L2076.64+1584.97L2072.59+1592.75L2063.14+1594.46L2051.15+1596.06L2038.96+1597.86L2026.8+1599.52L2018.87+1601.23L2010.39+1601.06L2005.76+1600.86L2007.57+1601.94L2006.51+1601.25L2009.64+1598.95L2009.81+1595.74L2013.86+1595.84L2019.16+1594.05L2027.48+1594.02L2035.69+1592.62L2041.73+1592.77L2048.29+1592.81L2050.31+1592.67L2052.34+1592.75L2050.31+1592.91L2046.26+1598.24L2042.21+1598.22L2038.85+1599.56L2037.04+1599.52L2035.34+1600.99L2036.44+1601.59L2037.62+1599.4L2040.82+1600.75L2042.62+1601.29L2046.26+1601.39L2050.31+1601.77L2052.34+1602.15L2056.39+1603.99L2058.41+1603.99L2060.44+1603.99L2060.44+1603.99L2058.41+1603.99L2056.39+1603.99L2052.34+1602.46L2050.31+1602.85L2046.26+1603.22L2041.8+1603.33L2039.56+1603.87L2034.66+1601.85L2031.78+1599.66L2032.88+1596.91L2035.24+1595.03L2037.47+1594.98L2042.21+1592.97L2046.26+1592.95L2050.31+1598.28L2052.34+1598.44L2050.31+1598.52L2048.29+1598.37L2042.7+1598.41L2036.59+1598.57L2028.6+1600.52L2020.72+1600.5L2013.86+1602.06L2009.81+1602.16L2001.89+1598.95L2000.97+1596.66L2003.96+1595.97L2005.76+1593.69L2009.24+1593.49L2016.96+1593.32L2025.22+1591.67L2037.37+1589.98L2049.48+1588.42L2061.79+1586.67L2072.59+1585.02L2076.64+1592.8L2075.29+1592.8L2070.95+1592.68L2060.44+1594.52L2046.26+1594.53L2030.06+1594.71L2011.84+1594.97L1993.61+1595.04L1981.46+1595.24L1967.17+1594.01L1965.93+1586.36L1967.52+1583.69L1974.24+1581.96L1982.65+1580.65L1996.84+1579.07L2011.14+1577.8L2025.56+1576L2042.21+1574.25L2050.31+1583.67L2052.34+1583.9L2050.31+1584.02L2044.24+1583.94L2032.49+1583.82L2016.27+1583.83L2001.71+1585.17L1983.49+1584.97L1969.31+1584.78L1957.86+1584.88L1947.09+1577.18L1951.09+1573.56L1951.82+1573.44L1955.48+1573.23L1961.99+1571.46L1972.26+1569.53L1984.44+1567.99L1997.7+1566.61L2007.63+1565.78L2015.03+1571.13L2019.94+1571.22L2018.51+1571.34L2010.21+1571.27L1993.93+1573.07L1973.89+1573.12L1947.57+1574.93L1917.27+1576.67L1890.71+1578.49L1866.04+1580.59L1845.03+1580.69L1834.92+1567.82L1839.85+1565.07L1844.27+1563.31L1858.46+1561.88L1878.94+1558.53L1903.33+1555.17L1931.66+1551.95L1959.83+1548.75L1985.15+1545.52L2000.73+1544.71L2010.4+1552.44L2011.13+1551.26L2003.74+1549.42L1985.82+1549.21L1959.44+1549.08L1927.03+1550.92L1890.83+1550.9L1854.16+1552.53L1817.44+1554.42L1789.09+1554.76L1770.86+1555.06L1765.31+1538.23L1767.56+1537.91L1780.1+1536.01L1802.27+1534.51L1830.77+1532.81L1869.31+1529.74L1909.82+1528.34L1952.58+1525.49L1990.91+1523.92L2024.28+1522.96L2043.24+1522.2L2054.85+1532.78L2053.75+1533.27L2044.24+1532.14L2021.96+1532.84L1991.86+1532.73L1953.89+1532.68L1909.36+1534.1L1866.85+1537.27L1826.51+1538.99L1787.52+1542.21L1758.71+1543.98L1738.66+1526.11L1735+1525.64L1738.59+1525.77L1750.88+1523.68L1775.59+1520.67L1805.94+1517.72L1844.58+1514.83L1887.19+1510.4L1931.67+1507.34L1974.5+1502.68L2010.63+1499.13L2031.78+1497.75L2042.21+1511.71L2040.19+1512.44L2017.91+1513.26L1987.81+1513.05L1951.74+1512.98L1901.31+1514.49L1842.63+1517.56L1791.8+1520.36L1740.79+1523.75L1697.96+1525.26L1669.61+1525.2L1658.17+1508.02L1660.41+1508.06L1674.73+1506.54L1698.78+1504.94L1739.26+1501.73L1784.22+1497.37L1839.09+1492.68L1897.85+1490.2L1952.43+1486.84L2002.85+1484.16L2043+1480.34L2066.51+1489.86L2068.54+1490.32L2060.44+1490.88L2038.42+1491.77L2004.14+1491.56L1955.7+1493.31L1903.33+1494.59L1844.63+1497.5L1786.04+1502.22L1737.47+1505.31L1696.46+1510.23L1669.61+1498.18L1663.54+1498.14L1669.61+1498.13L1687.59+1497.9L1718.04+1497.93L1758.56+1496.12L1817.16+1496.25L1875.91+1494.77L1942.73+1493.39L2007.52+1492.09L2066.07+1491.03L2118.12+1489.06L2153.84+1486.83L2171.52+1493.95L2168.75+1491.13L2154.73+1490.16L2124.73+1487.76L2078.51+1484.92L2011.84+1483.88L1941.24+1483.98L1862.39+1483.55L1779.49+1486.17L1702.76+1487.61L1629.64+1492.14L1574.66+1494.97L1527.86+1496.18L1501.54+1483.9L1496.99+1484.12L1505.06+1484.41L1525.45+1482.4L1555.77+1480.69L1598.22+1478.64L1653.01+1474.42L1715.79+1470.86L1782.45+1468.98L1849.25+1465.69L1912.01+1462.56L1972.71+1459.92L2027.35+1456.59L2069.19+1453.98L2090.57+1461.48L2100.37+1461.66L2092.84+1460.54L2070.56+1461.09L2036.32+1461.21L1988.19+1461.32L1927.72+1463.12L1862.89+1468.14L1794.05+1472.72L1725.36+1477.7L1664.66+1482.55L1615.6+1487.78L1578.49+1491.34L1555.48+1475.25L1563.55+1475.62L1581.78+1473.93L1612.16+1472.66L1654.78+1469.32L1705.43+1465.85L1759.95+1462.51L1816.64+1459.23L1871.41+1454.3L1925.65+1451.02L1967.55+1448.19L1997.43+1443.68L2011.72+1453.36L2010.92+1452.15L1997.37+1451.07L1971.34+1449.8L1929+1450.17L1874.63+1450.11L1809.99+1451.73L1743.15+1454.61L1676.4+1457.83L1615.73+1460.67L1563.07+1463.89L1520.19+1467.14L1491.41+1468.69L1477.24+1453.95L1478.71+1454.08L1488.8+1454.27L1511.02+1452.72L1547.6+1451.2L1590.2+1447.9L1644.79+1446.43L1703.54+1443.28L1766.44+1440.06L1827.18+1436.99L1887.87+1435.62L1938.58+1432.62L1980.49+1431.35L2004.36+1432.24L2017.91+1436.62L2011.84+1436.95L1997.89+1437.43L1969.49+1437.7L1929.12+1439.57L1878.74+1439.37L1765.4+1443.61L1704.67+1448.29L1650.11+1450.98L1599.36+1455.91L1556.65+1460.49L1525.84+1462.03L1507.47+1456.08L1507.07+1453.95L1513.14+1454.13L1525.28+1452.62L1547.5+1451.06L1574.1+1448.3L1604.49+1444.98L1638.92+1443.41L1671.42+1440.08L1703.7+1438.27L1734.19+1436.47L1746.41+1434.7L1836.47+1431.83L1834.86+1437.17L1746.72+1441.02L1734.64+1442.6L1704.38+1444.15L1671.86+1445.7L1639.56+1449.08L1605.14+1450.87L1574.78+1454.26L1548.73+1458.21L1526.4+1460.01L1514.24+1461.86L1508.16+1462.04L1511.8+1463.26L1525.84+1453.95L1555.77+1452.14L1598.12+1446.65L1648.62+1441.51L1703.41+1437.49L1764.18+1432.11L1877.64+1426.27L1928.51+1426.07L1969.14+1424.58L1997.44+1424.86L2011.84+1425.33L2017.91+1425.66L2015.27+1436.76L1982.44+1441.01L1939.3+1443.1L1888.75+1446.81L1827.95+1448.79L1767.19+1452.43L1704.54+1455.93L1645.84+1459.49L1591.07+1461.37L1548.63+1464.79L1512.31+1466.62L1489.98+1468.43L1479.81+1468.62L1477.24+1468.75L1491.41+1454L1519.33+1452.2L1561.5+1448.74L1614.15+1445.25L1674.98+1441.38L1741.87+1437.89L1808.69+1434.05L1873.64+1432.31L1928.63+1432.25L1971.34+1432.62L1997.95+1434.71L2012.75+1436.98L2016.01+1439.13L2006+1455.52L1971.08+1461.08L1927.93+1464.97L1872.82+1468.4L1818.24+1473.54L1761.53+1476.97L1706.7+1480.34L1656.1+1483.59L1613.66+1486.96L1583.3+1489.04L1565.07+1490.7L1556.95+1491.08L1578.49+1474.99L1614.27+1471.84L1662.42+1467L1723.22+1461.78L1792.23+1456.69L1861.09+1451.2L1925.86+1446.15L1986.89+1444.6L2035.95+1444.71L2070.56+1444.83L2092.84+1445.37L2101.5+1447.62L2103.21+1454.5L2071.94+1465.36L2028.72+1469.46L1974.01+1472.84L1913.22+1476.92L1850.42+1480.5L1783.58+1483.92L1716.59+1485.4L1653.81+1488.55L1599.25+1491.05L1556.65+1492.35L1526.23+1494L1506.12+1495.34L1497.98+1495.64L1501.54+1495.85L1527.86+1483.58L1574.21+1481.43L1628.59+1477.55L1701.27+1472.01L1778.44+1470.09L1861.59+1466L1940.69+1465.57L2011.84+1465.66L2078.81+1467.98L2125.75+1471.86L2156.5+1476.16L2170.82+1478.55L2176.16+1482.44L2161.44+1496.28L2120.21+1500.76L2066.96+1502.15L2008.06+1504.45L1943.25+1506.5L1876.42+1508.47L1817.71+1510.35L1758.86+1510.48L1718.39+1512.02L1688.08+1512.06L1669.61+1511.83L1663.54+1511.81L1669.61+1511.78L1695.42+1496.37L1735.41+1491.22L1784.04+1487.6L1842.9+1482.25L1901.65+1478.45L1954.58+1476.37L2003.33+1474.76L2037.91+1474.55L2060.44+1475.44L2068.54+1476L2066.51+1476.47L2045.48+1492.7L2004.63+1495.59L1953.8+1499.62L1899.03+1502.98L1840.34+1507.21L1785.86+1512.59L1741.71+1518.3L1701.2+1521.8L1676.65+1523.56L1662.61+1525.39L1660.8+1525.43L1669.61+1508.25L1697.96+1508.19L1740.19+1506.35L1790.43+1503.02L1840.85+1499.11L1899.61+1495.47L1950.44+1493.62L1987.27+1493.55L2017.91+1493.34L2040.19+1494.17L2042.21+1494.89L2040.5+1512.21L2013.05+1514.18L1976.27+1517.35L1934.06+1522.76L1889.44+1526.41L1847+1532.04L1808.68+1535.87L1778.29+1539.63L1754.39+1543.33L1742.38+1544.6L1737.88+1544.73L1742.31+1544.26L1758.71+1526.39L1786.61+1524.8L1824.57+1521.31L1865.22+1519.68L1907.77+1516.13L1952.34+1514.2L1991.32+1514.14L2021.96+1514.03L2044.24+1514.73L2054.98+1516.97L2057.93+1517.46L2053.34+1534.75L2027.75+1537.34L1992.27+1539.74L1953.65+1541.52L1911.36+1545.38L1870.87+1547.34L1832.46+1550.99L1804.26+1552.64L1781.88+1554.5L1770.12+1555.95L1768.31+1555.63L1770.86+1538.8L1789.09+1539.11L1817.44+1539.44L1853.61+1537.97L1889.85+1536.25L1926.54+1536.23L1958.93+1534.71L1985.21+1534.59L2003.74+1534.37L2012.55+1535.89L2017.33+1538.07L2014.84+1552.51L1989.93+1558.41L1962.59+1561.89L1934.07+1565.41L1905.7+1568.9L1881.49+1572.25L1861.47+1575.61L1847.3+1577.53L1843.62+1579.13L1844.51+1579.74L1850.6+1566.86L1866.04+1566.97L1889.97+1565.71L1916.06+1564.18L1946.51+1562.57L1972.84+1561.02L1993.3+1561.07L2009.42+1559.51L2017.32+1559.44L2019.94+1559.56L2024.85+1563L2016.04+1575.07L2001.68+1577.6L1986.59+1579.57L1974.47+1581.39L1964.48+1582.81L1958.85+1584.4L1954.41+1584.18L1951.09+1584.07L1955.09+1583.81L1960.51+1576.1L1969.31+1576.21L1983.49+1576.01L2001.71+1575.82L2015.51+1573.8L2031.69+1573.8L2044.24+1573.69L2050.31+1573.61L2052.34+1573.73L2050.31+1573.95L2042.21+1583.38L2026.47+1584.99L2012.54+1586.54L1998.49+1588.62L1984.33+1590.41L1976.54+1592.45L1971.1+1594.07L1972.7+1594.77L1975.5+1587.11L1981.46+1585.88L1993.61+1586.08L2011.84+1586.15L2030.06+1586.41L2046.26+1586.59L2060.44+1586.6L2070.18+1585.08L2073.94+1584.97L2076.64+1584.97L2072.59+1592.75L2063.14+1594.46L2051.15+1596.06L2038.96+1597.86L2026.8+1599.52L2018.87+1601.23L2010.39+1601.06L2005.76+1600.86L2007.57+1601.94L2006.51+1601.25L2009.64+1598.95L2009.81+1595.74L2013.86+1595.84L2019.16+1594.05L2027.48+1594.02L2035.69+1592.62L2041.73+1592.77L2048.29+1592.81L2050.31+1592.67L2052.34+1592.75L2050.31+1592.91L2046.26+1598.24L2042.21+1598.22L2038.85+1599.56L2037.04+1599.52L2035.34+1600.99L2036.44+1601.59L2037.62+1599.4L2040.82+1600.75L2042.62+1601.29L2046.26+1601.39L2050.31+1601.77L2052.34+1602.15L2056.39+1603.99L2058.41+1603.99L2060.44+1603.99L2060.44+1603.99L2058.41+1603.99L2056.39+1603.99L2052.34+1602.46L2050.31+1602.85L2046.26+1603.22L2041.8+1603.33L2039.56+1603.87L2034.66+1601.85L2031.78+1599.66L2032.88+1596.91L2035.24+1595.03L2037.47+1594.98L2042.21+1592.97L2046.26+1592.95L2050.31+1598.28L2052.34+1598.44L2050.31+1598.52L2048.29+1598.37L2042.7+1598.41L2036.59+1598.57L2028.6+1600.52L2020.72+1600.5L2013.86+1602.06L2009.81+1602.16L2001.89+1598.95L2000.97+1596.66L2003.96+1595.97L2005.76+1593.69L2009.24+1593.49L2016.96+1593.32L2025.22+1591.67L2037.37+1589.98L2049.48+1588.42L2061.79+1586.67L2072.59+1585.02L2076.64+1592.8L2075.29+1592.8L2070.95+1592.68L2060.44+1594.52L2046.26+1594.53L2030.06+1594.71L2011.84+1594.97L1993.61+1595.04L1981.46+1595.24L1967.17+1594.01L1965.93+1586.36L1967.52+1583.69L1974.24+1581.96L1982.65+1580.65L1996.84+1579.07L2011.14+1577.8L2025.56+1576L2042.21+1574.25L2050.31+1583.67L2052.34+1583.9L2050.31+1584.02L2044.24+1583.94L2032.49+1583.82L2016.27+1583.83L2001.71+1585.17L1983.49+1584.97L1969.31+1584.78L1957.86+1584.88L1947.09+1577.18L1951.09+1573.56L1951.82+1573.44L1955.48+1573.23L1961.99+1571.46L1972.26+1569.53L1984.44+1567.99L1997.7+1566.61L2007.63+1565.78L2015.03+1571.13L2019.94+1571.22L2018.51+1571.34L2010.21+1571.27L1993.93+1573.07L1973.89+1573.12L1947.57+1574.93L1917.27+1576.67L1890.71+1578.49L1866.04+1580.59L1845.03+1580.69L1834.92+1567.82L1839.85+1565.07L1844.27+1563.31L1858.46+1561.88L1878.94+1558.53L1903.33+1555.17L1931.66+1551.95L1959.83+1548.75L1985.15+1545.52L2000.73+1544.71L2010.4+1552.44L2011.13+1551.26L2003.74+1549.42L1985.82+1549.21L1959.44+1549.08L1927.03+1550.92L1890.83+1550.9L1854.16+1552.53L1817.44+1554.42L1789.09+1554.76L1770.86+1555.06L1765.31+1538.23L1767.56+1537.91L1780.1+1536.01L1802.27+1534.51L1830.77+1532.81L1869.31+1529.74L1909.82+1528.34L1952.58+1525.49L1990.91+1523.92L2024.28+1522.96L2043.24+1522.2L2054.85+1532.78L2053.75+1533.27L2044.24+1532.14L2021.96+1532.84L1991.86+1532.73L1953.89+1532.68L1909.36+1534.1L1866.85+1537.27L1826.51+1538.99L1787.52+1542.21L1758.71+1543.98L1738.66+1526.11L1735+1525.64L1738.59+1525.77L1750.88+1523.68L1775.59+1520.67L1805.94+1517.72L1844.58+1514.83L1887.19+1510.4L1931.67+1507.34L1974.5+1502.68L2010.63+1499.13L2031.78+1497.75L2042.21+1511.71L2040.19+1512.44L2017.91+1513.26L1987.81+1513.05L1951.74+1512.98L1901.31+1514.49L1842.63+1517.56L1791.8+1520.36L1740.79+1523.75L1697.96+1525.26L1669.61+1525.2L1658.17+1508.02L1660.41+1508.06L1674.73+1506.54L1698.78+1504.94L1739.26+1501.73L1784.22+1497.37L1839.09+1492.68L1897.85+1490.2L1952.43+1486.84L2002.85+1484.16L2043+1480.34L2066.51+1489.86L2068.54+1490.32L2060.44+1490.88L2038.42+1491.77L2004.14+1491.56L1955.7+1493.31L1903.33+1494.59L1844.63+1497.5L1786.04+1502.22L1737.47+1505.31L1696.46+1510.23L1669.61+1498.18L1663.54+1498.14L1669.61+1498.13L1687.59+1497.9L1718.04+1497.93L1758.56+1496.12L1817.16+1496.25L1875.91+1494.77L1942.73+1493.39L2007.52+1492.09L2066.07+1491.03L2118.12+1489.06L2153.84+1486.83L2171.52+1493.95L2168.75+1491.13L2154.73+1490.16L2124.73+1487.76L2078.51+1484.92L2011.84+1483.88L1941.24+1483.98L1862.39+1483.55L1779.49+1486.17L1702.76+1487.61L1629.64+1492.14L1574.66+1494.97L1527.86+1496.18L1501.54+1483.9L1496.99+1484.12L1505.06+1484.41L1525.45+1482.4L1555.77+1480.69L1598.22+1478.64L1653.01+1474.42L1715.79+1470.86L1782.45+1468.98L1849.25+1465.69L1912.01+1462.56L1972.71+1459.92L2027.35+1456.59L2069.19+1453.98L2090.57+1461.48L2100.37+1461.66L2092.84+1460.54L2070.56+1461.09L2036.32+1461.21L1988.19+1461.32L1927.72+1463.12L1862.89+1468.14L1794.05+1472.72L1725.36+1477.7L1664.66+1482.55L1615.6+1487.78L1578.49+1491.34L1555.48+1475.25L1563.55+1475.62L1581.78+1473.93L1612.16+1472.66L1654.78+1469.32L1705.43+1465.85L1759.95+1462.51L1816.64+1459.23L1871.41+1454.3L1925.65+1451.02L1967.55+1448.19L1997.43+1443.68L2011.72+1453.36L2010.92+1452.15L1997.37+1451.07L1971.34+1449.8L1929+1450.17L1874.63+1450.11L1809.99+1451.73L1743.15+1454.61L1676.4+1457.83L1615.73+1460.67L1563.07+1463.89L1520.19+1467.14L1491.41+1468.69L1477.24+1453.95L1478.71+1454.08L1488.8+1454.27L1511.02+1452.72L1547.6+1451.2L1590.2+1447.9L1644.79+1446.43L1703.54+1443.28L1766.44+1440.06L1827.18+1436.99L1887.87+1435.62L1938.58+1432.62L1980.49+1431.35L2004.36+1432.24L2017.91+1436.62L2011.84+1436.95L1997.89+1437.43L1969.49+1437.7L1929.12+1439.57L1878.74+1439.37L1765.4+1443.61L1704.67+1448.29L1650.11+1450.98L1599.36+1455.91L1556.65+1460.49L1525.84+1462.03L1507.47+1456.08L1507.07+1453.95L1513.14+1454.13L1525.28+1452.62L1547.5+1451.06L1574.1+1448.3L1604.49+1444.98L1638.92+1443.41L1671.42+1440.08L1703.7+1438.27L1734.19+1436.47L1746.41+1434.7L1836.47+1431.83" stroke="#153e00" stroke-width="1" fill="#153e00" opacity="1" stroke-linejoin="round"/>
</g>
<g id="Stem2" vectornator:layerName="Stem2">
<path d="M2033.43+755.34C2030.67+755.234+2028.74+757.11+2026.81+759.021C2016.65+760.772+2007.1+769.111+2006.65+779.196C2006.56+779.835+2006.81+780.456+2006.8+781.105C2005.5+785.182+2005.47+789.443+2007.83+793.237C2008.42+794.187+2009.29+794.576+2010.03+795.282C1906.65+920.268+1826.61+1049.59+1790.98+1206.69C1777.71+1265.18+1768.56+1323.7+1770.82+1383.5C1771.34+1397.13+1789.48+1487.26+1803.63+1444.84L1801.57+1442.94C1786.1+1457.8+1783.07+1392.52+1782.89+1382.41C1781.78+1323.52+1791.3+1266.37+1804.95+1208.88C1841.66+1054.26+1923.46+927.531+2016.8+798.553C2019.79+799.012+2023.04+798.041+2026.36+797.054C2033.93+796.164+2041.63+792.833+2047.11+788.057C2047.25+787.95+2047.26+787.756+2047.4+787.648C2048.65+786.518+2049.89+785.502+2050.79+784.24C2055.53+779.225+2057.99+773.512+2054.61+768.154C2051.92+763.888+2047.64+761.683+2042.84+760.929C2039.46+758.195+2036.08+755.443+2033.43+755.34Z" opacity="1" fill="#153e00"/>
</g>
<g id="Stem1" vectornator:layerName="Stem1">
<path d="M1590.16+785.467C1588.09+785.569+1585.45+788.313+1582.81+791.056C1579.08+791.82+1575.78+794.033+1573.68+798.281C1571.16+803.401+1572.98+808.685+1576.33+813.549C1579.8+820.566+1587.61+825.566+1595.16+826.908C1597.98+828.085+1600.73+829.189+1603.26+828.68C1676.07+957.65+1739.83+1084.39+1768.47+1239C1779.12+1296.5+1786.54+1353.65+1785.68+1412.54C1785.56+1420.74+1783.91+1464.63+1776.85+1473.2L1802.01+1473.47C1813.05+1515.88+1794.69+1427.26+1795.1+1413.63C1796.86+1353.82+1789.71+1295.31+1779.35+1236.82C1751.56+1079.77+1688.72+950.624+1608.11+825.681C1608.81+824.9+1609.63+824.344+1610.17+823.227C1612.03+819.394+1612.1+815.211+1611.05+811.095C1611.04+810.448+1611.13+809.823+1611.05+809.186C1610.7+799.069+1603.26+790.86+1595.31+789.147C1593.79+787.223+1592.32+785.36+1590.16+785.467ZM1776.85+1473.2L1771.12+1473.06C1773.39+1475.87+1775.21+1475.19+1776.85+1473.2Z" opacity="1" fill="#153e00"/>
</g>
<g id="Blossom1" vectornator:layerName="Blossom1">
<path d="M1436.13+669.045C1430.12+674.925+1428.36+684.147+1433.67+697.776C1442.54+720.529+1463.73+736.705+1487.24+750.589C1441.34+747.786+1393.94+764.722+1387.55+803.673C1386.32+811.168+1392.97+822.524+1396.63+828.419C1425.56+875.122+1508.4+826.206+1547.15+816.923C1554.76+815.1+1565.83+813.464+1575.94+814.069C1574.77+814.674+1573.52+815.277+1572.47+815.867C1573.79+815.276+1575.11+814.715+1576.39+814.078C1576.77+814.104+1577.14+814.138+1577.51+814.171L1559.28+825.088C1561.93+822.244+1566.67+819.127+1572.47+815.867C1532.53+833.696+1474.32+832.16+1454.55+877.094C1448.49+884.543+1442.52+893.965+1444.04+898.509C1443.84+899.153+1443.88+899.707+1444.01+900.243C1439.48+917.248+1432.86+941.49+1449.97+952.18C1504.55+986.272+1548.58+898.352+1559.63+864.838C1560.12+863.372+1560.93+861.969+1561.45+860.507L1561.87+859.753L1562.33+858.306C1566.16+848.127+1570.6+837.99+1575.06+828.129C1576.37+825.252+1581.17+819.296+1584.06+814.866C1585.21+815.148+1585.99+815.854+1587.06+816.247C1585.18+822.318+1584.57+824.552+1583.78+827.76C1562.12+852.717+1546.54+894.918+1546.53+931.696C1545.42+934.975+1544.02+938.193+1543.65+941.414C1543.48+941.856+1543.56+942.469+1543.56+943.077C1543.4+944.447+1543.2+946.144+1543.35+948.136C1543.35+948.33+1543.36+948.463+1543.39+948.622C1543.55+950+1544.06+950.919+1544.81+951.357C1546.87+967.105+1554.88+993.002+1574.11+994.844C1644.77+1001.62+1635.87+897.806+1621.14+863.79C1614.65+848.79+1603.37+836.234+1597.03+821.384C1596.32+819.709+1596.03+816.906+1595.64+814.28C1598.02+817.187+1601.21+820.088+1604.88+823.077C1609.08+830.461+1611.63+838.57+1616.18+845.651C1618.41+849.125+1621.16+852.084+1623.57+855.38C1625.45+860.521+1629.2+868.829+1633.34+869.391C1633.52+869.416+1633.17+868.948+1633.22+868.833C1634.09+870.013+1634.96+871.193+1635.86+872.357C1641.14+881.477+1646.85+890.256+1654.37+897.443C1655.8+898.814+1659.21+902.742+1662.63+906.289C1662.67+906.125+1662.29+905.956+1662.43+905.799C1662.84+905.358+1663.54+905.547+1664.1+905.418C1664.82+906.326+1665.7+907.279+1666.56+908.315C1666.75+908.567+1667.02+909.187+1667.18+909.368C1667.28+909.491+1668.23+910.599+1668.86+911.346C1667.74+910.788+1667.74+910.435+1666.04+909.552C1667.26+910.627+1668.25+911.191+1669.22+911.7C1670.37+913.046+1670.96+913.445+1672.07+914.258C1673.79+915.847+1675.52+917.08+1677.32+918.046C1681.71+921.949+1686.24+925.265+1690.93+927.838C1691.07+927.897+1691.14+927.999+1691.29+928.053C1691.41+928.097+1691.48+928.022+1691.59+928.06C1702.4+933.799+1713.69+935.237+1724.26+926.745C1725.31+925.9+1726.5+924.388+1727.6+923.348C1734.34+918.141+1740.06+910.517+1744.24+902.202C1750.76+891.126+1755.05+879.304+1752.53+871.237C1749.54+861.7+1728.46+847.336+1719.91+842.729C1696.04+829.882+1668.39+814.822+1641.44+807.35C1665.5+808.895+1689.82+813.346+1713.02+817.683C1729.32+826.796+1775.79+832.432+1794.39+824.342C1798.1+823.502+1801.57+822.325+1804.56+820.744C1820.72+812.217+1824.36+802.49+1821.88+792.954C1821.87+792.91+1821.9+792.858+1821.89+792.815C1821.89+792.788+1821.83+792.77+1821.82+792.744C1816.37+772.558+1780.98+753.549+1759.87+750.295C1758.53+750.089+1757.32+750.111+1756+749.935C1755.23+749.803+1754.64+749.846+1753.91+749.752C1693.9+742.529+1651.3+767.313+1601.1+793.381L1602.02+794.303C1646.46+774.847+1683.91+748.051+1734.98+750.597C1720.88+751.851+1695.08+753.729+1691.27+756.116C1688.38+757.932+1663.72+766.009+1660.51+767.39C1659.62+767.772+1591.37+799.341+1591.91+799.428C1601.28+790.508+1617.13+782.837+1624.67+778.278C1648.15+764.061+1689.87+744.848+1716.39+721.626L1721.13+718.744C1723.58+715.835+1726.32+712.231+1728.91+708.368C1739.75+694.733+1744.64+680.071+1736.38+664.138C1725.96+644.034+1685.13+652.216+1671.11+664.204C1639.5+691.225+1616.66+725.206+1600.91+761.265C1601.35+758.673+1602.1+756.122+1602.55+753.532C1612.62+728.915+1642.59+631.995+1614.76+618.128C1588.76+605.181+1571.15+641.764+1561.77+660.348C1556.13+671.526+1553.06+687.988+1552.3+705.506C1547.06+693.226+1539.96+682.359+1528.78+675.25C1510.51+663.641+1454.19+651.406+1436.13+669.045ZM1440.72+671.432C1441.17+671.022+1442+670.941+1442.49+670.568C1440.55+672.437+1439.06+674.6+1438.72+677.631C1436.57+696.488+1445.53+714.669+1458.99+726.891C1449.19+718.31+1441.35+708.606+1437.3+697.16C1432.95+684.848+1434.96+676.673+1440.72+671.432ZM1449.29+666.967C1450.95+666.352+1452.54+665.755+1454.4+665.342C1452.52+665.709+1450.97+666.357+1449.29+666.967ZM1460.75+664.506C1466.45+663.904+1472.39+663.861+1478.73+664.474C1473.89+664.139+1467.43+663.992+1460.75+664.506ZM1481.5+664.602C1487.82+665.358+1494.12+666.504+1500.04+668.049C1494.01+666.476+1487.95+665.071+1481.5+664.602ZM1513.06+672.28C1513.93+672.617+1514.73+672.957+1515.55+673.304C1519.35+674.911+1522.81+676.61+1525.23+678.296C1526.19+678.962+1526.83+679.794+1527.73+680.499C1526.99+680.058+1526.18+679.789+1525.47+679.272C1522.31+676.971+1519.02+675.025+1515.55+673.304C1514.75+672.907+1513.87+672.647+1513.06+672.28ZM1408.6+778.737C1426.5+760.155+1465.26+752.931+1500.9+758.093C1503.63+759.585+1506.3+761.11+1509.04+762.567C1492.68+759.197+1476.02+758.073+1458.42+760.586C1442.86+762.809+1426.74+764.467+1414.36+774.976C1404.49+783.352+1399.11+800.804+1401.17+815.685C1396.31+800.631+1399.5+788.185+1408.6+778.737ZM1466.09+732.521C1469.27+735.012+1472.72+737.267+1476.1+739.601C1472.59+737.329+1469.32+734.968+1466.09+732.521ZM1573.34+645.405C1569.59+651.911+1566.5+658.757+1564.72+665.196L1564.52+663.389C1566.27+658.003+1569.48+651.706+1573.34+645.405ZM1602.49+620.364C1606.06+619.846+1609.63+619.926+1613.21+621.702C1614.99+622.586+1616.32+624.109+1617.54+625.886C1613.06+622.092+1607.87+620.165+1602.49+620.364ZM1661.99+674.274C1663.58+672.959+1665.28+672.047+1666.91+670.842C1663.15+674.398+1659.66+678.255+1656.17+681.779C1633.85+704.311+1618.81+731.414+1606.04+759.224C1604.06+763.549+1601.4+768.289+1598.82+772.942C1611.46+739.653+1632.9+698.378+1661.99+674.274ZM1699.22+657.451C1703.56+657.042+1707.83+657.171+1711.94+657.722C1707.74+657.195+1703.47+657.131+1699.22+657.451ZM1500.09+828.89C1505.72+826.925+1511.44+825.357+1517.29+824.124C1511.72+825.88+1506.61+827.142+1500.09+828.89ZM1716.03+658.294C1716.56+658.413+1717.06+658.537+1717.58+658.674C1717.07+658.55+1716.55+658.403+1716.03+658.294ZM1575.1+784.088C1576.15+785.77+1577.34+787.335+1578.26+789.149C1577.39+788.136+1575.91+786.963+1575.29+786.034L1575.1+784.088ZM1452.29+891.819L1443.45+935.118C1441.41+924.156+1445.11+910.965+1447.74+900.6C1448.8+899.525+1450.1+896.277+1451.4+892.84C1451.77+892.317+1451.91+892.376+1452.29+891.819ZM1539.67+816.763C1544.95+814.159+1550.31+811.597+1555.65+811.07C1558.12+810.827+1560.66+811.359+1563.19+811.716C1554.3+812.518+1545.56+814.492+1539.67+816.763ZM1575.69+789.511C1577.44+791.217+1579.16+793.028+1581.11+794.342C1581.83+795.787+1581.74+797.348+1581.83+798.866C1579.96+796.185+1578.18+793.383+1575.97+791.25L1575.69+789.511ZM1591.21+785.541C1591.06+785.96+1590.83+786.359+1590.69+786.778L1591.72+787.078C1590.08+790.919+1588.8+794.77+1588.22+798.517L1594.43+794.765C1591.09+797.832+1587.96+800.981+1586.29+804.648C1585.5+804.714+1584.73+804.81+1583.95+804.945C1583.51+804.477+1583.16+803.991+1582.69+803.531L1584.55+802.461C1584.07+801.622+1583.45+801.064+1582.95+800.277L1591.21+785.541ZM1568.83+811.351L1577.34+806.538C1577.41+806.545+1577.43+806.536+1577.49+806.542C1577.22+806.702+1577.7+807.145+1577.6+807.376C1577.84+807.146+1577.93+806.857+1578.31+806.628C1578.72+806.66+1579.12+806.695+1579.58+806.725C1580.66+807.08+1581.87+807.374+1583.05+807.7C1583.24+807.885+1583.43+808.08+1583.62+808.267C1582.65+808.202+1581.65+808.058+1580.99+808.281C1580.87+808.329+1579.47+808.071+1579.57+808.181C1579.65+808.266+1579.85+808.317+1579.94+808.397C1579.85+808.456+1579.56+808.32+1579.49+808.387C1578.06+809.705+1580.4+810.044+1583.28+810.271C1583.18+810.314+1583.15+810.288+1583.05+810.336C1581.45+811.046+1580.62+811.645+1579.19+812.334C1575.88+811.709+1572.43+811.305+1568.83+811.351ZM1577.6+807.376C1576.97+807.971+1576.68+808.504+1577.65+809.042C1576.9+808.196+1577.39+807.834+1577.6+807.376ZM1579.75+805.133L1580.05+805.001C1580.11+805.044+1580.14+805.1+1580.2+805.143C1580.03+805.129+1579.91+805.143+1579.75+805.133ZM1556.4+826.899L1559.12+825.223C1558.71+825.663+1558.64+826.024+1558.3+826.454L1556.4+826.899ZM1589.64+801.252C1590.19+800.648+1591.14+800.156+1591.76+799.563C1593.06+799.55+1592.51+803.076+1592.1+805.327C1591.83+805.223+1591.52+805.109+1591.22+805.031C1591.4+804.055+1591.08+803.102+1591.38+802.121C1591.38+802.121+1590.67+804.556+1590.55+804.947C1589.45+804.738+1588.45+804.476+1587.2+804.529C1587.93+803.424+1588.66+802.325+1589.64+801.252ZM1579.93+812.489C1580.72+812.055+1581.63+811.75+1582.39+811.293L1580.38+812.498C1580.24+812.468+1580.07+812.518+1579.93+812.489ZM1586.95+807.645C1588.13+807.879+1588.68+808.419+1589.35+808.875C1589.34+808.913+1589.36+808.975+1589.34+809.014C1588.66+808.487+1588+807.899+1586.95+807.645ZM1585.99+811.231C1586.19+811.179+1586.4+811.156+1586.6+811.105C1586.67+811.128+1586.75+811.157+1586.82+811.179C1587.29+811.778+1587.58+812.45+1587.99+813.077C1587.78+813.753+1587.74+814.08+1587.51+814.801C1586.63+814.347+1585.7+813.989+1584.73+813.632C1585.25+812.741+1585.82+811.834+1585.99+811.231ZM1590.97+809.464C1591.14+809.502+1591.32+809.504+1591.49+809.545C1591.31+809.586+1591.13+809.561+1590.96+809.603C1590.96+809.557+1590.97+809.51+1590.97+809.464ZM1443.76+937.621L1459.77+952.458C1457.54+951.584+1455.33+950.818+1453.04+949.54C1447.98+946.713+1445.15+942.51+1443.76+937.621ZM1594.24+808.494C1594.54+808.552+1594.77+808.593+1594.98+808.648C1594.78+808.692+1594.58+808.73+1594.38+808.774C1594.34+808.64+1594.28+808.617+1594.24+808.494ZM1590.36+812.226C1590.48+812.258+1590.6+812.271+1590.73+812.303C1590.77+812.715+1590.6+813.139+1590.66+813.55C1590.51+813.232+1590.43+812.886+1590.26+812.57C1590.33+812.388+1590.29+812.411+1590.36+812.226ZM1595.7+809.218C1595.83+809.195+1595.95+809.18+1596.08+809.157C1596.2+809.272+1596.29+809.418+1596.43+809.511C1596.2+809.42+1595.94+809.307+1595.7+809.218ZM1589.29+815.255C1589.43+815.533+1589.56+815.811+1589.69+816.095C1589.46+815.942+1589.28+815.742+1589.04+815.596C1589.11+815.427+1589.22+815.428+1589.29+815.255ZM1588.51+816.972C1588.99+817.183+1589.45+817.388+1589.9+817.626L1587.62+823.542C1586.71+824.463+1585.79+825.415+1584.91+826.397C1585.62+824.69+1587.05+820.897+1588.51+816.972ZM1597.25+810.916C1597.71+811.022+1598.14+811.109+1598.58+811.222C1598.77+811.368+1598.97+811.501+1599.16+811.65C1598.74+811.543+1598.15+811.459+1597.68+811.341C1597.53+811.225+1597.39+811.026+1597.25+810.916ZM1592.39+819.968C1592.62+820.661+1592.76+821.373+1593.02+822.062L1592.48+821.079C1592.47+820.704+1592.42+820.34+1592.39+819.968ZM1687.38+739.04L1692.73+735.756C1690.94+736.872+1689.21+737.953+1687.38+739.04ZM1620.91+803.375C1627.74+802.697+1634.99+802.388+1642.27+803.344C1676.38+807.826+1705.49+809.469+1707.72+813.409C1707.94+813.814+1708.79+814.151+1709.15+814.549C1684.87+810.125+1659.42+806.071+1634.42+805.605C1629.88+804.58+1625.37+803.852+1620.91+803.375ZM1602.99+819.292C1603.11+819.246+1603.18+819.337+1603.29+819.298C1603.39+819.543+1603.39+819.951+1603.47+820.204C1603.07+819.88+1602.36+819.552+1602.99+819.292ZM1470.55+955.323L1485.52+954.325C1480.73+955.561+1475.72+955.968+1470.55+955.323ZM1612.58+833.853C1613.47+835.339+1614.03+835.636+1614.76+836.466C1615.86+838.166+1616.68+840.03+1618.06+841.53C1618.12+841.59+1618.83+842.27+1619.06+842.522C1620.03+844.155+1620.89+845.965+1621.84+847.645C1621.88+848.714+1622.02+849.659+1622.12+850.564C1620.9+848.747+1618.91+845.931+1617.97+844.51C1615.77+841.212+1614.16+837.543+1612.58+833.853ZM1623.72+852.748C1624.37+851.163+1624.98+853.19+1625.65+855.702C1625.04+854.818+1624.41+853.997+1623.84+853.167C1623.86+853.083+1623.69+852.821+1623.72+852.748ZM1629.02+854.387C1629.37+854.809+1629.66+855.255+1630.14+855.798C1630.95+856.844+1631.47+857.76+1632.45+858.69C1632.95+859.363+1633.22+860.054+1633.75+860.73C1633.97+860.999+1634.25+861.181+1634.46+861.438C1634.64+861.633+1634.77+861.952+1634.95+862.073C1642.29+872.979+1649.96+883.83+1658.25+893.711C1658.13+893.698+1658+893.758+1657.87+893.772C1657.67+893.572+1657.25+893.2+1657.24+893.135C1652.71+887.304+1648.58+881.594+1645.96+878.052C1641.02+871.393+1635.53+865.061+1630.98+858.104C1630.2+856.911+1629.74+855.6+1629.02+854.387ZM1627.34+857.541C1627.99+858.754+1628.66+859.906+1629.31+861.121C1628.73+860.296+1628.42+859.736+1627.86+858.94C1627.7+858.459+1627.5+858.032+1627.34+857.541ZM1649.41+885.755C1651.08+888.037+1652.74+890.202+1654.78+892.874C1654.35+892.494+1653.89+892.106+1653.49+891.737C1652.96+891.159+1652.55+890.557+1652.02+889.972C1651.14+888.599+1650.3+887.189+1649.41+885.755ZM1716.02+845.143C1716.39+845.341+1716.82+845.527+1717.19+845.723C1719.59+847.008+1724.53+850.32+1728.83+853.115C1728.74+853.191+1728.52+853.235+1728.45+853.315C1724.45+850.519+1720.42+847.761+1716.02+845.143ZM1562.9+983.647L1579.52+990.59C1573.87+991.124+1568.24+989.031+1562.9+983.647ZM1663.4+904.71C1663.43+904.67+1663.51+904.746+1663.55+904.713C1663.58+904.76+1663.57+904.875+1663.61+904.922C1663.6+904.91+1663.39+904.717+1663.4+904.71ZM1664.18+905.351C1664.31+905.326+1664.43+905.3+1664.56+905.289C1664.72+905.552+1664.9+905.678+1665.05+905.924C1664.85+905.773+1664.28+905.441+1664.18+905.351ZM1673.16+913.449C1673.5+913.783+1673.74+914.18+1674.08+914.509C1673.96+914.828+1673.71+914.64+1673.54+914.705C1673.53+914.334+1673.41+913.887+1673.16+913.449ZM1742.35+863.113C1746.28+866.519+1749.61+869.808+1750.36+872.439C1750.65+873.441+1750.55+874.65+1750.62+875.774C1749.5+876.042+1748.35+876.128+1747.22+876.326C1747.32+876.213+1747.44+876.265+1747.53+876.055C1747.55+876.01+1747.25+875.689+1747.26+875.633C1747.24+875.513+1747.37+875.408+1747.35+875.288C1748.13+875.337+1748.89+875.37+1749.2+874.495C1750.07+872.019+1747.35+870.186+1744.82+868.506C1744.49+867.921+1744.22+867.354+1743.79+866.751C1743.17+865.535+1743.18+864.345+1742.35+863.113ZM1813.11+808.927C1814.47+807.923+1815.59+806.995+1816.71+806.091C1814.56+809.344+1810.93+812.622+1805.68+815.704C1808.22+813.371+1810.9+810.549+1813.11+808.927ZM1750.83+877.443C1750.8+878.34+1750.65+879.261+1750.52+880.211C1750.59+879.285+1750.82+878.355+1750.83+877.443ZM1710.94+930.414C1711.37+930.37+1711.8+930.162+1712.23+930.095C1711.8+930.185+1711.37+930.351+1710.94+930.414Z" stroke="#000000" stroke-width="1" fill="#ff9bfb" opacity="1" stroke-linejoin="round"/>
</g>
<g id="Grass" vectornator:layerName="Grass">
<path d="M1532.79+1126.27L1528.81+1126.54C1535.75+1210.62+1536.14+1294.48+1531.61+1378.73C1531+1390.01+1529.27+1401.78+1527.78+1413.49C1527.21+1380.38+1524.55+1347.57+1516.46+1314.52L1514.54+1314.93C1522.89+1355.69+1523.7+1395.27+1525.58+1435.98C1524.33+1449.01+1523.93+1461.9+1525.28+1474.43C1529.9+1461.35+1533.44+1447.13+1536.32+1432.17L1536.61+1432.17C1547.61+1384.76+1559.47+1338.38+1575.89+1292.3L1572.65+1291.35C1558.69+1329.8+1548.57+1367.58+1540.14+1406.67C1552.04+1314.96+1540.18+1202.19+1532.79+1126.27ZM1525.28+1474.43C1524.95+1475.37+1524.74+1476.49+1524.4+1477.42L1525.43+1478.38C1525.25+1477.08+1525.42+1475.73+1525.28+1474.43ZM2358.36+1158.36C2322.81+1204.95+2277.54+1266.29+2248.31+1329.58C2254.02+1300.66+2257.17+1271.42+2255.67+1240.29L2253.02+1240.15C2250.78+1285.96+2242.19+1328.63+2231.54+1371.7C2227.19+1385.01+2223.72+1398.26+2221.54+1411.37C2220.38+1415.53+2219.64+1419.44+2218.45+1423.64L2220.66+1424.19C2219.78+1432.56+2218.63+1440.95+2218.89+1449.13L2221.69+1449.13C2222.11+1435.91+2224.08+1422.46+2226.98+1408.78C2231.66+1394.07+2235.93+1379.47+2239.78+1365.02C2266.66+1290.57+2318.48+1215.28+2359.39+1158.91L2358.36+1158.36ZM2164.65+1166.75C2161.24+1251.46+2189.05+1334.85+2202.76+1418.13L2204.23+1418.13C2204.45+1423.51+2201.93+1431.86+2205.55+1433.67L2205.41+1434.35C2205.77+1434.35+2205.85+1434.02+2206.14+1433.94C2206.41+1434+2206.4+1434.35+2206.73+1434.35C2212.73+1434.35+2208.07+1424.42+2207.91+1418.13L2209.38+1418.13C2195.33+1334.22+2168.67+1251.8+2165.24+1166.75L2164.65+1166.75ZM2205.55+1418.13L2207.47+1418.13L2206.88+1422.9C2206.4+1421.25+2206.15+1419.82+2205.55+1418.13Z" fill-opacity="0.996086" fill="#267300" opacity="1"/>
</g>
</svg>
