<?xml version="1.0" encoding="UTF-8" standalone="no"?> <!-- Created with Vectornator Pro for iOS (http://vectornator.io/) --><!DOCTYPE svg PUBLIC "-//W3C//DTD SVG 1.1//EN" "http://www.w3.org/Graphics/SVG/1.1/DTD/svg11.dtd">
<svg height="100%" style="fill-rule:evenodd;clip-rule:evenodd;stroke-linecap:round;stroke-linejoin:round;" xmlns:xlink="http://www.w3.org/1999/xlink" xmlns="http://www.w3.org/2000/svg" xml:space="preserve" width="100%" xmlns:vectornator="http://vectornator.io" version="1.1" viewBox="0 0 3840 2160">
<metadata>
<vectornator:setting key="RulersVisible" value="1"/>
<vectornator:setting key="OutlineMode" value="0"/>
<vectornator:setting key="SnapToEdges" value="0"/>
<vectornator:setting key="Units" value="Pixels"/>
<vectornator:setting key="DynamicGuides" value="0"/>
<vectornator:setting key="SnapToPoints" value="0"/>
<vectornator:setting key="CMYKEnabledKey" value="0"/>
<vectornator:setting key="SnapToGrid" value="0"/>
<vectornator:setting key="ShowGrid" value="1"/>
<vectornator:setting key="GridSpacing" value="36"/>
</metadata>
<defs/>
<g id="Blossom2" vectornator:layerName="Blossom2">
<path stroke="#000000" stroke-width="1" d="M1783.34+1420.67C1783.34+1420.67+1783.34+1420.67+1783.34+1420.67C1783.34+1420.67+1783.34+1420.68+1783.34+1420.68C1783.34+1420.68+1783.34+1420.67+1783.34+1420.68C1783.34+1420.68+1783.34+1420.68+1783.34+1420.68C1783.34+1420.69+1783.34+1420.69+1783.34+1420.69C1783.34+1420.69+1783.34+1420.69+1783.34+1420.69C1783.34+1420.69+1783.34+1420.69+1783.34+1420.69C1783.34+1420.69+1783.34+1420.69+1783.34+1420.69C1783.34+1420.69+1783.34+1420.69+1783.34+1420.69L1783.34+1420.69C1783.34+1420.69+1783.34+1420.69+1783.34+1420.69C1783.34+1420.69+1783.34+1420.69+1783.34+1420.69C1783.34+1420.69+1783.34+1420.69+1783.34+1420.69C1783.34+1420.69+1783.34+1420.69+1783.34+1420.69C1783.34+1420.69+1783.33+1420.7+1783.33+1420.7C1783.34+1420.71+1783.34+1420.7+1783.34+1420.7C1783.34+1420.7+1783.34+1420.7+1783.34+1420.7L1783.34+1420.7L1783.34+1420.7C1783.34+1420.7+1783.34+1420.7+1783.34+1420.7C1783.34+1420.7+1783.34+1420.7+1783.34+1420.7C1783.34+1420.7+1783.34+1420.7+1783.34+1420.7C1783.34+1420.7+1783.34+1420.7+1783.34+1420.7C1783.34+1420.7+1783.34+1420.7+1783.34+1420.7C1783.34+1420.7+1783.34+1420.7+1783.34+1420.71C1783.34+1420.71+1783.34+1420.71+1783.34+1420.71C1783.34+1420.71+1783.34+1420.71+1783.34+1420.71C1783.34+1420.71+1783.34+1420.71+1783.34+1420.71C1783.34+1420.71+1783.34+1420.71+1783.34+1420.71C1783.34+1420.71+1783.34+1420.71+1783.34+1420.71C1783.34+1420.72+1783.34+1420.71+1783.34+1420.7C1783.34+1420.7+1783.34+1420.7+1783.34+1420.7C1783.34+1420.7+1783.34+1420.7+1783.34+1420.7C1783.34+1420.7+1783.34+1420.7+1783.34+1420.7C1783.34+1420.7+1783.34+1420.7+1783.34+1420.7C1783.34+1420.7+1783.34+1420.7+1783.34+1420.7C1783.34+1420.7+1783.34+1420.71+1783.34+1420.71C1783.34+1420.71+1783.34+1420.71+1783.34+1420.71C1783.34+1420.71+1783.34+1420.71+1783.34+1420.71C1783.34+1420.71+1783.34+1420.71+1783.34+1420.71C1783.34+1420.71+1783.34+1420.71+1783.34+1420.71C1783.34+1420.71+1783.34+1420.71+1783.34+1420.71C1783.34+1420.71+1783.34+1420.71+1783.34+1420.71C1783.34+1420.71+1783.34+1420.71+1783.34+1420.71C1783.34+1420.71+1783.34+1420.71+1783.34+1420.71C1783.34+1420.71+1783.34+1420.71+1783.34+1420.71C1783.34+1420.71+1783.34+1420.71+1783.34+1420.71C1783.34+1420.71+1783.34+1420.71+1783.34+1420.71C1783.34+1420.71+1783.34+1420.71+1783.34+1420.71C1783.34+1420.71+1783.34+1420.71+1783.34+1420.71C1783.34+1420.72+1783.34+1420.72+1783.34+1420.72C1783.34+1420.72+1783.34+1420.72+1783.34+1420.72C1783.34+1420.72+1783.34+1420.72+1783.34+1420.72C1783.34+1420.72+1783.34+1420.72+1783.34+1420.72C1783.34+1420.72+1783.34+1420.72+1783.34+1420.72C1783.34+1420.72+1783.34+1420.72+1783.34+1420.72C1783.34+1420.72+1783.34+1420.72+1783.34+1420.72C1783.34+1420.72+1783.34+1420.71+1783.34+1420.71C1783.34+1420.71+1783.34+1420.7+1783.34+1420.7C1783.34+1420.7+1783.34+1420.7+1783.34+1420.71C1783.34+1420.71+1783.34+1420.71+1783.34+1420.72C1783.34+1420.72+1783.34+1420.72+1783.34+1420.72C1783.34+1420.72+1783.34+1420.72+1783.34+1420.71C1783.34+1420.71+1783.34+1420.71+1783.34+1420.71C1783.34+1420.71+1783.34+1420.71+1783.34+1420.71C1783.34+1420.71+1783.34+1420.71+1783.34+1420.7C1783.34+1420.7+1783.34+1420.7+1783.34+1420.7C1783.34+1420.7+1783.34+1420.7+1783.34+1420.7C1783.34+1420.7+1783.34+1420.7+1783.34+1420.69L1783.34+1420.7C1783.34+1420.7+1783.34+1420.7+1783.34+1420.7C1783.34+1420.7+1783.34+1420.7+1783.34+1420.7C1783.34+1420.7+1783.34+1420.7+1783.34+1420.7C1783.34+1420.7+1783.34+1420.69+1783.34+1420.69C1783.34+1420.69+1783.34+1420.7+1783.34+1420.7C1783.34+1420.7+1783.34+1420.7+1783.34+1420.7L1783.34+1420.7C1783.34+1420.7+1783.34+1420.7+1783.34+1420.7C1783.34+1420.7+1783.34+1420.7+1783.34+1420.69C1783.35+1420.69+1783.34+1420.69+1783.34+1420.69C1783.34+1420.69+1783.34+1420.69+1783.34+1420.69C1783.34+1420.69+1783.34+1420.69+1783.34+1420.69C1783.34+1420.69+1783.34+1420.68+1783.34+1420.68C1783.34+1420.67+1783.34+1420.68+1783.34+1420.68C1783.34+1420.68+1783.34+1420.68+1783.34+1420.68C1783.34+1420.68+1783.34+1420.68+1783.34+1420.68C1783.34+1420.67+1783.34+1420.67+1783.34+1420.67ZM1783.34+1420.67C1783.34+1420.67+1783.34+1420.67+1783.34+1420.67C1783.34+1420.67+1783.34+1420.67+1783.34+1420.67C1783.34+1420.67+1783.34+1420.67+1783.34+1420.68C1783.34+1420.67+1783.34+1420.67+1783.34+1420.67C1783.34+1420.67+1783.34+1420.67+1783.34+1420.67ZM1783.34+1420.67C1783.34+1420.67+1783.34+1420.67+1783.34+1420.67C1783.34+1420.67+1783.34+1420.67+1783.34+1420.67ZM1783.34+1420.67C1783.34+1420.67+1783.34+1420.67+1783.34+1420.67C1783.34+1420.67+1783.34+1420.67+1783.34+1420.67ZM1783.34+1420.67C1783.34+1420.67+1783.34+1420.67+1783.34+1420.67C1783.34+1420.67+1783.34+1420.67+1783.34+1420.67ZM1783.34+1420.67C1783.34+1420.67+1783.34+1420.67+1783.34+1420.67C1783.34+1420.68+1783.34+1420.68+1783.34+1420.68C1783.34+1420.68+1783.34+1420.68+1783.34+1420.68C1783.34+1420.68+1783.34+1420.68+1783.34+1420.68C1783.34+1420.68+1783.34+1420.67+1783.34+1420.67C1783.34+1420.67+1783.34+1420.67+1783.34+1420.67ZM1783.34+1420.68C1783.34+1420.68+1783.34+1420.68+1783.34+1420.68C1783.34+1420.68+1783.34+1420.68+1783.34+1420.68C1783.34+1420.68+1783.34+1420.68+1783.34+1420.68C1783.34+1420.68+1783.34+1420.68+1783.34+1420.68C1783.34+1420.68+1783.34+1420.68+1783.34+1420.68C1783.34+1420.68+1783.34+1420.68+1783.34+1420.68ZM1783.34+1420.68C1783.34+1420.68+1783.34+1420.68+1783.34+1420.68C1783.34+1420.68+1783.34+1420.68+1783.34+1420.68ZM1783.34+1420.68C1783.34+1420.68+1783.34+1420.68+1783.34+1420.68L1783.34+1420.68C1783.34+1420.68+1783.34+1420.68+1783.34+1420.68ZM1783.34+1420.68C1783.34+1420.68+1783.34+1420.68+1783.34+1420.68C1783.34+1420.68+1783.34+1420.68+1783.34+1420.68C1783.34+1420.68+1783.34+1420.68+1783.34+1420.68ZM1783.34+1420.69C1783.34+1420.69+1783.34+1420.69+1783.34+1420.69C1783.34+1420.69+1783.34+1420.69+1783.34+1420.69C1783.34+1420.69+1783.34+1420.69+1783.34+1420.69C1783.34+1420.69+1783.34+1420.69+1783.34+1420.69C1783.34+1420.69+1783.34+1420.69+1783.34+1420.69ZM1783.34+1420.69C1783.34+1420.69+1783.34+1420.69+1783.34+1420.69C1783.34+1420.69+1783.34+1420.69+1783.34+1420.69ZM1783.34+1420.69C1783.34+1420.69+1783.34+1420.69+1783.34+1420.69C1783.34+1420.69+1783.34+1420.69+1783.34+1420.69ZM1783.34+1420.69C1783.34+1420.69+1783.34+1420.69+1783.34+1420.69C1783.34+1420.69+1783.34+1420.69+1783.34+1420.69ZM1783.34+1420.69C1783.34+1420.69+1783.34+1420.69+1783.34+1420.69C1783.34+1420.69+1783.34+1420.69+1783.34+1420.69L1783.34+1420.69ZM1783.34+1420.69L1783.33+1420.7C1783.34+1420.69+1783.34+1420.69+1783.34+1420.69C1783.34+1420.69+1783.34+1420.69+1783.34+1420.69C1783.34+1420.69+1783.34+1420.69+1783.34+1420.69ZM1783.34+1420.69C1783.34+1420.69+1783.34+1420.69+1783.34+1420.69C1783.34+1420.69+1783.34+1420.69+1783.34+1420.69C1783.34+1420.69+1783.34+1420.69+1783.34+1420.69ZM1783.34+1420.69C1783.34+1420.69+1783.34+1420.69+1783.34+1420.69C1783.34+1420.69+1783.34+1420.69+1783.34+1420.69C1783.34+1420.69+1783.34+1420.69+1783.34+1420.69L1783.34+1420.69ZM1783.34+1420.69C1783.34+1420.69+1783.34+1420.69+1783.34+1420.69L1783.34+1420.69C1783.34+1420.69+1783.34+1420.69+1783.34+1420.69L1783.34+1420.69C1783.34+1420.69+1783.34+1420.69+1783.34+1420.69C1783.34+1420.69+1783.34+1420.69+1783.34+1420.69C1783.34+1420.69+1783.34+1420.69+1783.34+1420.69L1783.34+1420.69C1783.34+1420.69+1783.34+1420.69+1783.34+1420.69L1783.34+1420.69ZM1783.34+1420.69L1783.34+1420.69C1783.34+1420.69+1783.34+1420.69+1783.34+1420.69C1783.34+1420.69+1783.34+1420.69+1783.34+1420.69C1783.34+1420.69+1783.34+1420.69+1783.34+1420.69C1783.34+1420.69+1783.34+1420.69+1783.34+1420.69C1783.34+1420.69+1783.34+1420.69+1783.34+1420.69C1783.34+1420.69+1783.34+1420.69+1783.34+1420.69C1783.34+1420.69+1783.34+1420.69+1783.34+1420.69C1783.34+1420.69+1783.34+1420.69+1783.34+1420.69C1783.34+1420.69+1783.34+1420.69+1783.34+1420.69C1783.34+1420.69+1783.34+1420.69+1783.34+1420.69C1783.34+1420.69+1783.34+1420.69+1783.34+1420.7C1783.34+1420.7+1783.34+1420.7+1783.34+1420.7C1783.34+1420.69+1783.34+1420.69+1783.34+1420.69C1783.34+1420.69+1783.34+1420.69+1783.34+1420.69ZM1783.34+1420.69C1783.34+1420.69+1783.34+1420.69+1783.34+1420.69C1783.34+1420.69+1783.34+1420.69+1783.34+1420.69ZM1783.34+1420.69L1783.34+1420.69C1783.34+1420.69+1783.34+1420.69+1783.34+1420.69C1783.34+1420.69+1783.34+1420.69+1783.34+1420.69ZM1783.34+1420.69L1783.34+1420.69C1783.34+1420.69+1783.34+1420.69+1783.34+1420.69L1783.34+1420.69ZM1783.34+1420.69C1783.34+1420.69+1783.34+1420.69+1783.34+1420.69C1783.34+1420.69+1783.34+1420.7+1783.34+1420.7C1783.34+1420.7+1783.34+1420.7+1783.34+1420.7C1783.34+1420.7+1783.34+1420.69+1783.34+1420.69C1783.34+1420.69+1783.34+1420.7+1783.34+1420.7C1783.34+1420.69+1783.34+1420.69+1783.34+1420.69C1783.34+1420.69+1783.34+1420.69+1783.34+1420.69ZM1783.34+1420.69C1783.34+1420.69+1783.34+1420.7+1783.34+1420.7L1783.34+1420.69C1783.34+1420.69+1783.34+1420.69+1783.34+1420.69ZM1783.34+1420.7C1783.34+1420.7+1783.34+1420.7+1783.34+1420.7C1783.34+1420.7+1783.34+1420.7+1783.34+1420.7C1783.34+1420.7+1783.34+1420.7+1783.34+1420.7ZM1783.34+1420.7C1783.34+1420.7+1783.34+1420.7+1783.34+1420.7C1783.34+1420.7+1783.34+1420.7+1783.34+1420.7C1783.34+1420.7+1783.34+1420.7+1783.34+1420.7C1783.34+1420.7+1783.34+1420.7+1783.34+1420.7C1783.34+1420.7+1783.34+1420.7+1783.34+1420.7C1783.34+1420.7+1783.34+1420.7+1783.34+1420.7ZM1783.34+1420.7C1783.34+1420.7+1783.34+1420.7+1783.34+1420.7C1783.34+1420.7+1783.34+1420.7+1783.34+1420.7C1783.34+1420.7+1783.34+1420.7+1783.34+1420.7ZM1783.33+1420.7L1783.33+1420.7C1783.33+1420.7+1783.33+1420.7+1783.33+1420.7C1783.33+1420.7+1783.33+1420.7+1783.33+1420.7ZM1783.34+1420.7C1783.34+1420.7+1783.34+1420.7+1783.34+1420.7C1783.34+1420.7+1783.34+1420.7+1783.34+1420.7C1783.34+1420.7+1783.34+1420.7+1783.34+1420.7ZM1783.34+1420.7C1783.34+1420.7+1783.34+1420.7+1783.34+1420.7C1783.34+1420.7+1783.34+1420.7+1783.34+1420.7C1783.34+1420.7+1783.34+1420.7+1783.34+1420.7C1783.34+1420.7+1783.34+1420.7+1783.34+1420.7ZM1783.34+1420.7C1783.34+1420.7+1783.34+1420.7+1783.34+1420.7C1783.34+1420.7+1783.34+1420.7+1783.34+1420.7C1783.34+1420.7+1783.34+1420.7+1783.34+1420.7ZM1783.34+1420.7C1783.34+1420.7+1783.34+1420.7+1783.34+1420.7C1783.34+1420.7+1783.34+1420.7+1783.34+1420.7C1783.34+1420.7+1783.34+1420.7+1783.34+1420.7ZM1783.34+1420.7C1783.34+1420.7+1783.34+1420.7+1783.34+1420.7L1783.34+1420.7C1783.34+1420.7+1783.34+1420.7+1783.34+1420.7C1783.34+1420.7+1783.34+1420.7+1783.34+1420.7ZM1783.34+1420.7C1783.34+1420.7+1783.34+1420.7+1783.34+1420.7C1783.34+1420.7+1783.34+1420.7+1783.34+1420.7C1783.34+1420.7+1783.34+1420.7+1783.34+1420.7C1783.34+1420.7+1783.34+1420.7+1783.34+1420.7ZM1783.34+1420.7C1783.34+1420.7+1783.34+1420.7+1783.34+1420.7L1783.34+1420.7C1783.34+1420.7+1783.34+1420.7+1783.34+1420.7ZM1783.34+1420.7L1783.34+1420.7C1783.34+1420.7+1783.34+1420.7+1783.34+1420.7ZM1783.34+1420.7C1783.34+1420.7+1783.34+1420.7+1783.34+1420.7C1783.34+1420.7+1783.34+1420.71+1783.34+1420.71C1783.34+1420.71+1783.34+1420.71+1783.34+1420.71C1783.34+1420.7+1783.34+1420.7+1783.34+1420.7C1783.34+1420.7+1783.34+1420.7+1783.34+1420.7ZM1783.34+1420.7C1783.34+1420.7+1783.34+1420.7+1783.34+1420.7C1783.34+1420.7+1783.34+1420.7+1783.34+1420.7C1783.34+1420.7+1783.34+1420.7+1783.34+1420.7ZM1783.33+1420.7L1783.34+1420.7C1783.34+1420.7+1783.34+1420.7+1783.33+1420.7ZM1783.34+1420.7C1783.34+1420.7+1783.34+1420.7+1783.34+1420.7C1783.34+1420.7+1783.34+1420.7+1783.34+1420.7C1783.34+1420.7+1783.34+1420.7+1783.34+1420.7C1783.34+1420.7+1783.34+1420.7+1783.34+1420.7C1783.34+1420.7+1783.34+1420.7+1783.34+1420.7C1783.34+1420.7+1783.34+1420.7+1783.34+1420.7C1783.34+1420.7+1783.34+1420.7+1783.34+1420.7ZM1783.34+1420.7C1783.34+1420.7+1783.34+1420.7+1783.34+1420.7C1783.34+1420.7+1783.34+1420.7+1783.34+1420.7C1783.34+1420.7+1783.34+1420.7+1783.34+1420.7ZM1783.34+1420.7C1783.34+1420.7+1783.34+1420.7+1783.34+1420.7C1783.34+1420.7+1783.34+1420.7+1783.34+1420.7C1783.34+1420.7+1783.34+1420.7+1783.34+1420.7C1783.34+1420.7+1783.34+1420.7+1783.34+1420.71C1783.34+1420.71+1783.34+1420.71+1783.34+1420.71C1783.34+1420.71+1783.34+1420.71+1783.34+1420.71C1783.34+1420.71+1783.34+1420.71+1783.34+1420.71C1783.34+1420.71+1783.34+1420.71+1783.34+1420.71C1783.34+1420.71+1783.34+1420.71+1783.34+1420.71C1783.34+1420.71+1783.34+1420.71+1783.34+1420.7C1783.34+1420.7+1783.34+1420.7+1783.34+1420.7ZM1783.34+1420.7C1783.34+1420.7+1783.34+1420.7+1783.34+1420.7C1783.34+1420.7+1783.34+1420.7+1783.34+1420.7C1783.34+1420.7+1783.34+1420.7+1783.34+1420.7ZM1783.34+1420.71C1783.34+1420.71+1783.34+1420.71+1783.34+1420.71C1783.34+1420.71+1783.34+1420.71+1783.34+1420.71C1783.34+1420.71+1783.34+1420.71+1783.34+1420.71C1783.34+1420.71+1783.34+1420.71+1783.34+1420.71ZM1783.34+1420.71C1783.34+1420.71+1783.34+1420.71+1783.34+1420.71C1783.34+1420.71+1783.34+1420.71+1783.34+1420.71C1783.34+1420.71+1783.34+1420.71+1783.34+1420.71C1783.34+1420.71+1783.34+1420.71+1783.34+1420.71ZM1783.34+1420.71L1783.34+1420.71C1783.34+1420.71+1783.34+1420.71+1783.34+1420.71ZM1783.34+1420.71C1783.34+1420.71+1783.34+1420.71+1783.34+1420.71C1783.34+1420.71+1783.34+1420.71+1783.34+1420.71C1783.34+1420.71+1783.34+1420.71+1783.34+1420.71ZM1783.34+1420.71C1783.34+1420.71+1783.34+1420.71+1783.34+1420.71C1783.34+1420.71+1783.34+1420.71+1783.34+1420.71C1783.34+1420.71+1783.34+1420.71+1783.34+1420.71ZM1783.34+1420.71C1783.34+1420.71+1783.34+1420.71+1783.34+1420.71C1783.34+1420.71+1783.34+1420.71+1783.34+1420.71C1783.34+1420.71+1783.34+1420.71+1783.34+1420.71ZM1783.34+1420.71C1783.34+1420.72+1783.34+1420.72+1783.34+1420.72C1783.34+1420.72+1783.34+1420.72+1783.34+1420.72C1783.34+1420.72+1783.34+1420.72+1783.34+1420.72C1783.34+1420.72+1783.34+1420.72+1783.34+1420.72C1783.34+1420.72+1783.34+1420.72+1783.34+1420.72C1783.34+1420.72+1783.34+1420.72+1783.34+1420.72C1783.34+1420.72+1783.34+1420.72+1783.34+1420.72C1783.34+1420.72+1783.34+1420.72+1783.34+1420.72C1783.34+1420.72+1783.34+1420.72+1783.34+1420.72C1783.34+1420.72+1783.34+1420.72+1783.34+1420.71ZM1783.34+1420.72C1783.34+1420.72+1783.34+1420.72+1783.34+1420.72C1783.34+1420.72+1783.34+1420.72+1783.34+1420.72C1783.34+1420.72+1783.34+1420.72+1783.34+1420.72ZM1783.34+1420.72C1783.34+1420.72+1783.34+1420.72+1783.34+1420.72C1783.34+1420.72+1783.34+1420.72+1783.34+1420.72ZM1783.25+1421.17C1783.25+1421.17+1783.25+1421.17+1783.25+1421.17C1783.25+1421.17+1783.25+1421.17+1783.25+1421.17Z" fill="#ffe100" fill-opacity="0.886497" opacity="1" stroke-linejoin="round"/>
</g>
<g id="Ground" vectornator:layerName="Ground">
<path d="M1792.02+1460.36L1777.38+1460.97L1775.38+1461.22L1770.35+1461.46L1764.95+1461.71L1759.59+1462.24L1753.87+1462.53L1748.83+1463.07L1744.5+1463.69L1740.79+1463.98L1738.77+1464.27L1737.76+1464.3L1738.37+1464.49L1740.7+1463.02L1745.67+1462.73L1752.7+1461.86L1761.09+1461.04L1770.19+1460.41L1780.28+1459.55L1799.13+1458.63L1807.58+1458.6L1814.33+1458.36L1819.03+1458.4L1821.42+1458.48L1822.43+1458.53L1821.99+1460.29L1816.53+1460.96L1809.37+1461.3L1800.97+1461.88L1790.88+1462.2L1780.78+1462.78L1770.38+1463.33L1760.63+1463.89L1751.53+1464.19L1744.48+1464.73L1738.45+1465.03L1734.74+1465.31L1733.05+1465.34L1732.63+1465.36L1734.98+1463.03L1739.62+1462.74L1746.62+1462.19L1755.37+1461.64L1765.47+1461.02L1776.58+1460.47L1787.68+1459.86L1798.46+1459.59L1807.6+1459.58L1814.69+1459.64L1819.11+1459.97L1821.57+1460.33L1822.11+1460.67L1820.45+1463.27L1814.65+1464.15L1807.48+1464.76L1798.33+1465.31L1789.26+1466.12L1779.84+1466.67L1770.74+1467.2L1762.33+1467.72L1755.29+1468.25L1750.24+1468.58L1747.22+1468.84L1745.87+1468.9L1749.44+1466.35L1755.39+1465.85L1763.38+1465.08L1773.48+1464.26L1784.94+1463.45L1796.38+1462.58L1807.14+1461.78L1817.27+1461.53L1825.42+1461.55L1831.17+1461.57L1834.87+1461.66L1836.31+1462.01L1836.59+1463.1L1831.4+1464.83L1824.22+1465.48L1815.14+1466.01L1805.04+1466.66L1794.61+1467.23L1783.51+1467.77L1772.38+1468L1761.95+1468.5L1752.89+1468.9L1745.82+1469.1L1740.76+1469.37L1737.42+1469.58L1736.07+1469.63L1736.66+1469.66L1741.04+1467.71L1748.73+1467.37L1757.76+1466.76L1769.84+1465.88L1782.65+1465.58L1796.46+1464.93L1809.6+1464.86L1821.42+1464.87L1832.54+1465.24L1840.34+1465.86L1845.44+1466.54L1847.82+1466.92L1848.71+1467.53L1846.26+1469.73L1839.42+1470.44L1830.57+1470.66L1820.79+1471.02L1810.03+1471.35L1798.93+1471.66L1789.18+1471.96L1779.4+1471.98L1772.68+1472.22L1767.65+1472.23L1764.58+1472.19L1763.57+1472.19L1764.58+1472.19L1768.86+1469.74L1775.51+1468.93L1783.58+1468.35L1793.36+1467.5L1803.12+1466.9L1811.91+1466.57L1820+1466.32L1825.75+1466.28L1829.49+1466.42L1830.83+1466.51L1830.5+1466.59L1827+1469.16L1820.22+1469.62L1811.78+1470.26L1802.68+1470.79L1792.93+1471.46L1783.89+1472.31L1776.55+1473.22L1769.82+1473.77L1765.75+1474.05L1763.42+1474.34L1763.12+1474.35L1764.58+1471.62L1769.29+1471.62L1776.3+1471.32L1784.64+1470.8L1793.02+1470.18L1802.78+1469.6L1811.22+1469.31L1817.34+1469.29L1822.43+1469.26L1826.13+1469.39L1826.46+1469.51L1826.18+1472.25L1821.62+1472.57L1815.51+1473.07L1808.5+1473.93L1801.09+1474.5L1794.04+1475.4L1787.68+1476L1782.63+1476.6L1778.66+1477.19L1776.66+1477.39L1775.92+1477.41L1776.65+1477.33L1779.38+1474.5L1784.01+1474.25L1790.31+1473.7L1797.07+1473.44L1804.13+1472.88L1811.53+1472.57L1818.01+1472.56L1823.1+1472.54L1826.8+1472.65L1828.58+1473.01L1829.07+1473.09L1828.31+1475.83L1824.06+1476.24L1818.17+1476.62L1811.75+1476.9L1804.73+1477.51L1798+1477.82L1791.62+1478.4L1786.94+1478.66L1783.22+1478.96L1781.27+1479.19L1780.97+1479.14L1781.39+1476.47L1784.42+1476.52L1789.13+1476.57L1795.14+1476.34L1801.16+1476.06L1807.25+1476.06L1812.63+1475.82L1816.99+1475.8L1820.07+1475.77L1821.54+1476.01L1822.33+1476.35L1821.92+1478.64L1817.78+1479.58L1813.24+1480.13L1808.5+1480.69L1803.79+1481.24L1799.77+1481.77L1796.44+1482.31L1794.09+1482.61L1793.48+1482.86L1793.63+1482.96L1794.64+1480.92L1797.2+1480.94L1801.18+1480.74L1805.51+1480.49L1810.57+1480.24L1814.94+1479.99L1818.34+1480L1821.02+1479.75L1822.33+1479.74L1822.76+1479.76L1823.58+1480.31L1822.12+1482.22L1819.73+1482.62L1817.22+1482.93L1815.21+1483.22L1813.55+1483.45L1812.62+1483.7L1811.88+1483.66L1811.33+1483.65L1811.99+1483.6L1812.89+1482.38L1814.35+1482.4L1816.71+1482.37L1819.74+1482.34L1822.03+1482.02L1824.71+1482.02L1826.8+1482L1827.81+1481.99L1828.14+1482.01L1827.81+1482.04L1826.46+1483.54L1823.85+1483.79L1821.53+1484.04L1819.2+1484.37L1816.85+1484.65L1815.55+1484.97L1814.65+1485.23L1814.92+1485.34L1815.38+1484.13L1816.37+1483.93L1818.39+1483.96L1821.42+1483.98L1824.44+1484.02L1827.13+1484.05L1829.49+1484.05L1831.11+1483.81L1831.73+1483.79L1832.18+1483.79L1831.51+1485.02L1829.94+1485.29L1827.95+1485.55L1825.92+1485.83L1823.9+1486.1L1822.58+1486.37L1821.18+1486.34L1820.41+1486.31L1820.71+1486.48L1820.53+1486.37L1821.05+1486.01L1821.08+1485.5L1821.75+1485.51L1822.63+1485.23L1824.01+1485.22L1825.38+1485L1826.38+1485.03L1827.47+1485.03L1827.81+1485.01L1828.14+1485.02L1827.81+1485.05L1827.13+1485.89L1826.46+1485.89L1825.9+1486.1L1825.6+1486.1L1825.32+1486.33L1825.5+1486.42L1825.7+1486.08L1826.23+1486.29L1826.53+1486.38L1827.13+1486.39L1827.81+1486.45L1828.14+1486.51L1828.82+1486.8L1829.15+1486.8L1829.49+1486.8L1829.49+1486.8L1829.15+1486.8L1828.82+1486.8L1828.14+1486.56L1827.81+1486.62L1827.13+1486.68L1826.39+1486.7L1826.02+1486.79L1825.21+1486.47L1824.73+1486.12L1824.91+1485.68L1825.3+1485.38L1825.67+1485.38L1826.46+1485.06L1827.13+1485.05L1827.81+1485.9L1828.14+1485.92L1827.81+1485.94L1827.47+1485.91L1826.54+1485.92L1825.53+1485.95L1824.2+1486.25L1822.89+1486.25L1821.75+1486.5L1821.08+1486.51L1819.76+1486.01L1819.61+1485.64L1820.11+1485.53L1820.41+1485.17L1820.99+1485.14L1822.27+1485.11L1823.64+1484.85L1825.66+1484.58L1827.67+1484.34L1829.71+1484.06L1831.51+1483.8L1832.18+1485.03L1831.96+1485.03L1831.23+1485.01L1829.49+1485.3L1827.13+1485.3L1824.44+1485.33L1821.42+1485.37L1818.39+1485.39L1816.37+1485.42L1814+1485.22L1813.79+1484.01L1814.06+1483.59L1815.17+1483.31L1816.57+1483.1L1818.93+1482.85L1821.3+1482.65L1823.7+1482.37L1826.46+1482.09L1827.81+1483.58L1828.14+1483.62L1827.81+1483.64L1826.8+1483.63L1824.85+1483.61L1822.15+1483.61L1819.74+1483.82L1816.71+1483.79L1814.35+1483.76L1812.45+1483.77L1810.66+1482.55L1811.33+1481.98L1811.45+1481.96L1812.06+1481.93L1813.14+1481.65L1814.84+1481.34L1816.87+1481.1L1819.07+1480.88L1820.72+1480.75L1821.95+1481.6L1822.76+1481.61L1822.53+1481.63L1821.15+1481.62L1818.44+1481.9L1815.11+1481.91L1810.74+1482.2L1805.71+1482.47L1801.3+1482.76L1797.2+1483.09L1793.71+1483.11L1792.03+1481.07L1792.85+1480.63L1793.59+1480.36L1795.94+1480.13L1799.34+1479.6L1803.4+1479.06L1808.1+1478.55L1812.78+1478.05L1816.98+1477.53L1819.57+1477.41L1821.18+1478.63L1821.3+1478.44L1820.07+1478.15L1817.1+1478.12L1812.72+1478.1L1807.33+1478.39L1801.32+1478.39L1795.23+1478.65L1789.13+1478.95L1784.42+1479L1781.39+1479.05L1780.47+1476.38L1780.85+1476.33L1782.93+1476.03L1786.61+1475.79L1791.34+1475.52L1797.75+1475.03L1804.47+1474.81L1811.57+1474.36L1817.94+1474.11L1823.48+1473.96L1826.63+1473.84L1828.56+1475.51L1828.38+1475.59L1826.8+1475.41L1823.1+1475.52L1818.1+1475.51L1811.79+1475.5L1804.4+1475.72L1797.34+1476.23L1790.64+1476.5L1784.16+1477.01L1779.38+1477.29L1776.05+1474.46L1775.44+1474.38L1776.04+1474.4L1778.08+1474.07L1782.18+1473.59L1787.22+1473.13L1793.64+1472.67L1800.71+1471.97L1808.1+1471.48L1815.22+1470.74L1821.22+1470.18L1824.73+1469.96L1826.46+1472.17L1826.13+1472.29L1822.43+1472.42L1817.43+1472.39L1811.44+1472.38L1803.06+1472.61L1793.31+1473.1L1784.87+1473.55L1776.4+1474.08L1769.29+1474.32L1764.58+1474.31L1762.68+1471.59L1763.05+1471.6L1765.43+1471.35L1769.42+1471.1L1776.15+1470.59L1783.61+1469.9L1792.73+1469.16L1802.48+1468.76L1811.55+1468.23L1819.92+1467.81L1826.59+1467.2L1830.5+1468.71L1830.83+1468.78L1829.49+1468.87L1825.83+1469.01L1820.14+1468.98L1812.09+1469.26L1803.4+1469.46L1793.65+1469.92L1783.92+1470.67L1775.85+1471.16L1769.04+1471.94L1764.58+1470.03L1763.57+1470.02L1764.58+1470.02L1767.56+1469.98L1772.62+1469.99L1779.35+1469.7L1789.08+1469.72L1798.84+1469.49L1809.94+1469.27L1820.7+1469.06L1830.42+1468.9L1839.07+1468.58L1845+1468.23L1847.94+1469.36L1847.48+1468.91L1845.15+1468.76L1840.17+1468.38L1832.49+1467.93L1821.42+1467.76L1809.69+1467.78L1796.6+1467.71L1782.83+1468.12L1770.08+1468.35L1757.94+1469.07L1748.81+1469.52L1741.04+1469.71L1736.66+1467.77L1735.91+1467.8L1737.25+1467.85L1740.63+1467.53L1745.67+1467.26L1752.72+1466.93L1761.82+1466.26L1772.25+1465.7L1783.32+1465.4L1794.41+1464.88L1804.84+1464.38L1814.92+1463.96L1823.99+1463.44L1830.94+1463.02L1834.49+1464.21L1836.12+1464.24L1834.87+1464.06L1831.17+1464.15L1825.48+1464.17L1817.49+1464.18L1807.45+1464.47L1796.68+1465.27L1785.24+1465.99L1773.84+1466.78L1763.76+1467.55L1755.61+1468.38L1749.44+1468.94L1745.62+1466.39L1746.96+1466.45L1749.99+1466.18L1755.04+1465.98L1762.11+1465.45L1770.53+1464.9L1779.58+1464.37L1789+1463.85L1798.09+1463.07L1807.1+1462.55L1814.06+1462.1L1819.02+1461.39L1821.4+1462.92L1821.27+1462.73L1819.01+1462.56L1814.69+1462.36L1807.66+1462.42L1798.63+1462.41L1787.89+1462.66L1776.79+1463.12L1765.71+1463.63L1755.63+1464.08L1746.88+1464.59L1739.76+1465.11L1734.98+1465.35L1732.63+1463.02L1732.87+1463.04L1734.55+1463.07L1738.24+1462.82L1744.31+1462.58L1751.39+1462.06L1760.46+1461.82L1770.21+1461.32L1780.66+1460.81L1790.75+1460.33L1800.83+1460.11L1809.25+1459.63L1816.21+1459.43L1820.17+1459.57L1822.43+1460.27L1821.42+1460.32L1819.1+1460.4L1814.38+1460.44L1807.68+1460.74L1799.31+1460.7L1780.49+1461.38L1770.4+1462.12L1761.34+1462.55L1752.91+1463.33L1745.82+1464.05L1740.7+1464.3L1737.65+1463.35L1737.58+1463.02L1738.59+1463.04L1740.61+1462.81L1744.3+1462.56L1748.72+1462.12L1753.76+1461.6L1759.48+1461.35L1764.88+1460.82L1770.24+1460.53L1775.3+1460.25L1777.33+1459.96L1792.29+1459.51L1792.02+1460.36L1777.38+1460.97L1775.38+1461.22L1770.35+1461.46L1764.95+1461.71L1759.59+1462.24L1753.87+1462.53L1748.83+1463.07L1744.5+1463.69L1740.79+1463.98L1738.77+1464.27L1737.76+1464.3L1738.37+1464.49L1740.7+1463.02L1745.67+1462.73L1752.7+1461.86L1761.09+1461.04L1770.19+1460.41L1780.28+1459.55L1799.13+1458.63L1807.58+1458.6L1814.33+1458.36L1819.03+1458.4L1821.42+1458.48L1822.43+1458.53L1821.99+1460.29L1816.53+1460.96L1809.37+1461.3L1800.97+1461.88L1790.88+1462.2L1780.78+1462.78L1770.38+1463.33L1760.63+1463.89L1751.53+1464.19L1744.48+1464.73L1738.45+1465.03L1734.74+1465.31L1733.05+1465.34L1732.63+1465.36L1734.98+1463.03L1739.62+1462.74L1746.62+1462.19L1755.37+1461.64L1765.47+1461.02L1776.58+1460.47L1787.68+1459.86L1798.46+1459.59L1807.6+1459.58L1814.69+1459.64L1819.11+1459.97L1821.57+1460.33L1822.11+1460.67L1820.45+1463.27L1814.65+1464.15L1807.48+1464.76L1798.33+1465.31L1789.26+1466.12L1779.84+1466.67L1770.74+1467.2L1762.33+1467.72L1755.29+1468.25L1750.24+1468.58L1747.22+1468.84L1745.87+1468.9L1749.44+1466.35L1755.39+1465.85L1763.38+1465.08L1773.48+1464.26L1784.94+1463.45L1796.38+1462.58L1807.14+1461.78L1817.27+1461.53L1825.42+1461.55L1831.17+1461.57L1834.87+1461.66L1836.31+1462.01L1836.59+1463.1L1831.4+1464.83L1824.22+1465.48L1815.14+1466.01L1805.04+1466.66L1794.61+1467.23L1783.51+1467.77L1772.38+1468L1761.95+1468.5L1752.89+1468.9L1745.82+1469.1L1740.76+1469.37L1737.42+1469.58L1736.07+1469.63L1736.66+1469.66L1741.04+1467.71L1748.73+1467.37L1757.76+1466.76L1769.84+1465.88L1782.65+1465.58L1796.46+1464.93L1809.6+1464.86L1821.42+1464.87L1832.54+1465.24L1840.34+1465.86L1845.44+1466.54L1847.82+1466.92L1848.71+1467.53L1846.26+1469.73L1839.42+1470.44L1830.57+1470.66L1820.79+1471.02L1810.03+1471.35L1798.93+1471.66L1789.18+1471.96L1779.4+1471.98L1772.68+1472.22L1767.65+1472.23L1764.58+1472.19L1763.57+1472.19L1764.58+1472.19L1768.86+1469.74L1775.51+1468.93L1783.58+1468.35L1793.36+1467.5L1803.12+1466.9L1811.91+1466.57L1820+1466.32L1825.75+1466.28L1829.49+1466.42L1830.83+1466.51L1830.5+1466.59L1827+1469.16L1820.22+1469.62L1811.78+1470.26L1802.68+1470.79L1792.93+1471.46L1783.89+1472.31L1776.55+1473.22L1769.82+1473.77L1765.75+1474.05L1763.42+1474.34L1763.12+1474.35L1764.58+1471.62L1769.29+1471.62L1776.3+1471.32L1784.64+1470.8L1793.02+1470.18L1802.78+1469.6L1811.22+1469.31L1817.34+1469.29L1822.43+1469.26L1826.13+1469.39L1826.46+1469.51L1826.18+1472.25L1821.62+1472.57L1815.51+1473.07L1808.5+1473.93L1801.09+1474.5L1794.04+1475.4L1787.68+1476L1782.63+1476.6L1778.66+1477.19L1776.66+1477.39L1775.92+1477.41L1776.65+1477.33L1779.38+1474.5L1784.01+1474.25L1790.31+1473.7L1797.07+1473.44L1804.13+1472.88L1811.53+1472.57L1818.01+1472.56L1823.1+1472.54L1826.8+1472.65L1828.58+1473.01L1829.07+1473.09L1828.31+1475.83L1824.06+1476.24L1818.17+1476.62L1811.75+1476.9L1804.73+1477.51L1798+1477.82L1791.62+1478.4L1786.94+1478.66L1783.22+1478.96L1781.27+1479.19L1780.97+1479.14L1781.39+1476.47L1784.42+1476.52L1789.13+1476.57L1795.14+1476.34L1801.16+1476.06L1807.25+1476.06L1812.63+1475.82L1816.99+1475.8L1820.07+1475.77L1821.54+1476.01L1822.33+1476.35L1821.92+1478.64L1817.78+1479.58L1813.24+1480.13L1808.5+1480.69L1803.79+1481.24L1799.77+1481.77L1796.44+1482.31L1794.09+1482.61L1793.48+1482.86L1793.63+1482.96L1794.64+1480.92L1797.2+1480.94L1801.18+1480.74L1805.51+1480.49L1810.57+1480.24L1814.94+1479.99L1818.34+1480L1821.02+1479.75L1822.33+1479.74L1822.76+1479.76L1823.58+1480.31L1822.12+1482.22L1819.73+1482.62L1817.22+1482.93L1815.21+1483.22L1813.55+1483.45L1812.62+1483.7L1811.88+1483.66L1811.33+1483.65L1811.99+1483.6L1812.89+1482.38L1814.35+1482.4L1816.71+1482.37L1819.74+1482.34L1822.03+1482.02L1824.71+1482.02L1826.8+1482L1827.81+1481.99L1828.14+1482.01L1827.81+1482.04L1826.46+1483.54L1823.85+1483.79L1821.53+1484.04L1819.2+1484.37L1816.85+1484.65L1815.55+1484.97L1814.65+1485.23L1814.92+1485.34L1815.38+1484.13L1816.37+1483.93L1818.39+1483.96L1821.42+1483.98L1824.44+1484.02L1827.13+1484.05L1829.49+1484.05L1831.11+1483.81L1831.73+1483.79L1832.18+1483.79L1831.51+1485.02L1829.94+1485.29L1827.95+1485.55L1825.92+1485.83L1823.9+1486.1L1822.58+1486.37L1821.18+1486.34L1820.41+1486.31L1820.71+1486.48L1820.53+1486.37L1821.05+1486.01L1821.08+1485.5L1821.75+1485.51L1822.63+1485.23L1824.01+1485.22L1825.38+1485L1826.38+1485.03L1827.47+1485.03L1827.81+1485.01L1828.14+1485.02L1827.81+1485.05L1827.13+1485.89L1826.46+1485.89L1825.9+1486.1L1825.6+1486.1L1825.32+1486.33L1825.5+1486.42L1825.7+1486.08L1826.23+1486.29L1826.53+1486.38L1827.13+1486.39L1827.81+1486.45L1828.14+1486.51L1828.82+1486.8L1829.15+1486.8L1829.49+1486.8L1829.49+1486.8L1829.15+1486.8L1828.82+1486.8L1828.14+1486.56L1827.81+1486.62L1827.13+1486.68L1826.39+1486.7L1826.02+1486.79L1825.21+1486.47L1824.73+1486.12L1824.91+1485.68L1825.3+1485.38L1825.67+1485.38L1826.46+1485.06L1827.13+1485.05L1827.81+1485.9L1828.14+1485.92L1827.81+1485.94L1827.47+1485.91L1826.54+1485.92L1825.53+1485.95L1824.2+1486.25L1822.89+1486.25L1821.75+1486.5L1821.08+1486.51L1819.76+1486.01L1819.61+1485.64L1820.11+1485.53L1820.41+1485.17L1820.99+1485.14L1822.27+1485.11L1823.64+1484.85L1825.66+1484.58L1827.67+1484.34L1829.71+1484.06L1831.51+1483.8L1832.18+1485.03L1831.96+1485.03L1831.23+1485.01L1829.49+1485.3L1827.13+1485.3L1824.44+1485.33L1821.42+1485.37L1818.39+1485.39L1816.37+1485.42L1814+1485.22L1813.79+1484.01L1814.06+1483.59L1815.17+1483.31L1816.57+1483.1L1818.93+1482.85L1821.3+1482.65L1823.7+1482.37L1826.46+1482.09L1827.81+1483.58L1828.14+1483.62L1827.81+1483.64L1826.8+1483.63L1824.85+1483.61L1822.15+1483.61L1819.74+1483.82L1816.71+1483.79L1814.35+1483.76L1812.45+1483.77L1810.66+1482.55L1811.33+1481.98L1811.45+1481.96L1812.06+1481.93L1813.14+1481.65L1814.84+1481.34L1816.87+1481.1L1819.07+1480.88L1820.72+1480.75L1821.95+1481.6L1822.76+1481.61L1822.53+1481.63L1821.15+1481.62L1818.44+1481.9L1815.11+1481.91L1810.74+1482.2L1805.71+1482.47L1801.3+1482.76L1797.2+1483.09L1793.71+1483.11L1792.03+1481.07L1792.85+1480.63L1793.59+1480.36L1795.94+1480.13L1799.34+1479.6L1803.4+1479.06L1808.1+1478.55L1812.78+1478.05L1816.98+1477.53L1819.57+1477.41L1821.18+1478.63L1821.3+1478.44L1820.07+1478.15L1817.1+1478.12L1812.72+1478.1L1807.33+1478.39L1801.32+1478.39L1795.23+1478.65L1789.13+1478.95L1784.42+1479L1781.39+1479.05L1780.47+1476.38L1780.85+1476.33L1782.93+1476.03L1786.61+1475.79L1791.34+1475.52L1797.75+1475.03L1804.47+1474.81L1811.57+1474.36L1817.94+1474.11L1823.48+1473.96L1826.63+1473.84L1828.56+1475.51L1828.38+1475.59L1826.8+1475.41L1823.1+1475.52L1818.1+1475.51L1811.79+1475.5L1804.4+1475.72L1797.34+1476.23L1790.64+1476.5L1784.16+1477.01L1779.38+1477.29L1776.05+1474.46L1775.44+1474.38L1776.04+1474.4L1778.08+1474.07L1782.18+1473.59L1787.22+1473.13L1793.64+1472.67L1800.71+1471.97L1808.1+1471.48L1815.22+1470.74L1821.22+1470.18L1824.73+1469.96L1826.46+1472.17L1826.13+1472.29L1822.43+1472.42L1817.43+1472.39L1811.44+1472.38L1803.06+1472.61L1793.31+1473.1L1784.87+1473.55L1776.4+1474.08L1769.29+1474.32L1764.58+1474.31L1762.68+1471.59L1763.05+1471.6L1765.43+1471.35L1769.42+1471.1L1776.15+1470.59L1783.61+1469.9L1792.73+1469.16L1802.48+1468.76L1811.55+1468.23L1819.92+1467.81L1826.59+1467.2L1830.5+1468.71L1830.83+1468.78L1829.49+1468.87L1825.83+1469.01L1820.14+1468.98L1812.09+1469.26L1803.4+1469.46L1793.65+1469.92L1783.92+1470.67L1775.85+1471.16L1769.04+1471.94L1764.58+1470.03L1763.57+1470.02L1764.58+1470.02L1767.56+1469.98L1772.62+1469.99L1779.35+1469.7L1789.08+1469.72L1798.84+1469.49L1809.94+1469.27L1820.7+1469.06L1830.42+1468.9L1839.07+1468.58L1845+1468.23L1847.94+1469.36L1847.48+1468.91L1845.15+1468.76L1840.17+1468.38L1832.49+1467.93L1821.42+1467.76L1809.69+1467.78L1796.6+1467.71L1782.83+1468.12L1770.08+1468.35L1757.94+1469.07L1748.81+1469.52L1741.04+1469.71L1736.66+1467.77L1735.91+1467.8L1737.25+1467.85L1740.63+1467.53L1745.67+1467.26L1752.72+1466.93L1761.82+1466.26L1772.25+1465.7L1783.32+1465.4L1794.41+1464.88L1804.84+1464.38L1814.92+1463.96L1823.99+1463.44L1830.94+1463.02L1834.49+1464.21L1836.12+1464.24L1834.87+1464.06L1831.17+1464.15L1825.48+1464.17L1817.49+1464.18L1807.45+1464.47L1796.68+1465.27L1785.24+1465.99L1773.84+1466.78L1763.76+1467.55L1755.61+1468.38L1749.44+1468.94L1745.62+1466.39L1746.96+1466.45L1749.99+1466.18L1755.04+1465.98L1762.11+1465.45L1770.53+1464.9L1779.58+1464.37L1789+1463.85L1798.09+1463.07L1807.1+1462.55L1814.06+1462.1L1819.02+1461.39L1821.4+1462.92L1821.27+1462.73L1819.01+1462.56L1814.69+1462.36L1807.66+1462.42L1798.63+1462.41L1787.89+1462.66L1776.79+1463.12L1765.71+1463.63L1755.63+1464.08L1746.88+1464.59L1739.76+1465.11L1734.98+1465.35L1732.63+1463.02L1732.87+1463.04L1734.55+1463.07L1738.24+1462.82L1744.31+1462.58L1751.39+1462.06L1760.46+1461.82L1770.21+1461.32L1780.66+1460.81L1790.75+1460.33L1800.83+1460.11L1809.25+1459.63L1816.21+1459.43L1820.17+1459.57L1822.43+1460.27L1821.42+1460.32L1819.1+1460.4L1814.38+1460.44L1807.68+1460.74L1799.31+1460.7L1780.49+1461.38L1770.4+1462.12L1761.34+1462.55L1752.91+1463.33L1745.82+1464.05L1740.7+1464.3L1737.65+1463.35L1737.58+1463.02L1738.59+1463.04L1740.61+1462.81L1744.3+1462.56L1748.72+1462.12L1753.76+1461.6L1759.48+1461.35L1764.88+1460.82L1770.24+1460.53L1775.3+1460.25L1777.33+1459.96L1792.29+1459.51" stroke="#153e00" stroke-width="1" fill="#153e00" opacity="1" stroke-linejoin="round"/>
</g>
<g id="Stem2" vectornator:layerName="Stem2">
<path d="M1783.62+1419.9C1783.49+1419.89+1783.39+1419.99+1783.29+1420.09C1782.78+1420.18+1782.31+1420.61+1782.28+1421.13C1782.28+1421.16+1782.29+1421.19+1782.29+1421.23C1782.23+1421.44+1782.23+1421.66+1782.34+1421.85C1782.37+1421.9+1782.42+1421.92+1782.45+1421.96C1777.29+1428.42+1773.28+1435.1+1771.5+1443.21C1770.84+1446.24+1770.38+1449.26+1770.5+1452.35C1770.52+1453.05+1771.43+1457.71+1772.14+1455.52L1772.03+1455.42C1771.26+1456.19+1771.11+1452.82+1771.1+1452.29C1771.04+1449.25+1771.52+1446.3+1772.2+1443.33C1774.04+1435.34+1778.13+1428.79+1782.79+1422.13C1782.94+1422.15+1783.1+1422.1+1783.27+1422.05C1783.65+1422+1784.03+1421.83+1784.31+1421.59C1784.31+1421.58+1784.32+1421.57+1784.32+1421.56C1784.38+1421.51+1784.45+1421.45+1784.49+1421.39C1784.73+1421.13+1784.85+1420.83+1784.68+1420.56C1784.55+1420.34+1784.33+1420.22+1784.09+1420.18C1783.93+1420.04+1783.76+1419.9+1783.62+1419.9Z" opacity="1" fill="#153e00"/>
</g>
<g id="Stem1" vectornator:layerName="Stem1">
<path d="M1786.36+1370.89C1786.04+1370.91+1785.63+1371.36+1785.22+1371.8C1784.64+1371.93+1784.12+1372.29+1783.79+1372.98C1783.4+1373.82+1783.68+1374.68+1784.21+1375.47C1784.75+1376.61+1785.96+1377.43+1787.14+1377.65C1787.58+1377.84+1788.01+1378.02+1788.4+1377.94C1799.75+1398.95+1809.69+1419.61+1814.15+1444.8C1815.81+1454.17+1816.97+1463.48+1816.84+1473.08C1816.82+1474.42+1816.56+1481.57+1815.46+1482.97L1819.38+1483.01C1821.1+1489.92+1818.24+1475.48+1818.3+1473.26C1818.58+1463.51+1817.46+1453.98+1815.85+1444.45C1811.52+1418.85+1801.72+1397.81+1789.16+1377.45C1789.27+1377.32+1789.4+1377.23+1789.48+1377.05C1789.77+1376.42+1789.78+1375.74+1789.62+1375.07C1789.62+1374.96+1789.63+1374.86+1789.62+1374.76C1789.56+1373.11+1788.4+1371.77+1787.16+1371.49C1786.93+1371.18+1786.7+1370.88+1786.36+1370.89ZM1815.46+1482.97L1814.57+1482.94C1814.92+1483.4+1815.2+1483.29+1815.46+1482.97Z" opacity="1" fill="#153e00"/>
</g>
<g id="Blossom1" vectornator:layerName="Blossom1">
<path d="M1781.91+1419.63C1780.91+1420.34+1782.82+1418.64+1782.85+1418.73C1782.91+1418.96+1780.7+1420.57+1781.74+1420.99C1782.26+1421.2+1783.7+1419.81+1783.2+1419.46C1782.11+1418.73+1780.27+1421.21+1781.23+1422.05C1782.12+1422.83+1784.25+1420.08+1783.09+1419.26C1782.2+1418.63+1781.22+1420.84+1781.59+1421.61C1782+1422.48+1784.55+1420.02+1783.88+1419.43C1782.75+1418.44+1780.85+1421.76+1781.74+1422.59C1782.83+1423.62+1786.05+1420.64+1784.98+1419.58C1783.66+1418.28+1781.43+1422.2+1783.26+1423C1784.61+1423.59+1785.65+1420.69+1784.64+1420.02C1783.44+1419.2+1781.95+1421.91+1782.68+1422.92C1783.49+1424.05+1786.11+1421.39+1785.46+1420.52C1784.13+1418.73+1780.79+1422.73+1782.69+1423.63C1784.51+1424.48+1786.34+1419.54+1783.71+1420.12C1780.75+1420.77+1782.33+1425.62+1784.56+1424.1C1787.97+1421.79+1783.31+1418.38+1781.64+1422.38C1780.38+1425.4+1786.56+1422.43+1785.44+1420.52C1784.54+1418.99+1781.21+1421.85+1782.61+1423.32C1783.59+1424.33+1785.48+1422.06+1784.73+1421.1C1783.86+1419.97+1782.06+1421.76+1782.75+1422.58C1783.6+1423.58+1785.28+1420.98+1784.95+1420.83C1784.44+1420.6+1781.89+1424.04+1784.48+1421.93C1784.63+1421.81+1785.23+1421.21+1785.21+1420.97C1785.19+1420.69+1784.85+1421.39+1784.67+1421.61C1784.32+1422.03+1783.94+1422.5+1783.66+1422.97C1783.53+1423.18+1783.26+1423.88+1783.38+1423.66C1783.63+1423.2+1784.31+1422.85+1784.69+1422.49C1784.86+1422.32+1785.12+1421.78+1785.22+1422C1785.4+1422.38+1784.68+1422.89+1784.45+1423.18C1784.3+1423.37+1783.94+1423.98+1783.96+1423.73C1784.24+1420.42+1787.02+1423.94+1784.23+1423.77C1783.6+1423.73+1786.18+1422.15+1785.6+1422.4C1785.38+1422.49+1784.58+1423.56+1784.38+1423.85C1784.22+1424.06+1783.86+1424.77+1783.93+1424.51C1784.03+1424.13+1784.01+1424.09+1784.28+1423.72C1786.05+1421.3+1783.51+1424.01+1782.76+1423.16C1782.04+1422.35+1784.2+1420.89+1783.73+1419.91C1783.54+1419.51+1782.35+1420.95+1782.26+1421.07C1782.16+1421.22+1782+1421.72+1781.98+1421.54C1781.93+1421.07+1782.5+1420.6+1782.76+1420.24C1782.89+1420.06+1783.07+1419.41+1783.03+1419.63C1782.93+1420.13+1782.35+1420.45+1781.98+1420.77C1781.83+1420.9+1781.49+1421.37+1781.52+1421.16C1781.57+1420.7+1783.3+1419.87+1783.5+1420.39C1783.92+1421.52+1781.34+1423.93+1783.59+1422.32C1784.06+1421.98+1783.75+1422.19+1784.23+1421.88L1784.26+1421.92C1784.01+1422.13+1782.73+1423.49+1782.4+1423.06C1781.99+1422.5+1783.78+1420.79+1783.41+1420.48C1782.98+1420.12+1781.9+1421.42+1781.44+1421.17C1780.9+1420.88+1782.9+1419.16+1783.34+1419.63C1784.03+1420.35+1780.51+1422.55+1781.99+1420.78C1782.41+1420.29+1782.04+1420.73+1782.55+1420.24C1782.86+1419.95+1783.11+1419.63+1783.54+1419.56C1784.95+1419.3+1782.92+1422.85+1782.92+1422.85C1783.68+1423.35+1786.05+1421.32+1784.65+1423.59C1784.5+1423.83+1784.27+1424.3+1784.03+1424.43C1783.16+1424.92+1785.06+1421.64+1785.83+1422.45C1786.17+1422.81+1784.25+1423.49+1784.08+1423.45C1783.9+1423.41+1784.42+1423.3+1784.59+1423.21C1784.94+1423.01+1785.14+1422.62+1785.52+1422.55C1785.74+1422.51+1785.07+1422.68+1784.9+1422.83C1784.65+1423.04+1784.18+1423.65+1783.85+1423.66C1783.8+1423.66+1784.75+1421.76+1785.38+1422.17C1785.59+1422.3+1785.04+1422.53+1784.86+1422.7C1784.54+1423.01+1783.62+1424.02+1783.17+1423.66C1782.74+1423.32+1784.89+1420.6+1785.35+1420.97C1785.66+1421.23+1783.73+1423.32+1783.12+1422.76C1782.63+1422.32+1784.6+1420.29+1785.2+1420.64C1785.88+1421.03+1783.39+1424.15+1782.48+1422.61C1781.76+1421.39+1784.16+1419.74+1784.99+1421.03C1785.79+1422.3+1783.56+1424.63+1782.44+1423.45C1780.86+1421.78+1784.61+1418.72+1785.61+1420.5C1786.98+1422.97+1779.9+1425.6+1781.47+1422.25C1783.48+1417.97+1788.34+1421.96+1784.63+1424.33C1782.08+1425.96+1780.47+1420.54+1783.72+1419.97C1786.75+1419.44+1784.6+1424.96+1782.54+1423.79C1780.31+1422.52+1784.38+1418.48+1785.67+1420.5C1786.39+1421.63+1783.37+1424.46+1782.46+1423.01C1781.62+1421.65+1783.96+1418.57+1785.01+1420.11C1785.97+1421.51+1783.98+1424.69+1782.63+1422.84C1781.42+1421.16+1784.47+1417.71+1785.33+1419.71C1786+1421.28+1782.72+1424.03+1781.55+1422.69C1780.55+1421.54+1782.89+1417.97+1784.08+1419.37C1784.86+1420.29+1782.45+1422.64+1781.5+1421.81C1780.58+1421.01+1782.14+1418.18+1783.29+1419.07C1784.58+1420.09+1782.53+1422.95+1781.21+1422.26C1779.87+1421.57+1781.9+1418.29+1783.27+1419.26C1784.17+1419.89+1782.36+1421.49+1781.63+1421.14C1780.57+1420.62+1782.25+1418.55+1782.91+1418.86C1783.28+1419.03+1781.52+1419.73+1781.82+1419.44" opacity="1" fill="#198e02"/>
</g>
<g id="Grass" vectornator:layerName="Grass">
<path d="M1517.16+1439.02L1516.59+1439.05C1517.59+1447.6+1517.64+1456.13+1516.99+1464.69C1516.91+1465.84+1516.66+1467.04+1516.44+1468.23C1516.36+1464.86+1515.98+1461.52+1514.82+1458.16L1514.54+1458.21C1515.74+1462.35+1515.86+1466.38+1516.13+1470.52C1515.95+1471.84+1515.89+1473.15+1516.09+1474.43C1516.75+1473.1+1517.26+1471.65+1517.67+1470.13L1517.71+1470.13C1519.29+1465.31+1520.99+1460.59+1523.35+1455.9L1522.89+1455.81C1520.88+1459.72+1519.43+1463.56+1518.22+1467.54C1519.93+1458.21+1518.22+1446.74+1517.16+1439.02ZM1525.28+1474.43C1524.95+1475.37+1524.74+1476.49+1524.4+1477.42L1525.43+1478.38C1525.25+1477.08+1525.42+1475.73+1525.28+1474.43ZM2235.19+1405.16C2230.94+1412.2+2225.52+1421.48+2222.02+1431.05C2222.71+1426.68+2223.08+1422.26+2222.9+1417.55L2222.59+1417.53C2222.32+1424.45+2221.29+1430.91+2220.02+1437.42C2219.5+1439.43+2219.08+1441.44+2218.82+1443.42C2218.68+1444.05+2218.59+1444.64+2218.45+1445.28L2218.71+1445.36C2218.61+1446.63+2218.47+1447.9+2218.5+1449.13L2218.84+1449.13C2218.89+1447.13+2219.12+1445.1+2219.47+1443.03C2220.03+1440.81+2220.54+1438.6+2221+1436.41C2224.22+1425.15+2230.42+1413.76+2235.32+1405.24L2235.19+1405.16ZM2201.78+1403.77C2201.18+1413.45+2206.11+1422.98+2208.54+1432.49L2208.8+1432.49C2208.84+1433.11+2208.39+1434.06+2209.04+1434.27L2209.01+1434.35C2209.07+1434.35+2209.09+1434.31+2209.14+1434.3C2209.19+1434.31+2209.19+1434.35+2209.24+1434.35C2210.31+1434.35+2209.48+1433.21+2209.45+1432.49L2209.71+1432.49C2207.22+1422.91+2202.5+1413.49+2201.89+1403.77L2201.78+1403.77ZM2205.55+1418.13L2207.47+1418.13L2206.88+1422.9C2206.4+1421.25+2206.15+1419.82+2205.55+1418.13Z" fill-opacity="0.996086" fill="#267300" opacity="1"/>
</g>
</svg>
