<?xml version="1.0" encoding="UTF-8" standalone="no"?> <!-- Created with Vectornator Pro for iOS (http://vectornator.io/) --><!DOCTYPE svg PUBLIC "-//W3C//DTD SVG 1.1//EN" "http://www.w3.org/Graphics/SVG/1.1/DTD/svg11.dtd">
<svg height="100%" style="fill-rule:evenodd;clip-rule:evenodd;stroke-linecap:round;stroke-linejoin:round;" xmlns:xlink="http://www.w3.org/1999/xlink" xmlns="http://www.w3.org/2000/svg" xml:space="preserve" width="100%" xmlns:vectornator="http://vectornator.io" version="1.1" viewBox="0 0 3840 2160">
<metadata>
<vectornator:setting key="RulersVisible" value="1"/>
<vectornator:setting key="SnapToEdges" value="0"/>
<vectornator:setting key="Units" value="Pixels"/>
<vectornator:setting key="DynamicGuides" value="0"/>
<vectornator:setting key="SnapToPoints" value="0"/>
<vectornator:setting key="CMYKEnabledKey" value="0"/>
<vectornator:setting key="SnapToGrid" value="0"/>
<vectornator:setting key="ShowGrid" value="1"/>
<vectornator:setting key="GridSpacing" value="36"/>
</metadata>
<defs/>
<g id="Layer 1" vectornator:layerName="Layer 1">
<path d="M1911.22-56.75C1916.31-34.6613+1929.9-15.4021+1932.75+6.78125C1937.09+40.5164+1930.16+71.5929+1948.72+102.469C1982.08+157.982+2062.85+179.994+2089.41+236.312C2068.35+177.876+2010.65+167.237+1969.31+116.656C2014.21+75.9836+2069.84+39.6342+2107.34-8.125L2105.34-10.0938C2057.25+27.6787+2012.22+72.4321+1967.19+114.125C1963.07+108.876+1959.08+103.347+1955.38+97.1562C1938.46+68.9169+1944.43+37.8989+1939.56+6.78125C1936.12-15.2507+1920.24-36.3994+1911.22-56.75ZM2089.41+236.312C2090.56+239.515+2091.61+242.869+2092.53+246.375C2092.06+243.354+2091.42+240.518+2090.41+238.219C2090.11+237.558+2089.71+236.964+2089.41+236.312ZM2092.53+246.375C2094.53+259.128+2092.5+276.826+2092.47+288.125L2097.53+288.125C2097.49+271.967+2095.67+258.291+2092.53+246.375ZM1705.34-43.3125L1704.09-42.9688C1725.27+105.698+1911.03+123.295+1944.09+254.094L1946.38+249.562C1945.14+134.683+1731.27+91.7523+1705.34-43.3125ZM3285.97-9.53125C3253.56+11.9942+3214.92+34.5171+3189.81+65.1875C3176.56+81.3694+3169.8+107.932+3150.91+118.031C3111.46+139.116+3062.64+182.772+3037.03+221.375C2999.22+278.367+3007.08+341.419+2968.5+390.156L2968.66+390.312C3008.5+341.033+3003.3+279.257+3040.81+223.281C3058.96+196.208+3127.47+134.128+3153.84+122.438C3172.41+114.209+3180.83+82.7909+3192.09+66.3438C3214.24+34.0038+3254.88+12.49+3286.53-8.6875L3285.97-9.53125ZM2478.47-9.09375C2406.64+49.9455+2326.98+94.8667+2254.97+147.594C2332.15+101.491+2421.04+60.9535+2478.47-9.09375ZM2254.97+147.594C2251.87+149.447+2248.66+151.251+2245.59+153.125C2203.86+178.668+2165.09+217.632+2133.56+260.094C2168.55+216.061+2210.28+180.317+2254.97+147.594ZM2133.56+260.094C2115.54+282.77+2099.26+307.586+2085.31+335.375L2086.53+336.188C2099.11+310.938+2115.12+284.932+2133.56+260.094ZM3236.28-6.875C3158.96+112.111+3040.99+75.1406+2982.75+146.094C2921.58+220.61+2953.18+230.909+2935.97+301.938C2926.63+340.477+2895.98+366.72+2868.56+394.594C2853.79+409.606+2838.42+428.24+2819.69+438.219C2828.11+434.446+2836.46+430.61+2845.16+427.031C2859.89+420.97+2866.32+401.963+2880.25+392.688C2983.98+323.606+2907.85+208.667+2999.5+135.281C3074.36+75.3428+3195.51+104.843+3236.38-6.8125L3236.28-6.875ZM2819.69+438.219C2816.3+439.739+2812.82+441.193+2809.41+442.688C2809.52+442.652+2809.64+442.63+2809.75+442.594C2813.19+441.457+2816.47+439.933+2819.69+438.219ZM2809.41+442.688C2776.15+453.612+2729.15+456.29+2691.75+446.656C2683.87+444.626+2675.27+445.464+2666.62+446.469C2677.07+448.548+2685.96+450.445+2691.75+451.844C2712.64+456.887+2753.53+462.945+2775.72+455.812C2787.54+452.012+2798.56+447.441+2809.41+442.688ZM2666.62+446.469C2601.31+433.471+2460.16+410.728+2426.28+422C2312.56+459.843+2174.3+506.75+2183.5+617.156L2285.19+486.719C2322.76+467.935+2363.8+452+2386.25+444.5C2472.99+429.474+2586.6+434.565+2638.09+446.844C2647.01+448.969+2656.85+447.605+2666.62+446.469ZM1369.22+19.125C1254.1+20.562+1130+47.0175+1048.28+84.1562C985.259+112.797+928.498+155.427+866.562+186.344C808.205+215.475+748.316+256.094+685.312+275.281C526.914+323.52+471.962+238.338+334.5+219.094C313.418+216.142+289.703+220.062+268.406+220.062C435.629+220.062+514.416+329.182+686.531+278.312C712.343+270.684+735.107+255.615+759.406+244.719C825.65+215.015+889.574+181.434+952.469+144.75C984.779+125.904+1015.39+103.783+1049.62+88.2188C1175.54+30.9716+1421.66-5.42342+1554.25+48.5625C1571.66+55.6535+1584.29+72.9948+1599.69+82.9688C1648.68+114.704+1668.02+167.086+1680.59+222.062C1676.22+189.347+1672.14+156.357+1651.5+128.688C1631.58+101.98+1587.08+58.9916+1555.69+46.6562C1504.15+26.4052+1438.29+18.2628+1369.22+19.125ZM2174.41+31.75C2169.03+42.5005+2152.66+48.1851+2142.66+54.4375C2136.17+58.491+2130.78+61.8179+2124.84+65.4688C2143.95+56.5163+2166.92+46.7323+2174.41+31.75ZM2124.84+65.4688C2117.92+68.7112+2111.46+71.8357+2106.5+75.0625C2098.47+80.2814+2090.54+86.1121+2082.78+92.3438C2095.52+83.5807+2109.72+74.7735+2124.84+65.4688ZM2816.56+34C2792.42+58.1443+2769.73+79.8195+2739.06+99.0938C2737.44+100.11+2735.69+101.033+2733.94+101.938C2743.46+97.7149+2752.82+93.3329+2760.62+87.4062C2782.78+70.587+2797.67+52.8934+2816.56+34ZM2733.94+101.938C2730.38+103.513+2726.88+105.158+2723.31+106.719C2726.99+105.22+2730.57+103.67+2733.94+101.938ZM2827.75+38.4688C2791.33+71.9885+2759.85+112.099+2730.66+152.344C2713.47+176.044+2686.9+186.734+2668.03+207.625C2665.31+210.642+2664.13+214.554+2663.19+218.625C2650.17+219.496+2637.03+219.915+2623.84+219.938C2638.72+209.179+2651.4+196.18+2661.66+175.688C2670.46+158.102+2674.42+141.602+2688.06+127.906C2697.32+118.614+2709.95+112.571+2722.94+106.875C2709.82+112.207+2695.7+116.898+2686.38+126.188C2672.54+139.972+2667.15+156.051+2658.34+173.688C2647.37+195.658+2633.62+208.774+2617.34+219.812C2605.93+219.73+2594.52+219.5+2583.09+218.969C2575.85+218.632+2568.97+217.564+2562.22+216.25C2568.88+218.395+2575.61+220.213+2582.59+221.156C2591.84+222.406+2601.43+223.279+2611.12+223.938C2600.69+230.477+2589.29+236.514+2576.91+243.625L2579.69+246.406C2593.49+238.559+2606.07+231.883+2617.47+224.375C2631.98+225.148+2646.81+225.239+2661.78+224.5C2661.39+226.085+2661+227.678+2660.41+229.156L2668.66+229.156C2669.22+227.526+2669.58+225.751+2669.84+223.938C2747.36+218.599+2826.09+191.238+2868.78+127.062L2868.69+127C2816.43+188.915+2745.84+211.847+2670.72+218C2671.31+214.802+2672.24+211.833+2674.62+209.812C2710.15+179.71+2743+145.556+2771.66+106.406C2783.96+89.6002+2803.56+77.9233+2815.88+60.5625C2820.58+53.9318+2822.88+44.2565+2828.06+38.625L2827.75+38.4688ZM2562.22+216.25C2544.26+210.464+2527.01+202.052+2507.97+200.188C2501.32+199.537+2494.83+199.35+2488.41+199.344C2514.92+202.002+2537.44+211.426+2562.22+216.25ZM2488.41+199.344C2480.2+198.521+2471.73+198.166+2462.53+199.062C2408.62+204.313+2364.27+228.804+2312.62+240.094L2313.03+240.875C2373.13+227.301+2426.02+199.284+2488.41+199.344ZM2514.31+46.8125C2476.03+61.5479+2442.16+92.1792+2409.97+117C2258.73+233.631+2167.78+374.833+2171.34+567.219L2177.47+567.219C2180.47+405.339+2221.37+309.946+2338.44+193.5C2392.01+140.208+2451.18+88.9202+2515.25+48.4062L2514.31+46.8125ZM3061.62+77.0938C3003.94+86.5403+2937.07+103.867+2883.75+125.562L2885.5+128.5C2941.25+105.268+3002.75+91.076+3061.62+77.125L3061.62+77.0938ZM3057.06+83.9375C3043.78+83.6311+2992.03+106.954+2979.81+115.219C2973.94+119.192+2967.12+117.054+2961.62+119.938C2952.16+124.907+2938.79+120.958+2929.59+126.188C2921.89+130.569+2914.28+136.489+2906.47+142.125C2906.99+141.881+2907.47+141.574+2908+141.344C2940.82+127.068+2980.24+119.311+3013.97+103.281C3024.32+98.3599+3045.43+84.2122+3057.06+83.9375ZM2906.47+142.125C2901.35+144.535+2896.67+147.619+2892.34+151.219C2897.17+148.499+2901.88+145.437+2906.47+142.125ZM2892.34+151.219C2891.03+151.961+2889.75+152.837+2888.41+153.5C2877.83+158.723+2871.43+172.047+2865.34+184C2873.15+171.948+2881.65+160.115+2892.34+151.219ZM2865.34+184C2861.38+190.116+2857.54+196.238+2853.78+202.031C2854.02+201.789+2854.29+201.555+2854.53+201.312C2858.47+197.294+2861.87+190.819+2865.34+184ZM2853.78+202.031C2826.54+229.57+2787.8+253.565+2743.59+271.188C2670.55+300.306+2565.96+309.816+2487.53+309.812C2459.26+309.811+2432.32+301.121+2403.5+305.844C2392.28+307.682+2380.89+310.005+2369.44+312.688C2381.18+310.125+2392.72+308.084+2403.66+306.75C2431.06+303.408+2456.36+311.912+2483+311.875C2558.39+311.771+2675.69+300.852+2744.31+273.312C2776.08+260.562+2813.55+246.96+2837.47+223.312C2843.21+217.634+2848.51+210.147+2853.78+202.031ZM2369.44+312.688C2348.44+317.271+2326.8+323.673+2306.22+331.344C2326.96+323.978+2348.26+317.649+2369.44+312.688ZM2306.22+331.344C2289.68+337.218+2273.48+343.704+2258.12+350.75L2258.59+352.594C2272.94+344.827+2289.22+337.678+2306.22+331.344ZM2082.69+92.4062C2059.7+108.236+2039.09+125.562+2015.91+153.281L2019.78+155.25C2037.79+133.557+2059.45+111.087+2082.69+92.4062ZM1297.56+112.469C1213.17+111.15+1126.29+136.229+1045.44+171.812C996.779+193.227+948.488+220.12+912.094+260.188C888.565+286.091+873.514+317.348+857.312+347.75C829.866+399.251+810.726+455.506+815.625+515.031C824.528+623.196+921.114+669.554+1015.09+660.094L1014.34+660.844C1015.84+662.764+1017.29+664.646+1018.78+666.562C1017.53+664.215+1016.48+662.04+1015.66+660.031C1077.73+653.635+1138.6+622.931+1172.22+569.469C1214.73+501.866+1154.78+415.419+1076.19+433.031C1068.17+434.827+1060.97+438.248+1053.94+442.125C1060.9+438.357+1068.09+435.112+1076.19+433.688C1150.54+420.609+1206.16+500.687+1166.22+565C1085.84+694.432+838.51+687.723+823.938+515.031C819.007+456.608+836.527+401.498+863.969+351.062C884.899+312.595+906.123+272.615+939.812+243.156C1001.48+189.229+1077.29+162.909+1154.25+139.5C1274.35+102.97+1401.98+113.525+1500.81+197.062C1523.67+216.386+1535.41+242.849+1551.72+266.5C1623.89+371.144+1562.36+501.398+1547.88+612.625C1542.42+654.483+1543.83+699.502+1544.59+741.938C1546.9+869.868+1564.65+891.782+1605+973.406C1618.68+1001.09+1621.94+1034.93+1632.75+1064.16C1642.64+1090.9+1629.21+1213.48+1623.62+1241.16C1600.62+1355.24+1572.92+1429.32+1507.25+1528.16C1482.23+1565.81+1464.93+1607.7+1433.31+1641.38C1408.66+1667.63+1377.91+1690.69+1352.38+1716.38C1348.66+1720.11+1344.73+1723.7+1340.69+1727.19C1388.26+1693.03+1432.51+1655.23+1466.03+1608.28C1489.04+1576.05+1505.07+1541.74+1525.47+1507.75C1563.88+1443.75+1603.73+1377.59+1622.19+1303.88C1630.99+1268.74+1630.21+1233.26+1636.25+1198.03C1641.32+1168.42+1649.7+1093.82+1640.56+1064.16C1632.43+1037.76+1630.35+1008.1+1618.19+983.344C1597+940.233+1571.44+891.075+1557.94+833.25C1550.34+800.703+1556.23+759.978+1556.28+726.062C1556.34+689.264+1556.38+648.751+1562.06+612.625C1579.89+499.185+1632.62+367.649+1562.75+259.875C1546.56+234.898+1533.12+208.245+1509.28+188.625C1444.57+135.371+1372.03+113.632+1297.56+112.469ZM1340.69+1727.19C1320.18+1741.91+1299.16+1756.05+1277.97+1769.81C1300.22+1756.85+1322.02+1743.28+1340.69+1727.19ZM1277.97+1769.81C1255.33+1783+1232.28+1795.59+1211.72+1809.44L1212.97+1811.94C1234.27+1797.88+1256.15+1783.98+1277.97+1769.81ZM1018.78+666.562C1039.16+704.693+1113.46+784.252+1141.34+799.5C1145.76+801.915+1150.38+804.02+1155.06+806C1145.45+804.687+1135.84+802.905+1126.25+800.531C1114.97+797.739+1104.03+793.66+1093.25+788.938C1099.57+791.819+1105.9+794.521+1112.28+796.844C1128.06+802.583+1144.49+806.295+1161.25+808.5C1184.03+817.029+1209.08+820.712+1232.75+819.625L1232.75+818.562C1215.66+817.754+1200.07+814.9+1185.47+810.656C1239.31+812.956+1295.21+800.572+1343.97+782.938L1343.91+782.656C1289.46+799.282+1233.26+811.522+1177.03+808.125C1109.04+784.902+1065.59+726.892+1018.78+666.562ZM1093.25+788.938C1075.33+780.767+1057.56+770.878+1039.72+761.281C1057.37+771.004+1075.04+780.957+1093.25+788.938ZM1039.72+761.281C1035.06+758.717+1030.39+756.258+1025.72+753.781C1030.41+756.195+1035.05+758.769+1039.72+761.281ZM1680.66+222.312C1682.59+236.78+1684.62+251.182+1688.09+265.062C1689.67+271.358+1691.41+277.596+1693.09+283.844C1689.11+263.591+1685.33+242.793+1680.66+222.312ZM1693.09+283.844C1695.51+296.132+1697.98+308.255+1700.84+319.906C1705.72+339.756+1708.02+360.631+1719.12+378.125C1728.06+392.206+1736.26+407.094+1746.19+421.375C1755.28+434.446+1774.39+441.799+1781.94+456.781C1795.79+484.286+1815.22+536.895+1829.97+590.594C1827.96+575.166+1828.43+558.674+1824.81+544.031C1817.43+514.102+1799.9+482.637+1786.34+455.312C1771.49+425.364+1731.77+405.98+1719.88+371.062C1710.27+342.876+1701.14+313.638+1693.09+283.844ZM1829.97+590.594C1830.7+596.242+1831.7+601.757+1833.44+606.969C1834.83+611.151+1836.16+615.437+1837.56+619.656C1835.27+609.994+1832.64+600.321+1829.97+590.594ZM1837.56+619.656C1849.11+668.321+1855.07+714.389+1847.44+739.688L1847.91+739.688C1862.67+699.348+1850.55+658.793+1837.56+619.656ZM236.656+229.844C230.605+234.151+224.551+238.443+218.5+242.75C224.551+239.494+230.605+236.256+236.656+233L236.656+229.844ZM275.938+235.125C262.969+235.397+249.772+236.874+236.094+238.812L237.188+242.156C319.32+226.297+344.213+274.831+404.562+272.25C377.098+271.076+363.837+257.942+339.719+247.094C318.479+237.54+297.552+234.671+275.938+235.125ZM1945.25+265.438C1944.98+306.255+1928.59+349.934+1919.38+389.625C1910.79+426.614+1897.37+467.881+1894.28+505.656C1891.11+544.448+1893.02+593.334+1881.44+630.125C1873.63+654.924+1867.96+686.987+1867.66+712.438L1873.06+712.438C1872.78+688.494+1878.1+654.943+1886.5+631.406C1898.11+598.889+1897.93+541.384+1900.91+506.281C1907.73+425.833+1945.79+347.267+1945.25+265.438ZM3245.41+288.125C3216.74+316.789+3185.46+343.757+3152.31+367.969C3051.85+384.862+2961.63+373.119+2870.94+469.5L2871.09+469.812C2968.32+378.324+3045.5+389.505+3143.09+374.625C3117.5+392.711+3090.87+409.146+3063.34+423.219L3064.41+425.344C3100.6+411.551+3129.47+393.46+3155.88+372.469C3157.58+372.172+3159.29+371.848+3161+371.531C3146.68+385.841+3131.59+401.173+3115.47+412.344C3105.66+419.142+3112.42+416.267+3120.28+412.469C3120.66+412.021+3120.53+411.964+3121.19+411.312C3122.37+410.14+3122.23+407.959+3123.47+406.844C3129.6+401.336+3148.75+384.937+3166.44+370.562C3169.36+369.99+3172.31+369.355+3175.28+368.719C3170.08+372.952+3164.92+377.267+3160.09+382.094C3151.51+390.682+3154.01+390.124+3145.84+395.5L3162.81+384.781C3164.44+383.151+3171.88+375.652+3179.47+367.75C3192.72+364.787+3206.27+361.331+3220.44+356.719C3241.31+349.924+3331.86+332.694+3352.06+345.375C3360.89+350.915+3373.72+349.087+3383.81+354.219C3420.76+372.998+3464.71+389.895+3505.5+404.125C3517.15+408.187+3527.88+420.813+3541.03+424.438C3582.61+435.895+3654.39+456.175+3696.94+437.188C3698.96+436.287+3701.13+435.62+3703.22+434.812L3706.28+439.406C3726.23+429.882+3746.39+420.564+3766.75+411.812C3767.03+412.123+3767.17+412.54+3767.06+413.156L3767.5+412.719C3767.48+412.368+3767.27+412.006+3767.09+411.656C3778.5+406.757+3789.95+401.989+3801.5+397.562L3801.16+396.531C3788.16+400.243+3775.19+403.972+3762.31+407.938C3758.84+406.331+3755.05+405.783+3755.66+408.125C3756.75+412.348+3716.04+417.727+3696.94+429.531C3673.44+444.049+3570.71+425.471+3544.28+419.562C3529.65+416.291+3519.83+403.062+3507.19+399.062C3458.61+383.696+3411.02+363.199+3363.41+342C3333.68+328.764+3248.57+341.528+3220.44+351.188C3208.74+355.205+3197.25+358.307+3185.84+361.062C3187.61+359.151+3189.11+357.476+3190.62+355.75C3188.5+357.678+3186.36+359.602+3184.16+361.438C3181.21+362.138+3178.24+362.93+3175.31+363.562C3184.53+356.274+3193.06+349.744+3197+347.656C3198.57+344.89+3197.36+344.464+3190.72+348.75C3183.8+353.214+3174.94+359.253+3168.06+365.062C3166.82+365.31+3165.58+365.513+3164.34+365.75C3191.89+342.745+3217.08+316.45+3245.41+288.125ZM3197+347.656C3195.97+349.469+3193.6+352.358+3190.62+355.75C3191.4+355.051+3192.21+354.405+3192.97+353.688C3194.11+352.609+3201.39+347.739+3199.66+346.75C3199.3+346.546+3198.29+346.971+3197+347.656ZM3145.84+395.5L3129.94+405.531C3138.04+400.508+3142.61+397.63+3145.84+395.5ZM3120.28+412.469C3112.35+421.741+3159.75+390.095+3131.72+406.719C3129.8+407.859+3124.71+410.329+3120.28+412.469ZM356.906+288.812C275.123+293.643+241.673+304.888+170.594+342.219L171.094+343C244.781+307.963+274.261+299.848+356.906+292L356.906+288.812ZM387.062+331.625C324.747+330.819+264.56+393.984+205.094+337.75L204.656+338.375C282.551+420.71+371.06+282.211+449.719+360.969L450.125+360.531C428.821+339.254+407.834+331.894+387.062+331.625ZM486.25+378.094C477.706+380.953+454.702+385.352+446.656+392.781C356.79+475.763+373.979+633.589+332.469+744.312C322.847+762.776+313.044+781.107+302.938+799.25C293.31+811.866+282.024+823.194+268.406+832.719C280.045+825.331+289.964+816.622+298.719+807.031L301.656+808.5C304.89+802.924+308.004+797.268+311.188+791.656C319.074+780.533+325.638+768.418+331.219+755.531C348.797+723.036+365.602+690.073+381.406+656.719C417.857+579.789+440.477+496.156+502.906+433.938L501.344+432.781C445.805+488.508+420.502+565.409+387.188+634.656C372.484+665.219+357.514+695.705+342.062+725.906C379.899+602.956+357.143+433.593+486.25+379.719L486.25+378.094ZM3379.81+390.062C3359.14+389.761+3336.77+394.347+3318.03+394.969C3293.2+395.792+3264.99+394.488+3241.84+402.219C3181.3+422.439+3113.63+431.681+3058.25+473.094C3009.83+509.302+2962.98+557.889+2902.78+570.344C2899.68+570.985+2896.55+571.364+2893.44+571.844C2889.35+567.585+2885.2+563.354+2881.09+559.062C2878.46+556.308+2876.43+554.578+2874.22+552.531C2873.94+550.83+2873.73+549.186+2873.78+547.688C2873.83+546.209+2875.44+544.267+2870.75+544.781C2869.3+544.94+2868.42+545.741+2867.94+546.906C2866.97+546.13+2866.18+545.531+2865.34+544.906C2865.34+544.972+2865.35+545.028+2865.34+545.094C2865.24+545.913+2864.7+545.747+2863.94+545.094C2863.8+544.643+2863.39+543.733+2863.31+543.375C2863.89+543.778+2864.69+544.421+2865.34+544.906C2865.38+544.47+2865.35+544.056+2865.28+543.656C2864.81+543.542+2864.13+543.119+2863.22+542.438C2863.24+542.73+2863.23+542.94+2863.31+543.344C2862.36+542.676+2861.61+542.127+2860.88+541.656C2860.04+540.617+2859.28+539.656+2858.66+538.969C2859.48+539.32+2860.27+539.954+2860.88+540.531C2861.86+541.476+2862.52+541.916+2863.22+542.438C2863.02+539.888+2864.88+541.231+2865.28+543.656C2868.04+544.323+2863.87+537.064+2858.47+538.75C2857.74+537.975+2857.28+537.719+2857.41+538.594C2857.41+538.647+2857.46+538.696+2857.47+538.75C2857.69+538.741+2857.9+538.757+2858.12+538.812C2857.93+538.886+2857.75+538.996+2857.56+539.094C2857.6+539.29+2857.67+539.491+2857.72+539.688C2857.29+539.433+2857.43+539.381+2857.28+539.25C2856.47+539.71+2855.66+540.314+2854.84+541.281C2850.42+546.525+2863.95+558.43+2874.06+566.594C2874.12+566.686+2874.19+566.752+2874.25+566.844L2870.53+568.344C2857.38+554.738+2844.1+542.356+2832.91+536.281L2831.97+539.188C2840.41+543.057+2856.89+558.066+2873.22+573.969C2795.83+577.941+2714.52+540.094+2644.09+523.188C2575.56+506.737+2458.94+547.687+2400.12+581.938C2376.69+595.589+2362.7+628.585+2351.44+651.219C2298.42+757.729+2269.29+866.935+2269.25+987C2269.16+1251.12+2272.69+1474.15+2469.69+1671.03C2520.59+1721.91+2595.22+1724.48+2657.72+1745.91L2657.72+1743.84C2602.44+1725.96+2552.97+1716.33+2502.47+1684.84C2346.24+1587.44+2295.27+1361.01+2278.38+1190.72C2271.82+1124.67+2279.27+1053.56+2279.25+987C2279.21+867.702+2307.38+761.328+2360.44+655.688C2371.47+633.728+2384.76+602.685+2407.03+588.844C2462.42+554.419+2577.72+512.216+2644.09+529.594C2683.86+540.005+2723.86+551.655+2763.5+561.594C2798.82+570.451+2840.08+581.781+2879.5+580.188C2880.01+580.692+2880.49+581.153+2881+581.656C2881.68+582.455+2882.39+583.394+2883.09+584.219C2885.34+590.18+2887.43+595.39+2888.94+597.969L2892.88+596C2901.6+606.937+2909.6+618.59+2911.44+628.812C2910.65+619.933+2907.62+611.721+2903.22+603.906C2906.14+606.86+2909.76+610.563+2911.84+612.625C2909.03+609.776+2905.56+605.931+2902.38+602.5C2897.86+594.769+2892.33+587.319+2886.66+579.938C2888.96+579.746+2891.27+579.511+2893.56+579.219C2907.91+593.133+2921.43+609.982+2922.88+633.031L2923.53+633.031C2924.94+610.562+2913.6+593.888+2899.44+578.281C2900.55+578.093+2901.68+577.965+2902.78+577.75C2965.2+565.645+3015.31+517.216+3065+479.844C3079.03+469.293+3097.39+463.199+3112.03+453.406C3149.84+428.111+3202.74+423.906+3244.44+410.031C3269.45+401.707+3296.85+408.234+3322.56+403.906C3418.03+387.838+3491.42+442.827+3580.31+460.594C3623.98+469.321+3664.1+461.456+3706.84+459.125L3710.47+462.75C3711.84+461.404+3713.31+460.047+3714.72+458.688C3714.87+458.682+3715.01+458.661+3715.16+458.656L3715.09+458.312C3738.2+436.104+3767.05+412.861+3799.06+410.656C3759.06+407.901+3735.81+428.305+3706.72+457.812C3660.89+456.644+3616.43+458.528+3571.62+449.438C3511.46+437.231+3458.26+406.367+3399.72+392.344C3393.41+390.833+3386.7+390.163+3379.81+390.062ZM2911.44+628.812C2911.56+630.224+2911.84+631.583+2911.84+633.031C2911.84+631.663+2911.7+630.249+2911.44+628.812ZM2857.28+539.25C2857.37+539.197+2857.47+539.141+2857.56+539.094C2857.54+538.98+2857.49+538.864+2857.47+538.75C2857.26+538.758+2857.04+538.733+2856.84+538.812C2856.68+538.878+2857.13+539.111+2857.28+539.25ZM721.625+428.5C720.846+473.338+723.057+507.103+733.562+540.344C724.789+502.642+723.352+457.606+722.844+429.125L721.625+428.5ZM733.562+540.344C738.792+562.817+746.647+582.594+758.5+594.75C747.353+575.753+739.155+558.04+733.562+540.344ZM758.5+594.75C761.68+600.169+764.814+605.558+768.531+611.25C789.795+643.809+844.361+652.892+859.375+684.219C864.1+694.077+864.925+710.058+870.219+721.531C873.298+728.206+875.191+745.513+872.688+753.281C865.914+774.301+864.13+801.873+849.938+820.562C796.726+890.637+702.5+1002.59+716.844+1095.91C716.96+1096.66+717.195+1097.36+717.344+1098.09C716.632+1105.08+716.166+1112.34+715.875+1119.75C716.282+1113.64+716.947+1107.09+717.812+1100.25C721.699+1115.81+732.566+1127.57+740.375+1141.31C733.531+1125.63+720.886+1113.76+718.531+1095.91C718.494+1095.63+718.473+1095.34+718.438+1095.06C721.174+1075.49+725.658+1053.67+731.562+1031.75C725.313+1050.42+720.753+1070.2+718.125+1091.81C713.385+1044.33+734.43+994.198+763.219+947.031C750.436+971.763+739.636+1001.77+731.562+1031.75C747.808+983.23+775.071+941.831+807.188+893.188C808.862+890.651+810.733+888.31+812.562+885.906C804.907+893.151+796.713+900.859+791.25+906.281C789.626+907.893+788.057+909.81+786.469+911.625C809.384+878.758+833.899+848.136+853.156+822.156C867.318+803.05+868.457+774.725+875.812+753.281C892.611+704.311+835.249+643.992+795.906+631.938C782.974+627.975+768.315+604.279+759.875+596.281C759.391+595.822+758.972+595.234+758.5+594.75ZM812.562+885.906C826.662+872.563+842.176+857.816+858.5+841.406C842.182+854.75+825.63+868.734+812.562+885.906ZM858.5+841.406C885.476+819.349+911.379+798.909+917.688+768.719C907.813+789.185+883.904+815.868+858.5+841.406ZM917.688+768.719C918.734+766.55+919.724+764.393+920.438+762.375C922.836+755.597+920.725+747.22+917.625+739.219C919.612+750.085+919.541+759.848+917.688+768.719ZM917.625+739.219C916.445+732.766+914.61+725.947+911.812+718.625L909.312+719.875C911.174+724.934+914.801+731.929+917.625+739.219ZM715.875+1119.75C715.529+1124.95+715.31+1129.96+715.312+1134.5L715.531+1134.5C715.534+1129.46+715.685+1124.59+715.875+1119.75ZM2367.81+448.125C2345.71+456.632+2315.63+469.473+2287.34+483.938L2287.88+483.281C2303.93+467.075+2332.98+455.76+2367.81+448.125ZM2885.84+571.906C2886.21+572.236+2886.57+572.542+2886.94+572.875C2886.49+572.928+2886.04+572.95+2885.59+573C2885.67+572.631+2885.8+572.359+2885.84+571.906ZM935.5+725.5L935.5+726.625C966.961+726.589+996.495+738.805+1025.47+753.688C996.685+738.427+967.514+725.537+935.5+725.5ZM1986.41+888.875C1959.47+992.751+1958.64+1098.23+1948.62+1204.25C1941.69+1277.64+1922.43+1349.78+1908.56+1422L1910.91+1422.22C1928.19+1351.14+1945.14+1277.9+1954.44+1205.12C1967.89+1099.83+1970.69+994.222+1987.75+889.125L1986.41+888.875ZM2155.41+912C2149.8+1035.93+2138.13+1163.8+2156.53+1287.06C2167.36+1359.58+2207.63+1428.35+2207.72+1501.56L2213.81+1501.56C2213.91+1428.24+2175.81+1357.92+2164.66+1285.38C2145.65+1161.79+2163.04+1036.35+2157.44+912L2155.41+912ZM1792.66+1114.78C1764.75+1226.41+1721.14+1327.86+1676.5+1433.34C1660.16+1471.94+1647.47+1511.24+1628.16+1548.56L1631+1550.69C1705.05+1415.82+1755.48+1263.49+1792.66+1114.78ZM2399.41+1692.22L2398.44+1695.53C2546.69+1741.97+2701.83+1759.62+2854.56+1784.59L2854.78+1782.97C2702.43+1757.09+2547.83+1737.07+2399.41+1692.22ZM2314.31+1725.94C2310.49+1725.84+2306.63+1725.85+2302.75+1726L2302.75+1728.66C2320.82+1729.36+2338.85+1731.99+2356.84+1735L2356.81+1735.16C2412.6+1749.76+2440.42+1780.4+2483.84+1813.94C2543.14+1859.73+2603.58+1905.04+2667.22+1944.75C2835.12+2049.52+3018.17+2106.87+3216.34+2108.44L3216.34+2107.19C3021.99+2108.73+2833.39+2045.04+2670+1940.59C2607.07+1900.37+2544.64+1857.52+2485.44+1812.16C2446.58+1782.39+2419.99+1755.05+2375.75+1738.16C2397.3+1742.08+2418.83+1746.23+2440.41+1748.66C2601.54+1766.75+2763.86+1786.4+2925.53+1800.22C2954.75+1802.72+2984.7+1804.83+3014.69+1807.09C2886.89+1792.73+2759.35+1776.75+2631.19+1765.38C2551.81+1758.33+2471.9+1749.23+2393.16+1737.09C2366.55+1732.99+2341.07+1726.65+2314.31+1725.94ZM3014.69+1807.09C3030.37+1808.86+3046.03+1810.68+3061.72+1812.38C3143.88+1821.27+3227.95+1828.85+3307.06+1853.62C3214.04+1823.75+3113.22+1814.54+3014.69+1807.09ZM3307.06+1853.62C3310.3+1854.67+3313.56+1855.66+3316.78+1856.75C3313.55+1855.67+3310.31+1854.64+3307.06+1853.62ZM3316.78+1856.75C3319.13+1857.53+3321.48+1858.34+3323.81+1859.16C3321.48+1858.33+3319.13+1857.55+3316.78+1856.75ZM3323.81+1859.16C3331.25+1861.78+3338.65+1864.49+3345.97+1867.41L3345.97+1867.38C3338.64+1864.43+3331.25+1861.75+3323.81+1859.16ZM1694.34+1729.38C1687.97+1734.82+1682.2+1740.52+1676.66+1746.34C1682.49+1740.6+1688.36+1734.92+1694.44+1729.47L1694.34+1729.38ZM1676.66+1746.34C1669.45+1753.43+1662.39+1760.72+1655.47+1768.16C1602.94+1808.01+1538.63+1802.89+1476.88+1825.34C1456.67+1832.69+1437.45+1841.9+1418.59+1851.75C1437.57+1842.14+1456.9+1833.19+1477.09+1825.84C1538.35+1803.57+1602.74+1807.88+1654.97+1768.69C1630.97+1794.51+1608.24+1821.86+1585.12+1848.75C1605.6+1828.05+1625.52+1807.19+1639.75+1789.81C1646.93+1781.04+1653.77+1772.6+1660.78+1764.25C1664.4+1761.25+1667.95+1758.05+1671.44+1754.56L1671.34+1754.47C1668.04+1757.77+1664.7+1760.82+1661.28+1763.69C1666.24+1757.8+1671.32+1751.94+1676.66+1746.34ZM1585.12+1848.75C1564.92+1869.18+1544.17+1889.46+1527.97+1906.03C1509.83+1924.59+1483.22+1937.13+1463.75+1954.31C1434.06+1980.5+1406.84+2008.63+1378.72+2036.75C1406.48+2008.98+1435.63+1981.7+1465.12+1956.09C1484.97+1938.87+1511.76+1926.5+1530.5+1908.19C1549.64+1889.48+1567.49+1869.26+1585.12+1848.75ZM1418.59+1851.75C1385.97+1868.27+1354.42+1886.85+1321.88+1903.72C1354.82+1887.7+1386.15+1868.71+1418.59+1851.75ZM1321.88+1903.72C1313.7+1907.69+1305.43+1911.52+1297+1915.03C1233.56+1941.46+1170.35+1959.5+1111.12+1992.81L1111.12+1992.84C1170.45+1961.48+1235.86+1945.03+1297.38+1915.94C1305.64+1912.03+1313.78+1907.92+1321.88+1903.72ZM1320.19+1784.78C1280.95+1788.55+1247.48+1807.39+1209.12+1818.53C1192.65+1823.31+1175.69+1826.96+1158.62+1830.34C1176.96+1825.67+1194.74+1819.48+1211.22+1811.81L1208.91+1809.53C1169.79+1830.58+1121.1+1839.25+1076.19+1840.12L1076.19+1840.22C1091.39+1840.51+1106.86+1839.44+1122.22+1837.38C1108.58+1839.95+1095+1842.58+1081.66+1845.66C1007.41+1862.78+927.776+1869.17+851.844+1872.97C761.559+1877.48+672.809+1890.69+582.188+1890.06L582.188+1890.72C672.684+1890.09+761.68+1878.89+851.938+1874.38C885.734+1872.68+920.207+1870.48+954.625+1867.12C922.179+1871.1+889.87+1876.01+857.906+1882.81C807.076+1893.64+754.872+1892.84+705.062+1909.44C662.491+1923.62+623.722+1948.92+583.844+1968.94C506.875+2007.58+418.035+2015.84+333.406+2015.84C419.3+2015.84+506.259+2009.83+584.75+1970.75C624.313+1951.05+663.965+1927.23+706.062+1913.19C755.879+1896.57+807.641+1896.39+858.438+1885.44C940.542+1867.73+1024.25+1861.83+1107.16+1853.72C1134.86+1851.01+1176.46+1846.52+1201.09+1831.97C1216.13+1823.09+1222.74+1818.23+1240.75+1817.34L1240.75+1817.09C1217.17+1815.94+1209.98+1829.91+1188.47+1836C1162.05+1843.48+1133.87+1849.04+1106.72+1851.81C1069.19+1855.65+1031.34+1858.89+993.531+1862.81C1023.48+1858.98+1053.17+1853.98+1082.06+1847.31C1123.9+1837.65+1168.65+1832.82+1209.62+1820.12C1247.49+1808.4+1282.46+1794.14+1320.19+1786.94L1320.19+1784.78ZM2029.75+1788.78L2028.03+1791.31C2054.25+1804.48+2102.3+1839.8+2108.47+1876.62C2105.64+1856.4+2094.98+1838.56+2079.53+1823.25C2101.66+1830.46+2122.92+1839.04+2145.69+1843.59C2208.65+1856.19+2273.5+1855.49+2336.22+1871.59C2248.33+1847.91+2159.07+1848.93+2073.84+1817.94C2061.22+1806.71+2046.14+1796.94+2029.75+1788.78ZM2336.22+1871.59C2354.85+1876.62+2372.24+1883.99+2389+1892.69C2372.36+1883.83+2354.99+1876.42+2336.22+1871.59ZM2389+1892.69C2442.39+1921.12+2487.79+1964.82+2544.28+1988.62C2639.62+2028.81+2766.38+2061.78+2869.03+2075.56C2905.71+2080.49+2946.66+2080.82+2982.16+2089.47L2982.25+2088.53C2938.65+2077.35+2890.85+2079.15+2846.59+2068.91C2746.47+2045.73+2642.12+2022.54+2546.25+1984.5C2489.29+1961.9+2442.58+1920.48+2389+1892.69ZM2108.47+1876.62C2108.74+1878.58+2108.91+1880.57+2109.03+1882.56C2108.95+1880.58+2108.8+1878.6+2108.47+1876.62ZM2109.03+1882.56C2109.32+1889.97+2107.98+1897.41+2104.09+1904.69C2095.82+1920.18+2081.12+1941.66+2077.12+1958.22C2073.39+1973.68+2081.68+1990.83+2076.84+2005.38C2073.11+2016.61+2057.22+2040.48+2066.72+2055.56C2079.42+2075.73+2155.46+2083.75+2192.53+2103.69C2156.13+2082.82+2082.62+2072.45+2070.5+2055.56C2060.92+2042.21+2077.9+2015.59+2081.31+2005.38C2085.86+1991.75+2078.91+1974.24+2081+1960.56C2082.59+1950.15+2093.36+1940.31+2098.09+1930.88C2106.78+1913.57+2109.96+1897.48+2109.03+1882.56ZM1836.56+1806.78C1815.53+1825.48+1791.78+1841.04+1770.69+1859.94C1749.22+1879.17+1729.59+1900.47+1708.06+1919.66C1738.48+1893.69+1767.52+1866.2+1797.88+1839.16C1810.58+1827.83+1825.12+1819.63+1836.56+1806.78ZM1708.06+1919.66C1701.56+1925.21+1694.97+1930.68+1688.31+1936.06C1695.14+1930.86+1701.67+1925.35+1708.06+1919.66ZM1688.31+1936.06C1684.69+1938.82+1681.04+1941.53+1677.25+1944.09C1636.29+1971.87+1591.99+1992.89+1553.91+2023.78L1554.75+2024.62C1578.92+2005.55+1606.26+1993.87+1632.19+1977.16C1651.95+1964.42+1670.43+1950.53+1688.31+1936.06ZM1849.5+1828.94L1848.69+1830.59C1867.73+1845.04+1931.82+1888.23+1940.81+1903.12C1947.98+1915+1944.33+1931.76+1946.72+1944.75C1962.01+2027.92+1962.75+2083.43+2066.5+2082.91L2066.56+2082.53C1964.28+2082.01+1965.33+2025.05+1947.97+1944.75C1945.14+1931.65+1948.53+1914.78+1941.38+1902.78C1929.22+1882.39+1872.09+1846.94+1849.5+1828.94ZM2192.78+2103.84C2203.83+2110.23+2211.33+2117.6+2212.62+2126.44C2211.68+2117.32+2204.14+2110+2192.78+2103.84ZM2212.62+2126.44C2212.7+2127.21+2212.83+2127.98+2212.81+2128.78L2212.91+2128.69C2212.89+2127.92+2212.73+2127.18+2212.62+2126.44ZM2228.59+2162.53C2215.9+2167.29+2198.55+2170+2187.16+2177.59C2183.46+2180.06+2181.03+2184.01+2177.75+2187C2167.9+2195.95+2158.02+2205.06+2147.62+2213.38L2228.59+2162.53Z" stroke="#b12100" stroke-width="17.04" fill="#b12100" opacity="1" stroke-linejoin="round"/>
</g>
</svg>
