<?xml version="1.0" encoding="UTF-8" standalone="no"?> <!-- Created with Vectornator Pro for iOS (http://vectornator.io/) --><!DOCTYPE svg PUBLIC "-//W3C//DTD SVG 1.1//EN" "http://www.w3.org/Graphics/SVG/1.1/DTD/svg11.dtd">
<svg height="100%" style="fill-rule:evenodd;clip-rule:evenodd;stroke-linecap:round;stroke-linejoin:round;" xmlns:xlink="http://www.w3.org/1999/xlink" xmlns="http://www.w3.org/2000/svg" xml:space="preserve" width="100%" xmlns:vectornator="http://vectornator.io" version="1.1" viewBox="0 0 3840 2160">
<metadata>
<vectornator:setting key="RulersVisible" value="1"/>
<vectornator:setting key="SnapToEdges" value="0"/>
<vectornator:setting key="Units" value="Pixels"/>
<vectornator:setting key="DynamicGuides" value="0"/>
<vectornator:setting key="SnapToPoints" value="0"/>
<vectornator:setting key="CMYKEnabledKey" value="0"/>
<vectornator:setting key="SnapToGrid" value="0"/>
<vectornator:setting key="ShowGrid" value="1"/>
<vectornator:setting key="GridSpacing" value="36"/>
</metadata>
<defs/>
<g id="Earth" vectornator:layerName="Earth">
<path d="M6292.62+1402.53C6309.68+1400.15+5837.84+3470.61+5854.1+3479.14C5877.65+3491.49-1752.62+3429.18-1951.39+3081.86C-2150.17+2734.55-2965.05+2414.98-2366.51+1767.97C-1767.96+1120.97-988.016+1557.25-307.916+1465.03C372.185+1372.82+172.78+1353.51+364.955+1355.42C624.964+1358+778.137+1128.4+1290.31+1301.34C1383.33+1332.75+1568.44+1256.06+1596.38+1334.63C1656.69+1504.25+2098.49+1456.32+2229.64+1308.24C2288.07+1242.28+2345.26+1360.21+2374.77+1347.82C3053.41+1062.92+4035.68+1561.01+4866.44+1596.96C5733.32+1634.47+6290.85+1402.78+6292.62+1402.53Z" fill-opacity="0.706019" fill="#834700" opacity="1"/>
</g>
<g id="Tree0" vectornator:layerName="Tree0">
<path d="M2124.53+1164.89C2104.76+1111.08+2085.13+1083.14+2085.13+1083.14L1921.3+1078.97C1921.3+1078.97+1824.19+1078.05+1752.48+1152.72C1680.77+1227.38+1650.71+1290.82+1638.05+1381.84C1628.46+1450.81+1610.94+1477.68+1612.36+1554.21C1613.78+1630.74+1640.16+1683.76+1640.16+1683.76C1640.16+1683.76+1652.89+1728.28+1703+1779.23C1745.98+1822.93+1825.96+1866.27+1871.18+1865.68C1969.13+1864.41+2034.09+1831.78+2079.96+1760.3C2125.82+1688.81+2161.34+1611.88+2165.3+1557.02C2169.27+1502.16+2162.88+1441.85+2162.88+1441.85C2162.88+1441.85+2163.48+1432.5+2164.2+1419.01C2165.23+1399.78+2166.53+1372.11+2166.72+1351.04C2167.06+1315.17+2166.5+1325.57+2164.23+1298.37C2161.95+1271.16+2144.31+1218.7+2124.53+1164.89Z" stroke="#606060" stroke-width="1.95" fill="#e2e2e2" opacity="1" stroke-linejoin="round"/>
</g>
<g id="Stone line" vectornator:layerName="Stone line">
<path d="M2165.39+1157.02C2140.53+1122.92+2099.59+1049.66+2099.59+1049.66C2099.59+1049.66+2038.37+1057.08+1945.25+1058.21C1853.38+1059.33+1748.96+1069.57+1706.15+1145.63C1677.6+1196.34+1606.43+1306.43+1591.05+1402.49C1578.48+1481.04+1565.22+1514.55+1570.22+1592.07C1575.22+1669.6+1628.64+1744.55+1686.93+1803.25C1736.94+1853.61+1832.04+1911.68+1884.27+1911.38C1997.4+1910.71+2067.04+1837.26+2113.51+1796.14C2150.93+1763.03+2210.74+1614.2+2214.03+1567.64C2217.31+1521.08+2212.85+1439.99+2212.85+1439.99C2212.85+1439.99+2216.45+1377.15+2216.54+1336.1C2216.64+1295.06+2216.08+1306.96+2213.23+1275.81C2210.38+1244.66+2195.27+1198+2165.39+1157.02Z" stroke="#606060" stroke-width="1.95" fill="#a1a1a1" opacity="1" stroke-linejoin="round"/>
</g>
<g id="Roots2" vectornator:layerName="Roots2">
<path d="M2165.39+1157.02C2140.53+1122.92+2099.59+1049.66+2099.59+1049.66C2099.59+1049.66+2038.37+1057.08+1945.25+1058.21C1853.38+1059.33+1748.96+1069.57+1706.15+1145.63C1677.6+1196.34+1606.43+1306.43+1591.05+1402.49C1578.48+1481.04+1565.22+1514.55+1570.22+1592.07C1575.22+1669.6+1628.64+1744.55+1686.93+1803.25C1736.94+1853.61+1832.04+1911.68+1884.27+1911.38C1997.4+1910.71+2067.04+1837.26+2113.51+1796.14C2150.93+1763.03+2210.74+1614.2+2214.03+1567.64C2217.31+1521.08+2212.85+1439.99+2212.85+1439.99C2212.85+1439.99+2216.45+1377.15+2216.54+1336.1C2216.64+1295.06+2216.08+1306.96+2213.23+1275.81C2210.38+1244.66+2195.27+1198+2165.39+1157.02Z" stroke="#606060" stroke-width="1.95" fill="#a1a1a1" opacity="1" stroke-linejoin="round"/>
</g>
<g id="Roots1" vectornator:layerName="Roots1">
<path d="M2124.53+1164.89C2104.76+1111.08+2085.13+1083.14+2085.13+1083.14L1921.3+1078.97C1921.3+1078.97+1824.19+1078.05+1752.48+1152.72C1680.77+1227.38+1650.71+1290.82+1638.05+1381.84C1628.46+1450.81+1610.94+1477.68+1612.36+1554.21C1613.78+1630.74+1640.16+1683.76+1640.16+1683.76C1640.16+1683.76+1652.89+1728.28+1703+1779.23C1745.98+1822.93+1825.96+1866.27+1871.18+1865.68C1969.13+1864.41+2034.09+1831.78+2079.96+1760.3C2125.82+1688.81+2161.34+1611.88+2165.3+1557.02C2169.27+1502.16+2162.88+1441.85+2162.88+1441.85C2162.88+1441.85+2163.48+1432.5+2164.2+1419.01C2165.23+1399.78+2166.53+1372.11+2166.72+1351.04C2167.06+1315.17+2166.5+1325.57+2164.23+1298.37C2161.95+1271.16+2144.31+1218.7+2124.53+1164.89Z" stroke="#606060" stroke-width="1.95" fill="#e2e2e2" opacity="1" stroke-linejoin="round"/>
</g>
<g id="Shadow" vectornator:layerName="Shadow">
<path d="M2124.53+1164.89C2104.76+1111.08+2085.13+1083.14+2085.13+1083.14L1921.3+1078.97C1921.3+1078.97+1824.19+1078.05+1752.48+1152.72C1680.77+1227.38+1650.71+1290.82+1638.05+1381.84C1628.46+1450.81+1610.94+1477.68+1612.36+1554.21C1613.78+1630.74+1640.16+1683.76+1640.16+1683.76C1640.16+1683.76+1652.89+1728.28+1703+1779.23C1745.98+1822.93+1825.96+1866.27+1871.18+1865.68C1969.13+1864.41+2034.09+1831.78+2079.96+1760.3C2125.82+1688.81+2161.34+1611.88+2165.3+1557.02C2169.27+1502.16+2162.88+1441.85+2162.88+1441.85C2162.88+1441.85+2163.48+1432.5+2164.2+1419.01C2165.23+1399.78+2166.53+1372.11+2166.72+1351.04C2167.06+1315.17+2166.5+1325.57+2164.23+1298.37C2161.95+1271.16+2144.31+1218.7+2124.53+1164.89Z" stroke="#606060" stroke-width="1.95" fill="#e2e2e2" opacity="1" stroke-linejoin="round"/>
</g>
<g id="Stone face" vectornator:layerName="Stone face">
<path d="M2062.59+1140.99C2025.36+1196.24+2022.96+1253.97+1999.86+1313.55C1989.3+1340.76+1968.37+1350.07+1952.55+1371.46C1938.62+1390.29+1930.57+1412.99+1923.56+1435.24C1905.49+1492.56+1909.79+1560.35+1885.48+1615.02C1873.39+1642.2+1835.06+1648.62+1823.17+1675.04C1805.55+1714.19+1788.47+1753.61+1771.11+1792.88L1772.44+1793.97C1789.84+1754.55+1806.98+1715+1824.64+1675.7C1836.4+1649.52+1874.72+1642.85+1886.9+1615.89C1911.64+1561.09+1907.7+1493.31+1925.76+1435.85C1932.66+1413.87+1940.61+1391.31+1953.95+1372.46C1969.31+1350.75+1990.82+1341.51+2001.42+1314.25C2025.74+1251.65+2025.9+1203.89+2063.56+1141.57L2062.59+1140.99ZM2024.82+1160.52C1979.79+1190.89+1946.19+1219.7+1920.6+1268.63C1877.3+1351.41+1863.39+1445.73+1821.32+1528.54C1778.48+1612.88+1706.32+1662.88+1737.49+1771.62L1739.31+1770.81C1706.86+1668.92+1782.67+1609.75+1822.7+1529.22C1863.98+1446.16+1879.6+1352.24+1922.9+1269.66C1948.4+1221.05+1980.76+1191.96+2025.26+1161.17L2024.82+1160.52ZM1909.15+1152.44C1761.95+1217.02+1732+1358.86+1679.96+1499.19L1680.94+1499.74C1732.56+1360.57+1762.9+1217.36+1909.33+1152.84L1909.15+1152.44ZM1994.84+1164.92C1841.85+1210.11+1808.75+1354.1+1748.57+1481.84C1736.09+1508.34+1711.87+1525.42+1697.59+1550.27C1680.95+1579.2+1678.99+1614.16+1679.44+1646.7L1680.43+1646.8C1679.69+1614.33+1682.29+1579.73+1698.63+1550.79C1712.75+1525.78+1737.31+1509.19+1749.58+1482.42C1807.52+1355.98+1846.05+1210.12+1994.91+1165.18L1994.84+1164.92ZM2090.35+1190.77L2088.67+1190.62C2083.41+1230.83+2097.69+1299.53+2085.56+1332.94C2071.39+1371.98+2038.23+1403.07+2021.85+1441.55C2003.68+1484.25+1996.82+1531.07+1979.25+1573.17C1960.53+1618.03+1930.88+1655.15+1906.65+1696.74C1875.74+1749.78+1843.83+1800.78+1781.03+1816.79L1781.26+1817.54C1852.07+1806.27+1881.85+1736.98+1916.59+1683.69C1939.72+1648.22+1964.68+1613.33+1980.96+1573.95C1998.45+1531.63+2005.28+1484.84+2023.6+1442.21C2039.96+1404.16+2074.06+1372.71+2086.97+1333.53C2095.17+1308.67+2088.88+1222.29+2090.35+1190.77ZM2107.52+1426.62C2092.76+1482.47+2071.88+1541.49+2043.33+1595.78C2070.83+1547.89+2092.55+1493.9+2108.23+1426.79L2107.52+1426.62ZM2043.33+1595.78C2013.23+1648.21+1976.12+1693.35+1931.86+1739.82C1941.06+1730.77+1950.32+1721.78+1959.47+1712.67C1992.87+1679.45+2020.54+1639.12+2043.33+1595.78ZM1931.86+1739.82C1899.77+1771.39+1867.52+1802.8+1835.38+1834.3L1835.95+1835.43C1870.96+1801.26+1902.9+1770.23+1931.86+1739.82ZM2147.26+1471.08C2117.43+1554.02+2118.62+1631.33+2052.01+1699.07C2014.79+1736.92+1975.04+1773.93+1933.97+1807.56C1922.56+1816.91+1892.63+1830.17+1887.96+1844.87C1899.31+1829.14+1926.63+1816.99+1942.26+1804.17C1990.46+1764.62+2045.79+1719.53+2082.52+1668.87C2123.88+1611.83+2130.1+1536.97+2148.7+1471.48L2147.26+1471.08ZM1887.96+1844.87C1887.94+1844.9+1887.91+1844.93+1887.88+1844.96L1887.37+1847.16C1887.47+1846.39+1887.71+1845.63+1887.96+1844.87Z" stroke="#606060" stroke-width="1.95" fill="#606060" opacity="1" stroke-linejoin="round"/>
</g>
<g id="Stone HL" vectornator:layerName="Stone HL">
<path d="M2062.59+1140.99C2025.36+1196.24+2022.96+1253.97+1999.86+1313.55C1989.3+1340.76+1968.37+1350.07+1952.55+1371.46C1938.62+1390.29+1930.57+1412.99+1923.56+1435.24C1905.49+1492.56+1909.79+1560.35+1885.48+1615.02C1873.39+1642.2+1835.06+1648.62+1823.17+1675.04C1805.55+1714.19+1788.47+1753.61+1771.11+1792.88L1772.44+1793.97C1789.84+1754.55+1806.98+1715+1824.64+1675.7C1836.4+1649.52+1874.72+1642.85+1886.9+1615.89C1911.64+1561.09+1907.7+1493.31+1925.76+1435.85C1932.66+1413.87+1940.61+1391.31+1953.95+1372.46C1969.31+1350.75+1990.82+1341.51+2001.42+1314.25C2025.74+1251.65+2025.9+1203.89+2063.56+1141.57L2062.59+1140.99ZM2024.82+1160.52C1979.79+1190.89+1946.19+1219.7+1920.6+1268.63C1877.3+1351.41+1863.39+1445.73+1821.32+1528.54C1778.48+1612.88+1706.32+1662.88+1737.49+1771.62L1739.31+1770.81C1706.86+1668.92+1782.67+1609.75+1822.7+1529.22C1863.98+1446.16+1879.6+1352.24+1922.9+1269.66C1948.4+1221.05+1980.76+1191.96+2025.26+1161.17L2024.82+1160.52ZM1909.15+1152.44C1761.95+1217.02+1732+1358.86+1679.96+1499.19L1680.94+1499.74C1732.56+1360.57+1762.9+1217.36+1909.33+1152.84L1909.15+1152.44ZM1994.84+1164.92C1841.85+1210.11+1808.75+1354.1+1748.57+1481.84C1736.09+1508.34+1711.87+1525.42+1697.59+1550.27C1680.95+1579.2+1678.99+1614.16+1679.44+1646.7L1680.43+1646.8C1679.69+1614.33+1682.29+1579.73+1698.63+1550.79C1712.75+1525.78+1737.31+1509.19+1749.58+1482.42C1807.52+1355.98+1846.05+1210.12+1994.91+1165.18L1994.84+1164.92ZM2090.35+1190.77L2088.67+1190.62C2083.41+1230.83+2097.69+1299.53+2085.56+1332.94C2071.39+1371.98+2038.23+1403.07+2021.85+1441.55C2003.68+1484.25+1996.82+1531.07+1979.25+1573.17C1960.53+1618.03+1930.88+1655.15+1906.65+1696.74C1875.74+1749.78+1843.83+1800.78+1781.03+1816.79L1781.26+1817.54C1852.07+1806.27+1881.85+1736.98+1916.59+1683.69C1939.72+1648.22+1964.68+1613.33+1980.96+1573.95C1998.45+1531.63+2005.28+1484.84+2023.6+1442.21C2039.96+1404.16+2074.06+1372.71+2086.97+1333.53C2095.17+1308.67+2088.88+1222.29+2090.35+1190.77ZM2107.52+1426.62C2092.76+1482.47+2071.88+1541.49+2043.33+1595.78C2070.83+1547.89+2092.55+1493.9+2108.23+1426.79L2107.52+1426.62ZM2043.33+1595.78C2013.23+1648.21+1976.12+1693.35+1931.86+1739.82C1941.06+1730.77+1950.32+1721.78+1959.47+1712.67C1992.87+1679.45+2020.54+1639.12+2043.33+1595.78ZM1931.86+1739.82C1899.77+1771.39+1867.52+1802.8+1835.38+1834.3L1835.95+1835.43C1870.96+1801.26+1902.9+1770.23+1931.86+1739.82ZM2147.26+1471.08C2117.43+1554.02+2118.62+1631.33+2052.01+1699.07C2014.79+1736.92+1975.04+1773.93+1933.97+1807.56C1922.56+1816.91+1892.63+1830.17+1887.96+1844.87C1899.31+1829.14+1926.63+1816.99+1942.26+1804.17C1990.46+1764.62+2045.79+1719.53+2082.52+1668.87C2123.88+1611.83+2130.1+1536.97+2148.7+1471.48L2147.26+1471.08ZM1887.96+1844.87C1887.94+1844.9+1887.91+1844.93+1887.88+1844.96L1887.37+1847.16C1887.47+1846.39+1887.71+1845.63+1887.96+1844.87Z" stroke="#606060" stroke-width="1.95" fill="#606060" opacity="1" stroke-linejoin="round"/>
</g>
<g id="Tree2" vectornator:layerName="Tree2">
<path d="M2062.59+1140.99C2025.36+1196.24+2022.96+1253.97+1999.86+1313.55C1989.3+1340.76+1968.37+1350.07+1952.55+1371.46C1938.62+1390.29+1930.57+1412.99+1923.56+1435.24C1905.49+1492.56+1909.79+1560.35+1885.48+1615.02C1873.39+1642.2+1835.06+1648.62+1823.17+1675.04C1805.55+1714.19+1788.47+1753.61+1771.11+1792.88L1772.44+1793.97C1789.84+1754.55+1806.98+1715+1824.64+1675.7C1836.4+1649.52+1874.72+1642.85+1886.9+1615.89C1911.64+1561.09+1907.7+1493.31+1925.76+1435.85C1932.66+1413.87+1940.61+1391.31+1953.95+1372.46C1969.31+1350.75+1990.82+1341.51+2001.42+1314.25C2025.74+1251.65+2025.9+1203.89+2063.56+1141.57L2062.59+1140.99ZM2024.82+1160.52C1979.79+1190.89+1946.19+1219.7+1920.6+1268.63C1877.3+1351.41+1863.39+1445.73+1821.32+1528.54C1778.48+1612.88+1706.32+1662.88+1737.49+1771.62L1739.31+1770.81C1706.86+1668.92+1782.67+1609.75+1822.7+1529.22C1863.98+1446.16+1879.6+1352.24+1922.9+1269.66C1948.4+1221.05+1980.76+1191.96+2025.26+1161.17L2024.82+1160.52ZM1909.15+1152.44C1761.95+1217.02+1732+1358.86+1679.96+1499.19L1680.94+1499.74C1732.56+1360.57+1762.9+1217.36+1909.33+1152.84L1909.15+1152.44ZM1994.84+1164.92C1841.85+1210.11+1808.75+1354.1+1748.57+1481.84C1736.09+1508.34+1711.87+1525.42+1697.59+1550.27C1680.95+1579.2+1678.99+1614.16+1679.44+1646.7L1680.43+1646.8C1679.69+1614.33+1682.29+1579.73+1698.63+1550.79C1712.75+1525.78+1737.31+1509.19+1749.58+1482.42C1807.52+1355.98+1846.05+1210.12+1994.91+1165.18L1994.84+1164.92ZM2090.35+1190.77L2088.67+1190.62C2083.41+1230.83+2097.69+1299.53+2085.56+1332.94C2071.39+1371.98+2038.23+1403.07+2021.85+1441.55C2003.68+1484.25+1996.82+1531.07+1979.25+1573.17C1960.53+1618.03+1930.88+1655.15+1906.65+1696.74C1875.74+1749.78+1843.83+1800.78+1781.03+1816.79L1781.26+1817.54C1852.07+1806.27+1881.85+1736.98+1916.59+1683.69C1939.72+1648.22+1964.68+1613.33+1980.96+1573.95C1998.45+1531.63+2005.28+1484.84+2023.6+1442.21C2039.96+1404.16+2074.06+1372.71+2086.97+1333.53C2095.17+1308.67+2088.88+1222.29+2090.35+1190.77ZM2107.52+1426.62C2092.76+1482.47+2071.88+1541.49+2043.33+1595.78C2070.83+1547.89+2092.55+1493.9+2108.23+1426.79L2107.52+1426.62ZM2043.33+1595.78C2013.23+1648.21+1976.12+1693.35+1931.86+1739.82C1941.06+1730.77+1950.32+1721.78+1959.47+1712.67C1992.87+1679.45+2020.54+1639.12+2043.33+1595.78ZM1931.86+1739.82C1899.77+1771.39+1867.52+1802.8+1835.38+1834.3L1835.95+1835.43C1870.96+1801.26+1902.9+1770.23+1931.86+1739.82ZM2147.26+1471.08C2117.43+1554.02+2118.62+1631.33+2052.01+1699.07C2014.79+1736.92+1975.04+1773.93+1933.97+1807.56C1922.56+1816.91+1892.63+1830.17+1887.96+1844.87C1899.31+1829.14+1926.63+1816.99+1942.26+1804.17C1990.46+1764.62+2045.79+1719.53+2082.52+1668.87C2123.88+1611.83+2130.1+1536.97+2148.7+1471.48L2147.26+1471.08ZM1887.96+1844.87C1887.94+1844.9+1887.91+1844.93+1887.88+1844.96L1887.37+1847.16C1887.47+1846.39+1887.71+1845.63+1887.96+1844.87Z" stroke="#606060" stroke-width="1.95" fill="#606060" opacity="1" stroke-linejoin="round"/>
</g>
<g id="Roots0" vectornator:layerName="Roots0">
<path d="M1644.3+1751.25C1667.15+1780.08+1698.63+1773.69+1698.63+1773.69C1698.63+1773.69+1666.74+1731.42+1676.34+1749.95C1685.95+1768.48+1836.4+1865.78+1940.12+1835.01C1962.81+1828.28+2011.8+1806.72+2047.21+1768.64C2107.86+1703.4+2154.18+1609.8+2154.18+1609.8C2154.18+1609.8+2143.36+1640.66+2127.98+1673.83C2114.26+1703.44+2095.7+1735.81+2097.11+1735.03C2204.9+1675.16+2214.7+1561.67+2214.7+1561.67C2214.7+1561.67+2209.57+1617+2159.62+1722.91C2138.96+1766.71+2124.24+1785.34+2116.89+1792.64C2065.14+1844.05+2006.23+1893.38+1916.96+1908.94C1804.43+1928.56+1672.96+1794.99+1644.6+1752.68" fill-opacity="0.4375" fill="#606060" opacity="1"/>
</g>
<g id="Water" vectornator:layerName="Water">
<path d="M5475.56-1869.58C5475.56-1869.58+6261.79-1985.25+6567.63-1925.92C6595.18-1920.57+6443.81+2635.54+6413.6+2653.26C6397.93+2662.45+4429.4+2663.75+2313.62+2625.86C-188.846+2581.05-2901.9+2494.88-2898.99+2494.6C-2626.82+2468.29-3903.97-361.474-3559.72-1741.18C-3478.33-2067.36-2525.18-1655.11-1618.51-1710.64C-706.784-1766.48-279.505-2024.14+274.433-2049.77C1428.61-2103.17+1825.57-1731.7+2993.11-1648.79C4269.86-1558.13+5510.66-1885.68+5510.66-1885.68" fill-opacity="0.19848" fill="#007e9f" opacity="1"/>
</g>
</svg>
