<?xml version="1.0" encoding="UTF-8" standalone="no"?> <!-- Created with Vectornator Pro for iOS (http://vectornator.io/) --><!DOCTYPE svg PUBLIC "-//W3C//DTD SVG 1.1//EN" "http://www.w3.org/Graphics/SVG/1.1/DTD/svg11.dtd">
<svg height="100%" style="fill-rule:evenodd;clip-rule:evenodd;stroke-linecap:round;stroke-linejoin:round;" xmlns:xlink="http://www.w3.org/1999/xlink" xmlns="http://www.w3.org/2000/svg" xml:space="preserve" width="100%" xmlns:vectornator="http://vectornator.io" version="1.1" viewBox="0 0 3840 2160">
<metadata>
<vectornator:setting key="RulersVisible" value="1"/>
<vectornator:setting key="SnapToEdges" value="0"/>
<vectornator:setting key="Units" value="Pixels"/>
<vectornator:setting key="DynamicGuides" value="0"/>
<vectornator:setting key="SnapToPoints" value="0"/>
<vectornator:setting key="CMYKEnabledKey" value="0"/>
<vectornator:setting key="SnapToGrid" value="0"/>
<vectornator:setting key="ShowGrid" value="1"/>
<vectornator:setting key="GridSpacing" value="36"/>
</metadata>
<defs/>
<g id="Stone line" vectornator:layerName="Stone line">
<path d="M2237.7+242.524C2221.51+203.557+2198.83+122.752+2198.83+122.752C2198.83+122.752+2137.56+115.647+2046.77+94.9767C1957.18+74.5807+1853.26+60.1185+1793.85+124.061C1754.24+166.689+1659.29+257.089+1621.88+346.887C1591.29+420.316+1570.56+449.795+1557.3+526.34C1544.03+602.885+1578.44+688.249+1621.39+758.962C1658.23+819.615+1737.13+898.314+1787.98+910.231C1898.12+936.038+1983.02+880.905+2037.81+851.795C2081.93+828.352+2174.88+697.637+2188.97+653.132C2203.05+608.627+2217.67+528.742+2217.67+528.742C2217.67+528.742+2235.87+468.486+2245.56+428.602C2255.25+388.719+2251.92+400.161+2256.43+369.209C2260.95+338.257+2257.16+289.354+2237.7+242.524Z" stroke="#606060" stroke-width="1.95" fill="#a1a1a1" opacity="1" stroke-linejoin="round"/>
</g>
<g id="Tree0" vectornator:layerName="Tree0">
<path d="M2196.13+240.62C2189.49+183.681+2176.94+151.923+2176.94+151.923L2018.63+109.562C2018.63+109.562+1924.42+85.9549+1837.24+141.785C1750.06+197.616+1706+252.265+1672.41+337.799C1646.95+402.612+1623.64+424.643+1607.12+499.382C1590.61+574.121+1603.85+631.839+1603.85+631.839C1603.85+631.839+1605.82+678.108+1642.63+739.362C1674.2+791.903+1741.83+852.74+1785.94+862.745C1881.47+884.413+1952.25+867.876+2013.56+809.099C2074.87+750.322+2127.4+683.83+2144.08+631.413C2160.76+578.997+2168.66+518.866+2168.66+518.866C2168.66+518.866+2171.42+509.921+2175.28+496.969C2180.78+478.513+2188.51+451.919+2193.63+431.472C2202.34+396.676+2199.37+406.662+2203.51+379.68C2207.66+352.698+2202.78+297.56+2196.13+240.62Z" stroke="#606060" stroke-width="1.95" fill="#e2e2e2" opacity="1" stroke-linejoin="round"/>
</g>
<g id="Roots2" vectornator:layerName="Roots2">
<path d="M2237.7+242.524C2221.51+203.557+2198.83+122.752+2198.83+122.752C2198.83+122.752+2137.56+115.647+2046.77+94.9767C1957.18+74.5807+1853.26+60.1185+1793.85+124.061C1754.24+166.689+1659.29+257.089+1621.88+346.887C1591.29+420.316+1570.56+449.795+1557.3+526.34C1544.03+602.885+1578.44+688.249+1621.39+758.962C1658.23+819.615+1737.13+898.314+1787.98+910.231C1898.12+936.038+1983.02+880.905+2037.81+851.795C2081.93+828.352+2174.88+697.637+2188.97+653.132C2203.05+608.627+2217.67+528.742+2217.67+528.742C2217.67+528.742+2235.87+468.486+2245.56+428.602C2255.25+388.719+2251.92+400.161+2256.43+369.209C2260.95+338.257+2257.16+289.354+2237.7+242.524Z" stroke="#606060" stroke-width="1.95" fill="#a1a1a1" opacity="1" stroke-linejoin="round"/>
</g>
<g id="Roots1" vectornator:layerName="Roots1">
<path d="M2196.13+240.62C2189.49+183.681+2176.94+151.923+2176.94+151.923L2018.63+109.562C2018.63+109.562+1924.42+85.9549+1837.24+141.785C1750.06+197.616+1706+252.265+1672.41+337.799C1646.95+402.612+1623.64+424.643+1607.12+499.382C1590.61+574.121+1603.85+631.839+1603.85+631.839C1603.85+631.839+1605.82+678.108+1642.63+739.362C1674.2+791.903+1741.83+852.74+1785.94+862.745C1881.47+884.413+1952.25+867.876+2013.56+809.099C2074.87+750.322+2127.4+683.83+2144.08+631.413C2160.76+578.997+2168.66+518.866+2168.66+518.866C2168.66+518.866+2171.42+509.921+2175.28+496.969C2180.78+478.513+2188.51+451.919+2193.63+431.472C2202.34+396.676+2199.37+406.662+2203.51+379.68C2207.66+352.698+2202.78+297.56+2196.13+240.62Z" stroke="#606060" stroke-width="1.95" fill="#e2e2e2" opacity="1" stroke-linejoin="round"/>
</g>
<g id="Shadow" vectornator:layerName="Shadow">
<path d="M2196.13+240.62C2189.49+183.681+2176.94+151.923+2176.94+151.923L2018.63+109.562C2018.63+109.562+1924.42+85.9549+1837.24+141.785C1750.06+197.616+1706+252.265+1672.41+337.799C1646.95+402.612+1623.64+424.643+1607.12+499.382C1590.61+574.121+1603.85+631.839+1603.85+631.839C1603.85+631.839+1605.82+678.108+1642.63+739.362C1674.2+791.903+1741.83+852.74+1785.94+862.745C1881.47+884.413+1952.25+867.876+2013.56+809.099C2074.87+750.322+2127.4+683.83+2144.08+631.413C2160.76+578.997+2168.66+518.866+2168.66+518.866C2168.66+518.866+2171.42+509.921+2175.28+496.969C2180.78+478.513+2188.51+451.919+2193.63+431.472C2202.34+396.676+2199.37+406.662+2203.51+379.68C2207.66+352.698+2202.78+297.56+2196.13+240.62Z" stroke="#606060" stroke-width="1.95" fill="#e2e2e2" opacity="1" stroke-linejoin="round"/>
</g>
<g id="Stone face" vectornator:layerName="Stone face">
<path d="M2141.49+202.903C2092.38+247.909+2076.55+303.483+2040.15+356.002C2023.53+379.989+2001+384.148+1980.61+401.25C1962.66+416.302+1949.54+436.486+1937.51+456.48C1906.54+507.985+1894.87+574.904+1858.45+622.371C1840.35+645.973+1801.57+643.254+1783.84+666.156C1757.55+700.107+1731.72+734.436+1705.66+768.56L1706.7+769.926C1732.84+735.668+1758.75+701.228+1785.11+667.142C1802.67+644.444+1841.48+646.916+1859.62+623.552C1896.5+576.055+1908.52+509.237+1939.51+457.589C1951.36+437.829+1964.37+417.758+1981.74+402.549C2001.75+385.032+2024.83+381.078+2041.5+357.049C2079.79+301.873+2091.11+255.471+2142.31+203.691L2141.49+202.903ZM2100.21+213.059C2049.32+232.05+2009.92+252.206+1973.59+293.799C1912.14+364.153+1876.56+452.608+1816.3+523.287C1754.92+595.276+1673.07+627.011+1677.95+740.027L1679.9+739.662C1672.18+633.014+1759.72+593.21+1817.47+524.271C1877.03+453.17+1914.18+365.502+1975.59+295.343C2011.75+254.037+2050.02+233.324+2100.48+213.786L2100.21+213.059ZM1989.63+178.153C1831.42+206.526+1769.13+337.422+1685.71+461.699L1686.53+462.458C1769.27+339.224+1832.26+207.071+1989.71+178.58L1989.63+178.153ZM2070.03+210.321C1910.71+218.488+1844.86+350.749+1756.48+460.87C1738.15+483.712+1710.61+494.657+1690.91+515.48C1667.97+539.724+1657.89+573.256+1650.71+604.99L1651.65+605.326C1658.52+573.581+1669.15+540.544+1691.8+516.23C1711.38+495.219+1739.14+484.826+1757.32+461.668C1843.22+352.287+1914.8+219.482+2070.04+210.588L2070.03+210.321ZM2156.85+257.786L2155.25+257.249C2140.73+295.12+2138.55+365.249+2118.95+394.898C2096.04+429.541+2056.53+452.016+2031.6+485.604C2003.95+522.863+1986.34+566.783+1959.41+603.611C1930.71+642.851+1893.21+672.003+1859.92+706.774C1817.47+751.123+1774.52+793.241+1709.71+794.127L1709.76+794.909C1781.25+800.505+1826.41+740.104+1872.65+696.415C1903.42+667.337+1935.85+639.248+1960.89+604.769C1987.79+567.716+2005.37+523.821+2033.15+486.654C2057.95+453.481+2098.46+430.874+2120.18+395.803C2133.96+373.549+2148.04+288.096+2156.85+257.786ZM2118.39+491.119C2090.98+541.965+2056.87+594.47+2016.43+640.578C2054.36+600.441+2088.1+553.03+2119.04+491.449L2118.39+491.119ZM2016.43+640.578C1974.9+684.516+1928.27+719.726+1874.36+754.561C1885.43+747.909+1896.53+741.331+1907.56+734.618C1947.8+710.129+1984.13+677.389+2016.43+640.578ZM1874.36+754.561C1835.78+777.752+1797.08+800.744+1758.46+823.862L1758.75+825.094C1800.79+800.058+1839.1+777.352+1874.36+754.561ZM2146.64+543.633C2098.24+617.3+2081.32+692.748+2000.71+743.035C1955.67+771.132+1908.37+797.818+1860.58+820.912C1847.29+827.332+1815.1+833.227+1807.11+846.43C1821.83+833.787+1851.24+828.365+1869.42+819.555C1925.54+792.373+1989.88+761.469+2037.44+720.804C2090.99+675.016+2114.54+603.683+2147.94+544.363L2146.64+543.633ZM1807.11+846.43C1807.08+846.453+1807.05+846.473+1807.02+846.497L1806+848.522C1806.28+847.796+1806.7+847.115+1807.11+846.43Z" stroke="#606060" stroke-width="1.95" fill="#606060" opacity="1" stroke-linejoin="round"/>
</g>
<g id="Stone HL" vectornator:layerName="Stone HL">
<path d="M2141.49+202.903C2092.38+247.909+2076.55+303.483+2040.15+356.002C2023.53+379.989+2001+384.148+1980.61+401.25C1962.66+416.302+1949.54+436.486+1937.51+456.48C1906.54+507.985+1894.87+574.904+1858.45+622.371C1840.35+645.973+1801.57+643.254+1783.84+666.156C1757.55+700.107+1731.72+734.436+1705.66+768.56L1706.7+769.926C1732.84+735.668+1758.75+701.228+1785.11+667.142C1802.67+644.444+1841.48+646.916+1859.62+623.552C1896.5+576.055+1908.52+509.237+1939.51+457.589C1951.36+437.829+1964.37+417.758+1981.74+402.549C2001.75+385.032+2024.83+381.078+2041.5+357.049C2079.79+301.873+2091.11+255.471+2142.31+203.691L2141.49+202.903ZM2100.21+213.059C2049.32+232.05+2009.92+252.206+1973.59+293.799C1912.14+364.153+1876.56+452.608+1816.3+523.287C1754.92+595.276+1673.07+627.011+1677.95+740.027L1679.9+739.662C1672.18+633.014+1759.72+593.21+1817.47+524.271C1877.03+453.17+1914.18+365.502+1975.59+295.343C2011.75+254.037+2050.02+233.324+2100.48+213.786L2100.21+213.059ZM1989.63+178.153C1831.42+206.526+1769.13+337.422+1685.71+461.699L1686.53+462.458C1769.27+339.224+1832.26+207.071+1989.71+178.58L1989.63+178.153ZM2070.03+210.321C1910.71+218.488+1844.86+350.749+1756.48+460.87C1738.15+483.712+1710.61+494.657+1690.91+515.48C1667.97+539.724+1657.89+573.256+1650.71+604.99L1651.65+605.326C1658.52+573.581+1669.15+540.544+1691.8+516.23C1711.38+495.219+1739.14+484.826+1757.32+461.668C1843.22+352.287+1914.8+219.482+2070.04+210.588L2070.03+210.321ZM2156.85+257.786L2155.25+257.249C2140.73+295.12+2138.55+365.249+2118.95+394.898C2096.04+429.541+2056.53+452.016+2031.6+485.604C2003.95+522.863+1986.34+566.783+1959.41+603.611C1930.71+642.851+1893.21+672.003+1859.92+706.774C1817.47+751.123+1774.52+793.241+1709.71+794.127L1709.76+794.909C1781.25+800.505+1826.41+740.104+1872.65+696.415C1903.42+667.337+1935.85+639.248+1960.89+604.769C1987.79+567.716+2005.37+523.821+2033.15+486.654C2057.95+453.481+2098.46+430.874+2120.18+395.803C2133.96+373.549+2148.04+288.096+2156.85+257.786ZM2118.39+491.119C2090.98+541.965+2056.87+594.47+2016.43+640.578C2054.36+600.441+2088.1+553.03+2119.04+491.449L2118.39+491.119ZM2016.43+640.578C1974.9+684.516+1928.27+719.726+1874.36+754.561C1885.43+747.909+1896.53+741.331+1907.56+734.618C1947.8+710.129+1984.13+677.389+2016.43+640.578ZM1874.36+754.561C1835.78+777.752+1797.08+800.744+1758.46+823.862L1758.75+825.094C1800.79+800.058+1839.1+777.352+1874.36+754.561ZM2146.64+543.633C2098.24+617.3+2081.32+692.748+2000.71+743.035C1955.67+771.132+1908.37+797.818+1860.58+820.912C1847.29+827.332+1815.1+833.227+1807.11+846.43C1821.83+833.787+1851.24+828.365+1869.42+819.555C1925.54+792.373+1989.88+761.469+2037.44+720.804C2090.99+675.016+2114.54+603.683+2147.94+544.363L2146.64+543.633ZM1807.11+846.43C1807.08+846.453+1807.05+846.473+1807.02+846.497L1806+848.522C1806.28+847.796+1806.7+847.115+1807.11+846.43Z" stroke="#606060" stroke-width="1.95" fill="#606060" opacity="1" stroke-linejoin="round"/>
</g>
<g id="Tree2" vectornator:layerName="Tree2">
<path d="M2141.49+202.903C2092.38+247.909+2076.55+303.483+2040.15+356.002C2023.53+379.989+2001+384.148+1980.61+401.25C1962.66+416.302+1949.54+436.486+1937.51+456.48C1906.54+507.985+1894.87+574.904+1858.45+622.371C1840.35+645.973+1801.57+643.254+1783.84+666.156C1757.55+700.107+1731.72+734.436+1705.66+768.56L1706.7+769.926C1732.84+735.668+1758.75+701.228+1785.11+667.142C1802.67+644.444+1841.48+646.916+1859.62+623.552C1896.5+576.055+1908.52+509.237+1939.51+457.589C1951.36+437.829+1964.37+417.758+1981.74+402.549C2001.75+385.032+2024.83+381.078+2041.5+357.049C2079.79+301.873+2091.11+255.471+2142.31+203.691L2141.49+202.903ZM2100.21+213.059C2049.32+232.05+2009.92+252.206+1973.59+293.799C1912.14+364.153+1876.56+452.608+1816.3+523.287C1754.92+595.276+1673.07+627.011+1677.95+740.027L1679.9+739.662C1672.18+633.014+1759.72+593.21+1817.47+524.271C1877.03+453.17+1914.18+365.502+1975.59+295.343C2011.75+254.037+2050.02+233.324+2100.48+213.786L2100.21+213.059ZM1989.63+178.153C1831.42+206.526+1769.13+337.422+1685.71+461.699L1686.53+462.458C1769.27+339.224+1832.26+207.071+1989.71+178.58L1989.63+178.153ZM2070.03+210.321C1910.71+218.488+1844.86+350.749+1756.48+460.87C1738.15+483.712+1710.61+494.657+1690.91+515.48C1667.97+539.724+1657.89+573.256+1650.71+604.99L1651.65+605.326C1658.52+573.581+1669.15+540.544+1691.8+516.23C1711.38+495.219+1739.14+484.826+1757.32+461.668C1843.22+352.287+1914.8+219.482+2070.04+210.588L2070.03+210.321ZM2156.85+257.786L2155.25+257.249C2140.73+295.12+2138.55+365.249+2118.95+394.898C2096.04+429.541+2056.53+452.016+2031.6+485.604C2003.95+522.863+1986.34+566.783+1959.41+603.611C1930.71+642.851+1893.21+672.003+1859.92+706.774C1817.47+751.123+1774.52+793.241+1709.71+794.127L1709.76+794.909C1781.25+800.505+1826.41+740.104+1872.65+696.415C1903.42+667.337+1935.85+639.248+1960.89+604.769C1987.79+567.716+2005.37+523.821+2033.15+486.654C2057.95+453.481+2098.46+430.874+2120.18+395.803C2133.96+373.549+2148.04+288.096+2156.85+257.786ZM2118.39+491.119C2090.98+541.965+2056.87+594.47+2016.43+640.578C2054.36+600.441+2088.1+553.03+2119.04+491.449L2118.39+491.119ZM2016.43+640.578C1974.9+684.516+1928.27+719.726+1874.36+754.561C1885.43+747.909+1896.53+741.331+1907.56+734.618C1947.8+710.129+1984.13+677.389+2016.43+640.578ZM1874.36+754.561C1835.78+777.752+1797.08+800.744+1758.46+823.862L1758.75+825.094C1800.79+800.058+1839.1+777.352+1874.36+754.561ZM2146.64+543.633C2098.24+617.3+2081.32+692.748+2000.71+743.035C1955.67+771.132+1908.37+797.818+1860.58+820.912C1847.29+827.332+1815.1+833.227+1807.11+846.43C1821.83+833.787+1851.24+828.365+1869.42+819.555C1925.54+792.373+1989.88+761.469+2037.44+720.804C2090.99+675.016+2114.54+603.683+2147.94+544.363L2146.64+543.633ZM1807.11+846.43C1807.08+846.453+1807.05+846.473+1807.02+846.497L1806+848.522C1806.28+847.796+1806.7+847.115+1807.11+846.43Z" stroke="#606060" stroke-width="1.95" fill="#606060" opacity="1" stroke-linejoin="round"/>
</g>
<g id="Roots0" vectornator:layerName="Roots0">
<path d="M1592.11+698.426C1607.58+731.807+1639.68+732.951+1639.68+732.951C1639.68+732.951+1618.55+684.391+1623.56+704.655C1628.57+724.918+1752.1+854.702+1860.13+849.042C1883.77+847.804+1936.44+838.295+1979.77+809.547C2054+760.302+2120.92+680.127+2120.92+680.127C2120.92+680.127+2103.18+707.604+2080.48+736.26C2060.21+761.836+2034.59+788.971+2036.15+788.539C2154.96+755.541+2191.02+647.482+2191.02+647.482C2191.02+647.482+2173.09+700.078+2099.76+791.374C2069.44+829.132+2050.76+843.797+2041.91+849.177C1979.57+887.066+1910.76+921.25+1820.32+915.506C1706.33+908.266+1609.74+747.656+1592.06+699.895" fill-opacity="0.4375" fill="#606060" opacity="1"/>
</g>
<g id="Earth" vectornator:layerName="Earth">
<path d="M3328.3+4453.78C3345.36+4451.4+3315.43+4991.29+3331.69+4999.82C3355.24+5012.18+247.426+5486.19+48.6543+5138.88C-150.117+4791.56+36.1526+4395.48+65.6121+4392.73C74.5861+4391.9+274.8+4436.75+605.713+4443.24C762.364+4446.32+942.997+4448.75+1135.17+4450.66C1395.18+4453.25+1676.32+4454.87+1947.77+4455.8C2280.36+4456.95+2598.41+4457.05+2845.26+4456.62C3068.74+4456.24+3233.85+4455.41+3298.57+4454.52C3316.33+4454.28+3326.53+4454.03+3328.3+4453.78Z" fill-opacity="0.706019" fill="#535353" opacity="1"/>
</g>
<g id="Water" vectornator:layerName="Water">
<path d="M3158.72+3941.65C3609.8+3809.38+3630.88+4061.47+3672.37+4086.05C3700.53+4102.74+3708.34+4339.76+3674.24+4362.21C3635.64+4387.62-304.882+4448.36-310.852+4447C-322.597+4444.31-425.328+4120.78-1.45204+3993.37C281.974+3908.18+486.166+4023.05+774.45+3985.74C1149.92+3937.16+1150.91+3731.38+1551.12+3911.13C1951.32+4090.88+1951.32+4019.66+2239.61+3877.21C2527.89+3734.77+2643.2+4155.32+3128.2+3945.05" fill-opacity="0.602272" fill="#007e9f" opacity="1"/>
</g>
</svg>
