<?xml version="1.0" encoding="UTF-8" standalone="no"?> <!-- Created with Vectornator Pro for iOS (http://vectornator.io/) --><!DOCTYPE svg PUBLIC "-//W3C//DTD SVG 1.1//EN" "http://www.w3.org/Graphics/SVG/1.1/DTD/svg11.dtd">
<svg height="100%" style="fill-rule:evenodd;clip-rule:evenodd;stroke-linecap:round;stroke-linejoin:round;" xmlns:xlink="http://www.w3.org/1999/xlink" xmlns="http://www.w3.org/2000/svg" xml:space="preserve" width="100%" xmlns:vectornator="http://vectornator.io" version="1.1" viewBox="0 0 3840 2160">
<metadata>
<vectornator:setting key="RulersVisible" value="1"/>
<vectornator:setting key="GridSpacing" value="36"/>
<vectornator:setting key="Units" value="Pixels"/>
<vectornator:setting key="DynamicGuides" value="0"/>
<vectornator:setting key="SnapToPoints" value="0"/>
<vectornator:setting key="CMYKEnabledKey" value="0"/>
<vectornator:setting key="SnapToGrid" value="0"/>
<vectornator:setting key="ShowGrid" value="1"/>
<vectornator:setting key="SnapToEdges" value="0"/>
</metadata>
<defs/>
<g id="Stone line" vectornator:layerName="Stone line">
<path d="M2255.18+1260.65C2244.2+1219.9+2232.23+1136.83+2232.23+1136.83C2232.23+1136.83+2172.41+1121.82+2085.07+1089.51C1998.9+1057.63+1897.74+1029.76+1830.52+1085.43C1785.7+1122.54+1679.8+1199.82+1631.02+1283.99C1591.14+1352.81+1566.74+1379.34+1543.63+1453.51C1520.52+1527.68+1543.53+1616.79+1576.91+1692.49C1605.55+1757.42+1673.53+1845.72+1722.4+1864.15C1828.25+1904.07+1919.59+1860.46+1977.71+1838.72C2024.51+1821.22+2133.68+1703.71+2153.43+1661.42C2173.19+1619.13+2198.08+1541.82+2198.08+1541.82C2198.08+1541.82+2223.96+1484.45+2238.76+1446.16C2253.56+1407.88+2248.77+1418.79+2257.27+1388.69C2265.77+1358.59+2268.39+1309.61+2255.18+1260.65Z" stroke="#606060" stroke-width="1.95" fill="#a1a1a1" opacity="1" stroke-linejoin="round"/>
</g>
<g id="Tree0" vectornator:layerName="Tree0">
<path d="M2214.22+1253.35C2215.04+1196.03+2206.73+1162.91+2206.73+1162.91L2055.28+1100.31C2055.28+1100.31+1964.94+1064.64+1871.24+1108.65C1777.53+1152.66+1726.74+1201.11+1682.3+1281.55C1648.62+1342.5+1622.64+1361.31+1596.54+1433.26C1570.44+1505.22+1576.07+1564.17+1576.07+1564.17C1576.07+1564.17+1571.99+1610.3+1600.52+1675.82C1624.98+1732.03+1684.12+1801.15+1726.55+1816.81C1818.45+1850.72+1890.79+1843.54+1959.22+1793.24C2027.66+1742.94+2088.39+1683.85+2111.75+1634.04C2135.11+1584.24+2150.77+1525.65+2150.77+1525.65C2150.77+1525.65+2154.67+1517.14+2160.18+1504.8C2168.04+1487.22+2179.16+1461.86+2186.9+1442.25C2200.06+1408.89+2195.81+1418.4+2203.44+1392.19C2211.06+1365.97+2213.39+1310.67+2214.22+1253.35Z" stroke="#606060" stroke-width="1.95" fill="#e2e2e2" opacity="1" stroke-linejoin="round"/>
</g>
<g id="Roots2" vectornator:layerName="Roots2">
<path d="M2255.18+1260.65C2244.2+1219.9+2232.23+1136.83+2232.23+1136.83C2232.23+1136.83+2172.41+1121.82+2085.07+1089.51C1998.9+1057.63+1897.74+1029.76+1830.52+1085.43C1785.7+1122.54+1679.8+1199.82+1631.02+1283.99C1591.14+1352.81+1566.74+1379.34+1543.63+1453.51C1520.52+1527.68+1543.53+1616.79+1576.91+1692.49C1605.55+1757.42+1673.53+1845.72+1722.4+1864.15C1828.25+1904.07+1919.59+1860.46+1977.71+1838.72C2024.51+1821.22+2133.68+1703.71+2153.43+1661.42C2173.19+1619.13+2198.08+1541.82+2198.08+1541.82C2198.08+1541.82+2223.96+1484.45+2238.76+1446.16C2253.56+1407.88+2248.77+1418.79+2257.27+1388.69C2265.77+1358.59+2268.39+1309.61+2255.18+1260.65Z" stroke="#606060" stroke-width="1.95" fill="#a1a1a1" opacity="1" stroke-linejoin="round"/>
</g>
<g id="Roots1" vectornator:layerName="Roots1">
<path d="M2214.22+1253.35C2215.04+1196.03+2206.73+1162.91+2206.73+1162.91L2055.28+1100.31C2055.28+1100.31+1964.94+1064.64+1871.24+1108.65C1777.53+1152.66+1726.74+1201.11+1682.3+1281.55C1648.62+1342.5+1622.64+1361.31+1596.54+1433.26C1570.44+1505.22+1576.07+1564.17+1576.07+1564.17C1576.07+1564.17+1571.99+1610.3+1600.52+1675.82C1624.98+1732.03+1684.12+1801.15+1726.55+1816.81C1818.45+1850.72+1890.79+1843.54+1959.22+1793.24C2027.66+1742.94+2088.39+1683.85+2111.75+1634.04C2135.11+1584.24+2150.77+1525.65+2150.77+1525.65C2150.77+1525.65+2154.67+1517.14+2160.18+1504.8C2168.04+1487.22+2179.16+1461.86+2186.9+1442.25C2200.06+1408.89+2195.81+1418.4+2203.44+1392.19C2211.06+1365.97+2213.39+1310.67+2214.22+1253.35Z" stroke="#606060" stroke-width="1.95" fill="#e2e2e2" opacity="1" stroke-linejoin="round"/>
</g>
<g id="Shadow" vectornator:layerName="Shadow">
<path d="M2214.22+1253.35C2215.04+1196.03+2206.73+1162.91+2206.73+1162.91L2055.28+1100.31C2055.28+1100.31+1964.94+1064.64+1871.24+1108.65C1777.53+1152.66+1726.74+1201.11+1682.3+1281.55C1648.62+1342.5+1622.64+1361.31+1596.54+1433.26C1570.44+1505.22+1576.07+1564.17+1576.07+1564.17C1576.07+1564.17+1571.99+1610.3+1600.52+1675.82C1624.98+1732.03+1684.12+1801.15+1726.55+1816.81C1818.45+1850.72+1890.79+1843.54+1959.22+1793.24C2027.66+1742.94+2088.39+1683.85+2111.75+1634.04C2135.11+1584.24+2150.77+1525.65+2150.77+1525.65C2150.77+1525.65+2154.67+1517.14+2160.18+1504.8C2168.04+1487.22+2179.16+1461.86+2186.9+1442.25C2200.06+1408.89+2195.81+1418.4+2203.44+1392.19C2211.06+1365.97+2213.39+1310.67+2214.22+1253.35Z" stroke="#606060" stroke-width="1.95" fill="#e2e2e2" opacity="1" stroke-linejoin="round"/>
</g>
<g id="Stone face" vectornator:layerName="Stone face">
<path d="M2164.95+1208.84C2110.4+1247.07+2087.47+1300.11+2044.55+1347.45C2024.94+1369.07+2002.06+1370.26+1979.62+1384.57C1959.87+1397.16+1944.23+1415.46+1929.71+1433.72C1892.29+1480.76+1872.01+1545.59+1829.73+1587.91C1808.71+1608.96+1770.62+1601.22+1750.05+1621.62C1719.57+1651.86+1689.49+1682.53+1659.21+1712.98L1660.07+1714.46C1690.44+1683.9+1720.61+1653.12+1751.19+1622.76C1771.55+1602.54+1809.71+1610.04+1830.74+1589.24C1873.48+1546.94+1894.09+1482.25+1931.54+1435.08C1945.86+1417.03+1961.37+1398.82+1980.57+1386C2002.69+1371.24+2026.09+1370.32+2045.75+1348.67C2090.89+1298.94+2108.16+1254.41+2165.65+1209.73L2164.95+1208.84ZM2122.69+1213.54C2069.77+1225.75+2028.08+1240.6+1986.65+1277.12C1916.56+1338.88+1869.77+1421.95+1800.83+1484.18C1730.6+1547.57+1645.32+1568.39+1635.45+1681.08L1637.44+1680.97C1643.66+1574.23+1735.64+1546.15+1801.86+1485.31C1870.17+1422.57+1918.41+1340.48+1988.43+1278.91C2029.66+1242.66+2070.29+1227.1+2122.87+1214.3L2122.69+1213.54ZM2017.6+1164.54C1857.04+1172.08+1778.24+1293.76+1679.36+1406.13L1680.08+1406.99C1778.15+1295.57+1857.8+1172.73+2017.63+1164.97L2017.6+1164.54ZM2093.13+1206.9C1934.1+1194.26+1851.6+1316.83+1749.64+1414.51C1728.49+1434.78+1699.76+1442.05+1677.52+1460.13C1651.62+1481.18+1637.26+1513.11+1626.02+1543.65L1626.91+1544.1C1637.85+1513.52+1652.68+1482.15+1678.31+1460.99C1700.45+1442.7+1729.33+1436.01+1750.37+1415.42C1849.77+1318.14+1938.02+1195.78+2093.1+1207.16L2093.13+1206.9ZM2173.03+1265.26L2171.52+1264.52C2152.19+1300.18+2140.9+1369.42+2117.61+1396.27C2090.39+1427.64+2048.29+1444.78+2019.21+1474.84C1986.94+1508.18+1963.76+1549.44+1932.27+1582.45C1898.71+1617.62+1857.74+1641.64+1820.21+1671.79C1772.34+1710.24+1724.28+1746.41+1659.9+1738.85L1659.85+1739.63C1730.01+1754.49+1782.63+1700.47+1834.17+1663.17C1868.47+1638.35+1904.28+1614.72+1933.58+1583.79C1965.08+1550.55+1988.23+1509.32+2020.61+1476.08C2049.51+1446.42+2092.62+1429.27+2118.72+1397.33C2135.28+1377.06+2160.35+1294.16+2173.03+1265.26ZM2104.54+1491.6C2070.74+1538.45+2030.09+1586.07+1983.99+1626.52C2026.83+1591.66+2066.45+1549.04+2105.14+1492.01L2104.54+1491.6ZM1983.99+1626.52C1937.1+1664.68+1886.28+1693.52+1828.3+1721.05C1840.14+1715.89+1852+1710.81+1863.81+1705.59C1906.9+1686.55+1947.18+1658.82+1983.99+1626.52ZM1828.3+1721.05C1787.03+1739.02+1745.67+1756.78+1704.37+1774.68L1704.5+1775.94C1749.43+1756.58+1790.37+1739.06+1828.3+1721.05ZM2125.71+1547.34C2068.14+1614.09+2041.54+1686.69+1955.07+1726.06C1906.76+1748.06+1856.39+1768.36+1806+1785.04C1791.99+1789.68+1759.31+1791.33+1749.67+1803.38C1765.91+1792.76+1795.77+1791.21+1814.95+1784.85C1874.12+1765.2+1941.94+1742.93+1994.39+1708.8C2053.44+1670.37+2086.07+1602.71+2126.9+1548.24L2125.71+1547.34ZM1749.67+1803.38C1749.64+1803.4+1749.6+1803.42+1749.57+1803.44L1748.3+1805.31C1748.67+1804.63+1749.17+1804.01+1749.67+1803.38Z" stroke="#606060" stroke-width="1.95" fill="#606060" opacity="1" stroke-linejoin="round"/>
</g>
<g id="Stone HL" vectornator:layerName="Stone HL">
<path d="M2164.95+1208.84C2110.4+1247.07+2087.47+1300.11+2044.55+1347.45C2024.94+1369.07+2002.06+1370.26+1979.62+1384.57C1959.87+1397.16+1944.23+1415.46+1929.71+1433.72C1892.29+1480.76+1872.01+1545.59+1829.73+1587.91C1808.71+1608.96+1770.62+1601.22+1750.05+1621.62C1719.57+1651.86+1689.49+1682.53+1659.21+1712.98L1660.07+1714.46C1690.44+1683.9+1720.61+1653.12+1751.19+1622.76C1771.55+1602.54+1809.71+1610.04+1830.74+1589.24C1873.48+1546.94+1894.09+1482.25+1931.54+1435.08C1945.86+1417.03+1961.37+1398.82+1980.57+1386C2002.69+1371.24+2026.09+1370.32+2045.75+1348.67C2090.89+1298.94+2108.16+1254.41+2165.65+1209.73L2164.95+1208.84ZM2122.69+1213.54C2069.77+1225.75+2028.08+1240.6+1986.65+1277.12C1916.56+1338.88+1869.77+1421.95+1800.83+1484.18C1730.6+1547.57+1645.32+1568.39+1635.45+1681.08L1637.44+1680.97C1643.66+1574.23+1735.64+1546.15+1801.86+1485.31C1870.17+1422.57+1918.41+1340.48+1988.43+1278.91C2029.66+1242.66+2070.29+1227.1+2122.87+1214.3L2122.69+1213.54ZM2017.6+1164.54C1857.04+1172.08+1778.24+1293.76+1679.36+1406.13L1680.08+1406.99C1778.15+1295.57+1857.8+1172.73+2017.63+1164.97L2017.6+1164.54ZM2093.13+1206.9C1934.1+1194.26+1851.6+1316.83+1749.64+1414.51C1728.49+1434.78+1699.76+1442.05+1677.52+1460.13C1651.62+1481.18+1637.26+1513.11+1626.02+1543.65L1626.91+1544.1C1637.85+1513.52+1652.68+1482.15+1678.31+1460.99C1700.45+1442.7+1729.33+1436.01+1750.37+1415.42C1849.77+1318.14+1938.02+1195.78+2093.1+1207.16L2093.13+1206.9ZM2173.03+1265.26L2171.52+1264.52C2152.19+1300.18+2140.9+1369.42+2117.61+1396.27C2090.39+1427.64+2048.29+1444.78+2019.21+1474.84C1986.94+1508.18+1963.76+1549.44+1932.27+1582.45C1898.71+1617.62+1857.74+1641.64+1820.21+1671.79C1772.34+1710.24+1724.28+1746.41+1659.9+1738.85L1659.85+1739.63C1730.01+1754.49+1782.63+1700.47+1834.17+1663.17C1868.47+1638.35+1904.28+1614.72+1933.58+1583.79C1965.08+1550.55+1988.23+1509.32+2020.61+1476.08C2049.51+1446.42+2092.62+1429.27+2118.72+1397.33C2135.28+1377.06+2160.35+1294.16+2173.03+1265.26ZM2104.54+1491.6C2070.74+1538.45+2030.09+1586.07+1983.99+1626.52C2026.83+1591.66+2066.45+1549.04+2105.14+1492.01L2104.54+1491.6ZM1983.99+1626.52C1937.1+1664.68+1886.28+1693.52+1828.3+1721.05C1840.14+1715.89+1852+1710.81+1863.81+1705.59C1906.9+1686.55+1947.18+1658.82+1983.99+1626.52ZM1828.3+1721.05C1787.03+1739.02+1745.67+1756.78+1704.37+1774.68L1704.5+1775.94C1749.43+1756.58+1790.37+1739.06+1828.3+1721.05ZM2125.71+1547.34C2068.14+1614.09+2041.54+1686.69+1955.07+1726.06C1906.76+1748.06+1856.39+1768.36+1806+1785.04C1791.99+1789.68+1759.31+1791.33+1749.67+1803.38C1765.91+1792.76+1795.77+1791.21+1814.95+1784.85C1874.12+1765.2+1941.94+1742.93+1994.39+1708.8C2053.44+1670.37+2086.07+1602.71+2126.9+1548.24L2125.71+1547.34ZM1749.67+1803.38C1749.64+1803.4+1749.6+1803.42+1749.57+1803.44L1748.3+1805.31C1748.67+1804.63+1749.17+1804.01+1749.67+1803.38Z" stroke="#606060" stroke-width="1.95" fill="#606060" opacity="1" stroke-linejoin="round"/>
</g>
<g id="Tree2" vectornator:layerName="Tree2">
<path d="M2164.95+1208.84C2110.4+1247.07+2087.47+1300.11+2044.55+1347.45C2024.94+1369.07+2002.06+1370.26+1979.62+1384.57C1959.87+1397.16+1944.23+1415.46+1929.71+1433.72C1892.29+1480.76+1872.01+1545.59+1829.73+1587.91C1808.71+1608.96+1770.62+1601.22+1750.05+1621.62C1719.57+1651.86+1689.49+1682.53+1659.21+1712.98L1660.07+1714.46C1690.44+1683.9+1720.61+1653.12+1751.19+1622.76C1771.55+1602.54+1809.71+1610.04+1830.74+1589.24C1873.48+1546.94+1894.09+1482.25+1931.54+1435.08C1945.86+1417.03+1961.37+1398.82+1980.57+1386C2002.69+1371.24+2026.09+1370.32+2045.75+1348.67C2090.89+1298.94+2108.16+1254.41+2165.65+1209.73L2164.95+1208.84ZM2122.69+1213.54C2069.77+1225.75+2028.08+1240.6+1986.65+1277.12C1916.56+1338.88+1869.77+1421.95+1800.83+1484.18C1730.6+1547.57+1645.32+1568.39+1635.45+1681.08L1637.44+1680.97C1643.66+1574.23+1735.64+1546.15+1801.86+1485.31C1870.17+1422.57+1918.41+1340.48+1988.43+1278.91C2029.66+1242.66+2070.29+1227.1+2122.87+1214.3L2122.69+1213.54ZM2017.6+1164.54C1857.04+1172.08+1778.24+1293.76+1679.36+1406.13L1680.08+1406.99C1778.15+1295.57+1857.8+1172.73+2017.63+1164.97L2017.6+1164.54ZM2093.13+1206.9C1934.1+1194.26+1851.6+1316.83+1749.64+1414.51C1728.49+1434.78+1699.76+1442.05+1677.52+1460.13C1651.62+1481.18+1637.26+1513.11+1626.02+1543.65L1626.91+1544.1C1637.85+1513.52+1652.68+1482.15+1678.31+1460.99C1700.45+1442.7+1729.33+1436.01+1750.37+1415.42C1849.77+1318.14+1938.02+1195.78+2093.1+1207.16L2093.13+1206.9ZM2173.03+1265.26L2171.52+1264.52C2152.19+1300.18+2140.9+1369.42+2117.61+1396.27C2090.39+1427.64+2048.29+1444.78+2019.21+1474.84C1986.94+1508.18+1963.76+1549.44+1932.27+1582.45C1898.71+1617.62+1857.74+1641.64+1820.21+1671.79C1772.34+1710.24+1724.28+1746.41+1659.9+1738.85L1659.85+1739.63C1730.01+1754.49+1782.63+1700.47+1834.17+1663.17C1868.47+1638.35+1904.28+1614.72+1933.58+1583.79C1965.08+1550.55+1988.23+1509.32+2020.61+1476.08C2049.51+1446.42+2092.62+1429.27+2118.72+1397.33C2135.28+1377.06+2160.35+1294.16+2173.03+1265.26ZM2104.54+1491.6C2070.74+1538.45+2030.09+1586.07+1983.99+1626.52C2026.83+1591.66+2066.45+1549.04+2105.14+1492.01L2104.54+1491.6ZM1983.99+1626.52C1937.1+1664.68+1886.28+1693.52+1828.3+1721.05C1840.14+1715.89+1852+1710.81+1863.81+1705.59C1906.9+1686.55+1947.18+1658.82+1983.99+1626.52ZM1828.3+1721.05C1787.03+1739.02+1745.67+1756.78+1704.37+1774.68L1704.5+1775.94C1749.43+1756.58+1790.37+1739.06+1828.3+1721.05ZM2125.71+1547.34C2068.14+1614.09+2041.54+1686.69+1955.07+1726.06C1906.76+1748.06+1856.39+1768.36+1806+1785.04C1791.99+1789.68+1759.31+1791.33+1749.67+1803.38C1765.91+1792.76+1795.77+1791.21+1814.95+1784.85C1874.12+1765.2+1941.94+1742.93+1994.39+1708.8C2053.44+1670.37+2086.07+1602.71+2126.9+1548.24L2125.71+1547.34ZM1749.67+1803.38C1749.64+1803.4+1749.6+1803.42+1749.57+1803.44L1748.3+1805.31C1748.67+1804.63+1749.17+1804.01+1749.67+1803.38Z" stroke="#606060" stroke-width="1.95" fill="#606060" opacity="1" stroke-linejoin="round"/>
</g>
<g id="Roots0" vectornator:layerName="Roots0">
<path d="M1555.75+1628.66C1566.74+1663.77+1598.42+1669.08+1598.42+1669.08C1598.42+1669.08+1583.8+1618.19+1586.13+1638.93C1588.46+1659.67+1694.05+1804.43+1801.9+1812.87C1825.49+1814.72+1878.96+1812.15+1925.66+1789.28C2005.66+1750.12+2082.45+1679.33+2082.45+1679.33C2082.45+1679.33+2061.29+1704.27+2035.04+1729.72C2011.62+1752.44+1982.69+1776.02+1984.29+1775.79C2106.38+1758.53+2156.2+1656.09+2156.2+1656.09C2156.2+1656.09+2131.58+1705.9+2047+1786.88C2012.01+1820.37+1991.59+1832.48+1982.12+1836.66C1915.38+1866.12+1842.7+1891.06+1753.78+1873.59C1641.7+1851.58+1566.83+1679.77+1555.52+1630.11" fill-opacity="0.4375" fill="#606060" opacity="1"/>
</g>
<g id="Earth" vectornator:layerName="Earth">
<path d="M3328.3+4453.78C3345.36+4451.4+3315.43+4991.29+3331.69+4999.82C3355.24+5012.18+247.426+5486.19+48.6543+5138.88C-150.117+4791.56+36.1526+4395.48+65.6121+4392.73C74.5861+4391.9+274.8+4436.75+605.713+4443.24C762.364+4446.32+942.997+4448.75+1135.17+4450.66C1395.18+4453.25+1676.32+4454.87+1947.77+4455.8C2280.36+4456.95+2598.41+4457.05+2845.26+4456.62C3068.74+4456.24+3233.85+4455.41+3298.57+4454.52C3316.33+4454.28+3326.53+4454.03+3328.3+4453.78Z" fill-opacity="0.706019" fill="#535353" opacity="1"/>
</g>
<g id="Water" vectornator:layerName="Water">
<path d="M3753.61+1151.96C3753.61+1151.96+8840.16+1568.39+8889.03+1593.39C8922.21+1610.36+8963.7+4666.08+8923.53+4688.92C8878.07+4714.76-3464.84+4485.12-3457.7+4484.46C-2924.27+4434.48-3974.16+1101.18-3474.89+971.605C-3210.16+902.903-1184.72+972.063+6.97948+1133.38C76.8141+1142.84+207.166+1153.79+267.015+1162.57C370.466+1177.75+414.271+1144.73+481.942+1157.26C549.54+1169.78+662.375+1133.38+662.375+1133.38C662.375+1133.38+729.115+1092.53+789.739+1061.74C850.363+1030.95+858.436+1085.85+904.871+1010.23C951.306+934.603+912.719+792.806+975.479+759.249C1038.24+725.693+1077.65+814.934+1155.91+876C1185.83+899.343+1230.05+953.717+1323.08+995.404C1416.11+1037.09+1458.5+1040.54+1528.04+1042.75C1597.58+1044.95+1680.06+1035.79+1768.85+955.603C1857.65+875.42+1865.56+776.629+1882.58+703.86C1914.6+566.895+1941.95+182.473+1929.74+116.22C1917.54+49.9677+1810.68-84.8426+1859.07+141.002C1907.46+366.846+2142.81+877.042+2174.32+968.338C2192.1+1019.86+2266.56+1086.95+2330.24+1095.57C2393.93+1104.19+2458.74+1082.97+2458.74+1082.97L2617.95+1027.24C2617.95+1027.24+2730.72+976.83+2798.38+1003.36C2866.04+1029.9+2876.19+1074.37+2948.5+1117.49C3020.8+1160.6+2993.79+1145.33+3087.6+1175.84C3181.42+1206.34+3323.76+1239.52+3323.76+1239.52L3488.27+1239.52C3488.27+1239.52+3617.2+1184.53+3668.7+1181.14C3727.35+1177.28+3748.31+1146.65+3748.31+1146.65" fill-opacity="0.602272" fill="#007e9f" opacity="1"/>
</g>
</svg>
