<?xml version="1.0" encoding="UTF-8" standalone="no"?> <!-- Created with Vectornator Pro for iOS (http://vectornator.io/) --><!DOCTYPE svg PUBLIC "-//W3C//DTD SVG 1.1//EN" "http://www.w3.org/Graphics/SVG/1.1/DTD/svg11.dtd">
<svg height="100%" style="fill-rule:evenodd;clip-rule:evenodd;stroke-linecap:round;stroke-linejoin:round;" xmlns:xlink="http://www.w3.org/1999/xlink" xmlns="http://www.w3.org/2000/svg" xml:space="preserve" width="100%" xmlns:vectornator="http://vectornator.io" version="1.1" viewBox="0 0 3840 2160">
<metadata>
<vectornator:setting key="RulersVisible" value="1"/>
<vectornator:setting key="SnapToEdges" value="0"/>
<vectornator:setting key="Units" value="Pixels"/>
<vectornator:setting key="DynamicGuides" value="0"/>
<vectornator:setting key="SnapToPoints" value="0"/>
<vectornator:setting key="CMYKEnabledKey" value="0"/>
<vectornator:setting key="SnapToGrid" value="0"/>
<vectornator:setting key="ShowGrid" value="1"/>
<vectornator:setting key="GridSpacing" value="36"/>
</metadata>
<defs/>
<g id="Earth" vectornator:layerName="Earth">
<path d="M6316.67+705.773C6333.72+703.393+5861.89+2773.85+5878.15+2782.38C5901.7+2794.73-1728.57+2732.42-1927.34+2385.1C-2126.12+2037.79-2941+1718.22-2342.46+1071.21C-1743.92+424.207-963.967+860.485-283.866+768.272C396.234+676.06+196.829+656.744+389.005+658.655C649.013+661.241+802.186+431.636+1314.36+604.576C1407.38+635.987+1592.49+559.302+1620.43+637.868C1680.74+807.492+2122.54+759.556+2253.69+611.482C2312.12+545.517+2369.31+663.447+2398.81+651.061C3077.46+366.159+4059.73+864.247+4890.49+900.197C5757.37+937.711+6314.9+706.02+6316.67+705.773Z" fill-opacity="0.706019" fill="#834700" opacity="1"/>
</g>
<g id="Tree0" vectornator:layerName="Tree0">
<path d="M1945.36+382.207C1945.36+382.207+1848.23+381.289+1776.52+455.957C1704.81+530.626+1674.77+594.064+1662.11+685.082C1652.52+754.051+1635+780.929+1636.42+857.457C1637.85+933.985+1664.21+986.989+1664.21+986.989C1664.21+986.989+1676.94+1031.51+1727.05+1082.46C1751.01+1106.82+1786.43+1130.81+1820.96+1147.39C1811.99+1158.55+1801.5+1179.24+1803.99+1214.71C1810.43+1306.71+1853.93+1305.9+1883.17+1369.08C1912.42+1432.27+1933.38+1454.75+1915.42+1522.43C1897.46+1590.11+1843.57+1589.57+1811.33+1639.8C1779.09+1690.03+1780.49+1717.01+1791.08+1761.43C1801.67+1805.84+1878.58+1821.71+1878.58+1821.71C1878.58+1821.71+1783.71+1787.84+1826.08+1697.96C1848.87+1649.6+1920.02+1577.43+1920.02+1577.43C1920.02+1577.43+1965.16+1694.8+2037.92+1701.14C2069.47+1703.9+2113.74+1718.66+2149.39+1716.14C2212+1711.72+2260.17+1717.16+2265.42+1733.93C2290.36+1813.47+2310.55+1829.11+2310.55+1829.11C2310.55+1829.11+2419.99+1875.73+2432.14+1906.3C2451.49+1954.95+2408.17+2147.4+2408.17+2147.39L2492.92+1952.83C2492.92+1952.83+2505.83+1892.55+2490.17+1866.11C2460.78+1816.49+2380.6+1818.59+2347.39+1780.46C2312.39+1740.27+2345.41+1694.21+2321.61+1653.55C2283.85+1589.04+2165.02+1626.05+2040.67+1598.55C1953.37+1579.25+2001.08+1468.48+1997.39+1407.14C1992.43+1324.49+1956.86+1277.08+1921.86+1209.39C1911.43+1189.22+1911.31+1176.41+1915.33+1168.14C2002.16+1162.84+2061.37+1130.02+2104.02+1063.55C2149.88+992.067+2185.4+915.134+2189.36+860.27C2193.32+805.406+2186.92+745.083+2186.92+745.082C2186.92+745.082+2187.51+735.734+2188.24+722.239C2189.27+703.008+2190.57+675.348+2190.77+654.27C2191.1+618.401+2190.54+628.818+2188.27+601.614C2185.99+574.41+2168.35+521.921+2148.58+468.114C2128.81+414.306+2109.17+386.364+2109.17+386.364L1945.36+382.207Z" stroke="#b87858" stroke-width="3.78" fill="#8d5b46" opacity="1" stroke-linejoin="round"/>
</g>
<g id="Stone line" vectornator:layerName="Stone line">
<path d="M2123.66+352.906C2123.66+352.906+2062.42+360.303+1969.31+361.438C1877.44+362.556+1773+372.813+1730.19+448.875C1701.65+499.583+1630.47+609.663+1615.09+705.719C1602.52+784.265+1589.28+817.788+1594.28+895.312C1599.28+972.837+1652.67+1047.79+1710.97+1106.5C1725.37+1121.01+1743.71+1136.04+1763.5+1150.25C1755.11+1176.79+1736.72+1227.69+1708.38+1266C1692.41+1287.57+1652.2+1309.75+1575.56+1308.78C1480.89+1307.58+1445.63+1341.55+1406.34+1420.81C1372.95+1488.2+1365.12+1520.82+1265.22+1514.97C1151.35+1508.3+1090.74+1486.27+1044.41+1523.78C1001.94+1558.16+982.964+1602.7+958.938+1711.19C932.637+1829.94+815.563+1917.59+815.562+1917.59C815.562+1917.59+911.206+1906.49+943.031+1864.12C973.676+1823.33+1011.81+1747.23+1026.94+1715.47C1063.27+1639.17+1105.55+1611.2+1164.09+1601.84C1195.81+1596.78+1283.03+1633.69+1283.03+1633.69C1283.03+1633.69+1274.41+1672.67+1316+1712.16C1354.37+1748.59+1441.8+1784.9+1472.97+1803.56C1545.21+1846.81+1486.03+1999.5+1486.03+1999.5C1486.03+1999.5+1591.77+1878.98+1519.22+1815.25C1423.41+1731.09+1386.82+1714.53+1394.5+1627.53C1403.75+1522.77+1487.01+1533.67+1511.88+1484.62C1534.37+1440.26+1607.25+1388.28+1607.25+1388.28C1607.25+1388.28+1600.69+1434.89+1620.31+1451.59C1632.2+1461.72+1634.04+1480.33+1632.44+1498.47C1637.02+1474.09+1641.05+1445.14+1639.69+1422.56C1637.09+1379.43+1653.09+1375.28+1653.09+1375.28C1653.09+1375.28+1739.62+1357.15+1770.56+1336.03C1814.03+1306.37+1844.68+1270.35+1869.69+1207.31C1883.93+1211.95+1897.13+1214.69+1908.31+1214.62C2021.44+1213.96+2091.1+1140.49+2137.56+1099.38C2174.98+1066.26+2234.78+917.439+2238.06+870.875C2241.35+824.311+2236.91+743.219+2236.91+743.219C2236.91+743.219+2240.5+680.388+2240.59+639.344C2240.69+598.3+2240.13+610.211+2237.28+579.062C2234.43+547.913+2219.31+501.23+2189.44+460.25C2164.58+426.15+2123.66+352.906+2123.66+352.906ZM1632.44+1498.47C1627.36+1525.49+1621.59+1546.81+1621.59+1546.81C1621.59+1546.81+1630.26+1523.11+1632.44+1498.47Z" stroke="#b77859" stroke-width="8.69" fill="#c28a72" opacity="1" stroke-linejoin="round"/>
</g>
<g id="Roots2" vectornator:layerName="Roots2">
<path d="M2123.64+352.895C2123.64+352.895+2062.41+360.323+1969.3+361.457C1877.42+362.576+1773.02+372.802+1730.21+448.864C1701.66+499.572+1630.49+609.683+1615.11+705.739C1602.54+784.284+1589.27+817.776+1594.27+895.301C1599.27+972.826+1652.69+1047.78+1710.99+1106.49C1760.99+1156.84+1856.1+1214.92+1908.33+1214.61C1948.22+1214.38+1982.61+1205+2012.58+1191.27C2088.2+1219.47+2138.35+1268.24+2178.44+1352.69C2190.7+1378.52+2185.71+1422.74+2200.92+1451.61C2222.2+1491.97+2273.88+1498.62+2316.52+1530.32C2352.73+1557.23+2404.89+1617.62+2448.22+1642.82C2495.97+1670.6+2539.03+1685.98+2606.86+1700.99C2666.58+1714.2+2724.91+1731.69+2769.91+1742.42C2873.63+1767.14+2855.63+1825.21+2809.8+1878.33C2761.43+1934.39+2763.74+2020.92+2763.74+2020.92C2763.74+2020.92+2777.66+1935.26+2849.39+1879.08C2902.11+1837.79+2941.95+1792.99+2921.51+1761.81C2876.31+1692.88+2773.98+1681.19+2680.9+1630.48C2627.81+1601.56+2533.14+1601.82+2495.82+1579.37C2475.36+1567.06+2435.88+1542.49+2404.1+1517.43C2386.95+1503.9+2372.05+1490.24+2363.59+1478.28C2355.16+1466.36+2344.7+1450.14+2334.9+1433.7C2320.35+1409.27+2307.29+1384.35+2304.56+1372.25C2285.59+1287.98+2221.89+1243.52+2221.89+1243.52C2221.89+1243.52+2277.45+1223.96+2321.72+1238.81C2352.84+1249.24+2370.07+1290.94+2394.52+1306.66C2420.33+1323.26+2420+1351.84+2422.06+1365.98C2428.83+1412.56+2414.63+1481.08+2414.63+1481.08C2414.63+1481.08+2428.87+1427.37+2449.53+1416.48C2470.2+1405.59+2497.3+1437.52+2497.3+1437.52C2497.3+1437.52+2523.7+1476.9+2590.8+1524.69C2617.34+1543.6+2634.75+1571.56+2682.91+1587.16C2717.1+1598.24+2743.59+1578.72+2815.47+1588.29C2867.87+1595.26+2889.19+1607.58+2923.89+1616.82C2928.31+1618+2956.12+1690.5+3008.11+1726.82C3034.46+1745.22+3093.74+1717.66+3104.8+1741.67C3112.76+1758.95+3141.71+1776.16+3138.44+1794.27C3129.06+1846.3+3058.32+1895.58+3058.32+1895.58C3058.32+1895.58+3140.68+1845.75+3164.31+1790.85C3173.14+1770.32+3148.9+1746.05+3145.03+1727.81C3138.44+1696.73+3072.65+1701.07+3041.45+1684.39C3005.23+1665.01+3003.6+1627.11+3006.17+1626.99C3041.84+1625.38+3049.89+1613.04+3094.23+1620.04C3150.43+1628.9+3151.64+1615.55+3195.2+1660.88C3238.75+1706.2+3307.88+1753.58+3268.46+1801.33C3195.86+1889.26+3255.05+1965.43+3255.05+1965.43C3255.05+1965.43+3248.73+1868+3315.71+1811.46C3382.68+1754.92+3317.63+1719.02+3329.24+1704.71C3347.54+1682.14+3271.93+1686.32+3260.3+1624.58C3248.66+1562.84+2724.13+1551.7+2661.3+1439.24C2642.37+1405.36+2567.16+1392.95+2546.23+1367.76C2497.68+1309.35+2502.79+1255.41+2474.24+1229.36C2402.24+1163.68+2360.54+1146.47+2191.21+1127.93C2166.94+1125.27+2143.16+1120.75+2120.08+1115.14C2126.23+1109.58+2132.08+1104.24+2137.55+1099.39C2174.97+1066.28+2234.79+917.428+2238.08+870.864C2241.37+824.299+2236.89+743.239+2236.89+743.239C2236.89+743.239+2240.48+680.376+2240.58+639.332C2240.68+598.289+2240.12+610.2+2237.27+579.051C2234.42+547.902+2219.33+501.251+2189.46+460.27C2164.6+426.169+2123.64+352.895+2123.64+352.895Z" stroke="#c28a72" stroke-width="3.16" fill="#af6446" opacity="1" stroke-linejoin="round"/>
</g>
<g id="Roots1" vectornator:layerName="Roots1">
<path d="M2148.58+468.128C2128.81+414.32+2109.18+386.377+2109.18+386.377L1945.35+382.209C1945.35+382.209+1848.24+381.286+1776.53+455.954C1704.82+530.623+1674.76+594.06+1662.1+685.078C1652.51+754.047+1634.99+780.919+1636.41+857.447C1637.83+933.975+1664.2+986.996+1664.2+986.996C1664.2+986.996+1676.93+1031.52+1727.05+1082.47C1770.03+1126.17+1850.01+1169.51+1895.23+1168.92C1993.18+1167.65+2058.14+1135.02+2104+1063.54C2149.87+992.053+2185.39+915.123+2189.35+860.258C2193.31+805.394+2186.93+745.084+2186.93+745.084C2186.93+745.084+2187.53+735.741+2188.25+722.246C2189.28+703.015+2190.58+675.353+2190.77+654.275C2191.11+618.405+2190.55+628.811+2188.28+601.607C2186+574.402+2168.36+521.935+2148.58+468.128Z" stroke="#606060" stroke-width="1.95" fill="#e2e2e2" opacity="1" stroke-linejoin="round"/>
</g>
<g id="Shadow" vectornator:layerName="Shadow">
<path d="M2148.58+468.128C2128.81+414.32+2109.18+386.377+2109.18+386.377L1945.35+382.209C1945.35+382.209+1848.24+381.286+1776.53+455.954C1704.82+530.623+1674.76+594.06+1662.1+685.078C1652.51+754.047+1634.99+780.919+1636.41+857.447C1637.83+933.975+1664.2+986.996+1664.2+986.996C1664.2+986.996+1676.93+1031.52+1727.05+1082.47C1770.03+1126.17+1850.01+1169.51+1895.23+1168.92C1993.18+1167.65+2058.14+1135.02+2104+1063.54C2149.87+992.053+2185.39+915.123+2189.35+860.258C2193.31+805.394+2186.93+745.084+2186.93+745.084C2186.93+745.084+2187.53+735.741+2188.25+722.246C2189.28+703.015+2190.58+675.353+2190.77+654.275C2191.11+618.405+2190.55+628.811+2188.28+601.607C2186+574.402+2168.36+521.935+2148.58+468.128Z" stroke="#606060" stroke-width="1.95" fill="#e2e2e2" opacity="1" stroke-linejoin="round"/>
</g>
<g id="Stone face" vectornator:layerName="Stone face">
<path d="M2086.64+444.233C2049.41+499.475+2047.01+557.211+2023.91+616.785C2013.35+643.994+1992.42+653.306+1976.59+674.701C1962.67+693.533+1954.62+716.226+1947.61+738.477C1929.54+795.797+1933.83+863.591+1909.53+918.257C1897.44+945.439+1859.11+951.861+1847.22+978.276C1829.6+1017.43+1812.52+1056.85+1795.16+1096.12L1796.49+1097.21C1813.89+1057.79+1831.03+1018.24+1848.69+978.936C1860.45+952.762+1898.77+946.089+1910.94+919.131C1935.69+864.329+1931.75+796.552+1949.81+739.089C1956.71+717.104+1964.66+694.55+1978+675.7C1993.35+653.99+2014.87+644.748+2025.47+617.486C2049.79+554.887+2049.95+507.124+2087.61+444.809L2086.64+444.233ZM2048.87+463.761C2003.84+494.125+1970.24+522.934+1944.64+571.87C1901.34+654.645+1887.43+748.967+1845.37+831.777C1802.53+916.122+1730.37+966.117+1761.54+1074.86L1763.36+1074.05C1730.91+972.161+1806.72+912.99+1846.75+832.459C1888.03+749.403+1903.64+655.479+1946.95+572.904C1972.45+524.287+2004.81+495.2+2049.31+464.404L2048.87+463.761ZM1933.2+455.679C1786+520.263+1756.05+662.095+1704.01+802.432L1704.99+802.977C1756.61+663.813+1786.95+520.596+1933.38+456.075L1933.2+455.679ZM2018.89+468.155C1865.9+513.351+1832.8+657.342+1772.62+785.078C1760.14+811.574+1735.92+828.654+1721.64+853.506C1705+882.443+1703.04+917.402+1703.48+949.934L1704.48+950.041C1703.73+917.57+1706.34+882.965+1722.68+854.027C1736.8+829.021+1761.36+812.425+1773.63+785.657C1831.57+659.222+1870.1+513.362+2018.96+468.414L2018.89+468.155ZM2114.4+494.004L2112.72+493.855C2107.46+534.072+2121.74+602.767+2109.61+636.177C2095.44+675.216+2062.28+706.307+2045.9+744.792C2027.73+787.484+2020.87+834.306+2003.3+876.41C1984.58+921.272+1954.93+958.384+1930.7+999.976C1899.79+1053.02+1867.88+1104.02+1805.07+1120.03L1805.31+1120.78C1876.12+1109.5+1905.9+1040.22+1940.64+986.929C1963.77+951.461+1988.73+916.566+2005.01+877.19C2022.5+834.874+2029.33+788.083+2047.65+745.451C2064+707.399+2098.11+675.945+2111.02+636.768C2119.22+611.909+2112.93+525.532+2114.4+494.004ZM2131.57+729.861C2116.8+785.708+2095.92+844.732+2067.38+899.019C2094.88+851.124+2116.6+797.139+2132.28+730.031L2131.57+729.861ZM2067.38+899.019C2037.28+951.45+2000.17+996.588+1955.91+1043.06C1965.11+1034.01+1974.37+1025.01+1983.52+1015.91C2016.92+982.689+2044.59+942.361+2067.38+899.019ZM1955.91+1043.06C1923.82+1074.63+1891.57+1106.03+1859.43+1137.54L1860+1138.67C1895.01+1104.5+1926.95+1073.47+1955.91+1043.06ZM2171.31+774.314C2141.48+857.255+2142.67+934.569+2076.06+1002.31C2038.84+1040.16+1999.09+1077.17+1958.02+1110.8C1946.61+1120.14+1916.68+1133.4+1912.01+1148.11C1923.36+1132.37+1950.68+1120.23+1966.3+1107.41C2014.51+1067.86+2069.84+1022.77+2106.57+972.107C2147.93+915.068+2154.15+840.204+2172.75+774.719L2171.31+774.314ZM1912.01+1148.11C1911.98+1148.14+1911.95+1148.17+1911.93+1148.2L1911.41+1150.4C1911.51+1149.63+1911.76+1148.87+1912.01+1148.11Z" stroke="#606060" stroke-width="1.95" fill="#606060" opacity="1" stroke-linejoin="round"/>
</g>
<g id="Stone HL" vectornator:layerName="Stone HL">
<path d="M2086.64+444.233C2049.41+499.475+2047.01+557.211+2023.91+616.785C2013.35+643.994+1992.42+653.306+1976.59+674.701C1962.67+693.533+1954.62+716.226+1947.61+738.477C1929.54+795.797+1933.83+863.591+1909.53+918.257C1897.44+945.439+1859.11+951.861+1847.22+978.276C1829.6+1017.43+1812.52+1056.85+1795.16+1096.12L1796.49+1097.21C1813.89+1057.79+1831.03+1018.24+1848.69+978.936C1860.45+952.762+1898.77+946.089+1910.94+919.131C1935.69+864.329+1931.75+796.552+1949.81+739.089C1956.71+717.104+1964.66+694.55+1978+675.7C1993.35+653.99+2014.87+644.748+2025.47+617.486C2049.79+554.887+2049.95+507.124+2087.61+444.809L2086.64+444.233ZM2048.87+463.761C2003.84+494.125+1970.24+522.934+1944.64+571.87C1901.34+654.645+1887.43+748.967+1845.37+831.777C1802.53+916.122+1730.37+966.117+1761.54+1074.86L1763.36+1074.05C1730.91+972.161+1806.72+912.99+1846.75+832.459C1888.03+749.403+1903.64+655.479+1946.95+572.904C1972.45+524.287+2004.81+495.2+2049.31+464.404L2048.87+463.761ZM1933.2+455.679C1786+520.263+1756.05+662.095+1704.01+802.432L1704.99+802.977C1756.61+663.813+1786.95+520.596+1933.38+456.075L1933.2+455.679ZM2018.89+468.155C1865.9+513.351+1832.8+657.342+1772.62+785.078C1760.14+811.574+1735.92+828.654+1721.64+853.506C1705+882.443+1703.04+917.402+1703.48+949.934L1704.48+950.041C1703.73+917.57+1706.34+882.965+1722.68+854.027C1736.8+829.021+1761.36+812.425+1773.63+785.657C1831.57+659.222+1870.1+513.362+2018.96+468.414L2018.89+468.155ZM2114.4+494.004L2112.72+493.855C2107.46+534.072+2121.74+602.767+2109.61+636.177C2095.44+675.216+2062.28+706.307+2045.9+744.792C2027.73+787.484+2020.87+834.306+2003.3+876.41C1984.58+921.272+1954.93+958.384+1930.7+999.976C1899.79+1053.02+1867.88+1104.02+1805.07+1120.03L1805.31+1120.78C1876.12+1109.5+1905.9+1040.22+1940.64+986.929C1963.77+951.461+1988.73+916.566+2005.01+877.19C2022.5+834.874+2029.33+788.083+2047.65+745.451C2064+707.399+2098.11+675.945+2111.02+636.768C2119.22+611.909+2112.93+525.532+2114.4+494.004ZM2131.57+729.861C2116.8+785.708+2095.92+844.732+2067.38+899.019C2094.88+851.124+2116.6+797.139+2132.28+730.031L2131.57+729.861ZM2067.38+899.019C2037.28+951.45+2000.17+996.588+1955.91+1043.06C1965.11+1034.01+1974.37+1025.01+1983.52+1015.91C2016.92+982.689+2044.59+942.361+2067.38+899.019ZM1955.91+1043.06C1923.82+1074.63+1891.57+1106.03+1859.43+1137.54L1860+1138.67C1895.01+1104.5+1926.95+1073.47+1955.91+1043.06ZM2171.31+774.314C2141.48+857.255+2142.67+934.569+2076.06+1002.31C2038.84+1040.16+1999.09+1077.17+1958.02+1110.8C1946.61+1120.14+1916.68+1133.4+1912.01+1148.11C1923.36+1132.37+1950.68+1120.23+1966.3+1107.41C2014.51+1067.86+2069.84+1022.77+2106.57+972.107C2147.93+915.068+2154.15+840.204+2172.75+774.719L2171.31+774.314ZM1912.01+1148.11C1911.98+1148.14+1911.95+1148.17+1911.93+1148.2L1911.41+1150.4C1911.51+1149.63+1911.76+1148.87+1912.01+1148.11Z" stroke="#606060" stroke-width="1.95" fill="#606060" opacity="1" stroke-linejoin="round"/>
</g>
<g id="Tree2" vectornator:layerName="Tree2">
<path d="M2086.64+444.233C2049.41+499.475+2047.01+557.211+2023.91+616.785C2013.35+643.994+1992.42+653.306+1976.59+674.701C1962.67+693.533+1954.62+716.226+1947.61+738.477C1929.54+795.797+1933.83+863.591+1909.53+918.257C1897.44+945.439+1859.11+951.861+1847.22+978.276C1829.6+1017.43+1812.52+1056.85+1795.16+1096.12L1796.49+1097.21C1813.89+1057.79+1831.03+1018.24+1848.69+978.936C1860.45+952.762+1898.77+946.089+1910.94+919.131C1935.69+864.329+1931.75+796.552+1949.81+739.089C1956.71+717.104+1964.66+694.55+1978+675.7C1993.35+653.99+2014.87+644.748+2025.47+617.486C2049.79+554.887+2049.95+507.124+2087.61+444.809L2086.64+444.233ZM2048.87+463.761C2003.84+494.125+1970.24+522.934+1944.64+571.87C1901.34+654.645+1887.43+748.967+1845.37+831.777C1802.53+916.122+1730.37+966.117+1761.54+1074.86L1763.36+1074.05C1730.91+972.161+1806.72+912.99+1846.75+832.459C1888.03+749.403+1903.64+655.479+1946.95+572.904C1972.45+524.287+2004.81+495.2+2049.31+464.404L2048.87+463.761ZM1933.2+455.679C1786+520.263+1756.05+662.095+1704.01+802.432L1704.99+802.977C1756.61+663.813+1786.95+520.596+1933.38+456.075L1933.2+455.679ZM2018.89+468.155C1865.9+513.351+1832.8+657.342+1772.62+785.078C1760.14+811.574+1735.92+828.654+1721.64+853.506C1705+882.443+1703.04+917.402+1703.48+949.934L1704.48+950.041C1703.73+917.57+1706.34+882.965+1722.68+854.027C1736.8+829.021+1761.36+812.425+1773.63+785.657C1831.57+659.222+1870.1+513.362+2018.96+468.414L2018.89+468.155ZM2114.4+494.004L2112.72+493.855C2107.46+534.072+2121.74+602.767+2109.61+636.177C2095.44+675.216+2062.28+706.307+2045.9+744.792C2027.73+787.484+2020.87+834.306+2003.3+876.41C1984.58+921.272+1954.93+958.384+1930.7+999.976C1899.79+1053.02+1867.88+1104.02+1805.07+1120.03L1805.31+1120.78C1876.12+1109.5+1905.9+1040.22+1940.64+986.929C1963.77+951.461+1988.73+916.566+2005.01+877.19C2022.5+834.874+2029.33+788.083+2047.65+745.451C2064+707.399+2098.11+675.945+2111.02+636.768C2119.22+611.909+2112.93+525.532+2114.4+494.004ZM2131.57+729.861C2116.8+785.708+2095.92+844.732+2067.38+899.019C2094.88+851.124+2116.6+797.139+2132.28+730.031L2131.57+729.861ZM2067.38+899.019C2037.28+951.45+2000.17+996.588+1955.91+1043.06C1965.11+1034.01+1974.37+1025.01+1983.52+1015.91C2016.92+982.689+2044.59+942.361+2067.38+899.019ZM1955.91+1043.06C1923.82+1074.63+1891.57+1106.03+1859.43+1137.54L1860+1138.67C1895.01+1104.5+1926.95+1073.47+1955.91+1043.06ZM2171.31+774.314C2141.48+857.255+2142.67+934.569+2076.06+1002.31C2038.84+1040.16+1999.09+1077.17+1958.02+1110.8C1946.61+1120.14+1916.68+1133.4+1912.01+1148.11C1923.36+1132.37+1950.68+1120.23+1966.3+1107.41C2014.51+1067.86+2069.84+1022.77+2106.57+972.107C2147.93+915.068+2154.15+840.204+2172.75+774.719L2171.31+774.314ZM1912.01+1148.11C1911.98+1148.14+1911.95+1148.17+1911.93+1148.2L1911.41+1150.4C1911.51+1149.63+1911.76+1148.87+1912.01+1148.11Z" stroke="#606060" stroke-width="1.95" fill="#606060" opacity="1" stroke-linejoin="round"/>
</g>
<g id="Roots0" vectornator:layerName="Roots0">
<path d="M1668.35+1054.48C1691.2+1083.32+1722.68+1076.93+1722.68+1076.93C1722.68+1076.93+1690.79+1034.65+1700.39+1053.18C1710+1071.72+1860.45+1169.02+1964.17+1138.25C1986.86+1131.52+2035.85+1109.96+2071.26+1071.87C2131.91+1006.64+2178.23+913.037+2178.23+913.037C2178.23+913.037+2167.4+943.901+2152.03+977.071C2138.3+1006.68+2119.74+1039.05+2121.16+1038.27C2228.95+978.402+2238.75+864.907+2238.75+864.907C2238.75+864.907+2233.61+920.236+2183.67+1026.15C2163.01+1069.95+2148.29+1088.57+2140.94+1095.87C2089.19+1147.29+2030.28+1196.62+1941+1212.18C1828.48+1231.8+1697.01+1098.23+1668.65+1055.92" fill-opacity="0.4375" fill="#606060" opacity="1"/>
</g>
<g id="Water" vectornator:layerName="Water">
<path d="M5475.56-1869.58C5475.56-1869.58+6261.79-1985.25+6567.63-1925.92C6595.18-1920.57+6443.81+2635.54+6413.6+2653.26C6397.93+2662.45+4429.4+2663.75+2313.62+2625.86C-188.846+2581.05-2901.9+2494.88-2898.99+2494.6C-2626.82+2468.29-3903.97-361.474-3559.72-1741.18C-3478.33-2067.36-2525.18-1655.11-1618.51-1710.64C-706.784-1766.48-279.505-2024.14+274.433-2049.77C1428.61-2103.17+1825.57-1731.7+2993.11-1648.79C4269.86-1558.13+5510.66-1885.68+5510.66-1885.68" fill-opacity="0.19848" fill="#007e9f" opacity="1"/>
</g>
</svg>
