<?xml version="1.0" encoding="UTF-8" standalone="no"?> <!-- Created with Vectornator Pro for iOS (http://vectornator.io/) --><!DOCTYPE svg PUBLIC "-//W3C//DTD SVG 1.1//EN" "http://www.w3.org/Graphics/SVG/1.1/DTD/svg11.dtd">
<svg height="100%" style="fill-rule:evenodd;clip-rule:evenodd;stroke-linecap:round;stroke-linejoin:round;" xmlns:xlink="http://www.w3.org/1999/xlink" xmlns="http://www.w3.org/2000/svg" xml:space="preserve" width="100%" xmlns:vectornator="http://vectornator.io" version="1.1" viewBox="0 0 3840 2160">
<metadata>
<vectornator:setting key="RulersVisible" value="1"/>
<vectornator:setting key="SnapToEdges" value="0"/>
<vectornator:setting key="Units" value="Pixels"/>
<vectornator:setting key="DynamicGuides" value="0"/>
<vectornator:setting key="SnapToPoints" value="0"/>
<vectornator:setting key="CMYKEnabledKey" value="0"/>
<vectornator:setting key="SnapToGrid" value="0"/>
<vectornator:setting key="ShowGrid" value="1"/>
<vectornator:setting key="GridSpacing" value="36"/>
</metadata>
<defs/>
<g id="Stone line" vectornator:layerName="Stone line">
<path d="M2351.06+859.63C2334.87+820.662+2312.19+739.858+2312.19+739.858C2312.19+739.858+2250.93+732.753+2160.13+712.082C2070.54+691.686+1966.62+677.224+1907.21+741.167C1867.6+783.795+1772.65+874.195+1735.24+963.993C1704.66+1037.42+1683.92+1066.9+1670.66+1143.45C1657.39+1219.99+1691.8+1305.36+1734.75+1376.07C1771.59+1436.72+1850.49+1515.42+1901.34+1527.34C2011.48+1553.14+2096.38+1498.01+2151.17+1468.9C2195.29+1445.46+2288.25+1314.74+2302.33+1270.24C2316.41+1225.73+2331.03+1145.85+2331.03+1145.85C2331.03+1145.85+2349.23+1085.59+2358.92+1045.71C2368.61+1005.82+2365.28+1017.27+2369.8+986.314C2374.31+955.362+2370.53+906.46+2351.06+859.63Z" stroke="#606060" stroke-width="1.95" fill="#a1a1a1" opacity="1" stroke-linejoin="round"/>
</g>
<g id="Tree0" vectornator:layerName="Tree0">
<path d="M2309.49+857.726C2302.85+800.787+2290.3+769.029+2290.3+769.029L2131.99+726.668C2131.99+726.668+2037.78+703.061+1950.6+758.891C1863.42+814.721+1819.36+869.371+1785.77+954.905C1760.31+1019.72+1737+1041.75+1720.48+1116.49C1703.97+1191.23+1717.22+1248.94+1717.22+1248.94C1717.22+1248.94+1719.18+1295.21+1755.99+1356.47C1787.56+1409.01+1855.19+1469.85+1899.3+1479.85C1994.83+1501.52+2065.61+1484.98+2126.92+1426.2C2188.23+1367.43+2240.76+1300.94+2257.44+1248.52C2274.12+1196.1+2282.02+1135.97+2282.02+1135.97C2282.02+1135.97+2284.78+1127.03+2288.64+1114.07C2294.14+1095.62+2301.87+1069.03+2306.99+1048.58C2315.7+1013.78+2312.73+1023.77+2316.88+996.786C2321.02+969.804+2316.14+914.665+2309.49+857.726Z" stroke="#606060" stroke-width="1.95" fill="#e2e2e2" opacity="1" stroke-linejoin="round"/>
</g>
<g id="Roots2" vectornator:layerName="Roots2">
<path d="M2351.06+859.63C2334.87+820.662+2312.19+739.858+2312.19+739.858C2312.19+739.858+2250.93+732.753+2160.13+712.082C2070.54+691.686+1966.62+677.224+1907.21+741.167C1867.6+783.795+1772.65+874.195+1735.24+963.993C1704.66+1037.42+1683.92+1066.9+1670.66+1143.45C1657.39+1219.99+1691.8+1305.36+1734.75+1376.07C1771.59+1436.72+1850.49+1515.42+1901.34+1527.34C2011.48+1553.14+2096.38+1498.01+2151.17+1468.9C2195.29+1445.46+2288.25+1314.74+2302.33+1270.24C2316.41+1225.73+2331.03+1145.85+2331.03+1145.85C2331.03+1145.85+2349.23+1085.59+2358.92+1045.71C2368.61+1005.82+2365.28+1017.27+2369.8+986.314C2374.31+955.362+2370.53+906.46+2351.06+859.63Z" stroke="#606060" stroke-width="1.95" fill="#a1a1a1" opacity="1" stroke-linejoin="round"/>
</g>
<g id="Roots1" vectornator:layerName="Roots1">
<path d="M2309.49+857.726C2302.85+800.787+2290.3+769.029+2290.3+769.029L2131.99+726.668C2131.99+726.668+2037.78+703.061+1950.6+758.891C1863.42+814.721+1819.36+869.371+1785.77+954.905C1760.31+1019.72+1737+1041.75+1720.48+1116.49C1703.97+1191.23+1717.22+1248.94+1717.22+1248.94C1717.22+1248.94+1719.18+1295.21+1755.99+1356.47C1787.56+1409.01+1855.19+1469.85+1899.3+1479.85C1994.83+1501.52+2065.61+1484.98+2126.92+1426.2C2188.23+1367.43+2240.76+1300.94+2257.44+1248.52C2274.12+1196.1+2282.02+1135.97+2282.02+1135.97C2282.02+1135.97+2284.78+1127.03+2288.64+1114.07C2294.14+1095.62+2301.87+1069.03+2306.99+1048.58C2315.7+1013.78+2312.73+1023.77+2316.88+996.786C2321.02+969.804+2316.14+914.665+2309.49+857.726Z" stroke="#606060" stroke-width="1.95" fill="#e2e2e2" opacity="1" stroke-linejoin="round"/>
</g>
<g id="Shadow" vectornator:layerName="Shadow">
<path d="M2309.49+857.726C2302.85+800.787+2290.3+769.029+2290.3+769.029L2131.99+726.668C2131.99+726.668+2037.78+703.061+1950.6+758.891C1863.42+814.721+1819.36+869.371+1785.77+954.905C1760.31+1019.72+1737+1041.75+1720.48+1116.49C1703.97+1191.23+1717.22+1248.94+1717.22+1248.94C1717.22+1248.94+1719.18+1295.21+1755.99+1356.47C1787.56+1409.01+1855.19+1469.85+1899.3+1479.85C1994.83+1501.52+2065.61+1484.98+2126.92+1426.2C2188.23+1367.43+2240.76+1300.94+2257.44+1248.52C2274.12+1196.1+2282.02+1135.97+2282.02+1135.97C2282.02+1135.97+2284.78+1127.03+2288.64+1114.07C2294.14+1095.62+2301.87+1069.03+2306.99+1048.58C2315.7+1013.78+2312.73+1023.77+2316.88+996.786C2321.02+969.804+2316.14+914.665+2309.49+857.726Z" stroke="#606060" stroke-width="1.95" fill="#e2e2e2" opacity="1" stroke-linejoin="round"/>
</g>
<g id="Stone face" vectornator:layerName="Stone face">
<path d="M2254.85+820.009C2205.74+865.014+2189.91+920.588+2153.51+973.108C2136.89+997.095+2114.36+1001.25+2093.97+1018.36C2076.02+1033.41+2062.9+1053.59+2050.87+1073.59C2019.9+1125.09+2008.23+1192.01+1971.81+1239.48C1953.71+1263.08+1914.93+1260.36+1897.2+1283.26C1870.91+1317.21+1845.08+1351.54+1819.02+1385.67L1820.06+1387.03C1846.2+1352.77+1872.11+1318.33+1898.47+1284.25C1916.03+1261.55+1954.85+1264.02+1972.98+1240.66C2009.86+1193.16+2021.88+1126.34+2052.87+1074.69C2064.72+1054.93+2077.73+1034.86+2095.1+1019.65C2115.11+1002.14+2138.19+998.184+2154.87+974.154C2193.15+918.979+2204.47+872.576+2255.67+820.797L2254.85+820.009ZM2213.57+830.165C2162.68+849.156+2123.28+869.311+2086.95+910.905C2025.5+981.259+1989.92+1069.71+1929.66+1140.39C1868.28+1212.38+1786.43+1244.12+1791.31+1357.13L1793.27+1356.77C1785.54+1250.12+1873.09+1210.32+1930.83+1141.38C1990.39+1070.28+2027.54+982.608+2088.96+912.449C2125.11+871.143+2163.38+850.429+2213.84+830.892L2213.57+830.165ZM2103+795.259C1944.78+823.632+1882.49+954.528+1799.07+1078.81L1799.9+1079.56C1882.63+956.33+1945.62+824.177+2103.08+795.685L2103+795.259ZM2183.39+827.427C2024.07+835.594+1958.22+967.854+1869.84+1077.98C1851.51+1100.82+1823.97+1111.76+1804.27+1132.59C1781.33+1156.83+1771.25+1190.36+1764.07+1222.1L1765.01+1222.43C1771.88+1190.69+1782.51+1157.65+1805.16+1133.34C1824.74+1112.32+1852.5+1101.93+1870.68+1078.77C1956.58+969.393+2028.16+836.588+2183.4+827.694L2183.39+827.427ZM2270.21+874.892L2268.61+874.354C2254.09+912.226+2251.91+982.355+2232.31+1012C2209.4+1046.65+2169.89+1069.12+2144.97+1102.71C2117.31+1139.97+2099.7+1183.89+2072.77+1220.72C2044.07+1259.96+2006.57+1289.11+1973.29+1323.88C1930.83+1368.23+1887.88+1410.35+1823.07+1411.23L1823.12+1412.01C1894.61+1417.61+1939.77+1357.21+1986.01+1313.52C2016.78+1284.44+2049.22+1256.35+2074.25+1221.87C2101.15+1184.82+2118.73+1140.93+2146.52+1103.76C2171.31+1070.59+2211.83+1047.98+2233.54+1012.91C2247.32+990.655+2261.4+905.201+2270.21+874.892ZM2231.75+1108.22C2204.34+1159.07+2170.23+1211.58+2129.79+1257.68C2167.72+1217.55+2201.46+1170.14+2232.4+1108.55L2231.75+1108.22ZM2129.79+1257.68C2088.26+1301.62+2041.63+1336.83+1987.72+1371.67C1998.79+1365.01+2009.89+1358.44+2020.92+1351.72C2061.16+1327.23+2097.5+1294.5+2129.79+1257.68ZM1987.72+1371.67C1949.14+1394.86+1910.44+1417.85+1871.82+1440.97L1872.11+1442.2C1914.15+1417.16+1952.46+1394.46+1987.72+1371.67ZM2260+1160.74C2211.6+1234.41+2194.68+1309.85+2114.07+1360.14C2069.03+1388.24+2021.73+1414.92+1973.94+1438.02C1960.65+1444.44+1928.46+1450.33+1920.47+1463.54C1935.19+1450.89+1964.6+1445.47+1982.78+1436.66C2038.9+1409.48+2103.24+1378.57+2150.8+1337.91C2204.35+1292.12+2227.9+1220.79+2261.3+1161.47L2260+1160.74ZM1920.47+1463.54C1920.45+1463.56+1920.41+1463.58+1920.38+1463.6L1919.36+1465.63C1919.64+1464.9+1920.06+1464.22+1920.47+1463.54Z" stroke="#606060" stroke-width="1.95" fill="#606060" opacity="1" stroke-linejoin="round"/>
</g>
<g id="Stone HL" vectornator:layerName="Stone HL">
<path d="M2254.85+820.009C2205.74+865.014+2189.91+920.588+2153.51+973.108C2136.89+997.095+2114.36+1001.25+2093.97+1018.36C2076.02+1033.41+2062.9+1053.59+2050.87+1073.59C2019.9+1125.09+2008.23+1192.01+1971.81+1239.48C1953.71+1263.08+1914.93+1260.36+1897.2+1283.26C1870.91+1317.21+1845.08+1351.54+1819.02+1385.67L1820.06+1387.03C1846.2+1352.77+1872.11+1318.33+1898.47+1284.25C1916.03+1261.55+1954.85+1264.02+1972.98+1240.66C2009.86+1193.16+2021.88+1126.34+2052.87+1074.69C2064.72+1054.93+2077.73+1034.86+2095.1+1019.65C2115.11+1002.14+2138.19+998.184+2154.87+974.154C2193.15+918.979+2204.47+872.576+2255.67+820.797L2254.85+820.009ZM2213.57+830.165C2162.68+849.156+2123.28+869.311+2086.95+910.905C2025.5+981.259+1989.92+1069.71+1929.66+1140.39C1868.28+1212.38+1786.43+1244.12+1791.31+1357.13L1793.27+1356.77C1785.54+1250.12+1873.09+1210.32+1930.83+1141.38C1990.39+1070.28+2027.54+982.608+2088.96+912.449C2125.11+871.143+2163.38+850.429+2213.84+830.892L2213.57+830.165ZM2103+795.259C1944.78+823.632+1882.49+954.528+1799.07+1078.81L1799.9+1079.56C1882.63+956.33+1945.62+824.177+2103.08+795.685L2103+795.259ZM2183.39+827.427C2024.07+835.594+1958.22+967.854+1869.84+1077.98C1851.51+1100.82+1823.97+1111.76+1804.27+1132.59C1781.33+1156.83+1771.25+1190.36+1764.07+1222.1L1765.01+1222.43C1771.88+1190.69+1782.51+1157.65+1805.16+1133.34C1824.74+1112.32+1852.5+1101.93+1870.68+1078.77C1956.58+969.393+2028.16+836.588+2183.4+827.694L2183.39+827.427ZM2270.21+874.892L2268.61+874.354C2254.09+912.226+2251.91+982.355+2232.31+1012C2209.4+1046.65+2169.89+1069.12+2144.97+1102.71C2117.31+1139.97+2099.7+1183.89+2072.77+1220.72C2044.07+1259.96+2006.57+1289.11+1973.29+1323.88C1930.83+1368.23+1887.88+1410.35+1823.07+1411.23L1823.12+1412.01C1894.61+1417.61+1939.77+1357.21+1986.01+1313.52C2016.78+1284.44+2049.22+1256.35+2074.25+1221.87C2101.15+1184.82+2118.73+1140.93+2146.52+1103.76C2171.31+1070.59+2211.83+1047.98+2233.54+1012.91C2247.32+990.655+2261.4+905.201+2270.21+874.892ZM2231.75+1108.22C2204.34+1159.07+2170.23+1211.58+2129.79+1257.68C2167.72+1217.55+2201.46+1170.14+2232.4+1108.55L2231.75+1108.22ZM2129.79+1257.68C2088.26+1301.62+2041.63+1336.83+1987.72+1371.67C1998.79+1365.01+2009.89+1358.44+2020.92+1351.72C2061.16+1327.23+2097.5+1294.5+2129.79+1257.68ZM1987.72+1371.67C1949.14+1394.86+1910.44+1417.85+1871.82+1440.97L1872.11+1442.2C1914.15+1417.16+1952.46+1394.46+1987.72+1371.67ZM2260+1160.74C2211.6+1234.41+2194.68+1309.85+2114.07+1360.14C2069.03+1388.24+2021.73+1414.92+1973.94+1438.02C1960.65+1444.44+1928.46+1450.33+1920.47+1463.54C1935.19+1450.89+1964.6+1445.47+1982.78+1436.66C2038.9+1409.48+2103.24+1378.57+2150.8+1337.91C2204.35+1292.12+2227.9+1220.79+2261.3+1161.47L2260+1160.74ZM1920.47+1463.54C1920.45+1463.56+1920.41+1463.58+1920.38+1463.6L1919.36+1465.63C1919.64+1464.9+1920.06+1464.22+1920.47+1463.54Z" stroke="#606060" stroke-width="1.95" fill="#606060" opacity="1" stroke-linejoin="round"/>
</g>
<g id="Tree2" vectornator:layerName="Tree2">
<path d="M2254.85+820.009C2205.74+865.014+2189.91+920.588+2153.51+973.108C2136.89+997.095+2114.36+1001.25+2093.97+1018.36C2076.02+1033.41+2062.9+1053.59+2050.87+1073.59C2019.9+1125.09+2008.23+1192.01+1971.81+1239.48C1953.71+1263.08+1914.93+1260.36+1897.2+1283.26C1870.91+1317.21+1845.08+1351.54+1819.02+1385.67L1820.06+1387.03C1846.2+1352.77+1872.11+1318.33+1898.47+1284.25C1916.03+1261.55+1954.85+1264.02+1972.98+1240.66C2009.86+1193.16+2021.88+1126.34+2052.87+1074.69C2064.72+1054.93+2077.73+1034.86+2095.1+1019.65C2115.11+1002.14+2138.19+998.184+2154.87+974.154C2193.15+918.979+2204.47+872.576+2255.67+820.797L2254.85+820.009ZM2213.57+830.165C2162.68+849.156+2123.28+869.311+2086.95+910.905C2025.5+981.259+1989.92+1069.71+1929.66+1140.39C1868.28+1212.38+1786.43+1244.12+1791.31+1357.13L1793.27+1356.77C1785.54+1250.12+1873.09+1210.32+1930.83+1141.38C1990.39+1070.28+2027.54+982.608+2088.96+912.449C2125.11+871.143+2163.38+850.429+2213.84+830.892L2213.57+830.165ZM2103+795.259C1944.78+823.632+1882.49+954.528+1799.07+1078.81L1799.9+1079.56C1882.63+956.33+1945.62+824.177+2103.08+795.685L2103+795.259ZM2183.39+827.427C2024.07+835.594+1958.22+967.854+1869.84+1077.98C1851.51+1100.82+1823.97+1111.76+1804.27+1132.59C1781.33+1156.83+1771.25+1190.36+1764.07+1222.1L1765.01+1222.43C1771.88+1190.69+1782.51+1157.65+1805.16+1133.34C1824.74+1112.32+1852.5+1101.93+1870.68+1078.77C1956.58+969.393+2028.16+836.588+2183.4+827.694L2183.39+827.427ZM2270.21+874.892L2268.61+874.354C2254.09+912.226+2251.91+982.355+2232.31+1012C2209.4+1046.65+2169.89+1069.12+2144.97+1102.71C2117.31+1139.97+2099.7+1183.89+2072.77+1220.72C2044.07+1259.96+2006.57+1289.11+1973.29+1323.88C1930.83+1368.23+1887.88+1410.35+1823.07+1411.23L1823.12+1412.01C1894.61+1417.61+1939.77+1357.21+1986.01+1313.52C2016.78+1284.44+2049.22+1256.35+2074.25+1221.87C2101.15+1184.82+2118.73+1140.93+2146.52+1103.76C2171.31+1070.59+2211.83+1047.98+2233.54+1012.91C2247.32+990.655+2261.4+905.201+2270.21+874.892ZM2231.75+1108.22C2204.34+1159.07+2170.23+1211.58+2129.79+1257.68C2167.72+1217.55+2201.46+1170.14+2232.4+1108.55L2231.75+1108.22ZM2129.79+1257.68C2088.26+1301.62+2041.63+1336.83+1987.72+1371.67C1998.79+1365.01+2009.89+1358.44+2020.92+1351.72C2061.16+1327.23+2097.5+1294.5+2129.79+1257.68ZM1987.72+1371.67C1949.14+1394.86+1910.44+1417.85+1871.82+1440.97L1872.11+1442.2C1914.15+1417.16+1952.46+1394.46+1987.72+1371.67ZM2260+1160.74C2211.6+1234.41+2194.68+1309.85+2114.07+1360.14C2069.03+1388.24+2021.73+1414.92+1973.94+1438.02C1960.65+1444.44+1928.46+1450.33+1920.47+1463.54C1935.19+1450.89+1964.6+1445.47+1982.78+1436.66C2038.9+1409.48+2103.24+1378.57+2150.8+1337.91C2204.35+1292.12+2227.9+1220.79+2261.3+1161.47L2260+1160.74ZM1920.47+1463.54C1920.45+1463.56+1920.41+1463.58+1920.38+1463.6L1919.36+1465.63C1919.64+1464.9+1920.06+1464.22+1920.47+1463.54Z" stroke="#606060" stroke-width="1.95" fill="#606060" opacity="1" stroke-linejoin="round"/>
</g>
<g id="Roots0" vectornator:layerName="Roots0">
<path d="M1705.47+1320.14C1720.94+1353.52+1753.04+1354.66+1753.04+1354.66C1753.04+1354.66+1731.92+1306.1+1736.92+1326.36C1741.93+1346.63+1865.46+1476.41+1973.49+1470.75C1997.13+1469.51+2049.81+1460.01+2093.14+1431.26C2167.36+1382.01+2234.28+1301.84+2234.28+1301.84C2234.28+1301.84+2216.54+1329.31+2193.84+1357.97C2173.57+1383.55+2147.95+1410.68+2149.51+1410.25C2268.32+1377.25+2304.38+1269.19+2304.38+1269.19C2304.38+1269.19+2286.45+1321.79+2213.12+1413.08C2182.8+1450.84+2164.13+1465.51+2155.27+1470.89C2092.93+1508.78+2024.12+1542.96+1933.69+1537.22C1819.69+1529.98+1723.1+1369.37+1705.42+1321.61" fill-opacity="0.4375" fill="#606060" opacity="1"/>
</g>
<g id="Earth" vectornator:layerName="Earth">
<path d="M3328.3+4453.78C3345.36+4451.4+3315.43+4991.29+3331.69+4999.82C3355.24+5012.18+247.426+5486.19+48.6543+5138.88C-150.117+4791.56+36.1526+4395.48+65.6121+4392.73C74.5861+4391.9+274.8+4436.75+605.713+4443.24C762.364+4446.32+942.997+4448.75+1135.17+4450.66C1395.18+4453.25+1676.32+4454.87+1947.77+4455.8C2280.36+4456.95+2598.41+4457.05+2845.26+4456.62C3068.74+4456.24+3233.85+4455.41+3298.57+4454.52C3316.33+4454.28+3326.53+4454.03+3328.3+4453.78Z" fill-opacity="0.706019" fill="#535353" opacity="1"/>
</g>
<g id="Water" vectornator:layerName="Water">
<path d="M3435.37+1278.27C3477.32+1267.65+3541.65+1258.53+3624.6+1250.76C4592.27+1160.05+8093.31+1252.14+8138.32+1275.16C8171.5+1292.13+8212.99+4347.85+8172.82+4370.69C8127.36+4396.53-4090.22+4477.06-4097.25+4475.67C-4111.09+4472.94-4264.39+1329.24-3765.11+1199.66C-3493.9+1129.28-988.688+1279.77+123.77+1318.37C380.652+1327.28+563.271+1330.23+626.972+1323.11C692.455+1315.79+748.268+1304.97+797.369+1292.44C889.329+1268.96+957.746+1239.48+1022.05+1215.76C1089+1191.06+1151.49+1172.61+1231.45+1173.68C1274.47+1174.25+1322.55+1180.48+1379.1+1194.43C1426.66+1206.16+1480.22+1223.35+1541.8+1247.23C1600.43+1269.96+1651.77+1288.75+1697.37+1303.94C1735.48+1316.64+1769.58+1326.82+1800.59+1334.69C1933.77+1368.52+2009.93+1359.82+2101.16+1324.86C2139.57+1310.14+2180.64+1290.76+2229.76+1267.94C2265.74+1251.23+2306.04+1232.67+2352.76+1212.73C2441.71+1174.79+2516.68+1176.13+2589.16+1194.93C2654.66+1211.93+2718.12+1243.19+2788.02+1272.6C2825.62+1288.42+2865.09+1303.71+2907.73+1315.96C2937.75+1324.58+2969.35+1331.7+3002.99+1336.43C3045.52+1342.42+3091.31+1344.61+3141.29+1341.22C3171.87+1339.15+3204.02+1334.99+3237.96+1328.34C3261.22+1323.78+3285.32+1318.04+3310.33+1311.01C3338.82+1303+3368.48+1293.3+3399.42+1281.72" fill-opacity="0.602272" fill="#007e9f" opacity="1"/>
</g>
</svg>
