<?xml version="1.0" encoding="UTF-8" standalone="no"?> <!-- Created with Vectornator Pro for iOS (http://vectornator.io/) --><!DOCTYPE svg PUBLIC "-//W3C//DTD SVG 1.1//EN" "http://www.w3.org/Graphics/SVG/1.1/DTD/svg11.dtd">
<svg height="100%" style="fill-rule:evenodd;clip-rule:evenodd;stroke-linecap:round;stroke-linejoin:round;" xmlns:xlink="http://www.w3.org/1999/xlink" xmlns="http://www.w3.org/2000/svg" xml:space="preserve" width="100%" xmlns:vectornator="http://vectornator.io" version="1.1" viewBox="0 0 3840 2160">
<metadata>
<vectornator:setting key="RulersVisible" value="1"/>
<vectornator:setting key="GridSpacing" value="36"/>
<vectornator:setting key="Units" value="Pixels"/>
<vectornator:setting key="DynamicGuides" value="0"/>
<vectornator:setting key="SnapToPoints" value="0"/>
<vectornator:setting key="CMYKEnabledKey" value="0"/>
<vectornator:setting key="SnapToGrid" value="0"/>
<vectornator:setting key="ShowGrid" value="1"/>
<vectornator:setting key="SnapToEdges" value="0"/>
</metadata>
<defs/>
<g id="Stone line" vectornator:layerName="Stone line">
<path d="M2237.48+839.375C2226.49+798.631+2214.53+715.564+2214.53+715.564C2214.53+715.564+2154.71+700.546+2067.37+668.237C1981.2+636.356+1880.04+608.494+1812.82+664.162C1768+701.274+1662.1+778.549+1613.32+862.716C1573.44+931.539+1549.04+958.071+1525.93+1032.24C1502.82+1106.41+1525.83+1195.52+1559.21+1271.22C1587.85+1336.15+1655.83+1424.45+1704.7+1442.88C1810.55+1482.8+1901.89+1439.19+1960+1417.45C2006.81+1399.95+2115.98+1282.44+2135.73+1240.15C2155.49+1197.86+2180.38+1120.55+2180.38+1120.55C2180.38+1120.55+2206.26+1063.18+2221.06+1024.89C2235.86+986.61+2231.07+997.522+2239.57+967.42C2248.07+937.318+2250.69+888.34+2237.48+839.375Z" stroke="#606060" stroke-width="1.95" fill="#a1a1a1" opacity="1" stroke-linejoin="round"/>
</g>
<g id="Tree0" vectornator:layerName="Tree0">
<path d="M2196.52+832.078C2197.34+774.759+2189.03+741.638+2189.03+741.638L2037.58+679.036C2037.58+679.036+1947.24+643.371+1853.54+687.382C1759.83+731.393+1709.04+779.844+1664.6+860.28C1630.92+921.229+1604.94+940.039+1578.84+1011.99C1552.74+1083.95+1558.36+1142.9+1558.36+1142.9C1558.36+1142.9+1554.29+1189.03+1582.82+1254.55C1607.28+1310.76+1666.42+1379.88+1708.85+1395.54C1800.75+1429.45+1873.09+1422.27+1941.52+1371.97C2009.96+1321.67+2070.69+1262.58+2094.05+1212.77C2117.41+1162.97+2133.07+1104.38+2133.07+1104.38C2133.07+1104.38+2136.97+1095.87+2142.48+1083.53C2150.34+1065.95+2161.46+1040.59+2169.19+1020.98C2182.36+987.615+2178.11+997.129+2185.74+970.916C2193.36+944.704+2195.69+889.398+2196.52+832.078Z" stroke="#606060" stroke-width="1.95" fill="#e2e2e2" opacity="1" stroke-linejoin="round"/>
</g>
<g id="Roots2" vectornator:layerName="Roots2">
<path d="M2237.48+839.375C2226.49+798.631+2214.53+715.564+2214.53+715.564C2214.53+715.564+2154.71+700.546+2067.37+668.237C1981.2+636.356+1880.04+608.494+1812.82+664.162C1768+701.274+1662.1+778.549+1613.32+862.716C1573.44+931.539+1549.04+958.071+1525.93+1032.24C1502.82+1106.41+1525.83+1195.52+1559.21+1271.22C1587.85+1336.15+1655.83+1424.45+1704.7+1442.88C1810.55+1482.8+1901.89+1439.19+1960+1417.45C2006.81+1399.95+2115.98+1282.44+2135.73+1240.15C2155.49+1197.86+2180.38+1120.55+2180.38+1120.55C2180.38+1120.55+2206.26+1063.18+2221.06+1024.89C2235.86+986.61+2231.07+997.522+2239.57+967.42C2248.07+937.318+2250.69+888.34+2237.48+839.375Z" stroke="#606060" stroke-width="1.95" fill="#a1a1a1" opacity="1" stroke-linejoin="round"/>
</g>
<g id="Roots1" vectornator:layerName="Roots1">
<path d="M2196.52+832.078C2197.34+774.759+2189.03+741.638+2189.03+741.638L2037.58+679.036C2037.58+679.036+1947.24+643.371+1853.54+687.382C1759.83+731.393+1709.04+779.844+1664.6+860.28C1630.92+921.229+1604.94+940.039+1578.84+1011.99C1552.74+1083.95+1558.36+1142.9+1558.36+1142.9C1558.36+1142.9+1554.29+1189.03+1582.82+1254.55C1607.28+1310.76+1666.42+1379.88+1708.85+1395.54C1800.75+1429.45+1873.09+1422.27+1941.52+1371.97C2009.96+1321.67+2070.69+1262.58+2094.05+1212.77C2117.41+1162.97+2133.07+1104.38+2133.07+1104.38C2133.07+1104.38+2136.97+1095.87+2142.48+1083.53C2150.34+1065.95+2161.46+1040.59+2169.19+1020.98C2182.36+987.615+2178.11+997.129+2185.74+970.916C2193.36+944.704+2195.69+889.398+2196.52+832.078Z" stroke="#606060" stroke-width="1.95" fill="#e2e2e2" opacity="1" stroke-linejoin="round"/>
</g>
<g id="Shadow" vectornator:layerName="Shadow">
<path d="M2196.52+832.078C2197.34+774.759+2189.03+741.638+2189.03+741.638L2037.58+679.036C2037.58+679.036+1947.24+643.371+1853.54+687.382C1759.83+731.393+1709.04+779.844+1664.6+860.28C1630.92+921.229+1604.94+940.039+1578.84+1011.99C1552.74+1083.95+1558.36+1142.9+1558.36+1142.9C1558.36+1142.9+1554.29+1189.03+1582.82+1254.55C1607.28+1310.76+1666.42+1379.88+1708.85+1395.54C1800.75+1429.45+1873.09+1422.27+1941.52+1371.97C2009.96+1321.67+2070.69+1262.58+2094.05+1212.77C2117.41+1162.97+2133.07+1104.38+2133.07+1104.38C2133.07+1104.38+2136.97+1095.87+2142.48+1083.53C2150.34+1065.95+2161.46+1040.59+2169.19+1020.98C2182.36+987.615+2178.11+997.129+2185.74+970.916C2193.36+944.704+2195.69+889.398+2196.52+832.078Z" stroke="#606060" stroke-width="1.95" fill="#e2e2e2" opacity="1" stroke-linejoin="round"/>
</g>
<g id="Stone face" vectornator:layerName="Stone face">
<path d="M2147.25+787.572C2092.7+825.804+2069.77+878.845+2026.85+926.182C2007.24+947.802+1984.36+948.994+1961.92+963.297C1942.17+975.886+1926.53+994.19+1912.01+1012.45C1874.59+1059.49+1854.31+1124.32+1812.03+1166.64C1791.01+1187.69+1752.92+1179.95+1732.35+1200.35C1701.87+1230.59+1671.79+1261.26+1641.51+1291.71L1642.37+1293.19C1672.74+1262.63+1702.91+1231.85+1733.49+1201.49C1753.85+1181.27+1792.01+1188.77+1813.04+1167.96C1855.78+1125.67+1876.39+1060.98+1913.84+1013.81C1928.16+995.758+1943.67+977.551+1962.87+964.731C1984.99+949.968+2008.39+949.05+2028.05+927.395C2073.19+877.671+2090.45+833.136+2147.95+788.459L2147.25+787.572ZM2104.99+792.269C2052.07+804.477+2010.38+819.334+1968.94+855.846C1898.86+917.605+1852.07+1000.68+1783.12+1062.91C1712.9+1126.3+1627.62+1147.12+1617.75+1259.81L1619.74+1259.7C1625.96+1152.96+1717.94+1124.88+1784.16+1064.04C1852.47+1001.3+1900.71+919.208+1970.73+857.638C2011.96+821.388+2052.59+805.83+2105.17+793.025L2104.99+792.269ZM1999.9+743.271C1839.34+750.815+1760.54+872.491+1661.66+984.858L1662.38+985.717C1760.45+874.298+1840.1+751.464+1999.93+743.705L1999.9+743.271ZM2075.43+785.627C1916.4+772.993+1833.9+895.56+1731.94+993.244C1710.79+1013.51+1682.06+1020.78+1659.82+1038.86C1633.92+1059.91+1619.56+1091.84+1608.32+1122.38L1609.21+1122.83C1620.15+1092.25+1634.98+1060.88+1660.61+1039.72C1682.75+1021.43+1711.63+1014.74+1732.67+994.145C1832.07+896.873+1920.32+774.51+2075.4+785.893L2075.43+785.627ZM2155.33+843.986L2153.81+843.245C2134.49+878.905+2123.2+948.154+2099.91+974.999C2072.69+1006.37+2030.59+1023.51+2001.51+1053.57C1969.24+1086.91+1946.06+1128.17+1914.57+1161.18C1881.01+1196.35+1840.04+1220.37+1802.51+1250.52C1754.64+1288.97+1706.58+1325.14+1642.2+1317.58L1642.15+1318.36C1712.31+1333.21+1764.93+1279.2+1816.47+1241.9C1850.77+1217.08+1886.58+1193.45+1915.88+1162.52C1947.38+1129.28+1970.53+1088.05+2002.91+1054.81C2031.81+1025.15+2074.92+1008+2101.02+976.058C2117.57+955.787+2142.65+872.892+2155.33+843.986ZM2086.84+1070.33C2053.04+1117.18+2012.39+1164.8+1966.29+1205.25C2009.13+1170.39+2048.75+1127.77+2087.43+1070.74L2086.84+1070.33ZM1966.29+1205.25C1919.4+1243.41+1868.58+1272.25+1810.6+1299.78C1822.44+1294.62+1834.3+1289.54+1846.11+1284.32C1889.2+1265.28+1929.48+1237.55+1966.29+1205.25ZM1810.6+1299.78C1769.33+1317.75+1727.97+1335.51+1686.67+1353.41L1686.8+1354.67C1731.73+1335.31+1772.67+1317.79+1810.6+1299.78ZM2108.01+1126.07C2050.44+1192.82+2023.84+1265.42+1937.37+1304.79C1889.06+1326.79+1838.69+1347.09+1788.3+1363.77C1774.29+1368.41+1741.61+1370.06+1731.97+1382.11C1748.21+1371.49+1778.07+1369.94+1797.25+1363.58C1856.42+1343.93+1924.24+1321.66+1976.69+1287.53C2035.74+1249.1+2068.37+1181.44+2109.2+1126.97L2108.01+1126.07ZM1731.97+1382.11C1731.94+1382.13+1731.9+1382.15+1731.87+1382.17L1730.59+1384.04C1730.96+1383.36+1731.47+1382.74+1731.97+1382.11Z" stroke="#606060" stroke-width="1.95" fill="#606060" opacity="1" stroke-linejoin="round"/>
</g>
<g id="Stone HL" vectornator:layerName="Stone HL">
<path d="M2147.25+787.572C2092.7+825.804+2069.77+878.845+2026.85+926.182C2007.24+947.802+1984.36+948.994+1961.92+963.297C1942.17+975.886+1926.53+994.19+1912.01+1012.45C1874.59+1059.49+1854.31+1124.32+1812.03+1166.64C1791.01+1187.69+1752.92+1179.95+1732.35+1200.35C1701.87+1230.59+1671.79+1261.26+1641.51+1291.71L1642.37+1293.19C1672.74+1262.63+1702.91+1231.85+1733.49+1201.49C1753.85+1181.27+1792.01+1188.77+1813.04+1167.96C1855.78+1125.67+1876.39+1060.98+1913.84+1013.81C1928.16+995.758+1943.67+977.551+1962.87+964.731C1984.99+949.968+2008.39+949.05+2028.05+927.395C2073.19+877.671+2090.45+833.136+2147.95+788.459L2147.25+787.572ZM2104.99+792.269C2052.07+804.477+2010.38+819.334+1968.94+855.846C1898.86+917.605+1852.07+1000.68+1783.12+1062.91C1712.9+1126.3+1627.62+1147.12+1617.75+1259.81L1619.74+1259.7C1625.96+1152.96+1717.94+1124.88+1784.16+1064.04C1852.47+1001.3+1900.71+919.208+1970.73+857.638C2011.96+821.388+2052.59+805.83+2105.17+793.025L2104.99+792.269ZM1999.9+743.271C1839.34+750.815+1760.54+872.491+1661.66+984.858L1662.38+985.717C1760.45+874.298+1840.1+751.464+1999.93+743.705L1999.9+743.271ZM2075.43+785.627C1916.4+772.993+1833.9+895.56+1731.94+993.244C1710.79+1013.51+1682.06+1020.78+1659.82+1038.86C1633.92+1059.91+1619.56+1091.84+1608.32+1122.38L1609.21+1122.83C1620.15+1092.25+1634.98+1060.88+1660.61+1039.72C1682.75+1021.43+1711.63+1014.74+1732.67+994.145C1832.07+896.873+1920.32+774.51+2075.4+785.893L2075.43+785.627ZM2155.33+843.986L2153.81+843.245C2134.49+878.905+2123.2+948.154+2099.91+974.999C2072.69+1006.37+2030.59+1023.51+2001.51+1053.57C1969.24+1086.91+1946.06+1128.17+1914.57+1161.18C1881.01+1196.35+1840.04+1220.37+1802.51+1250.52C1754.64+1288.97+1706.58+1325.14+1642.2+1317.58L1642.15+1318.36C1712.31+1333.21+1764.93+1279.2+1816.47+1241.9C1850.77+1217.08+1886.58+1193.45+1915.88+1162.52C1947.38+1129.28+1970.53+1088.05+2002.91+1054.81C2031.81+1025.15+2074.92+1008+2101.02+976.058C2117.57+955.787+2142.65+872.892+2155.33+843.986ZM2086.84+1070.33C2053.04+1117.18+2012.39+1164.8+1966.29+1205.25C2009.13+1170.39+2048.75+1127.77+2087.43+1070.74L2086.84+1070.33ZM1966.29+1205.25C1919.4+1243.41+1868.58+1272.25+1810.6+1299.78C1822.44+1294.62+1834.3+1289.54+1846.11+1284.32C1889.2+1265.28+1929.48+1237.55+1966.29+1205.25ZM1810.6+1299.78C1769.33+1317.75+1727.97+1335.51+1686.67+1353.41L1686.8+1354.67C1731.73+1335.31+1772.67+1317.79+1810.6+1299.78ZM2108.01+1126.07C2050.44+1192.82+2023.84+1265.42+1937.37+1304.79C1889.06+1326.79+1838.69+1347.09+1788.3+1363.77C1774.29+1368.41+1741.61+1370.06+1731.97+1382.11C1748.21+1371.49+1778.07+1369.94+1797.25+1363.58C1856.42+1343.93+1924.24+1321.66+1976.69+1287.53C2035.74+1249.1+2068.37+1181.44+2109.2+1126.97L2108.01+1126.07ZM1731.97+1382.11C1731.94+1382.13+1731.9+1382.15+1731.87+1382.17L1730.59+1384.04C1730.96+1383.36+1731.47+1382.74+1731.97+1382.11Z" stroke="#606060" stroke-width="1.95" fill="#606060" opacity="1" stroke-linejoin="round"/>
</g>
<g id="Tree2" vectornator:layerName="Tree2">
<path d="M2147.25+787.572C2092.7+825.804+2069.77+878.845+2026.85+926.182C2007.24+947.802+1984.36+948.994+1961.92+963.297C1942.17+975.886+1926.53+994.19+1912.01+1012.45C1874.59+1059.49+1854.31+1124.32+1812.03+1166.64C1791.01+1187.69+1752.92+1179.95+1732.35+1200.35C1701.87+1230.59+1671.79+1261.26+1641.51+1291.71L1642.37+1293.19C1672.74+1262.63+1702.91+1231.85+1733.49+1201.49C1753.85+1181.27+1792.01+1188.77+1813.04+1167.96C1855.78+1125.67+1876.39+1060.98+1913.84+1013.81C1928.16+995.758+1943.67+977.551+1962.87+964.731C1984.99+949.968+2008.39+949.05+2028.05+927.395C2073.19+877.671+2090.45+833.136+2147.95+788.459L2147.25+787.572ZM2104.99+792.269C2052.07+804.477+2010.38+819.334+1968.94+855.846C1898.86+917.605+1852.07+1000.68+1783.12+1062.91C1712.9+1126.3+1627.62+1147.12+1617.75+1259.81L1619.74+1259.7C1625.96+1152.96+1717.94+1124.88+1784.16+1064.04C1852.47+1001.3+1900.71+919.208+1970.73+857.638C2011.96+821.388+2052.59+805.83+2105.17+793.025L2104.99+792.269ZM1999.9+743.271C1839.34+750.815+1760.54+872.491+1661.66+984.858L1662.38+985.717C1760.45+874.298+1840.1+751.464+1999.93+743.705L1999.9+743.271ZM2075.43+785.627C1916.4+772.993+1833.9+895.56+1731.94+993.244C1710.79+1013.51+1682.06+1020.78+1659.82+1038.86C1633.92+1059.91+1619.56+1091.84+1608.32+1122.38L1609.21+1122.83C1620.15+1092.25+1634.98+1060.88+1660.61+1039.72C1682.75+1021.43+1711.63+1014.74+1732.67+994.145C1832.07+896.873+1920.32+774.51+2075.4+785.893L2075.43+785.627ZM2155.33+843.986L2153.81+843.245C2134.49+878.905+2123.2+948.154+2099.91+974.999C2072.69+1006.37+2030.59+1023.51+2001.51+1053.57C1969.24+1086.91+1946.06+1128.17+1914.57+1161.18C1881.01+1196.35+1840.04+1220.37+1802.51+1250.52C1754.64+1288.97+1706.58+1325.14+1642.2+1317.58L1642.15+1318.36C1712.31+1333.21+1764.93+1279.2+1816.47+1241.9C1850.77+1217.08+1886.58+1193.45+1915.88+1162.52C1947.38+1129.28+1970.53+1088.05+2002.91+1054.81C2031.81+1025.15+2074.92+1008+2101.02+976.058C2117.57+955.787+2142.65+872.892+2155.33+843.986ZM2086.84+1070.33C2053.04+1117.18+2012.39+1164.8+1966.29+1205.25C2009.13+1170.39+2048.75+1127.77+2087.43+1070.74L2086.84+1070.33ZM1966.29+1205.25C1919.4+1243.41+1868.58+1272.25+1810.6+1299.78C1822.44+1294.62+1834.3+1289.54+1846.11+1284.32C1889.2+1265.28+1929.48+1237.55+1966.29+1205.25ZM1810.6+1299.78C1769.33+1317.75+1727.97+1335.51+1686.67+1353.41L1686.8+1354.67C1731.73+1335.31+1772.67+1317.79+1810.6+1299.78ZM2108.01+1126.07C2050.44+1192.82+2023.84+1265.42+1937.37+1304.79C1889.06+1326.79+1838.69+1347.09+1788.3+1363.77C1774.29+1368.41+1741.61+1370.06+1731.97+1382.11C1748.21+1371.49+1778.07+1369.94+1797.25+1363.58C1856.42+1343.93+1924.24+1321.66+1976.69+1287.53C2035.74+1249.1+2068.37+1181.44+2109.2+1126.97L2108.01+1126.07ZM1731.97+1382.11C1731.94+1382.13+1731.9+1382.15+1731.87+1382.17L1730.59+1384.04C1730.96+1383.36+1731.47+1382.74+1731.97+1382.11Z" stroke="#606060" stroke-width="1.95" fill="#606060" opacity="1" stroke-linejoin="round"/>
</g>
<g id="Roots0" vectornator:layerName="Roots0">
<path d="M1538.05+1207.39C1549.04+1242.5+1580.72+1247.81+1580.72+1247.81C1580.72+1247.81+1566.1+1196.92+1568.43+1217.66C1570.75+1238.4+1676.34+1383.16+1784.2+1391.6C1807.79+1393.45+1861.26+1390.88+1907.96+1368.01C1987.96+1328.85+2064.75+1258.06+2064.75+1258.06C2064.75+1258.06+2043.59+1283+2017.34+1308.45C1993.92+1331.17+1964.99+1354.75+1966.59+1354.52C2088.68+1337.26+2138.5+1234.81+2138.5+1234.81C2138.5+1234.81+2113.88+1284.63+2029.3+1365.61C1994.31+1399.1+1973.89+1411.21+1964.42+1415.39C1897.68+1444.85+1825+1469.79+1736.08+1452.32C1624+1430.31+1549.12+1258.5+1537.82+1208.84" fill-opacity="0.4375" fill="#606060" opacity="1"/>
</g>
<g id="Earth" vectornator:layerName="Earth">
<path d="M3328.3+4453.78C3345.36+4451.4+3315.43+4991.29+3331.69+4999.82C3355.24+5012.18+247.426+5486.19+48.6543+5138.88C-150.117+4791.56+36.1526+4395.48+65.6121+4392.73C74.5861+4391.9+274.8+4436.75+605.713+4443.24C762.364+4446.32+942.997+4448.75+1135.17+4450.66C1395.18+4453.25+1676.32+4454.87+1947.77+4455.8C2280.36+4456.95+2598.41+4457.05+2845.26+4456.62C3068.74+4456.24+3233.85+4455.41+3298.57+4454.52C3316.33+4454.28+3326.53+4454.03+3328.3+4453.78Z" fill-opacity="0.706019" fill="#535353" opacity="1"/>
</g>
<g id="Water" vectornator:layerName="Water">
<path d="M3546.89+1160.42C3620.71+1121.94+8840.16+1568.39+8889.03+1593.39C8922.21+1610.36+8963.7+4666.08+8923.53+4688.92C8878.07+4714.76-3464.84+4485.12-3457.7+4484.46C-2924.27+4434.48-3974.16+1101.18-3474.89+971.605C-3210.16+902.903-670.635+1149.84+521.066+1311.16C590.901+1320.62+656.107+1329.78+715.955+1338.56C819.406+1353.74+906.85+1367.81+974.521+1380.34C1042.12+1392.85+1089.99+1403.83+1114.37+1412.86C1265.85+1468.97+1328.08+1293.98+1252.82+1072.53C1237.71+1028.08+1152.4+878.294+1103.46+760.235C1054.52+642.177+958.877+570.837+958.877+570.837C958.877+570.837+1014.82+600.413+1093.08+661.479C1122.99+684.822+1156.17+712.766+1190.72+745.418C1238.13+790.211+1289.86+848.005+1352.46+914.242C1401.92+966.581+1458.17+1024.19+1524.42+1084.82C1555.42+1113.19+1619.9+1134.85+1697.44+1150.42C1793.81+1169.79+1910.35+1179.77+2007.88+1181.61C2096.5+1183.28+2169.41+1178.23+2197.2+1167.38C2271.96+1138.21+2332.36+1096.09+2384.33+1050.4C2470.03+975.049+2532.82+889.987+2599.31+837.237C2640.28+804.741+2678.15+776.176+2712.86+751.125C2890.43+622.936+2984.92+586.753+2984.92+586.753C2984.92+586.753+2879.2+620.224+2792.49+750.031C2705.77+879.839+2701.59+987.052+2638.07+1105.98C2615.64+1147.97+2584.2+1227.57+2638.25+1255.05C2680.56+1276.57+2739.03+1291.85+2820.22+1293.55C2905.59+1295.34+3014.53+1283.05+3090.94+1286.52C3151.44+1289.27+3210.22+1288.95+3261.72+1285.56C3320.37+1281.7+3516.34+1171.86+3549.64+1166.72" fill-opacity="0.602272" fill="#007e9f" opacity="1"/>
</g>
</svg>
