<?xml version="1.0" encoding="UTF-8" standalone="no"?> <!-- Created with Vectornator Pro for iOS (http://vectornator.io/) --><!DOCTYPE svg PUBLIC "-//W3C//DTD SVG 1.1//EN" "http://www.w3.org/Graphics/SVG/1.1/DTD/svg11.dtd">
<svg height="100%" style="fill-rule:evenodd;clip-rule:evenodd;stroke-linecap:round;stroke-linejoin:round;" xmlns:xlink="http://www.w3.org/1999/xlink" xmlns="http://www.w3.org/2000/svg" xml:space="preserve" width="100%" xmlns:vectornator="http://vectornator.io" version="1.1" viewBox="0 0 3840 2160">
<metadata>
<vectornator:setting key="RulersVisible" value="1"/>
<vectornator:setting key="SnapToEdges" value="0"/>
<vectornator:setting key="Units" value="Pixels"/>
<vectornator:setting key="DynamicGuides" value="0"/>
<vectornator:setting key="SnapToPoints" value="0"/>
<vectornator:setting key="CMYKEnabledKey" value="0"/>
<vectornator:setting key="SnapToGrid" value="0"/>
<vectornator:setting key="ShowGrid" value="1"/>
<vectornator:setting key="GridSpacing" value="36"/>
</metadata>
<defs/>
<g id="Earth" vectornator:layerName="Earth">
<path d="M5145.49+960.708C5158.31+958.861+4803.42+2565.51+4815.65+2572.13C4833.37+2581.72-905.773+2533.36-1055.28+2263.85C-1204.79+1994.34-1817.71+1746.36-1367.51+1244.29C-917.312+742.215-330.672+1080.76+180.869+1009.21C692.409+937.651+542.425+922.662+686.971+924.145C882.537+926.151+997.747+747.98+1382.98+882.18C1452.94+906.554+1592.18+847.047+1613.19+908.014C1658.55+1039.64+1990.86+1002.44+2089.5+887.539C2133.45+836.351+2176.47+927.863+2198.66+918.252C2709.11+697.17+3447.92+1083.68+4072.78+1111.58C4724.81+1140.69+5144.16+960.899+5145.49+960.708Z" fill-opacity="0.706019" fill="#834700" opacity="1"/>
</g>
<g id="Tree0" vectornator:layerName="Tree0">
<path d="M1857.59+709.624C1857.59+709.624+1784.53+708.912+1730.59+766.853C1676.66+824.795+1654.07+874.023+1644.54+944.652C1637.33+998.171+1624.15+1019.03+1625.22+1078.41C1626.29+1137.8+1646.12+1178.93+1646.12+1178.93C1646.12+1178.93+1655.69+1213.47+1693.39+1253.01C1711.41+1271.92+1738.05+1290.53+1764.02+1303.4C1757.27+1312.06+1749.39+1328.11+1751.25+1355.64C1756.1+1427.03+1788.82+1426.4+1810.82+1475.43C1832.81+1524.46+1848.58+1541.9+1835.07+1594.42C1821.56+1646.94+1781.03+1646.53+1756.78+1685.5C1732.53+1724.48+1733.58+1745.42+1741.55+1779.88C1749.51+1814.35+1807.36+1826.66+1807.36+1826.66C1807.36+1826.66+1736.01+1800.38+1767.87+1730.63C1785.02+1693.11+1838.53+1637.1+1838.53+1637.1C1838.53+1637.1+1872.48+1728.18+1927.21+1733.11C1950.94+1735.24+1984.24+1746.7+2011.05+1744.75C2058.15+1741.31+2094.37+1745.53+2098.33+1758.54C2117.09+1820.27+2132.27+1832.41+2132.27+1832.41C2132.27+1832.41+2214.58+1868.58+2223.72+1892.3C2238.27+1930.05+2205.7+2079.39+2205.7+2079.39L2269.44+1928.41C2269.44+1928.41+2279.15+1881.64+2267.37+1861.12C2245.27+1822.61+2184.96+1824.24+2159.98+1794.65C2133.65+1763.47+2158.49+1727.72+2140.59+1696.17C2112.18+1646.12+2022.81+1674.83+1929.28+1653.49C1863.62+1638.51+1899.5+1552.56+1896.73+1504.96C1892.99+1440.83+1866.24+1404.03+1839.91+1351.51C1832.07+1335.86+1831.98+1325.92+1835+1319.5C1900.31+1315.38+1944.85+1289.92+1976.92+1238.34C2011.42+1182.87+2038.14+1123.17+2041.12+1080.6C2044.1+1038.02+2039.28+991.211+2039.28+991.211C2039.28+991.211+2039.73+983.957+2040.27+973.485C2041.05+958.562+2042.03+937.098+2042.17+920.742C2042.43+892.908+2042.01+900.991+2040.29+879.881C2038.58+858.771+2025.32+818.04+2010.44+776.286C1995.57+734.533+1980.8+712.849+1980.8+712.849L1857.59+709.624Z" stroke="#b87858" stroke-width="3.78" fill="#8d5b46" opacity="1" stroke-linejoin="round"/>
</g>
<g id="Stone line" vectornator:layerName="Stone line">
<path d="M1989.1+721.533C1989.1+721.533+1945.64+692.627+1875.61+693.507C1806.5+694.375+1782.67+718.94+1750.47+777.963C1729+817.312+1668.7+872.669+1657.14+947.207C1647.68+1008.16+1589.76+1047.63+1593.52+1107.79C1597.29+1167.95+1637.44+1226.11+1681.29+1271.67C1692.13+1282.93+1705.92+1294.59+1720.8+1305.62C1714.49+1326.21+1700.66+1365.71+1679.34+1395.44C1667.33+1412.18+1637.09+1429.39+1579.44+1428.64C1508.24+1427.7+1481.71+1454.06+1452.17+1515.57C1427.05+1567.86+1421.16+1593.18+1346.02+1588.64C1260.37+1583.46+1214.79+1566.36+1179.93+1595.47C1147.99+1622.15+1133.72+1656.71+1115.65+1740.9C1095.87+1833.05+1007.81+1901.07+1007.81+1901.07C1007.81+1901.07+1079.75+1892.45+1103.68+1859.58C1126.73+1827.92+1155.42+1768.87+1166.79+1744.22C1194.12+1685.02+1225.92+1663.31+1269.96+1656.05C1293.81+1652.12+1359.42+1680.76+1359.42+1680.76C1359.42+1680.76+1352.93+1711.01+1384.21+1741.65C1413.08+1769.92+1478.84+1798.1+1502.28+1812.58C1556.62+1846.14+1512.1+1964.63+1512.1+1964.63C1512.1+1964.63+1591.64+1871.11+1537.07+1821.65C1465.01+1756.35+1437.48+1743.49+1443.26+1675.98C1450.21+1594.69+1512.84+1603.15+1531.54+1565.09C1548.46+1530.66+1603.28+1490.33+1603.28+1490.33C1603.28+1490.33+1598.35+1526.49+1613.1+1539.46C1622.05+1547.31+1623.43+1561.76+1622.22+1575.83C1625.67+1556.92+1628.7+1534.45+1627.68+1516.93C1625.72+1483.46+1637.76+1480.24+1637.76+1480.24C1637.76+1480.24+1702.84+1466.17+1726.11+1449.78C1758.81+1426.76+1781.86+1398.81+1800.67+1349.9C1811.39+1353.49+1821.31+1355.62+1829.72+1355.57C1914.81+1355.06+1967.21+1298.04+2002.16+1266.14C2030.3+1240.44+2062.47+1097.17+2064.94+1061.04C2067.41+1024.91+2095.5+1017.85+2076.88+989.765C2058.25+961.684+2079.58+941.009+2079.65+909.159C2079.72+877.31+2079.3+886.553+2077.16+862.382C2075.02+838.21+2063.64+801.985+2041.17+770.184C2022.48+743.723+1989.1+721.533+1989.1+721.533ZM1622.22+1575.83C1618.4+1596.8+1614.07+1613.35+1614.07+1613.35C1614.07+1613.35+1620.59+1594.95+1622.22+1575.83Z" stroke="#b77859" stroke-width="8.69" fill="#c28a72" opacity="1" stroke-linejoin="round"/>
</g>
<g id="Roots2" vectornator:layerName="Roots2">
<path d="M1979.64+746.858C1979.64+746.858+1909.35+727.104+1846.83+759.684C1775.39+796.915+1753.35+810.658+1721.15+869.682C1699.69+909.031+1665.47+922.091+1653.91+996.63C1644.45+1057.58+1589.75+1047.62+1593.51+1107.78C1597.28+1167.94+1637.46+1226.1+1681.3+1271.66C1718.91+1310.73+1790.45+1355.8+1829.74+1355.56C1859.74+1355.38+1885.61+1348.1+1908.15+1337.45C1965.03+1359.33+2002.74+1397.18+2032.9+1462.71C2042.12+1482.75+2038.37+1517.07+2049.81+1539.47C2065.81+1570.79+2104.68+1575.95+2136.76+1600.55C2163.99+1621.43+2203.23+1668.29+2235.82+1687.85C2271.73+1709.4+2304.12+1721.34+2355.14+1732.99C2400.05+1743.24+2443.93+1756.81+2477.78+1765.13C2555.79+1784.31+2542.25+1829.38+2507.78+1870.6C2471.4+1914.1+2473.14+1981.25+2473.14+1981.25C2473.14+1981.25+2483.6+1914.77+2537.56+1871.18C2577.21+1839.14+2607.18+1804.38+2591.8+1780.18C2557.81+1726.69+2480.84+1717.62+2410.83+1678.27C2370.89+1655.83+2299.69+1656.03+2271.62+1638.61C2256.23+1629.06+2226.53+1609.99+2202.63+1590.54C2189.73+1580.05+2178.53+1569.45+2172.17+1560.17C2165.82+1550.92+2157.95+1538.33+2150.58+1525.57C2139.64+1506.62+2129.81+1487.27+2127.76+1477.89C2113.5+1412.5+2065.58+1377.99+2065.58+1377.99C2065.58+1377.99+2107.37+1362.82+2140.67+1374.34C2164.08+1382.44+2177.03+1414.79+2195.42+1426.99C2214.84+1439.87+2214.59+1462.05+2216.14+1473.02C2221.23+1509.17+2210.55+1562.34+2210.55+1562.34C2210.55+1562.34+2221.26+1520.66+2236.8+1512.21C2252.35+1503.76+2272.73+1528.54+2272.73+1528.54C2272.73+1528.54+2292.59+1559.1+2343.06+1596.18C2363.02+1610.85+2376.12+1632.55+2412.34+1644.66C2438.05+1653.26+2457.98+1638.11+2512.05+1645.53C2551.46+1650.94+2567.49+1660.5+2593.6+1667.67C2596.92+1668.58+2617.83+1724.85+2656.94+1753.03C2676.76+1767.31+2721.34+1745.92+2729.67+1764.55C2735.65+1777.96+2757.43+1791.31+2754.97+1805.37C2747.91+1845.75+2694.71+1883.99+2694.71+1883.99C2694.71+1883.99+2756.66+1845.31+2774.42+1802.72C2781.07+1786.79+2762.84+1767.95+2759.92+1753.8C2754.97+1729.68+2705.49+1733.05+2682.02+1720.1C2654.77+1705.07+2653.55+1675.65+2655.48+1675.56C2682.31+1674.31+2688.37+1664.74+2721.72+1670.17C2763.98+1677.05+2764.9+1666.69+2797.66+1701.86C2830.42+1737.03+2882.41+1773.8+2852.76+1810.85C2798.16+1879.08+2842.68+1938.19+2842.68+1938.19C2842.68+1938.19+2837.92+1862.58+2888.3+1818.71C2938.68+1774.83+2889.74+1746.97+2898.48+1735.87C2912.25+1718.36+2855.38+1721.6+2846.63+1673.69C2837.87+1625.78+2443.34+1617.14+2396.09+1529.87C2381.85+1503.58+2325.28+1493.95+2309.53+1474.4C2273.02+1429.07+2276.86+1387.22+2255.39+1367.01C2201.23+1316.04+2169.87+1302.68+2042.5+1288.29C2024.25+1286.23+2006.36+1282.72+1989.01+1278.38C1993.63+1274.05+1998.03+1269.91+2002.15+1266.15C2030.29+1240.46+2047.6+1182.85+2050.08+1146.71C2052.55+1110.58+2046.18+1000.12+2046.18+1000.12C2046.18+1000.12+2092.87+875.386+2079.64+909.15C2066.41+942.915+2062.67+874.735+2060.53+850.564C2058.38+826.392+2063.66+802+2041.19+770.2C2022.49+743.738+1979.64+746.857+1979.64+746.858Z" stroke="#c28a72" stroke-width="3.16" fill="#af6446" opacity="1" stroke-linejoin="round"/>
</g>
<g id="Roots1" vectornator:layerName="Roots1">
<path d="M1918.66+861.564C1916.81+855.518+1920.45+705.121+1927.4+609.281C1930.17+571.181+1891.87+534.406+1856.86+456.242C1786.83+299.864+1865.44+139.884+1865.44+139.884C1865.44+139.884+1824.53+231.891+1806.37+320.225C1805.26+325.611+1777.07+274.731+1731.2+256.769C1670.68+233.072+1588.61+239.549+1588.61+239.549C1588.61+239.549+1672.52+249.418+1730.89+292.442C1775.15+325.065+1762.52+336.412+1781.62+374.792C1800.72+413.173+1810.12+464.702+1810.12+464.702C1810.12+464.702+1864.84+526.808+1886.41+604.713C1907.98+682.618+1874.56+808.552+1874.56+808.552C1874.56+808.552+1858.99+850.308+1844.24+868.706C1829.49+887.105+1823.31+902.736+1820.71+925.163C1818.73+942.157+1815.13+948.778+1815.42+967.635C1815.71+986.491+1821.14+999.556+1821.14+999.556C1821.14+999.556+1823.76+1010.53+1834.06+1023.08C1842.9+1033.85+1859.35+1044.53+1868.65+1044.38C1888.8+1044.07+1902.16+1036.03+1911.59+1018.42C1921.02+1000.8+1928.33+981.846+1929.14+968.327C1929.96+954.809+1928.64+939.948+1928.64+939.948C1928.64+939.948+1928.77+937.646+1928.92+934.321C1929.13+929.582+1929.39+922.766+1929.43+917.573C1929.5+908.734+1929.39+911.298+1928.92+904.595C1928.45+897.892+1922.73+874.823+1918.66+861.564Z" stroke="#3c9923" stroke-width="1.95" fill="#8db565" opacity="1" stroke-linejoin="round"/>
</g>
<g id="Shadow" vectornator:layerName="Shadow">
<path d="M1915.59+943.073C1914.35+939.568+1920.97+877.78+1937.31+791.251C1948.9+729.912+1965.37+656.141+1987.4+581.886C2006.41+517.793+2086.06+435.49+2197.84+397.839C2309.61+360.188+2358.9+443.685+2358.9+443.685C2358.9+443.685+2342.3+358.144+2247.8+333.544C2198.22+320.637+2123.77+356.025+2063.26+395.001C2058.58+398.02+2066.92+294.024+2017.65+240.902C1950.36+168.368+1891.01+267.693+1891.01+267.693C1891.01+267.693+1938.94+191.29+1990.21+278.368C2023.94+335.641+2000.16+440.55+1996.11+443.798C1938.7+489.854+1931.25+629.636+1909.94+725.257C1888.63+820.878+1866.23+921.412+1866.23+921.412C1866.23+921.412+1842.65+921.179+1825.23+940.004C1807.82+958.829+1800.52+974.822+1797.44+997.77C1795.11+1015.16+1790.86+1021.93+1791.2+1041.23C1791.55+1060.52+1797.95+1073.89+1797.95+1073.89C1797.95+1073.89+1801.04+1085.11+1813.21+1097.96C1823.65+1108.98+1843.08+1119.9+1854.06+1119.75C1877.85+1119.43+1893.62+1111.21+1904.76+1093.19C1915.9+1075.16+1924.53+1055.77+1925.49+1041.94C1926.45+1028.1+1924.9+1012.9+1924.9+1012.9C1924.9+1012.9+1925.05+1010.54+1925.22+1007.14C1925.47+1002.29+1925.79+995.318+1925.84+990.004C1925.92+980.96+1925.78+983.584+1925.23+976.725C1924.68+969.867+1920.39+956.639+1915.59+943.073Z" stroke="#3c9923" stroke-width="4.18" fill="#7aa450" opacity="1" stroke-linejoin="round"/>
</g>
<g id="Stone face" vectornator:layerName="Stone face">
<path d="M1963.85+757.755C1935.85+800.622+1934.05+845.425+1916.67+891.654C1908.73+912.768+1892.99+919.994+1881.08+936.596C1870.61+951.209+1864.56+968.819+1859.28+986.086C1845.69+1030.57+1848.92+1083.17+1830.64+1125.59C1821.55+1146.69+1792.72+1151.67+1783.77+1172.17C1770.52+1202.55+1757.67+1233.14+1744.61+1263.61L1745.61+1264.46C1758.7+1233.87+1771.59+1203.18+1784.88+1172.68C1793.73+1152.37+1822.55+1147.19+1831.7+1126.27C1850.32+1083.75+1847.35+1031.15+1860.93+986.561C1866.13+969.501+1872.11+951.999+1882.14+937.371C1893.69+920.525+1909.87+913.353+1917.84+892.198C1936.14+843.621+1936.25+806.558+1964.58+758.202L1963.85+757.755ZM1935.45+772.909C1901.57+796.471+1876.31+818.827+1857.05+856.801C1824.48+921.033+1814.02+994.226+1782.38+1058.49C1750.16+1123.94+1695.89+1162.73+1719.33+1247.11L1720.7+1246.48C1696.29+1167.42+1753.31+1121.51+1783.42+1059.01C1814.47+994.564+1826.21+921.68+1858.79+857.602C1877.97+819.877+1902.31+797.305+1935.77+773.408L1935.45+772.909ZM1848.44+766.637C1737.73+816.754+1715.2+926.814+1676.05+1035.71L1676.79+1036.14C1715.62+928.147+1738.44+817.012+1848.58+766.945L1848.44+766.637ZM1912.9+776.319C1797.82+811.39+1772.93+923.126+1727.66+1022.25C1718.27+1042.81+1700.06+1056.06+1689.32+1075.35C1676.8+1097.8+1675.33+1124.93+1675.66+1150.17L1676.41+1150.26C1675.85+1125.06+1677.81+1098.21+1690.1+1075.75C1700.72+1056.35+1719.19+1043.47+1728.42+1022.7C1772+924.585+1800.98+811.398+1912.95+776.52L1912.9+776.319ZM1984.73+796.377L1983.47+796.262C1979.51+827.47+1990.25+880.776+1981.13+906.702C1970.47+936.996+1945.53+961.122+1933.21+990.986C1919.54+1024.11+1914.39+1060.45+1901.17+1093.12C1887.09+1127.93+1864.79+1156.73+1846.56+1189.01C1823.31+1230.17+1799.31+1269.74+1752.07+1282.17L1752.25+1282.75C1805.51+1274+1827.91+1220.23+1854.04+1178.88C1871.43+1151.36+1890.21+1124.28+1902.45+1093.73C1915.61+1060.89+1920.75+1024.58+1934.53+991.497C1946.83+961.969+1972.48+937.562+1982.19+907.161C1988.36+887.87+1983.62+820.843+1984.73+796.377ZM1997.65+979.4C1986.54+1022.74+1970.84+1068.54+1949.37+1110.66C1970.05+1073.5+1986.39+1031.61+1998.18+979.531L1997.65+979.4ZM1949.37+1110.66C1926.72+1151.35+1898.82+1186.38+1865.52+1222.44C1872.45+1215.41+1879.41+1208.44+1886.29+1201.37C1911.41+1175.59+1932.23+1144.3+1949.37+1110.66ZM1865.52+1222.44C1841.39+1246.94+1817.13+1271.31+1792.95+1295.76L1793.38+1296.63C1819.72+1270.12+1843.74+1246.03+1865.52+1222.44ZM2027.54+1013.89C2005.1+1078.26+2006+1138.25+1955.89+1190.82C1927.9+1220.19+1898+1248.91+1867.11+1275C1858.53+1282.26+1836.02+1292.54+1832.5+1303.96C1841.04+1291.75+1861.59+1282.32+1873.34+1272.37C1909.6+1241.68+1951.22+1206.69+1978.85+1167.38C2009.95+1123.12+2014.63+1065.02+2028.62+1014.21L2027.54+1013.89ZM1832.5+1303.96C1832.49+1303.98+1832.46+1304+1832.45+1304.02L1832.06+1305.74C1832.13+1305.14+1832.32+1304.55+1832.5+1303.96Z" stroke="#606060" stroke-width="1.95" fill="#606060" opacity="1" stroke-linejoin="round"/>
</g>
<g id="Stone HL" vectornator:layerName="Stone HL">
<path d="M1963.85+757.755C1935.85+800.622+1934.05+845.425+1916.67+891.654C1908.73+912.768+1892.99+919.994+1881.08+936.596C1870.61+951.209+1864.56+968.819+1859.28+986.086C1845.69+1030.57+1848.92+1083.17+1830.64+1125.59C1821.55+1146.69+1792.72+1151.67+1783.77+1172.17C1770.52+1202.55+1757.67+1233.14+1744.61+1263.61L1745.61+1264.46C1758.7+1233.87+1771.59+1203.18+1784.88+1172.68C1793.73+1152.37+1822.55+1147.19+1831.7+1126.27C1850.32+1083.75+1847.35+1031.15+1860.93+986.561C1866.13+969.501+1872.11+951.999+1882.14+937.371C1893.69+920.525+1909.87+913.353+1917.84+892.198C1936.14+843.621+1936.25+806.558+1964.58+758.202L1963.85+757.755ZM1935.45+772.909C1901.57+796.471+1876.31+818.827+1857.05+856.801C1824.48+921.033+1814.02+994.226+1782.38+1058.49C1750.16+1123.94+1695.89+1162.73+1719.33+1247.11L1720.7+1246.48C1696.29+1167.42+1753.31+1121.51+1783.42+1059.01C1814.47+994.564+1826.21+921.68+1858.79+857.602C1877.97+819.877+1902.31+797.305+1935.77+773.408L1935.45+772.909ZM1848.44+766.637C1737.73+816.754+1715.2+926.814+1676.05+1035.71L1676.79+1036.14C1715.62+928.147+1738.44+817.012+1848.58+766.945L1848.44+766.637ZM1912.9+776.319C1797.82+811.39+1772.93+923.126+1727.66+1022.25C1718.27+1042.81+1700.06+1056.06+1689.32+1075.35C1676.8+1097.8+1675.33+1124.93+1675.66+1150.17L1676.41+1150.26C1675.85+1125.06+1677.81+1098.21+1690.1+1075.75C1700.72+1056.35+1719.19+1043.47+1728.42+1022.7C1772+924.585+1800.98+811.398+1912.95+776.52L1912.9+776.319ZM1984.73+796.377L1983.47+796.262C1979.51+827.47+1990.25+880.776+1981.13+906.702C1970.47+936.996+1945.53+961.122+1933.21+990.986C1919.54+1024.11+1914.39+1060.45+1901.17+1093.12C1887.09+1127.93+1864.79+1156.73+1846.56+1189.01C1823.31+1230.17+1799.31+1269.74+1752.07+1282.17L1752.25+1282.75C1805.51+1274+1827.91+1220.23+1854.04+1178.88C1871.43+1151.36+1890.21+1124.28+1902.45+1093.73C1915.61+1060.89+1920.75+1024.58+1934.53+991.497C1946.83+961.969+1972.48+937.562+1982.19+907.161C1988.36+887.87+1983.62+820.843+1984.73+796.377ZM1997.65+979.4C1986.54+1022.74+1970.84+1068.54+1949.37+1110.66C1970.05+1073.5+1986.39+1031.61+1998.18+979.531L1997.65+979.4ZM1949.37+1110.66C1926.72+1151.35+1898.82+1186.38+1865.52+1222.44C1872.45+1215.41+1879.41+1208.44+1886.29+1201.37C1911.41+1175.59+1932.23+1144.3+1949.37+1110.66ZM1865.52+1222.44C1841.39+1246.94+1817.13+1271.31+1792.95+1295.76L1793.38+1296.63C1819.72+1270.12+1843.74+1246.03+1865.52+1222.44ZM2027.54+1013.89C2005.1+1078.26+2006+1138.25+1955.89+1190.82C1927.9+1220.19+1898+1248.91+1867.11+1275C1858.53+1282.26+1836.02+1292.54+1832.5+1303.96C1841.04+1291.75+1861.59+1282.32+1873.34+1272.37C1909.6+1241.68+1951.22+1206.69+1978.85+1167.38C2009.95+1123.12+2014.63+1065.02+2028.62+1014.21L2027.54+1013.89ZM1832.5+1303.96C1832.49+1303.98+1832.46+1304+1832.45+1304.02L1832.06+1305.74C1832.13+1305.14+1832.32+1304.55+1832.5+1303.96Z" stroke="#606060" stroke-width="1.95" fill="#606060" opacity="1" stroke-linejoin="round"/>
</g>
<g id="Tree2" vectornator:layerName="Tree2">
<path d="M1963.85+757.755C1935.85+800.622+1934.05+845.425+1916.67+891.654C1908.73+912.768+1892.99+919.994+1881.08+936.596C1870.61+951.209+1864.56+968.819+1859.28+986.086C1845.69+1030.57+1848.92+1083.17+1830.64+1125.59C1821.55+1146.69+1792.72+1151.67+1783.77+1172.17C1770.52+1202.55+1757.67+1233.14+1744.61+1263.61L1745.61+1264.46C1758.7+1233.87+1771.59+1203.18+1784.88+1172.68C1793.73+1152.37+1822.55+1147.19+1831.7+1126.27C1850.32+1083.75+1847.35+1031.15+1860.93+986.561C1866.13+969.501+1872.11+951.999+1882.14+937.371C1893.69+920.525+1909.87+913.353+1917.84+892.198C1936.14+843.621+1936.25+806.558+1964.58+758.202L1963.85+757.755ZM1935.45+772.909C1901.57+796.471+1876.31+818.827+1857.05+856.801C1824.48+921.033+1814.02+994.226+1782.38+1058.49C1750.16+1123.94+1695.89+1162.73+1719.33+1247.11L1720.7+1246.48C1696.29+1167.42+1753.31+1121.51+1783.42+1059.01C1814.47+994.564+1826.21+921.68+1858.79+857.602C1877.97+819.877+1902.31+797.305+1935.77+773.408L1935.45+772.909ZM1848.44+766.637C1737.73+816.754+1715.2+926.814+1676.05+1035.71L1676.79+1036.14C1715.62+928.147+1738.44+817.012+1848.58+766.945L1848.44+766.637ZM1912.9+776.319C1797.82+811.39+1772.93+923.126+1727.66+1022.25C1718.27+1042.81+1700.06+1056.06+1689.32+1075.35C1676.8+1097.8+1675.33+1124.93+1675.66+1150.17L1676.41+1150.26C1675.85+1125.06+1677.81+1098.21+1690.1+1075.75C1700.72+1056.35+1719.19+1043.47+1728.42+1022.7C1772+924.585+1800.98+811.398+1912.95+776.52L1912.9+776.319ZM1984.73+796.377L1983.47+796.262C1979.51+827.47+1990.25+880.776+1981.13+906.702C1970.47+936.996+1945.53+961.122+1933.21+990.986C1919.54+1024.11+1914.39+1060.45+1901.17+1093.12C1887.09+1127.93+1864.79+1156.73+1846.56+1189.01C1823.31+1230.17+1799.31+1269.74+1752.07+1282.17L1752.25+1282.75C1805.51+1274+1827.91+1220.23+1854.04+1178.88C1871.43+1151.36+1890.21+1124.28+1902.45+1093.73C1915.61+1060.89+1920.75+1024.58+1934.53+991.497C1946.83+961.969+1972.48+937.562+1982.19+907.161C1988.36+887.87+1983.62+820.843+1984.73+796.377ZM1997.65+979.4C1986.54+1022.74+1970.84+1068.54+1949.37+1110.66C1970.05+1073.5+1986.39+1031.61+1998.18+979.531L1997.65+979.4ZM1949.37+1110.66C1926.72+1151.35+1898.82+1186.38+1865.52+1222.44C1872.45+1215.41+1879.41+1208.44+1886.29+1201.37C1911.41+1175.59+1932.23+1144.3+1949.37+1110.66ZM1865.52+1222.44C1841.39+1246.94+1817.13+1271.31+1792.95+1295.76L1793.38+1296.63C1819.72+1270.12+1843.74+1246.03+1865.52+1222.44ZM2027.54+1013.89C2005.1+1078.26+2006+1138.25+1955.89+1190.82C1927.9+1220.19+1898+1248.91+1867.11+1275C1858.53+1282.26+1836.02+1292.54+1832.5+1303.96C1841.04+1291.75+1861.59+1282.32+1873.34+1272.37C1909.6+1241.68+1951.22+1206.69+1978.85+1167.38C2009.95+1123.12+2014.63+1065.02+2028.62+1014.21L2027.54+1013.89ZM1832.5+1303.96C1832.49+1303.98+1832.46+1304+1832.45+1304.02L1832.06+1305.74C1832.13+1305.14+1832.32+1304.55+1832.5+1303.96Z" stroke="#606060" stroke-width="1.95" fill="#606060" opacity="1" stroke-linejoin="round"/>
</g>
<g id="Roots0" vectornator:layerName="Roots0">
<path d="M1649.24+1231.3C1666.42+1253.68+1690.1+1248.72+1690.1+1248.72C1690.1+1248.72+1666.11+1215.92+1673.34+1230.3C1680.56+1244.68+1793.72+1320.18+1871.73+1296.31C1888.8+1291.08+1925.65+1274.35+1952.28+1244.8C1997.9+1194.18+2032.74+1121.54+2032.74+1121.54C2032.74+1121.54+2024.6+1145.49+2013.04+1171.23C2002.71+1194.21+1988.75+1219.33+1989.82+1218.72C2070.89+1172.26+2078.26+1084.19+2078.26+1084.19C2078.26+1084.19+2074.4+1127.13+2036.83+1209.31C2021.3+1243.31+2010.22+1257.76+2004.7+1263.42C1965.77+1303.32+1921.46+1341.6+1854.31+1353.67C1769.68+1368.9+1670.79+1265.25+1649.46+1232.42" fill-opacity="0.4375" fill="#606060" opacity="1"/>
</g>
<g id="Water" vectornator:layerName="Water">
<path d="M5475.56-1869.58C5475.56-1869.58+6261.79-1985.25+6567.63-1925.92C6595.18-1920.57+6443.81+2635.54+6413.6+2653.26C6397.93+2662.45+4429.4+2663.75+2313.62+2625.86C-188.846+2581.05-2901.9+2494.88-2898.99+2494.6C-2626.82+2468.29-3903.97-361.474-3559.72-1741.18C-3478.33-2067.36-2525.18-1655.11-1618.51-1710.64C-706.784-1766.48-279.505-2024.14+274.433-2049.77C1428.61-2103.17+1825.57-1731.7+2993.11-1648.79C4269.86-1558.13+5510.66-1885.68+5510.66-1885.68" fill-opacity="0.19848" fill="#007e9f" opacity="1"/>
</g>
</svg>
