<?xml version="1.0" encoding="UTF-8" standalone="no"?> <!-- Created with Vectornator Pro for iOS (http://vectornator.io/) --><!DOCTYPE svg PUBLIC "-//W3C//DTD SVG 1.1//EN" "http://www.w3.org/Graphics/SVG/1.1/DTD/svg11.dtd">
<svg height="100%" style="fill-rule:evenodd;clip-rule:evenodd;stroke-linecap:round;stroke-linejoin:round;" xmlns:xlink="http://www.w3.org/1999/xlink" xmlns="http://www.w3.org/2000/svg" xml:space="preserve" width="100%" xmlns:vectornator="http://vectornator.io" version="1.1" viewBox="0 0 3840 2160">
<metadata>
<vectornator:setting key="RulersVisible" value="1"/>
<vectornator:setting key="GridSpacing" value="36"/>
<vectornator:setting key="Units" value="Pixels"/>
<vectornator:setting key="DynamicGuides" value="0"/>
<vectornator:setting key="SnapToPoints" value="0"/>
<vectornator:setting key="CMYKEnabledKey" value="0"/>
<vectornator:setting key="SnapToGrid" value="0"/>
<vectornator:setting key="ShowGrid" value="1"/>
<vectornator:setting key="SnapToEdges" value="0"/>
</metadata>
<defs/>
<g id="Space" vectornator:layerName="Space">
<path d="M-3109.69+2444.16C-3122.25+1426.87-1090.45-2124.09+1400.42-2124.09C3891.28-2124.09+6568.77-1517.33+6996.88+2239.08C7282.56+4745.83+3891.28+7012.41+1400.42+7012.41C-1090.45+7012.41-3097.13+3461.45-3109.69+2444.16Z" fill-opacity="0" fill="#00243f" opacity="1"/>
</g>
<g id="Sky" vectornator:layerName="Sky">
<path d="M-579.986-731.193L259.599-867.744L4325.2-731.193C4348.57-731.193+4367.51-712.251+4367.51-688.885L4367.51+2725.62C4367.51+2748.99+4348.57+2767.93+4325.2+2767.93L-579.986+2767.93C-603.352+2767.93-622.294+2748.99-622.294+2725.62L-741.776+651.387L-622.294-475.159C-622.294-498.525-603.352-731.193-579.986-731.193Z" fill-opacity="0" fill="#004376" opacity="1"/>
</g>
<g id="Earth" vectornator:layerName="Earth">
<path d="M4541.64+909.039C5011.69+845.713+5377.93+2956.5+4660.17+3487.09C3766.89+4147.42-223.916+4171.91-293.44+4050.11C-362.964+3928.31-1436.22+1101.37-1226.87+874.467C-1017.52+647.568+1050.92+1011.8+1288.8+979.466C1526.68+947.128+1456.93+940.354+1524.15+941.024C1615.09+941.931+1668.67+861.411+1847.81+922.059C1880.35+933.075+1945.09+906.182+1954.86+933.734C1975.96+993.22+2130.49+976.409+2176.36+924.481C2196.8+901.348+2216.8+942.705+2227.12+938.361C2464.49+838.448+2808.06+1013.12+3098.63+1025.73C3401.84+1038.89+4249.93+948.339+4541.64+909.039Z" fill-opacity="0.706019" fill="#834700" opacity="1"/>
</g>
<g id="Tree0" vectornator:layerName="Tree0">
<path d="M2122.91+829.504C2122.91+829.504+2088.93+829.182+2063.85+855.368C2038.77+881.553+2028.27+903.801+2023.84+935.72C2020.48+959.906+2014.35+969.332+2014.85+996.17C2015.35+1023.01+2024.57+1041.6+2024.57+1041.6C2024.57+1041.6+2029.02+1057.21+2046.55+1075.08C2054.93+1083.62+2067.32+1092.03+2079.4+1097.85C2076.26+1101.76+2072.59+1109.02+2073.46+1121.45C2075.71+1153.72+2090.93+1153.43+2101.16+1175.59C2111.39+1197.75+2118.72+1205.63+2112.44+1229.37C2106.16+1253.1+2068.45+1259.34+2057.17+1276.95C2045.9+1294.57+2036.08+1314.67+2039.79+1330.25C2040.83+1334.64+2041.74+1350.39+2054.12+1408.15C2054.57+1410.23+2015.95+1418.26+2003.73+1454.81C1997.5+1473.44+2009.99+1510.83+2006.97+1533.21C2004.85+1548.93+1988.36+1549.44+1985.3+1562C1982.84+1572.1+1991.88+1585.29+1991.67+1594.84C1991.26+1613.52+1973.64+1621.14+1974.01+1622.5C1974.66+1624.86+1996.52+1610.88+2000.53+1591.89C2002.58+1582.21+1992.93+1569.41+1998.78+1565.59C2009.09+1558.86+2021.29+1552.57+2024.47+1539.34C2030.28+1515.22+2017.87+1480.95+2025.69+1463.6C2037.05+1438.42+2067.19+1448.1+2068.39+1451.83C2077.01+1478.72+2087.49+1515.71+2094.87+1539.06C2105.98+1574.19+2188.31+1605.54+2192.75+1611.22C2199.91+1620.39+2209.57+1635.66+2216.05+1645.01C2254.54+1700.52+2211.77+1796.25+2211.77+1796.25C2211.77+1796.25+2275+1694.84+2234.24+1617.21C2221.99+1593.87+2154.35+1575.23+2141.63+1553.81C2133.96+1540.89+2128.45+1527.71+2124+1514.48C2122.79+1510.9+2136.7+1486.16+2165.85+1492.56C2177.57+1495.13+2196.25+1518.43+2216.29+1523.75C2248.07+1532.18+2281.38+1522.92+2281.38+1522.92C2281.38+1522.92+2248.93+1519.89+2220.36+1505.13C2205.7+1497.56+2197.6+1475.23+2183.91+1472.92C2146.23+1466.56+2110.85+1467.99+2109.75+1464.02C2106.64+1452.75+2103.26+1441.68+2098.88+1430.94C2067.95+1355.18+2094.64+1329.4+2099.7+1318.64C2107.67+1301.68+2100.58+1286.14+2126.03+1275.52C2126.03+1275.52+2129.83+1289.82+2155.28+1292.04C2166.32+1293.01+2181.8+1298.19+2194.27+1297.3C2216.17+1295.75+2233.02+1297.66+2234.86+1303.54C2243.58+1331.43+2250.64+1336.92+2250.64+1336.92C2250.64+1336.92+2271.77+1344.32+2283.01+1358.32C2291.07+1368.38+2279.16+1385.08+2292.18+1408.97C2305.2+1432.87+2371.12+1410.99+2344.95+1455.62C2332.3+1477.18+2286.61+1544.69+2292.73+1584.22C2298.39+1620.82+2355.34+1629.03+2358.28+1660.4C2372.66+1813.8+2276.52+1861.77+2276.52+1861.77C2276.52+1861.77+2326.04+1841.99+2349.73+1804.94C2382.44+1753.8+2391.67+1678.5+2385.54+1655.85C2370.33+1599.7+2295.08+1624.56+2312.47+1558.58C2317.98+1537.71+2327.14+1522.87+2337.43+1511.06C2339.28+1508.93+2384.72+1514.98+2415.68+1545.83C2437.25+1567.32+2374.23+1664.72+2400.81+1712.11C2437.55+1777.61+2561.72+1793.23+2563.58+1791.56C2567.1+1788.43+2452.48+1763.89+2425.57+1701.01C2402.83+1647.84+2469.42+1557.44+2450.07+1530.15C2424.09+1493.49+2378.43+1473.02+2381.45+1469.55C2388.24+1461.76+2393.25+1453.04+2395.01+1441.66C2400.81+1404.17+2353.74+1414.28+2333.35+1391.34C2330.97+1388.66+2355.32+1367.39+2392.33+1360.82C2423.57+1355.27+2478.35+1394.11+2539.77+1410.13C2572.29+1418.61+2624.86+1377.07+2654.53+1381.57C2709.04+1389.84+2731.62+1439.89+2731.02+1438.47C2730.13+1436.35+2707+1374.49+2658.31+1360.76C2626.8+1351.87+2575.99+1393.7+2542.55+1381.79C2477.92+1358.77+2431.68+1325.51+2395.98+1327.6C2351.94+1330.18+2314.68+1351.95+2313.47+1349.9C2303.19+1332.49+2275.14+1333.23+2263.53+1319.86C2251.28+1305.76+2262.83+1289.61+2254.51+1275.35C2241.3+1252.73+2199.74+1265.71+2156.25+1256.06C2125.71+1249.29+2142.4+1210.45+2141.11+1188.94C2139.37+1159.95+2126.93+1143.33+2114.69+1119.59C2111.04+1112.52+2111+1108.02+2112.4+1105.13C2142.78+1103.26+2163.49+1091.75+2178.4+1068.45C2194.44+1043.38+2206.87+1016.4+2208.25+997.156C2209.64+977.916+2207.4+956.761+2207.4+956.761C2207.4+956.761+2207.61+953.483+2207.86+948.75C2208.22+942.006+2208.68+932.306+2208.74+924.914C2208.86+912.335+2208.67+915.988+2207.87+906.448C2207.07+896.908+2200.9+878.501+2193.99+859.631C2187.07+840.761+2180.21+830.962+2180.21+830.962L2122.91+829.504Z" stroke="#b87858" stroke-width="3.78" fill="#8d5b46" opacity="1" stroke-linejoin="round"/>
</g>
<g id="Stone line" vectornator:layerName="Stone line">
<path d="M2174.66+841.634C2174.66+841.634+2154.45+828.571+2121.88+828.969C2089.75+829.361+2078.67+840.462+2063.69+867.136C2053.71+884.919+2025.67+909.936+2020.29+943.622C2015.89+971.168+1988.96+989.006+1990.71+1016.19C1992.46+1043.38+2011.13+1069.67+2031.52+1090.25C2036.56+1095.34+2042.97+1100.61+2049.9+1105.6C2046.96+1114.9+2040.53+1132.76+2030.61+1146.19C2025.03+1153.76+2010.97+1161.53+1984.16+1161.19C1951.05+1160.77+1938.71+1172.68+1924.97+1200.48C1913.29+1224.11+1910.55+1235.55+1875.61+1233.5C1835.78+1231.16+1814.59+1223.44+1798.38+1236.59C1783.53+1248.65+1776.89+1264.27+1768.48+1302.31C1766.63+1310.71+1734.52+1323.26+1690.57+1343.05C1688.54+1343.97+1646.33+1322.22+1576.08+1328.47C1528.39+1332.71+1558.65+1416.95+1471.52+1424.38C1316.3+1437.61+1035.03+1374.77+1032.37+1375.96C1026.99+1378.38+1309.92+1458+1484.21+1449.11C1557.2+1445.39+1564.14+1351.12+1598.24+1349.46C1637.9+1347.54+1643.76+1365.13+1641.2+1366.6C1621.94+1377.62+1604.78+1391.43+1596.3+1410.62C1590.61+1423.5+1596.32+1456.53+1591.77+1470.7C1587.69+1483.4+1574.47+1507.15+1572.42+1527.86C1567.25+1579.93+1576.5+1641.56+1566.32+1671.46C1532.85+1769.71+1486.28+1778.89+1486.28+1778.89C1486.28+1778.89+1556.4+1759.96+1590.91+1684.67C1608.93+1645.35+1590.17+1565.72+1604.62+1518.78C1609.51+1502.87+1627.8+1485.27+1634.25+1465.86C1640.96+1445.64+1635.84+1423.66+1642.12+1410.66C1652.56+1389.03+1672.73+1391.11+1695.75+1383.71C1726.93+1373.68+1761.15+1358.32+1762.92+1355.95C1764.06+1354.42+1789.65+1367.8+1821.26+1396.57C1826.25+1401.12+1840.46+1445.43+1827.08+1484C1823.52+1494.28+1779.78+1498.2+1772.65+1511.92C1754.88+1546.09+1805.88+1559.36+1805.88+1559.36C1805.88+1559.36+1768+1549.35+1788.51+1519.83C1798.8+1505.03+1831.79+1503.84+1838.52+1492.6C1854.59+1465.75+1847.45+1426.8+1851.53+1432.77C1864.92+1452.3+1905.64+1505.48+1916.04+1530.44C1934.45+1574.62+1815.4+1671.76+1835.87+1723.21C1880.86+1836.28+2005.91+1852.6+2007.77+1849.21C2009.79+1845.53+1902.75+1827.56+1868.86+1726.91C1849.25+1668.64+1964.15+1584.21+1944.3+1528.31C1899.41+1401.87+1790.98+1306.53+1792.27+1303.81C1804.98+1277.06+1819.76+1267.25+1840.24+1263.97C1851.34+1262.19+1881.84+1275.13+1881.84+1275.13C1881.84+1275.13+1878.83+1288.8+1893.37+1302.65C1906.8+1315.43+1937.38+1328.16+1948.28+1334.71C1973.55+1349.88+1952.85+1403.42+1952.85+1403.42C1952.85+1403.42+1989.83+1361.16+1964.45+1338.81C1930.94+1309.29+1918.14+1303.49+1920.83+1272.98C1924.07+1236.24+1953.19+1240.06+1961.89+1222.86C1969.75+1207.3+1995.24+1189.07+1995.24+1189.07C1995.24+1189.07+1992.95+1205.42+1999.81+1211.28C2003.97+1214.83+2004.61+1221.35+2004.05+1227.71C2005.66+1219.17+2007.07+1209.01+2006.59+1201.09C2005.68+1185.97+2011.28+1184.51+2011.28+1184.51C2011.28+1184.51+2041.54+1178.15+2052.37+1170.75C2067.57+1160.35+2078.29+1147.71+2087.04+1125.61C2092.02+1127.23+2096.64+1128.2+2100.55+1128.17C2140.11+1127.94+2164.48+1102.17+2180.73+1087.76C2193.82+1076.14+2208.78+1011.4+2209.93+995.067C2211.08+978.737+2224.14+975.546+2215.48+962.856C2206.82+950.165+2216.74+940.821+2216.77+926.428C2216.8+912.034+2216.61+916.211+2215.61+905.288C2214.61+894.364+2209.32+877.993+2198.88+863.621C2190.18+851.662+2174.66+841.634+2174.66+841.634ZM2004.05+1227.71C2002.28+1237.19+2000.26+1244.67+2000.26+1244.67C2000.26+1244.67+2003.29+1236.36+2004.05+1227.71Z" stroke="#b77859" stroke-width="8.69" fill="#c28a72" opacity="1" stroke-linejoin="round"/>
</g>
<g id="Roots2" vectornator:layerName="Roots2">
<path d="M2170.26+853.079C2170.26+853.079+2137.58+844.152+2108.5+858.876C2075.28+875.701+2065.03+881.912+2050.06+908.587C2040.08+926.369+2024.17+932.272+2018.79+965.958C2014.39+993.503+1988.95+989.002+1990.7+1016.19C1992.45+1043.38+2011.14+1069.66+2031.53+1090.25C2049.02+1107.91+2082.28+1128.28+2100.55+1128.17C2114.51+1128.09+2126.53+1124.8+2137.02+1119.98C2163.47+1129.87+2181.01+1146.98+2195.03+1176.59C2199.32+1185.65+2197.57+1201.16+2202.89+1211.28C2210.33+1225.44+2228.41+1227.77+2243.33+1238.88C2255.99+1248.32+2274.24+1269.5+2289.39+1278.34C2306.09+1288.08+2321.15+1293.47+2344.88+1298.74C2365.76+1303.37+2386.17+1309.5+2401.91+1313.26C2438.19+1321.93+2431.89+1342.3+2415.86+1360.93C2398.94+1380.59+2399.75+1410.93+2399.75+1410.93C2399.75+1410.93+2404.62+1380.89+2429.71+1361.19C2448.15+1346.71+2462.08+1331+2454.93+1320.06C2439.12+1295.89+2403.33+1291.79+2370.77+1274.01C2352.2+1263.87+2319.09+1263.96+2306.04+1256.08C2298.88+1251.77+2285.07+1243.15+2273.96+1234.36C2267.96+1229.62+2262.75+1224.83+2259.79+1220.64C2256.84+1216.45+2253.18+1210.77+2249.75+1205C2244.67+1196.43+2240.1+1187.69+2239.14+1183.45C2232.51+1153.9+2210.23+1138.31+2210.23+1138.31C2210.23+1138.31+2229.66+1131.45+2245.15+1136.65C2256.03+1140.31+2262.05+1154.94+2270.61+1160.45C2279.64+1166.27+2279.52+1176.29+2280.24+1181.25C2282.61+1197.59+2277.64+1221.62+2277.64+1221.62C2277.64+1221.62+2282.62+1202.78+2289.85+1198.96C2297.08+1195.14+2306.56+1206.34+2306.56+1206.34C2306.56+1206.34+2315.79+1220.15+2339.26+1236.91C2348.54+1243.54+2354.63+1253.35+2371.48+1258.82C2383.44+1262.7+2392.7+1255.86+2417.84+1259.21C2436.17+1261.66+2443.63+1265.98+2455.77+1269.22C2457.31+1269.63+2467.04+1295.06+2485.22+1307.8C2494.44+1314.25+2515.17+1304.58+2519.04+1313C2521.83+1319.06+2531.95+1325.1+2530.81+1331.45C2527.53+1349.7+2502.79+1366.98+2502.79+1366.98C2502.79+1366.98+2531.59+1349.5+2539.86+1330.25C2542.95+1323.05+2534.47+1314.54+2533.11+1308.14C2530.81+1297.24+2507.8+1298.77+2496.89+1292.92C2484.21+1286.12+2483.65+1272.83+2484.54+1272.79C2497.02+1272.22+2499.84+1267.89+2515.35+1270.35C2535+1273.46+2535.43+1268.77+2550.66+1284.67C2565.89+1300.56+2590.07+1317.18+2576.28+1333.93C2550.89+1364.76+2571.59+1391.47+2571.59+1391.47C2571.59+1391.47+2569.38+1357.3+2592.81+1337.48C2594.45+1336.09+2644.61+1343.04+2692.75+1341.04C2722.93+1339.79+2758.32+1332.04+2782.46+1337.82C2798.71+1341.72+2797.78+1348.11+2813.29+1366.01C2828.8+1383.92+2834.98+1377.59+2844.51+1409.44C2849.54+1426.26+2849+1462.32+2849.98+1483.42C2850.77+1500.51+2862.16+1511.54+2861.47+1529.4C2860.87+1544.84+2852.36+1560.66+2850.38+1575.84C2842.2+1638.62+2920.06+1688.34+2920.06+1688.34C2920.06+1688.34+2860.34+1644.56+2874.54+1586.08C2879.04+1567.52+2876.94+1546.94+2878.96+1526.93C2882+1496.84+2867.8+1468.83+2865.4+1440.17C2865.15+1437.1+2878.71+1430.84+2900.85+1424.55C2900.85+1424.55+2943.11+1435.92+2981.4+1458.56C2987.35+1462.07+3022.53+1477.23+3028.72+1480.96C3076.92+1510.06+3052.39+1538.57+3052.39+1538.57C3052.39+1538.57+3086.38+1494.09+3048.58+1466.46C3007.01+1436.07+2941.02+1415.52+2950.42+1414.42C2964.69+1412.75+3016.26+1406.85+3028.67+1406.78C3122.85+1406.23+3184.66+1496.06+3183.04+1489C3181.45+1482.08+3126.41+1388.93+3028.58+1375.55C2983.66+1369.41+2924.27+1393.79+2889.74+1392.23C2856.25+1390.72+2846.93+1363.23+2845.4+1360.74C2831.65+1338.37+2813.72+1321.55+2783.43+1317.46C2754.38+1313.54+2715.33+1327.65+2689.86+1324.75C2629.33+1317.86+2596.81+1300.95+2597.54+1300.04C2603.95+1292.13+2577.5+1293.59+2573.43+1271.94C2569.36+1250.29+2385.89+1246.38+2363.92+1206.94C2357.3+1195.06+2330.99+1190.71+2323.67+1181.88C2306.69+1161.39+2308.48+1142.48+2298.49+1133.34C2273.31+1110.31+2258.72+1104.27+2199.49+1097.77C2191.01+1096.84+2182.69+1095.25+2174.62+1093.29C2176.77+1091.33+2178.81+1089.46+2180.73+1087.76C2193.82+1076.15+2201.87+1050.11+2203.02+1033.78C2204.17+1017.46+2201.2+967.535+2201.2+967.535C2201.2+967.535+2222.92+911.164+2216.76+926.424C2210.61+941.683+2208.87+910.87+2207.88+899.947C2206.88+889.023+2209.33+878+2198.88+863.628C2190.19+851.669+2170.26+853.079+2170.26+853.079Z" stroke="#c28a72" stroke-width="3.16" fill="#af6446" opacity="1" stroke-linejoin="round"/>
</g>
<g id="Roots1" vectornator:layerName="Roots1">
<path d="M2209.61+894.872C2208.75+892.139+2044.01+576.57+2047.24+533.257C2048.53+516.039+2015.19+491.548+1998.91+456.224C1987.27+430.98+1939.19+375.834+1960.96+343.703C1972.14+327.189+2065.93+338.65+2081.14+328.973C2119.18+304.766+2123.22+185.486+2123.22+185.486C2123.22+185.486+2102.81+298.128+2058.95+317.365C2044+323.922+1959.19+311.559+1947.68+322.711C1928.92+340.877+1931.19+404.97+1928.72+416.66C1928.39+418.217+1906.18+372.404+1868.06+367.716C1846.59+365.075+1841.96+391.807+1814.85+382.996C1786.19+373.684+1691.06+306.389+1691.06+306.389C1691.06+306.389+1791.86+382.751+1796.9+410.586C1801.55+436.299+1854.73+388.207+1864.59+395.274C1885.17+410.018+1908.33+423.976+1917.21+441.321C1926.09+458.666+1992.7+471.721+1975.91+505.186C1959.13+538.652+1832.49+572.423+1787.6+571.63C1755.18+571.057+1747.42+449.296+1694.42+429.515C1681.7+424.767+1651.7+433.276+1616.38+445.883C1608.74+448.61+1633.46+412.983+1622.72+372.849C1616.64+350.123+1488.92+335.402+1460.07+294.252C1409.23+221.735+1501.54+93.4843+1493.43+96.579C1486.92+99.0681+1367.77+235.402+1404.9+311.458C1425.78+354.216+1559.06+365.929+1557.07+391.248C1553.33+438.772+1563.37+453.983+1557.16+456.099C1532.31+464.575+1459.44+501.343+1446.6+500.664C1301.96+493.028+1247.07+288.813+1251.09+295.796C1252.82+298.795+1315.16+527.993+1449.06+540.197C1494.46+544.334+1637.76+440.43+1670.18+455.262C1729.95+482.61+1737.68+598.45+1774.34+603.355C1850.31+613.519+1985.57+553.003+1986.98+557.982C1993.45+580.686+2086.14+718.642+2118.15+790.415C2135.77+829.942+2062.85+861.233+2062.85+861.233C2062.85+861.233+2040.01+890.05+2033.15+898.364C2026.29+906.679+2019.47+934.313+2018.26+944.448C2017.34+952.128+1995.76+988.178+1995.9+996.699C1996.03+1005.22+1991.73+1038.99+1991.73+1038.99C1991.73+1038.99+1999.94+1060.69+2004.73+1066.36C2008.84+1071.23+2035.88+1101.11+2040.21+1101.04C2049.57+1100.9+2080.13+1130.55+2080.13+1130.55C2080.13+1130.55+2119.51+1122.64+2141.83+1117.54C2164.14+1112.43+2191.94+1076.95+2191.94+1076.95C2191.94+1076.95+2196.48+1052.83+2196.55+1051.33C2196.64+1049.19+2203.36+1013.2+2203.36+1013.2C2203.36+1013.2+2211.59+974.527+2211.37+971.498C2211.16+968.469+2211.5+900.864+2209.61+894.872Z" stroke="#3c9923" stroke-width="1.95" fill="#507a26" opacity="1" stroke-linejoin="round"/>
</g>
<g id="Shadow" vectornator:layerName="Shadow">
<path d="M2544.9+509.19C2544.9+509.19+2635.76+566.757+2695.21+567.058C2754.66+567.36+2744.07+510.33+2782.7+510.396C2821.34+510.462+2797.85+558.712+2849.73+567.324C2901.62+575.935+2990.25+544.842+2990.25+544.842C2990.25+544.842+2907.87+554.974+2857.03+538.105C2806.18+521.237+2825.56+477.869+2786.87+477.368C2748.18+476.868+2746.44+535.792+2702.26+536.103C2658.09+536.414+2610.17+478.614+2610.17+478.614C2610.17+478.614+2822.7+384.674+2869.5+408.24C2916.31+431.805+3014.7+329.293+3014.7+329.293C3014.7+329.293+2942.94+390.276+2881.97+384.981C2837.78+381.144+2793.94+382.617+2740.11+401.884C2732.62+404.565+2761.03+368.72+2719.95+338.513C2706.42+328.566+2663.97+332.538+2650.28+323.448C2609.15+296.148+2601.81+253.78+2601.81+253.78C2601.81+253.78+2596.13+304.986+2628.21+337.989C2643.8+354.024+2689.22+351+2700.75+366.897C2724.71+399.944+2678.22+425.657+2671.51+428.331C2564.98+470.777+2478.07+502.915+2411.78+535.631C2407.5+537.745+2449.41+529.138+2446.86+465.931C2445.62+435.379+2411.16+399.44+2421.88+356.897C2428.17+331.933+2473.63+266.765+2460.38+243.617C2431.34+192.848+2321.32+192.937+2318.92+194.27C2316.24+195.751+2409.81+208.881+2430.12+260.357C2437.73+279.643+2402.1+326.782+2395.03+348.148C2381.1+390.226+2420.8+434.733+2418.22+466.742C2412.41+538.81+2357.96+565.338+2354.04+567.878C2284.1+613.157+2265.01+653.606+2266.48+620.894C2269.94+543.642+2278.19+517.813+2269.09+471.404C2259.98+424.995+2228.2+398.587+2220.9+390.939C2189.61+358.159+2107.89+406.728+2107.89+406.728C2107.89+406.728+2190.38+390.653+2214.22+430.006C2229.91+455.889+2250.02+520.866+2240.11+564.08C2230.2+607.294+2222.23+643.971+2222.23+643.971C2222.23+643.971+2217.29+687.616+2209.19+696.124C2201.1+704.631+2152.11+804.512+2119.64+819.929C2087.17+835.347+2055.68+848.243+2030.99+898.567C2006.3+948.892+1976.07+992.424+1992.46+1031.78C2008.84+1071.13+2028.03+1104.15+2074.58+1117.31C2121.14+1130.47+2153.28+1119.84+2178.67+1084.42C2204.07+1049+2198.99+1021.27+2205.25+975.178C2211.51+929.086+2201.4+939.801+2208.34+895.696C2215.28+851.591+2233.01+798.758+2233.01+798.758C2233.01+798.758+2248+736.887+2248.08+735.349C2248.2+733.158+2299.11+657.062+2299.13+654.66C2299.17+650.573+2435.26+562.202+2435.26+562.202L2544.9+509.19Z" stroke="#3c9923" stroke-width="4.18" fill="#4f8b16" opacity="1" stroke-linejoin="round"/>
</g>
<g id="Stone face" vectornator:layerName="Stone face">
<path d="M2162.92+858.004C2149.9+877.377+2149.06+897.624+2140.98+918.516C2137.29+928.058+2129.97+931.324+2124.43+938.827C2119.56+945.431+2116.74+953.39+2114.29+961.193C2107.97+981.294+2109.47+1005.07+2100.97+1024.24C2096.75+1033.77+2083.34+1036.02+2079.18+1045.29C2073.02+1059.02+2067.04+1072.84+2060.97+1086.61L2061.43+1087C2067.52+1073.17+2073.52+1059.3+2079.69+1045.52C2083.81+1036.34+2097.21+1034+2101.47+1024.55C2110.12+1005.33+2108.75+981.559+2115.06+961.407C2117.48+953.698+2120.26+945.788+2124.92+939.177C2130.29+931.564+2137.82+928.323+2141.52+918.762C2150.03+896.809+2150.09+880.059+2163.26+858.206L2162.92+858.004ZM2149.71+864.852C2133.96+875.501+2122.21+885.604+2113.25+902.765C2098.11+931.794+2093.24+964.871+2078.53+993.912C2063.55+1023.49+2038.31+1041.02+2049.21+1079.16L2049.85+1078.87C2038.5+1043.14+2065.01+1022.39+2079.01+994.151C2093.45+965.024+2098.91+932.086+2114.06+903.128C2122.98+886.078+2134.3+875.878+2149.86+865.078L2149.71+864.852ZM2109.25+862.018C2057.77+884.667+2047.29+934.406+2029.09+983.621L2029.43+983.812C2047.49+935.009+2058.1+884.784+2109.31+862.157L2109.25+862.018ZM2139.22+866.393C2085.71+882.243+2074.14+932.739+2053.09+977.535C2048.72+986.827+2040.25+992.817+2035.25+1001.53C2029.44+1011.68+2028.75+1023.94+2028.9+1035.35L2029.25+1035.39C2028.99+1024+2029.9+1011.86+2035.62+1001.71C2040.56+992.945+2049.15+987.125+2053.44+977.738C2073.7+933.399+2087.18+882.247+2139.25+866.484L2139.22+866.393ZM2172.63+875.458L2172.04+875.406C2170.2+889.51+2175.2+913.6+2170.95+925.317C2166+939.008+2154.4+949.911+2148.67+963.407C2142.31+978.379+2139.92+994.799+2133.77+1009.56C2127.22+1025.3+2116.85+1038.31+2108.38+1052.9C2097.57+1071.5+2086.41+1089.38+2064.44+1095L2064.52+1095.26C2089.29+1091.31+2099.7+1067.01+2111.86+1048.32C2119.94+1035.88+2128.68+1023.65+2134.37+1009.84C2140.49+994.998+2142.88+978.589+2149.28+963.638C2155+950.294+2166.93+939.263+2171.45+925.524C2174.32+916.807+2172.11+886.515+2172.63+875.458ZM2178.64+958.171C2173.47+977.756+2166.17+998.455+2156.18+1017.49C2165.8+1000.7+2173.4+981.765+2178.88+958.231L2178.64+958.171ZM2156.18+1017.49C2145.65+1035.88+2132.68+1051.71+2117.2+1068.01C2120.41+1064.83+2123.65+1061.68+2126.85+1058.49C2138.53+1046.84+2148.21+1032.69+2156.18+1017.49ZM2117.2+1068.01C2105.97+1079.08+2094.69+1090.09+2083.45+1101.14L2083.65+1101.54C2095.89+1089.55+2107.07+1078.67+2117.2+1068.01ZM2192.54+973.76C2182.1+1002.85+2182.52+1029.96+2159.22+1053.72C2146.2+1066.99+2132.3+1079.97+2117.93+1091.76C2113.94+1095.04+2103.48+1099.69+2101.84+1104.85C2105.81+1099.33+2115.37+1095.07+2120.83+1090.57C2137.69+1076.7+2157.05+1060.89+2169.89+1043.12C2184.36+1023.12+2186.53+996.867+2193.04+973.902L2192.54+973.76ZM2101.84+1104.85C2101.83+1104.86+2101.82+1104.87+2101.81+1104.88L2101.63+1105.65C2101.67+1105.38+2101.75+1105.11+2101.84+1104.85Z" stroke="#606060" stroke-width="1.95" fill="#606060" opacity="1" stroke-linejoin="round"/>
</g>
<g id="Stone HL" vectornator:layerName="Stone HL">
<path d="M2162.92+858.004C2149.9+877.377+2149.06+897.624+2140.98+918.516C2137.29+928.058+2129.97+931.324+2124.43+938.827C2119.56+945.431+2116.74+953.39+2114.29+961.193C2107.97+981.294+2109.47+1005.07+2100.97+1024.24C2096.75+1033.77+2083.34+1036.02+2079.18+1045.29C2073.02+1059.02+2067.04+1072.84+2060.97+1086.61L2061.43+1087C2067.52+1073.17+2073.52+1059.3+2079.69+1045.52C2083.81+1036.34+2097.21+1034+2101.47+1024.55C2110.12+1005.33+2108.75+981.559+2115.06+961.407C2117.48+953.698+2120.26+945.788+2124.92+939.177C2130.29+931.564+2137.82+928.323+2141.52+918.762C2150.03+896.809+2150.09+880.059+2163.26+858.206L2162.92+858.004ZM2149.71+864.852C2133.96+875.501+2122.21+885.604+2113.25+902.765C2098.11+931.794+2093.24+964.871+2078.53+993.912C2063.55+1023.49+2038.31+1041.02+2049.21+1079.16L2049.85+1078.87C2038.5+1043.14+2065.01+1022.39+2079.01+994.151C2093.45+965.024+2098.91+932.086+2114.06+903.128C2122.98+886.078+2134.3+875.878+2149.86+865.078L2149.71+864.852ZM2109.25+862.018C2057.77+884.667+2047.29+934.406+2029.09+983.621L2029.43+983.812C2047.49+935.009+2058.1+884.784+2109.31+862.157L2109.25+862.018ZM2139.22+866.393C2085.71+882.243+2074.14+932.739+2053.09+977.535C2048.72+986.827+2040.25+992.817+2035.25+1001.53C2029.44+1011.68+2028.75+1023.94+2028.9+1035.35L2029.25+1035.39C2028.99+1024+2029.9+1011.86+2035.62+1001.71C2040.56+992.945+2049.15+987.125+2053.44+977.738C2073.7+933.399+2087.18+882.247+2139.25+866.484L2139.22+866.393ZM2172.63+875.458L2172.04+875.406C2170.2+889.51+2175.2+913.6+2170.95+925.317C2166+939.008+2154.4+949.911+2148.67+963.407C2142.31+978.379+2139.92+994.799+2133.77+1009.56C2127.22+1025.3+2116.85+1038.31+2108.38+1052.9C2097.57+1071.5+2086.41+1089.38+2064.44+1095L2064.52+1095.26C2089.29+1091.31+2099.7+1067.01+2111.86+1048.32C2119.94+1035.88+2128.68+1023.65+2134.37+1009.84C2140.49+994.998+2142.88+978.589+2149.28+963.638C2155+950.294+2166.93+939.263+2171.45+925.524C2174.32+916.807+2172.11+886.515+2172.63+875.458ZM2178.64+958.171C2173.47+977.756+2166.17+998.455+2156.18+1017.49C2165.8+1000.7+2173.4+981.765+2178.88+958.231L2178.64+958.171ZM2156.18+1017.49C2145.65+1035.88+2132.68+1051.71+2117.2+1068.01C2120.41+1064.83+2123.65+1061.68+2126.85+1058.49C2138.53+1046.84+2148.21+1032.69+2156.18+1017.49ZM2117.2+1068.01C2105.97+1079.08+2094.69+1090.09+2083.45+1101.14L2083.65+1101.54C2095.89+1089.55+2107.07+1078.67+2117.2+1068.01ZM2192.54+973.76C2182.1+1002.85+2182.52+1029.96+2159.22+1053.72C2146.2+1066.99+2132.3+1079.97+2117.93+1091.76C2113.94+1095.04+2103.48+1099.69+2101.84+1104.85C2105.81+1099.33+2115.37+1095.07+2120.83+1090.57C2137.69+1076.7+2157.05+1060.89+2169.89+1043.12C2184.36+1023.12+2186.53+996.867+2193.04+973.902L2192.54+973.76ZM2101.84+1104.85C2101.83+1104.86+2101.82+1104.87+2101.81+1104.88L2101.63+1105.65C2101.67+1105.38+2101.75+1105.11+2101.84+1104.85Z" stroke="#606060" stroke-width="1.95" fill="#606060" opacity="1" stroke-linejoin="round"/>
</g>
<g id="Tree2" vectornator:layerName="Tree2">
<path d="M2162.92+858.004C2149.9+877.377+2149.06+897.624+2140.98+918.516C2137.29+928.058+2129.97+931.324+2124.43+938.827C2119.56+945.431+2116.74+953.39+2114.29+961.193C2107.97+981.294+2109.47+1005.07+2100.97+1024.24C2096.75+1033.77+2083.34+1036.02+2079.18+1045.29C2073.02+1059.02+2067.04+1072.84+2060.97+1086.61L2061.43+1087C2067.52+1073.17+2073.52+1059.3+2079.69+1045.52C2083.81+1036.34+2097.21+1034+2101.47+1024.55C2110.12+1005.33+2108.75+981.559+2115.06+961.407C2117.48+953.698+2120.26+945.788+2124.92+939.177C2130.29+931.564+2137.82+928.323+2141.52+918.762C2150.03+896.809+2150.09+880.059+2163.26+858.206L2162.92+858.004ZM2149.71+864.852C2133.96+875.501+2122.21+885.604+2113.25+902.765C2098.11+931.794+2093.24+964.871+2078.53+993.912C2063.55+1023.49+2038.31+1041.02+2049.21+1079.16L2049.85+1078.87C2038.5+1043.14+2065.01+1022.39+2079.01+994.151C2093.45+965.024+2098.91+932.086+2114.06+903.128C2122.98+886.078+2134.3+875.878+2149.86+865.078L2149.71+864.852ZM2109.25+862.018C2057.77+884.667+2047.29+934.406+2029.09+983.621L2029.43+983.812C2047.49+935.009+2058.1+884.784+2109.31+862.157L2109.25+862.018ZM2139.22+866.393C2085.71+882.243+2074.14+932.739+2053.09+977.535C2048.72+986.827+2040.25+992.817+2035.25+1001.53C2029.44+1011.68+2028.75+1023.94+2028.9+1035.35L2029.25+1035.39C2028.99+1024+2029.9+1011.86+2035.62+1001.71C2040.56+992.945+2049.15+987.125+2053.44+977.738C2073.7+933.399+2087.18+882.247+2139.25+866.484L2139.22+866.393ZM2172.63+875.458L2172.04+875.406C2170.2+889.51+2175.2+913.6+2170.95+925.317C2166+939.008+2154.4+949.911+2148.67+963.407C2142.31+978.379+2139.92+994.799+2133.77+1009.56C2127.22+1025.3+2116.85+1038.31+2108.38+1052.9C2097.57+1071.5+2086.41+1089.38+2064.44+1095L2064.52+1095.26C2089.29+1091.31+2099.7+1067.01+2111.86+1048.32C2119.94+1035.88+2128.68+1023.65+2134.37+1009.84C2140.49+994.998+2142.88+978.589+2149.28+963.638C2155+950.294+2166.93+939.263+2171.45+925.524C2174.32+916.807+2172.11+886.515+2172.63+875.458ZM2178.64+958.171C2173.47+977.756+2166.17+998.455+2156.18+1017.49C2165.8+1000.7+2173.4+981.765+2178.88+958.231L2178.64+958.171ZM2156.18+1017.49C2145.65+1035.88+2132.68+1051.71+2117.2+1068.01C2120.41+1064.83+2123.65+1061.68+2126.85+1058.49C2138.53+1046.84+2148.21+1032.69+2156.18+1017.49ZM2117.2+1068.01C2105.97+1079.08+2094.69+1090.09+2083.45+1101.14L2083.65+1101.54C2095.89+1089.55+2107.07+1078.67+2117.2+1068.01ZM2192.54+973.76C2182.1+1002.85+2182.52+1029.96+2159.22+1053.72C2146.2+1066.99+2132.3+1079.97+2117.93+1091.76C2113.94+1095.04+2103.48+1099.69+2101.84+1104.85C2105.81+1099.33+2115.37+1095.07+2120.83+1090.57C2137.69+1076.7+2157.05+1060.89+2169.89+1043.12C2184.36+1023.12+2186.53+996.867+2193.04+973.902L2192.54+973.76ZM2101.84+1104.85C2101.83+1104.86+2101.82+1104.87+2101.81+1104.88L2101.63+1105.65C2101.67+1105.38+2101.75+1105.11+2101.84+1104.85Z" stroke="#606060" stroke-width="1.95" fill="#606060" opacity="1" stroke-linejoin="round"/>
</g>
<g id="Roots0" vectornator:layerName="Roots0">
<path d="M2016.62+1072.01C2024.61+1082.13+2035.62+1079.88+2035.62+1079.88C2035.62+1079.88+2024.46+1065.06+2027.82+1071.56C2031.18+1078.06+2083.81+1112.18+2120.08+1101.39C2128.02+1099.03+2145.16+1091.47+2157.54+1078.11C2178.75+1055.23+2194.96+1022.41+2194.96+1022.41C2194.96+1022.41+2191.17+1033.23+2185.79+1044.87C2180.99+1055.25+2174.5+1066.6+2174.99+1066.33C2212.7+1045.33+2216.12+1005.53+2216.12+1005.53C2216.12+1005.53+2214.33+1024.93+2196.86+1062.08C2189.63+1077.44+2184.48+1083.97+2181.91+1086.53C2163.81+1104.56+2143.21+1121.86+2111.98+1127.32C2072.62+1134.2+2026.64+1087.35+2016.72+1072.52" fill-opacity="0.4375" fill="#606060" opacity="1"/>
</g>
<g id="Water" vectornator:layerName="Water">
<path d="M3775.34+30.4643C3775.34+30.4643+4140.96-21.8088+4283.18+5.00556C4295.99+7.42075+4165.98+3079.91+4151.47+3087.05C3819.76+3250.16+3228.78+3091.79+2244.89+3074.67C1081.18+3054.42-180.455+3015.47-179.102+3015.34C-52.5355+3003.46-586.365+712.019-426.28+88.4924C-388.433-58.9189+54.8071+127.39+476.428+102.295C900.403+77.06+1099.1-39.3859+1356.69-50.9675C1893.41-75.0984+2078.01+92.7787+2620.94+130.246C3214.66+171.218+3791.67+23.1904+3791.67+23.1904" fill-opacity="0.19848" fill="#007e9f" opacity="1"/>
</g>
</svg>
